<?xml version="1.0" encoding="UTF-8" standalone="no"?>
<!DOCTYPE svg PUBLIC "-//W3C//DTD SVG 1.1//EN" "http://www.w3.org/Graphics/SVG/1.1/DTD/svg11.dtd">
<svg version="1.1" xmlns="http://www.w3.org/2000/svg" xmlns:xlink="http://www.w3.org/1999/xlink" preserveAspectRatio="xMidYMid meet" viewBox="0 0 510 200" width="510" height="200"><defs><path d="M217.94 115.31C217.84 115.38 217.71 115.41 217.57 115.41C217.42 115.41 217.25 115.35 217.07 115.24C216.89 115.13 216.67 115 216.42 114.86C216.17 114.72 215.88 114.6 215.54 114.49C215.21 114.37 214.82 114.31 214.36 114.31C213.95 114.31 213.59 114.36 213.29 114.46C212.99 114.56 212.73 114.69 212.52 114.87C212.31 115.05 212.16 115.26 212.05 115.51C211.95 115.75 211.9 116.02 211.9 116.31C211.9 116.69 212 117 212.21 117.25C212.42 117.5 212.7 117.71 213.04 117.88C213.39 118.06 213.78 118.22 214.22 118.36C214.66 118.5 215.11 118.65 215.56 118.81C216.03 118.96 216.48 119.15 216.92 119.36C217.36 119.56 217.75 119.83 218.09 120.15C218.44 120.47 218.71 120.85 218.92 121.32C219.13 121.78 219.24 122.34 219.24 123C219.24 123.72 219.11 124.39 218.86 125.02C218.62 125.65 218.26 126.19 217.79 126.66C217.32 127.12 216.74 127.49 216.06 127.76C215.38 128.03 214.6 128.16 213.72 128.16C213.21 128.16 212.71 128.11 212.22 128C211.73 127.91 211.26 127.77 210.8 127.59C210.35 127.4 209.93 127.18 209.54 126.93C209.15 126.67 208.8 126.38 208.49 126.07C208.58 125.93 209.26 124.79 209.35 124.65C209.43 124.55 209.52 124.46 209.63 124.4C209.75 124.32 209.88 124.29 210.02 124.29C210.2 124.29 210.4 124.36 210.61 124.52C210.83 124.66 211.08 124.83 211.36 125.01C211.65 125.2 212 125.36 212.38 125.52C212.78 125.67 213.25 125.74 213.8 125.74C214.65 125.74 215.3 125.54 215.76 125.14C216.22 124.74 216.45 124.17 216.45 123.42C216.45 123 216.35 122.66 216.14 122.39C215.93 122.13 215.66 121.91 215.31 121.73C214.97 121.55 214.57 121.4 214.13 121.27C213.69 121.15 213.25 121.01 212.79 120.87C212.34 120.72 211.89 120.54 211.45 120.34C211.01 120.13 210.62 119.86 210.27 119.53C209.93 119.2 209.65 118.79 209.44 118.3C209.23 117.8 209.13 117.19 209.13 116.47C209.13 115.89 209.24 115.32 209.47 114.77C209.7 114.22 210.04 113.73 210.48 113.31C210.93 112.88 211.48 112.54 212.12 112.29C212.77 112.03 213.5 111.9 214.33 111.9C215.27 111.9 216.14 112.05 216.93 112.34C217.72 112.63 218.39 113.04 218.95 113.57C218.9 113.67 218.66 114.13 218.23 114.97C218.11 115.15 218.01 115.27 217.94 115.31ZM229.82 122.12C229.93 122.37 230.04 122.62 230.14 122.88C230.24 122.61 230.35 122.35 230.46 122.1C230.57 121.84 230.69 121.6 230.81 121.36C231.28 120.48 235.05 113.43 235.52 112.55C235.58 112.44 235.64 112.35 235.7 112.29C235.76 112.22 235.83 112.17 235.91 112.14C235.99 112.11 236.07 112.09 236.17 112.09C236.26 112.08 236.38 112.08 236.51 112.08C236.66 112.08 237.4 112.08 238.74 112.08L238.74 127.98L236.14 127.98C236.14 121.82 236.14 118.39 236.14 117.71C236.14 117.52 236.14 117.31 236.15 117.08C236.16 116.85 236.18 116.62 236.2 116.39C235.72 117.29 231.88 124.51 231.4 125.41C231.29 125.61 231.14 125.78 230.97 125.89C230.79 126 230.59 126.06 230.35 126.06C230.31 126.06 229.98 126.06 229.94 126.06C229.71 126.06 229.5 126 229.33 125.89C229.15 125.78 229.01 125.61 228.9 125.41C228.41 124.5 224.51 117.26 224.03 116.36C224.05 116.6 224.07 116.84 224.08 117.07C224.1 117.3 224.1 117.51 224.1 117.71C224.1 118.39 224.1 121.82 224.1 127.98L221.5 127.98L221.5 112.08C222.83 112.08 223.58 112.08 223.73 112.08C223.86 112.08 223.97 112.08 224.07 112.09C224.16 112.09 224.25 112.11 224.32 112.14C224.4 112.17 224.48 112.22 224.54 112.29C224.61 112.35 224.67 112.44 224.73 112.55C225.05 113.14 226.63 116.08 229.48 121.38C229.64 121.7 229.75 121.95 229.82 122.12ZM250.19 115.31C250.08 115.38 249.96 115.41 249.81 115.41C249.67 115.41 249.5 115.35 249.32 115.24C249.14 115.13 248.92 115 248.67 114.86C248.42 114.72 248.13 114.6 247.79 114.49C247.46 114.37 247.07 114.31 246.61 114.31C246.2 114.31 245.84 114.36 245.53 114.46C245.23 114.56 244.98 114.69 244.76 114.87C244.56 115.05 244.41 115.26 244.3 115.51C244.2 115.75 244.15 116.02 244.15 116.31C244.15 116.69 244.25 117 244.46 117.25C244.67 117.5 244.95 117.71 245.29 117.88C245.64 118.06 246.03 118.22 246.47 118.36C246.91 118.5 247.36 118.65 247.81 118.81C248.27 118.96 248.72 119.15 249.16 119.36C249.6 119.56 250 119.83 250.34 120.15C250.69 120.47 250.96 120.85 251.17 121.32C251.38 121.78 251.49 122.34 251.49 123C251.49 123.72 251.36 124.39 251.11 125.02C250.87 125.65 250.51 126.19 250.03 126.66C249.56 127.12 248.99 127.49 248.31 127.76C247.62 128.03 246.84 128.16 245.96 128.16C245.46 128.16 244.96 128.11 244.47 128C243.98 127.91 243.5 127.77 243.05 127.59C242.6 127.4 242.18 127.18 241.78 126.93C241.39 126.67 241.05 126.38 240.74 126.07C240.82 125.93 241.51 124.79 241.6 124.65C241.68 124.55 241.77 124.46 241.88 124.4C242 124.32 242.13 124.29 242.27 124.29C242.45 124.29 242.65 124.36 242.86 124.52C243.07 124.66 243.32 124.83 243.61 125.01C243.9 125.2 244.24 125.36 244.63 125.52C245.03 125.67 245.5 125.74 246.05 125.74C246.89 125.74 247.55 125.54 248.01 125.14C248.47 124.74 248.7 124.17 248.7 123.42C248.7 123 248.6 122.66 248.38 122.39C248.18 122.13 247.9 121.91 247.56 121.73C247.21 121.55 246.82 121.4 246.38 121.27C245.94 121.15 245.49 121.01 245.04 120.87C244.58 120.72 244.14 120.54 243.7 120.34C243.26 120.13 242.87 119.86 242.52 119.53C242.18 119.2 241.9 118.79 241.68 118.3C241.48 117.8 241.38 117.19 241.38 116.47C241.38 115.89 241.49 115.32 241.72 114.77C241.95 114.22 242.29 113.73 242.73 113.31C243.18 112.88 243.72 112.54 244.37 112.29C245.01 112.03 245.75 111.9 246.58 111.9C247.52 111.9 248.38 112.05 249.18 112.34C249.97 112.63 250.64 113.04 251.2 113.57C251.15 113.67 250.91 114.13 250.47 114.97C250.36 115.15 250.26 115.27 250.19 115.31Z" id="at9iclwz"></path><path d="M249.53 35C249.53 34.13 249.53 27.19 249.53 26.32C249.53 22.85 246.66 19.98 243.19 19.98C240.58 19.98 219.74 19.98 217.13 19.98C213.66 19.98 210.79 22.85 210.79 26.32C210.79 31.98 210.79 77.32 210.79 82.99C210.79 86.46 213.66 89.32 217.13 89.32C219.74 89.32 240.58 89.32 243.19 89.32C246.66 89.32 249.53 86.46 249.53 82.99C249.53 81.92 249.53 76.56 249.53 66.93L249.53 66.85L249.53 35.17C249.53 35.11 249.53 35.05 249.53 35ZM247.36 74.13L212.97 74.13L212.97 29.7L247.36 29.7L247.36 35L247.36 67.02L247.36 74.13Z" id="b1hCFfqSTa"></path><path d="M246.89 29.48C246.89 29.48 246.89 29.48 246.89 29.48C246.89 56.27 246.89 71.15 246.89 74.12C246.89 74.12 246.89 74.12 246.89 74.12C226.37 74.12 214.97 74.12 212.69 74.12C212.69 74.12 212.69 74.12 212.69 74.12C212.69 47.34 212.69 32.46 212.69 29.48C212.69 29.48 212.69 29.48 212.69 29.48C233.21 29.48 244.61 29.48 246.89 29.48Z" id="f9BmnzD2m"></path><path d="M224.43 36.12C222.26 36.12 220.43 37.95 220.43 40.12C220.43 41.86 220.43 55.81 220.43 57.56C220.43 59.73 222.17 61.55 224.43 61.55C224.72 61.55 227.01 61.55 227.3 61.55C227.38 61.55 227.38 61.64 227.38 61.64C227.38 62.45 227.38 68.98 227.38 69.8C227.38 70.14 227.56 70.4 227.9 70.49C227.99 70.49 228.08 70.58 228.16 70.58C228.42 70.58 228.6 70.49 228.77 70.32C229.21 69.81 231.41 67.26 235.37 62.68L236.33 61.55C244.25 61.55 248.65 61.55 249.53 61.55C251.7 61.55 253.52 59.82 253.52 57.56C253.52 55.81 253.52 41.86 253.52 40.12C253.44 37.86 251.7 36.12 249.53 36.12C244.51 36.12 226.94 36.12 224.43 36.12ZM227.3 53.57C226.86 53.57 226.51 53.22 226.51 52.79C226.51 52.35 226.86 52.01 227.3 52.01C228.38 52.01 237.07 52.01 238.15 52.01C238.59 52.01 238.93 52.35 238.93 52.79C238.93 53.22 238.59 53.57 238.15 53.57C235.98 53.57 228.38 53.57 227.3 53.57ZM227.3 48.97C226.86 48.97 226.51 48.62 226.51 48.19C226.51 47.75 226.86 47.41 227.3 47.41C229.23 47.41 244.73 47.41 246.66 47.41C247.1 47.41 247.45 47.75 247.45 48.19C247.45 48.62 247.1 48.97 246.66 48.97C242.79 48.97 229.23 48.97 227.3 48.97ZM227.3 44.37C226.86 44.37 226.51 44.02 226.51 43.59C226.51 43.15 226.86 42.81 227.3 42.81C229.23 42.81 244.73 42.81 246.66 42.81C247.1 42.81 247.45 43.15 247.45 43.59C247.45 44.02 247.1 44.37 246.66 44.37C242.79 44.37 229.23 44.37 227.3 44.37Z" id="b1ktVn8ZRi"></path><path d="M234.42 81.77C234.42 79.34 232.51 77.43 230.08 77.43C227.64 77.43 225.73 79.34 225.73 81.77C225.73 84.2 227.73 86.11 230.08 86.11C232.51 86.11 234.42 84.2 234.42 81.77ZM232.25 81.77C232.25 82.99 231.29 83.94 230.08 83.94C228.86 83.94 227.9 82.99 227.9 81.77C227.9 80.56 228.95 79.6 230.08 79.6C231.29 79.6 232.25 80.56 232.25 81.77Z" id="b2SGQNCYgm"></path><path d="M231.08 22.84C231.08 22.41 230.73 22.06 230.3 22.06C229.87 22.06 229.52 22.41 229.52 22.84C229.52 23.28 229.87 23.62 230.3 23.62C230.73 23.62 231.08 23.28 231.08 22.84Z" id="ac261ngh"></path><path d="M227.09 25.18C226.48 25.18 226.05 25.62 226.05 26.05C226.05 26.56 226.57 26.92 227.09 26.92C227.68 26.92 232.39 26.92 232.98 26.92C233.59 26.92 234.02 26.48 234.02 26.05C234.02 25.62 233.59 25.18 232.98 25.18C231.8 25.18 227.68 25.18 227.09 25.18Z" id="f2Qx4n4Z0D"></path><path d="M253.44 37.14C253.44 36.47 252.89 35.93 252.22 35.93C251.55 35.93 251.01 36.47 251.01 37.14C251.01 37.81 251.55 38.36 252.22 38.36C252.89 38.36 253.44 37.81 253.44 37.14Z" id="bE3MvY9YV"></path><path d="M53.65 114.43L46.6 114.43L46.6 118.84L52.15 118.84L52.15 121.12L46.6 121.12L46.6 125.62L53.65 125.62L53.65 127.98L43.61 127.98L43.61 112.08L53.65 112.08L53.65 114.43ZM56.05 116.7C57.05 116.7 57.6 116.7 57.71 116.7C58.06 116.7 58.29 116.86 58.4 117.19C58.42 117.28 58.56 117.94 58.58 118.03C58.78 117.81 58.98 117.61 59.2 117.42C59.42 117.24 59.65 117.08 59.89 116.95C60.14 116.82 60.4 116.71 60.68 116.64C60.97 116.56 61.28 116.52 61.62 116.52C62.33 116.52 62.91 116.71 63.37 117.1C63.83 117.48 64.17 117.99 64.4 118.63C64.58 118.26 64.8 117.94 65.06 117.68C65.32 117.4 65.61 117.18 65.93 117.02C66.24 116.85 66.58 116.72 66.93 116.64C67.29 116.56 67.65 116.52 68.01 116.52C68.63 116.52 69.18 116.62 69.67 116.81C70.15 117 70.56 117.28 70.89 117.64C71.22 118.01 71.47 118.46 71.64 118.98C71.81 119.51 71.9 120.12 71.9 120.8C71.9 121.28 71.9 123.67 71.9 127.98L69.18 127.98C69.18 123.67 69.18 121.28 69.18 120.8C69.18 120.08 69.03 119.54 68.71 119.18C68.4 118.82 67.93 118.63 67.33 118.63C67.05 118.63 66.79 118.68 66.54 118.78C66.31 118.87 66.1 119.01 65.92 119.19C65.74 119.37 65.6 119.59 65.5 119.86C65.4 120.14 65.35 120.45 65.35 120.8C65.35 121.28 65.35 123.67 65.35 127.98L62.62 127.98C62.62 123.67 62.62 121.28 62.62 120.8C62.62 120.04 62.46 119.49 62.16 119.15C61.86 118.8 61.41 118.63 60.81 118.63C60.43 118.63 60.06 118.73 59.71 118.93C59.38 119.12 59.06 119.38 58.77 119.72C58.77 120.27 58.77 123.03 58.77 127.98L56.05 127.98L56.05 116.7ZM82.19 127.98C81.94 127.98 81.74 127.95 81.59 127.87C81.44 127.79 81.33 127.63 81.26 127.4C81.23 127.32 81.04 126.68 81.02 126.6C80.73 126.85 80.45 127.08 80.17 127.28C79.9 127.47 79.62 127.63 79.32 127.76C79.03 127.89 78.72 127.99 78.39 128.06C78.06 128.13 77.69 128.16 77.29 128.16C76.81 128.16 76.37 128.1 75.97 127.97C75.56 127.84 75.22 127.65 74.92 127.39C74.64 127.13 74.41 126.81 74.25 126.43C74.09 126.05 74.01 125.61 74.01 125.1C74.01 124.68 74.12 124.26 74.34 123.85C74.57 123.43 74.94 123.05 75.46 122.72C75.98 122.39 76.68 122.11 77.54 121.89C78.41 121.67 79.48 121.54 80.76 121.51C80.76 121.45 80.76 120.92 80.76 120.85C80.76 120.1 80.6 119.54 80.28 119.18C79.96 118.82 79.5 118.63 78.89 118.63C78.45 118.63 78.09 118.68 77.79 118.79C77.5 118.89 77.24 119.01 77.02 119.14C76.81 119.26 76.61 119.38 76.43 119.48C76.25 119.58 76.04 119.63 75.82 119.63C75.64 119.63 75.48 119.59 75.35 119.49C75.22 119.4 75.11 119.28 75.03 119.14C74.98 119.05 74.59 118.36 74.54 118.27C75.84 117.08 77.4 116.49 79.23 116.49C79.89 116.49 80.48 116.6 80.99 116.82C81.52 117.03 81.96 117.33 82.31 117.72C82.67 118.1 82.95 118.56 83.13 119.09C83.32 119.63 83.41 120.22 83.41 120.85C83.41 121.33 83.41 123.71 83.41 127.98C82.68 127.98 82.27 127.98 82.19 127.98ZM78.9 126.21C79.14 126.16 79.36 126.08 79.56 125.98C79.78 125.88 79.98 125.75 80.17 125.61C80.37 125.45 80.57 125.27 80.76 125.07C80.76 124.88 80.76 123.35 80.76 123.16C79.97 123.2 79.31 123.27 78.77 123.37C78.24 123.47 77.82 123.59 77.5 123.75C77.17 123.9 76.94 124.08 76.8 124.29C76.67 124.49 76.61 124.72 76.61 124.96C76.61 125.43 76.74 125.78 77.02 125.98C77.31 126.19 77.68 126.29 78.13 126.29C78.41 126.29 78.67 126.26 78.9 126.21ZM88.98 127.98L86.26 127.98L86.26 116.7L88.98 116.7L88.98 127.98ZM89.24 114.07C89.15 114.27 89.02 114.45 88.86 114.61C88.7 114.76 88.52 114.89 88.31 114.98C88.1 115.07 87.87 115.11 87.63 115.11C87.39 115.11 87.17 115.07 86.95 114.98C86.75 114.89 86.57 114.76 86.42 114.61C86.26 114.45 86.14 114.27 86.04 114.07C85.95 113.86 85.91 113.64 85.91 113.41C85.91 113.17 85.95 112.94 86.04 112.73C86.14 112.51 86.26 112.33 86.42 112.18C86.57 112.02 86.75 111.9 86.95 111.81C87.17 111.72 87.39 111.67 87.63 111.67C87.87 111.67 88.1 111.72 88.31 111.81C88.52 111.9 88.7 112.02 88.86 112.18C89.02 112.33 89.15 112.51 89.24 112.73C89.34 112.94 89.39 113.17 89.39 113.41C89.39 113.64 89.34 113.86 89.24 114.07ZM94.95 127.98L92.23 127.98L92.23 111.64L94.95 111.64L94.95 127.98Z" id="bfcGOhBxO"></path><path d="M11.73 147.09C11.89 147.09 12.02 147.12 12.11 147.2C12.21 147.28 12.28 147.38 12.33 147.5C12.69 148.41 15.61 155.69 15.97 156.6C16.06 156.8 16.13 157.02 16.2 157.26C16.27 157.5 16.34 157.75 16.41 158.01C16.46 157.75 16.52 157.5 16.58 157.26C16.64 157.02 16.72 156.8 16.8 156.6C17.16 155.69 20.07 148.41 20.43 147.5C20.47 147.4 20.54 147.3 20.64 147.22C20.75 147.13 20.87 147.09 21.02 147.09C21.12 147.09 21.58 147.09 22.43 147.09L17.17 159.98L15.6 159.98L10.34 147.09C11.18 147.09 11.64 147.09 11.73 147.09ZM25.6 159.98L24 159.98L24 150.87L25.6 150.87L25.6 159.98ZM25.86 148.44C25.8 148.58 25.72 148.7 25.61 148.8C25.51 148.91 25.39 148.99 25.25 149.05C25.11 149.11 24.96 149.14 24.81 149.14C24.65 149.14 24.5 149.11 24.37 149.05C24.23 148.99 24.11 148.91 24.01 148.8C23.9 148.7 23.82 148.58 23.76 148.44C23.7 148.31 23.67 148.16 23.67 148C23.67 147.85 23.7 147.7 23.76 147.56C23.82 147.42 23.9 147.3 24.01 147.19C24.11 147.09 24.23 147 24.37 146.94C24.5 146.88 24.65 146.85 24.81 146.85C24.96 146.85 25.11 146.88 25.25 146.94C25.39 147 25.51 147.09 25.61 147.19C25.72 147.3 25.8 147.42 25.86 147.56C25.93 147.7 25.96 147.85 25.96 148C25.96 148.16 25.93 148.31 25.86 148.44ZM33.31 152.57C33.22 152.57 33.12 152.53 33 152.47C32.89 152.4 32.75 152.33 32.58 152.25C32.42 152.17 32.22 152.09 31.99 152.03C31.77 151.95 31.5 151.92 31.18 151.92C30.91 151.92 30.67 151.95 30.46 152.03C30.24 152.09 30.05 152.19 29.9 152.31C29.75 152.43 29.63 152.57 29.55 152.73C29.47 152.88 29.43 153.06 29.43 153.24C29.43 153.48 29.5 153.67 29.63 153.83C29.77 153.98 29.95 154.12 30.17 154.23C30.39 154.35 30.64 154.45 30.92 154.54C31.21 154.62 31.49 154.71 31.79 154.82C32.09 154.91 32.38 155.02 32.66 155.14C32.94 155.26 33.19 155.41 33.42 155.59C33.64 155.77 33.82 155.99 33.95 156.26C34.09 156.51 34.15 156.83 34.15 157.19C34.15 157.61 34.08 158 33.93 158.36C33.78 158.72 33.56 159.03 33.26 159.29C32.97 159.55 32.61 159.75 32.18 159.9C31.76 160.05 31.27 160.13 30.71 160.13C30.07 160.13 29.5 160.02 28.98 159.82C28.46 159.61 28.03 159.34 27.67 159.02C27.7 158.96 28.01 158.47 28.04 158.41C28.09 158.33 28.15 158.27 28.21 158.23C28.28 158.19 28.37 158.16 28.48 158.16C28.58 158.16 28.7 158.21 28.82 158.29C28.94 158.37 29.08 158.47 29.25 158.57C29.42 158.67 29.63 158.76 29.87 158.85C30.12 158.93 30.42 158.97 30.79 158.97C31.1 158.97 31.37 158.94 31.61 158.86C31.84 158.77 32.04 158.66 32.19 158.52C32.35 158.39 32.46 158.23 32.53 158.05C32.61 157.87 32.65 157.68 32.65 157.47C32.65 157.22 32.58 157.01 32.44 156.85C32.31 156.68 32.14 156.54 31.91 156.43C31.69 156.31 31.44 156.21 31.15 156.12C30.87 156.03 30.58 155.94 30.28 155.84C29.98 155.75 29.69 155.64 29.4 155.52C29.12 155.39 28.87 155.24 28.65 155.05C28.42 154.86 28.24 154.64 28.11 154.37C27.97 154.09 27.91 153.76 27.91 153.37C27.91 153.02 27.98 152.69 28.12 152.37C28.27 152.04 28.48 151.76 28.75 151.52C29.03 151.28 29.37 151.08 29.77 150.94C30.17 150.79 30.63 150.72 31.15 150.72C31.75 150.72 32.29 150.82 32.76 151.01C33.24 151.2 33.65 151.45 34 151.78C33.98 151.82 33.86 152.02 33.64 152.37C33.52 152.5 33.41 152.57 33.31 152.57ZM38.01 159.98L36.41 159.98L36.41 150.87L38.01 150.87L38.01 159.98ZM38.27 148.44C38.21 148.58 38.13 148.7 38.02 148.8C37.92 148.91 37.8 148.99 37.66 149.05C37.52 149.11 37.37 149.14 37.22 149.14C37.06 149.14 36.91 149.11 36.78 149.05C36.64 148.99 36.52 148.91 36.42 148.8C36.31 148.7 36.23 148.58 36.17 148.44C36.11 148.31 36.08 148.16 36.08 148C36.08 147.85 36.11 147.7 36.17 147.56C36.23 147.42 36.31 147.3 36.42 147.19C36.52 147.09 36.64 147 36.78 146.94C36.91 146.88 37.06 146.85 37.22 146.85C37.37 146.85 37.52 146.88 37.66 146.94C37.8 147 37.92 147.09 38.02 147.19C38.13 147.3 38.21 147.42 38.27 147.56C38.34 147.7 38.37 147.85 38.37 148C38.37 148.16 38.34 148.31 38.27 148.44ZM41.93 159.52C41.55 159.12 41.35 158.54 41.35 157.79C41.35 157.41 41.35 155.55 41.35 152.21C40.69 152.21 40.33 152.21 40.26 152.21C40.16 152.21 40.08 152.18 40.01 152.13C39.95 152.07 39.91 151.98 39.91 151.86C39.91 151.81 39.91 151.6 39.91 151.22L41.41 151.03C41.63 149.34 41.75 148.4 41.78 148.21C41.79 148.12 41.83 148.05 41.89 147.99C41.96 147.93 42.04 147.9 42.15 147.9C42.2 147.9 42.47 147.9 42.96 147.9L42.96 151.05L45.57 151.05L45.57 152.21L42.96 152.21C42.96 155.49 42.96 157.31 42.96 157.68C42.96 158.06 43.05 158.35 43.23 158.53C43.42 158.72 43.66 158.81 43.95 158.81C44.12 158.81 44.27 158.79 44.39 158.75C44.51 158.7 44.62 158.65 44.71 158.6C44.8 158.54 44.88 158.49 44.94 158.45C45 158.4 45.06 158.38 45.11 158.38C45.19 158.38 45.27 158.43 45.33 158.53C45.38 158.61 45.75 159.22 45.8 159.3C45.52 159.56 45.19 159.76 44.8 159.91C44.41 160.05 44.01 160.13 43.59 160.13C42.87 160.13 42.32 159.93 41.93 159.52ZM52.67 151C53.13 151.18 53.53 151.44 53.86 151.79C54.2 152.13 54.46 152.56 54.65 153.07C54.84 153.57 54.94 154.15 54.94 154.8C54.94 155.05 54.91 155.22 54.85 155.3C54.8 155.39 54.7 155.43 54.55 155.43C53.94 155.43 49.09 155.43 48.48 155.43C48.49 156 48.57 156.51 48.72 156.93C48.86 157.36 49.06 157.71 49.31 158C49.56 158.28 49.86 158.5 50.21 158.64C50.56 158.78 50.95 158.85 51.38 158.85C51.78 158.85 52.13 158.8 52.42 158.71C52.71 158.62 52.96 158.52 53.17 158.41C53.38 158.3 53.56 158.2 53.69 158.11C53.84 158.01 53.96 157.97 54.06 157.97C54.19 157.97 54.3 158.02 54.37 158.12C54.41 158.18 54.77 158.65 54.82 158.7C54.62 158.94 54.38 159.15 54.11 159.33C53.83 159.51 53.53 159.65 53.22 159.77C52.9 159.88 52.58 159.96 52.24 160.02C51.91 160.08 51.58 160.11 51.25 160.11C50.62 160.11 50.03 160 49.5 159.79C48.97 159.58 48.51 159.27 48.12 158.86C47.74 158.44 47.44 157.93 47.22 157.33C47.01 156.72 46.9 156.03 46.9 155.24C46.9 154.6 46.99 154.01 47.19 153.46C47.38 152.91 47.67 152.43 48.03 152.03C48.4 151.62 48.85 151.3 49.37 151.07C49.9 150.84 50.5 150.72 51.16 150.72C51.7 150.72 52.21 150.81 52.67 151ZM49.36 152.58C48.92 153.02 48.64 153.64 48.54 154.43C49.03 154.43 53 154.43 53.5 154.43C53.5 154.06 53.44 153.72 53.34 153.41C53.24 153.1 53.09 152.83 52.89 152.61C52.69 152.38 52.45 152.21 52.16 152.09C51.88 151.96 51.56 151.9 51.19 151.9C50.42 151.9 49.81 152.13 49.36 152.58ZM60.23 150.65C61.27 150.65 61.85 150.65 61.96 150.65C62.13 150.65 62.28 150.69 62.39 150.77C62.51 150.84 62.6 150.96 62.64 151.12C62.66 151.17 62.79 151.6 62.81 151.66C62.99 151.49 63.17 151.33 63.36 151.19C63.56 151.05 63.76 150.93 63.98 150.83C64.2 150.73 64.44 150.65 64.69 150.6C64.95 150.54 65.22 150.51 65.52 150.51C66.03 150.51 66.48 150.6 66.87 150.78C67.27 150.95 67.6 151.2 67.87 151.51C68.14 151.83 68.35 152.2 68.49 152.64C68.62 153.07 68.69 153.54 68.69 154.05C68.69 154.45 68.69 156.42 68.69 159.98L65.9 159.98C65.9 156.42 65.9 154.45 65.9 154.05C65.9 153.6 65.8 153.24 65.59 152.99C65.38 152.73 65.07 152.6 64.66 152.6C64.35 152.6 64.07 152.67 63.8 152.8C63.53 152.93 63.27 153.11 63.02 153.33C63.02 153.77 63.02 155.99 63.02 159.98L60.23 159.98L60.23 150.65ZM76.51 159.87C76.38 159.8 76.27 159.65 76.18 159.42C76.16 159.37 76 158.96 75.98 158.91C75.75 159.11 75.52 159.28 75.31 159.43C75.09 159.58 74.87 159.71 74.63 159.82C74.41 159.92 74.16 160 73.9 160.05C73.64 160.1 73.35 160.13 73.03 160.13C72.61 160.13 72.22 160.07 71.87 159.96C71.52 159.85 71.23 159.69 70.98 159.47C70.74 159.25 70.55 158.99 70.42 158.67C70.29 158.34 70.22 157.97 70.22 157.55C70.22 157.22 70.31 156.88 70.48 156.54C70.64 156.19 70.93 155.87 71.35 155.59C71.76 155.3 72.32 155.06 73.02 154.87C73.72 154.68 74.61 154.57 75.68 154.55C75.68 154.51 75.68 154.19 75.68 154.15C75.68 153.6 75.56 153.21 75.34 152.97C75.11 152.73 74.8 152.6 74.38 152.6C74.05 152.6 73.78 152.64 73.57 152.71C73.36 152.78 73.17 152.86 73 152.95C72.84 153.04 72.68 153.12 72.53 153.2C72.37 153.27 72.19 153.3 71.97 153.3C71.78 153.3 71.61 153.26 71.47 153.17C71.34 153.07 71.24 152.96 71.16 152.82C71.11 152.73 70.71 152.03 70.66 151.95C71.22 151.45 71.84 151.08 72.53 150.84C73.22 150.59 73.96 150.47 74.74 150.47C75.31 150.47 75.81 150.56 76.26 150.75C76.72 150.93 77.1 151.18 77.41 151.51C77.73 151.84 77.98 152.22 78.14 152.67C78.31 153.12 78.4 153.62 78.4 154.15C78.4 154.54 78.4 156.48 78.4 159.98L77.12 159.98C76.81 159.96 76.61 159.92 76.51 159.87ZM74.86 158.09C75.13 157.97 75.4 157.76 75.68 157.48C75.68 157.35 75.68 156.31 75.68 156.18C75.12 156.21 74.66 156.26 74.3 156.33C73.94 156.4 73.66 156.49 73.45 156.6C73.24 156.71 73.09 156.83 73 156.97C72.93 157.11 72.89 157.26 72.89 157.42C72.89 157.74 72.97 157.96 73.15 158.09C73.32 158.22 73.58 158.28 73.91 158.28C74.27 158.28 74.59 158.22 74.86 158.09ZM80.79 152.57C80.42 152.49 80.22 152.45 80.18 152.44C79.97 152.39 79.8 152.32 79.67 152.22C79.54 152.11 79.48 151.96 79.48 151.77C79.48 151.69 79.48 151.33 79.48 150.67L80.79 150.67C80.79 150.59 80.79 150.54 80.79 150.53C80.79 149.97 80.89 149.44 81.08 148.94C81.28 148.44 81.58 148 81.99 147.63C82.4 147.26 82.92 146.97 83.55 146.75C84.18 146.54 84.94 146.43 85.81 146.43C86.08 146.43 86.36 146.44 86.65 146.47C86.94 146.5 87.19 146.54 87.4 146.59C87.39 146.73 87.32 147.86 87.31 148C87.3 148.15 87.22 148.25 87.08 148.3C86.94 148.35 86.8 148.37 86.64 148.37C86.02 148.37 85.5 148.42 85.09 148.52C84.69 148.61 84.36 148.76 84.12 148.95C83.89 149.13 83.72 149.37 83.63 149.65C83.54 149.93 83.49 150.26 83.49 150.62C83.49 150.63 83.49 150.64 83.49 150.67L89.41 150.67L89.41 159.98L86.62 159.98L86.62 152.58L83.58 152.58L83.58 159.98L80.79 159.98L80.79 152.57ZM94.58 159.98L91.79 159.98L91.79 146.51L94.58 146.51L94.58 159.98ZM102.67 159.87C102.54 159.8 102.43 159.65 102.34 159.42C102.32 159.37 102.16 158.96 102.14 158.91C101.91 159.11 101.68 159.28 101.47 159.43C101.25 159.58 101.02 159.71 100.79 159.82C100.56 159.92 100.32 160 100.05 160.05C99.79 160.1 99.51 160.13 99.19 160.13C98.76 160.13 98.38 160.07 98.03 159.96C97.68 159.85 97.38 159.69 97.14 159.47C96.9 159.25 96.71 158.99 96.58 158.67C96.45 158.34 96.38 157.97 96.38 157.55C96.38 157.22 96.46 156.88 96.63 156.54C96.8 156.19 97.09 155.87 97.51 155.59C97.92 155.3 98.48 155.06 99.18 154.87C99.88 154.68 100.77 154.57 101.83 154.55C101.83 154.51 101.83 154.19 101.83 154.15C101.83 153.6 101.72 153.21 101.49 152.97C101.27 152.73 100.95 152.6 100.54 152.6C100.21 152.6 99.94 152.64 99.73 152.71C99.52 152.78 99.33 152.86 99.16 152.95C99 153.04 98.84 153.12 98.68 153.2C98.53 153.27 98.34 153.3 98.13 153.3C97.93 153.3 97.77 153.26 97.63 153.17C97.5 153.07 97.39 152.96 97.32 152.82C97.27 152.73 96.86 152.03 96.81 151.95C97.38 151.45 98 151.08 98.68 150.84C99.37 150.59 100.11 150.47 100.9 150.47C101.46 150.47 101.97 150.56 102.42 150.75C102.88 150.93 103.26 151.18 103.57 151.51C103.89 151.84 104.13 152.22 104.3 152.67C104.47 153.12 104.55 153.62 104.55 154.15C104.55 154.54 104.55 156.48 104.55 159.98L103.27 159.98C102.96 159.96 102.76 159.92 102.67 159.87ZM101.02 158.09C101.29 157.97 101.56 157.76 101.83 157.48C101.83 157.35 101.83 156.31 101.83 156.18C101.28 156.21 100.82 156.26 100.46 156.33C100.1 156.4 99.81 156.49 99.6 156.6C99.39 156.71 99.25 156.83 99.16 156.97C99.08 157.11 99.04 157.26 99.04 157.42C99.04 157.74 99.13 157.96 99.31 158.09C99.48 158.22 99.73 158.28 100.07 158.28C100.43 158.28 100.75 158.22 101.02 158.09ZM106.11 157.97C106.19 157.78 106.31 157.62 106.44 157.48C106.59 157.34 106.76 157.23 106.95 157.16C107.14 157.07 107.35 157.03 107.58 157.03C107.8 157.03 108.01 157.07 108.2 157.16C108.39 157.23 108.56 157.34 108.7 157.48C108.85 157.62 108.96 157.78 109.04 157.97C109.12 158.15 109.16 158.35 109.16 158.57C109.16 158.79 109.12 158.99 109.04 159.18C108.96 159.37 108.85 159.53 108.7 159.67C108.56 159.81 108.39 159.91 108.2 159.99C108.01 160.07 107.8 160.11 107.58 160.11C107.35 160.11 107.14 160.07 106.95 159.99C106.76 159.91 106.59 159.81 106.44 159.67C106.31 159.53 106.19 159.37 106.11 159.18C106.03 158.99 105.99 158.79 105.99 158.57C105.99 158.35 106.03 158.15 106.11 157.97ZM110.79 150.65C111.82 150.65 112.4 150.65 112.52 150.65C112.69 150.65 112.83 150.69 112.95 150.77C113.07 150.84 113.15 150.96 113.2 151.12C113.22 151.19 113.39 151.73 113.41 151.8C113.59 151.6 113.78 151.42 113.98 151.26C114.19 151.1 114.41 150.96 114.65 150.85C114.89 150.73 115.14 150.63 115.41 150.57C115.69 150.5 115.99 150.47 116.31 150.47C116.8 150.47 117.25 150.58 117.66 150.79C118.08 151.01 118.43 151.32 118.73 151.73C119.03 152.14 119.27 152.64 119.44 153.23C119.61 153.82 119.7 154.49 119.7 155.24C119.7 155.94 119.6 156.59 119.4 157.18C119.21 157.78 118.94 158.29 118.58 158.73C118.23 159.17 117.81 159.51 117.32 159.76C116.84 160 116.3 160.13 115.7 160.13C115.22 160.13 114.81 160.06 114.48 159.92C114.15 159.78 113.85 159.6 113.58 159.36C113.58 159.6 113.58 160.79 113.58 162.94L110.79 162.94L110.79 150.65ZM114.78 152.67C114.62 152.7 114.47 152.76 114.32 152.83C114.19 152.9 114.06 152.99 113.94 153.11C113.82 153.21 113.7 153.34 113.58 153.48C113.58 153.88 113.58 157.05 113.58 157.44C113.79 157.68 114.02 157.84 114.26 157.94C114.51 158.03 114.77 158.07 115.04 158.07C115.29 158.07 115.53 158.02 115.75 157.92C115.96 157.82 116.15 157.66 116.3 157.44C116.47 157.21 116.59 156.91 116.68 156.55C116.77 156.19 116.82 155.76 116.82 155.24C116.82 154.75 116.78 154.33 116.71 154C116.64 153.66 116.54 153.39 116.4 153.19C116.28 152.98 116.12 152.83 115.94 152.74C115.76 152.65 115.56 152.6 115.34 152.6C115.14 152.6 114.95 152.62 114.78 152.67ZM123.29 159.94C122.95 159.81 122.67 159.62 122.44 159.39C122.21 159.15 122.03 158.86 121.91 158.52C121.79 158.19 121.73 157.81 121.73 157.4C121.73 157.08 121.73 155.47 121.73 152.58C121.26 152.58 120.99 152.58 120.94 152.58C120.8 152.58 120.67 152.53 120.57 152.44C120.47 152.34 120.42 152.21 120.42 152.03C120.42 151.95 120.42 151.59 120.42 150.94L121.9 150.65C122.23 149.28 122.42 148.52 122.45 148.37C122.53 148.08 122.73 147.94 123.07 147.94C123.16 147.94 123.65 147.94 124.52 147.94L124.52 150.67L126.79 150.67L126.79 152.58L124.52 152.58C124.52 155.36 124.52 156.9 124.52 157.21C124.52 157.43 124.57 157.61 124.68 157.75C124.78 157.89 124.94 157.96 125.14 157.96C125.24 157.96 125.32 157.95 125.39 157.93C125.46 157.91 125.52 157.88 125.57 157.86C125.62 157.83 125.67 157.8 125.71 157.79C125.76 157.76 125.81 157.75 125.87 157.75C125.96 157.75 126.02 157.77 126.07 157.81C126.13 157.85 126.18 157.91 126.23 157.99C126.32 158.13 126.99 159.18 127.08 159.32C126.72 159.59 126.31 159.79 125.86 159.93C125.41 160.06 124.95 160.13 124.47 160.13C124.03 160.13 123.63 160.06 123.29 159.94Z" id="bSfuBNQKB"></path><path d="M103.34 30.78C105 30.78 106.29 32.07 106.29 33.73C106.29 37.86 106.29 70.9 106.29 75.03C106.29 76.69 105 77.98 103.34 77.98C96.48 77.98 41.6 77.98 34.74 77.98C33.08 77.98 31.79 76.69 31.79 75.03C31.79 70.9 31.79 37.86 31.79 33.73C31.79 32.07 33.08 30.78 34.74 30.78C48.46 30.78 96.48 30.78 103.34 30.78Z" id="b2A0O5HQcs"></path><path d="M35.61 37.05C38.7 39.49 63.49 59.01 66.58 61.45C67.94 62.49 69.78 62.49 71.13 61.45C74.26 59.01 99.29 39.49 102.42 37.05C103.77 35.94 103.03 33.73 101.31 33.73C97.01 33.73 75.5 33.73 36.77 33.73C35.09 35.2 34.7 36.31 35.61 37.05Z" id="ldAYzo5rR"></path><path d="M111.82 34.1C111.82 29.61 108.2 25.98 103.71 25.98C99.22 25.98 95.6 29.61 95.6 34.1C95.6 38.58 99.22 42.21 103.71 42.21C108.2 42.21 111.82 38.58 111.82 34.1Z" id="b7aNMqZiQ"></path><path d="M106.29 34.1C106.29 32.68 105.12 31.51 103.71 31.51C102.3 31.51 101.13 32.68 101.13 34.1C101.13 35.51 102.3 36.68 103.71 36.68C105.12 36.68 106.29 35.51 106.29 34.1Z" id="c12GPqiipQ"></path><path d="M336.79 112.1C336.88 112.11 336.95 112.13 337.02 112.16C337.09 112.19 337.16 112.24 337.23 112.31C337.29 112.37 337.37 112.45 337.45 112.55C338.28 113.61 344.96 122.12 345.8 123.19C345.77 122.93 345.75 122.68 345.73 122.44C345.72 122.19 345.72 121.96 345.72 121.75C345.72 121.1 345.72 117.88 345.72 112.08L348.33 112.08L348.33 127.98C347.41 127.98 346.9 127.98 346.8 127.98C346.56 127.98 346.37 127.95 346.22 127.87C346.06 127.8 345.91 127.67 345.76 127.48C344.93 126.42 338.28 117.94 337.45 116.88C337.47 117.12 337.49 117.35 337.49 117.59C337.51 117.81 337.51 118.02 337.51 118.21C337.51 118.87 337.51 122.12 337.51 127.98L334.91 127.98L334.91 112.08L336.46 112.08C336.62 112.08 336.73 112.09 336.79 112.1ZM358.49 116.93C359.18 117.2 359.76 117.58 360.25 118.08C360.73 118.58 361.11 119.19 361.37 119.91C361.63 120.63 361.77 121.43 361.77 122.32C361.77 123.21 361.63 124.02 361.37 124.74C361.11 125.46 360.73 126.07 360.25 126.57C359.76 127.08 359.18 127.47 358.49 127.74C357.81 128.01 357.04 128.15 356.2 128.15C355.36 128.15 354.59 128.01 353.9 127.74C353.21 127.47 352.62 127.08 352.13 126.57C351.65 126.07 351.27 125.46 351 124.74C350.73 124.02 350.6 123.21 350.6 122.32C350.6 121.43 350.73 120.63 351 119.91C351.27 119.19 351.65 118.58 352.13 118.08C352.62 117.58 353.21 117.2 353.9 116.93C354.59 116.66 355.36 116.52 356.2 116.52C357.04 116.52 357.81 116.66 358.49 116.93ZM358.28 125.11C358.73 124.48 358.96 123.56 358.96 122.34C358.96 121.12 358.73 120.19 358.28 119.56C357.83 118.92 357.14 118.6 356.2 118.6C355.25 118.6 354.54 118.92 354.09 119.57C353.63 120.21 353.41 121.13 353.41 122.34C353.41 123.55 353.63 124.47 354.09 125.11C354.54 125.74 355.25 126.06 356.2 126.06C357.14 126.06 357.83 125.74 358.28 125.11ZM363.89 116.7C364.88 116.7 365.44 116.7 365.55 116.7C365.9 116.7 366.13 116.86 366.24 117.19C366.26 117.28 366.4 117.94 366.42 118.03C366.61 117.81 366.82 117.61 367.03 117.42C367.25 117.24 367.48 117.08 367.73 116.95C367.97 116.82 368.24 116.71 368.52 116.64C368.8 116.56 369.11 116.52 369.45 116.52C370.16 116.52 370.75 116.71 371.2 117.1C371.66 117.48 372.01 117.99 372.24 118.63C372.41 118.26 372.63 117.94 372.9 117.68C373.16 117.4 373.45 117.18 373.76 117.02C374.08 116.85 374.41 116.72 374.77 116.64C375.12 116.56 375.48 116.52 375.84 116.52C376.47 116.52 377.02 116.62 377.5 116.81C377.99 117 378.4 117.28 378.73 117.64C379.06 118.01 379.3 118.46 379.47 118.98C379.65 119.51 379.74 120.12 379.74 120.8C379.74 121.28 379.74 123.67 379.74 127.98L377.02 127.98C377.02 123.67 377.02 121.28 377.02 120.8C377.02 120.08 376.86 119.54 376.55 119.18C376.23 118.82 375.77 118.63 375.16 118.63C374.88 118.63 374.62 118.68 374.38 118.78C374.15 118.87 373.94 119.01 373.75 119.19C373.58 119.37 373.44 119.59 373.34 119.86C373.23 120.14 373.18 120.45 373.18 120.8C373.18 121.28 373.18 123.67 373.18 127.98L370.45 127.98C370.45 123.67 370.45 121.28 370.45 120.8C370.45 120.04 370.3 119.49 369.99 119.15C369.69 118.8 369.24 118.63 368.65 118.63C368.26 118.63 367.89 118.73 367.55 118.93C367.21 119.12 366.9 119.38 366.6 119.72C366.6 120.27 366.6 123.03 366.6 127.98L363.89 127.98L363.89 116.7ZM389.03 116.86C389.63 117.09 390.15 117.42 390.58 117.86C391.01 118.3 391.35 118.83 391.59 119.47C391.83 120.1 391.95 120.82 391.95 121.64C391.95 121.84 391.94 122.01 391.92 122.15C391.91 122.28 391.87 122.39 391.82 122.47C391.78 122.54 391.72 122.6 391.63 122.64C391.55 122.67 391.45 122.68 391.33 122.68C390.63 122.68 385.05 122.68 384.35 122.68C384.43 123.84 384.75 124.69 385.29 125.23C385.83 125.78 386.55 126.05 387.44 126.05C387.88 126.05 388.26 126 388.58 125.89C388.9 125.79 389.18 125.68 389.41 125.55C389.65 125.43 389.86 125.31 390.04 125.21C390.22 125.11 390.4 125.06 390.57 125.06C390.68 125.06 390.77 125.08 390.85 125.12C390.93 125.17 391 125.23 391.06 125.31C391.14 125.41 391.77 126.2 391.85 126.3C391.55 126.65 391.22 126.95 390.84 127.19C390.47 127.43 390.08 127.62 389.67 127.76C389.26 127.9 388.85 128 388.42 128.06C388 128.12 387.6 128.15 387.2 128.15C386.42 128.15 385.69 128.02 385.01 127.76C384.34 127.5 383.75 127.11 383.25 126.61C382.75 126.09 382.36 125.46 382.08 124.72C381.79 123.96 381.65 123.09 381.65 122.1C381.65 121.33 381.77 120.61 382.02 119.93C382.27 119.25 382.63 118.66 383.09 118.16C383.56 117.65 384.13 117.25 384.79 116.96C385.47 116.67 386.23 116.52 387.07 116.52C387.78 116.52 388.43 116.63 389.03 116.86ZM385.27 119.14C384.82 119.59 384.53 120.22 384.41 121.04C384.92 121.04 389 121.04 389.51 121.04C389.51 120.69 389.46 120.36 389.37 120.05C389.27 119.74 389.13 119.46 388.93 119.23C388.73 118.99 388.48 118.81 388.18 118.68C387.88 118.54 387.53 118.47 387.12 118.47C386.33 118.47 385.71 118.69 385.27 119.14ZM394.85 128.46C394.75 128.58 394.63 128.68 394.5 128.76C394.37 128.85 394.23 128.92 394.08 128.96C393.93 129.01 393.79 129.03 393.65 129.03C393.57 129.03 393.19 129.03 392.51 129.03C396.36 119.17 398.5 113.69 398.93 112.59C399.06 112.29 399.24 112.05 399.47 111.89C399.71 111.72 399.99 111.64 400.32 111.64C400.39 111.64 400.78 111.64 401.47 111.64L395.1 128.02C395 128.23 394.92 128.37 394.85 128.46ZM414.03 114.51L409.24 114.51L409.24 127.98L406.28 127.98L406.28 114.51L401.48 114.51L401.48 112.08L414.03 112.08L414.03 114.51ZM420.14 116.86C420.74 117.09 421.26 117.42 421.69 117.86C422.12 118.3 422.46 118.83 422.7 119.47C422.94 120.1 423.06 120.82 423.06 121.64C423.06 121.84 423.05 122.01 423.03 122.15C423.02 122.28 422.98 122.39 422.93 122.47C422.89 122.54 422.82 122.6 422.74 122.64C422.66 122.67 422.56 122.68 422.44 122.68C421.74 122.68 416.16 122.68 415.46 122.68C415.54 123.84 415.85 124.69 416.4 125.23C416.94 125.78 417.66 126.05 418.55 126.05C418.99 126.05 419.37 126 419.69 125.89C420.01 125.79 420.29 125.68 420.52 125.55C420.76 125.43 420.97 125.31 421.15 125.21C421.33 125.11 421.51 125.06 421.68 125.06C421.79 125.06 421.88 125.08 421.96 125.12C422.04 125.17 422.11 125.23 422.17 125.31C422.25 125.41 422.88 126.2 422.96 126.3C422.66 126.65 422.33 126.95 421.95 127.19C421.58 127.43 421.19 127.62 420.78 127.76C420.37 127.9 419.96 128 419.53 128.06C419.11 128.12 418.71 128.15 418.31 128.15C417.53 128.15 416.8 128.02 416.12 127.76C415.45 127.5 414.86 127.11 414.36 126.61C413.86 126.09 413.47 125.46 413.19 124.72C412.9 123.96 412.76 123.09 412.76 122.1C412.76 121.33 412.88 120.61 413.13 119.93C413.38 119.25 413.74 118.66 414.2 118.16C414.67 117.65 415.23 117.25 415.9 116.96C416.58 116.67 417.34 116.52 418.18 116.52C418.89 116.52 419.54 116.63 420.14 116.86ZM416.38 119.14C415.93 119.59 415.64 120.22 415.52 121.04C416.03 121.04 420.11 121.04 420.62 121.04C420.62 120.69 420.57 120.36 420.48 120.05C420.38 119.74 420.24 119.46 420.04 119.23C419.84 118.99 419.59 118.81 419.29 118.68C418.99 118.54 418.64 118.47 418.23 118.47C417.44 118.47 416.82 118.69 416.38 119.14ZM428.16 127.98L425.44 127.98L425.44 111.64L428.16 111.64L428.16 127.98ZM437.86 116.86C438.46 117.09 438.98 117.42 439.41 117.86C439.85 118.3 440.18 118.83 440.42 119.47C440.67 120.1 440.79 120.82 440.79 121.64C440.79 121.84 440.78 122.01 440.75 122.15C440.74 122.28 440.71 122.39 440.66 122.47C440.61 122.54 440.55 122.6 440.47 122.64C440.39 122.67 440.29 122.68 440.16 122.68C439.46 122.68 433.88 122.68 433.19 122.68C433.27 123.84 433.58 124.69 434.12 125.23C434.66 125.78 435.38 126.05 436.28 126.05C436.72 126.05 437.1 126 437.41 125.89C437.73 125.79 438.01 125.68 438.25 125.55C438.49 125.43 438.7 125.31 438.87 125.21C439.06 125.11 439.23 125.06 439.4 125.06C439.51 125.06 439.61 125.08 439.69 125.12C439.77 125.17 439.84 125.23 439.9 125.31C439.98 125.41 440.61 126.2 440.69 126.3C440.39 126.65 440.05 126.95 439.68 127.19C439.3 127.43 438.91 127.62 438.5 127.76C438.1 127.9 437.68 128 437.26 128.06C436.84 128.12 436.43 128.15 436.04 128.15C435.25 128.15 434.52 128.02 433.85 127.76C433.17 127.5 432.59 127.11 432.09 126.61C431.59 126.09 431.2 125.46 430.91 124.72C430.62 123.96 430.48 123.09 430.48 122.1C430.48 121.33 430.61 120.61 430.85 119.93C431.1 119.25 431.46 118.66 431.92 118.16C432.39 117.65 432.96 117.25 433.63 116.96C434.3 116.67 435.06 116.52 435.9 116.52C436.61 116.52 437.27 116.63 437.86 116.86ZM434.1 119.14C433.65 119.59 433.37 120.22 433.24 121.04C433.75 121.04 437.83 121.04 438.35 121.04C438.35 120.69 438.3 120.36 438.2 120.05C438.11 119.74 437.96 119.46 437.76 119.23C437.56 118.99 437.32 118.81 437.01 118.68C436.71 118.54 436.36 118.47 435.96 118.47C435.17 118.47 434.55 118.69 434.1 119.14ZM442.99 116.7C443.99 116.7 444.54 116.7 444.65 116.7C445 116.7 445.24 116.86 445.35 117.19C445.36 117.28 445.5 117.94 445.52 118.03C445.72 117.81 445.92 117.61 446.14 117.42C446.36 117.24 446.59 117.08 446.83 116.95C447.08 116.82 447.34 116.71 447.62 116.64C447.91 116.56 448.22 116.52 448.56 116.52C449.27 116.52 449.85 116.71 450.31 117.1C450.77 117.48 451.11 117.99 451.34 118.63C451.52 118.26 451.74 117.94 452 117.68C452.26 117.4 452.55 117.18 452.87 117.02C453.18 116.85 453.52 116.72 453.87 116.64C454.23 116.56 454.59 116.52 454.95 116.52C455.57 116.52 456.13 116.62 456.61 116.81C457.09 117 457.5 117.28 457.83 117.64C458.16 118.01 458.41 118.46 458.58 118.98C458.75 119.51 458.84 120.12 458.84 120.8C458.84 121.28 458.84 123.67 458.84 127.98L456.13 127.98C456.13 123.67 456.13 121.28 456.13 120.8C456.13 120.08 455.97 119.54 455.65 119.18C455.34 118.82 454.88 118.63 454.27 118.63C453.99 118.63 453.73 118.68 453.49 118.78C453.25 118.87 453.04 119.01 452.86 119.19C452.68 119.37 452.54 119.59 452.44 119.86C452.34 120.14 452.29 120.45 452.29 120.8C452.29 121.28 452.29 123.67 452.29 127.98L449.56 127.98C449.56 123.67 449.56 121.28 449.56 120.8C449.56 120.04 449.4 119.49 449.1 119.15C448.8 118.8 448.35 118.63 447.75 118.63C447.37 118.63 447 118.73 446.65 118.93C446.32 119.12 446 119.38 445.71 119.72C445.71 120.27 445.71 123.03 445.71 127.98L442.99 127.98L442.99 116.7ZM468.62 116.93C469.31 117.2 469.89 117.58 470.38 118.08C470.86 118.58 471.24 119.19 471.5 119.91C471.76 120.63 471.9 121.43 471.9 122.32C471.9 123.21 471.76 124.02 471.5 124.74C471.24 125.46 470.86 126.07 470.38 126.57C469.89 127.08 469.31 127.47 468.62 127.74C467.94 128.01 467.17 128.15 466.33 128.15C465.49 128.15 464.72 128.01 464.03 127.74C463.34 127.47 462.75 127.08 462.26 126.57C461.78 126.07 461.4 125.46 461.13 124.74C460.86 124.02 460.73 123.21 460.73 122.32C460.73 121.43 460.86 120.63 461.13 119.91C461.4 119.19 461.78 118.58 462.26 118.08C462.75 117.58 463.34 117.2 464.03 116.93C464.72 116.66 465.49 116.52 466.33 116.52C467.17 116.52 467.94 116.66 468.62 116.93ZM468.41 125.11C468.86 124.48 469.09 123.56 469.09 122.34C469.09 121.12 468.86 120.19 468.41 119.56C467.96 118.92 467.27 118.6 466.33 118.6C465.38 118.6 464.67 118.92 464.22 119.57C463.76 120.21 463.54 121.13 463.54 122.34C463.54 123.55 463.76 124.47 464.22 125.11C464.67 125.74 465.38 126.06 466.33 126.06C467.27 126.06 467.96 125.74 468.41 125.11ZM467.43 114.77C467.29 114.92 467.15 115.02 467.02 115.08C466.9 115.13 466.73 115.16 466.53 115.16C466.42 115.16 465.88 115.16 464.9 115.16C465.84 113.55 466.36 112.66 466.46 112.48C466.57 112.29 466.7 112.15 466.85 112.05C466.99 111.95 467.21 111.9 467.51 111.9C467.68 111.9 468.56 111.9 470.15 111.9C468.52 113.62 467.61 114.58 467.43 114.77ZM476.84 127.98L472.35 116.7C473.7 116.7 474.46 116.7 474.61 116.7C474.8 116.7 474.97 116.74 475.1 116.84C475.24 116.93 475.34 117.06 475.39 117.2C475.6 117.81 477.35 122.63 477.57 123.23C477.69 123.58 477.79 123.93 477.87 124.26C477.96 124.6 478.04 124.94 478.1 125.28C478.17 124.94 478.24 124.6 478.32 124.26C478.41 123.93 478.52 123.58 478.65 123.23C478.88 122.63 480.66 117.81 480.89 117.2C480.94 117.06 481.03 116.93 481.16 116.84C481.29 116.74 481.45 116.7 481.64 116.7C481.78 116.7 482.49 116.7 483.78 116.7L479.3 127.98L476.84 127.98ZM491.64 116.86C492.24 117.09 492.76 117.42 493.19 117.86C493.62 118.3 493.96 118.83 494.2 119.47C494.44 120.1 494.56 120.82 494.56 121.64C494.56 121.84 494.55 122.01 494.53 122.15C494.52 122.28 494.48 122.39 494.43 122.47C494.39 122.54 494.32 122.6 494.24 122.64C494.16 122.67 494.06 122.68 493.94 122.68C493.24 122.68 487.66 122.68 486.96 122.68C487.04 123.84 487.35 124.69 487.9 125.23C488.44 125.78 489.16 126.05 490.05 126.05C490.49 126.05 490.87 126 491.19 125.89C491.51 125.79 491.79 125.68 492.02 125.55C492.26 125.43 492.47 125.31 492.65 125.21C492.83 125.11 493.01 125.06 493.18 125.06C493.29 125.06 493.38 125.08 493.46 125.12C493.54 125.17 493.61 125.23 493.67 125.31C493.75 125.41 494.38 126.2 494.46 126.3C494.16 126.65 493.83 126.95 493.45 127.19C493.08 127.43 492.69 127.62 492.28 127.76C491.87 127.9 491.46 128 491.03 128.06C490.61 128.12 490.21 128.15 489.81 128.15C489.03 128.15 488.3 128.02 487.62 127.76C486.95 127.5 486.36 127.11 485.86 126.61C485.36 126.09 484.97 125.46 484.69 124.72C484.4 123.96 484.26 123.09 484.26 122.1C484.26 121.33 484.38 120.61 484.63 119.93C484.88 119.25 485.24 118.66 485.7 118.16C486.17 117.65 486.73 117.25 487.4 116.96C488.08 116.67 488.84 116.52 489.68 116.52C490.39 116.52 491.04 116.63 491.64 116.86ZM487.88 119.14C487.43 119.59 487.14 120.22 487.02 121.04C487.53 121.04 491.61 121.04 492.12 121.04C492.12 120.69 492.07 120.36 491.98 120.05C491.88 119.74 491.74 119.46 491.54 119.23C491.34 118.99 491.09 118.81 490.79 118.68C490.49 118.54 490.14 118.47 489.73 118.47C488.94 118.47 488.32 118.69 487.88 119.14ZM499.66 127.98L496.94 127.98L496.94 111.64L499.66 111.64L499.66 127.98Z" id="c2wNRrxhv2"></path><path d="M396.3 85.95L396.3 85.94C393.48 80.01 391.92 76.72 391.61 76.06C392.43 75.83 393.26 75.51 394.02 75.21C395.18 74.73 396.35 74.18 397.24 73.77C397.52 73.64 397.78 73.52 397.99 73.42C397.99 73.42 397.99 73.42 397.99 73.42C398.37 73.25 400.25 72.39 403.64 70.85C406.37 76.6 407.88 79.79 408.18 80.43C409.59 83.87 408.16 87.66 404.97 89.2C401.46 90.74 397.7 89.05 396.31 85.96C396.31 85.96 396.31 85.96 396.3 85.95Z" id="cI6OyeTZp"></path><path d="M440.61 20.13C440.32 20.96 437.98 27.61 437.69 28.45C437.34 29.31 437.86 30.35 438.72 30.7C439.58 31.04 440.61 30.52 440.95 29.66C441.26 28.81 443.74 22.02 444.05 21.17C444.22 20.3 443.71 19.44 442.85 19.09C441.99 18.74 440.95 19.26 440.61 20.13Z" id="b2uycUChCM"></path><path d="M456.26 34.68C457.12 34.33 457.46 33.3 457.12 32.43C456.77 31.56 455.74 31.22 454.88 31.56C454.07 31.94 447.61 34.99 446.8 35.37C445.94 35.72 445.6 36.76 445.94 37.63C446.28 38.67 447.32 39.01 448.18 38.49C449.79 37.73 455.45 35.06 456.26 34.68Z" id="a3WuvBpPbe"></path><path d="M448.69 46.81C447.83 46.46 446.8 46.98 446.46 47.85C446.11 48.71 446.63 49.75 447.49 50.1C448.33 50.41 455.07 52.9 455.91 53.22C456.77 53.56 457.8 53.04 458.15 52.18C458.49 51.14 458.15 50.1 457.12 49.92C455.43 49.3 449.53 47.12 448.69 46.81Z" id="bj9eKrB3S"></path><path d="M386.37 54.15L386.39 54.14L395.58 49.62L405.39 67.79C399.28 70.79 395.89 72.46 395.21 72.79C389.58 75.22 383.55 72.75 381.29 67.82C381.28 67.82 381.28 67.82 381.28 67.81C381.28 67.81 381.28 67.8 381.28 67.8C378.84 62.69 381.1 56.58 386.36 54.16C386.36 54.16 386.36 54.16 386.37 54.15Z" id="aiDkDX4BF"></path><path d="M419.46 26.02C418.94 25.85 418.43 26.02 417.91 26.37C416.37 27.84 408.63 35.24 394.7 48.54L405.53 69.15C424.21 67.49 434.58 66.57 436.66 66.38C437.17 66.38 437.69 66.03 437.86 65.51C438.2 64.99 438.2 64.47 437.86 63.96C436.71 61.5 430.98 49.2 420.66 27.06C420.21 26.48 419.8 26.14 419.46 26.02Z" id="b9xivXJT1r"></path><path d="M436.83 53.56C437.69 52.52 438.2 51.48 438.72 50.27C439.75 47.33 439.58 44.21 438.38 41.26C436.48 37.28 432.36 34.51 428.06 34.51C429.81 38.32 435.95 51.66 436.83 53.56Z" id="dJlVkng2"></path><path d="M342.39 149.86C342.29 149.93 342.17 149.97 342.01 149.97C341.87 149.97 341.72 149.92 341.56 149.84C341.41 149.75 341.23 149.65 341.02 149.54C340.82 149.43 340.6 149.34 340.34 149.25C340.08 149.16 339.79 149.12 339.46 149.12C338.89 149.12 338.46 149.24 338.18 149.49C337.9 149.73 337.76 150.06 337.76 150.47C337.76 150.73 337.85 150.95 338.02 151.13C338.18 151.3 338.4 151.45 338.67 151.58C338.95 151.7 339.26 151.82 339.61 151.93C339.96 152.03 340.32 152.15 340.69 152.28C341.06 152.4 341.41 152.55 341.76 152.73C342.11 152.9 342.43 153.12 342.7 153.39C342.97 153.66 343.19 153.99 343.36 154.38C343.53 154.77 343.61 155.23 343.61 155.78C343.61 156.39 343.51 156.95 343.3 157.48C343.09 158.01 342.78 158.47 342.38 158.87C341.99 159.26 341.49 159.57 340.91 159.79C340.32 160.02 339.66 160.13 338.92 160.13C338.51 160.13 338.09 160.08 337.67 160C337.25 159.92 336.84 159.8 336.44 159.65C336.05 159.49 335.67 159.31 335.33 159.1C334.98 158.89 334.67 158.66 334.42 158.4C334.51 158.26 335.23 157.12 335.32 156.98C335.38 156.87 335.48 156.78 335.6 156.72C335.72 156.65 335.84 156.62 335.98 156.62C336.16 156.62 336.34 156.67 336.52 156.79C336.71 156.9 336.92 157.03 337.14 157.17C337.38 157.3 337.64 157.43 337.94 157.54C338.24 157.66 338.6 157.71 339.01 157.71C339.56 157.71 339.99 157.59 340.29 157.35C340.6 157.11 340.75 156.72 340.75 156.19C340.75 155.89 340.67 155.64 340.5 155.45C340.33 155.25 340.11 155.1 339.83 154.97C339.56 154.84 339.26 154.73 338.91 154.64C338.56 154.54 338.2 154.44 337.84 154.32C337.47 154.2 337.11 154.06 336.77 153.89C336.42 153.72 336.11 153.49 335.83 153.21C335.56 152.93 335.34 152.58 335.17 152.17C335 151.75 334.92 151.23 334.92 150.62C334.92 150.13 335.02 149.65 335.22 149.18C335.42 148.71 335.71 148.3 336.09 147.93C336.47 147.57 336.95 147.27 337.5 147.06C338.06 146.84 338.7 146.73 339.42 146.73C339.82 146.73 340.21 146.76 340.59 146.82C340.97 146.88 341.34 146.98 341.68 147.1C342.02 147.22 342.34 147.37 342.63 147.54C342.93 147.71 343.2 147.9 343.43 148.12C343.38 148.21 343.13 148.69 342.68 149.53C342.55 149.7 342.46 149.81 342.39 149.86ZM350.81 150.79C351.33 150.99 351.77 151.26 352.14 151.63C352.51 152 352.8 152.45 353 152.98C353.21 153.51 353.32 154.11 353.32 154.78C353.32 154.99 353.31 155.16 353.29 155.29C353.27 155.43 353.24 155.53 353.19 155.61C353.14 155.69 353.08 155.74 352.99 155.77C352.91 155.8 352.81 155.82 352.69 155.82C352.15 155.82 347.84 155.82 347.3 155.82C347.39 156.6 347.63 157.16 348.02 157.52C348.4 157.86 348.89 158.04 349.5 158.04C349.82 158.04 350.1 158 350.34 157.92C350.57 157.84 350.78 157.76 350.96 157.66C351.14 157.56 351.31 157.48 351.46 157.4C351.62 157.32 351.78 157.28 351.95 157.28C352.17 157.28 352.34 157.36 352.45 157.53C352.53 157.63 353.18 158.42 353.26 158.52C352.97 158.85 352.66 159.12 352.33 159.33C352 159.54 351.65 159.7 351.3 159.82C350.95 159.93 350.6 160.01 350.25 160.05C349.9 160.1 349.57 160.13 349.25 160.13C348.59 160.13 347.98 160.02 347.4 159.81C346.83 159.6 346.33 159.28 345.9 158.86C345.47 158.44 345.14 157.92 344.88 157.29C344.64 156.67 344.51 155.94 344.51 155.11C344.51 154.49 344.62 153.9 344.83 153.34C345.05 152.78 345.35 152.29 345.75 151.87C346.15 151.45 346.63 151.12 347.2 150.87C347.77 150.63 348.41 150.51 349.12 150.51C349.74 150.51 350.3 150.6 350.81 150.79ZM347.93 152.89C347.63 153.19 347.43 153.63 347.33 154.2C347.68 154.2 350.47 154.2 350.81 154.2C350.81 153.97 350.78 153.76 350.72 153.55C350.67 153.34 350.58 153.15 350.45 152.99C350.32 152.82 350.15 152.69 349.94 152.58C349.73 152.48 349.48 152.43 349.18 152.43C348.64 152.43 348.23 152.58 347.93 152.89ZM358.4 150.65C359.43 150.65 360.01 150.65 360.13 150.65C360.3 150.65 360.44 150.69 360.56 150.77C360.68 150.84 360.76 150.96 360.81 151.12C360.83 151.19 361 151.73 361.02 151.8C361.2 151.6 361.39 151.42 361.59 151.26C361.8 151.1 362.02 150.96 362.26 150.85C362.5 150.73 362.75 150.63 363.02 150.57C363.3 150.5 363.6 150.47 363.92 150.47C364.41 150.47 364.86 150.58 365.27 150.79C365.69 151.01 366.04 151.32 366.34 151.73C366.64 152.14 366.88 152.64 367.05 153.23C367.22 153.82 367.31 154.49 367.31 155.24C367.31 155.94 367.21 156.59 367.01 157.18C366.82 157.78 366.55 158.29 366.19 158.73C365.84 159.17 365.42 159.51 364.93 159.76C364.45 160 363.91 160.13 363.31 160.13C362.83 160.13 362.42 160.06 362.09 159.92C361.76 159.78 361.46 159.6 361.19 159.36C361.19 159.6 361.19 160.79 361.19 162.94L358.4 162.94L358.4 150.65ZM362.39 152.67C362.23 152.7 362.08 152.76 361.93 152.83C361.8 152.9 361.67 152.99 361.55 153.11C361.43 153.21 361.31 153.34 361.19 153.48C361.19 153.88 361.19 157.05 361.19 157.44C361.4 157.68 361.63 157.84 361.87 157.94C362.12 158.03 362.38 158.07 362.65 158.07C362.9 158.07 363.14 158.02 363.36 157.92C363.57 157.82 363.76 157.66 363.91 157.44C364.08 157.21 364.2 156.91 364.29 156.55C364.38 156.19 364.43 155.76 364.43 155.24C364.43 154.75 364.39 154.33 364.32 154C364.25 153.66 364.15 153.39 364.01 153.19C363.89 152.98 363.73 152.83 363.55 152.74C363.37 152.65 363.17 152.6 362.95 152.6C362.75 152.6 362.56 152.62 362.39 152.67ZM368.8 150.65C369.8 150.65 370.35 150.65 370.46 150.65C370.6 150.65 370.71 150.66 370.8 150.69C370.9 150.71 370.98 150.75 371.04 150.8C371.1 150.85 371.15 150.92 371.18 151C371.22 151.08 371.25 151.19 371.27 151.31C371.29 151.39 371.41 152.09 371.42 152.18C371.77 151.65 372.15 151.23 372.58 150.93C373 150.62 373.47 150.47 373.97 150.47C374.4 150.47 374.74 150.57 375 150.78C374.96 150.98 374.67 152.62 374.64 152.83C374.61 152.95 374.56 153.04 374.49 153.1C374.42 153.15 374.32 153.17 374.2 153.17C374.1 153.17 373.98 153.16 373.84 153.13C373.71 153.1 373.53 153.09 373.32 153.09C372.59 153.09 372.01 153.48 371.59 154.26C371.59 154.64 371.59 156.55 371.59 159.98L368.8 159.98L368.8 150.65ZM381.93 150.79C382.44 150.99 382.88 151.26 383.25 151.63C383.62 152 383.91 152.45 384.11 152.98C384.32 153.51 384.43 154.11 384.43 154.78C384.43 154.99 384.42 155.16 384.4 155.29C384.38 155.43 384.35 155.53 384.3 155.61C384.26 155.69 384.19 155.74 384.11 155.77C384.03 155.8 383.93 155.82 383.8 155.82C383.26 155.82 378.96 155.82 378.42 155.82C378.51 156.6 378.74 157.16 379.13 157.52C379.51 157.86 380.01 158.04 380.61 158.04C380.94 158.04 381.22 158 381.45 157.92C381.68 157.84 381.89 157.76 382.07 157.66C382.26 157.56 382.43 157.48 382.58 157.4C382.73 157.32 382.89 157.28 383.06 157.28C383.28 157.28 383.45 157.36 383.57 157.53C383.65 157.63 384.29 158.42 384.38 158.52C384.09 158.85 383.78 159.12 383.44 159.33C383.11 159.54 382.77 159.7 382.41 159.82C382.07 159.93 381.71 160.01 381.36 160.05C381.01 160.1 380.68 160.13 380.36 160.13C379.71 160.13 379.09 160.02 378.52 159.81C377.95 159.6 377.45 159.28 377.01 158.86C376.59 158.44 376.25 157.92 376 157.29C375.75 156.67 375.63 155.94 375.63 155.11C375.63 154.49 375.73 153.9 375.94 153.34C376.16 152.78 376.46 152.29 376.86 151.87C377.26 151.45 377.75 151.12 378.31 150.87C378.88 150.63 379.52 150.51 380.24 150.51C380.85 150.51 381.42 150.6 381.93 150.79ZM379.04 152.89C378.74 153.19 378.54 153.63 378.44 154.2C378.79 154.2 381.58 154.2 381.93 154.2C381.93 153.97 381.9 153.76 381.84 153.55C381.78 153.34 381.69 153.15 381.56 152.99C381.43 152.82 381.26 152.69 381.05 152.58C380.84 152.48 380.59 152.43 380.29 152.43C379.76 152.43 379.34 152.58 379.04 152.89ZM392.52 153.11C392.44 153.17 392.33 153.2 392.19 153.2C392.05 153.2 391.92 153.16 391.81 153.1C391.7 153.03 391.58 152.96 391.44 152.88C391.3 152.8 391.14 152.72 390.95 152.66C390.77 152.59 390.54 152.56 390.26 152.56C389.92 152.56 389.62 152.62 389.37 152.75C389.12 152.87 388.92 153.05 388.76 153.29C388.6 153.52 388.48 153.81 388.4 154.15C388.32 154.49 388.28 154.87 388.28 155.29C388.28 156.19 388.45 156.87 388.79 157.35C389.14 157.83 389.62 158.07 390.22 158.07C390.55 158.07 390.8 158.04 390.99 157.96C391.18 157.87 391.34 157.78 391.48 157.69C391.61 157.59 391.73 157.49 391.84 157.41C391.95 157.32 392.09 157.28 392.26 157.28C392.48 157.28 392.65 157.36 392.76 157.53C392.84 157.63 393.49 158.42 393.57 158.52C393.28 158.85 392.98 159.12 392.66 159.33C392.35 159.54 392.02 159.7 391.68 159.82C391.35 159.93 391.02 160.01 390.68 160.05C390.35 160.1 390.02 160.13 389.7 160.13C389.13 160.13 388.59 160.02 388.06 159.8C387.55 159.59 387.09 159.27 386.7 158.87C386.31 158.45 385.99 157.95 385.76 157.35C385.53 156.75 385.42 156.06 385.42 155.29C385.42 154.62 385.52 153.99 385.72 153.41C385.92 152.82 386.22 152.32 386.61 151.89C387 151.46 387.49 151.12 388.06 150.87C388.65 150.63 389.32 150.51 390.08 150.51C390.81 150.51 391.45 150.62 392.01 150.86C392.56 151.09 393.06 151.43 393.5 151.88C393.45 151.95 393.2 152.27 392.76 152.86C392.65 152.99 392.57 153.07 392.52 153.11ZM397.66 159.98L394.87 159.98L394.87 150.65L397.66 150.65L397.66 159.98ZM397.85 148.72C397.76 148.92 397.64 149.09 397.48 149.24C397.33 149.38 397.15 149.5 396.94 149.59C396.73 149.67 396.51 149.71 396.28 149.71C396.05 149.71 395.84 149.67 395.64 149.59C395.44 149.5 395.26 149.38 395.11 149.24C394.96 149.09 394.84 148.92 394.75 148.72C394.66 148.53 394.62 148.32 394.62 148.09C394.62 147.87 394.66 147.65 394.75 147.45C394.84 147.26 394.96 147.08 395.11 146.93C395.26 146.78 395.44 146.67 395.64 146.58C395.84 146.5 396.05 146.46 396.28 146.46C396.51 146.46 396.73 146.5 396.94 146.58C397.15 146.67 397.33 146.78 397.48 146.93C397.64 147.08 397.76 147.26 397.85 147.45C397.94 147.65 397.99 147.87 397.99 148.09C397.99 148.32 397.94 148.53 397.85 148.72ZM405.39 152.94C405.31 152.98 405.21 153.01 405.08 153.01C404.95 153.01 404.82 152.98 404.69 152.93C404.56 152.87 404.41 152.8 404.26 152.74C404.11 152.67 403.93 152.61 403.74 152.56C403.55 152.5 403.33 152.47 403.09 152.47C402.73 152.47 402.46 152.54 402.27 152.67C402.08 152.81 401.99 152.99 401.99 153.23C401.99 153.41 402.05 153.55 402.17 153.66C402.29 153.78 402.46 153.88 402.66 153.97C402.87 154.05 403.1 154.14 403.36 154.21C403.61 154.29 403.88 154.38 404.15 154.47C404.42 154.57 404.68 154.68 404.94 154.82C405.2 154.94 405.43 155.1 405.63 155.29C405.84 155.48 406 155.71 406.12 155.98C406.24 156.25 406.31 156.57 406.31 156.95C406.31 157.41 406.22 157.84 406.06 158.23C405.89 158.62 405.64 158.95 405.3 159.24C404.97 159.52 404.56 159.74 404.07 159.89C403.58 160.05 403.02 160.13 402.38 160.13C402.07 160.13 401.75 160.1 401.43 160.04C401.11 159.98 400.8 159.9 400.5 159.79C400.21 159.69 399.94 159.57 399.68 159.43C399.43 159.29 399.22 159.14 399.04 158.97C399.1 158.87 399.62 158.05 399.68 157.95C399.76 157.83 399.85 157.74 399.96 157.67C400.07 157.6 400.21 157.56 400.39 157.56C400.55 157.56 400.69 157.6 400.82 157.67C400.95 157.74 401.09 157.82 401.24 157.9C401.39 157.99 401.56 158.07 401.76 158.14C401.97 158.21 402.22 158.25 402.53 158.25C402.74 158.25 402.93 158.22 403.08 158.18C403.23 158.13 403.35 158.07 403.44 157.99C403.53 157.92 403.59 157.83 403.63 157.73C403.68 157.64 403.7 157.54 403.7 157.44C403.7 157.25 403.63 157.1 403.51 156.98C403.38 156.86 403.22 156.75 403.01 156.67C402.81 156.58 402.58 156.5 402.31 156.43C402.05 156.35 401.79 156.26 401.52 156.17C401.25 156.07 400.98 155.96 400.72 155.82C400.46 155.69 400.23 155.52 400.03 155.31C399.82 155.1 399.66 154.85 399.53 154.55C399.4 154.25 399.34 153.88 399.34 153.46C399.34 153.06 399.42 152.69 399.57 152.33C399.72 151.97 399.95 151.66 400.26 151.39C400.57 151.12 400.95 150.9 401.41 150.75C401.87 150.59 402.41 150.51 403.03 150.51C403.37 150.51 403.69 150.54 404 150.6C404.32 150.66 404.62 150.74 404.89 150.85C405.17 150.96 405.42 151.08 405.65 151.23C405.88 151.38 406.08 151.54 406.25 151.71C406.21 151.78 406 152.1 405.62 152.69C405.52 152.82 405.45 152.9 405.39 152.94ZM413.69 159.87C413.55 159.8 413.44 159.65 413.35 159.42C413.33 159.37 413.17 158.96 413.16 158.91C412.92 159.11 412.7 159.28 412.48 159.43C412.26 159.58 412.04 159.71 411.81 159.82C411.58 159.92 411.33 160 411.07 160.05C410.81 160.1 410.52 160.13 410.2 160.13C409.78 160.13 409.39 160.07 409.04 159.96C408.69 159.85 408.4 159.69 408.15 159.47C407.91 159.25 407.73 158.99 407.59 158.67C407.46 158.34 407.4 157.97 407.4 157.55C407.4 157.22 407.48 156.88 407.65 156.54C407.82 156.19 408.11 155.87 408.52 155.59C408.93 155.3 409.49 155.06 410.19 154.87C410.9 154.68 411.78 154.57 412.85 154.55C412.85 154.51 412.85 154.19 412.85 154.15C412.85 153.6 412.74 153.21 412.51 152.97C412.29 152.73 411.97 152.6 411.55 152.6C411.22 152.6 410.95 152.64 410.74 152.71C410.53 152.78 410.34 152.86 410.18 152.95C410.01 153.04 409.86 153.12 409.7 153.2C409.54 153.27 409.36 153.3 409.14 153.3C408.95 153.3 408.78 153.26 408.65 153.17C408.51 153.07 408.41 152.96 408.33 152.82C408.28 152.73 407.88 152.03 407.83 151.95C408.39 151.45 409.02 151.08 409.7 150.84C410.39 150.59 411.13 150.47 411.91 150.47C412.48 150.47 412.98 150.56 413.43 150.75C413.89 150.93 414.27 151.18 414.59 151.51C414.9 151.84 415.15 152.22 415.32 152.67C415.48 153.12 415.57 153.62 415.57 154.15C415.57 154.54 415.57 156.48 415.57 159.98L414.29 159.98C413.98 159.96 413.78 159.92 413.69 159.87ZM412.03 158.09C412.3 157.97 412.57 157.76 412.85 157.48C412.85 157.35 412.85 156.31 412.85 156.18C412.29 156.21 411.83 156.26 411.47 156.33C411.11 156.4 410.83 156.49 410.62 156.6C410.41 156.71 410.26 156.83 410.18 156.97C410.1 157.11 410.06 157.26 410.06 157.42C410.06 157.74 410.15 157.96 410.32 158.09C410.49 158.22 410.75 158.28 411.09 158.28C411.45 158.28 411.76 158.22 412.03 158.09ZM417.55 150.65C418.54 150.65 419.09 150.65 419.2 150.65C419.34 150.65 419.46 150.66 419.55 150.69C419.64 150.71 419.72 150.75 419.78 150.8C419.85 150.85 419.89 150.92 419.92 151C419.96 151.08 419.99 151.19 420.01 151.31C420.03 151.39 420.15 152.09 420.17 152.18C420.51 151.65 420.89 151.23 421.32 150.93C421.75 150.62 422.21 150.47 422.71 150.47C423.14 150.47 423.48 150.57 423.74 150.78C423.7 150.98 423.42 152.62 423.38 152.83C423.36 152.95 423.31 153.04 423.24 153.1C423.16 153.15 423.07 153.17 422.95 153.17C422.85 153.17 422.73 153.16 422.59 153.13C422.45 153.1 422.28 153.09 422.07 153.09C421.33 153.09 420.76 153.48 420.34 154.26C420.34 154.64 420.34 156.55 420.34 159.98L417.55 159.98L417.55 150.65ZM434.58 159.87C434.46 159.79 434.38 159.67 434.33 159.51C434.31 159.44 434.14 158.87 434.12 158.8C433.93 159 433.74 159.18 433.53 159.34C433.33 159.51 433.11 159.65 432.87 159.77C432.63 159.88 432.38 159.97 432.1 160.03C431.83 160.09 431.54 160.13 431.22 160.13C430.73 160.13 430.28 160.02 429.87 159.8C429.45 159.59 429.1 159.27 428.8 158.87C428.5 158.46 428.26 157.96 428.09 157.37C427.92 156.78 427.83 156.1 427.83 155.35C427.83 154.65 427.93 154.01 428.12 153.41C428.31 152.81 428.58 152.3 428.93 151.86C429.29 151.43 429.71 151.08 430.2 150.84C430.69 150.59 431.24 150.47 431.83 150.47C432.31 150.47 432.72 150.54 433.05 150.69C433.38 150.82 433.68 151.01 433.95 151.23C433.95 150.92 433.95 149.34 433.95 146.51L436.74 146.51L436.74 159.98L435.02 159.98C434.8 159.96 434.66 159.92 434.58 159.87ZM432.74 157.93C432.91 157.89 433.06 157.83 433.2 157.76C433.34 157.69 433.47 157.6 433.59 157.49C433.71 157.38 433.83 157.26 433.95 157.11C433.95 156.72 433.95 153.55 433.95 153.15C433.74 152.92 433.51 152.76 433.26 152.67C433.02 152.57 432.77 152.52 432.5 152.52C432.24 152.52 432 152.57 431.79 152.67C431.57 152.78 431.38 152.94 431.22 153.17C431.06 153.39 430.94 153.68 430.85 154.04C430.76 154.4 430.71 154.84 430.71 155.35C430.71 155.84 430.75 156.25 430.82 156.59C430.89 156.93 430.99 157.2 431.12 157.41C431.25 157.61 431.41 157.76 431.59 157.85C431.77 157.94 431.97 157.98 432.19 157.98C432.39 157.98 432.58 157.97 432.74 157.93ZM444.59 150.79C445.11 150.99 445.55 151.26 445.92 151.63C446.29 152 446.58 152.45 446.78 152.98C446.99 153.51 447.1 154.11 447.1 154.78C447.1 154.99 447.09 155.16 447.07 155.29C447.05 155.43 447.02 155.53 446.97 155.61C446.92 155.69 446.86 155.74 446.77 155.77C446.69 155.8 446.59 155.82 446.47 155.82C445.93 155.82 441.62 155.82 441.08 155.82C441.17 156.6 441.41 157.16 441.79 157.52C442.18 157.86 442.67 158.04 443.28 158.04C443.6 158.04 443.88 158 444.12 157.92C444.35 157.84 444.56 157.76 444.74 157.66C444.92 157.56 445.09 157.48 445.24 157.4C445.4 157.32 445.56 157.28 445.73 157.28C445.95 157.28 446.12 157.36 446.23 157.53C446.31 157.63 446.96 158.42 447.04 158.52C446.75 158.85 446.44 159.12 446.11 159.33C445.78 159.54 445.43 159.7 445.08 159.82C444.73 159.93 444.38 160.01 444.03 160.05C443.68 160.1 443.35 160.13 443.03 160.13C442.37 160.13 441.76 160.02 441.18 159.81C440.61 159.6 440.11 159.28 439.68 158.86C439.25 158.44 438.91 157.92 438.66 157.29C438.42 156.67 438.29 155.94 438.29 155.11C438.29 154.49 438.4 153.9 438.61 153.34C438.82 152.78 439.13 152.29 439.53 151.87C439.93 151.45 440.41 151.12 440.98 150.87C441.55 150.63 442.19 150.51 442.9 150.51C443.52 150.51 444.08 150.6 444.59 150.79ZM441.7 152.89C441.4 153.19 441.21 153.63 441.11 154.2C441.46 154.2 444.24 154.2 444.59 154.2C444.59 153.97 444.56 153.76 444.5 153.55C444.45 153.34 444.36 153.15 444.22 152.99C444.1 152.82 443.93 152.69 443.72 152.58C443.51 152.48 443.26 152.43 442.96 152.43C442.42 152.43 442 152.58 441.7 152.89ZM458.02 159.87C457.89 159.8 457.78 159.65 457.69 159.42C457.67 159.37 457.51 158.96 457.49 158.91C457.25 159.11 457.03 159.28 456.81 159.43C456.6 159.58 456.37 159.71 456.14 159.82C455.91 159.92 455.66 160 455.4 160.05C455.14 160.1 454.85 160.13 454.54 160.13C454.11 160.13 453.72 160.07 453.37 159.96C453.03 159.85 452.73 159.69 452.48 159.47C452.24 159.25 452.06 158.99 451.93 158.67C451.79 158.34 451.73 157.97 451.73 157.55C451.73 157.22 451.81 156.88 451.98 156.54C452.15 156.19 452.44 155.87 452.85 155.59C453.27 155.3 453.82 155.06 454.53 154.87C455.23 154.68 456.11 154.57 457.18 154.55C457.18 154.51 457.18 154.19 457.18 154.15C457.18 153.6 457.07 153.21 456.84 152.97C456.62 152.73 456.3 152.6 455.89 152.6C455.56 152.6 455.29 152.64 455.08 152.71C454.87 152.78 454.68 152.86 454.51 152.95C454.35 153.04 454.19 153.12 454.03 153.2C453.88 153.27 453.69 153.3 453.47 153.3C453.28 153.3 453.12 153.26 452.98 153.17C452.85 153.07 452.74 152.96 452.66 152.82C452.61 152.73 452.21 152.03 452.16 151.95C452.72 151.45 453.35 151.08 454.03 150.84C454.72 150.59 455.46 150.47 456.25 150.47C456.81 150.47 457.32 150.56 457.77 150.75C458.22 150.93 458.61 151.18 458.92 151.51C459.24 151.84 459.48 152.22 459.65 152.67C459.82 153.12 459.9 153.62 459.9 154.15C459.9 154.54 459.9 156.48 459.9 159.98L458.62 159.98C458.31 159.96 458.11 159.92 458.02 159.87ZM456.36 158.09C456.63 157.97 456.91 157.76 457.18 157.48C457.18 157.35 457.18 156.31 457.18 156.18C456.62 156.21 456.16 156.26 455.8 156.33C455.44 156.4 455.16 156.49 454.95 156.6C454.74 156.71 454.59 156.83 454.51 156.97C454.43 157.11 454.39 157.26 454.39 157.42C454.39 157.74 454.48 157.96 454.65 158.09C454.83 158.22 455.08 158.28 455.42 158.28C455.78 158.28 456.09 158.22 456.36 158.09ZM464.76 160C464.76 160.44 464.7 160.85 464.59 161.23C464.48 161.62 464.3 161.96 464.04 162.25C463.79 162.54 463.45 162.78 463.03 162.94C462.62 163.11 462.1 163.2 461.48 163.2C461.26 163.2 461.04 163.18 460.85 163.15C460.65 163.13 460.45 163.09 460.24 163.03C460.25 162.89 460.32 161.71 460.33 161.57C460.34 161.44 460.39 161.35 460.46 161.29C460.53 161.23 460.67 161.2 460.89 161.2C461.11 161.2 461.28 161.18 461.42 161.14C461.56 161.11 461.67 161.04 461.75 160.95C461.83 160.86 461.89 160.74 461.92 160.59C461.95 160.44 461.97 160.24 461.97 160C461.97 159.38 461.97 156.26 461.97 150.65L464.76 150.65C464.76 156.26 464.76 159.38 464.76 160ZM464.95 148.72C464.86 148.92 464.74 149.09 464.58 149.24C464.42 149.38 464.24 149.5 464.03 149.59C463.83 149.67 463.61 149.71 463.37 149.71C463.15 149.71 462.93 149.67 462.74 149.59C462.54 149.5 462.36 149.38 462.2 149.24C462.05 149.09 461.93 148.92 461.84 148.72C461.76 148.53 461.72 148.32 461.72 148.09C461.72 147.87 461.76 147.65 461.84 147.45C461.93 147.26 462.05 147.08 462.2 146.93C462.36 146.78 462.54 146.67 462.74 146.58C462.93 146.5 463.15 146.46 463.37 146.46C463.61 146.46 463.83 146.5 464.03 146.58C464.24 146.67 464.42 146.78 464.58 146.93C464.74 147.08 464.86 147.26 464.95 147.45C465.04 147.65 465.08 147.87 465.08 148.09C465.08 148.32 465.04 148.53 464.95 148.72ZM469.59 156.57C469.59 157.03 469.69 157.39 469.9 157.64C470.11 157.89 470.42 158.02 470.83 158.02C471.14 158.02 471.42 157.96 471.69 157.83C471.96 157.71 472.22 157.53 472.47 157.3C472.47 156.86 472.47 154.64 472.47 150.65L475.26 150.65L475.26 159.98C474.22 159.98 473.65 159.98 473.53 159.98C473.18 159.98 472.95 159.83 472.85 159.51C472.83 159.46 472.69 159.03 472.68 158.97C472.5 159.15 472.31 159.31 472.12 159.45C471.93 159.59 471.72 159.71 471.5 159.81C471.28 159.91 471.05 159.98 470.79 160.04C470.54 160.1 470.27 160.13 469.97 160.13C469.46 160.13 469 160.04 468.61 159.87C468.22 159.69 467.89 159.44 467.62 159.12C467.35 158.8 467.14 158.43 467.01 157.99C466.87 157.56 466.8 157.09 466.8 156.57C466.8 156.18 466.8 154.2 466.8 150.65L469.59 150.65C469.59 154.2 469.59 156.18 469.59 156.57ZM483.53 159.87C483.42 159.79 483.34 159.67 483.29 159.51C483.27 159.44 483.09 158.87 483.07 158.8C482.89 159 482.69 159.18 482.49 159.34C482.28 159.51 482.06 159.65 481.82 159.77C481.59 159.88 481.33 159.97 481.06 160.03C480.79 160.09 480.49 160.13 480.17 160.13C479.69 160.13 479.24 160.02 478.82 159.8C478.41 159.59 478.05 159.27 477.75 158.87C477.45 158.46 477.22 157.96 477.04 157.37C476.87 156.78 476.79 156.1 476.79 155.35C476.79 154.65 476.89 154.01 477.08 153.41C477.27 152.81 477.54 152.3 477.89 151.86C478.24 151.43 478.66 151.08 479.16 150.84C479.65 150.59 480.19 150.47 480.79 150.47C481.27 150.47 481.67 150.54 482 150.69C482.34 150.82 482.64 151.01 482.91 151.23C482.91 150.92 482.91 149.34 482.91 146.51L485.7 146.51L485.7 159.98L483.97 159.98C483.76 159.96 483.61 159.92 483.53 159.87ZM481.69 157.93C481.86 157.89 482.02 157.83 482.15 157.76C482.29 157.69 482.42 157.6 482.54 157.49C482.67 157.38 482.79 157.26 482.91 157.11C482.91 156.72 482.91 153.55 482.91 153.15C482.69 152.92 482.46 152.76 482.22 152.67C481.98 152.57 481.72 152.52 481.45 152.52C481.19 152.52 480.96 152.57 480.74 152.67C480.52 152.78 480.34 152.94 480.17 153.17C480.02 153.39 479.89 153.68 479.8 154.04C479.71 154.4 479.67 154.84 479.67 155.35C479.67 155.84 479.71 156.25 479.78 156.59C479.85 156.93 479.95 157.2 480.07 157.41C480.21 157.61 480.36 157.76 480.54 157.85C480.72 157.94 480.92 157.98 481.15 157.98C481.35 157.98 481.53 157.97 481.69 157.93ZM493.7 159.87C493.57 159.8 493.46 159.65 493.37 159.42C493.35 159.37 493.19 158.96 493.17 158.91C492.94 159.11 492.71 159.28 492.5 159.43C492.28 159.58 492.05 159.71 491.82 159.82C491.59 159.92 491.35 160 491.08 160.05C490.82 160.1 490.54 160.13 490.22 160.13C489.79 160.13 489.41 160.07 489.06 159.96C488.71 159.85 488.41 159.69 488.17 159.47C487.93 159.25 487.74 158.99 487.61 158.67C487.48 158.34 487.41 157.97 487.41 157.55C487.41 157.22 487.49 156.88 487.66 156.54C487.83 156.19 488.12 155.87 488.54 155.59C488.95 155.3 489.51 155.06 490.21 154.87C490.91 154.68 491.8 154.57 492.86 154.55C492.86 154.51 492.86 154.19 492.86 154.15C492.86 153.6 492.75 153.21 492.52 152.97C492.3 152.73 491.98 152.6 491.57 152.6C491.24 152.6 490.97 152.64 490.76 152.71C490.55 152.78 490.36 152.86 490.19 152.95C490.03 153.04 489.87 153.12 489.71 153.2C489.56 153.27 489.37 153.3 489.16 153.3C488.96 153.3 488.8 153.26 488.66 153.17C488.53 153.07 488.42 152.96 488.35 152.82C488.3 152.73 487.89 152.03 487.84 151.95C488.41 151.45 489.03 151.08 489.71 150.84C490.4 150.59 491.14 150.47 491.93 150.47C492.49 150.47 493 150.56 493.45 150.75C493.91 150.93 494.29 151.18 494.6 151.51C494.92 151.84 495.16 152.22 495.33 152.67C495.5 153.12 495.58 153.62 495.58 154.15C495.58 154.54 495.58 156.48 495.58 159.98L494.3 159.98C493.99 159.96 493.79 159.92 493.7 159.87ZM492.05 158.09C492.32 157.97 492.59 157.76 492.86 157.48C492.86 157.35 492.86 156.31 492.86 156.18C492.31 156.21 491.85 156.26 491.49 156.33C491.13 156.4 490.84 156.49 490.63 156.6C490.42 156.71 490.28 156.83 490.19 156.97C490.11 157.11 490.07 157.26 490.07 157.42C490.07 157.74 490.16 157.96 490.34 158.09C490.51 158.22 490.76 158.28 491.1 158.28C491.46 158.28 491.78 158.22 492.05 158.09ZM497.4 158.49C497.46 158.36 497.53 158.25 497.62 158.16C497.71 158.07 497.83 157.99 497.96 157.94C498.09 157.89 498.24 157.86 498.39 157.86C498.57 157.86 498.73 157.89 498.87 157.96C499.01 158.02 499.13 158.12 499.22 158.24C499.32 158.35 499.39 158.49 499.44 158.64C499.48 158.79 499.51 158.96 499.51 159.14C499.51 159.41 499.47 159.69 499.39 159.98C499.31 160.27 499.2 160.56 499.06 160.84C498.91 161.13 498.73 161.4 498.52 161.67C498.31 161.94 498.07 162.19 497.8 162.42C497.77 162.4 497.55 162.19 497.53 162.16C497.45 162.09 497.41 162 497.41 161.91C497.41 161.83 497.45 161.75 497.54 161.67C497.6 161.6 497.67 161.51 497.76 161.4C497.86 161.29 497.95 161.16 498.05 161.02C498.15 160.87 498.23 160.71 498.31 160.54C498.39 160.37 498.45 160.18 498.49 159.98C498.48 159.98 498.38 159.98 498.37 159.98C498.22 159.98 498.08 159.96 497.95 159.9C497.82 159.85 497.71 159.77 497.62 159.68C497.53 159.57 497.46 159.46 497.4 159.33C497.35 159.19 497.33 159.04 497.33 158.88C497.33 158.74 497.35 158.61 497.4 158.49ZM353.82 174.23C353.22 174.16 352.88 174.12 352.82 174.12C352.69 174.09 352.58 174.04 352.5 173.98C352.42 173.92 352.38 173.82 352.38 173.7C352.38 173.66 352.38 173.44 352.38 173.05L353.82 173.05C353.82 172.52 353.82 172.22 353.82 172.16C353.82 171.64 353.9 171.18 354.04 170.78C354.19 170.37 354.4 170.03 354.67 169.75C354.95 169.47 355.28 169.26 355.66 169.11C356.04 168.97 356.48 168.9 356.96 168.9C357.36 168.9 357.74 168.96 358.09 169.08C358.09 169.16 358.06 169.8 358.05 169.88C358.05 170 358 170.07 357.9 170.09C357.8 170.12 357.67 170.13 357.5 170.13C357.47 170.13 357.24 170.13 357.22 170.13C356.94 170.13 356.69 170.17 356.46 170.24C356.24 170.31 356.05 170.43 355.88 170.59C355.72 170.75 355.6 170.96 355.51 171.23C355.42 171.49 355.38 171.82 355.38 172.21C355.38 172.26 355.38 172.54 355.38 173.05L358.02 173.05L358.02 174.21L355.43 174.21L355.43 181.98L353.82 181.98L353.82 174.23ZM365.51 181.98C365.36 181.98 365.23 181.96 365.14 181.91C365.04 181.86 364.98 181.76 364.95 181.6C364.93 181.52 364.78 180.84 364.77 180.76C364.53 180.97 364.29 181.17 364.06 181.34C363.84 181.51 363.6 181.66 363.34 181.78C363.09 181.89 362.82 181.98 362.53 182.04C362.25 182.1 361.94 182.13 361.59 182.13C361.24 182.13 360.9 182.08 360.59 181.98C360.28 181.88 360.02 181.73 359.79 181.53C359.56 181.33 359.38 181.09 359.24 180.79C359.11 180.48 359.04 180.12 359.04 179.71C359.04 179.35 359.14 179 359.34 178.67C359.54 178.33 359.86 178.04 360.29 177.78C360.74 177.52 361.32 177.31 362.03 177.15C362.74 176.98 363.62 176.89 364.65 176.86C364.65 176.79 364.65 176.22 364.65 176.15C364.65 175.44 364.5 174.91 364.19 174.55C363.89 174.18 363.44 174 362.85 174C362.46 174 362.13 174.05 361.86 174.15C361.6 174.25 361.36 174.36 361.17 174.49C360.97 174.61 360.81 174.72 360.66 174.82C360.52 174.91 360.39 174.96 360.25 174.96C360.14 174.96 360.04 174.94 359.96 174.88C359.88 174.82 359.82 174.75 359.77 174.67C359.74 174.61 359.51 174.2 359.48 174.15C359.99 173.67 360.53 173.3 361.11 173.06C361.69 172.82 362.34 172.7 363.05 172.7C363.56 172.7 364.01 172.79 364.41 172.96C364.8 173.12 365.14 173.36 365.41 173.66C365.68 173.96 365.88 174.32 366.02 174.75C366.16 175.17 366.22 175.64 366.22 176.15C366.22 176.54 366.22 178.48 366.22 181.98C365.8 181.98 365.56 181.98 365.51 181.98ZM362.84 180.92C363.07 180.86 363.29 180.78 363.5 180.68C363.71 180.57 363.91 180.44 364.09 180.29C364.28 180.14 364.47 179.97 364.65 179.78C364.65 179.59 364.65 178.07 364.65 177.88C363.91 177.9 363.28 177.96 362.77 178.06C362.25 178.15 361.83 178.27 361.51 178.42C361.18 178.57 360.95 178.75 360.8 178.95C360.65 179.15 360.58 179.38 360.58 179.63C360.58 179.87 360.62 180.08 360.7 180.25C360.78 180.43 360.88 180.57 361.01 180.69C361.15 180.79 361.3 180.88 361.48 180.93C361.66 180.98 361.86 181 362.07 181C362.35 181 362.61 180.97 362.84 180.92ZM370.43 181.98L368.83 181.98L368.83 168.73L370.43 168.73L370.43 181.98ZM378.38 173C378.84 173.18 379.24 173.44 379.57 173.79C379.91 174.13 380.17 174.56 380.36 175.07C380.55 175.57 380.65 176.15 380.65 176.8C380.65 177.05 380.62 177.22 380.56 177.3C380.51 177.39 380.41 177.43 380.26 177.43C379.65 177.43 374.8 177.43 374.19 177.43C374.2 178 374.28 178.51 374.43 178.93C374.57 179.36 374.77 179.71 375.02 180C375.27 180.28 375.57 180.5 375.92 180.64C376.27 180.78 376.66 180.85 377.09 180.85C377.49 180.85 377.84 180.8 378.13 180.71C378.42 180.62 378.67 180.52 378.88 180.41C379.09 180.3 379.27 180.2 379.4 180.11C379.55 180.01 379.67 179.97 379.77 179.97C379.9 179.97 380.01 180.02 380.08 180.12C380.12 180.18 380.48 180.65 380.53 180.7C380.33 180.94 380.09 181.15 379.82 181.33C379.54 181.51 379.24 181.65 378.93 181.77C378.61 181.88 378.29 181.96 377.95 182.02C377.62 182.08 377.29 182.11 376.96 182.11C376.33 182.11 375.74 182 375.21 181.79C374.68 181.58 374.22 181.27 373.83 180.86C373.45 180.44 373.15 179.93 372.93 179.33C372.72 178.72 372.61 178.03 372.61 177.24C372.61 176.6 372.7 176.01 372.9 175.46C373.09 174.91 373.38 174.43 373.74 174.03C374.11 173.62 374.56 173.3 375.08 173.07C375.61 172.84 376.21 172.72 376.87 172.72C377.41 172.72 377.92 172.81 378.38 173ZM375.07 174.58C374.63 175.02 374.35 175.64 374.25 176.43C374.74 176.43 378.71 176.43 379.21 176.43C379.21 176.06 379.15 175.72 379.05 175.41C378.95 175.1 378.8 174.83 378.6 174.61C378.4 174.38 378.16 174.21 377.87 174.09C377.59 173.96 377.27 173.9 376.9 173.9C376.13 173.9 375.52 174.13 375.07 174.58ZM392.25 174.64C392.2 174.67 392.13 174.69 392.04 174.69C391.95 174.69 391.86 174.66 391.75 174.58C391.65 174.51 391.51 174.42 391.35 174.33C391.19 174.24 390.99 174.16 390.76 174.09C390.53 174.01 390.25 173.97 389.91 173.97C389.47 173.97 389.07 174.05 388.73 174.22C388.39 174.37 388.1 174.6 387.87 174.9C387.64 175.2 387.47 175.56 387.35 175.99C387.23 176.41 387.18 176.89 387.18 177.42C387.18 177.97 387.24 178.46 387.36 178.9C387.49 179.32 387.67 179.68 387.9 179.98C388.12 180.26 388.4 180.49 388.72 180.64C389.05 180.79 389.42 180.87 389.83 180.87C390.22 180.87 390.54 180.82 390.79 180.73C391.05 180.64 391.26 180.53 391.42 180.42C391.59 180.3 391.73 180.2 391.84 180.11C391.95 180.01 392.05 179.97 392.16 179.97C392.3 179.97 392.4 180.02 392.47 180.12C392.51 180.18 392.87 180.65 392.92 180.7C392.52 181.19 392.03 181.55 391.43 181.78C390.84 182 390.21 182.11 389.55 182.11C388.98 182.11 388.45 182 387.96 181.79C387.47 181.58 387.05 181.28 386.69 180.88C386.33 180.48 386.04 179.99 385.83 179.41C385.63 178.83 385.53 178.16 385.53 177.42C385.53 176.74 385.62 176.11 385.81 175.54C386 174.96 386.28 174.47 386.64 174.05C387 173.63 387.45 173.31 387.99 173.07C388.52 172.84 389.13 172.72 389.82 172.72C390.46 172.72 391.02 172.83 391.51 173.04C392.01 173.24 392.44 173.53 392.82 173.91C392.79 173.95 392.65 174.14 392.4 174.49C392.33 174.56 392.28 174.61 392.25 174.64ZM400.07 173.05C400.61 173.28 401.07 173.59 401.44 174C401.82 174.41 402.1 174.9 402.3 175.48C402.51 176.06 402.61 176.71 402.61 177.42C402.61 178.14 402.51 178.79 402.3 179.36C402.1 179.94 401.82 180.43 401.44 180.84C401.07 181.25 400.61 181.56 400.07 181.78C399.54 182 398.94 182.11 398.27 182.11C397.6 182.11 397 182 396.46 181.78C395.93 181.56 395.47 181.25 395.09 180.84C394.71 180.43 394.42 179.94 394.22 179.36C394.02 178.79 393.91 178.14 393.91 177.42C393.91 176.71 394.02 176.06 394.22 175.48C394.42 174.9 394.71 174.41 395.09 174C395.47 173.59 395.93 173.28 396.46 173.05C397 172.83 397.6 172.72 398.27 172.72C398.94 172.72 399.54 172.83 400.07 173.05ZM400.29 179.96C400.73 179.35 400.95 178.51 400.95 177.43C400.95 176.34 400.73 175.5 400.29 174.89C399.84 174.28 399.17 173.98 398.27 173.98C397.81 173.98 397.42 174.06 397.08 174.22C396.75 174.37 396.46 174.6 396.24 174.89C396.01 175.18 395.85 175.55 395.73 175.98C395.62 176.41 395.57 176.89 395.57 177.43C395.57 177.97 395.62 178.45 395.73 178.88C395.85 179.3 396.01 179.66 396.24 179.96C396.46 180.25 396.75 180.47 397.08 180.62C397.42 180.78 397.81 180.86 398.27 180.86C399.17 180.86 399.84 180.56 400.29 179.96ZM404.58 172.87C405.15 172.87 405.47 172.87 405.54 172.87C405.76 172.87 405.91 172.98 405.97 173.2C405.98 173.29 406.07 174.04 406.08 174.13C406.42 173.72 406.8 173.38 407.21 173.12C407.63 172.85 408.12 172.72 408.67 172.72C409.29 172.72 409.78 172.89 410.16 173.23C410.55 173.58 410.82 174.04 410.99 174.62C411.12 174.29 411.28 174.01 411.48 173.77C411.69 173.53 411.93 173.33 412.19 173.17C412.44 173.02 412.72 172.9 413.01 172.83C413.3 172.76 413.6 172.72 413.9 172.72C414.38 172.72 414.8 172.8 415.17 172.96C415.55 173.11 415.87 173.33 416.13 173.62C416.39 173.92 416.59 174.28 416.73 174.71C416.87 175.14 416.94 175.63 416.94 176.18C416.94 176.56 416.94 178.5 416.94 181.98L415.34 181.98C415.34 178.5 415.34 176.56 415.34 176.18C415.34 175.46 415.18 174.92 414.87 174.56C414.56 174.19 414.1 174 413.51 174C413.25 174 412.99 174.05 412.75 174.14C412.52 174.23 412.31 174.37 412.13 174.55C411.95 174.73 411.81 174.96 411.7 175.23C411.6 175.5 411.55 175.82 411.55 176.18C411.55 176.56 411.55 178.5 411.55 181.98L409.95 181.98C409.95 178.5 409.95 176.56 409.95 176.18C409.95 175.45 409.8 174.9 409.5 174.54C409.21 174.18 408.78 174 408.22 174C407.82 174 407.45 174.11 407.11 174.32C406.77 174.53 406.47 174.82 406.18 175.19C406.18 175.64 406.18 177.91 406.18 181.98L404.58 181.98L404.58 172.87ZM428.33 173.05C428.87 173.28 429.33 173.59 429.7 174C430.08 174.41 430.37 174.9 430.57 175.48C430.77 176.06 430.87 176.71 430.87 177.42C430.87 178.14 430.77 178.79 430.57 179.36C430.37 179.94 430.08 180.43 429.7 180.84C429.33 181.25 428.87 181.56 428.33 181.78C427.8 182 427.2 182.11 426.53 182.11C425.87 182.11 425.27 182 424.73 181.78C424.19 181.56 423.74 181.25 423.36 180.84C422.98 180.43 422.69 179.94 422.48 179.36C422.28 178.79 422.18 178.14 422.18 177.42C422.18 176.71 422.28 176.06 422.48 175.48C422.69 174.9 422.98 174.41 423.36 174C423.74 173.59 424.19 173.28 424.73 173.05C425.27 172.83 425.87 172.72 426.53 172.72C427.2 172.72 427.8 172.83 428.33 173.05ZM428.55 179.96C428.99 179.35 429.22 178.51 429.22 177.43C429.22 176.34 428.99 175.5 428.55 174.89C428.11 174.28 427.43 173.98 426.53 173.98C426.08 173.98 425.68 174.06 425.35 174.22C425.01 174.37 424.73 174.6 424.5 174.89C424.28 175.18 424.11 175.55 424 175.98C423.89 176.41 423.83 176.89 423.83 177.43C423.83 177.97 423.89 178.45 424 178.88C424.11 179.3 424.28 179.66 424.5 179.96C424.73 180.25 425.01 180.47 425.35 180.62C425.68 180.78 426.08 180.86 426.53 180.86C427.43 180.86 428.11 180.56 428.55 179.96ZM438.11 181.98L436.51 181.98L436.51 168.73L438.11 168.73L438.11 181.98ZM446.42 173.05C446.96 173.28 447.42 173.59 447.79 174C448.17 174.41 448.46 174.9 448.65 175.48C448.86 176.06 448.96 176.71 448.96 177.42C448.96 178.14 448.86 178.79 448.65 179.36C448.46 179.94 448.17 180.43 447.79 180.84C447.42 181.25 446.96 181.56 446.42 181.78C445.89 182 445.29 182.11 444.62 182.11C443.96 182.11 443.35 182 442.81 181.78C442.28 181.56 441.82 181.25 441.45 180.84C441.07 180.43 440.78 179.94 440.57 179.36C440.37 178.79 440.27 178.14 440.27 177.42C440.27 176.71 440.37 176.06 440.57 175.48C440.78 174.9 441.07 174.41 441.45 174C441.82 173.59 442.28 173.28 442.81 173.05C443.35 172.83 443.96 172.72 444.62 172.72C445.29 172.72 445.89 172.83 446.42 173.05ZM446.64 179.96C447.08 179.35 447.3 178.51 447.3 177.43C447.3 176.34 447.08 175.5 446.64 174.89C446.19 174.28 445.52 173.98 444.62 173.98C444.17 173.98 443.77 174.06 443.43 174.22C443.1 174.37 442.82 174.6 442.59 174.89C442.37 175.18 442.2 175.55 442.08 175.98C441.98 176.41 441.92 176.89 441.92 177.43C441.92 177.97 441.98 178.45 442.08 178.88C442.2 179.3 442.37 179.66 442.59 179.96C442.82 180.25 443.1 180.47 443.43 180.62C443.77 180.78 444.17 180.86 444.62 180.86C445.52 180.86 446.19 180.56 446.64 179.96ZM452.72 182.66C452.72 183.02 452.67 183.36 452.57 183.67C452.48 183.99 452.32 184.27 452.11 184.5C451.91 184.74 451.64 184.92 451.31 185.05C450.99 185.19 450.6 185.26 450.14 185.26C449.94 185.26 449.76 185.24 449.6 185.21C449.44 185.18 449.28 185.14 449.12 185.08C449.12 184.99 449.18 184.3 449.19 184.21C449.2 184.14 449.23 184.09 449.27 184.06C449.31 184.04 449.38 184.03 449.47 184.03C449.52 184.03 449.57 184.03 449.62 184.03C449.67 184.04 449.74 184.04 449.82 184.04C450.29 184.04 450.62 183.93 450.82 183.71C451.02 183.49 451.11 183.14 451.11 182.66C451.11 182 451.11 178.74 451.11 172.87L452.72 172.87C452.72 178.74 452.72 182 452.72 182.66ZM452.98 170.44C452.92 170.58 452.83 170.7 452.73 170.8C452.62 170.91 452.5 170.99 452.37 171.05C452.23 171.11 452.08 171.14 451.92 171.14C451.77 171.14 451.62 171.11 451.48 171.05C451.35 170.99 451.23 170.91 451.12 170.8C451.02 170.7 450.94 170.58 450.88 170.44C450.82 170.31 450.79 170.16 450.79 170C450.79 169.85 450.82 169.7 450.88 169.56C450.94 169.42 451.02 169.3 451.12 169.19C451.23 169.09 451.35 169 451.48 168.94C451.62 168.88 451.77 168.85 451.92 168.85C452.08 168.85 452.23 168.88 452.37 168.94C452.5 169 452.62 169.09 452.73 169.19C452.83 169.3 452.92 169.42 452.98 169.56C453.04 169.7 453.08 169.85 453.08 170C453.08 170.16 453.04 170.31 452.98 170.44ZM457.29 181.98L455.68 181.98L455.68 172.87L457.29 172.87L457.29 181.98ZM457.55 170.44C457.49 170.58 457.4 170.7 457.3 170.8C457.19 170.91 457.07 170.99 456.94 171.05C456.8 171.11 456.65 171.14 456.49 171.14C456.34 171.14 456.19 171.11 456.05 171.05C455.92 170.99 455.8 170.91 455.69 170.8C455.59 170.7 455.51 170.58 455.45 170.44C455.39 170.31 455.36 170.16 455.36 170C455.36 169.85 455.39 169.7 455.45 169.56C455.51 169.42 455.59 169.3 455.69 169.19C455.8 169.09 455.92 169 456.05 168.94C456.19 168.88 456.34 168.85 456.49 168.85C456.65 168.85 456.8 168.88 456.94 168.94C457.07 169 457.19 169.09 457.3 169.19C457.4 169.3 457.49 169.42 457.55 169.56C457.61 169.7 457.65 169.85 457.65 170C457.65 170.16 457.61 170.31 457.55 170.44ZM465 174.57C464.91 174.57 464.81 174.53 464.69 174.47C464.58 174.4 464.44 174.33 464.27 174.25C464.11 174.17 463.91 174.09 463.68 174.03C463.46 173.95 463.19 173.92 462.87 173.92C462.6 173.92 462.36 173.95 462.14 174.03C461.93 174.09 461.74 174.19 461.59 174.31C461.44 174.43 461.32 174.57 461.24 174.73C461.16 174.88 461.12 175.06 461.12 175.24C461.12 175.48 461.18 175.67 461.32 175.83C461.45 175.98 461.63 176.12 461.86 176.23C462.08 176.35 462.33 176.45 462.61 176.54C462.89 176.62 463.18 176.71 463.48 176.82C463.78 176.91 464.07 177.02 464.35 177.14C464.63 177.26 464.88 177.41 465.11 177.59C465.33 177.77 465.5 177.99 465.64 178.26C465.77 178.51 465.84 178.83 465.84 179.19C465.84 179.61 465.77 180 465.62 180.36C465.47 180.72 465.25 181.03 464.95 181.29C464.66 181.55 464.3 181.75 463.87 181.9C463.45 182.05 462.95 182.13 462.4 182.13C461.76 182.13 461.18 182.02 460.67 181.82C460.15 181.61 459.71 181.34 459.35 181.02C459.39 180.96 459.69 180.47 459.73 180.41C459.78 180.33 459.84 180.27 459.9 180.23C459.97 180.19 460.06 180.16 460.16 180.16C460.27 180.16 460.39 180.21 460.51 180.29C460.63 180.37 460.77 180.47 460.94 180.57C461.11 180.67 461.32 180.76 461.56 180.85C461.81 180.93 462.11 180.97 462.48 180.97C462.79 180.97 463.06 180.94 463.3 180.86C463.53 180.77 463.73 180.66 463.88 180.52C464.04 180.39 464.15 180.23 464.22 180.05C464.3 179.87 464.34 179.68 464.34 179.47C464.34 179.22 464.27 179.01 464.13 178.85C464 178.68 463.82 178.54 463.6 178.43C463.38 178.31 463.13 178.21 462.84 178.12C462.56 178.03 462.26 177.94 461.96 177.84C461.67 177.75 461.38 177.64 461.09 177.52C460.81 177.39 460.56 177.24 460.34 177.05C460.11 176.86 459.93 176.64 459.8 176.37C459.66 176.09 459.6 175.76 459.6 175.37C459.6 175.02 459.67 174.69 459.81 174.37C459.96 174.04 460.17 173.76 460.44 173.52C460.72 173.28 461.06 173.08 461.46 172.94C461.86 172.79 462.32 172.72 462.84 172.72C463.44 172.72 463.97 172.82 464.45 173.01C464.93 173.2 465.34 173.45 465.69 173.78C465.67 173.82 465.55 174.02 465.33 174.37C465.21 174.5 465.1 174.57 465 174.57ZM469.01 181.52C468.63 181.12 468.44 180.54 468.44 179.79C468.44 179.41 468.44 177.55 468.44 174.21C467.78 174.21 467.41 174.21 467.34 174.21C467.24 174.21 467.16 174.18 467.1 174.13C467.03 174.07 467 173.98 467 173.86C467 173.81 467 173.6 467 173.22L468.49 173.03C468.71 171.34 468.84 170.4 468.86 170.21C468.87 170.12 468.91 170.05 468.98 169.99C469.04 169.93 469.13 169.9 469.23 169.9C469.28 169.9 469.55 169.9 470.04 169.9L470.04 173.05L472.65 173.05L472.65 174.21L470.04 174.21C470.04 177.49 470.04 179.31 470.04 179.68C470.04 180.06 470.13 180.35 470.32 180.53C470.5 180.72 470.74 180.81 471.04 180.81C471.21 180.81 471.35 180.79 471.47 180.75C471.6 180.7 471.7 180.65 471.79 180.6C471.88 180.54 471.96 180.49 472.02 180.45C472.09 180.4 472.14 180.38 472.19 180.38C472.27 180.38 472.35 180.43 472.42 180.53C472.46 180.61 472.84 181.22 472.88 181.3C472.61 181.56 472.27 181.76 471.88 181.91C471.49 182.05 471.09 182.13 470.68 182.13C469.96 182.13 469.4 181.93 469.01 181.52ZM480.61 181.98C480.46 181.98 480.33 181.96 480.24 181.91C480.14 181.86 480.08 181.76 480.05 181.6C480.03 181.52 479.89 180.84 479.87 180.76C479.63 180.97 479.39 181.17 479.17 181.34C478.94 181.51 478.7 181.66 478.45 181.78C478.19 181.89 477.92 181.98 477.64 182.04C477.35 182.1 477.04 182.13 476.69 182.13C476.34 182.13 476 182.08 475.69 181.98C475.39 181.88 475.12 181.73 474.89 181.53C474.66 181.33 474.48 181.09 474.34 180.79C474.21 180.48 474.14 180.12 474.14 179.71C474.14 179.35 474.24 179 474.44 178.67C474.64 178.33 474.96 178.04 475.39 177.78C475.84 177.52 476.42 177.31 477.13 177.15C477.85 176.98 478.72 176.89 479.75 176.86C479.75 176.79 479.75 176.22 479.75 176.15C479.75 175.44 479.6 174.91 479.29 174.55C478.99 174.18 478.54 174 477.95 174C477.56 174 477.23 174.05 476.96 174.15C476.7 174.25 476.47 174.36 476.27 174.49C476.08 174.61 475.91 174.72 475.76 174.82C475.63 174.91 475.49 174.96 475.35 174.96C475.24 174.96 475.15 174.94 475.06 174.88C474.98 174.82 474.92 174.75 474.87 174.67C474.84 174.61 474.61 174.2 474.58 174.15C475.09 173.67 475.63 173.3 476.21 173.06C476.8 172.82 477.44 172.7 478.15 172.7C478.66 172.7 479.11 172.79 479.51 172.96C479.9 173.12 480.24 173.36 480.51 173.66C480.78 173.96 480.98 174.32 481.12 174.75C481.26 175.17 481.33 175.64 481.33 176.15C481.33 176.54 481.33 178.48 481.33 181.98C480.9 181.98 480.66 181.98 480.61 181.98ZM477.94 180.92C478.18 180.86 478.39 180.78 478.6 180.68C478.81 180.57 479.01 180.44 479.19 180.29C479.38 180.14 479.57 179.97 479.75 179.78C479.75 179.59 479.75 178.07 479.75 177.88C479.01 177.9 478.39 177.96 477.87 178.06C477.35 178.15 476.93 178.27 476.61 178.42C476.29 178.57 476.05 178.75 475.9 178.95C475.75 179.15 475.68 179.38 475.68 179.63C475.68 179.87 475.72 180.08 475.8 180.25C475.88 180.43 475.98 180.57 476.11 180.69C476.25 180.79 476.4 180.88 476.58 180.93C476.76 180.98 476.96 181 477.17 181C477.45 181 477.71 180.97 477.94 180.92Z" id="b3SUXBUMgD"></path><path d="M156.08 53.05C156.62 53.28 157.07 53.59 157.45 54C157.83 54.41 158.12 54.9 158.31 55.48C158.52 56.06 158.62 56.71 158.62 57.42C158.62 58.14 158.52 58.79 158.31 59.36C158.12 59.94 157.83 60.43 157.45 60.84C157.07 61.25 156.62 61.56 156.08 61.78C155.55 62 154.95 62.11 154.28 62.11C153.61 62.11 153 62 152.46 61.78C151.93 61.56 151.47 61.25 151.1 60.84C150.72 60.43 150.43 59.94 150.22 59.36C150.02 58.79 149.93 58.14 149.93 57.42C149.93 56.71 150.02 56.06 150.22 55.48C150.43 54.9 150.72 54.41 151.1 54C151.47 53.59 151.93 53.28 152.46 53.05C153 52.83 153.61 52.72 154.28 52.72C154.95 52.72 155.55 52.83 156.08 53.05ZM156.3 59.96C156.74 59.35 156.96 58.51 156.96 57.43C156.96 56.34 156.74 55.5 156.3 54.89C155.85 54.28 155.18 53.98 154.28 53.98C153.83 53.98 153.43 54.06 153.08 54.22C152.75 54.37 152.47 54.6 152.24 54.89C152.02 55.18 151.85 55.55 151.73 55.98C151.63 56.41 151.57 56.89 151.57 57.43C151.57 58.51 151.79 59.35 152.24 59.96C152.69 60.56 153.37 60.86 154.28 60.86C155.18 60.86 155.85 60.56 156.3 59.96ZM168.15 61.98C167.58 61.98 167.26 61.98 167.19 61.98C166.97 61.98 166.82 61.87 166.76 61.65C166.75 61.55 166.65 60.77 166.64 60.67C166.24 61.11 165.8 61.46 165.3 61.73C164.81 61.99 164.25 62.13 163.61 62.13C163.11 62.13 162.67 62.05 162.29 61.88C161.91 61.72 161.59 61.48 161.34 61.18C161.08 60.88 160.88 60.52 160.75 60.09C160.62 59.67 160.56 59.2 160.56 58.68C160.56 58.29 160.56 56.35 160.56 52.87L162.16 52.87C162.16 56.35 162.16 58.29 162.16 58.68C162.16 59.37 162.32 59.9 162.63 60.28C162.95 60.66 163.43 60.85 164.08 60.85C164.55 60.85 165 60.74 165.4 60.52C165.82 60.29 166.2 59.98 166.55 59.58C166.55 59.13 166.55 56.89 166.55 52.87L168.15 52.87L168.15 61.98Z" id="a1Jqwp1iSq"></path><path d="M314.08 56.05C314.62 56.28 315.07 56.59 315.45 57C315.83 57.41 316.12 57.9 316.31 58.48C316.52 59.06 316.62 59.71 316.62 60.42C316.62 61.14 316.52 61.79 316.31 62.36C316.12 62.94 315.83 63.43 315.45 63.84C315.07 64.25 314.62 64.56 314.08 64.78C313.55 65 312.95 65.11 312.28 65.11C311.61 65.11 311 65 310.46 64.78C309.93 64.56 309.47 64.25 309.1 63.84C308.72 63.43 308.43 62.94 308.22 62.36C308.02 61.79 307.93 61.14 307.93 60.42C307.93 59.71 308.02 59.06 308.22 58.48C308.43 57.9 308.72 57.41 309.1 57C309.47 56.59 309.93 56.28 310.46 56.05C311 55.83 311.61 55.72 312.28 55.72C312.95 55.72 313.55 55.83 314.08 56.05ZM314.3 62.96C314.74 62.35 314.96 61.51 314.96 60.43C314.96 59.34 314.74 58.5 314.3 57.89C313.85 57.28 313.18 56.98 312.28 56.98C311.83 56.98 311.43 57.06 311.08 57.22C310.75 57.37 310.47 57.6 310.24 57.89C310.02 58.18 309.85 58.55 309.73 58.98C309.63 59.41 309.57 59.89 309.57 60.43C309.57 61.51 309.79 62.35 310.24 62.96C310.69 63.56 311.37 63.86 312.28 63.86C313.18 63.86 313.85 63.56 314.3 62.96ZM326.15 64.98C325.58 64.98 325.26 64.98 325.19 64.98C324.97 64.98 324.82 64.87 324.76 64.65C324.75 64.55 324.65 63.77 324.64 63.67C324.24 64.11 323.8 64.46 323.3 64.73C322.81 64.99 322.25 65.13 321.61 65.13C321.11 65.13 320.67 65.05 320.29 64.88C319.91 64.72 319.59 64.48 319.34 64.18C319.08 63.88 318.88 63.52 318.75 63.09C318.62 62.67 318.56 62.2 318.56 61.68C318.56 61.29 318.56 59.35 318.56 55.87L320.16 55.87C320.16 59.35 320.16 61.29 320.16 61.68C320.16 62.37 320.32 62.9 320.63 63.28C320.95 63.66 321.43 63.85 322.08 63.85C322.55 63.85 323 63.74 323.4 63.52C323.82 63.29 324.2 62.98 324.55 62.58C324.55 62.13 324.55 59.89 324.55 55.87L326.15 55.87L326.15 64.98Z" id="a19q3a7YI"></path></defs><g><g><g><use xlink:href="#at9iclwz" opacity="1" fill="#4c0788" fill-opacity="1"></use><g><use xlink:href="#at9iclwz" opacity="1" fill-opacity="0" stroke="#000000" stroke-width="1" stroke-opacity="0"></use></g></g><g><use xlink:href="#b1hCFfqSTa" opacity="1" fill="#4c0788" fill-opacity="1"></use><g><use xlink:href="#b1hCFfqSTa" opacity="1" fill-opacity="0" stroke="#000000" stroke-width="1" stroke-opacity="0"></use></g></g><g><use xlink:href="#f9BmnzD2m" opacity="1" fill="#ffffff" fill-opacity="1"></use><g><use xlink:href="#f9BmnzD2m" opacity="1" fill-opacity="0" stroke="#000000" stroke-width="1" stroke-opacity="0"></use></g></g><g><use xlink:href="#b1ktVn8ZRi" opacity="1" fill="#4c0788" fill-opacity="1"></use><g><use xlink:href="#b1ktVn8ZRi" opacity="1" fill-opacity="0" stroke="#000000" stroke-width="1" stroke-opacity="0"></use></g></g><g><use xlink:href="#b2SGQNCYgm" opacity="1" fill="#ffffff" fill-opacity="1"></use><g><use xlink:href="#b2SGQNCYgm" opacity="1" fill-opacity="0" stroke="#000000" stroke-width="1" stroke-opacity="0"></use></g></g><g><use xlink:href="#ac261ngh" opacity="1" fill="#ffffff" fill-opacity="1"></use><g><use xlink:href="#ac261ngh" opacity="1" fill-opacity="0" stroke="#000000" stroke-width="1" stroke-opacity="0"></use></g></g><g><use xlink:href="#f2Qx4n4Z0D" opacity="1" fill="#ffffff" fill-opacity="1"></use><g><use xlink:href="#f2Qx4n4Z0D" opacity="1" fill-opacity="0" stroke="#000000" stroke-width="1" stroke-opacity="0"></use></g></g><g><use xlink:href="#bE3MvY9YV" opacity="1" fill="#ffffff" fill-opacity="1"></use><g><use xlink:href="#bE3MvY9YV" opacity="1" fill-opacity="0" stroke="#000000" stroke-width="1" stroke-opacity="0"></use></g></g><g><use xlink:href="#bfcGOhBxO" opacity="1" fill="#4c0788" fill-opacity="1"></use><g><use xlink:href="#bfcGOhBxO" opacity="1" fill-opacity="0" stroke="#000000" stroke-width="1" stroke-opacity="0"></use></g></g><g><use xlink:href="#bSfuBNQKB" opacity="1" fill="#000000" fill-opacity="1"></use><g><use xlink:href="#bSfuBNQKB" opacity="1" fill-opacity="0" stroke="#000000" stroke-width="1" stroke-opacity="0"></use></g></g><g><use xlink:href="#b2A0O5HQcs" opacity="1" fill="#4c0788" fill-opacity="1"></use><g><use xlink:href="#b2A0O5HQcs" opacity="1" fill-opacity="0" stroke="#000000" stroke-width="1" stroke-opacity="0"></use></g></g><g><use xlink:href="#ldAYzo5rR" opacity="1" fill="#ffffff" fill-opacity="1"></use><g><use xlink:href="#ldAYzo5rR" opacity="1" fill-opacity="0" stroke="#000000" stroke-width="1" stroke-opacity="0"></use></g></g><g><use xlink:href="#b7aNMqZiQ" opacity="1" fill="#e81b13" fill-opacity="1"></use><g><use xlink:href="#b7aNMqZiQ" opacity="1" fill-opacity="0" stroke="#000000" stroke-width="1" stroke-opacity="0"></use></g></g><g><use xlink:href="#c12GPqiipQ" opacity="1" fill="#ffffff" fill-opacity="1"></use><g><use xlink:href="#c12GPqiipQ" opacity="1" fill-opacity="0" stroke="#000000" stroke-width="1" stroke-opacity="0"></use></g></g><g><use xlink:href="#c2wNRrxhv2" opacity="1" fill="#4c0788" fill-opacity="1"></use><g><use xlink:href="#c2wNRrxhv2" opacity="1" fill-opacity="0" stroke="#000000" stroke-width="1" stroke-opacity="0"></use></g></g><g><use xlink:href="#cI6OyeTZp" opacity="1" fill="#4c0788" fill-opacity="1"></use><g><use xlink:href="#cI6OyeTZp" opacity="1" fill-opacity="0" stroke="#4c0788" stroke-width="3" stroke-opacity="1"></use></g></g><g><use xlink:href="#b2uycUChCM" opacity="1" fill="#e81b13" fill-opacity="1"></use><g><use xlink:href="#b2uycUChCM" opacity="1" fill-opacity="0" stroke="#000000" stroke-width="1" stroke-opacity="0"></use></g></g><g><use xlink:href="#a3WuvBpPbe" opacity="1" fill="#e81b13" fill-opacity="1"></use><g><use xlink:href="#a3WuvBpPbe" opacity="1" fill-opacity="0" stroke="#000000" stroke-width="1" stroke-opacity="0"></use></g></g><g><use xlink:href="#bj9eKrB3S" opacity="1" fill="#e81b13" fill-opacity="1"></use><g><use xlink:href="#bj9eKrB3S" opacity="1" fill-opacity="0" stroke="#000000" stroke-width="1" stroke-opacity="0"></use></g></g><g><use xlink:href="#aiDkDX4BF" opacity="1" fill="#ffffff" fill-opacity="1"></use><g><use xlink:href="#aiDkDX4BF" opacity="1" fill-opacity="0" stroke="#4c0788" stroke-width="3" stroke-opacity="1"></use></g></g><g><use xlink:href="#b9xivXJT1r" opacity="1" fill="#4c0788" fill-opacity="1"></use><g><use xlink:href="#b9xivXJT1r" opacity="1" fill-opacity="0" stroke="#000000" stroke-width="1" stroke-opacity="0"></use></g></g><g><use xlink:href="#dJlVkng2" opacity="1" fill="#4c0788" fill-opacity="1"></use><g><use xlink:href="#dJlVkng2" opacity="1" fill-opacity="0" stroke="#000000" stroke-width="1" stroke-opacity="0"></use></g></g><g><use xlink:href="#b3SUXBUMgD" opacity="1" fill="#000000" fill-opacity="1"></use><g><use xlink:href="#b3SUXBUMgD" opacity="1" fill-opacity="0" stroke="#000000" stroke-width="1" stroke-opacity="0"></use></g></g><g><use xlink:href="#a1Jqwp1iSq" opacity="1" fill="#000000" fill-opacity="1"></use><g><use xlink:href="#a1Jqwp1iSq" opacity="1" fill-opacity="0" stroke="#000000" stroke-width="1" stroke-opacity="0"></use></g></g><g><use xlink:href="#a19q3a7YI" opacity="1" fill="#000000" fill-opacity="1"></use><g><use xlink:href="#a19q3a7YI" opacity="1" fill-opacity="0" stroke="#000000" stroke-width="1" stroke-opacity="0"></use></g></g></g></g></svg>