<svg width="110" height="110" viewBox="0 0 110 110" fill="none" xmlns="http://www.w3.org/2000/svg">
<path d="M33.5136 85.9821L33.5076 85.9688L33.5013 85.9556L28.8124 76.0812C29.6331 75.8476 30.4702 75.5321 31.2265 75.223C32.3896 74.7476 33.556 74.2015 34.4439 73.7857C34.7263 73.6535 34.9805 73.5345 35.1976 73.4351C35.1981 73.4348 35.1987 73.4345 35.1993 73.4343L40.8502 70.8633L45.3894 80.4498C46.7918 83.8868 45.3605 87.674 42.1774 89.2214C38.6703 90.762 34.9054 89.0669 33.5136 85.9821Z" fill="#4C0788" stroke="#4C0788" stroke-width="3"/>
<path d="M80.0518 19.1085C79.1921 18.7621 78.1604 19.2817 77.8165 20.1478L74.8934 28.4625C74.5495 29.3286 75.0653 30.3679 75.925 30.7144C76.7848 31.0608 77.8165 30.5411 78.1604 29.675L81.2554 21.1872C81.4274 20.3211 80.9115 19.455 80.0518 19.1085Z" fill="#E81B13"/>
<path d="M85.3818 38.5094L93.4633 34.6985C94.3231 34.3521 94.6669 33.3127 94.3231 32.4466C93.9792 31.5805 92.9475 31.2341 92.0877 31.5805L84.0062 35.3914C83.1464 35.7378 82.8025 36.7772 83.1464 37.6433C83.4903 38.6826 84.522 39.029 85.3818 38.5094Z" fill="#E81B13"/>
<path d="M94.3227 49.9423L85.8972 46.8243C85.0375 46.4779 84.0058 46.9976 83.6619 47.8637C83.318 48.7298 83.8339 49.7691 84.6936 50.1155L93.1191 53.2335C93.9788 53.58 95.0105 53.0603 95.3544 52.1942C95.6983 51.1549 95.3544 50.1155 94.3227 49.9423Z" fill="#E81B13"/>
<path d="M23.5618 54.1765L23.5788 54.1686L23.5957 54.1603L32.7875 49.6413L42.5976 67.8078L32.418 72.8124C26.7814 75.2384 20.7563 72.7714 18.4914 67.8402L18.4869 67.8305L18.4823 67.8208C16.0441 62.7064 18.3043 56.5996 23.5618 54.1765Z" fill="white" stroke="#4C0788" stroke-width="3"/>
<path d="M57.8699 27.0765C57.698 26.5569 57.1821 26.2104 56.6663 26.0372C56.1504 25.864 55.6346 26.0372 55.1187 26.3836L31.9058 48.556L42.7385 69.1694L73.8611 66.3978C74.3769 66.3978 74.8928 66.0514 75.0647 65.5317C75.4086 65.0121 75.4086 64.4924 75.0647 63.9727L57.8699 27.0765Z" fill="#4C0788"/>
<path d="M65.2646 34.5249L74.034 53.5793C74.8937 52.54 75.4096 51.5006 75.9254 50.2881C76.9571 47.3433 76.7852 44.2253 75.5815 41.2805C73.6901 37.2964 69.5633 34.5249 65.2646 34.5249Z" fill="#4C0788"/>
</svg>
