<svg width="124" height="163" viewBox="0 0 124 163" fill="none" xmlns="http://www.w3.org/2000/svg">
<path d="M46.8528 112.094V114.448H39.8018V118.859H45.3568V121.136H39.8018V125.635H46.8528V128H36.8208V112.094H46.8528ZM49.2567 128V116.714H50.9177C51.2697 116.714 51.5007 116.879 51.6107 117.209L51.7867 118.045C51.9847 117.825 52.19 117.623 52.4027 117.44C52.6227 117.257 52.8537 117.099 53.0957 116.967C53.345 116.835 53.609 116.732 53.8877 116.659C54.1737 116.578 54.4854 116.538 54.8227 116.538C55.534 116.538 56.117 116.732 56.5717 117.121C57.0337 117.502 57.3784 118.012 57.6057 118.65C57.7817 118.276 58.0017 117.957 58.2657 117.693C58.5297 117.422 58.8194 117.202 59.1347 117.033C59.45 116.864 59.7837 116.74 60.1357 116.659C60.495 116.578 60.8544 116.538 61.2137 116.538C61.837 116.538 62.3907 116.633 62.8747 116.824C63.3587 117.015 63.7657 117.293 64.0957 117.66C64.4257 118.027 64.675 118.474 64.8437 119.002C65.0197 119.53 65.1077 120.135 65.1077 120.817V128H62.3907V120.817C62.3907 120.098 62.233 119.559 61.9177 119.2C61.6024 118.833 61.1404 118.65 60.5317 118.65C60.253 118.65 59.9927 118.698 59.7507 118.793C59.516 118.888 59.307 119.028 59.1237 119.211C58.9477 119.387 58.8084 119.611 58.7057 119.882C58.603 120.153 58.5517 120.465 58.5517 120.817V128H55.8237V120.817C55.8237 120.062 55.6697 119.512 55.3617 119.167C55.061 118.822 54.6137 118.65 54.0197 118.65C53.631 118.65 53.2644 118.749 52.9197 118.947C52.5824 119.138 52.267 119.402 51.9737 119.739V128H49.2567ZM76.6202 128H75.3992C75.1426 128 74.9409 127.963 74.7942 127.89C74.6476 127.809 74.5376 127.652 74.4642 127.417L74.2222 126.614C73.9362 126.871 73.6539 127.098 73.3752 127.296C73.1039 127.487 72.8216 127.648 72.5282 127.78C72.2349 127.912 71.9232 128.011 71.5932 128.077C71.2632 128.143 70.8966 128.176 70.4932 128.176C70.0166 128.176 69.5766 128.114 69.1732 127.989C68.7699 127.857 68.4216 127.663 68.1282 127.406C67.8422 127.149 67.6186 126.83 67.4572 126.449C67.2959 126.068 67.2152 125.624 67.2152 125.118C67.2152 124.693 67.3252 124.275 67.5452 123.864C67.7726 123.446 68.1466 123.072 68.6672 122.742C69.1879 122.405 69.8809 122.126 70.7462 121.906C71.6116 121.686 72.6859 121.561 73.9692 121.532V120.872C73.9692 120.117 73.8079 119.559 73.4852 119.2C73.1699 118.833 72.7079 118.65 72.0992 118.65C71.6592 118.65 71.2926 118.701 70.9992 118.804C70.7059 118.907 70.4492 119.024 70.2292 119.156C70.0166 119.281 69.8186 119.394 69.6352 119.497C69.4519 119.6 69.2502 119.651 69.0302 119.651C68.8469 119.651 68.6892 119.603 68.5572 119.508C68.4252 119.413 68.3189 119.295 68.2382 119.156L67.7432 118.287C69.0412 117.099 70.6069 116.505 72.4402 116.505C73.1002 116.505 73.6869 116.615 74.2002 116.835C74.7209 117.048 75.1609 117.348 75.5202 117.737C75.8796 118.118 76.1509 118.577 76.3342 119.112C76.5249 119.647 76.6202 120.234 76.6202 120.872V128ZM71.3402 126.306C71.6189 126.306 71.8756 126.28 72.1102 126.229C72.3449 126.178 72.5649 126.101 72.7702 125.998C72.9829 125.895 73.1846 125.771 73.3752 125.624C73.5732 125.47 73.7712 125.29 73.9692 125.085V123.182C73.1772 123.219 72.5136 123.288 71.9782 123.391C71.4502 123.486 71.0249 123.611 70.7022 123.765C70.3796 123.919 70.1486 124.099 70.0092 124.304C69.8772 124.509 69.8112 124.733 69.8112 124.975C69.8112 125.452 69.9506 125.793 70.2292 125.998C70.5152 126.203 70.8856 126.306 71.3402 126.306ZM82.1848 116.714V128H79.4678V116.714H82.1848ZM82.5918 113.425C82.5918 113.66 82.5442 113.88 82.4488 114.085C82.3535 114.29 82.2252 114.47 82.0638 114.624C81.9098 114.778 81.7265 114.903 81.5138 114.998C81.3012 115.086 81.0738 115.13 80.8318 115.13C80.5972 115.13 80.3735 115.086 80.1608 114.998C79.9555 114.903 79.7758 114.778 79.6218 114.624C79.4678 114.47 79.3432 114.29 79.2478 114.085C79.1598 113.88 79.1158 113.66 79.1158 113.425C79.1158 113.183 79.1598 112.956 79.2478 112.743C79.3432 112.53 79.4678 112.347 79.6218 112.193C79.7758 112.039 79.9555 111.918 80.1608 111.83C80.3735 111.735 80.5972 111.687 80.8318 111.687C81.0738 111.687 81.3012 111.735 81.5138 111.83C81.7265 111.918 81.9098 112.039 82.0638 112.193C82.2252 112.347 82.3535 112.53 82.4488 112.743C82.5442 112.956 82.5918 113.183 82.5918 113.425ZM88.1575 111.654V128H85.4405V111.654H88.1575Z" fill="#4C0788"/>
<path d="M3.54563 147.103H4.94063C5.09663 147.103 5.22263 147.142 5.31863 147.22C5.41463 147.298 5.48663 147.397 5.53463 147.517L9.17963 156.616C9.26363 156.82 9.33863 157.042 9.40463 157.282C9.47663 157.522 9.54563 157.771 9.61163 158.029C9.66563 157.771 9.72263 157.522 9.78263 157.282C9.84863 157.042 9.92363 156.82 10.0076 156.616L13.6346 147.517C13.6766 147.415 13.7486 147.322 13.8506 147.238C13.9526 147.148 14.0786 147.103 14.2286 147.103H15.6326L10.3766 160H8.80163L3.54563 147.103ZM18.804 150.883V160H17.202V150.883H18.804ZM19.164 148.021C19.164 148.177 19.131 148.324 19.065 148.462C19.005 148.594 18.921 148.714 18.813 148.822C18.711 148.924 18.591 149.005 18.453 149.065C18.315 149.125 18.168 149.155 18.012 149.155C17.856 149.155 17.709 149.125 17.571 149.065C17.439 149.005 17.319 148.924 17.211 148.822C17.109 148.714 17.028 148.594 16.968 148.462C16.908 148.324 16.878 148.177 16.878 148.021C16.878 147.865 16.908 147.718 16.968 147.58C17.028 147.436 17.109 147.313 17.211 147.211C17.319 147.103 17.439 147.019 17.571 146.959C17.709 146.899 17.856 146.869 18.012 146.869C18.168 146.869 18.315 146.899 18.453 146.959C18.591 147.019 18.711 147.103 18.813 147.211C18.921 147.313 19.005 147.436 19.065 147.58C19.131 147.718 19.164 147.865 19.164 148.021ZM26.8475 152.386C26.7755 152.518 26.6645 152.584 26.5145 152.584C26.4245 152.584 26.3225 152.551 26.2085 152.485C26.0945 152.419 25.9535 152.347 25.7855 152.269C25.6235 152.185 25.4285 152.11 25.2005 152.044C24.9725 151.972 24.7025 151.936 24.3905 151.936C24.1205 151.936 23.8775 151.972 23.6615 152.044C23.4455 152.11 23.2595 152.203 23.1035 152.323C22.9535 152.443 22.8365 152.584 22.7525 152.746C22.6745 152.902 22.6355 153.073 22.6355 153.259C22.6355 153.493 22.7015 153.688 22.8335 153.844C22.9715 154 23.1515 154.135 23.3735 154.249C23.5955 154.363 23.8475 154.465 24.1295 154.555C24.4115 154.639 24.6995 154.732 24.9935 154.834C25.2935 154.93 25.5845 155.038 25.8665 155.158C26.1485 155.278 26.4005 155.428 26.6225 155.608C26.8445 155.788 27.0215 156.01 27.1535 156.274C27.2915 156.532 27.3605 156.844 27.3605 157.21C27.3605 157.63 27.2855 158.02 27.1355 158.38C26.9855 158.734 26.7635 159.043 26.4695 159.307C26.1755 159.565 25.8155 159.769 25.3895 159.919C24.9635 160.069 24.4715 160.144 23.9135 160.144C23.2775 160.144 22.7015 160.042 22.1855 159.838C21.6695 159.628 21.2315 159.361 20.8715 159.037L21.2495 158.425C21.2975 158.347 21.3545 158.287 21.4205 158.245C21.4865 158.203 21.5735 158.182 21.6815 158.182C21.7895 158.182 21.9035 158.224 22.0235 158.308C22.1435 158.392 22.2875 158.485 22.4555 158.587C22.6295 158.689 22.8365 158.782 23.0765 158.866C23.3225 158.95 23.6285 158.992 23.9945 158.992C24.3065 158.992 24.5795 158.953 24.8135 158.875C25.0475 158.791 25.2425 158.68 25.3985 158.542C25.5545 158.404 25.6685 158.245 25.7405 158.065C25.8185 157.885 25.8575 157.693 25.8575 157.489C25.8575 157.237 25.7885 157.03 25.6505 156.868C25.5185 156.7 25.3415 156.559 25.1195 156.445C24.8975 156.325 24.6425 156.223 24.3545 156.139C24.0725 156.049 23.7815 155.956 23.4815 155.86C23.1875 155.764 22.8965 155.656 22.6085 155.536C22.3265 155.41 22.0745 155.254 21.8525 155.068C21.6305 154.882 21.4505 154.654 21.3125 154.384C21.1805 154.108 21.1145 153.775 21.1145 153.385C21.1145 153.037 21.1865 152.704 21.3305 152.386C21.4745 152.062 21.6845 151.78 21.9605 151.54C22.2365 151.294 22.5755 151.099 22.9775 150.955C23.3795 150.811 23.8385 150.739 24.3545 150.739C24.9545 150.739 25.4915 150.835 25.9655 151.027C26.4455 151.213 26.8595 151.471 27.2075 151.801L26.8475 152.386ZM31.2142 150.883V160H29.6122V150.883H31.2142ZM31.5742 148.021C31.5742 148.177 31.5412 148.324 31.4752 148.462C31.4152 148.594 31.3312 148.714 31.2232 148.822C31.1212 148.924 31.0012 149.005 30.8632 149.065C30.7252 149.125 30.5782 149.155 30.4222 149.155C30.2662 149.155 30.1192 149.125 29.9812 149.065C29.8492 149.005 29.7292 148.924 29.6212 148.822C29.5192 148.714 29.4382 148.594 29.3782 148.462C29.3182 148.324 29.2882 148.177 29.2882 148.021C29.2882 147.865 29.3182 147.718 29.3782 147.58C29.4382 147.436 29.5192 147.313 29.6212 147.211C29.7292 147.103 29.8492 147.019 29.9812 146.959C30.1192 146.899 30.2662 146.869 30.4222 146.869C30.5782 146.869 30.7252 146.899 30.8632 146.959C31.0012 147.019 31.1212 147.103 31.2232 147.211C31.3312 147.313 31.4152 147.436 31.4752 147.58C31.5412 147.718 31.5742 147.865 31.5742 148.021ZM36.8006 160.144C36.0806 160.144 35.5256 159.943 35.1356 159.541C34.7516 159.139 34.5596 158.56 34.5596 157.804V152.224H33.4616C33.3656 152.224 33.2846 152.197 33.2186 152.143C33.1526 152.083 33.1196 151.993 33.1196 151.873V151.234L34.6136 151.045L34.9826 148.228C34.9946 148.138 35.0336 148.066 35.0996 148.012C35.1656 147.952 35.2496 147.922 35.3516 147.922H36.1616V151.063H38.7716V152.224H36.1616V157.696C36.1616 158.08 36.2546 158.365 36.4406 158.551C36.6266 158.737 36.8666 158.83 37.1606 158.83C37.3286 158.83 37.4726 158.809 37.5926 158.767C37.7186 158.719 37.8266 158.668 37.9166 158.614C38.0066 158.56 38.0816 158.512 38.1416 158.47C38.2076 158.422 38.2646 158.398 38.3126 158.398C38.3966 158.398 38.4716 158.449 38.5376 158.551L39.0056 159.316C38.7296 159.574 38.3966 159.778 38.0066 159.928C37.6166 160.072 37.2146 160.144 36.8006 160.144ZM44.3615 150.739C44.9075 150.739 45.4115 150.832 45.8735 151.018C46.3355 151.198 46.7345 151.462 47.0705 151.81C47.4065 152.152 47.6675 152.578 47.8535 153.088C48.0455 153.592 48.1415 154.168 48.1415 154.816C48.1415 155.068 48.1145 155.236 48.0605 155.32C48.0065 155.404 47.9045 155.446 47.7545 155.446H41.6885C41.7005 156.022 41.7785 156.523 41.9225 156.949C42.0665 157.375 42.2645 157.732 42.5165 158.02C42.7685 158.302 43.0685 158.515 43.4165 158.659C43.7645 158.797 44.1545 158.866 44.5865 158.866C44.9885 158.866 45.3335 158.821 45.6215 158.731C45.9155 158.635 46.1675 158.533 46.3775 158.425C46.5875 158.317 46.7615 158.218 46.8995 158.128C47.0435 158.032 47.1665 157.984 47.2685 157.984C47.4005 157.984 47.5025 158.035 47.5745 158.137L48.0245 158.722C47.8265 158.962 47.5895 159.172 47.3135 159.352C47.0375 159.526 46.7405 159.67 46.4225 159.784C46.1105 159.898 45.7865 159.982 45.4505 160.036C45.1145 160.096 44.7815 160.126 44.4515 160.126C43.8215 160.126 43.2395 160.021 42.7055 159.811C42.1775 159.595 41.7185 159.283 41.3285 158.875C40.9445 158.461 40.6445 157.951 40.4285 157.345C40.2125 156.739 40.1045 156.043 40.1045 155.257C40.1045 154.621 40.2005 154.027 40.3925 153.475C40.5905 152.923 40.8725 152.446 41.2385 152.044C41.6045 151.636 42.0515 151.318 42.5795 151.09C43.1075 150.856 43.7015 150.739 44.3615 150.739ZM44.3975 151.918C43.6235 151.918 43.0145 152.143 42.5705 152.593C42.1265 153.037 41.8505 153.655 41.7425 154.447H46.7015C46.7015 154.075 46.6505 153.736 46.5485 153.43C46.4465 153.118 46.2965 152.851 46.0985 152.629C45.9005 152.401 45.6575 152.227 45.3695 152.107C45.0875 151.981 44.7635 151.918 44.3975 151.918ZM53.4384 160V150.667H55.1664C55.3404 150.667 55.4844 150.706 55.5984 150.784C55.7184 150.862 55.8024 150.979 55.8504 151.135L56.0124 151.675C56.1924 151.507 56.3784 151.351 56.5704 151.207C56.7624 151.063 56.9664 150.943 57.1824 150.847C57.4044 150.745 57.6414 150.667 57.8934 150.613C58.1514 150.553 58.4304 150.523 58.7304 150.523C59.2404 150.523 59.6904 150.613 60.0804 150.793C60.4764 150.967 60.8094 151.213 61.0794 151.531C61.3494 151.843 61.5534 152.218 61.6914 152.656C61.8294 153.088 61.8984 153.559 61.8984 154.069V160H59.1084V154.069C59.1084 153.613 59.0034 153.259 58.7934 153.007C58.5834 152.749 58.2744 152.62 57.8664 152.62C57.5604 152.62 57.2724 152.686 57.0024 152.818C56.7324 152.95 56.4744 153.127 56.2284 153.349V160H53.4384ZM70.3238 160C70.0598 160 69.8588 159.964 69.7208 159.892C69.5888 159.82 69.4778 159.67 69.3878 159.442L69.1898 158.929C68.9558 159.127 68.7308 159.301 68.5148 159.451C68.2988 159.601 68.0738 159.73 67.8398 159.838C67.6118 159.94 67.3658 160.015 67.1018 160.063C66.8438 160.117 66.5558 160.144 66.2378 160.144C65.8118 160.144 65.4248 160.09 65.0768 159.982C64.7288 159.868 64.4318 159.703 64.1858 159.487C63.9458 159.271 63.7598 159.004 63.6278 158.686C63.4958 158.362 63.4298 157.99 63.4298 157.57C63.4298 157.24 63.5138 156.901 63.6818 156.553C63.8498 156.205 64.1408 155.89 64.5548 155.608C64.9688 155.32 65.5268 155.08 66.2288 154.888C66.9308 154.696 67.8158 154.588 68.8838 154.564V154.168C68.8838 153.622 68.7698 153.229 68.5418 152.989C68.3198 152.743 68.0018 152.62 67.5878 152.62C67.2578 152.62 66.9878 152.656 66.7778 152.728C66.5678 152.8 66.3788 152.881 66.2108 152.971C66.0488 153.061 65.8898 153.142 65.7338 153.214C65.5778 153.286 65.3918 153.322 65.1758 153.322C64.9838 153.322 64.8188 153.277 64.6808 153.187C64.5488 153.091 64.4438 152.974 64.3658 152.836L63.8618 151.963C64.4258 151.465 65.0498 151.096 65.7338 150.856C66.4238 150.61 67.1618 150.487 67.9478 150.487C68.5118 150.487 69.0188 150.58 69.4688 150.766C69.9248 150.946 70.3088 151.201 70.6208 151.531C70.9388 151.855 71.1818 152.242 71.3498 152.692C71.5178 153.142 71.6018 153.634 71.6018 154.168V160H70.3238ZM67.1198 158.299C67.4798 158.299 67.7948 158.236 68.0648 158.11C68.3348 157.984 68.6078 157.78 68.8838 157.498V156.202C68.3258 156.226 67.8668 156.274 67.5068 156.346C67.1468 156.418 66.8618 156.508 66.6518 156.616C66.4418 156.724 66.2948 156.847 66.2108 156.985C66.1328 157.123 66.0938 157.273 66.0938 157.435C66.0938 157.753 66.1808 157.978 66.3548 158.11C66.5288 158.236 66.7838 158.299 67.1198 158.299ZM73.9969 160V152.584L73.3849 152.458C73.1749 152.41 73.0039 152.335 72.8719 152.233C72.7459 152.131 72.6829 151.981 72.6829 151.783V150.685H73.9969V150.55C73.9969 149.986 74.0929 149.455 74.2849 148.957C74.4829 148.453 74.7859 148.018 75.1939 147.652C75.6019 147.28 76.1209 146.986 76.7509 146.77C77.3869 146.554 78.1429 146.446 79.0189 146.446C79.2889 146.446 79.5679 146.461 79.8559 146.491C80.1439 146.515 80.3929 146.554 80.6029 146.608L80.5129 148.021C80.5009 148.171 80.4259 148.27 80.2879 148.318C80.1499 148.366 80.0029 148.39 79.8469 148.39C79.2229 148.39 78.7069 148.438 78.2989 148.534C77.8909 148.63 77.5669 148.774 77.3269 148.966C77.0929 149.152 76.9279 149.386 76.8319 149.668C76.7419 149.95 76.6969 150.274 76.6969 150.64V150.685H82.6189V160H79.8289V152.593H76.7869V160H73.9969ZM87.7832 146.527V160H84.9932V146.527H87.7832ZM96.4801 160C96.2161 160 96.0151 159.964 95.8771 159.892C95.7451 159.82 95.6341 159.67 95.5441 159.442L95.3461 158.929C95.1121 159.127 94.8871 159.301 94.6711 159.451C94.4551 159.601 94.2301 159.73 93.9961 159.838C93.7681 159.94 93.5221 160.015 93.2581 160.063C93.0001 160.117 92.7121 160.144 92.3941 160.144C91.9681 160.144 91.5811 160.09 91.2331 159.982C90.8851 159.868 90.5881 159.703 90.3421 159.487C90.1021 159.271 89.9161 159.004 89.7841 158.686C89.6521 158.362 89.5861 157.99 89.5861 157.57C89.5861 157.24 89.6701 156.901 89.8381 156.553C90.0061 156.205 90.2971 155.89 90.7111 155.608C91.1251 155.32 91.6831 155.08 92.3851 154.888C93.0871 154.696 93.9721 154.588 95.0401 154.564V154.168C95.0401 153.622 94.9261 153.229 94.6981 152.989C94.4761 152.743 94.1581 152.62 93.7441 152.62C93.4141 152.62 93.1441 152.656 92.9341 152.728C92.7241 152.8 92.5351 152.881 92.3671 152.971C92.2051 153.061 92.0461 153.142 91.8901 153.214C91.7341 153.286 91.5481 153.322 91.3321 153.322C91.1401 153.322 90.9751 153.277 90.8371 153.187C90.7051 153.091 90.6001 152.974 90.5221 152.836L90.0181 151.963C90.5821 151.465 91.2061 151.096 91.8901 150.856C92.5801 150.61 93.3181 150.487 94.1041 150.487C94.6681 150.487 95.1751 150.58 95.6251 150.766C96.0811 150.946 96.4651 151.201 96.7771 151.531C97.0951 151.855 97.3381 152.242 97.5061 152.692C97.6741 153.142 97.7581 153.634 97.7581 154.168V160H96.4801ZM93.2761 158.299C93.6361 158.299 93.9511 158.236 94.2211 158.11C94.4911 157.984 94.7641 157.78 95.0401 157.498V156.202C94.4821 156.226 94.0231 156.274 93.6631 156.346C93.3031 156.418 93.0181 156.508 92.8081 156.616C92.5981 156.724 92.4511 156.847 92.3671 156.985C92.2891 157.123 92.2501 157.273 92.2501 157.435C92.2501 157.753 92.3371 157.978 92.5111 158.11C92.6851 158.236 92.9401 158.299 93.2761 158.299ZM99.1992 158.587C99.1992 158.371 99.2382 158.17 99.3162 157.984C99.4002 157.798 99.5112 157.636 99.6492 157.498C99.7932 157.36 99.9612 157.252 100.153 157.174C100.345 157.09 100.555 157.048 100.783 157.048C101.005 157.048 101.212 157.09 101.404 157.174C101.596 157.252 101.764 157.36 101.908 157.498C102.052 157.636 102.163 157.798 102.241 157.984C102.325 158.17 102.367 158.371 102.367 158.587C102.367 158.803 102.325 159.007 102.241 159.199C102.163 159.385 102.052 159.547 101.908 159.685C101.764 159.823 101.596 159.931 101.404 160.009C101.212 160.087 101.005 160.126 100.783 160.126C100.555 160.126 100.345 160.087 100.153 160.009C99.9612 159.931 99.7932 159.823 99.6492 159.685C99.5112 159.547 99.4002 159.385 99.3162 159.199C99.2382 159.007 99.1992 158.803 99.1992 158.587ZM103.993 162.961V150.667H105.721C105.895 150.667 106.039 150.706 106.153 150.784C106.273 150.862 106.357 150.979 106.405 151.135L106.612 151.819C106.792 151.621 106.984 151.441 107.188 151.279C107.398 151.117 107.62 150.979 107.854 150.865C108.094 150.745 108.349 150.652 108.619 150.586C108.895 150.52 109.195 150.487 109.519 150.487C110.005 150.487 110.455 150.595 110.869 150.811C111.283 151.027 111.64 151.339 111.94 151.747C112.24 152.155 112.474 152.656 112.642 153.25C112.816 153.838 112.903 154.507 112.903 155.257C112.903 155.959 112.804 156.607 112.606 157.201C112.414 157.795 112.141 158.311 111.787 158.749C111.439 159.187 111.019 159.529 110.527 159.775C110.041 160.021 109.501 160.144 108.907 160.144C108.421 160.144 108.013 160.075 107.683 159.937C107.353 159.799 107.053 159.613 106.783 159.379V162.961H103.993ZM108.547 152.62C108.343 152.62 108.157 152.641 107.989 152.683C107.827 152.719 107.674 152.773 107.53 152.845C107.392 152.917 107.263 153.01 107.143 153.124C107.023 153.232 106.903 153.358 106.783 153.502V157.462C106.993 157.696 107.221 157.861 107.467 157.957C107.713 158.047 107.971 158.092 108.241 158.092C108.499 158.092 108.736 158.041 108.952 157.939C109.168 157.837 109.354 157.675 109.51 157.453C109.672 157.225 109.798 156.931 109.888 156.571C109.978 156.211 110.023 155.773 110.023 155.257C110.023 154.765 109.987 154.351 109.915 154.015C109.843 153.679 109.741 153.409 109.609 153.205C109.483 152.995 109.33 152.845 109.15 152.755C108.97 152.665 108.769 152.62 108.547 152.62ZM117.675 160.144C117.231 160.144 116.838 160.081 116.496 159.955C116.16 159.823 115.875 159.64 115.641 159.406C115.413 159.166 115.239 158.878 115.119 158.542C114.999 158.206 114.939 157.831 114.939 157.417V152.593H114.147C114.003 152.593 113.88 152.548 113.778 152.458C113.676 152.362 113.625 152.224 113.625 152.044V150.955L115.11 150.667L115.659 148.39C115.731 148.102 115.935 147.958 116.271 147.958H117.729V150.685H119.997V152.593H117.729V157.228C117.729 157.444 117.78 157.624 117.882 157.768C117.99 157.906 118.143 157.975 118.341 157.975C118.443 157.975 118.527 157.966 118.593 157.948C118.665 157.924 118.725 157.9 118.773 157.876C118.827 157.846 118.875 157.822 118.917 157.804C118.965 157.78 119.019 157.768 119.079 157.768C119.163 157.768 119.229 157.789 119.277 157.831C119.331 157.867 119.385 157.927 119.439 158.011L120.285 159.334C119.925 159.604 119.52 159.808 119.07 159.946C118.62 160.078 118.155 160.144 117.675 160.144Z" fill="black"/>
<path d="M27.9504 30.7943H96.5461C98.2057 30.7943 99.4965 32.0851 99.4965 33.7447V75.0496C99.4965 76.7092 98.2057 78 96.5461 78H27.9504C26.2908 78 25 76.7092 25 75.0496V33.7447C25 32.0851 26.2908 30.7943 27.9504 30.7943Z" fill="#4C0788"/>
<path fill-rule="evenodd" clip-rule="evenodd" d="M29.9787 33.7447C28.2577 33.7447 27.4586 35.9575 28.8109 37.0638L59.7896 61.4657C61.1418 62.5106 62.9858 62.5106 64.3381 61.4657L95.6241 37.0638C96.9764 35.9575 96.2388 33.7447 94.5177 33.7447H29.9787Z" fill="white"/>
<path fill-rule="evenodd" clip-rule="evenodd" d="M96.9149 42.2269C101.402 42.2269 105.028 38.6005 105.028 34.1135C105.028 29.6265 101.402 26 96.9149 26C92.4279 26 88.8014 29.6265 88.8014 34.1135C88.8014 38.6005 92.4279 42.2269 96.9149 42.2269Z" fill="#E81B13"/>
<path fill-rule="evenodd" clip-rule="evenodd" d="M96.9149 36.695C98.3286 36.695 99.4965 35.5272 99.4965 34.1135C99.4965 32.6998 98.3286 31.5319 96.9149 31.5319C95.5012 31.5319 94.3334 32.6998 94.3334 34.1135C94.3334 35.5272 95.5012 36.695 96.9149 36.695Z" fill="white"/>
</svg>
