<svg width="181" height="185" viewBox="0 0 181 185" fill="none" xmlns="http://www.w3.org/2000/svg">
<path d="M9.66384 93.094C9.79584 93.094 9.90584 93.1013 9.99384 93.116C10.0818 93.1233 10.1588 93.1453 10.2248 93.182C10.2982 93.2113 10.3678 93.259 10.4338 93.325C10.4998 93.3837 10.5732 93.4643 10.6538 93.567L19.0028 104.204C18.9735 103.947 18.9515 103.698 18.9368 103.456C18.9295 103.207 18.9258 102.976 18.9258 102.763V93.094H21.5328V109H20.0038C19.7692 109 19.5748 108.963 19.4208 108.89C19.2668 108.817 19.1165 108.685 18.9698 108.494L10.6538 97.901C10.6758 98.1357 10.6905 98.3703 10.6978 98.605C10.7125 98.8323 10.7198 99.0413 10.7198 99.232V109H8.11284V93.094H9.66384ZM29.4057 97.538C30.2491 97.538 31.0117 97.6737 31.6937 97.945C32.3831 98.2163 32.9697 98.6013 33.4537 99.1C33.9377 99.5987 34.3117 100.207 34.5757 100.926C34.8397 101.645 34.9717 102.448 34.9717 103.335C34.9717 104.23 34.8397 105.036 34.5757 105.755C34.3117 106.474 33.9377 107.086 33.4537 107.592C32.9697 108.098 32.3831 108.487 31.6937 108.758C31.0117 109.029 30.2491 109.165 29.4057 109.165C28.5624 109.165 27.7961 109.029 27.1067 108.758C26.4174 108.487 25.8271 108.098 25.3357 107.592C24.8517 107.086 24.4741 106.474 24.2027 105.755C23.9387 105.036 23.8067 104.23 23.8067 103.335C23.8067 102.448 23.9387 101.645 24.2027 100.926C24.4741 100.207 24.8517 99.5987 25.3357 99.1C25.8271 98.6013 26.4174 98.2163 27.1067 97.945C27.7961 97.6737 28.5624 97.538 29.4057 97.538ZM29.4057 107.075C30.3444 107.075 31.0374 106.76 31.4847 106.129C31.9394 105.498 32.1667 104.574 32.1667 103.357C32.1667 102.14 31.9394 101.212 31.4847 100.574C31.0374 99.936 30.3444 99.617 29.4057 99.617C28.4524 99.617 27.7484 99.9397 27.2937 100.585C26.8391 101.223 26.6117 102.147 26.6117 103.357C26.6117 104.567 26.8391 105.491 27.2937 106.129C27.7484 106.76 28.4524 107.075 29.4057 107.075ZM37.0916 109V97.714H38.7526C39.1046 97.714 39.3356 97.879 39.4456 98.209L39.6216 99.045C39.8196 98.825 40.025 98.6233 40.2376 98.44C40.4576 98.2567 40.6886 98.099 40.9306 97.967C41.18 97.835 41.444 97.7323 41.7226 97.659C42.0086 97.5783 42.3203 97.538 42.6576 97.538C43.369 97.538 43.952 97.7323 44.4066 98.121C44.8686 98.5023 45.2133 99.012 45.4406 99.65C45.6166 99.276 45.8366 98.957 46.1006 98.693C46.3646 98.4217 46.6543 98.2017 46.9696 98.033C47.285 97.8643 47.6186 97.7397 47.9706 97.659C48.33 97.5783 48.6893 97.538 49.0486 97.538C49.672 97.538 50.2256 97.6333 50.7096 97.824C51.1936 98.0147 51.6006 98.2933 51.9306 98.66C52.2606 99.0267 52.51 99.474 52.6786 100.002C52.8546 100.53 52.9426 101.135 52.9426 101.817V109H50.2256V101.817C50.2256 101.098 50.068 100.559 49.7526 100.2C49.4373 99.8333 48.9753 99.65 48.3666 99.65C48.088 99.65 47.8276 99.6977 47.5856 99.793C47.351 99.8883 47.142 100.028 46.9586 100.211C46.7826 100.387 46.6433 100.611 46.5406 100.882C46.438 101.153 46.3866 101.465 46.3866 101.817V109H43.6586V101.817C43.6586 101.062 43.5046 100.512 43.1966 100.167C42.896 99.8223 42.4486 99.65 41.8546 99.65C41.466 99.65 41.0993 99.749 40.7546 99.947C40.4173 100.138 40.102 100.402 39.8086 100.739V109H37.0916ZM60.2752 97.538C60.9865 97.538 61.6392 97.6517 62.2332 97.879C62.8345 98.1063 63.3515 98.44 63.7842 98.88C64.2168 99.3127 64.5542 99.848 64.7962 100.486C65.0382 101.117 65.1592 101.839 65.1592 102.653C65.1592 102.858 65.1482 103.031 65.1262 103.17C65.1115 103.302 65.0785 103.408 65.0272 103.489C64.9832 103.562 64.9208 103.617 64.8402 103.654C64.7595 103.683 64.6568 103.698 64.5322 103.698H57.5582C57.6388 104.857 57.9505 105.707 58.4932 106.25C59.0358 106.793 59.7545 107.064 60.6492 107.064C61.0892 107.064 61.4668 107.013 61.7822 106.91C62.1048 106.807 62.3835 106.694 62.6182 106.569C62.8602 106.444 63.0692 106.331 63.2452 106.228C63.4285 106.125 63.6045 106.074 63.7732 106.074C63.8832 106.074 63.9785 106.096 64.0592 106.14C64.1398 106.184 64.2095 106.246 64.2682 106.327L65.0602 107.317C64.7595 107.669 64.4222 107.966 64.0482 108.208C63.6742 108.443 63.2818 108.633 62.8712 108.78C62.4678 108.919 62.0535 109.018 61.6282 109.077C61.2102 109.136 60.8032 109.165 60.4072 109.165C59.6225 109.165 58.8928 109.037 58.2182 108.78C57.5435 108.516 56.9568 108.131 56.4582 107.625C55.9595 107.112 55.5672 106.481 55.2812 105.733C54.9952 104.978 54.8522 104.105 54.8522 103.115C54.8522 102.345 54.9768 101.623 55.2262 100.948C55.4755 100.266 55.8312 99.6757 56.2932 99.177C56.7625 98.671 57.3308 98.2713 57.9982 97.978C58.6728 97.6847 59.4318 97.538 60.2752 97.538ZM60.3302 99.485C59.5382 99.485 58.9185 99.7087 58.4712 100.156C58.0238 100.603 57.7378 101.238 57.6132 102.059H62.7172C62.7172 101.707 62.6695 101.377 62.5742 101.069C62.4788 100.754 62.3322 100.479 62.1342 100.244C61.9362 100.009 61.6868 99.826 61.3862 99.694C61.0855 99.5547 60.7335 99.485 60.3302 99.485ZM68.3091 109.033C68.2431 109.202 68.1588 109.348 68.0561 109.473C67.9535 109.598 67.8361 109.7 67.7041 109.781C67.5721 109.869 67.4328 109.935 67.2861 109.979C67.1395 110.023 66.9965 110.045 66.8571 110.045H65.7131L72.1371 93.611C72.2618 93.303 72.4415 93.0683 72.6761 92.907C72.9108 92.7383 73.1931 92.654 73.5231 92.654H74.6781L68.3091 109.033ZM87.2339 93.094V95.525H82.4489V109H79.4899V95.525H74.6829V93.094H87.2339ZM91.3846 97.538C92.0959 97.538 92.7486 97.6517 93.3426 97.879C93.9439 98.1063 94.4609 98.44 94.8936 98.88C95.3262 99.3127 95.6636 99.848 95.9056 100.486C96.1476 101.117 96.2686 101.839 96.2686 102.653C96.2686 102.858 96.2576 103.031 96.2356 103.17C96.2209 103.302 96.1879 103.408 96.1366 103.489C96.0926 103.562 96.0302 103.617 95.9496 103.654C95.8689 103.683 95.7662 103.698 95.6416 103.698H88.6676C88.7482 104.857 89.0599 105.707 89.6026 106.25C90.1452 106.793 90.8639 107.064 91.7586 107.064C92.1986 107.064 92.5762 107.013 92.8916 106.91C93.2142 106.807 93.4929 106.694 93.7276 106.569C93.9696 106.444 94.1786 106.331 94.3546 106.228C94.5379 106.125 94.7139 106.074 94.8826 106.074C94.9926 106.074 95.0879 106.096 95.1686 106.14C95.2492 106.184 95.3189 106.246 95.3776 106.327L96.1696 107.317C95.8689 107.669 95.5316 107.966 95.1576 108.208C94.7836 108.443 94.3912 108.633 93.9806 108.78C93.5772 108.919 93.1629 109.018 92.7376 109.077C92.3196 109.136 91.9126 109.165 91.5166 109.165C90.7319 109.165 90.0022 109.037 89.3276 108.78C88.6529 108.516 88.0662 108.131 87.5676 107.625C87.0689 107.112 86.6766 106.481 86.3906 105.733C86.1046 104.978 85.9616 104.105 85.9616 103.115C85.9616 102.345 86.0862 101.623 86.3356 100.948C86.5849 100.266 86.9406 99.6757 87.4026 99.177C87.8719 98.671 88.4402 98.2713 89.1076 97.978C89.7822 97.6847 90.5412 97.538 91.3846 97.538ZM91.4396 99.485C90.6476 99.485 90.0279 99.7087 89.5806 100.156C89.1332 100.603 88.8472 101.238 88.7226 102.059H93.8266C93.8266 101.707 93.7789 101.377 93.6836 101.069C93.5882 100.754 93.4416 100.479 93.2436 100.244C93.0456 100.009 92.7962 99.826 92.4956 99.694C92.1949 99.5547 91.8429 99.485 91.4396 99.485ZM101.366 92.654V109H98.6485V92.654H101.366ZM109.109 97.538C109.82 97.538 110.473 97.6517 111.067 97.879C111.668 98.1063 112.185 98.44 112.618 98.88C113.051 99.3127 113.388 99.848 113.63 100.486C113.872 101.117 113.993 101.839 113.993 102.653C113.993 102.858 113.982 103.031 113.96 103.17C113.945 103.302 113.912 103.408 113.861 103.489C113.817 103.562 113.755 103.617 113.674 103.654C113.593 103.683 113.491 103.698 113.366 103.698H106.392C106.473 104.857 106.784 105.707 107.327 106.25C107.87 106.793 108.588 107.064 109.483 107.064C109.923 107.064 110.301 107.013 110.616 106.91C110.939 106.807 111.217 106.694 111.452 106.569C111.694 106.444 111.903 106.331 112.079 106.228C112.262 106.125 112.438 106.074 112.607 106.074C112.717 106.074 112.812 106.096 112.893 106.14C112.974 106.184 113.043 106.246 113.102 106.327L113.894 107.317C113.593 107.669 113.256 107.966 112.882 108.208C112.508 108.443 112.116 108.633 111.705 108.78C111.302 108.919 110.887 109.018 110.462 109.077C110.044 109.136 109.637 109.165 109.241 109.165C108.456 109.165 107.727 109.037 107.052 108.78C106.377 108.516 105.791 108.131 105.292 107.625C104.793 107.112 104.401 106.481 104.115 105.733C103.829 104.978 103.686 104.105 103.686 103.115C103.686 102.345 103.811 101.623 104.06 100.948C104.309 100.266 104.665 99.6757 105.127 99.177C105.596 98.671 106.165 98.2713 106.832 97.978C107.507 97.6847 108.266 97.538 109.109 97.538ZM109.164 99.485C108.372 99.485 107.752 99.7087 107.305 100.156C106.858 100.603 106.572 101.238 106.447 102.059H111.551C111.551 101.707 111.503 101.377 111.408 101.069C111.313 100.754 111.166 100.479 110.968 100.244C110.77 100.009 110.521 99.826 110.22 99.694C109.919 99.5547 109.567 99.485 109.164 99.485ZM116.197 109V97.714H117.858C118.21 97.714 118.441 97.879 118.551 98.209L118.727 99.045C118.925 98.825 119.13 98.6233 119.343 98.44C119.563 98.2567 119.794 98.099 120.036 97.967C120.285 97.835 120.549 97.7323 120.828 97.659C121.114 97.5783 121.426 97.538 121.763 97.538C122.474 97.538 123.057 97.7323 123.512 98.121C123.974 98.5023 124.319 99.012 124.546 99.65C124.722 99.276 124.942 98.957 125.206 98.693C125.47 98.4217 125.76 98.2017 126.075 98.033C126.39 97.8643 126.724 97.7397 127.076 97.659C127.435 97.5783 127.795 97.538 128.154 97.538C128.777 97.538 129.331 97.6333 129.815 97.824C130.299 98.0147 130.706 98.2933 131.036 98.66C131.366 99.0267 131.615 99.474 131.784 100.002C131.96 100.53 132.048 101.135 132.048 101.817V109H129.331V101.817C129.331 101.098 129.173 100.559 128.858 100.2C128.543 99.8333 128.081 99.65 127.472 99.65C127.193 99.65 126.933 99.6977 126.691 99.793C126.456 99.8883 126.247 100.028 126.064 100.211C125.888 100.387 125.749 100.611 125.646 100.882C125.543 101.153 125.492 101.465 125.492 101.817V109H122.764V101.817C122.764 101.062 122.61 100.512 122.302 100.167C122.001 99.8223 121.554 99.65 120.96 99.65C120.571 99.65 120.205 99.749 119.86 99.947C119.523 100.138 119.207 100.402 118.914 100.739V109H116.197ZM139.535 97.538C140.378 97.538 141.141 97.6737 141.823 97.945C142.512 98.2163 143.099 98.6013 143.583 99.1C144.067 99.5987 144.441 100.207 144.705 100.926C144.969 101.645 145.101 102.448 145.101 103.335C145.101 104.23 144.969 105.036 144.705 105.755C144.441 106.474 144.067 107.086 143.583 107.592C143.099 108.098 142.512 108.487 141.823 108.758C141.141 109.029 140.378 109.165 139.535 109.165C138.691 109.165 137.925 109.029 137.236 108.758C136.546 108.487 135.956 108.098 135.465 107.592C134.981 107.086 134.603 106.474 134.332 105.755C134.068 105.036 133.936 104.23 133.936 103.335C133.936 102.448 134.068 101.645 134.332 100.926C134.603 100.207 134.981 99.5987 135.465 99.1C135.956 98.6013 136.546 98.2163 137.236 97.945C137.925 97.6737 138.691 97.538 139.535 97.538ZM139.535 107.075C140.473 107.075 141.166 106.76 141.614 106.129C142.068 105.498 142.296 104.574 142.296 103.357C142.296 102.14 142.068 101.212 141.614 100.574C141.166 99.936 140.473 99.617 139.535 99.617C138.581 99.617 137.877 99.9397 137.423 100.585C136.968 101.223 136.741 102.147 136.741 103.357C136.741 104.567 136.968 105.491 137.423 106.129C137.877 106.76 138.581 107.075 139.535 107.075ZM143.352 92.918L140.635 95.789C140.495 95.9357 140.36 96.0383 140.228 96.097C140.103 96.1483 139.938 96.174 139.733 96.174H138.105L139.667 93.501C139.777 93.3103 139.905 93.1673 140.052 93.072C140.198 92.9693 140.418 92.918 140.712 92.918H143.352ZM152.509 109H150.045L145.557 97.714H147.812C148.01 97.714 148.175 97.7617 148.307 97.857C148.447 97.9523 148.542 98.0733 148.593 98.22L150.771 104.248C150.896 104.6 150.999 104.945 151.079 105.282C151.167 105.619 151.244 105.957 151.31 106.294C151.376 105.957 151.45 105.619 151.53 105.282C151.618 104.945 151.728 104.6 151.86 104.248L154.093 98.22C154.145 98.0733 154.236 97.9523 154.368 97.857C154.5 97.7617 154.658 97.714 154.841 97.714H156.986L152.509 109ZM162.885 97.538C163.596 97.538 164.249 97.6517 164.843 97.879C165.444 98.1063 165.961 98.44 166.394 98.88C166.826 99.3127 167.164 99.848 167.406 100.486C167.648 101.117 167.769 101.839 167.769 102.653C167.769 102.858 167.758 103.031 167.736 103.17C167.721 103.302 167.688 103.408 167.637 103.489C167.593 103.562 167.53 103.617 167.45 103.654C167.369 103.683 167.266 103.698 167.142 103.698H160.168C160.248 104.857 160.56 105.707 161.103 106.25C161.645 106.793 162.364 107.064 163.259 107.064C163.699 107.064 164.076 107.013 164.392 106.91C164.714 106.807 164.993 106.694 165.228 106.569C165.47 106.444 165.679 106.331 165.855 106.228C166.038 106.125 166.214 106.074 166.383 106.074C166.493 106.074 166.588 106.096 166.669 106.14C166.749 106.184 166.819 106.246 166.878 106.327L167.67 107.317C167.369 107.669 167.032 107.966 166.658 108.208C166.284 108.443 165.891 108.633 165.481 108.78C165.077 108.919 164.663 109.018 164.238 109.077C163.82 109.136 163.413 109.165 163.017 109.165C162.232 109.165 161.502 109.037 160.828 108.78C160.153 108.516 159.566 108.131 159.068 107.625C158.569 107.112 158.177 106.481 157.891 105.733C157.605 104.978 157.462 104.105 157.462 103.115C157.462 102.345 157.586 101.623 157.836 100.948C158.085 100.266 158.441 99.6757 158.903 99.177C159.372 98.671 159.94 98.2713 160.608 97.978C161.282 97.6847 162.041 97.538 162.885 97.538ZM162.94 99.485C162.148 99.485 161.528 99.7087 161.081 100.156C160.633 100.603 160.347 101.238 160.223 102.059H165.327C165.327 101.707 165.279 101.377 165.184 101.069C165.088 100.754 164.942 100.479 164.744 100.244C164.546 100.009 164.296 99.826 163.996 99.694C163.695 99.5547 163.343 99.485 162.94 99.485ZM172.866 92.654V109H170.149V92.654H172.866Z" fill="#4C0788"/>
<path d="M69.5136 66.9821L69.5076 66.9688L69.5013 66.9556L64.8124 57.0812C65.6331 56.8476 66.4702 56.5321 67.2265 56.223C68.3895 55.7477 69.5559 55.2015 70.4439 54.7857C70.7264 54.6535 70.9807 54.5344 71.1977 54.435C71.1983 54.4348 71.1988 54.4345 71.1993 54.4343L76.8502 51.8633L81.3894 61.4498C82.7918 64.8868 81.3605 68.674 78.1774 70.2214C74.6703 71.762 70.9055 70.0669 69.5136 66.9821Z" fill="#4C0788" stroke="#4C0788" stroke-width="3"/>
<path d="M116.052 0.108517C115.192 -0.237927 114.16 0.281738 113.816 1.14785L110.893 9.46249C110.549 10.3286 111.065 11.3679 111.925 11.7144C112.785 12.0608 113.816 11.5411 114.16 10.675L117.255 2.18718C117.427 1.32107 116.912 0.45496 116.052 0.108517Z" fill="#E81B13"/>
<path d="M121.382 19.5094L129.463 15.6985C130.323 15.3521 130.667 14.3127 130.323 13.4466C129.979 12.5805 128.947 12.2341 128.088 12.5805L120.006 16.3914C119.146 16.7378 118.803 17.7772 119.146 18.6433C119.49 19.6826 120.522 20.029 121.382 19.5094Z" fill="#E81B13"/>
<path d="M130.323 30.9423L121.897 27.8243C121.038 27.4779 120.006 27.9976 119.662 28.8637C119.318 29.7298 119.834 30.7691 120.694 31.1155L129.119 34.2335C129.979 34.58 131.01 34.0603 131.354 33.1942C131.698 32.1549 131.354 31.1155 130.323 30.9423Z" fill="#E81B13"/>
<path d="M59.5618 35.1765L59.5788 35.1686L59.5957 35.1603L68.7875 30.6413L78.5976 48.8078L68.418 53.8124C62.7814 56.2384 56.7563 53.7714 54.4914 48.8402L54.4869 48.8305L54.4823 48.8208C52.0441 43.7064 54.3043 37.5996 59.5618 35.1765Z" fill="white" stroke="#4C0788" stroke-width="3"/>
<path d="M93.8699 8.07652C93.698 7.55686 93.1821 7.21042 92.6663 7.03719C92.1504 6.86397 91.6346 7.03719 91.1187 7.38364L67.9058 29.556L78.7385 50.1694L109.861 47.3978C110.377 47.3978 110.893 47.0514 111.065 46.5317C111.409 46.0121 111.409 45.4924 111.065 44.9727L93.8699 8.07652Z" fill="#4C0788"/>
<path d="M101.265 15.5249L110.034 34.5793C110.894 33.54 111.41 32.5006 111.925 31.2881C112.957 28.3433 112.785 25.2253 111.582 22.2805C109.69 18.2964 105.563 15.5249 101.265 15.5249Z" fill="#4C0788"/>
<path d="M15.8841 130.551C15.7941 130.695 15.6981 130.803 15.5961 130.875C15.5001 130.947 15.3741 130.983 15.2181 130.983C15.0801 130.983 14.9301 130.941 14.7681 130.857C14.6121 130.767 14.4321 130.668 14.2281 130.56C14.0301 130.452 13.8021 130.356 13.5441 130.272C13.2861 130.182 12.9921 130.137 12.6621 130.137C12.0921 130.137 11.6661 130.26 11.3841 130.506C11.1081 130.746 10.9701 131.073 10.9701 131.487C10.9701 131.751 11.0541 131.97 11.2221 132.144C11.3901 132.318 11.6091 132.468 11.8791 132.594C12.1551 132.72 12.4671 132.837 12.8151 132.945C13.1691 133.047 13.5291 133.164 13.8951 133.296C14.2611 133.422 14.6181 133.572 14.9661 133.746C15.3201 133.92 15.6321 134.142 15.9021 134.412C16.1781 134.682 16.4001 135.012 16.5681 135.402C16.7361 135.786 16.8201 136.251 16.8201 136.797C16.8201 137.403 16.7151 137.97 16.5051 138.498C16.2951 139.026 15.9891 139.488 15.5871 139.884C15.1911 140.274 14.6991 140.583 14.1111 140.811C13.5291 141.033 12.8661 141.144 12.1221 141.144C11.7141 141.144 11.2971 141.102 10.8711 141.018C10.4511 140.934 10.0431 140.817 9.64709 140.667C9.25109 140.511 8.87909 140.328 8.53109 140.118C8.18309 139.908 7.88009 139.674 7.62209 139.416L8.52209 137.994C8.58809 137.886 8.68109 137.799 8.80109 137.733C8.92109 137.667 9.05009 137.634 9.18809 137.634C9.36809 137.634 9.54809 137.691 9.72809 137.805C9.91409 137.919 10.1211 138.045 10.3491 138.183C10.5831 138.321 10.8501 138.447 11.1501 138.561C11.4501 138.675 11.8041 138.732 12.2121 138.732C12.7641 138.732 13.1931 138.612 13.4991 138.372C13.8051 138.126 13.9581 137.739 13.9581 137.211C13.9581 136.905 13.8741 136.656 13.7061 136.464C13.5381 136.272 13.3161 136.113 13.0401 135.987C12.7701 135.861 12.4611 135.75 12.1131 135.654C11.7651 135.558 11.4081 135.453 11.0421 135.339C10.6761 135.219 10.3191 135.075 9.97109 134.907C9.62309 134.733 9.31109 134.508 9.03509 134.232C8.76509 133.95 8.54609 133.602 8.37809 133.188C8.21009 132.768 8.12609 132.252 8.12609 131.64C8.12609 131.148 8.22509 130.668 8.42309 130.2C8.62109 129.732 8.91209 129.315 9.29609 128.949C9.68009 128.583 10.1511 128.292 10.7091 128.076C11.2671 127.854 11.9061 127.743 12.6261 127.743C13.0281 127.743 13.4181 127.776 13.7961 127.842C14.1801 127.902 14.5431 127.995 14.8851 128.121C15.2271 128.241 15.5451 128.388 15.8391 128.562C16.1391 128.73 16.4061 128.922 16.6401 129.138L15.8841 130.551ZM22.328 131.523C22.946 131.523 23.51 131.619 24.02 131.811C24.536 132.003 24.977 132.282 25.343 132.648C25.715 133.014 26.003 133.464 26.207 133.998C26.417 134.526 26.522 135.126 26.522 135.798C26.522 136.008 26.513 136.179 26.495 136.311C26.477 136.443 26.444 136.548 26.396 136.626C26.348 136.704 26.282 136.758 26.198 136.788C26.12 136.818 26.018 136.833 25.892 136.833H20.51C20.6 137.613 20.837 138.18 21.221 138.534C21.605 138.882 22.1 139.056 22.706 139.056C23.03 139.056 23.309 139.017 23.543 138.939C23.777 138.861 23.984 138.774 24.164 138.678C24.35 138.582 24.518 138.495 24.668 138.417C24.824 138.339 24.986 138.3 25.154 138.3C25.376 138.3 25.544 138.381 25.658 138.543L26.468 139.542C26.18 139.872 25.868 140.142 25.532 140.352C25.202 140.556 24.86 140.718 24.506 140.838C24.158 140.952 23.807 141.03 23.453 141.072C23.105 141.12 22.772 141.144 22.454 141.144C21.8 141.144 21.185 141.039 20.609 140.829C20.039 140.613 19.538 140.295 19.106 139.875C18.68 139.455 18.341 138.933 18.089 138.309C17.843 137.685 17.72 136.959 17.72 136.131C17.72 135.507 17.825 134.916 18.035 134.358C18.251 133.8 18.557 133.311 18.953 132.891C19.355 132.471 19.838 132.138 20.402 131.892C20.972 131.646 21.614 131.523 22.328 131.523ZM22.382 133.449C21.848 133.449 21.431 133.602 21.131 133.908C20.831 134.208 20.633 134.643 20.537 135.213H24.02C24.02 134.991 23.99 134.775 23.93 134.565C23.876 134.355 23.783 134.169 23.651 134.007C23.525 133.839 23.357 133.704 23.147 133.602C22.937 133.5 22.682 133.449 22.382 133.449ZM31.6034 143.961V131.667H33.3314C33.5054 131.667 33.6494 131.706 33.7634 131.784C33.8834 131.862 33.9674 131.979 34.0154 132.135L34.2224 132.819C34.4024 132.621 34.5944 132.441 34.7984 132.279C35.0084 132.117 35.2304 131.979 35.4644 131.865C35.7044 131.745 35.9594 131.652 36.2294 131.586C36.5054 131.52 36.8054 131.487 37.1294 131.487C37.6154 131.487 38.0654 131.595 38.4794 131.811C38.8934 132.027 39.2504 132.339 39.5504 132.747C39.8504 133.155 40.0844 133.656 40.2524 134.25C40.4264 134.838 40.5134 135.507 40.5134 136.257C40.5134 136.959 40.4144 137.607 40.2164 138.201C40.0244 138.795 39.7514 139.311 39.3974 139.749C39.0494 140.187 38.6294 140.529 38.1374 140.775C37.6514 141.021 37.1114 141.144 36.5174 141.144C36.0314 141.144 35.6234 141.075 35.2934 140.937C34.9634 140.799 34.6634 140.613 34.3934 140.379V143.961H31.6034ZM36.1574 133.62C35.9534 133.62 35.7674 133.641 35.5994 133.683C35.4374 133.719 35.2844 133.773 35.1404 133.845C35.0024 133.917 34.8734 134.01 34.7534 134.124C34.6334 134.232 34.5134 134.358 34.3934 134.502V138.462C34.6034 138.696 34.8314 138.861 35.0774 138.957C35.3234 139.047 35.5814 139.092 35.8514 139.092C36.1094 139.092 36.3464 139.041 36.5624 138.939C36.7784 138.837 36.9644 138.675 37.1204 138.453C37.2824 138.225 37.4084 137.931 37.4984 137.571C37.5884 137.211 37.6334 136.773 37.6334 136.257C37.6334 135.765 37.5974 135.351 37.5254 135.015C37.4534 134.679 37.3514 134.409 37.2194 134.205C37.0934 133.995 36.9404 133.845 36.7604 133.755C36.5804 133.665 36.3794 133.62 36.1574 133.62ZM42.0097 141V131.667H43.6657C43.8037 131.667 43.9177 131.679 44.0077 131.703C44.1037 131.727 44.1817 131.766 44.2417 131.82C44.3077 131.868 44.3557 131.934 44.3857 132.018C44.4217 132.102 44.4517 132.204 44.4757 132.324L44.6287 133.197C44.9707 132.669 45.3547 132.252 45.7807 131.946C46.2067 131.64 46.6717 131.487 47.1757 131.487C47.6017 131.487 47.9437 131.589 48.2017 131.793L47.8417 133.845C47.8177 133.971 47.7697 134.061 47.6977 134.115C47.6257 134.163 47.5297 134.187 47.4097 134.187C47.3077 134.187 47.1877 134.175 47.0497 134.151C46.9117 134.121 46.7377 134.106 46.5277 134.106C45.7957 134.106 45.2197 134.496 44.7997 135.276V141H42.0097ZM53.4412 131.523C54.0592 131.523 54.6232 131.619 55.1332 131.811C55.6492 132.003 56.0902 132.282 56.4562 132.648C56.8282 133.014 57.1162 133.464 57.3202 133.998C57.5302 134.526 57.6352 135.126 57.6352 135.798C57.6352 136.008 57.6262 136.179 57.6082 136.311C57.5902 136.443 57.5572 136.548 57.5092 136.626C57.4612 136.704 57.3952 136.758 57.3112 136.788C57.2332 136.818 57.1312 136.833 57.0052 136.833H51.6232C51.7132 137.613 51.9502 138.18 52.3342 138.534C52.7182 138.882 53.2132 139.056 53.8192 139.056C54.1432 139.056 54.4222 139.017 54.6562 138.939C54.8902 138.861 55.0972 138.774 55.2772 138.678C55.4632 138.582 55.6312 138.495 55.7812 138.417C55.9372 138.339 56.0992 138.3 56.2672 138.3C56.4892 138.3 56.6572 138.381 56.7712 138.543L57.5812 139.542C57.2932 139.872 56.9812 140.142 56.6452 140.352C56.3152 140.556 55.9732 140.718 55.6192 140.838C55.2712 140.952 54.9202 141.03 54.5662 141.072C54.2182 141.12 53.8852 141.144 53.5672 141.144C52.9132 141.144 52.2982 141.039 51.7222 140.829C51.1522 140.613 50.6512 140.295 50.2192 139.875C49.7932 139.455 49.4542 138.933 49.2022 138.309C48.9562 137.685 48.8332 136.959 48.8332 136.131C48.8332 135.507 48.9382 134.916 49.1482 134.358C49.3642 133.8 49.6702 133.311 50.0662 132.891C50.4682 132.471 50.9512 132.138 51.5152 131.892C52.0852 131.646 52.7272 131.523 53.4412 131.523ZM53.4952 133.449C52.9612 133.449 52.5442 133.602 52.2442 133.908C51.9442 134.208 51.7462 134.643 51.6502 135.213H55.1332C55.1332 134.991 55.1032 134.775 55.0432 134.565C54.9892 134.355 54.8962 134.169 54.7642 134.007C54.6382 133.839 54.4702 133.704 54.2602 133.602C54.0502 133.5 53.7952 133.449 53.4952 133.449ZM65.9683 133.881C65.8843 133.983 65.8033 134.064 65.7253 134.124C65.6473 134.184 65.5363 134.214 65.3923 134.214C65.2543 134.214 65.1283 134.181 65.0143 134.115C64.9063 134.049 64.7833 133.977 64.6453 133.899C64.5073 133.815 64.3453 133.74 64.1593 133.674C63.9733 133.608 63.7423 133.575 63.4663 133.575C63.1243 133.575 62.8273 133.638 62.5753 133.764C62.3293 133.89 62.1253 134.07 61.9633 134.304C61.8013 134.538 61.6813 134.826 61.6033 135.168C61.5253 135.504 61.4863 135.885 61.4863 136.311C61.4863 137.205 61.6573 137.892 61.9993 138.372C62.3473 138.852 62.8243 139.092 63.4303 139.092C63.7543 139.092 64.0093 139.053 64.1953 138.975C64.3873 138.891 64.5493 138.801 64.6813 138.705C64.8133 138.603 64.9333 138.51 65.0413 138.426C65.1553 138.342 65.2963 138.3 65.4643 138.3C65.6863 138.3 65.8543 138.381 65.9683 138.543L66.7783 139.542C66.4903 139.872 66.1873 140.142 65.8693 140.352C65.5513 140.556 65.2243 140.718 64.8883 140.838C64.5583 140.952 64.2253 141.03 63.8893 141.072C63.5533 141.12 63.2263 141.144 62.9082 141.144C62.3383 141.144 61.7923 141.036 61.2703 140.82C60.7543 140.604 60.2983 140.292 59.9023 139.884C59.5123 139.47 59.2003 138.963 58.9663 138.363C58.7383 137.763 58.6243 137.079 58.6243 136.311C58.6243 135.639 58.7233 135.012 58.9213 134.43C59.1253 133.842 59.4223 133.335 59.8123 132.909C60.2083 132.477 60.6943 132.138 61.2703 131.892C61.8523 131.646 62.5243 131.523 63.2863 131.523C64.0183 131.523 64.6603 131.64 65.2123 131.874C65.7643 132.108 66.2623 132.45 66.7063 132.9L65.9683 133.881ZM70.8702 131.667V141H68.0802V131.667H70.8702ZM71.1942 129.111C71.1942 129.333 71.1492 129.543 71.0592 129.741C70.9692 129.933 70.8462 130.104 70.6902 130.254C70.5342 130.398 70.3512 130.515 70.1412 130.605C69.9372 130.689 69.7182 130.731 69.4842 130.731C69.2562 130.731 69.0432 130.689 68.8452 130.605C68.6472 130.515 68.4702 130.398 68.3142 130.254C68.1642 130.104 68.0442 129.933 67.9542 129.741C67.8702 129.543 67.8282 129.333 67.8282 129.111C67.8282 128.883 67.8702 128.67 67.9542 128.472C68.0442 128.274 68.1642 128.1 68.3142 127.95C68.4702 127.8 68.6472 127.683 68.8452 127.599C69.0432 127.515 69.2562 127.473 69.4842 127.473C69.7182 127.473 69.9372 127.515 70.1412 127.599C70.3512 127.683 70.5342 127.8 70.6902 127.95C70.8462 128.1 70.9692 128.274 71.0592 128.472C71.1492 128.67 71.1942 128.883 71.1942 129.111ZM78.829 133.71C78.757 133.824 78.679 133.905 78.595 133.953C78.517 134.001 78.415 134.025 78.289 134.025C78.157 134.025 78.025 133.998 77.893 133.944C77.761 133.884 77.617 133.821 77.461 133.755C77.311 133.689 77.14 133.629 76.948 133.575C76.756 133.515 76.537 133.485 76.291 133.485C75.937 133.485 75.664 133.554 75.472 133.692C75.286 133.824 75.193 134.01 75.193 134.25C75.193 134.424 75.253 134.568 75.373 134.682C75.499 134.796 75.664 134.898 75.868 134.988C76.072 135.072 76.303 135.153 76.561 135.231C76.819 135.309 77.083 135.396 77.353 135.492C77.623 135.588 77.887 135.702 78.145 135.834C78.403 135.96 78.634 136.119 78.838 136.311C79.042 136.497 79.204 136.725 79.324 136.995C79.45 137.265 79.513 137.589 79.513 137.967C79.513 138.429 79.429 138.855 79.261 139.245C79.093 139.635 78.841 139.971 78.505 140.253C78.175 140.535 77.764 140.754 77.272 140.91C76.786 141.066 76.225 141.144 75.589 141.144C75.271 141.144 74.953 141.114 74.635 141.054C74.317 140.994 74.008 140.913 73.708 140.811C73.414 140.709 73.141 140.589 72.889 140.451C72.637 140.307 72.421 140.154 72.241 139.992L72.889 138.966C72.967 138.846 73.06 138.753 73.168 138.687C73.276 138.615 73.417 138.579 73.591 138.579C73.753 138.579 73.897 138.615 74.023 138.687C74.155 138.759 74.296 138.837 74.446 138.921C74.596 139.005 74.77 139.083 74.968 139.155C75.172 139.227 75.427 139.263 75.733 139.263C75.949 139.263 76.132 139.242 76.282 139.2C76.432 139.152 76.552 139.089 76.642 139.011C76.732 138.933 76.798 138.846 76.84 138.75C76.882 138.654 76.903 138.555 76.903 138.453C76.903 138.267 76.84 138.114 76.714 137.994C76.588 137.874 76.423 137.772 76.219 137.688C76.015 137.598 75.781 137.517 75.517 137.445C75.259 137.367 74.995 137.28 74.725 137.184C74.455 137.088 74.188 136.974 73.924 136.842C73.666 136.704 73.435 136.533 73.231 136.329C73.027 136.119 72.862 135.864 72.736 135.564C72.61 135.264 72.547 134.901 72.547 134.475C72.547 134.079 72.622 133.704 72.772 133.35C72.928 132.99 73.159 132.675 73.465 132.405C73.771 132.135 74.155 131.922 74.617 131.766C75.079 131.604 75.619 131.523 76.237 131.523C76.573 131.523 76.897 131.553 77.209 131.613C77.527 131.673 77.824 131.757 78.1 131.865C78.376 131.973 78.628 132.102 78.856 132.252C79.084 132.396 79.285 132.555 79.459 132.729L78.829 133.71ZM87.4947 141C87.2307 141 87.0297 140.964 86.8917 140.892C86.7597 140.82 86.6487 140.67 86.5587 140.442L86.3607 139.929C86.1267 140.127 85.9017 140.301 85.6857 140.451C85.4697 140.601 85.2447 140.73 85.0107 140.838C84.7827 140.94 84.5367 141.015 84.2727 141.063C84.0147 141.117 83.7267 141.144 83.4087 141.144C82.9827 141.144 82.5957 141.09 82.2477 140.982C81.8997 140.868 81.6027 140.703 81.3567 140.487C81.1167 140.271 80.9307 140.004 80.7987 139.686C80.6667 139.362 80.6007 138.99 80.6007 138.57C80.6007 138.24 80.6847 137.901 80.8527 137.553C81.0207 137.205 81.3117 136.89 81.7257 136.608C82.1397 136.32 82.6977 136.08 83.3997 135.888C84.1017 135.696 84.9867 135.588 86.0547 135.564V135.168C86.0547 134.622 85.9407 134.229 85.7127 133.989C85.4907 133.743 85.1727 133.62 84.7587 133.62C84.4287 133.62 84.1587 133.656 83.9487 133.728C83.7387 133.8 83.5497 133.881 83.3817 133.971C83.2197 134.061 83.0607 134.142 82.9047 134.214C82.7487 134.286 82.5627 134.322 82.3467 134.322C82.1547 134.322 81.9897 134.277 81.8517 134.187C81.7197 134.091 81.6147 133.974 81.5367 133.836L81.0327 132.963C81.5967 132.465 82.2207 132.096 82.9047 131.856C83.5947 131.61 84.3327 131.487 85.1187 131.487C85.6827 131.487 86.1897 131.58 86.6397 131.766C87.0957 131.946 87.4797 132.201 87.7917 132.531C88.1097 132.855 88.3527 133.242 88.5207 133.692C88.6887 134.142 88.7727 134.634 88.7727 135.168V141H87.4947ZM84.2907 139.299C84.6507 139.299 84.9657 139.236 85.2357 139.11C85.5057 138.984 85.7787 138.78 86.0547 138.498V137.202C85.4967 137.226 85.0377 137.274 84.6777 137.346C84.3177 137.418 84.0327 137.508 83.8227 137.616C83.6127 137.724 83.4657 137.847 83.3817 137.985C83.3037 138.123 83.2647 138.273 83.2647 138.435C83.2647 138.753 83.3517 138.978 83.5257 139.11C83.6997 139.236 83.9547 139.299 84.2907 139.299ZM90.7538 141V131.667H92.4098C92.5478 131.667 92.6618 131.679 92.7518 131.703C92.8478 131.727 92.9258 131.766 92.9858 131.82C93.0518 131.868 93.0998 131.934 93.1298 132.018C93.1658 132.102 93.1958 132.204 93.2198 132.324L93.3728 133.197C93.7148 132.669 94.0988 132.252 94.5248 131.946C94.9508 131.64 95.4158 131.487 95.9198 131.487C96.3458 131.487 96.6878 131.589 96.9458 131.793L96.5858 133.845C96.5618 133.971 96.5138 134.061 96.4418 134.115C96.3698 134.163 96.2738 134.187 96.1538 134.187C96.0518 134.187 95.9318 134.175 95.7938 134.151C95.6558 134.121 95.4818 134.106 95.2718 134.106C94.5398 134.106 93.9638 134.496 93.5438 135.276V141H90.7538ZM108.222 141C108.048 141 107.901 140.961 107.781 140.883C107.667 140.805 107.586 140.688 107.538 140.532L107.322 139.821C107.136 140.019 106.941 140.199 106.737 140.361C106.533 140.523 106.311 140.664 106.071 140.784C105.837 140.898 105.582 140.985 105.306 141.045C105.036 141.111 104.742 141.144 104.424 141.144C103.938 141.144 103.488 141.036 103.074 140.82C102.66 140.604 102.303 140.292 102.003 139.884C101.703 139.476 101.466 138.978 101.292 138.39C101.124 137.796 101.04 137.121 101.04 136.365C101.04 135.669 101.136 135.024 101.328 134.43C101.52 133.83 101.79 133.314 102.138 132.882C102.492 132.444 102.915 132.102 103.407 131.856C103.899 131.61 104.442 131.487 105.036 131.487C105.516 131.487 105.921 131.559 106.251 131.703C106.587 131.841 106.89 132.024 107.16 132.252V127.527H109.95V141H108.222ZM105.396 139.002C105.6 139.002 105.783 138.984 105.945 138.948C106.113 138.906 106.266 138.849 106.404 138.777C106.542 138.705 106.671 138.615 106.791 138.507C106.917 138.399 107.04 138.273 107.16 138.129V134.169C106.944 133.935 106.713 133.773 106.467 133.683C106.227 133.587 105.972 133.539 105.702 133.539C105.444 133.539 105.207 133.59 104.991 133.692C104.775 133.794 104.586 133.959 104.424 134.187C104.268 134.409 104.145 134.7 104.055 135.06C103.965 135.42 103.92 135.855 103.92 136.365C103.92 136.857 103.956 137.271 104.028 137.607C104.1 137.943 104.199 138.216 104.325 138.426C104.457 138.63 104.613 138.777 104.793 138.867C104.973 138.957 105.174 139.002 105.396 139.002ZM116.107 131.523C116.725 131.523 117.289 131.619 117.799 131.811C118.315 132.003 118.756 132.282 119.122 132.648C119.494 133.014 119.782 133.464 119.986 133.998C120.196 134.526 120.301 135.126 120.301 135.798C120.301 136.008 120.292 136.179 120.274 136.311C120.256 136.443 120.223 136.548 120.175 136.626C120.127 136.704 120.061 136.758 119.977 136.788C119.899 136.818 119.797 136.833 119.671 136.833H114.289C114.379 137.613 114.616 138.18 115 138.534C115.384 138.882 115.879 139.056 116.485 139.056C116.809 139.056 117.088 139.017 117.322 138.939C117.556 138.861 117.763 138.774 117.943 138.678C118.129 138.582 118.297 138.495 118.447 138.417C118.603 138.339 118.765 138.3 118.933 138.3C119.155 138.3 119.323 138.381 119.437 138.543L120.247 139.542C119.959 139.872 119.647 140.142 119.311 140.352C118.981 140.556 118.639 140.718 118.285 140.838C117.937 140.952 117.586 141.03 117.232 141.072C116.884 141.12 116.551 141.144 116.233 141.144C115.579 141.144 114.964 141.039 114.388 140.829C113.818 140.613 113.317 140.295 112.885 139.875C112.459 139.455 112.12 138.933 111.868 138.309C111.622 137.685 111.499 136.959 111.499 136.131C111.499 135.507 111.604 134.916 111.814 134.358C112.03 133.8 112.336 133.311 112.732 132.891C113.134 132.471 113.617 132.138 114.181 131.892C114.751 131.646 115.393 131.523 116.107 131.523ZM116.161 133.449C115.627 133.449 115.21 133.602 114.91 133.908C114.61 134.208 114.412 134.643 114.316 135.213H117.799C117.799 134.991 117.769 134.775 117.709 134.565C117.655 134.355 117.562 134.169 117.43 134.007C117.304 133.839 117.136 133.704 116.926 133.602C116.716 133.5 116.461 133.449 116.161 133.449ZM131.827 141C131.563 141 131.362 140.964 131.224 140.892C131.092 140.82 130.981 140.67 130.891 140.442L130.693 139.929C130.459 140.127 130.234 140.301 130.018 140.451C129.802 140.601 129.577 140.73 129.343 140.838C129.115 140.94 128.869 141.015 128.605 141.063C128.347 141.117 128.059 141.144 127.741 141.144C127.315 141.144 126.928 141.09 126.58 140.982C126.232 140.868 125.935 140.703 125.689 140.487C125.449 140.271 125.263 140.004 125.131 139.686C124.999 139.362 124.933 138.99 124.933 138.57C124.933 138.24 125.017 137.901 125.185 137.553C125.353 137.205 125.644 136.89 126.058 136.608C126.472 136.32 127.03 136.08 127.732 135.888C128.434 135.696 129.319 135.588 130.387 135.564V135.168C130.387 134.622 130.273 134.229 130.045 133.989C129.823 133.743 129.505 133.62 129.091 133.62C128.761 133.62 128.491 133.656 128.281 133.728C128.071 133.8 127.882 133.881 127.714 133.971C127.552 134.061 127.393 134.142 127.237 134.214C127.081 134.286 126.895 134.322 126.679 134.322C126.487 134.322 126.322 134.277 126.184 134.187C126.052 134.091 125.947 133.974 125.869 133.836L125.365 132.963C125.929 132.465 126.553 132.096 127.237 131.856C127.927 131.61 128.665 131.487 129.451 131.487C130.015 131.487 130.522 131.58 130.972 131.766C131.428 131.946 131.812 132.201 132.124 132.531C132.442 132.855 132.685 133.242 132.853 133.692C133.021 134.142 133.105 134.634 133.105 135.168V141H131.827ZM128.623 139.299C128.983 139.299 129.298 139.236 129.568 139.11C129.838 138.984 130.111 138.78 130.387 138.498V137.202C129.829 137.226 129.37 137.274 129.01 137.346C128.65 137.418 128.365 137.508 128.155 137.616C127.945 137.724 127.798 137.847 127.714 137.985C127.636 138.123 127.597 138.273 127.597 138.435C127.597 138.753 127.684 138.978 127.858 139.11C128.032 139.236 128.287 139.299 128.623 139.299ZM137.966 131.667V141.018C137.966 141.456 137.909 141.867 137.795 142.251C137.687 142.641 137.504 142.98 137.246 143.268C136.994 143.562 136.658 143.793 136.238 143.961C135.824 144.129 135.308 144.213 134.69 144.213C134.462 144.213 134.249 144.198 134.051 144.168C133.859 144.144 133.658 144.105 133.448 144.051L133.538 142.584C133.55 142.458 133.592 142.365 133.664 142.305C133.736 142.245 133.88 142.215 134.096 142.215C134.312 142.215 134.489 142.197 134.627 142.161C134.765 142.125 134.873 142.062 134.951 141.972C135.035 141.882 135.092 141.759 135.122 141.603C135.158 141.453 135.176 141.258 135.176 141.018V131.667H137.966ZM138.29 129.111C138.29 129.333 138.245 129.543 138.155 129.741C138.065 129.933 137.942 130.104 137.786 130.254C137.63 130.398 137.447 130.515 137.237 130.605C137.033 130.689 136.814 130.731 136.58 130.731C136.352 130.731 136.139 130.689 135.941 130.605C135.743 130.515 135.566 130.398 135.41 130.254C135.26 130.104 135.14 129.933 135.05 129.741C134.966 129.543 134.924 129.333 134.924 129.111C134.924 128.883 134.966 128.67 135.05 128.472C135.14 128.274 135.26 128.1 135.41 127.95C135.566 127.8 135.743 127.683 135.941 127.599C136.139 127.515 136.352 127.473 136.58 127.473C136.814 127.473 137.033 127.515 137.237 127.599C137.447 127.683 137.63 127.8 137.786 127.95C137.942 128.1 138.065 128.274 138.155 128.472C138.245 128.67 138.29 128.883 138.29 129.111ZM142.794 131.667V137.589C142.794 138.051 142.899 138.408 143.109 138.66C143.319 138.912 143.628 139.038 144.036 139.038C144.342 139.038 144.627 138.975 144.891 138.849C145.161 138.723 145.422 138.546 145.674 138.318V131.667H148.464V141H146.736C146.388 141 146.16 140.844 146.052 140.532L145.881 139.992C145.701 140.166 145.515 140.325 145.323 140.469C145.131 140.607 144.924 140.727 144.702 140.829C144.486 140.925 144.252 141 144 141.054C143.748 141.114 143.472 141.144 143.172 141.144C142.662 141.144 142.209 141.057 141.813 140.883C141.423 140.703 141.093 140.454 140.823 140.136C140.553 139.818 140.349 139.443 140.211 139.011C140.073 138.579 140.004 138.105 140.004 137.589V131.667H142.794ZM157.177 141C157.003 141 156.856 140.961 156.736 140.883C156.622 140.805 156.541 140.688 156.493 140.532L156.277 139.821C156.091 140.019 155.896 140.199 155.692 140.361C155.488 140.523 155.266 140.664 155.026 140.784C154.792 140.898 154.537 140.985 154.261 141.045C153.991 141.111 153.697 141.144 153.379 141.144C152.893 141.144 152.443 141.036 152.029 140.82C151.615 140.604 151.258 140.292 150.958 139.884C150.658 139.476 150.421 138.978 150.247 138.39C150.079 137.796 149.995 137.121 149.995 136.365C149.995 135.669 150.091 135.024 150.283 134.43C150.475 133.83 150.745 133.314 151.093 132.882C151.447 132.444 151.87 132.102 152.362 131.856C152.854 131.61 153.397 131.487 153.991 131.487C154.471 131.487 154.876 131.559 155.206 131.703C155.542 131.841 155.845 132.024 156.115 132.252V127.527H158.905V141H157.177ZM154.351 139.002C154.555 139.002 154.738 138.984 154.9 138.948C155.068 138.906 155.221 138.849 155.359 138.777C155.497 138.705 155.626 138.615 155.746 138.507C155.872 138.399 155.995 138.273 156.115 138.129V134.169C155.899 133.935 155.668 133.773 155.422 133.683C155.182 133.587 154.927 133.539 154.657 133.539C154.399 133.539 154.162 133.59 153.946 133.692C153.73 133.794 153.541 133.959 153.379 134.187C153.223 134.409 153.1 134.7 153.01 135.06C152.92 135.42 152.875 135.855 152.875 136.365C152.875 136.857 152.911 137.271 152.983 137.607C153.055 137.943 153.154 138.216 153.28 138.426C153.412 138.63 153.568 138.777 153.748 138.867C153.928 138.957 154.129 139.002 154.351 139.002ZM167.51 141C167.246 141 167.045 140.964 166.907 140.892C166.775 140.82 166.664 140.67 166.574 140.442L166.376 139.929C166.142 140.127 165.917 140.301 165.701 140.451C165.485 140.601 165.26 140.73 165.026 140.838C164.798 140.94 164.552 141.015 164.288 141.063C164.03 141.117 163.742 141.144 163.424 141.144C162.998 141.144 162.611 141.09 162.263 140.982C161.915 140.868 161.618 140.703 161.372 140.487C161.132 140.271 160.946 140.004 160.814 139.686C160.682 139.362 160.616 138.99 160.616 138.57C160.616 138.24 160.7 137.901 160.868 137.553C161.036 137.205 161.327 136.89 161.741 136.608C162.155 136.32 162.713 136.08 163.415 135.888C164.117 135.696 165.002 135.588 166.07 135.564V135.168C166.07 134.622 165.956 134.229 165.728 133.989C165.506 133.743 165.188 133.62 164.774 133.62C164.444 133.62 164.174 133.656 163.964 133.728C163.754 133.8 163.565 133.881 163.397 133.971C163.235 134.061 163.076 134.142 162.92 134.214C162.764 134.286 162.578 134.322 162.362 134.322C162.17 134.322 162.005 134.277 161.867 134.187C161.735 134.091 161.63 133.974 161.552 133.836L161.048 132.963C161.612 132.465 162.236 132.096 162.92 131.856C163.61 131.61 164.348 131.487 165.134 131.487C165.698 131.487 166.205 131.58 166.655 131.766C167.111 131.946 167.495 132.201 167.807 132.531C168.125 132.855 168.368 133.242 168.536 133.692C168.704 134.142 168.788 134.634 168.788 135.168V141H167.51ZM164.306 139.299C164.666 139.299 164.981 139.236 165.251 139.11C165.521 138.984 165.794 138.78 166.07 138.498V137.202C165.512 137.226 165.053 137.274 164.693 137.346C164.333 137.418 164.048 137.508 163.838 137.616C163.628 137.724 163.481 137.847 163.397 137.985C163.319 138.123 163.28 138.273 163.28 138.435C163.28 138.753 163.367 138.978 163.541 139.11C163.715 139.236 163.97 139.299 164.306 139.299ZM170.535 139.893C170.535 139.755 170.559 139.626 170.607 139.506C170.661 139.38 170.733 139.272 170.823 139.182C170.919 139.086 171.033 139.011 171.165 138.957C171.297 138.903 171.441 138.876 171.597 138.876C171.777 138.876 171.936 138.909 172.074 138.975C172.218 139.041 172.335 139.134 172.425 139.254C172.521 139.368 172.593 139.503 172.641 139.659C172.689 139.809 172.713 139.974 172.713 140.154C172.713 140.424 172.674 140.706 172.596 141C172.518 141.288 172.407 141.573 172.263 141.855C172.119 142.143 171.939 142.422 171.723 142.692C171.513 142.962 171.273 143.211 171.003 143.439L170.733 143.178C170.655 143.106 170.616 143.022 170.616 142.926C170.616 142.848 170.658 142.767 170.742 142.683C170.802 142.617 170.877 142.527 170.967 142.413C171.063 142.305 171.159 142.179 171.255 142.035C171.351 141.891 171.438 141.732 171.516 141.558C171.6 141.384 171.66 141.198 171.696 141H171.579C171.423 141 171.282 140.973 171.156 140.919C171.03 140.865 170.919 140.79 170.823 140.694C170.733 140.592 170.661 140.475 170.607 140.343C170.559 140.205 170.535 140.055 170.535 139.893ZM27.0295 163V155.251L26.0215 155.134C25.8955 155.104 25.7905 155.059 25.7065 154.999C25.6285 154.933 25.5895 154.84 25.5895 154.72V154.063H27.0295V153.181C27.0295 152.659 27.1015 152.197 27.2455 151.795C27.3955 151.387 27.6055 151.045 27.8755 150.769C28.1515 150.487 28.4815 150.274 28.8655 150.13C29.2495 149.986 29.6815 149.914 30.1615 149.914C30.5695 149.914 30.9475 149.974 31.2955 150.094L31.2595 150.895C31.2535 151.015 31.2025 151.087 31.1065 151.111C31.0105 151.135 30.8755 151.147 30.7015 151.147H30.4225C30.1465 151.147 29.8945 151.183 29.6665 151.255C29.4445 151.327 29.2525 151.444 29.0905 151.606C28.9285 151.768 28.8025 151.981 28.7125 152.245C28.6285 152.509 28.5865 152.836 28.5865 153.226V154.063H31.2235V155.224H28.6405V163H27.0295ZM39.4299 163H38.7189C38.5629 163 38.4369 162.976 38.3409 162.928C38.2449 162.88 38.1819 162.778 38.1519 162.622L37.9719 161.776C37.7319 161.992 37.4979 162.187 37.2699 162.361C37.0419 162.529 36.8019 162.673 36.5499 162.793C36.2979 162.907 36.0279 162.994 35.7399 163.054C35.4579 163.114 35.1429 163.144 34.7949 163.144C34.4409 163.144 34.1079 163.096 33.7959 163C33.4899 162.898 33.2229 162.748 32.9949 162.55C32.7669 162.352 32.5839 162.103 32.4459 161.803C32.3139 161.497 32.2479 161.137 32.2479 160.723C32.2479 160.363 32.3469 160.018 32.5449 159.688C32.7429 159.352 33.0609 159.055 33.4989 158.797C33.9429 158.539 34.5219 158.329 35.2359 158.167C35.9499 157.999 36.8229 157.903 37.8549 157.879V157.168C37.8549 156.46 37.7019 155.926 37.3959 155.566C37.0959 155.2 36.6489 155.017 36.0549 155.017C35.6649 155.017 35.3349 155.068 35.0649 155.17C34.8009 155.266 34.5699 155.377 34.3719 155.503C34.1799 155.623 34.0119 155.734 33.8679 155.836C33.7299 155.932 33.5919 155.98 33.4539 155.98C33.3459 155.98 33.2499 155.953 33.1659 155.899C33.0879 155.839 33.0249 155.767 32.9769 155.683L32.6889 155.17C33.1929 154.684 33.7359 154.321 34.3179 154.081C34.8999 153.841 35.5449 153.721 36.2529 153.721C36.7629 153.721 37.2159 153.805 37.6119 153.973C38.0079 154.141 38.3409 154.375 38.6109 154.675C38.8809 154.975 39.0849 155.338 39.2229 155.764C39.3609 156.19 39.4299 156.658 39.4299 157.168V163ZM35.2719 162.019C35.5539 162.019 35.8119 161.992 36.0459 161.938C36.2799 161.878 36.4989 161.797 36.7029 161.695C36.9129 161.587 37.1109 161.458 37.2969 161.308C37.4889 161.158 37.6749 160.987 37.8549 160.795V158.896C37.1169 158.92 36.4899 158.98 35.9739 159.076C35.4579 159.166 35.0379 159.286 34.7139 159.436C34.3899 159.586 34.1529 159.763 34.0029 159.967C33.8589 160.171 33.7869 160.399 33.7869 160.651C33.7869 160.891 33.8259 161.098 33.9039 161.272C33.9819 161.446 34.0869 161.59 34.2189 161.704C34.3509 161.812 34.5069 161.893 34.6869 161.947C34.8669 161.995 35.0619 162.019 35.2719 162.019ZM43.639 149.743V163H42.037V149.743H43.639ZM50.0714 153.739C50.6174 153.739 51.1214 153.832 51.5834 154.018C52.0454 154.198 52.4444 154.462 52.7804 154.81C53.1164 155.152 53.3774 155.578 53.5634 156.088C53.7554 156.592 53.8514 157.168 53.8514 157.816C53.8514 158.068 53.8244 158.236 53.7704 158.32C53.7164 158.404 53.6144 158.446 53.4644 158.446H47.3984C47.4104 159.022 47.4884 159.523 47.6324 159.949C47.7764 160.375 47.9744 160.732 48.2264 161.02C48.4784 161.302 48.7784 161.515 49.1264 161.659C49.4744 161.797 49.8644 161.866 50.2964 161.866C50.6984 161.866 51.0434 161.821 51.3314 161.731C51.6254 161.635 51.8774 161.533 52.0874 161.425C52.2974 161.317 52.4714 161.218 52.6094 161.128C52.7534 161.032 52.8764 160.984 52.9784 160.984C53.1104 160.984 53.2124 161.035 53.2844 161.137L53.7344 161.722C53.5364 161.962 53.2994 162.172 53.0234 162.352C52.7474 162.526 52.4504 162.67 52.1324 162.784C51.8204 162.898 51.4964 162.982 51.1604 163.036C50.8244 163.096 50.4914 163.126 50.1614 163.126C49.5314 163.126 48.9494 163.021 48.4154 162.811C47.8874 162.595 47.4284 162.283 47.0384 161.875C46.6544 161.461 46.3544 160.951 46.1384 160.345C45.9224 159.739 45.8144 159.043 45.8144 158.257C45.8144 157.621 45.9104 157.027 46.1024 156.475C46.3004 155.923 46.5824 155.446 46.9484 155.044C47.3144 154.636 47.7614 154.318 48.2894 154.09C48.8174 153.856 49.4114 153.739 50.0714 153.739ZM50.1074 154.918C49.3334 154.918 48.7244 155.143 48.2804 155.593C47.8364 156.037 47.5604 156.655 47.4524 157.447H52.4114C52.4114 157.075 52.3604 156.736 52.2584 156.43C52.1564 156.118 52.0064 155.851 51.8084 155.629C51.6104 155.401 51.3674 155.227 51.0794 155.107C50.7974 154.981 50.4734 154.918 50.1074 154.918ZM65.6014 155.503C65.5534 155.569 65.5054 155.62 65.4574 155.656C65.4094 155.692 65.3404 155.71 65.2504 155.71C65.1604 155.71 65.0614 155.674 64.9534 155.602C64.8514 155.524 64.7194 155.44 64.5574 155.35C64.3954 155.26 64.1974 155.179 63.9634 155.107C63.7354 155.029 63.4534 154.99 63.1174 154.99C62.6734 154.99 62.2804 155.071 61.9384 155.233C61.5964 155.389 61.3084 155.617 61.0744 155.917C60.8464 156.217 60.6724 156.58 60.5524 157.006C60.4384 157.432 60.3814 157.909 60.3814 158.437C60.3814 158.989 60.4444 159.481 60.5704 159.913C60.6964 160.339 60.8734 160.699 61.1014 160.993C61.3294 161.281 61.6054 161.503 61.9294 161.659C62.2594 161.809 62.6284 161.884 63.0364 161.884C63.4264 161.884 63.7474 161.839 63.9994 161.749C64.2514 161.653 64.4614 161.548 64.6294 161.434C64.7974 161.32 64.9354 161.218 65.0434 161.128C65.1514 161.032 65.2594 160.984 65.3674 160.984C65.5054 160.984 65.6074 161.035 65.6734 161.137L66.1234 161.722C65.7274 162.208 65.2324 162.565 64.6384 162.793C64.0444 163.015 63.4174 163.126 62.7574 163.126C62.1874 163.126 61.6564 163.021 61.1644 162.811C60.6784 162.601 60.2554 162.298 59.8954 161.902C59.5354 161.5 59.2504 161.008 59.0404 160.426C58.8364 159.844 58.7344 159.181 58.7344 158.437C58.7344 157.759 58.8274 157.132 59.0134 156.556C59.2054 155.98 59.4814 155.485 59.8414 155.071C60.2074 154.651 60.6574 154.324 61.1914 154.09C61.7254 153.856 62.3374 153.739 63.0274 153.739C63.6634 153.739 64.2274 153.844 64.7194 154.054C65.2114 154.258 65.6464 154.549 66.0244 154.927L65.6014 155.503ZM71.4747 153.739C72.1407 153.739 72.7407 153.85 73.2747 154.072C73.8147 154.294 74.2707 154.609 74.6427 155.017C75.0207 155.425 75.3087 155.92 75.5067 156.502C75.7107 157.078 75.8127 157.723 75.8127 158.437C75.8127 159.157 75.7107 159.805 75.5067 160.381C75.3087 160.957 75.0207 161.449 74.6427 161.857C74.2707 162.265 73.8147 162.58 73.2747 162.802C72.7407 163.018 72.1407 163.126 71.4747 163.126C70.8087 163.126 70.2057 163.018 69.6657 162.802C69.1317 162.58 68.6757 162.265 68.2977 161.857C67.9197 161.449 67.6287 160.957 67.4247 160.381C67.2207 159.805 67.1187 159.157 67.1187 158.437C67.1187 157.723 67.2207 157.078 67.4247 156.502C67.6287 155.92 67.9197 155.425 68.2977 155.017C68.6757 154.609 69.1317 154.294 69.6657 154.072C70.2057 153.85 70.8087 153.739 71.4747 153.739ZM71.4747 161.875C72.3747 161.875 73.0467 161.575 73.4907 160.975C73.9347 160.369 74.1567 159.526 74.1567 158.446C74.1567 157.36 73.9347 156.514 73.4907 155.908C73.0467 155.302 72.3747 154.999 71.4747 154.999C71.0187 154.999 70.6227 155.077 70.2867 155.233C69.9507 155.389 69.6687 155.614 69.4407 155.908C69.2187 156.202 69.0507 156.565 68.9367 156.997C68.8287 157.423 68.7747 157.906 68.7747 158.446C68.7747 158.986 68.8287 159.469 68.9367 159.895C69.0507 160.321 69.2187 160.681 69.4407 160.975C69.6687 161.263 69.9507 161.485 70.2867 161.641C70.6227 161.797 71.0187 161.875 71.4747 161.875ZM77.7867 163V153.883H78.7407C78.9687 153.883 79.1127 153.994 79.1727 154.216L79.2897 155.152C79.6257 154.738 80.0007 154.399 80.4147 154.135C80.8347 153.871 81.3207 153.739 81.8727 153.739C82.4907 153.739 82.9887 153.91 83.3667 154.252C83.7507 154.594 84.0267 155.056 84.1947 155.638C84.3207 155.308 84.4857 155.023 84.6897 154.783C84.8997 154.543 85.1337 154.345 85.3917 154.189C85.6497 154.033 85.9227 153.919 86.2107 153.847C86.5047 153.775 86.8017 153.739 87.1017 153.739C87.5817 153.739 88.0077 153.817 88.3797 153.973C88.7577 154.123 89.0757 154.345 89.3337 154.639C89.5977 154.933 89.7987 155.296 89.9367 155.728C90.0747 156.154 90.1437 156.643 90.1437 157.195V163H88.5417V157.195C88.5417 156.481 88.3857 155.941 88.0737 155.575C87.7617 155.203 87.3087 155.017 86.7147 155.017C86.4507 155.017 86.1987 155.065 85.9587 155.161C85.7247 155.251 85.5177 155.386 85.3377 155.566C85.1577 155.746 85.0137 155.974 84.9057 156.25C84.8037 156.52 84.7527 156.835 84.7527 157.195V163H83.1507V157.195C83.1507 156.463 83.0037 155.917 82.7097 155.557C82.4157 155.197 81.9867 155.017 81.4227 155.017C81.0267 155.017 80.6577 155.125 80.3157 155.341C79.9797 155.551 79.6707 155.839 79.3887 156.205V163H77.7867ZM99.7403 153.739C100.406 153.739 101.006 153.85 101.54 154.072C102.08 154.294 102.536 154.609 102.908 155.017C103.286 155.425 103.574 155.92 103.772 156.502C103.976 157.078 104.078 157.723 104.078 158.437C104.078 159.157 103.976 159.805 103.772 160.381C103.574 160.957 103.286 161.449 102.908 161.857C102.536 162.265 102.08 162.58 101.54 162.802C101.006 163.018 100.406 163.126 99.7403 163.126C99.0743 163.126 98.4713 163.018 97.9313 162.802C97.3973 162.58 96.9413 162.265 96.5633 161.857C96.1853 161.449 95.8943 160.957 95.6903 160.381C95.4863 159.805 95.3843 159.157 95.3843 158.437C95.3843 157.723 95.4863 157.078 95.6903 156.502C95.8943 155.92 96.1853 155.425 96.5633 155.017C96.9413 154.609 97.3973 154.294 97.9313 154.072C98.4713 153.85 99.0743 153.739 99.7403 153.739ZM99.7403 161.875C100.64 161.875 101.312 161.575 101.756 160.975C102.2 160.369 102.422 159.526 102.422 158.446C102.422 157.36 102.2 156.514 101.756 155.908C101.312 155.302 100.64 154.999 99.7403 154.999C99.2843 154.999 98.8883 155.077 98.5523 155.233C98.2163 155.389 97.9343 155.614 97.7063 155.908C97.4843 156.202 97.3163 156.565 97.2023 156.997C97.0943 157.423 97.0403 157.906 97.0403 158.446C97.0403 158.986 97.0943 159.469 97.2023 159.895C97.3163 160.321 97.4843 160.681 97.7063 160.975C97.9343 161.263 98.2163 161.485 98.5523 161.641C98.8883 161.797 99.2843 161.875 99.7403 161.875ZM111.315 149.743V163H109.713V149.743H111.315ZM117.828 153.739C118.494 153.739 119.094 153.85 119.628 154.072C120.168 154.294 120.624 154.609 120.996 155.017C121.374 155.425 121.662 155.92 121.86 156.502C122.064 157.078 122.166 157.723 122.166 158.437C122.166 159.157 122.064 159.805 121.86 160.381C121.662 160.957 121.374 161.449 120.996 161.857C120.624 162.265 120.168 162.58 119.628 162.802C119.094 163.018 118.494 163.126 117.828 163.126C117.162 163.126 116.559 163.018 116.019 162.802C115.485 162.58 115.029 162.265 114.651 161.857C114.273 161.449 113.982 160.957 113.778 160.381C113.574 159.805 113.472 159.157 113.472 158.437C113.472 157.723 113.574 157.078 113.778 156.502C113.982 155.92 114.273 155.425 114.651 155.017C115.029 154.609 115.485 154.294 116.019 154.072C116.559 153.85 117.162 153.739 117.828 153.739ZM117.828 161.875C118.728 161.875 119.4 161.575 119.844 160.975C120.288 160.369 120.51 159.526 120.51 158.446C120.51 157.36 120.288 156.514 119.844 155.908C119.4 155.302 118.728 154.999 117.828 154.999C117.372 154.999 116.976 155.077 116.64 155.233C116.304 155.389 116.022 155.614 115.794 155.908C115.572 156.202 115.404 156.565 115.29 156.997C115.182 157.423 115.128 157.906 115.128 158.446C115.128 158.986 115.182 159.469 115.29 159.895C115.404 160.321 115.572 160.681 115.794 160.975C116.022 161.263 116.304 161.485 116.64 161.641C116.976 161.797 117.372 161.875 117.828 161.875ZM125.922 153.883V163.675C125.922 164.041 125.874 164.38 125.778 164.692C125.682 165.01 125.529 165.286 125.319 165.52C125.115 165.754 124.848 165.937 124.518 166.069C124.194 166.207 123.804 166.276 123.348 166.276C123.15 166.276 122.97 166.261 122.808 166.231C122.646 166.201 122.484 166.156 122.322 166.096L122.394 165.232C122.406 165.154 122.433 165.103 122.475 165.079C122.517 165.061 122.583 165.052 122.673 165.052C122.721 165.052 122.772 165.052 122.826 165.052C122.88 165.058 122.946 165.061 123.024 165.061C123.492 165.061 123.825 164.95 124.023 164.728C124.221 164.512 124.32 164.161 124.32 163.675V153.883H125.922ZM126.282 151.021C126.282 151.177 126.249 151.324 126.183 151.462C126.123 151.594 126.039 151.714 125.931 151.822C125.829 151.924 125.709 152.005 125.571 152.065C125.433 152.125 125.286 152.155 125.13 152.155C124.974 152.155 124.827 152.125 124.689 152.065C124.557 152.005 124.437 151.924 124.329 151.822C124.227 151.714 124.146 151.594 124.086 151.462C124.026 151.324 123.996 151.177 123.996 151.021C123.996 150.865 124.026 150.718 124.086 150.58C124.146 150.436 124.227 150.313 124.329 150.211C124.437 150.103 124.557 150.019 124.689 149.959C124.827 149.899 124.974 149.869 125.13 149.869C125.286 149.869 125.433 149.899 125.571 149.959C125.709 150.019 125.829 150.103 125.931 150.211C126.039 150.313 126.123 150.436 126.183 150.58C126.249 150.718 126.282 150.865 126.282 151.021ZM130.492 153.883V163H128.89V153.883H130.492ZM130.852 151.021C130.852 151.177 130.819 151.324 130.753 151.462C130.693 151.594 130.609 151.714 130.501 151.822C130.399 151.924 130.279 152.005 130.141 152.065C130.003 152.125 129.856 152.155 129.7 152.155C129.544 152.155 129.397 152.125 129.259 152.065C129.127 152.005 129.007 151.924 128.899 151.822C128.797 151.714 128.716 151.594 128.656 151.462C128.596 151.324 128.566 151.177 128.566 151.021C128.566 150.865 128.596 150.718 128.656 150.58C128.716 150.436 128.797 150.313 128.899 150.211C129.007 150.103 129.127 150.019 129.259 149.959C129.397 149.899 129.544 149.869 129.7 149.869C129.856 149.869 130.003 149.899 130.141 149.959C130.279 150.019 130.399 150.103 130.501 150.211C130.609 150.313 130.693 150.436 130.753 150.58C130.819 150.718 130.852 150.865 130.852 151.021ZM138.536 155.386C138.464 155.518 138.353 155.584 138.203 155.584C138.113 155.584 138.011 155.551 137.897 155.485C137.783 155.419 137.642 155.347 137.474 155.269C137.312 155.185 137.117 155.11 136.889 155.044C136.661 154.972 136.391 154.936 136.079 154.936C135.809 154.936 135.566 154.972 135.35 155.044C135.134 155.11 134.948 155.203 134.792 155.323C134.642 155.443 134.525 155.584 134.441 155.746C134.363 155.902 134.324 156.073 134.324 156.259C134.324 156.493 134.39 156.688 134.522 156.844C134.66 157 134.84 157.135 135.062 157.249C135.284 157.363 135.536 157.465 135.818 157.555C136.1 157.639 136.388 157.732 136.682 157.834C136.982 157.93 137.273 158.038 137.555 158.158C137.837 158.278 138.089 158.428 138.311 158.608C138.533 158.788 138.71 159.01 138.842 159.274C138.98 159.532 139.049 159.844 139.049 160.21C139.049 160.63 138.974 161.02 138.824 161.38C138.674 161.734 138.452 162.043 138.158 162.307C137.864 162.565 137.504 162.769 137.078 162.919C136.652 163.069 136.16 163.144 135.602 163.144C134.966 163.144 134.39 163.042 133.874 162.838C133.358 162.628 132.92 162.361 132.56 162.037L132.938 161.425C132.986 161.347 133.043 161.287 133.109 161.245C133.175 161.203 133.262 161.182 133.37 161.182C133.478 161.182 133.592 161.224 133.712 161.308C133.832 161.392 133.976 161.485 134.144 161.587C134.318 161.689 134.525 161.782 134.765 161.866C135.011 161.95 135.317 161.992 135.683 161.992C135.995 161.992 136.268 161.953 136.502 161.875C136.736 161.791 136.931 161.68 137.087 161.542C137.243 161.404 137.357 161.245 137.429 161.065C137.507 160.885 137.546 160.693 137.546 160.489C137.546 160.237 137.477 160.03 137.339 159.868C137.207 159.7 137.03 159.559 136.808 159.445C136.586 159.325 136.331 159.223 136.043 159.139C135.761 159.049 135.47 158.956 135.17 158.86C134.876 158.764 134.585 158.656 134.297 158.536C134.015 158.41 133.763 158.254 133.541 158.068C133.319 157.882 133.139 157.654 133.001 157.384C132.869 157.108 132.803 156.775 132.803 156.385C132.803 156.037 132.875 155.704 133.019 155.386C133.163 155.062 133.373 154.78 133.649 154.54C133.925 154.294 134.264 154.099 134.666 153.955C135.068 153.811 135.527 153.739 136.043 153.739C136.643 153.739 137.18 153.835 137.654 154.027C138.134 154.213 138.548 154.471 138.896 154.801L138.536 155.386ZM143.884 163.144C143.164 163.144 142.609 162.943 142.219 162.541C141.835 162.139 141.643 161.56 141.643 160.804V155.224H140.545C140.449 155.224 140.368 155.197 140.302 155.143C140.236 155.083 140.203 154.993 140.203 154.873V154.234L141.697 154.045L142.066 151.228C142.078 151.138 142.117 151.066 142.183 151.012C142.249 150.952 142.333 150.922 142.435 150.922H143.245V154.063H145.855V155.224H143.245V160.696C143.245 161.08 143.338 161.365 143.524 161.551C143.71 161.737 143.95 161.83 144.244 161.83C144.412 161.83 144.556 161.809 144.676 161.767C144.802 161.719 144.91 161.668 145 161.614C145.09 161.56 145.165 161.512 145.225 161.47C145.291 161.422 145.348 161.398 145.396 161.398C145.48 161.398 145.555 161.449 145.621 161.551L146.089 162.316C145.813 162.574 145.48 162.778 145.09 162.928C144.7 163.072 144.298 163.144 143.884 163.144ZM154.531 163H153.82C153.664 163 153.538 162.976 153.442 162.928C153.346 162.88 153.283 162.778 153.253 162.622L153.073 161.776C152.833 161.992 152.599 162.187 152.371 162.361C152.143 162.529 151.903 162.673 151.651 162.793C151.399 162.907 151.129 162.994 150.841 163.054C150.559 163.114 150.244 163.144 149.896 163.144C149.542 163.144 149.209 163.096 148.897 163C148.591 162.898 148.324 162.748 148.096 162.55C147.868 162.352 147.685 162.103 147.547 161.803C147.415 161.497 147.349 161.137 147.349 160.723C147.349 160.363 147.448 160.018 147.646 159.688C147.844 159.352 148.162 159.055 148.6 158.797C149.044 158.539 149.623 158.329 150.337 158.167C151.051 157.999 151.924 157.903 152.956 157.879V157.168C152.956 156.46 152.803 155.926 152.497 155.566C152.197 155.2 151.75 155.017 151.156 155.017C150.766 155.017 150.436 155.068 150.166 155.17C149.902 155.266 149.671 155.377 149.473 155.503C149.281 155.623 149.113 155.734 148.969 155.836C148.831 155.932 148.693 155.98 148.555 155.98C148.447 155.98 148.351 155.953 148.267 155.899C148.189 155.839 148.126 155.767 148.078 155.683L147.79 155.17C148.294 154.684 148.837 154.321 149.419 154.081C150.001 153.841 150.646 153.721 151.354 153.721C151.864 153.721 152.317 153.805 152.713 153.973C153.109 154.141 153.442 154.375 153.712 154.675C153.982 154.975 154.186 155.338 154.324 155.764C154.462 156.19 154.531 156.658 154.531 157.168V163ZM150.373 162.019C150.655 162.019 150.913 161.992 151.147 161.938C151.381 161.878 151.6 161.797 151.804 161.695C152.014 161.587 152.212 161.458 152.398 161.308C152.59 161.158 152.776 160.987 152.956 160.795V158.896C152.218 158.92 151.591 158.98 151.075 159.076C150.559 159.166 150.139 159.286 149.815 159.436C149.491 159.586 149.254 159.763 149.104 159.967C148.96 160.171 148.888 160.399 148.888 160.651C148.888 160.891 148.927 161.098 149.005 161.272C149.083 161.446 149.188 161.59 149.32 161.704C149.452 161.812 149.608 161.893 149.788 161.947C149.968 161.995 150.163 162.019 150.373 162.019Z" fill="black"/>
</svg>
