<svg width="165" height="187" viewBox="0 0 165 187" fill="none" xmlns="http://www.w3.org/2000/svg">
<path d="M67.4311 114.987C67.3504 115.148 67.2551 115.262 67.1451 115.328C67.0424 115.394 66.9177 115.427 66.7711 115.427C66.6244 115.427 66.4594 115.372 66.2761 115.262C66.0927 115.145 65.8764 115.016 65.6271 114.877C65.3777 114.738 65.0844 114.613 64.7471 114.503C64.4171 114.386 64.0247 114.327 63.5701 114.327C63.1594 114.327 62.8001 114.378 62.4921 114.481C62.1914 114.576 61.9347 114.712 61.7221 114.888C61.5167 115.064 61.3627 115.277 61.2601 115.526C61.1574 115.768 61.1061 116.036 61.1061 116.329C61.1061 116.703 61.2087 117.015 61.4141 117.264C61.6267 117.513 61.9054 117.726 62.2501 117.902C62.5947 118.078 62.9871 118.236 63.4271 118.375C63.8671 118.514 64.3144 118.665 64.7691 118.826C65.2311 118.98 65.6821 119.163 66.1221 119.376C66.5621 119.581 66.9544 119.845 67.2991 120.168C67.6437 120.483 67.9187 120.872 68.1241 121.334C68.3367 121.796 68.4431 122.357 68.4431 123.017C68.4431 123.736 68.3184 124.41 68.0691 125.041C67.8271 125.664 67.4677 126.211 66.9911 126.68C66.5217 127.142 65.9461 127.509 65.2641 127.78C64.5821 128.044 63.8011 128.176 62.9211 128.176C62.4151 128.176 61.9164 128.125 61.4251 128.022C60.9337 127.927 60.4607 127.787 60.0061 127.604C59.5587 127.421 59.1371 127.201 58.7411 126.944C58.3524 126.687 58.0041 126.401 57.6961 126.086L58.5541 124.667C58.6347 124.564 58.7301 124.48 58.8401 124.414C58.9574 124.341 59.0857 124.304 59.2251 124.304C59.4084 124.304 59.6064 124.381 59.8191 124.535C60.0317 124.682 60.2811 124.847 60.5671 125.03C60.8604 125.213 61.2014 125.382 61.5901 125.536C61.9861 125.683 62.4591 125.756 63.0091 125.756C63.8524 125.756 64.5051 125.558 64.9671 125.162C65.4291 124.759 65.6601 124.183 65.6601 123.435C65.6601 123.017 65.5537 122.676 65.3411 122.412C65.1357 122.148 64.8607 121.928 64.5161 121.752C64.1714 121.569 63.7791 121.415 63.3391 121.29C62.8991 121.165 62.4517 121.03 61.9971 120.883C61.5424 120.736 61.0951 120.56 60.6551 120.355C60.2151 120.15 59.8227 119.882 59.4781 119.552C59.1334 119.222 58.8547 118.811 58.6421 118.32C58.4367 117.821 58.3341 117.209 58.3341 116.483C58.3341 115.904 58.4477 115.339 58.6751 114.789C58.9097 114.239 59.2471 113.751 59.6871 113.326C60.1344 112.901 60.6807 112.56 61.3261 112.303C61.9714 112.046 62.7084 111.918 63.5371 111.918C64.4757 111.918 65.3411 112.065 66.1331 112.358C66.9251 112.651 67.5997 113.062 68.1571 113.59L67.4311 114.987ZM78.687 121.4C78.8117 121.635 78.9253 121.88 79.028 122.137C79.138 122.386 79.2443 122.639 79.347 122.896C79.4497 122.632 79.556 122.372 79.666 122.115C79.776 121.858 79.8933 121.613 80.018 121.378L84.726 112.567C84.7847 112.457 84.8433 112.369 84.902 112.303C84.968 112.237 85.0377 112.189 85.111 112.16C85.1917 112.131 85.2797 112.112 85.375 112.105C85.4703 112.098 85.584 112.094 85.716 112.094H87.949V128H85.342V117.726C85.342 117.535 85.3457 117.326 85.353 117.099C85.3677 116.872 85.386 116.641 85.408 116.406L80.601 125.426C80.491 125.631 80.348 125.793 80.172 125.91C79.996 126.02 79.7907 126.075 79.556 126.075H79.149C78.9143 126.075 78.709 126.02 78.533 125.91C78.357 125.793 78.214 125.631 78.104 125.426L73.231 116.373C73.2603 116.615 73.2787 116.853 73.286 117.088C73.3007 117.315 73.308 117.528 73.308 117.726V128H70.701V112.094H72.934C73.066 112.094 73.1797 112.098 73.275 112.105C73.3703 112.112 73.4547 112.131 73.528 112.16C73.6087 112.189 73.682 112.237 73.748 112.303C73.814 112.369 73.8763 112.457 73.935 112.567L78.687 121.4ZM99.6791 114.987C99.5984 115.148 99.5031 115.262 99.3931 115.328C99.2904 115.394 99.1658 115.427 99.0191 115.427C98.8724 115.427 98.7074 115.372 98.5241 115.262C98.3408 115.145 98.1244 115.016 97.8751 114.877C97.6258 114.738 97.3324 114.613 96.9951 114.503C96.6651 114.386 96.2728 114.327 95.8181 114.327C95.4074 114.327 95.0481 114.378 94.7401 114.481C94.4394 114.576 94.1828 114.712 93.9701 114.888C93.7648 115.064 93.6108 115.277 93.5081 115.526C93.4054 115.768 93.3541 116.036 93.3541 116.329C93.3541 116.703 93.4568 117.015 93.6621 117.264C93.8748 117.513 94.1534 117.726 94.4981 117.902C94.8428 118.078 95.2351 118.236 95.6751 118.375C96.1151 118.514 96.5624 118.665 97.0171 118.826C97.4791 118.98 97.9301 119.163 98.3701 119.376C98.8101 119.581 99.2024 119.845 99.5471 120.168C99.8918 120.483 100.167 120.872 100.372 121.334C100.585 121.796 100.691 122.357 100.691 123.017C100.691 123.736 100.566 124.41 100.317 125.041C100.075 125.664 99.7158 126.211 99.2391 126.68C98.7698 127.142 98.1941 127.509 97.5121 127.78C96.8301 128.044 96.0491 128.176 95.1691 128.176C94.6631 128.176 94.1644 128.125 93.6731 128.022C93.1818 127.927 92.7088 127.787 92.2541 127.604C91.8068 127.421 91.3851 127.201 90.9891 126.944C90.6004 126.687 90.2521 126.401 89.9441 126.086L90.8021 124.667C90.8828 124.564 90.9781 124.48 91.0881 124.414C91.2054 124.341 91.3338 124.304 91.4731 124.304C91.6564 124.304 91.8544 124.381 92.0671 124.535C92.2798 124.682 92.5291 124.847 92.8151 125.03C93.1084 125.213 93.4494 125.382 93.8381 125.536C94.2341 125.683 94.7071 125.756 95.2571 125.756C96.1004 125.756 96.7531 125.558 97.2151 125.162C97.6771 124.759 97.9081 124.183 97.9081 123.435C97.9081 123.017 97.8018 122.676 97.5891 122.412C97.3838 122.148 97.1088 121.928 96.7641 121.752C96.4194 121.569 96.0271 121.415 95.5871 121.29C95.1471 121.165 94.6998 121.03 94.2451 120.883C93.7904 120.736 93.3431 120.56 92.9031 120.355C92.4631 120.15 92.0708 119.882 91.7261 119.552C91.3814 119.222 91.1028 118.811 90.8901 118.32C90.6848 117.821 90.5821 117.209 90.5821 116.483C90.5821 115.904 90.6958 115.339 90.9231 114.789C91.1578 114.239 91.4951 113.751 91.9351 113.326C92.3824 112.901 92.9288 112.56 93.5741 112.303C94.2194 112.046 94.9564 111.918 95.7851 111.918C96.7238 111.918 97.5891 112.065 98.3811 112.358C99.1731 112.651 99.8478 113.062 100.405 113.59L99.6791 114.987Z" fill="#4C0788"/>
<path d="M98.7354 35.187C98.7354 35.1002 98.7354 35.1002 98.7354 35.0134V26.3351C98.7354 22.8638 95.8693 20 92.3953 20H66.3401C62.8661 20 60 22.8638 60 26.3351V83.0042C60 86.4755 62.8661 89.3393 66.3401 89.3393H92.3953C95.8693 89.3393 98.7354 86.4755 98.7354 83.0042V66.9494V66.8626V35.187ZM96.5641 67.0362V74.1523H62.1713V29.7196H96.5641V35.0134V67.0362Z" fill="#4C0788"/>
<rect x="61.8994" y="29.4985" width="34.1947" height="44.6431" fill="white"/>
<path d="M98.735 36.1414H73.6351C71.4639 36.1414 69.64 37.9639 69.64 40.1334V57.5767C69.64 59.7463 71.377 61.5687 73.6351 61.5687H76.5012C76.5881 61.5687 76.5881 61.6555 76.5881 61.6555V69.8131C76.5881 70.1602 76.7618 70.4205 77.1092 70.5073C77.196 70.5073 77.2829 70.5941 77.3697 70.5941C77.6303 70.5941 77.804 70.5073 77.9777 70.3338L84.5783 62.6969L85.5337 61.5687H98.735C100.906 61.5687 102.73 59.8331 102.73 57.5767V40.1334C102.643 37.8771 100.906 36.1414 98.735 36.1414ZM87.3575 53.5847H76.5012C76.067 53.5847 75.7196 53.2376 75.7196 52.8037C75.7196 52.3698 76.067 52.0226 76.5012 52.0226H87.3575C87.7918 52.0226 88.1392 52.3698 88.1392 52.8037C88.1392 53.2376 87.7918 53.5847 87.3575 53.5847ZM95.8689 48.9852H76.5012C76.067 48.9852 75.7196 48.6381 75.7196 48.2042C75.7196 47.7703 76.067 47.4232 76.5012 47.4232H95.8689C96.3032 47.4232 96.6506 47.7703 96.6506 48.2042C96.6506 48.6381 96.3032 48.9852 95.8689 48.9852ZM95.8689 44.3858H76.5012C76.067 44.3858 75.7196 44.0386 75.7196 43.6047C75.7196 43.1708 76.067 42.8237 76.5012 42.8237H95.8689C96.3032 42.8237 96.6506 43.1708 96.6506 43.6047C96.6506 44.0386 96.3032 44.3858 95.8689 44.3858Z" fill="#4C0788"/>
<path d="M79.2806 86.1284C81.7125 86.1284 83.6232 84.2192 83.6232 81.7893C83.6232 79.3594 81.7125 77.4501 79.2806 77.4501C76.8488 77.4501 74.9381 79.3594 74.9381 81.7893C74.9381 84.2192 76.9357 86.1284 79.2806 86.1284ZM79.2806 79.6197C80.4966 79.6197 81.4519 80.5743 81.4519 81.7893C81.4519 83.0042 80.4966 83.9588 79.2806 83.9588C78.0647 83.9588 77.1094 83.0042 77.1094 81.7893C77.1094 80.5743 78.1516 79.6197 79.2806 79.6197Z" fill="white"/>
<path d="M79.5028 23.6423C79.9345 23.6423 80.2845 23.2926 80.2845 22.8612C80.2845 22.4299 79.9345 22.0802 79.5028 22.0802C79.0712 22.0802 78.7212 22.4299 78.7212 22.8612C78.7212 23.2926 79.0712 23.6423 79.5028 23.6423Z" fill="white"/>
<path d="M82.1886 25.2006H76.2947C75.688 25.2006 75.2546 25.634 75.2546 26.0674C75.2546 26.573 75.7747 26.9341 76.2947 26.9341H82.1886C82.7953 26.9341 83.2287 26.5007 83.2287 26.0674C83.2287 25.634 82.7953 25.2006 82.1886 25.2006Z" fill="white"/>
<g filter="url(#filter0_d)">
<path fill-rule="evenodd" clip-rule="evenodd" d="M101.43 41.1484C103.632 41.1484 105.417 39.3634 105.417 37.1614C105.417 34.9594 103.632 33.1744 101.43 33.1744C99.2282 33.1744 97.4431 34.9594 97.4431 37.1614C97.4431 39.3634 99.2282 41.1484 101.43 41.1484Z" fill="#E81B13"/>
</g>
<path fill-rule="evenodd" clip-rule="evenodd" d="M101.43 38.375C102.1 38.375 102.644 37.8317 102.644 37.1616C102.644 36.4914 102.1 35.9481 101.43 35.9481C100.76 35.9481 100.217 36.4914 100.217 37.1616C100.217 37.8317 100.76 38.375 101.43 38.375Z" fill="white"/>
<path d="M15.1878 147.103V148.525H8.9958V152.809H14.0088V154.177H8.9958V158.578H15.1878V160H7.2408V147.103H15.1878ZM17.4478 160V150.883H18.4018C18.6298 150.883 18.7738 150.994 18.8338 151.216L18.9598 152.206C19.3558 151.768 19.7968 151.414 20.2828 151.144C20.7748 150.874 21.3418 150.739 21.9838 150.739C22.4818 150.739 22.9198 150.823 23.2978 150.991C23.6818 151.153 23.9998 151.387 24.2518 151.693C24.5098 151.993 24.7048 152.356 24.8368 152.782C24.9688 153.208 25.0348 153.679 25.0348 154.195V160H23.4328V154.195C23.4328 153.505 23.2738 152.971 22.9558 152.593C22.6438 152.209 22.1638 152.017 21.5158 152.017C21.0418 152.017 20.5978 152.131 20.1838 152.359C19.7758 152.587 19.3978 152.896 19.0498 153.286V160H17.4478ZM26.0165 150.883H27.3305C27.4565 150.883 27.5615 150.916 27.6455 150.982C27.7295 151.048 27.7895 151.126 27.8255 151.216L30.1385 157.084C30.2225 157.3 30.2885 157.516 30.3365 157.732C30.3845 157.948 30.4295 158.161 30.4715 158.371C30.5195 158.161 30.5705 157.948 30.6245 157.732C30.6785 157.516 30.7475 157.3 30.8315 157.084L33.1715 151.216C33.2075 151.12 33.2645 151.042 33.3425 150.982C33.4265 150.916 33.5285 150.883 33.6485 150.883H34.8995L31.1825 160H29.7335L26.0165 150.883ZM38.1614 150.883V160H36.5594V150.883H38.1614ZM38.5214 148.021C38.5214 148.177 38.4884 148.324 38.4224 148.462C38.3624 148.594 38.2784 148.714 38.1704 148.822C38.0684 148.924 37.9484 149.005 37.8104 149.065C37.6724 149.125 37.5254 149.155 37.3694 149.155C37.2134 149.155 37.0664 149.125 36.9284 149.065C36.7964 149.005 36.6764 148.924 36.5684 148.822C36.4664 148.714 36.3854 148.594 36.3254 148.462C36.2654 148.324 36.2354 148.177 36.2354 148.021C36.2354 147.865 36.2654 147.718 36.3254 147.58C36.3854 147.436 36.4664 147.313 36.5684 147.211C36.6764 147.103 36.7964 147.019 36.9284 146.959C37.0664 146.899 37.2134 146.869 37.3694 146.869C37.5254 146.869 37.6724 146.899 37.8104 146.959C37.9484 147.019 38.0684 147.103 38.1704 147.211C38.2784 147.313 38.3624 147.436 38.4224 147.58C38.4884 147.718 38.5214 147.865 38.5214 148.021ZM44.5939 150.739C45.1399 150.739 45.6439 150.832 46.1059 151.018C46.5679 151.198 46.9669 151.462 47.3029 151.81C47.6389 152.152 47.8999 152.578 48.0859 153.088C48.2779 153.592 48.3739 154.168 48.3739 154.816C48.3739 155.068 48.3469 155.236 48.2929 155.32C48.2389 155.404 48.1369 155.446 47.9869 155.446H41.9209C41.9329 156.022 42.0109 156.523 42.1549 156.949C42.2989 157.375 42.4969 157.732 42.7489 158.02C43.0009 158.302 43.3009 158.515 43.6489 158.659C43.9969 158.797 44.3869 158.866 44.8189 158.866C45.2209 158.866 45.5659 158.821 45.8539 158.731C46.1479 158.635 46.3999 158.533 46.6099 158.425C46.8199 158.317 46.9939 158.218 47.1319 158.128C47.2759 158.032 47.3989 157.984 47.5009 157.984C47.6329 157.984 47.7349 158.035 47.8069 158.137L48.2569 158.722C48.0589 158.962 47.8219 159.172 47.5459 159.352C47.2699 159.526 46.9729 159.67 46.6549 159.784C46.3429 159.898 46.0189 159.982 45.6829 160.036C45.3469 160.096 45.0139 160.126 44.6839 160.126C44.0539 160.126 43.4719 160.021 42.9379 159.811C42.4099 159.595 41.9509 159.283 41.5609 158.875C41.1769 158.461 40.8769 157.951 40.6609 157.345C40.4449 156.739 40.3369 156.043 40.3369 155.257C40.3369 154.621 40.4329 154.027 40.6249 153.475C40.8229 152.923 41.1049 152.446 41.4709 152.044C41.8369 151.636 42.2839 151.318 42.8119 151.09C43.3399 150.856 43.9339 150.739 44.5939 150.739ZM44.6299 151.918C43.8559 151.918 43.2469 152.143 42.8029 152.593C42.3589 153.037 42.0829 153.655 41.9749 154.447H46.9339C46.9339 154.075 46.8829 153.736 46.7809 153.43C46.6789 153.118 46.5289 152.851 46.3309 152.629C46.1329 152.401 45.8899 152.227 45.6019 152.107C45.3199 151.981 44.9959 151.918 44.6299 151.918ZM57.1513 160V150.667H58.8793C59.0533 150.667 59.1973 150.706 59.3113 150.784C59.4313 150.862 59.5153 150.979 59.5633 151.135L59.7253 151.675C59.9053 151.507 60.0913 151.351 60.2833 151.207C60.4753 151.063 60.6793 150.943 60.8953 150.847C61.1173 150.745 61.3543 150.667 61.6063 150.613C61.8643 150.553 62.1433 150.523 62.4433 150.523C62.9533 150.523 63.4033 150.613 63.7933 150.793C64.1893 150.967 64.5223 151.213 64.7923 151.531C65.0623 151.843 65.2663 152.218 65.4043 152.656C65.5423 153.088 65.6113 153.559 65.6113 154.069V160H62.8213V154.069C62.8213 153.613 62.7163 153.259 62.5063 153.007C62.2963 152.749 61.9873 152.62 61.5793 152.62C61.2733 152.62 60.9853 152.686 60.7153 152.818C60.4453 152.95 60.1873 153.127 59.9413 153.349V160H57.1513ZM74.0367 160C73.7727 160 73.5717 159.964 73.4337 159.892C73.3017 159.82 73.1907 159.67 73.1007 159.442L72.9027 158.929C72.6687 159.127 72.4437 159.301 72.2277 159.451C72.0117 159.601 71.7867 159.73 71.5527 159.838C71.3247 159.94 71.0787 160.015 70.8147 160.063C70.5567 160.117 70.2687 160.144 69.9507 160.144C69.5247 160.144 69.1377 160.09 68.7897 159.982C68.4417 159.868 68.1447 159.703 67.8987 159.487C67.6587 159.271 67.4727 159.004 67.3407 158.686C67.2087 158.362 67.1427 157.99 67.1427 157.57C67.1427 157.24 67.2267 156.901 67.3947 156.553C67.5627 156.205 67.8537 155.89 68.2677 155.608C68.6817 155.32 69.2397 155.08 69.9417 154.888C70.6437 154.696 71.5287 154.588 72.5967 154.564V154.168C72.5967 153.622 72.4827 153.229 72.2547 152.989C72.0327 152.743 71.7147 152.62 71.3007 152.62C70.9707 152.62 70.7007 152.656 70.4907 152.728C70.2807 152.8 70.0917 152.881 69.9237 152.971C69.7617 153.061 69.6027 153.142 69.4467 153.214C69.2907 153.286 69.1047 153.322 68.8887 153.322C68.6967 153.322 68.5317 153.277 68.3937 153.187C68.2617 153.091 68.1567 152.974 68.0787 152.836L67.5747 151.963C68.1387 151.465 68.7627 151.096 69.4467 150.856C70.1367 150.61 70.8747 150.487 71.6607 150.487C72.2247 150.487 72.7317 150.58 73.1817 150.766C73.6377 150.946 74.0217 151.201 74.3337 151.531C74.6517 151.855 74.8947 152.242 75.0627 152.692C75.2307 153.142 75.3147 153.634 75.3147 154.168V160H74.0367ZM70.8327 158.299C71.1927 158.299 71.5077 158.236 71.7777 158.11C72.0477 157.984 72.3207 157.78 72.5967 157.498V156.202C72.0387 156.226 71.5797 156.274 71.2197 156.346C70.8597 156.418 70.5747 156.508 70.3647 156.616C70.1547 156.724 70.0077 156.847 69.9237 156.985C69.8457 157.123 69.8067 157.273 69.8067 157.435C69.8067 157.753 69.8937 157.978 70.0677 158.11C70.2417 158.236 70.4967 158.299 70.8327 158.299ZM77.7098 160V152.584L77.0978 152.458C76.8878 152.41 76.7168 152.335 76.5848 152.233C76.4588 152.131 76.3958 151.981 76.3958 151.783V150.685H77.7098V150.55C77.7098 149.986 77.8058 149.455 77.9978 148.957C78.1958 148.453 78.4988 148.018 78.9068 147.652C79.3148 147.28 79.8338 146.986 80.4638 146.77C81.0998 146.554 81.8558 146.446 82.7318 146.446C83.0018 146.446 83.2808 146.461 83.5688 146.491C83.8568 146.515 84.1058 146.554 84.3158 146.608L84.2258 148.021C84.2138 148.171 84.1388 148.27 84.0008 148.318C83.8628 148.366 83.7158 148.39 83.5598 148.39C82.9358 148.39 82.4198 148.438 82.0118 148.534C81.6038 148.63 81.2798 148.774 81.0398 148.966C80.8058 149.152 80.6408 149.386 80.5448 149.668C80.4548 149.95 80.4098 150.274 80.4098 150.64V150.685H86.3318V160H83.5418V152.593H80.4998V160H77.7098ZM91.4961 146.527V160H88.7061V146.527H91.4961ZM100.193 160C99.9289 160 99.7279 159.964 99.5899 159.892C99.4579 159.82 99.3469 159.67 99.2569 159.442L99.0589 158.929C98.8249 159.127 98.5999 159.301 98.3839 159.451C98.1679 159.601 97.9429 159.73 97.7089 159.838C97.4809 159.94 97.2349 160.015 96.9709 160.063C96.7129 160.117 96.4249 160.144 96.1069 160.144C95.6809 160.144 95.2939 160.09 94.9459 159.982C94.5979 159.868 94.3009 159.703 94.0549 159.487C93.8149 159.271 93.6289 159.004 93.4969 158.686C93.3649 158.362 93.2989 157.99 93.2989 157.57C93.2989 157.24 93.3829 156.901 93.5509 156.553C93.7189 156.205 94.0099 155.89 94.4239 155.608C94.8379 155.32 95.3959 155.08 96.0979 154.888C96.7999 154.696 97.6849 154.588 98.7529 154.564V154.168C98.7529 153.622 98.6389 153.229 98.4109 152.989C98.1889 152.743 97.8709 152.62 97.4569 152.62C97.1269 152.62 96.8569 152.656 96.6469 152.728C96.4369 152.8 96.2479 152.881 96.0799 152.971C95.9179 153.061 95.7589 153.142 95.6029 153.214C95.4469 153.286 95.2609 153.322 95.0449 153.322C94.8529 153.322 94.6879 153.277 94.5499 153.187C94.4179 153.091 94.3129 152.974 94.2349 152.836L93.7309 151.963C94.2949 151.465 94.9189 151.096 95.6029 150.856C96.2929 150.61 97.0309 150.487 97.8169 150.487C98.3809 150.487 98.8879 150.58 99.3379 150.766C99.7939 150.946 100.178 151.201 100.49 151.531C100.808 151.855 101.051 152.242 101.219 152.692C101.387 153.142 101.471 153.634 101.471 154.168V160H100.193ZM96.9889 158.299C97.3489 158.299 97.6639 158.236 97.9339 158.11C98.2039 157.984 98.4769 157.78 98.7529 157.498V156.202C98.1949 156.226 97.7359 156.274 97.3759 156.346C97.0159 156.418 96.7309 156.508 96.5209 156.616C96.3109 156.724 96.1639 156.847 96.0799 156.985C96.0019 157.123 95.9629 157.273 95.9629 157.435C95.9629 157.753 96.0499 157.978 96.2239 158.11C96.3979 158.236 96.6529 158.299 96.9889 158.299ZM115.375 146.887V149.227H109.993V152.287H114.115V154.537H109.993V157.66H115.375V160H106.933V146.887H115.375ZM121.7 146.743C122.348 146.743 122.924 146.836 123.428 147.022C123.932 147.202 124.358 147.448 124.706 147.76C125.054 148.072 125.318 148.435 125.498 148.849C125.678 149.257 125.768 149.689 125.768 150.145C125.768 150.559 125.726 150.925 125.642 151.243C125.558 151.555 125.432 151.828 125.264 152.062C125.102 152.29 124.898 152.485 124.652 152.647C124.412 152.809 124.136 152.944 123.824 153.052C125.276 153.556 126.002 154.543 126.002 156.013C126.002 156.709 125.876 157.315 125.624 157.831C125.372 158.347 125.033 158.776 124.607 159.118C124.187 159.46 123.698 159.718 123.14 159.892C122.582 160.06 122 160.144 121.394 160.144C120.77 160.144 120.215 160.078 119.729 159.946C119.243 159.808 118.811 159.598 118.433 159.316C118.055 159.028 117.722 158.662 117.434 158.218C117.152 157.774 116.906 157.246 116.696 156.634L117.938 156.13C118.046 156.082 118.151 156.049 118.253 156.031C118.361 156.013 118.466 156.004 118.568 156.004C118.76 156.004 118.931 156.043 119.081 156.121C119.237 156.193 119.354 156.301 119.432 156.445C119.702 156.943 119.987 157.306 120.287 157.534C120.593 157.756 120.95 157.867 121.358 157.867C121.67 157.867 121.94 157.816 122.168 157.714C122.402 157.606 122.594 157.471 122.744 157.309C122.9 157.141 123.017 156.952 123.095 156.742C123.173 156.532 123.212 156.319 123.212 156.103C123.212 155.821 123.191 155.569 123.149 155.347C123.113 155.119 123.005 154.924 122.825 154.762C122.645 154.6 122.372 154.477 122.006 154.393C121.646 154.303 121.142 154.258 120.494 154.258V152.332C121.04 152.332 121.481 152.29 121.817 152.206C122.153 152.122 122.411 152.008 122.591 151.864C122.777 151.714 122.9 151.534 122.96 151.324C123.02 151.114 123.05 150.883 123.05 150.631C123.05 150.115 122.924 149.719 122.672 149.443C122.426 149.161 122.048 149.02 121.538 149.02C121.328 149.02 121.136 149.05 120.962 149.11C120.788 149.17 120.632 149.251 120.494 149.353C120.356 149.455 120.236 149.575 120.134 149.713C120.038 149.851 119.96 150.001 119.9 150.163C119.804 150.433 119.681 150.628 119.531 150.748C119.387 150.868 119.189 150.928 118.937 150.928C118.877 150.928 118.811 150.925 118.739 150.919C118.673 150.913 118.604 150.904 118.532 150.892L117.056 150.631C117.152 149.977 117.335 149.407 117.605 148.921C117.881 148.435 118.22 148.03 118.622 147.706C119.03 147.382 119.495 147.142 120.017 146.986C120.539 146.824 121.1 146.743 121.7 146.743ZM130.594 155.149V160H127.552V146.887H131.818C132.766 146.887 133.573 146.986 134.239 147.184C134.911 147.376 135.457 147.646 135.877 147.994C136.303 148.342 136.612 148.753 136.804 149.227C136.996 149.701 137.092 150.217 137.092 150.775C137.092 151.201 137.035 151.603 136.921 151.981C136.807 152.359 136.636 152.71 136.408 153.034C136.186 153.352 135.91 153.637 135.58 153.889C135.256 154.141 134.881 154.348 134.455 154.51C134.659 154.612 134.848 154.738 135.022 154.888C135.202 155.038 135.358 155.221 135.49 155.437L138.28 160H135.526C135.016 160 134.65 159.808 134.428 159.424L132.25 155.617C132.154 155.449 132.04 155.329 131.908 155.257C131.782 155.185 131.602 155.149 131.368 155.149H130.594ZM130.594 153.052H131.818C132.232 153.052 132.583 153.001 132.871 152.899C133.165 152.791 133.405 152.644 133.591 152.458C133.777 152.272 133.912 152.056 133.996 151.81C134.08 151.558 134.122 151.288 134.122 151C134.122 150.424 133.933 149.974 133.555 149.65C133.183 149.326 132.604 149.164 131.818 149.164H130.594V153.052ZM147.226 154.906H148.576V156.472C148.576 156.61 148.528 156.73 148.432 156.832C148.342 156.934 148.21 156.985 148.036 156.985H147.226V160H144.796V156.985H139.522C139.348 156.985 139.189 156.931 139.045 156.823C138.907 156.715 138.82 156.58 138.784 156.418L138.496 155.041L144.562 146.887H147.226V154.906ZM144.796 151.486C144.796 151.276 144.802 151.051 144.814 150.811C144.832 150.565 144.856 150.313 144.886 150.055L141.421 154.906H144.796V151.486ZM157.866 148.039C157.866 148.231 157.836 148.405 157.776 148.561C157.716 148.717 157.62 148.855 157.488 148.975C157.362 149.089 157.194 149.179 156.984 149.245C156.774 149.305 156.522 149.335 156.228 149.335H153.096L152.727 151.504C152.973 151.462 153.21 151.432 153.438 151.414C153.666 151.39 153.888 151.378 154.104 151.378C154.794 151.378 155.403 151.483 155.931 151.693C156.459 151.903 156.903 152.191 157.263 152.557C157.623 152.917 157.893 153.343 158.073 153.835C158.259 154.321 158.352 154.843 158.352 155.401C158.352 156.103 158.226 156.745 157.974 157.327C157.728 157.903 157.383 158.401 156.939 158.821C156.495 159.241 155.964 159.568 155.346 159.802C154.734 160.03 154.062 160.144 153.33 160.144C152.904 160.144 152.496 160.099 152.106 160.009C151.722 159.919 151.359 159.799 151.017 159.649C150.681 159.493 150.369 159.316 150.081 159.118C149.793 158.914 149.532 158.698 149.298 158.47L150.162 157.318C150.252 157.198 150.357 157.108 150.477 157.048C150.597 156.982 150.726 156.949 150.864 156.949C151.044 156.949 151.212 157 151.368 157.102C151.53 157.198 151.704 157.306 151.89 157.426C152.082 157.54 152.304 157.645 152.556 157.741C152.808 157.837 153.12 157.885 153.492 157.885C153.864 157.885 154.182 157.825 154.446 157.705C154.71 157.579 154.923 157.411 155.085 157.201C155.253 156.985 155.373 156.736 155.445 156.454C155.523 156.166 155.562 155.86 155.562 155.536C155.562 154.9 155.382 154.417 155.022 154.087C154.662 153.751 154.152 153.583 153.492 153.583C152.904 153.583 152.328 153.694 151.764 153.916L150.036 153.448L151.152 146.887H157.866V148.039ZM38.6382 185.087V172.883H39.5922C39.8202 172.883 39.9642 172.994 40.0242 173.216L40.1592 174.296C40.5492 173.822 40.9932 173.441 41.4912 173.153C41.9952 172.865 42.5742 172.721 43.2282 172.721C43.7502 172.721 44.2242 172.823 44.6502 173.027C45.0762 173.225 45.4392 173.522 45.7392 173.918C46.0392 174.308 46.2702 174.794 46.4322 175.376C46.5942 175.958 46.6752 176.627 46.6752 177.383C46.6752 178.055 46.5852 178.682 46.4052 179.264C46.2252 179.84 45.9672 180.341 45.6312 180.767C45.2952 181.187 44.8812 181.52 44.3892 181.766C43.9032 182.006 43.3542 182.126 42.7422 182.126C42.1782 182.126 41.6952 182.033 41.2932 181.847C40.8972 181.661 40.5462 181.397 40.2402 181.055V185.087H38.6382ZM42.6972 174.017C42.1752 174.017 41.7162 174.137 41.3202 174.377C40.9302 174.617 40.5702 174.956 40.2402 175.394V179.804C40.5342 180.2 40.8552 180.479 41.2032 180.641C41.5572 180.803 41.9502 180.884 42.3822 180.884C43.2282 180.884 43.8792 180.581 44.3352 179.975C44.7912 179.369 45.0192 178.505 45.0192 177.383C45.0192 176.789 44.9652 176.279 44.8572 175.853C44.7552 175.427 44.6052 175.079 44.4072 174.809C44.2092 174.533 43.9662 174.332 43.6782 174.206C43.3902 174.08 43.0632 174.017 42.6972 174.017ZM55.2659 182H54.5549C54.3989 182 54.2729 181.976 54.1769 181.928C54.0809 181.88 54.0179 181.778 53.9879 181.622L53.8079 180.776C53.5679 180.992 53.3339 181.187 53.1059 181.361C52.8779 181.529 52.6379 181.673 52.3859 181.793C52.1339 181.907 51.8639 181.994 51.5759 182.054C51.2939 182.114 50.9789 182.144 50.6309 182.144C50.2769 182.144 49.9439 182.096 49.6319 182C49.3259 181.898 49.0589 181.748 48.8309 181.55C48.6029 181.352 48.4199 181.103 48.2819 180.803C48.1499 180.497 48.0839 180.137 48.0839 179.723C48.0839 179.363 48.1829 179.018 48.3809 178.688C48.5789 178.352 48.8969 178.055 49.3349 177.797C49.7789 177.539 50.3579 177.329 51.0719 177.167C51.7859 176.999 52.6589 176.903 53.6909 176.879V176.168C53.6909 175.46 53.5379 174.926 53.2319 174.566C52.9319 174.2 52.4849 174.017 51.8909 174.017C51.5009 174.017 51.1709 174.068 50.9009 174.17C50.6369 174.266 50.4059 174.377 50.2079 174.503C50.0159 174.623 49.8479 174.734 49.7039 174.836C49.5659 174.932 49.4279 174.98 49.2899 174.98C49.1819 174.98 49.0859 174.953 49.0019 174.899C48.9239 174.839 48.8609 174.767 48.8129 174.683L48.5249 174.17C49.0289 173.684 49.5719 173.321 50.1539 173.081C50.7359 172.841 51.3809 172.721 52.0889 172.721C52.5989 172.721 53.0519 172.805 53.4479 172.973C53.8439 173.141 54.1769 173.375 54.4469 173.675C54.7169 173.975 54.9209 174.338 55.0589 174.764C55.1969 175.19 55.2659 175.658 55.2659 176.168V182ZM51.1079 181.019C51.3899 181.019 51.6479 180.992 51.8819 180.938C52.1159 180.878 52.3349 180.797 52.5389 180.695C52.7489 180.587 52.9469 180.458 53.1329 180.308C53.3249 180.158 53.5109 179.987 53.6909 179.795V177.896C52.9529 177.92 52.3259 177.98 51.8099 178.076C51.2939 178.166 50.8739 178.286 50.5499 178.436C50.2259 178.586 49.9889 178.763 49.8389 178.967C49.6949 179.171 49.6229 179.399 49.6229 179.651C49.6229 179.891 49.6619 180.098 49.7399 180.272C49.8179 180.446 49.9229 180.59 50.0549 180.704C50.1869 180.812 50.3429 180.893 50.5229 180.947C50.7029 180.995 50.8979 181.019 51.1079 181.019ZM57.6929 182V172.883H58.6109C58.7849 172.883 58.9049 172.916 58.9709 172.982C59.0369 173.048 59.0819 173.162 59.1059 173.324L59.2139 174.746C59.5259 174.11 59.9099 173.615 60.3659 173.261C60.8279 172.901 61.3679 172.721 61.9859 172.721C62.2379 172.721 62.4659 172.751 62.6699 172.811C62.8739 172.865 63.0629 172.943 63.2369 173.045L63.0299 174.242C62.9879 174.392 62.8949 174.467 62.7509 174.467C62.6669 174.467 62.5379 174.44 62.3639 174.386C62.1899 174.326 61.9469 174.296 61.6349 174.296C61.0769 174.296 60.6089 174.458 60.2309 174.782C59.8589 175.106 59.5469 175.577 59.2949 176.195V182H57.6929ZM71.3147 182H70.6037C70.4477 182 70.3217 181.976 70.2257 181.928C70.1297 181.88 70.0667 181.778 70.0367 181.622L69.8567 180.776C69.6167 180.992 69.3827 181.187 69.1547 181.361C68.9267 181.529 68.6867 181.673 68.4347 181.793C68.1827 181.907 67.9127 181.994 67.6247 182.054C67.3427 182.114 67.0277 182.144 66.6797 182.144C66.3257 182.144 65.9927 182.096 65.6807 182C65.3747 181.898 65.1077 181.748 64.8797 181.55C64.6517 181.352 64.4687 181.103 64.3307 180.803C64.1987 180.497 64.1327 180.137 64.1327 179.723C64.1327 179.363 64.2317 179.018 64.4297 178.688C64.6277 178.352 64.9457 178.055 65.3837 177.797C65.8277 177.539 66.4067 177.329 67.1207 177.167C67.8347 176.999 68.7077 176.903 69.7397 176.879V176.168C69.7397 175.46 69.5867 174.926 69.2807 174.566C68.9807 174.2 68.5337 174.017 67.9397 174.017C67.5497 174.017 67.2197 174.068 66.9497 174.17C66.6857 174.266 66.4547 174.377 66.2567 174.503C66.0647 174.623 65.8967 174.734 65.7527 174.836C65.6147 174.932 65.4767 174.98 65.3387 174.98C65.2307 174.98 65.1347 174.953 65.0507 174.899C64.9727 174.839 64.9097 174.767 64.8617 174.683L64.5737 174.17C65.0777 173.684 65.6207 173.321 66.2027 173.081C66.7847 172.841 67.4297 172.721 68.1377 172.721C68.6477 172.721 69.1007 172.805 69.4967 172.973C69.8927 173.141 70.2257 173.375 70.4957 173.675C70.7657 173.975 70.9697 174.338 71.1077 174.764C71.2457 175.19 71.3147 175.658 71.3147 176.168V182ZM67.1567 181.019C67.4387 181.019 67.6967 180.992 67.9307 180.938C68.1647 180.878 68.3837 180.797 68.5877 180.695C68.7977 180.587 68.9957 180.458 69.1817 180.308C69.3737 180.158 69.5597 179.987 69.7397 179.795V177.896C69.0017 177.92 68.3747 177.98 67.8587 178.076C67.3427 178.166 66.9227 178.286 66.5987 178.436C66.2747 178.586 66.0377 178.763 65.8877 178.967C65.7437 179.171 65.6717 179.399 65.6717 179.651C65.6717 179.891 65.7107 180.098 65.7887 180.272C65.8667 180.446 65.9717 180.59 66.1037 180.704C66.2357 180.812 66.3917 180.893 66.5717 180.947C66.7517 180.995 66.9467 181.019 67.1567 181.019ZM80.9122 172.739C81.5782 172.739 82.1782 172.85 82.7122 173.072C83.2522 173.294 83.7082 173.609 84.0802 174.017C84.4582 174.425 84.7462 174.92 84.9442 175.502C85.1482 176.078 85.2502 176.723 85.2502 177.437C85.2502 178.157 85.1482 178.805 84.9442 179.381C84.7462 179.957 84.4582 180.449 84.0802 180.857C83.7082 181.265 83.2522 181.58 82.7122 181.802C82.1782 182.018 81.5782 182.126 80.9122 182.126C80.2462 182.126 79.6432 182.018 79.1032 181.802C78.5692 181.58 78.1132 181.265 77.7352 180.857C77.3572 180.449 77.0662 179.957 76.8622 179.381C76.6582 178.805 76.5562 178.157 76.5562 177.437C76.5562 176.723 76.6582 176.078 76.8622 175.502C77.0662 174.92 77.3572 174.425 77.7352 174.017C78.1132 173.609 78.5692 173.294 79.1032 173.072C79.6432 172.85 80.2462 172.739 80.9122 172.739ZM80.9122 180.875C81.8122 180.875 82.4842 180.575 82.9282 179.975C83.3722 179.369 83.5942 178.526 83.5942 177.446C83.5942 176.36 83.3722 175.514 82.9282 174.908C82.4842 174.302 81.8122 173.999 80.9122 173.999C80.4562 173.999 80.0602 174.077 79.7242 174.233C79.3882 174.389 79.1062 174.614 78.8782 174.908C78.6562 175.202 78.4882 175.565 78.3742 175.997C78.2662 176.423 78.2122 176.906 78.2122 177.446C78.2122 177.986 78.2662 178.469 78.3742 178.895C78.4882 179.321 78.6562 179.681 78.8782 179.975C79.1062 180.263 79.3882 180.485 79.7242 180.641C80.0602 180.797 80.4562 180.875 80.9122 180.875ZM98.1746 176.906H99.5246V178.472C99.5246 178.61 99.4766 178.73 99.3806 178.832C99.2906 178.934 99.1586 178.985 98.9846 178.985H98.1746V182H95.7446V178.985H90.4706C90.2966 178.985 90.1376 178.931 89.9936 178.823C89.8556 178.715 89.7686 178.58 89.7326 178.418L89.4446 177.041L95.5106 168.887H98.1746V176.906ZM95.7446 173.486C95.7446 173.276 95.7506 173.051 95.7626 172.811C95.7806 172.565 95.8046 172.313 95.8346 172.055L92.3696 176.906H95.7446V173.486ZM104.44 176.888C104.014 176.888 103.588 176.813 103.162 176.663C102.736 176.507 102.349 176.273 102.001 175.961C101.659 175.649 101.38 175.256 101.164 174.782C100.948 174.308 100.84 173.747 100.84 173.099C100.84 172.505 100.948 171.944 101.164 171.416C101.386 170.888 101.698 170.426 102.1 170.03C102.508 169.634 102.994 169.322 103.558 169.094C104.122 168.86 104.752 168.743 105.448 168.743C106.156 168.743 106.789 168.851 107.347 169.067C107.905 169.283 108.376 169.586 108.76 169.976C109.15 170.366 109.447 170.831 109.651 171.371C109.861 171.905 109.966 172.496 109.966 173.144C109.966 173.576 109.93 173.981 109.858 174.359C109.792 174.737 109.696 175.1 109.57 175.448C109.45 175.79 109.303 176.12 109.129 176.438C108.955 176.75 108.76 177.059 108.544 177.365L105.718 181.379C105.598 181.553 105.409 181.7 105.151 181.82C104.893 181.94 104.602 182 104.278 182H101.704L105.862 177.032C105.946 176.93 106.024 176.834 106.096 176.744C106.174 176.648 106.249 176.552 106.321 176.456C106.051 176.6 105.757 176.708 105.439 176.78C105.121 176.852 104.788 176.888 104.44 176.888ZM107.302 172.892C107.302 172.574 107.254 172.295 107.158 172.055C107.068 171.809 106.939 171.605 106.771 171.443C106.609 171.281 106.411 171.158 106.177 171.074C105.943 170.99 105.688 170.948 105.412 170.948C105.13 170.948 104.878 170.999 104.656 171.101C104.44 171.197 104.254 171.332 104.098 171.506C103.948 171.68 103.831 171.887 103.747 172.127C103.669 172.361 103.63 172.616 103.63 172.892C103.63 174.2 104.236 174.854 105.448 174.854C106.042 174.854 106.498 174.677 106.816 174.323C107.14 173.963 107.302 173.486 107.302 172.892ZM120.353 175.439C120.353 176.585 120.23 177.578 119.984 178.418C119.738 179.258 119.396 179.954 118.958 180.506C118.526 181.058 118.01 181.469 117.41 181.739C116.816 182.009 116.171 182.144 115.475 182.144C114.779 182.144 114.134 182.009 113.54 181.739C112.952 181.469 112.442 181.058 112.01 180.506C111.578 179.954 111.239 179.258 110.993 178.418C110.753 177.578 110.633 176.585 110.633 175.439C110.633 174.293 110.753 173.3 110.993 172.46C111.239 171.62 111.578 170.924 112.01 170.372C112.442 169.82 112.952 169.412 113.54 169.148C114.134 168.878 114.779 168.743 115.475 168.743C116.171 168.743 116.816 168.878 117.41 169.148C118.01 169.412 118.526 169.82 118.958 170.372C119.396 170.924 119.738 171.62 119.984 172.46C120.23 173.3 120.353 174.293 120.353 175.439ZM117.473 175.439C117.473 174.533 117.416 173.792 117.302 173.216C117.188 172.634 117.035 172.178 116.843 171.848C116.657 171.518 116.444 171.293 116.204 171.173C115.964 171.047 115.721 170.984 115.475 170.984C115.229 170.984 114.986 171.047 114.746 171.173C114.512 171.293 114.302 171.518 114.116 171.848C113.936 172.178 113.789 172.634 113.675 173.216C113.567 173.792 113.513 174.533 113.513 175.439C113.513 176.351 113.567 177.095 113.675 177.671C113.789 178.247 113.936 178.703 114.116 179.039C114.302 179.369 114.512 179.597 114.746 179.723C114.986 179.843 115.229 179.903 115.475 179.903C115.721 179.903 115.964 179.843 116.204 179.723C116.444 179.597 116.657 179.369 116.843 179.039C117.035 178.703 117.188 178.247 117.302 177.671C117.416 177.095 117.473 176.351 117.473 175.439ZM126.133 168.743C126.781 168.743 127.363 168.839 127.879 169.031C128.401 169.217 128.845 169.478 129.211 169.814C129.577 170.15 129.856 170.552 130.048 171.02C130.246 171.482 130.345 171.992 130.345 172.55C130.345 173.03 130.276 173.474 130.138 173.882C130.006 174.29 129.823 174.68 129.589 175.052C129.355 175.418 129.082 175.775 128.77 176.123C128.464 176.465 128.137 176.813 127.789 177.167L125.224 179.795C125.554 179.699 125.878 179.624 126.196 179.57C126.52 179.51 126.823 179.48 127.105 179.48H129.553C129.853 179.48 130.09 179.564 130.264 179.732C130.438 179.894 130.525 180.11 130.525 180.38V182H121.309V181.1C121.309 180.926 121.345 180.74 121.417 180.542C121.489 180.344 121.615 180.164 121.795 180.002L125.575 176.195C125.899 175.871 126.181 175.562 126.421 175.268C126.661 174.974 126.859 174.686 127.015 174.404C127.171 174.116 127.288 173.831 127.366 173.549C127.444 173.261 127.483 172.958 127.483 172.64C127.483 172.118 127.357 171.719 127.105 171.443C126.859 171.161 126.481 171.02 125.971 171.02C125.761 171.02 125.569 171.05 125.395 171.11C125.221 171.17 125.065 171.251 124.927 171.353C124.789 171.455 124.669 171.575 124.567 171.713C124.471 171.851 124.393 172.001 124.333 172.163C124.237 172.433 124.114 172.628 123.964 172.748C123.82 172.868 123.622 172.928 123.37 172.928C123.31 172.928 123.244 172.925 123.172 172.919C123.106 172.913 123.037 172.904 122.965 172.892L121.489 172.631C121.585 171.977 121.768 171.407 122.038 170.921C122.314 170.435 122.653 170.03 123.055 169.706C123.463 169.382 123.928 169.142 124.45 168.986C124.972 168.824 125.533 168.743 126.133 168.743Z" fill="black"/>
<defs>
<filter id="filter0_d" x="78.4431" y="25.1744" width="45.974" height="45.974" filterUnits="userSpaceOnUse" color-interpolation-filters="sRGB">
<feFlood flood-opacity="0" result="BackgroundImageFix"/>
<feColorMatrix in="SourceAlpha" type="matrix" values="0 0 0 0 0 0 0 0 0 0 0 0 0 0 0 0 0 0 127 0"/>
<feOffset dy="11"/>
<feGaussianBlur stdDeviation="9.5"/>
<feColorMatrix type="matrix" values="0 0 0 0 0 0 0 0 0 0 0 0 0 0 0 0 0 0 0.130081 0"/>
<feBlend mode="normal" in2="BackgroundImageFix" result="effect1_dropShadow"/>
<feBlend mode="normal" in="SourceGraphic" in2="effect1_dropShadow" result="shape"/>
</filter>
</defs>
</svg>
