<svg width="110" height="110" viewBox="0 0 110 110" fill="none" xmlns="http://www.w3.org/2000/svg">
<path d="M70.7354 35.187C70.7354 35.1002 70.7354 35.1002 70.7354 35.0134V26.3351C70.7354 22.8638 67.8693 20 64.3953 20H38.3401C34.8661 20 32 22.8638 32 26.3351V83.0042C32 86.4755 34.8661 89.3393 38.3401 89.3393H64.3953C67.8693 89.3393 70.7354 86.4755 70.7354 83.0042V66.9494V66.8626V35.187ZM68.5641 67.0362V74.1523H34.1713V29.7196H68.5641V35.0134V67.0362Z" fill="#4C0788"/>
<rect x="33.8994" y="29.4985" width="34.1947" height="44.6431" fill="white"/>
<path d="M70.735 36.1414H45.6352C43.4639 36.1414 41.6401 37.9639 41.6401 40.1334V57.5767C41.6401 59.7463 43.3771 61.5687 45.6352 61.5687H48.5013C48.5881 61.5687 48.5881 61.6555 48.5881 61.6555V69.8131C48.5881 70.1602 48.7618 70.4205 49.1092 70.5073C49.1961 70.5073 49.2829 70.5941 49.3698 70.5941C49.6303 70.5941 49.804 70.5073 49.9777 70.3338L56.5784 62.6969L57.5337 61.5687H70.735C72.9063 61.5687 74.7302 59.8331 74.7302 57.5767V40.1334C74.6433 37.8771 72.9063 36.1414 70.735 36.1414ZM59.3576 53.5847H48.5013C48.067 53.5847 47.7196 53.2376 47.7196 52.8037C47.7196 52.3698 48.067 52.0226 48.5013 52.0226H59.3576C59.7919 52.0226 60.1393 52.3698 60.1393 52.8037C60.1393 53.2376 59.7919 53.5847 59.3576 53.5847ZM67.869 48.9852H48.5013C48.067 48.9852 47.7196 48.6381 47.7196 48.2042C47.7196 47.7703 48.067 47.4232 48.5013 47.4232H67.869C68.3032 47.4232 68.6506 47.7703 68.6506 48.2042C68.6506 48.6381 68.3032 48.9852 67.869 48.9852ZM67.869 44.3858H48.5013C48.067 44.3858 47.7196 44.0386 47.7196 43.6047C47.7196 43.1708 48.067 42.8237 48.5013 42.8237H67.869C68.3032 42.8237 68.6506 43.1708 68.6506 43.6047C68.6506 44.0386 68.3032 44.3858 67.869 44.3858Z" fill="#4C0788"/>
<path d="M51.2807 86.1284C53.7125 86.1284 55.6232 84.2192 55.6232 81.7893C55.6232 79.3594 53.7125 77.4501 51.2807 77.4501C48.8488 77.4501 46.9381 79.3594 46.9381 81.7893C46.9381 84.2192 48.9357 86.1284 51.2807 86.1284ZM51.2807 79.6197C52.4966 79.6197 53.4519 80.5743 53.4519 81.7893C53.4519 83.0042 52.4966 83.9588 51.2807 83.9588C50.0647 83.9588 49.1094 83.0042 49.1094 81.7893C49.1094 80.5743 50.1516 79.6197 51.2807 79.6197Z" fill="white"/>
<path d="M51.5029 23.6423C51.9346 23.6423 52.2845 23.2926 52.2845 22.8612C52.2845 22.4299 51.9346 22.0802 51.5029 22.0802C51.0712 22.0802 50.7212 22.4299 50.7212 22.8612C50.7212 23.2926 51.0712 23.6423 51.5029 23.6423Z" fill="white"/>
<path d="M54.1886 25.2006H48.2947C47.688 25.2006 47.2546 25.634 47.2546 26.0674C47.2546 26.573 47.7747 26.9341 48.2947 26.9341H54.1886C54.7953 26.9341 55.2287 26.5007 55.2287 26.0674C55.2287 25.634 54.7953 25.2006 54.1886 25.2006Z" fill="white"/>
<g filter="url(#filter0_d)">
<path fill-rule="evenodd" clip-rule="evenodd" d="M73.4301 41.1484C75.632 41.1484 77.4171 39.3634 77.4171 37.1614C77.4171 34.9594 75.632 33.1744 73.4301 33.1744C71.2281 33.1744 69.4431 34.9594 69.4431 37.1614C69.4431 39.3634 71.2281 41.1484 73.4301 41.1484Z" fill="#E81B13"/>
</g>
<path fill-rule="evenodd" clip-rule="evenodd" d="M73.4301 38.375C74.1003 38.375 74.6436 37.8317 74.6436 37.1616C74.6436 36.4914 74.1003 35.9481 73.4301 35.9481C72.76 35.9481 72.2167 36.4914 72.2167 37.1616C72.2167 37.8317 72.76 38.375 73.4301 38.375Z" fill="white"/>
<defs>
<filter id="filter0_d" x="50.4431" y="25.1744" width="45.974" height="45.974" filterUnits="userSpaceOnUse" color-interpolation-filters="sRGB">
<feFlood flood-opacity="0" result="BackgroundImageFix"/>
<feColorMatrix in="SourceAlpha" type="matrix" values="0 0 0 0 0 0 0 0 0 0 0 0 0 0 0 0 0 0 127 0"/>
<feOffset dy="11"/>
<feGaussianBlur stdDeviation="9.5"/>
<feColorMatrix type="matrix" values="0 0 0 0 0 0 0 0 0 0 0 0 0 0 0 0 0 0 0.130081 0"/>
<feBlend mode="normal" in2="BackgroundImageFix" result="effect1_dropShadow"/>
<feBlend mode="normal" in="SourceGraphic" in2="effect1_dropShadow" result="shape"/>
</filter>
</defs>
</svg>
