<svg width="110" height="110" viewBox="0 0 110 110" fill="none" xmlns="http://www.w3.org/2000/svg">
<path d="M20.9504 30.7943H89.5461C91.2057 30.7943 92.4965 32.0851 92.4965 33.7447V75.0496C92.4965 76.7092 91.2057 78 89.5461 78H20.9504C19.2908 78 18 76.7092 18 75.0496V33.7447C18 32.0851 19.2908 30.7943 20.9504 30.7943Z" fill="#4C0788"/>
<path fill-rule="evenodd" clip-rule="evenodd" d="M22.9787 33.7447C21.2577 33.7447 20.4586 35.9575 21.8109 37.0638L52.7896 61.4657C54.1418 62.5106 55.9858 62.5106 57.3381 61.4657L88.6241 37.0638C89.9764 35.9575 89.2388 33.7447 87.5177 33.7447H22.9787V33.7447Z" fill="white"/>
<path fill-rule="evenodd" clip-rule="evenodd" d="M89.9149 42.2269C94.4019 42.2269 98.0284 38.6005 98.0284 34.1135C98.0284 29.6265 94.4019 26 89.9149 26C85.4279 26 81.8014 29.6265 81.8014 34.1135C81.8014 38.6005 85.4279 42.2269 89.9149 42.2269Z" fill="#E81B13"/>
<path fill-rule="evenodd" clip-rule="evenodd" d="M89.9149 36.695C91.3286 36.695 92.4965 35.5272 92.4965 34.1135C92.4965 32.6998 91.3286 31.5319 89.9149 31.5319C88.5012 31.5319 87.3333 32.6998 87.3333 34.1135C87.3333 35.5272 88.5012 36.695 89.9149 36.695Z" fill="white"/>
</svg>
