<svg width="279" height="263" viewBox="0 0 279 263" fill="none" xmlns="http://www.w3.org/2000/svg">
<path fill-rule="evenodd" clip-rule="evenodd" d="M33.1149 262.03C50.3693 262.03 64.3567 248.042 64.3567 230.788C64.3567 213.533 50.3693 199.546 33.1149 199.546C15.8604 199.546 1.87296 213.533 1.87296 230.788C1.87296 248.042 15.8604 262.03 33.1149 262.03Z" fill="#8464AC"/>
<path fill-rule="evenodd" clip-rule="evenodd" d="M236.007 262.029C259.561 262.029 278.655 242.936 278.655 219.382C278.655 195.829 259.561 176.735 236.007 176.735C212.454 176.735 193.36 195.829 193.36 219.382C193.36 242.936 212.454 262.029 236.007 262.029Z" fill="#8464AC"/>
<path fill-rule="evenodd" clip-rule="evenodd" d="M40.1843 76.3958L21.9828 118.052L246.781 118.039L228.579 76.3958H40.1843Z" fill="#4C0788"/>
<rect x="40.6557" y="144.359" width="188.17" height="117.786" fill="white"/>
<path d="M244.536 118.03H201.893H192.915V143.973C192.915 149.075 194.572 153.826 197.406 157.794C202.23 164.549 210.476 169.022 219.848 169.022C223 169.022 226.011 168.491 228.826 167.561C239.265 164.116 246.781 154.871 246.781 143.973V118.03H244.536Z" fill="#FFC836"/>
<path fill-rule="evenodd" clip-rule="evenodd" d="M207.908 118.03H165.265H156.287V143.973C156.287 149.075 157.944 153.826 160.778 157.794C165.602 164.549 173.848 169.022 183.22 169.022C186.371 169.022 189.383 168.491 192.197 167.561C202.637 164.116 210.152 154.871 210.152 143.973V118.03H207.908Z" fill="#4C0788"/>
<path d="M163.379 118.03H120.736H111.758V143.973C111.758 149.075 113.415 153.826 116.25 157.794C121.074 164.549 129.319 169.022 138.691 169.022C141.843 169.022 144.854 168.491 147.669 167.561C158.108 164.116 165.624 154.871 165.624 143.973V118.03H163.379Z" fill="#FFC836"/>
<path fill-rule="evenodd" clip-rule="evenodd" d="M118.132 118.03H75.4889H66.5114V143.973C66.5114 149.075 68.1682 153.826 71.0024 157.794C75.8265 164.549 84.0719 169.022 93.4441 169.022C96.5956 169.022 99.6071 168.491 102.422 167.561C112.861 164.116 120.377 154.871 120.377 143.973V118.03H118.132Z" fill="#4C0788"/>
<path d="M73.6037 118.03H30.9603H21.9828V143.973C21.9828 149.075 23.6396 153.826 26.4738 157.794C31.2979 164.549 39.5433 169.022 48.9155 169.022C52.067 169.022 55.0785 168.491 57.893 167.561C68.3326 164.116 75.8481 154.871 75.8481 143.973V118.03H73.6037Z" fill="#FFC836"/>
<rect x="88.0573" y="189.2" width="45.9651" height="73.2569" fill="url(#paint0_linear)"/>
<rect x="136.895" y="189.2" width="45.9651" height="73.2569" fill="url(#paint1_linear)"/>
<path d="M240.145 262.145L242.471 240.599L213.743 240.605L216.069 262.145H240.145Z" fill="#4C0788"/>
<path d="M228.826 239.88C233.189 239.88 236.726 236.343 236.726 231.98C236.726 227.617 233.189 224.08 228.826 224.08C224.463 224.08 220.926 227.617 220.926 231.98C220.926 236.343 224.463 239.88 228.826 239.88Z" fill="#FFC836"/>
<path d="M223.08 239.88C225.857 239.88 228.107 237.63 228.107 234.853C228.107 232.076 225.857 229.826 223.08 229.826C220.303 229.826 218.053 232.076 218.053 234.853C218.053 237.63 220.303 239.88 223.08 239.88Z" fill="#FFC836"/>
<path d="M236.726 241.317C237.519 241.317 238.162 240.674 238.162 239.88C238.162 239.087 237.519 238.444 236.726 238.444C235.933 238.444 235.289 239.087 235.289 239.88C235.289 240.674 235.933 241.317 236.726 241.317Z" fill="#FFC836"/>
<path d="M236.007 229.825C236.801 229.825 237.444 229.182 237.444 228.389C237.444 227.596 236.801 226.953 236.007 226.953C235.214 226.953 234.571 227.596 234.571 228.389C234.571 229.182 235.214 229.825 236.007 229.825Z" fill="#FFC836"/>
<path d="M134.681 88.2858C137.028 88.2858 138.93 86.3833 138.93 84.0363V54.3507V43.0389H130.431V54.3507V84.0363C130.431 86.3833 132.334 88.2858 134.681 88.2858V88.2858Z" fill="#8464AC"/>
<rect x="48.5561" width="173.087" height="48.8379" rx="4" fill="#FFC836"/>
<path d="M65.2425 31.7675H71.6115V34.2095H62.2835V18.3035H65.2425V31.7675ZM77.9045 22.7475C78.7479 22.7475 79.5105 22.8831 80.1925 23.1545C80.8819 23.4258 81.4685 23.8108 81.9525 24.3095C82.4365 24.8081 82.8105 25.4168 83.0745 26.1355C83.3385 26.8541 83.4705 27.6571 83.4705 28.5445C83.4705 29.4391 83.3385 30.2458 83.0745 30.9645C82.8105 31.6831 82.4365 32.2955 81.9525 32.8015C81.4685 33.3075 80.8819 33.6961 80.1925 33.9675C79.5105 34.2388 78.7479 34.3745 77.9045 34.3745C77.0612 34.3745 76.2949 34.2388 75.6055 33.9675C74.9162 33.6961 74.3259 33.3075 73.8345 32.8015C73.3505 32.2955 72.9729 31.6831 72.7015 30.9645C72.4375 30.2458 72.3055 29.4391 72.3055 28.5445C72.3055 27.6571 72.4375 26.8541 72.7015 26.1355C72.9729 25.4168 73.3505 24.8081 73.8345 24.3095C74.3259 23.8108 74.9162 23.4258 75.6055 23.1545C76.2949 22.8831 77.0612 22.7475 77.9045 22.7475ZM77.9045 32.2845C78.8432 32.2845 79.5362 31.9691 79.9835 31.3385C80.4382 30.7078 80.6655 29.7838 80.6655 28.5665C80.6655 27.3491 80.4382 26.4215 79.9835 25.7835C79.5362 25.1455 78.8432 24.8265 77.9045 24.8265C76.9512 24.8265 76.2472 25.1491 75.7925 25.7945C75.3379 26.4325 75.1105 27.3565 75.1105 28.5665C75.1105 29.7765 75.3379 30.7005 75.7925 31.3385C76.2472 31.9691 76.9512 32.2845 77.9045 32.2845ZM88.4834 22.9235V34.5945C88.4834 35.0858 88.4174 35.5478 88.2854 35.9805C88.1608 36.4131 87.9554 36.7908 87.6694 37.1135C87.3908 37.4435 87.0204 37.7001 86.5584 37.8835C86.1038 38.0741 85.5464 38.1695 84.8864 38.1695C84.6298 38.1695 84.3914 38.1511 84.1714 38.1145C83.9514 38.0851 83.7278 38.0338 83.5004 37.9605L83.5884 36.4975C83.6104 36.3508 83.6691 36.2555 83.7644 36.2115C83.8598 36.1748 84.0431 36.1565 84.3144 36.1565C84.5858 36.1565 84.8131 36.1271 84.9964 36.0685C85.1871 36.0171 85.3374 35.9291 85.4474 35.8045C85.5648 35.6871 85.6454 35.5295 85.6894 35.3315C85.7408 35.1335 85.7664 34.8878 85.7664 34.5945V22.9235H88.4834ZM88.8904 19.6345C88.8904 19.8691 88.8428 20.0891 88.7474 20.2945C88.6521 20.4998 88.5238 20.6795 88.3624 20.8335C88.2084 20.9875 88.0251 21.1121 87.8124 21.2075C87.5998 21.2955 87.3724 21.3395 87.1304 21.3395C86.8958 21.3395 86.6721 21.2955 86.4594 21.2075C86.2541 21.1121 86.0744 20.9875 85.9204 20.8335C85.7664 20.6795 85.6418 20.4998 85.5464 20.2945C85.4584 20.0891 85.4144 19.8691 85.4144 19.6345C85.4144 19.3925 85.4584 19.1651 85.5464 18.9525C85.6418 18.7398 85.7664 18.5565 85.9204 18.4025C86.0744 18.2485 86.2541 18.1275 86.4594 18.0395C86.6721 17.9441 86.8958 17.8965 87.1304 17.8965C87.3724 17.8965 87.5998 17.9441 87.8124 18.0395C88.0251 18.1275 88.2084 18.2485 88.3624 18.4025C88.5238 18.5565 88.6521 18.7398 88.7474 18.9525C88.8428 19.1651 88.8904 19.3925 88.8904 19.6345ZM100.343 34.2095H99.1216C98.865 34.2095 98.6633 34.1728 98.5166 34.0995C98.37 34.0188 98.26 33.8611 98.1866 33.6265L97.9446 32.8235C97.6586 33.0801 97.3763 33.3075 97.0976 33.5055C96.8263 33.6961 96.544 33.8575 96.2506 33.9895C95.9573 34.1215 95.6456 34.2205 95.3156 34.2865C94.9856 34.3525 94.619 34.3855 94.2156 34.3855C93.739 34.3855 93.299 34.3231 92.8956 34.1985C92.4923 34.0665 92.144 33.8721 91.8506 33.6155C91.5646 33.3588 91.341 33.0398 91.1796 32.6585C91.0183 32.2771 90.9376 31.8335 90.9376 31.3275C90.9376 30.9021 91.0476 30.4841 91.2676 30.0735C91.495 29.6555 91.869 29.2815 92.3896 28.9515C92.9103 28.6141 93.6033 28.3355 94.4686 28.1155C95.334 27.8955 96.4083 27.7708 97.6916 27.7415V27.0815C97.6916 26.3261 97.5303 25.7688 97.2076 25.4095C96.8923 25.0428 96.4303 24.8595 95.8216 24.8595C95.3816 24.8595 95.015 24.9108 94.7216 25.0135C94.4283 25.1161 94.1716 25.2335 93.9516 25.3655C93.739 25.4901 93.541 25.6038 93.3576 25.7065C93.1743 25.8091 92.9726 25.8605 92.7526 25.8605C92.5693 25.8605 92.4116 25.8128 92.2796 25.7175C92.1476 25.6221 92.0413 25.5048 91.9606 25.3655L91.4656 24.4965C92.7636 23.3085 94.3293 22.7145 96.1626 22.7145C96.8226 22.7145 97.4093 22.8245 97.9226 23.0445C98.4433 23.2571 98.8833 23.5578 99.2426 23.9465C99.602 24.3278 99.8733 24.7861 100.057 25.3215C100.247 25.8568 100.343 26.4435 100.343 27.0815V34.2095ZM95.0626 32.5155C95.3413 32.5155 95.598 32.4898 95.8326 32.4385C96.0673 32.3871 96.2873 32.3101 96.4926 32.2075C96.7053 32.1048 96.907 31.9801 97.0976 31.8335C97.2956 31.6795 97.4936 31.4998 97.6916 31.2945V29.3915C96.8996 29.4281 96.236 29.4978 95.7006 29.6005C95.1726 29.6958 94.7473 29.8205 94.4246 29.9745C94.102 30.1285 93.871 30.3081 93.7316 30.5135C93.5996 30.7188 93.5336 30.9425 93.5336 31.1845C93.5336 31.6611 93.673 32.0021 93.9516 32.2075C94.2376 32.4128 94.608 32.5155 95.0626 32.5155ZM114.102 30.4585C114.264 30.4585 114.403 30.5208 114.52 30.6455L115.686 31.9105C115.041 32.7098 114.245 33.3221 113.299 33.7475C112.361 34.1728 111.231 34.3855 109.911 34.3855C108.731 34.3855 107.667 34.1838 106.721 33.7805C105.783 33.3771 104.98 32.8161 104.312 32.0975C103.645 31.3788 103.132 30.5208 102.772 29.5235C102.42 28.5261 102.244 27.4371 102.244 26.2565C102.244 25.0611 102.442 23.9685 102.838 22.9785C103.234 21.9811 103.792 21.1231 104.51 20.4045C105.229 19.6858 106.087 19.1285 107.084 18.7325C108.089 18.3291 109.196 18.1275 110.406 18.1275C111.587 18.1275 112.617 18.3181 113.497 18.6995C114.385 19.0735 115.144 19.5721 115.774 20.1955L114.784 21.5705C114.726 21.6585 114.649 21.7355 114.553 21.8015C114.465 21.8675 114.341 21.9005 114.179 21.9005C114.011 21.9005 113.838 21.8345 113.662 21.7025C113.486 21.5705 113.263 21.4275 112.991 21.2735C112.72 21.1195 112.375 20.9765 111.957 20.8445C111.547 20.7125 111.022 20.6465 110.384 20.6465C109.636 20.6465 108.947 20.7785 108.316 21.0425C107.693 21.2991 107.154 21.6695 106.699 22.1535C106.252 22.6375 105.9 23.2278 105.643 23.9245C105.394 24.6138 105.269 25.3911 105.269 26.2565C105.269 27.1511 105.394 27.9468 105.643 28.6435C105.9 29.3401 106.245 29.9268 106.677 30.4035C107.11 30.8801 107.62 31.2468 108.206 31.5035C108.793 31.7528 109.424 31.8775 110.098 31.8775C110.502 31.8775 110.865 31.8555 111.187 31.8115C111.517 31.7675 111.818 31.6978 112.089 31.6025C112.368 31.5071 112.628 31.3861 112.87 31.2395C113.12 31.0855 113.365 30.8985 113.607 30.6785C113.681 30.6125 113.758 30.5611 113.838 30.5245C113.919 30.4805 114.007 30.4585 114.102 30.4585ZM122.592 22.7475C123.435 22.7475 124.198 22.8831 124.88 23.1545C125.569 23.4258 126.156 23.8108 126.64 24.3095C127.124 24.8081 127.498 25.4168 127.762 26.1355C128.026 26.8541 128.158 27.6571 128.158 28.5445C128.158 29.4391 128.026 30.2458 127.762 30.9645C127.498 31.6831 127.124 32.2955 126.64 32.8015C126.156 33.3075 125.569 33.6961 124.88 33.9675C124.198 34.2388 123.435 34.3745 122.592 34.3745C121.749 34.3745 120.982 34.2388 120.293 33.9675C119.604 33.6961 119.013 33.3075 118.522 32.8015C118.038 32.2955 117.66 31.6831 117.389 30.9645C117.125 30.2458 116.993 29.4391 116.993 28.5445C116.993 27.6571 117.125 26.8541 117.389 26.1355C117.66 25.4168 118.038 24.8081 118.522 24.3095C119.013 23.8108 119.604 23.4258 120.293 23.1545C120.982 22.8831 121.749 22.7475 122.592 22.7475ZM122.592 32.2845C123.531 32.2845 124.224 31.9691 124.671 31.3385C125.126 30.7078 125.353 29.7838 125.353 28.5665C125.353 27.3491 125.126 26.4215 124.671 25.7835C124.224 25.1455 123.531 24.8265 122.592 24.8265C121.639 24.8265 120.935 25.1491 120.48 25.7945C120.025 26.4325 119.798 27.3565 119.798 28.5665C119.798 29.7765 120.025 30.7005 120.48 31.3385C120.935 31.9691 121.639 32.2845 122.592 32.2845ZM138.22 34.2095C137.868 34.2095 137.637 34.0445 137.527 33.7145L137.307 32.6255C137.072 32.8895 136.827 33.1278 136.57 33.3405C136.313 33.5531 136.035 33.7365 135.734 33.8905C135.441 34.0445 135.122 34.1618 134.777 34.2425C134.44 34.3305 134.073 34.3745 133.677 34.3745C133.061 34.3745 132.496 34.2461 131.983 33.9895C131.47 33.7328 131.026 33.3625 130.652 32.8785C130.285 32.3871 129.999 31.7821 129.794 31.0635C129.596 30.3448 129.497 29.5235 129.497 28.5995C129.497 27.7635 129.611 26.9861 129.838 26.2675C130.065 25.5488 130.392 24.9255 130.817 24.3975C131.242 23.8695 131.752 23.4588 132.346 23.1655C132.94 22.8648 133.607 22.7145 134.348 22.7145C134.979 22.7145 135.518 22.8171 135.965 23.0225C136.412 23.2205 136.812 23.4881 137.164 23.8255V17.8635H139.881V34.2095H138.22ZM134.601 32.2185C135.166 32.2185 135.646 32.1011 136.042 31.8665C136.438 31.6318 136.812 31.2981 137.164 30.8655V25.8055C136.856 25.4315 136.519 25.1675 136.152 25.0135C135.793 24.8595 135.404 24.7825 134.986 24.7825C134.575 24.7825 134.201 24.8595 133.864 25.0135C133.534 25.1675 133.252 25.4021 133.017 25.7175C132.79 26.0255 132.614 26.4215 132.489 26.9055C132.364 27.3821 132.302 27.9468 132.302 28.5995C132.302 29.2595 132.353 29.8205 132.456 30.2825C132.566 30.7371 132.72 31.1111 132.918 31.4045C133.116 31.6905 133.358 31.8995 133.644 32.0315C133.93 32.1561 134.249 32.2185 134.601 32.2185ZM145.718 22.9235V34.2095H143.001V22.9235H145.718ZM146.125 19.6345C146.125 19.8691 146.077 20.0891 145.982 20.2945C145.886 20.4998 145.758 20.6795 145.597 20.8335C145.443 20.9875 145.259 21.1121 145.047 21.2075C144.834 21.2955 144.607 21.3395 144.365 21.3395C144.13 21.3395 143.906 21.2955 143.694 21.2075C143.488 21.1121 143.309 20.9875 143.155 20.8335C143.001 20.6795 142.876 20.4998 142.781 20.2945C142.693 20.0891 142.649 19.8691 142.649 19.6345C142.649 19.3925 142.693 19.1651 142.781 18.9525C142.876 18.7398 143.001 18.5565 143.155 18.4025C143.309 18.2485 143.488 18.1275 143.694 18.0395C143.906 17.9441 144.13 17.8965 144.365 17.8965C144.607 17.8965 144.834 17.9441 145.047 18.0395C145.259 18.1275 145.443 18.2485 145.597 18.4025C145.758 18.5565 145.886 18.7398 145.982 18.9525C146.077 19.1651 146.125 19.3925 146.125 19.6345ZM152.702 22.7255C153.186 22.7255 153.641 22.7768 154.066 22.8795C154.492 22.9748 154.88 23.1178 155.232 23.3085H158.477V24.3205C158.477 24.4891 158.433 24.6211 158.345 24.7165C158.257 24.8118 158.107 24.8778 157.894 24.9145L156.882 25.1015C156.956 25.2921 157.011 25.4938 157.047 25.7065C157.091 25.9191 157.113 26.1428 157.113 26.3775C157.113 26.9348 157 27.4408 156.772 27.8955C156.552 28.3428 156.244 28.7241 155.848 29.0395C155.46 29.3548 154.994 29.6005 154.451 29.7765C153.916 29.9451 153.333 30.0295 152.702 30.0295C152.277 30.0295 151.863 29.9891 151.459 29.9085C151.107 30.1211 150.931 30.3595 150.931 30.6235C150.931 30.8508 151.034 31.0195 151.239 31.1295C151.452 31.2321 151.727 31.3055 152.064 31.3495C152.409 31.3935 152.798 31.4228 153.23 31.4375C153.663 31.4448 154.107 31.4668 154.561 31.5035C155.016 31.5401 155.46 31.6061 155.892 31.7015C156.325 31.7895 156.71 31.9325 157.047 32.1305C157.392 32.3285 157.667 32.5998 157.872 32.9445C158.085 33.2818 158.191 33.7181 158.191 34.2535C158.191 34.7521 158.067 35.2361 157.817 35.7055C157.575 36.1748 157.22 36.5928 156.75 36.9595C156.288 37.3261 155.72 37.6195 155.045 37.8395C154.371 38.0668 153.601 38.1805 152.735 38.1805C151.877 38.1805 151.133 38.0961 150.502 37.9275C149.872 37.7661 149.347 37.5461 148.929 37.2675C148.519 36.9961 148.211 36.6808 148.005 36.3215C147.8 35.9621 147.697 35.5881 147.697 35.1995C147.697 34.6715 147.859 34.2278 148.181 33.8685C148.504 33.5091 148.951 33.2231 149.523 33.0105C149.245 32.8565 149.021 32.6511 148.852 32.3945C148.684 32.1378 148.599 31.8041 148.599 31.3935C148.599 31.2248 148.629 31.0525 148.687 30.8765C148.746 30.6931 148.834 30.5135 148.951 30.3375C149.076 30.1615 149.23 29.9965 149.413 29.8425C149.597 29.6811 149.813 29.5381 150.062 29.4135C149.49 29.1055 149.039 28.6948 148.709 28.1815C148.387 27.6681 148.225 27.0668 148.225 26.3775C148.225 25.8201 148.335 25.3178 148.555 24.8705C148.783 24.4158 149.094 24.0308 149.49 23.7155C149.894 23.3928 150.367 23.1471 150.909 22.9785C151.459 22.8098 152.057 22.7255 152.702 22.7255ZM155.683 34.7155C155.683 34.4955 155.617 34.3158 155.485 34.1765C155.353 34.0371 155.174 33.9308 154.946 33.8575C154.719 33.7768 154.451 33.7181 154.143 33.6815C153.843 33.6448 153.52 33.6191 153.175 33.6045C152.838 33.5825 152.486 33.5641 152.119 33.5495C151.76 33.5275 151.412 33.4945 151.074 33.4505C150.766 33.6191 150.517 33.8208 150.326 34.0555C150.143 34.2828 150.051 34.5468 150.051 34.8475C150.051 35.0455 150.099 35.2288 150.194 35.3975C150.297 35.5735 150.455 35.7238 150.667 35.8485C150.887 35.9731 151.17 36.0685 151.514 36.1345C151.859 36.2078 152.281 36.2445 152.779 36.2445C153.285 36.2445 153.722 36.2041 154.088 36.1235C154.455 36.0501 154.756 35.9438 154.99 35.8045C155.232 35.6725 155.408 35.5111 155.518 35.3205C155.628 35.1371 155.683 34.9355 155.683 34.7155ZM152.702 28.2915C153.04 28.2915 153.333 28.2475 153.582 28.1595C153.832 28.0641 154.037 27.9358 154.198 27.7745C154.367 27.6131 154.492 27.4188 154.572 27.1915C154.66 26.9641 154.704 26.7148 154.704 26.4435C154.704 25.8861 154.536 25.4461 154.198 25.1235C153.868 24.7935 153.37 24.6285 152.702 24.6285C152.035 24.6285 151.533 24.7935 151.195 25.1235C150.865 25.4461 150.7 25.8861 150.7 26.4435C150.7 26.7075 150.741 26.9531 150.821 27.1805C150.909 27.4078 151.034 27.6058 151.195 27.7745C151.364 27.9358 151.573 28.0641 151.822 28.1595C152.079 28.2475 152.372 28.2915 152.702 28.2915ZM165.002 22.7475C165.846 22.7475 166.608 22.8831 167.29 23.1545C167.98 23.4258 168.566 23.8108 169.05 24.3095C169.534 24.8081 169.908 25.4168 170.172 26.1355C170.436 26.8541 170.568 27.6571 170.568 28.5445C170.568 29.4391 170.436 30.2458 170.172 30.9645C169.908 31.6831 169.534 32.2955 169.05 32.8015C168.566 33.3075 167.98 33.6961 167.29 33.9675C166.608 34.2388 165.846 34.3745 165.002 34.3745C164.159 34.3745 163.393 34.2388 162.703 33.9675C162.014 33.6961 161.424 33.3075 160.932 32.8015C160.448 32.2955 160.071 31.6831 159.799 30.9645C159.535 30.2458 159.403 29.4391 159.403 28.5445C159.403 27.6571 159.535 26.8541 159.799 26.1355C160.071 25.4168 160.448 24.8081 160.932 24.3095C161.424 23.8108 162.014 23.4258 162.703 23.1545C163.393 22.8831 164.159 22.7475 165.002 22.7475ZM165.002 32.2845C165.941 32.2845 166.634 31.9691 167.081 31.3385C167.536 30.7078 167.763 29.7838 167.763 28.5665C167.763 27.3491 167.536 26.4215 167.081 25.7835C166.634 25.1455 165.941 24.8265 165.002 24.8265C164.049 24.8265 163.345 25.1491 162.89 25.7945C162.436 26.4325 162.208 27.3565 162.208 28.5665C162.208 29.7765 162.436 30.7005 162.89 31.3385C163.345 31.9691 164.049 32.2845 165.002 32.2845ZM174.195 32.1745H177.418V22.9015C177.418 22.5421 177.429 22.1645 177.451 21.7685L175.163 23.6825C175.068 23.7631 174.969 23.8181 174.866 23.8475C174.771 23.8768 174.675 23.8915 174.58 23.8915C174.433 23.8915 174.298 23.8621 174.173 23.8035C174.056 23.7375 173.968 23.6641 173.909 23.5835L173.051 22.4065L177.902 18.2815H180.135V32.1745H182.995V34.2095H174.195V32.1745ZM190.62 18.1275C191.353 18.1275 192.024 18.2375 192.633 18.4575C193.241 18.6701 193.762 18.9745 194.195 19.3705C194.627 19.7665 194.965 20.2431 195.207 20.8005C195.449 21.3578 195.57 21.9775 195.57 22.6595C195.57 23.2461 195.482 23.7888 195.306 24.2875C195.137 24.7861 194.906 25.2628 194.613 25.7175C194.327 26.1721 193.989 26.6121 193.601 27.0375C193.212 27.4628 192.805 27.8955 192.38 28.3355L188.794 31.9985C189.146 31.8958 189.49 31.8188 189.828 31.7675C190.165 31.7088 190.488 31.6795 190.796 31.6795H194.877C195.17 31.6795 195.401 31.7638 195.57 31.9325C195.746 32.0938 195.834 32.3101 195.834 32.5815V34.2095H184.922V33.3075C184.922 33.1241 184.958 32.9335 185.032 32.7355C185.112 32.5375 185.237 32.3541 185.406 32.1855L190.235 27.3455C190.638 26.9348 190.997 26.5425 191.313 26.1685C191.635 25.7945 191.903 25.4241 192.116 25.0575C192.336 24.6908 192.501 24.3205 192.611 23.9465C192.728 23.5651 192.787 23.1655 192.787 22.7475C192.787 22.3661 192.732 22.0325 192.622 21.7465C192.512 21.4531 192.354 21.2075 192.149 21.0095C191.943 20.8115 191.698 20.6648 191.412 20.5695C191.133 20.4668 190.818 20.4155 190.466 20.4155C189.813 20.4155 189.274 20.5805 188.849 20.9105C188.431 21.2405 188.137 21.6841 187.969 22.2415C187.888 22.5201 187.767 22.7218 187.606 22.8465C187.444 22.9638 187.239 23.0225 186.99 23.0225C186.88 23.0225 186.759 23.0115 186.627 22.9895L185.197 22.7365C185.307 21.9738 185.519 21.3065 185.835 20.7345C186.15 20.1551 186.542 19.6748 187.012 19.2935C187.488 18.9048 188.031 18.6151 188.64 18.4245C189.256 18.2265 189.916 18.1275 190.62 18.1275ZM203.635 18.1275C204.368 18.1275 205.028 18.2338 205.615 18.4465C206.209 18.6518 206.715 18.9415 207.133 19.3155C207.551 19.6821 207.87 20.1148 208.09 20.6135C208.317 21.1121 208.431 21.6511 208.431 22.2305C208.431 22.7365 208.372 23.1838 208.255 23.5725C208.145 23.9538 207.98 24.2875 207.76 24.5735C207.547 24.8595 207.283 25.1015 206.968 25.2995C206.66 25.4975 206.308 25.6625 205.912 25.7945C206.865 26.0951 207.576 26.5535 208.046 27.1695C208.515 27.7855 208.75 28.5591 208.75 29.4905C208.75 30.2825 208.603 30.9828 208.31 31.5915C208.016 32.2001 207.62 32.7135 207.122 33.1315C206.623 33.5421 206.044 33.8538 205.384 34.0665C204.731 34.2791 204.038 34.3855 203.305 34.3855C202.505 34.3855 201.809 34.2938 201.215 34.1105C200.621 33.9271 200.104 33.6558 199.664 33.2965C199.224 32.9371 198.85 32.4971 198.542 31.9765C198.234 31.4558 197.97 30.8545 197.75 30.1725L198.949 29.6775C199.154 29.5895 199.363 29.5455 199.576 29.5455C199.766 29.5455 199.935 29.5858 200.082 29.6665C200.236 29.7471 200.353 29.8645 200.434 30.0185C200.566 30.2751 200.709 30.5281 200.863 30.7775C201.024 31.0268 201.215 31.2505 201.435 31.4485C201.655 31.6391 201.911 31.7968 202.205 31.9215C202.505 32.0388 202.861 32.0975 203.272 32.0975C203.734 32.0975 204.137 32.0241 204.482 31.8775C204.826 31.7235 205.112 31.5255 205.34 31.2835C205.574 31.0415 205.747 30.7738 205.857 30.4805C205.974 30.1798 206.033 29.8791 206.033 29.5785C206.033 29.1971 205.992 28.8525 205.912 28.5445C205.831 28.2291 205.662 27.9615 205.406 27.7415C205.149 27.5215 204.779 27.3491 204.295 27.2245C203.818 27.0998 203.176 27.0375 202.37 27.0375V25.1015C203.037 25.0941 203.591 25.0318 204.031 24.9145C204.471 24.7971 204.819 24.6358 205.076 24.4305C205.34 24.2178 205.523 23.9648 205.626 23.6715C205.728 23.3781 205.78 23.0555 205.78 22.7035C205.78 21.9481 205.574 21.3798 205.164 20.9985C204.753 20.6098 204.192 20.4155 203.481 20.4155C202.835 20.4155 202.3 20.5878 201.875 20.9325C201.449 21.2698 201.152 21.7061 200.984 22.2415C200.896 22.5201 200.775 22.7218 200.621 22.8465C200.467 22.9638 200.265 23.0225 200.016 23.0225C199.898 23.0225 199.774 23.0115 199.642 22.9895L198.212 22.7365C198.322 21.9738 198.534 21.3065 198.85 20.7345C199.165 20.1551 199.557 19.6748 200.027 19.2935C200.503 18.9048 201.046 18.6151 201.655 18.4245C202.271 18.2265 202.931 18.1275 203.635 18.1275Z" fill="#4C0788"/>
<defs>
<linearGradient id="paint0_linear" x1="62.4897" y1="155.809" x2="91.9475" y2="267.493" gradientUnits="userSpaceOnUse">
<stop stop-color="#8831DD"/>
<stop offset="1" stop-color="#451583"/>
</linearGradient>
<linearGradient id="paint1_linear" x1="111.327" y1="155.809" x2="140.785" y2="267.493" gradientUnits="userSpaceOnUse">
<stop stop-color="#8831DD"/>
<stop offset="1" stop-color="#451583"/>
</linearGradient>
</defs>
</svg>
