<svg width="457" height="383" viewBox="0 0 457 383" fill="none" xmlns="http://www.w3.org/2000/svg">
<path fill-rule="evenodd" clip-rule="evenodd" d="M399.805 352.5C368.324 352.5 342.805 326.98 342.805 295.5C342.805 264.02 368.324 238.5 399.805 238.5C431.285 238.5 456.805 264.02 456.805 295.5C456.805 326.98 431.285 352.5 399.805 352.5Z" fill="#8464AC"/>
<path fill-rule="evenodd" clip-rule="evenodd" d="M108.805 381C49.1579 381 0.804703 332.647 0.804703 273C0.804703 213.353 49.1579 165 108.805 165C168.451 165 216.805 213.353 216.805 273C216.805 332.647 168.451 381 108.805 381Z" fill="#8464AC"/>
<path fill-rule="evenodd" clip-rule="evenodd" d="M93.4545 109.752L66.8047 170.742L395.943 170.723L369.293 109.752H93.4545Z" fill="#FFC836"/>
<rect x="94.1475" y="209.26" width="275.509" height="172.456" fill="white"/>
<path d="M392.659 170.71H330.222H317.078V208.695C317.078 216.165 319.503 223.122 323.653 228.931C330.716 238.821 342.789 245.371 356.511 245.371C361.126 245.371 365.535 244.594 369.656 243.231C384.941 238.188 395.945 224.652 395.945 208.695V170.71H392.659Z" fill="#4C0788"/>
<path fill-rule="evenodd" clip-rule="evenodd" d="M339.026 170.71H276.59H263.445V208.695C263.445 216.165 265.871 223.122 270.021 228.931C277.084 238.821 289.157 245.371 302.879 245.371C307.493 245.371 311.903 244.594 316.023 243.231C331.308 238.188 342.312 224.652 342.312 208.695V170.71H339.026Z" fill="#FFC836"/>
<path d="M273.829 170.71H211.393H198.248V208.695C198.248 216.165 200.674 223.122 204.824 228.931C211.887 238.821 223.959 245.371 237.682 245.371C242.296 245.371 246.705 244.594 250.826 243.231C266.111 238.188 277.115 224.652 277.115 208.695V170.71H273.829Z" fill="#4C0788"/>
<path fill-rule="evenodd" clip-rule="evenodd" d="M207.583 170.71H145.146H132.002V208.695C132.002 216.165 134.428 223.122 138.577 228.931C145.641 238.821 157.713 245.371 171.435 245.371C176.05 245.371 180.459 244.594 184.58 243.231C199.865 238.188 210.869 224.652 210.869 208.695V170.71H207.583Z" fill="#FFC836"/>
<path d="M142.386 170.71H79.9492H66.8047V208.695C66.8047 216.165 69.2305 223.122 73.3802 228.931C80.4434 238.821 92.516 245.371 106.238 245.371C110.853 245.371 115.262 244.594 119.383 243.231C134.668 238.188 145.672 224.652 145.672 208.695V170.71H142.386Z" fill="#4C0788"/>
<path d="M230.759 129.264C234.196 129.264 236.981 126.479 236.981 123.042V79.5779V63.0159H224.538V79.5779V123.042C224.538 126.479 227.323 129.264 230.759 129.264Z" fill="#8464AC"/>
<rect x="163.547" y="274.914" width="67.2998" height="107.259" fill="#9C82BC"/>
<rect x="235.054" y="274.914" width="67.2998" height="107.259" fill="#9C82BC"/>
<rect x="104.659" width="253.426" height="71.5061" rx="4" fill="#4C0788"/>
<path d="M163.015 36.336V39H152.851V21.648H156.079V36.336H163.015ZM169.667 26.496C170.579 26.496 171.407 26.644 172.151 26.94C172.903 27.236 173.543 27.656 174.071 28.2C174.607 28.744 175.019 29.408 175.307 30.192C175.595 30.976 175.739 31.852 175.739 32.82C175.739 33.796 175.595 34.676 175.307 35.46C175.019 36.244 174.607 36.912 174.071 37.464C173.543 38.016 172.903 38.44 172.151 38.736C171.407 39.032 170.579 39.18 169.667 39.18C168.747 39.18 167.911 39.032 167.159 38.736C166.407 38.44 165.763 38.016 165.227 37.464C164.699 36.912 164.287 36.244 163.991 35.46C163.703 34.676 163.559 33.796 163.559 32.82C163.559 31.852 163.703 30.976 163.991 30.192C164.287 29.408 164.699 28.744 165.227 28.2C165.763 27.656 166.407 27.236 167.159 26.94C167.911 26.644 168.747 26.496 169.667 26.496ZM169.667 36.9C170.691 36.9 171.447 36.556 171.935 35.868C172.431 35.18 172.679 34.172 172.679 32.844C172.679 31.516 172.431 30.504 171.935 29.808C171.447 29.112 170.691 28.764 169.667 28.764C168.627 28.764 167.855 29.116 167.351 29.82C166.855 30.516 166.607 31.524 166.607 32.844C166.607 34.164 166.855 35.172 167.351 35.868C167.855 36.556 168.627 36.9 169.667 36.9ZM181.072 26.688V39.42C181.072 39.956 181 40.46 180.856 40.932C180.72 41.404 180.496 41.816 180.184 42.168C179.88 42.528 179.476 42.808 178.972 43.008C178.476 43.216 177.868 43.32 177.148 43.32C176.868 43.32 176.608 43.3 176.368 43.26C176.128 43.228 175.88 43.172 175.624 43.092L175.732 41.496C175.756 41.336 175.82 41.232 175.924 41.184C176.028 41.144 176.228 41.124 176.524 41.124C176.82 41.124 177.068 41.092 177.268 41.028C177.476 40.972 177.64 40.876 177.76 40.74C177.88 40.612 177.964 40.44 178.012 40.224C178.068 40.008 178.096 39.74 178.096 39.42V26.688H181.072ZM181.48 23.1C181.48 23.356 181.428 23.596 181.324 23.82C181.22 24.044 181.08 24.24 180.904 24.408C180.736 24.576 180.532 24.712 180.292 24.816C180.06 24.912 179.812 24.96 179.548 24.96C179.292 24.96 179.052 24.912 178.828 24.816C178.604 24.712 178.408 24.576 178.24 24.408C178.072 24.24 177.936 24.044 177.832 23.82C177.736 23.596 177.688 23.356 177.688 23.1C177.688 22.836 177.736 22.588 177.832 22.356C177.936 22.124 178.072 21.924 178.24 21.756C178.408 21.588 178.604 21.456 178.828 21.36C179.052 21.256 179.292 21.204 179.548 21.204C179.812 21.204 180.06 21.256 180.292 21.36C180.532 21.456 180.736 21.588 180.904 21.756C181.08 21.924 181.22 22.124 181.324 22.356C181.428 22.588 181.48 22.836 181.48 23.1ZM190.598 33.744C189.742 33.784 189.022 33.86 188.438 33.972C187.854 34.076 187.386 34.212 187.034 34.38C186.682 34.548 186.43 34.744 186.278 34.968C186.126 35.192 186.05 35.436 186.05 35.7C186.05 36.22 186.202 36.592 186.506 36.816C186.818 37.04 187.222 37.152 187.718 37.152C188.326 37.152 188.85 37.044 189.29 36.828C189.738 36.604 190.174 36.268 190.598 35.82V33.744ZM183.806 28.404C185.222 27.108 186.926 26.46 188.918 26.46C189.638 26.46 190.282 26.58 190.85 26.82C191.418 27.052 191.898 27.38 192.29 27.804C192.682 28.22 192.978 28.72 193.178 29.304C193.386 29.888 193.49 30.528 193.49 31.224V39H192.146C191.866 39 191.65 38.96 191.498 38.88C191.346 38.792 191.226 38.62 191.138 38.364L190.874 37.476C190.562 37.756 190.258 38.004 189.962 38.22C189.666 38.428 189.358 38.604 189.038 38.748C188.718 38.892 188.374 39 188.006 39.072C187.646 39.152 187.246 39.192 186.806 39.192C186.286 39.192 185.806 39.124 185.366 38.988C184.926 38.844 184.546 38.632 184.226 38.352C183.906 38.072 183.658 37.724 183.482 37.308C183.306 36.892 183.218 36.408 183.218 35.856C183.218 35.544 183.27 35.236 183.374 34.932C183.478 34.62 183.646 34.324 183.878 34.044C184.118 33.764 184.426 33.5 184.802 33.252C185.178 33.004 185.638 32.788 186.182 32.604C186.734 32.42 187.374 32.272 188.102 32.16C188.83 32.04 189.662 31.968 190.598 31.944V31.224C190.598 30.4 190.422 29.792 190.07 29.4C189.718 29 189.21 28.8 188.546 28.8C188.066 28.8 187.666 28.856 187.346 28.968C187.034 29.08 186.758 29.208 186.518 29.352C186.278 29.488 186.058 29.612 185.858 29.724C185.666 29.836 185.45 29.892 185.21 29.892C185.002 29.892 184.826 29.84 184.682 29.736C184.538 29.624 184.422 29.496 184.334 29.352L183.806 28.404ZM208.431 34.908C208.607 34.908 208.763 34.976 208.899 35.112L210.171 36.492C209.467 37.364 208.599 38.032 207.567 38.496C206.543 38.96 205.311 39.192 203.871 39.192C202.583 39.192 201.423 38.972 200.391 38.532C199.367 38.092 198.491 37.48 197.763 36.696C197.035 35.912 196.475 34.976 196.083 33.888C195.699 32.8 195.507 31.612 195.507 30.324C195.507 29.02 195.715 27.828 196.131 26.748C196.547 25.66 197.131 24.724 197.883 23.94C198.643 23.156 199.547 22.548 200.595 22.116C201.643 21.676 202.803 21.456 204.075 21.456C205.339 21.456 206.459 21.664 207.435 22.08C208.419 22.496 209.255 23.04 209.943 23.712L208.863 25.212C208.799 25.308 208.715 25.392 208.611 25.464C208.515 25.536 208.379 25.572 208.203 25.572C208.083 25.572 207.959 25.54 207.831 25.476C207.703 25.404 207.563 25.32 207.411 25.224C207.259 25.12 207.083 25.008 206.883 24.888C206.683 24.768 206.451 24.66 206.187 24.564C205.923 24.46 205.615 24.376 205.263 24.312C204.919 24.24 204.519 24.204 204.063 24.204C203.287 24.204 202.575 24.344 201.927 24.624C201.287 24.896 200.735 25.296 200.271 25.824C199.807 26.344 199.447 26.984 199.191 27.744C198.935 28.496 198.807 29.356 198.807 30.324C198.807 31.3 198.943 32.168 199.215 32.928C199.495 33.688 199.871 34.328 200.343 34.848C200.815 35.368 201.371 35.768 202.011 36.048C202.651 36.32 203.339 36.456 204.075 36.456C204.515 36.456 204.911 36.432 205.263 36.384C205.623 36.336 205.951 36.26 206.247 36.156C206.551 36.052 206.835 35.92 207.099 35.76C207.371 35.592 207.639 35.388 207.903 35.148C207.983 35.076 208.067 35.02 208.155 34.98C208.243 34.932 208.335 34.908 208.431 34.908ZM217.104 26.496C218.016 26.496 218.844 26.644 219.588 26.94C220.34 27.236 220.98 27.656 221.508 28.2C222.044 28.744 222.456 29.408 222.744 30.192C223.032 30.976 223.176 31.852 223.176 32.82C223.176 33.796 223.032 34.676 222.744 35.46C222.456 36.244 222.044 36.912 221.508 37.464C220.98 38.016 220.34 38.44 219.588 38.736C218.844 39.032 218.016 39.18 217.104 39.18C216.184 39.18 215.348 39.032 214.596 38.736C213.844 38.44 213.2 38.016 212.664 37.464C212.136 36.912 211.724 36.244 211.428 35.46C211.14 34.676 210.996 33.796 210.996 32.82C210.996 31.852 211.14 30.976 211.428 30.192C211.724 29.408 212.136 28.744 212.664 28.2C213.2 27.656 213.844 27.236 214.596 26.94C215.348 26.644 216.184 26.496 217.104 26.496ZM217.104 36.9C218.128 36.9 218.884 36.556 219.372 35.868C219.868 35.18 220.116 34.172 220.116 32.844C220.116 31.516 219.868 30.504 219.372 29.808C218.884 29.112 218.128 28.764 217.104 28.764C216.064 28.764 215.292 29.116 214.788 29.82C214.292 30.516 214.044 31.524 214.044 32.844C214.044 34.164 214.292 35.172 214.788 35.868C215.292 36.556 216.064 36.9 217.104 36.9ZM233.166 29.832C232.83 29.424 232.462 29.136 232.062 28.968C231.67 28.8 231.246 28.716 230.79 28.716C230.342 28.716 229.938 28.8 229.578 28.968C229.218 29.136 228.91 29.392 228.654 29.736C228.398 30.072 228.202 30.504 228.066 31.032C227.93 31.552 227.862 32.168 227.862 32.88C227.862 33.6 227.918 34.212 228.03 34.716C228.15 35.212 228.318 35.62 228.534 35.94C228.75 36.252 229.014 36.48 229.326 36.624C229.638 36.76 229.986 36.828 230.37 36.828C230.986 36.828 231.51 36.7 231.942 36.444C232.374 36.188 232.782 35.824 233.166 35.352V29.832ZM236.13 21.168V39H234.318C233.926 39 233.678 38.82 233.574 38.46L233.322 37.272C232.826 37.84 232.254 38.3 231.606 38.652C230.966 39.004 230.218 39.18 229.362 39.18C228.69 39.18 228.074 39.04 227.514 38.76C226.954 38.48 226.47 38.076 226.062 37.548C225.662 37.012 225.35 36.352 225.126 35.568C224.91 34.784 224.802 33.888 224.802 32.88C224.802 31.968 224.926 31.12 225.174 30.336C225.422 29.552 225.778 28.872 226.242 28.296C226.706 27.72 227.262 27.272 227.91 26.952C228.558 26.624 229.286 26.46 230.094 26.46C230.782 26.46 231.37 26.568 231.858 26.784C232.346 27 232.782 27.292 233.166 27.66V21.168H236.13ZM242.127 26.688V39H239.151V26.688H242.127ZM242.535 23.1C242.535 23.356 242.483 23.596 242.379 23.82C242.275 24.044 242.135 24.24 241.959 24.408C241.791 24.576 241.591 24.712 241.359 24.816C241.127 24.912 240.879 24.96 240.615 24.96C240.359 24.96 240.115 24.912 239.883 24.816C239.659 24.712 239.463 24.576 239.295 24.408C239.127 24.24 238.991 24.044 238.887 23.82C238.791 23.596 238.743 23.356 238.743 23.1C238.743 22.836 238.791 22.588 238.887 22.356C238.991 22.124 239.127 21.924 239.295 21.756C239.463 21.588 239.659 21.456 239.883 21.36C240.115 21.256 240.359 21.204 240.615 21.204C240.879 21.204 241.127 21.256 241.359 21.36C241.591 21.456 241.791 21.588 241.959 21.756C242.135 21.924 242.275 22.124 242.379 22.356C242.483 22.588 242.535 22.836 242.535 23.1ZM249.649 32.544C250.017 32.544 250.337 32.496 250.609 32.4C250.881 32.296 251.105 32.156 251.281 31.98C251.465 31.804 251.601 31.592 251.689 31.344C251.785 31.096 251.833 30.824 251.833 30.528C251.833 29.92 251.649 29.44 251.281 29.088C250.921 28.728 250.377 28.548 249.649 28.548C248.921 28.548 248.373 28.728 248.005 29.088C247.645 29.44 247.465 29.92 247.465 30.528C247.465 30.816 247.509 31.084 247.597 31.332C247.693 31.58 247.829 31.796 248.005 31.98C248.189 32.156 248.417 32.296 248.689 32.4C248.969 32.496 249.289 32.544 249.649 32.544ZM252.997 39.552C252.997 39.312 252.925 39.116 252.781 38.964C252.637 38.812 252.441 38.696 252.193 38.616C251.945 38.528 251.653 38.464 251.317 38.424C250.989 38.384 250.637 38.356 250.261 38.34C249.893 38.316 249.509 38.296 249.109 38.28C248.717 38.264 248.333 38.232 247.957 38.184C247.629 38.368 247.361 38.584 247.153 38.832C246.953 39.08 246.853 39.368 246.853 39.696C246.853 39.912 246.905 40.112 247.009 40.296C247.121 40.488 247.293 40.652 247.525 40.788C247.765 40.924 248.073 41.028 248.449 41.1C248.825 41.18 249.285 41.22 249.829 41.22C250.381 41.22 250.857 41.176 251.257 41.088C251.657 41.008 251.985 40.892 252.241 40.74C252.505 40.596 252.697 40.42 252.817 40.212C252.937 40.012 252.997 39.792 252.997 39.552ZM255.949 27.108V28.212C255.949 28.564 255.737 28.78 255.313 28.86L254.209 29.064C254.377 29.488 254.461 29.952 254.461 30.456C254.461 31.064 254.337 31.616 254.089 32.112C253.849 32.6 253.513 33.016 253.081 33.36C252.649 33.704 252.137 33.972 251.545 34.164C250.961 34.348 250.329 34.44 249.649 34.44C249.409 34.44 249.177 34.428 248.953 34.404C248.729 34.38 248.509 34.348 248.293 34.308C247.909 34.54 247.717 34.8 247.717 35.088C247.717 35.336 247.829 35.52 248.053 35.64C248.285 35.752 248.589 35.832 248.965 35.88C249.341 35.928 249.769 35.96 250.249 35.976C250.729 35.984 251.221 36.008 251.725 36.048C252.229 36.088 252.721 36.16 253.201 36.264C253.681 36.36 254.109 36.516 254.485 36.732C254.861 36.948 255.161 37.244 255.385 37.62C255.617 37.988 255.733 38.464 255.733 39.048C255.733 39.592 255.597 40.12 255.325 40.632C255.061 41.144 254.673 41.6 254.161 42C253.657 42.4 253.033 42.72 252.289 42.96C251.553 43.208 250.713 43.332 249.769 43.332C248.841 43.332 248.033 43.24 247.345 43.056C246.657 42.88 246.085 42.64 245.629 42.336C245.173 42.04 244.833 41.696 244.609 41.304C244.385 40.912 244.273 40.504 244.273 40.08C244.273 39.504 244.445 39.024 244.789 38.64C245.141 38.248 245.621 37.936 246.229 37.704C245.901 37.536 245.641 37.312 245.449 37.032C245.257 36.752 245.161 36.384 245.161 35.928C245.161 35.744 245.193 35.556 245.257 35.364C245.329 35.164 245.429 34.968 245.557 34.776C245.693 34.584 245.861 34.404 246.061 34.236C246.261 34.06 246.497 33.904 246.769 33.768C246.145 33.432 245.653 32.984 245.293 32.424C244.941 31.864 244.765 31.208 244.765 30.456C244.765 29.848 244.885 29.3 245.125 28.812C245.373 28.316 245.713 27.896 246.145 27.552C246.585 27.2 247.101 26.932 247.693 26.748C248.293 26.564 248.945 26.472 249.649 26.472C250.177 26.472 250.673 26.528 251.137 26.64C251.601 26.744 252.025 26.9 252.409 27.108H255.949ZM263.065 26.496C263.977 26.496 264.805 26.644 265.549 26.94C266.301 27.236 266.941 27.656 267.469 28.2C268.005 28.744 268.417 29.408 268.705 30.192C268.993 30.976 269.137 31.852 269.137 32.82C269.137 33.796 268.993 34.676 268.705 35.46C268.417 36.244 268.005 36.912 267.469 37.464C266.941 38.016 266.301 38.44 265.549 38.736C264.805 39.032 263.977 39.18 263.065 39.18C262.145 39.18 261.309 39.032 260.557 38.736C259.805 38.44 259.161 38.016 258.625 37.464C258.097 36.912 257.685 36.244 257.389 35.46C257.101 34.676 256.957 33.796 256.957 32.82C256.957 31.852 257.101 30.976 257.389 30.192C257.685 29.408 258.097 28.744 258.625 28.2C259.161 27.656 259.805 27.236 260.557 26.94C261.309 26.644 262.145 26.496 263.065 26.496ZM263.065 36.9C264.089 36.9 264.845 36.556 265.333 35.868C265.829 35.18 266.077 34.172 266.077 32.844C266.077 31.516 265.829 30.504 265.333 29.808C264.845 29.112 264.089 28.764 263.065 28.764C262.025 28.764 261.253 29.116 260.749 29.82C260.253 30.516 260.005 31.524 260.005 32.844C260.005 34.164 260.253 35.172 260.749 35.868C261.253 36.556 262.025 36.9 263.065 36.9ZM282.355 36.78V39H272.755V36.78H276.271V26.664C276.271 26.264 276.283 25.852 276.307 25.428L273.811 27.516C273.667 27.628 273.523 27.7 273.379 27.732C273.243 27.756 273.111 27.756 272.983 27.732C272.863 27.708 272.755 27.668 272.659 27.612C272.563 27.548 272.491 27.48 272.443 27.408L271.507 26.124L276.799 21.624H279.235V36.78H282.355ZM295.628 36.24C295.948 36.24 296.2 36.332 296.384 36.516C296.576 36.692 296.672 36.928 296.672 37.224V39H284.768V38.016C284.768 37.816 284.808 37.608 284.888 37.392C284.976 37.168 285.112 36.968 285.296 36.792L290.564 31.512C291.004 31.064 291.396 30.636 291.74 30.228C292.092 29.82 292.384 29.416 292.616 29.016C292.848 28.616 293.024 28.212 293.144 27.804C293.272 27.388 293.336 26.952 293.336 26.496C293.336 26.08 293.276 25.716 293.156 25.404C293.036 25.084 292.864 24.816 292.64 24.6C292.424 24.384 292.16 24.224 291.848 24.12C291.544 24.008 291.2 23.952 290.816 23.952C290.464 23.952 290.136 24.004 289.832 24.108C289.536 24.204 289.272 24.344 289.04 24.528C288.808 24.704 288.612 24.912 288.452 25.152C288.292 25.392 288.172 25.656 288.092 25.944C287.956 26.312 287.78 26.556 287.564 26.676C287.348 26.796 287.036 26.824 286.628 26.76L285.068 26.484C285.188 25.652 285.42 24.924 285.764 24.3C286.108 23.668 286.536 23.144 287.048 22.728C287.568 22.304 288.16 21.988 288.824 21.78C289.496 21.564 290.216 21.456 290.984 21.456C291.784 21.456 292.516 21.576 293.18 21.816C293.844 22.048 294.412 22.38 294.884 22.812C295.356 23.244 295.724 23.764 295.988 24.372C296.252 24.98 296.384 25.656 296.384 26.4C296.384 27.04 296.288 27.632 296.096 28.176C295.912 28.72 295.66 29.24 295.34 29.736C295.028 30.232 294.66 30.712 294.236 31.176C293.812 31.64 293.368 32.112 292.904 32.592L288.992 36.588C289.368 36.476 289.74 36.392 290.108 36.336C290.484 36.272 290.84 36.24 291.176 36.24H295.628ZM299.074 26.484C299.194 25.652 299.426 24.924 299.77 24.3C300.114 23.668 300.542 23.144 301.054 22.728C301.574 22.304 302.166 21.988 302.83 21.78C303.502 21.564 304.222 21.456 304.99 21.456C305.79 21.456 306.51 21.572 307.15 21.804C307.798 22.028 308.35 22.344 308.806 22.752C309.262 23.152 309.61 23.624 309.85 24.168C310.098 24.712 310.222 25.3 310.222 25.932C310.222 26.484 310.158 26.972 310.03 27.396C309.91 27.812 309.734 28.176 309.502 28.488C309.27 28.8 308.982 29.064 308.638 29.28C308.294 29.496 307.906 29.676 307.474 29.82C308.514 30.148 309.29 30.648 309.802 31.32C310.314 31.992 310.57 32.836 310.57 33.852C310.57 34.716 310.41 35.48 310.09 36.144C309.77 36.808 309.338 37.368 308.794 37.824C308.25 38.272 307.618 38.612 306.898 38.844C306.186 39.076 305.43 39.192 304.63 39.192C303.758 39.192 302.998 39.092 302.35 38.892C301.702 38.692 301.138 38.396 300.658 38.004C300.178 37.612 299.77 37.132 299.434 36.564C299.098 35.996 298.81 35.34 298.57 34.596L299.878 34.056C300.222 33.912 300.542 33.876 300.838 33.948C301.142 34.012 301.362 34.172 301.498 34.428C301.642 34.708 301.798 34.984 301.966 35.256C302.142 35.528 302.35 35.772 302.59 35.988C302.83 36.196 303.11 36.368 303.43 36.504C303.758 36.632 304.146 36.696 304.594 36.696C305.098 36.696 305.538 36.616 305.914 36.456C306.29 36.288 306.602 36.072 306.85 35.808C307.106 35.544 307.294 35.252 307.414 34.932C307.542 34.604 307.606 34.276 307.606 33.948C307.606 33.532 307.562 33.156 307.474 32.82C307.386 32.476 307.202 32.184 306.922 31.944C306.642 31.704 306.238 31.516 305.71 31.38C305.19 31.244 304.49 31.176 303.61 31.176V29.064C304.338 29.056 304.942 28.988 305.422 28.86C305.902 28.732 306.282 28.556 306.562 28.332C306.85 28.1 307.05 27.824 307.162 27.504C307.274 27.184 307.33 26.832 307.33 26.448C307.33 25.632 307.102 25.012 306.646 24.588C306.19 24.164 305.582 23.952 304.822 23.952C304.47 23.952 304.146 24.004 303.85 24.108C303.554 24.204 303.286 24.344 303.046 24.528C302.814 24.704 302.618 24.912 302.458 25.152C302.298 25.392 302.178 25.656 302.098 25.944C301.962 26.312 301.782 26.556 301.558 26.676C301.342 26.796 301.034 26.824 300.634 26.76L299.074 26.484Z" fill="white"/>
<path d="M386.227 381.717L389.633 350.17L347.57 350.18L350.976 381.717H386.227Z" fill="#FFC836"/>
<path d="M369.655 349.117C376.043 349.117 381.222 343.939 381.222 337.55C381.222 331.162 376.043 325.983 369.655 325.983C363.266 325.983 358.087 331.162 358.087 337.55C358.087 343.939 363.266 349.117 369.655 349.117Z" fill="#4C0788"/>
<path d="M361.243 349.118C365.308 349.118 368.604 345.822 368.604 341.757C368.604 337.692 365.308 334.396 361.243 334.396C357.177 334.396 353.882 337.692 353.882 341.757C353.882 345.822 357.177 349.118 361.243 349.118Z" fill="#4C0788"/>
<path d="M381.221 351.221C382.383 351.221 383.324 350.28 383.324 349.118C383.324 347.956 382.383 347.015 381.221 347.015C380.06 347.015 379.118 347.956 379.118 349.118C379.118 350.28 380.06 351.221 381.221 351.221Z" fill="#FFC836"/>
<path d="M380.171 334.396C381.333 334.396 382.274 333.455 382.274 332.293C382.274 331.132 381.333 330.19 380.171 330.19C379.009 330.19 378.068 331.132 378.068 332.293C378.068 333.455 379.009 334.396 380.171 334.396Z" fill="#4C0788"/>
</svg>
