<svg width="122" height="192" viewBox="0 0 122 192" fill="none" xmlns="http://www.w3.org/2000/svg">
<path d="M116.686 2C110.318 2 104.419 5.33135 101.12 10.7797C92.1927 25.5328 90.1907 53.677 60.7992 53.677C31.4078 53.677 29.3975 25.5328 20.4784 10.7797C17.1798 5.33135 11.2802 2 4.91288 2H2V91.4296V138.323H4.91288C11.2802 138.323 17.1798 141.654 20.4784 147.103C29.4057 161.856 31.4078 190 60.7992 190C90.1907 190 92.201 161.856 101.12 147.103C104.419 141.654 110.31 138.323 116.686 138.323H119.598V91.4296V2H116.686Z" stroke="url(#paint0_linear)" stroke-width="3.4956" stroke-miterlimit="10"/>
<path d="M21.8322 93.5056C21.8322 91.7661 21.7994 90.3384 21.6927 88.9435H24.4087L24.581 91.7251H24.6466C25.4836 90.125 27.4282 88.5578 30.218 88.5578C32.5483 88.5578 36.1669 89.9527 36.1669 95.7211V105.773H33.1063V96.0657C33.1063 93.3497 32.0971 91.0933 29.2088 91.0933C27.1903 91.0933 25.6231 92.521 25.1061 94.2277C24.9666 94.6134 24.901 95.1303 24.901 95.6554V105.781H21.8404V93.5056H21.8322Z" fill="#56368D"/>
<path d="M50.4687 105.789L50.2226 103.664H50.1159C49.1805 104.985 47.3671 106.166 44.963 106.166C41.5496 106.166 39.81 103.762 39.81 101.333C39.81 97.2636 43.4286 95.04 49.9354 95.0728V94.7282C49.9354 93.3333 49.5497 90.8306 46.1117 90.8306C44.5445 90.8306 42.9116 91.3148 41.7301 92.0861L41.0326 90.0676C42.4275 89.165 44.446 88.5742 46.563 88.5742C51.7159 88.5742 52.9631 92.0861 52.9631 95.4666V101.76C52.9631 103.221 53.0288 104.648 53.2421 105.797H50.4687V105.789ZM50.0092 97.1898C46.6697 97.1241 42.8788 97.7149 42.8788 100.981C42.8788 102.966 44.1999 103.902 45.7671 103.902C47.9579 103.902 49.3528 102.507 49.8369 101.079C49.9436 100.767 50.0092 100.414 50.0092 100.103V97.1898Z" fill="#56368D"/>
<path d="M58.1489 105.789V92.0451H55.8514V88.845H58.1489V88.0409C58.1489 83.4787 61.3162 80.6971 66.3624 80.6971C68.0281 80.6971 70.0466 81.1484 71.0231 81.7802L70.0876 85.0131C69.2835 84.5618 67.9625 84.1105 66.3624 84.1105C63.3675 84.1105 62.3993 85.9157 62.3993 88.1476V88.845H72.5246V105.789H68.2086V92.0451H62.4321V105.789H58.1489Z" fill="#56368D"/>
<path d="M77.1115 81.0827H81.4275V105.789H77.1115V81.0827Z" fill="#56368D"/>
<path d="M95.5815 105.789L95.3025 103.91H95.1959C94.1538 105.231 92.3732 106.175 90.1824 106.175C86.769 106.175 84.8572 103.705 84.8572 101.128C84.8572 96.8534 88.648 94.6954 94.9087 94.7282V94.4492C94.9087 93.3333 94.4574 91.4953 91.4624 91.4953C89.7886 91.4953 88.049 92.0205 86.9003 92.7507L86.0634 89.9691C87.3188 89.206 89.5096 88.4758 92.1845 88.4758C97.6082 88.4758 99.1754 91.922 99.1754 95.6062V101.727C99.1754 103.262 99.2493 104.755 99.4216 105.797H95.5815V105.789ZM95.0317 97.5016C92.004 97.4278 89.1157 98.0924 89.1157 100.669C89.1157 102.343 90.1906 103.106 91.5527 103.106C93.2594 103.106 94.5066 101.99 94.8923 100.776C94.9989 100.464 95.0317 100.111 95.0317 99.8401V97.5016Z" fill="#56368D"/>
<defs>
<linearGradient id="paint0_linear" x1="81.6521" y1="188.415" x2="47.0826" y2="-7.63836" gradientUnits="userSpaceOnUse">
<stop stop-color="#4B2682"/>
<stop offset="0.2953" stop-color="#4D2784"/>
<stop offset="0.9992" stop-color="#6157A2"/>
</linearGradient>
</defs>
</svg>
