<svg width="96" height="30" viewBox="0 0 96 30" fill="none" xmlns="http://www.w3.org/2000/svg">
<path d="M35.5472 2.46382C34.7163 1.30948 33.3564 0.794922 32.1168 0.794922C30.3664 0.794922 28.7363 1.69426 28.0166 3.62272C27.1857 1.69654 26.0233 0.794922 24.1685 0.794922C22.3409 0.794922 20.9855 1.69426 20.2613 3.62272H20.2113V1.62823C20.1932 1.35274 19.9616 1.12961 19.6733 1.11823H16.9081C16.5925 1.11823 16.3359 1.36185 16.3359 1.66694V16.9307C16.3564 17.2039 16.5834 17.4156 16.8672 17.4338H19.8345C20.15 17.4338 20.4043 17.1857 20.4043 16.8828V8.78879C20.4043 7.02427 20.318 4.58125 22.4476 4.58125C24.5544 4.58125 24.2797 7.08574 24.2797 8.78879V16.8806C24.2797 17.1743 24.5158 17.4088 24.8155 17.4316H27.776C28.0961 17.4316 28.3481 17.1834 28.3481 16.8806V8.78879C28.3481 7.92133 28.3209 6.63266 28.6228 5.8631C28.927 5.09354 29.6785 4.61313 30.3959 4.61313C31.2564 4.61313 31.9193 4.90228 32.1395 5.92685C32.2803 6.53931 32.2235 8.14446 32.2235 8.78879V16.8806C32.2235 17.1743 32.4619 17.4088 32.757 17.4316H35.7198C36.0354 17.4316 36.2896 17.1834 36.2896 16.8806L36.2942 7.24967C36.2942 5.61265 36.4849 3.74794 35.5472 2.46382Z" fill="white"/>
<path d="M74.6389 0.798828C70.348 0.798828 67.9688 4.49408 67.9688 9.24351C67.9688 13.9656 70.3185 17.7542 74.6389 17.7542C78.789 17.7542 81.4203 14.0612 81.4203 9.40516C81.4316 4.58744 79.0433 0.798828 74.6389 0.798828ZM74.6389 14.6077C72.3141 14.6077 72.3391 10.6255 72.3391 8.76082C72.3391 6.90067 72.4798 3.9135 74.6616 3.9135C75.6015 3.9135 76.2712 4.32788 76.6004 5.39115C76.9909 6.61152 77.0454 8.15064 77.0454 9.43931C77.0545 11.3974 76.9433 14.6077 74.6389 14.6077Z" fill="white"/>
<path d="M52.8997 14.6411C52.3593 13.8852 51.7872 13.275 51.7872 11.8838V7.24825C51.7872 5.28792 51.9212 3.48469 50.4795 2.13227C49.3421 1.03713 47.4555 0.652344 46.0138 0.652344C43.1941 0.652344 40.0407 1.70651 39.3823 5.20368C39.3119 5.57708 39.5798 5.77289 39.8227 5.82753L42.6969 6.13717C42.9648 6.12579 43.1623 5.86168 43.2146 5.59302C43.4575 4.38859 44.4678 3.808 45.5984 3.808C46.2091 3.808 46.9015 4.0334 47.258 4.58211C47.678 5.1923 47.6212 6.03017 47.6212 6.73598L47.6189 7.11392C45.9003 7.312 43.6527 7.43723 42.0431 8.14759C40.1837 8.95131 38.8828 10.5952 38.8828 13.0086C38.8828 16.0982 40.8217 17.6442 43.3167 17.6442C45.4236 17.6442 46.5814 17.1455 48.207 15.4812C48.7427 16.2644 48.9221 16.6469 49.9074 17.4666C50.1322 17.585 50.416 17.5713 50.6112 17.3983L50.6157 17.4028C51.2083 16.8792 52.2821 15.9343 52.886 15.4288C53.1244 15.2307 53.0904 14.9074 52.8997 14.6411ZM47.6189 10.1444C47.6189 11.3033 47.6507 12.2686 47.0627 13.2977C46.595 14.1356 45.8436 14.6479 45.0172 14.6479C43.8752 14.6479 43.2077 13.7804 43.2077 12.494C43.2077 9.95993 45.4735 9.50002 47.6189 9.50002V10.1444Z" fill="white"/>
<path d="M95.0528 2.59588C94.2196 1.27988 92.9142 0.797199 91.5861 0.794922C89.5405 0.794922 88.3713 1.78989 87.5449 3.87772H87.4972V1.54399C87.4405 1.30493 87.2225 1.12734 86.966 1.11595H84.2167C83.9147 1.11595 83.6718 1.33453 83.6445 1.61457L83.6491 16.8828C83.6491 17.1766 83.8829 17.4156 84.1849 17.4384H87.134C87.4541 17.4384 87.7106 17.1902 87.7152 16.8828V8.66813C87.7152 7.63673 87.7674 6.71007 88.1897 5.77658C88.5189 5.04117 89.1795 4.55621 89.906 4.55621C91.9493 4.55621 91.7541 6.99923 91.7541 8.66813V16.958C91.7768 17.2153 92.0106 17.4156 92.2762 17.4407H95.2526C95.55 17.4407 95.7884 17.2244 95.8292 16.958V7.34985C95.8292 5.87221 95.8292 3.8208 95.0528 2.59588Z" fill="white"/>
<path d="M66.0194 13.302C64.3167 12.3412 62.3393 12.0589 60.4595 12.1067L65.5177 4.87552C65.9831 4.22435 66.2487 3.8168 66.2487 3.5026V1.63334C66.2487 1.30548 66.0013 1.08008 65.6857 1.08008H55.9393C55.6351 1.08008 55.3899 1.30093 55.3899 1.63334V3.8168C55.3899 4.14239 55.6351 4.36551 55.9529 4.36551H61.0475L55.1946 12.7806C54.8405 13.3202 54.8359 13.9258 54.8359 14.281V16.4964C54.8359 16.8151 55.1969 17.1817 55.5329 16.995C58.8498 15.2304 62.8274 15.4058 65.8242 16.9813C66.1965 17.1726 66.5416 16.7992 66.5416 16.4804V14.149C66.5076 13.837 66.4054 13.516 66.0194 13.302Z" fill="white"/>
<path d="M64.1353 18.8297C63.5291 18.0761 58.3074 17.4272 55.1222 19.6698C54.6363 20.0136 54.7158 20.4895 55.2629 20.4257C57.0542 20.214 61.0499 19.7336 61.7583 20.6443C62.4689 21.5573 60.9659 25.3277 60.2916 27.008C60.085 27.518 60.5255 27.7229 60.9841 27.3404C63.9786 24.8405 64.746 19.5901 64.1353 18.8297Z" fill="white"/>
<path d="M58.644 21.9873C52.4053 24.6444 45.6193 25.9239 39.4441 25.9239C30.3016 25.9239 21.4406 23.4126 14.2823 19.2324C13.658 18.8635 13.1926 19.5079 13.7125 19.9792C20.3486 25.9922 29.1188 29.6078 38.8606 29.6078C45.8123 29.6078 53.8787 27.4152 59.45 23.2988C60.3695 22.6157 59.5862 21.5912 58.644 21.9873Z" fill="white"/>
<path d="M14.0191 14.6411C13.4765 13.8852 12.9021 13.275 12.9021 11.8838V7.24825C12.9021 5.28792 13.0406 3.48469 11.599 2.13227C10.4593 1.03713 8.57493 0.652344 7.12875 0.652344C4.30904 0.652344 1.1624 1.70651 0.497196 5.20368C0.429087 5.57708 0.701524 5.77289 0.937635 5.82753L3.82092 6.13717C4.08428 6.12579 4.28179 5.86168 4.33401 5.59302C4.57693 4.38859 5.58949 3.808 6.7201 3.808C7.32854 3.808 8.01871 4.0334 8.38196 4.58211C8.79515 5.1923 8.7384 6.03017 8.7384 6.73598V7.11848C7.02205 7.31884 4.77445 7.44406 3.16253 8.15443C1.30996 8.95358 0 10.5974 0 13.0109C0 16.1005 1.94338 17.6464 4.43844 17.6464C6.54982 17.6464 7.70314 17.1478 9.32868 15.4835C9.86674 16.2667 10.0438 16.6492 11.0291 17.4688C11.2516 17.5872 11.5331 17.5736 11.7307 17.4005L11.7397 17.4051C12.33 16.8814 13.4039 15.9366 14.0123 15.4311C14.253 15.2262 14.2121 14.9074 14.0191 14.6411ZM8.7384 10.1444C8.7384 11.3033 8.77018 12.2686 8.18444 13.2977C7.71449 14.1356 6.96756 14.6479 6.13209 14.6479C4.99467 14.6479 4.33401 13.7804 4.33401 12.494C4.33401 9.95993 6.5975 9.50002 8.7384 9.50002V10.1444Z" fill="white"/>
</svg>
