<svg width="81" height="52" viewBox="0 0 81 52" fill="none" xmlns="http://www.w3.org/2000/svg">
<path d="M2.95035 4.79443H71.5461C73.2057 4.79443 74.4965 6.08521 74.4965 7.74479V49.0497C74.4965 50.7093 73.2057 52.0001 71.5461 52.0001H2.95035C1.29078 52.0001 0 50.7093 0 49.0497V7.74479C0 6.08521 1.29078 4.79443 2.95035 4.79443Z" fill="#4C0788"/>
<path fill-rule="evenodd" clip-rule="evenodd" d="M4.97872 7.74463C3.25768 7.74463 2.45863 9.9574 3.81087 11.0638L34.7896 35.4657C36.1418 36.5106 37.9858 36.5106 39.3381 35.4657L70.6241 11.0638C71.9764 9.9574 71.2388 7.74463 69.5177 7.74463H4.97872Z" fill="white"/>
<path fill-rule="evenodd" clip-rule="evenodd" d="M71.915 16.2269C76.402 16.2269 80.0285 12.6005 80.0285 8.11347C80.0285 3.62648 76.402 0 71.915 0C67.428 0 63.8015 3.62648 63.8015 8.11347C63.8015 12.6005 67.428 16.2269 71.915 16.2269Z" fill="#E81B13"/>
<path fill-rule="evenodd" clip-rule="evenodd" d="M71.9148 10.6949C73.3285 10.6949 74.4964 9.52701 74.4964 8.1133C74.4964 6.69959 73.3285 5.53174 71.9148 5.53174C70.5011 5.53174 69.3333 6.69959 69.3333 8.1133C69.3333 9.52701 70.5011 10.6949 71.9148 10.6949Z" fill="white"/>
</svg>
