<svg width="65" height="65" viewBox="0 0 65 65" fill="none" xmlns="http://www.w3.org/2000/svg">
<path d="M47.8 0H6.6C3 0 0 3 0 6.5V35.1C0 38.7 2.8 41.6 6.6 41.6H11.3C11.5 41.7 11.5 41.9 11.5 41.9V55.3C11.5 55.9 11.8 56.3 12.4 56.4C12.5 56.4 12.7 56.5 12.8 56.5C13.2 56.5 13.5 56.4 13.8 56.1L24.6 43.6L26.2 41.8H47.8C51.4 41.8 54.4 39 54.4 35.3V6.6C54.2 2.9 51.3 0 47.8 0Z" fill="#4C0788"/>
<path fill-rule="evenodd" clip-rule="evenodd" d="M56.9467 5.3999C61.3348 5.3999 65 9.03547 65 13.3539V41.7514C65 46.1543 61.5483 49.7054 56.9467 49.7054H53.5814V61.8084C53.5814 62.3515 53.4438 62.9596 53.0293 63.4777C52.61 64.0019 52.0328 64.277 51.4515 64.3773C51.4171 64.3888 51.3475 64.4118 51.2753 64.4315C51.2311 64.4436 51.1694 64.4591 51.0971 64.472C51.0283 64.4844 50.9207 64.4999 50.7906 64.4999C50.4668 64.4999 50.0991 64.4595 49.7185 64.313C49.3311 64.1641 49.0097 63.9361 48.737 63.6634L48.6984 63.6248L48.6627 63.5834L37.9459 51.1798L36.8119 49.904H23.9818V49.8999H21.3L23.9818 46.9202V46.904H23.9963L24 46.8999V46.904H37.4855H38.1591L38.6066 47.4074L40.1953 49.1947L40.2023 49.2026L40.2092 49.2106L50.5814 61.2155V48.5033H52.0814C50.5814 48.5033 50.5814 48.5025 50.5814 48.5018V48.5003V48.4973L50.5815 48.4912L50.5816 48.4787L50.5823 48.4518C50.5829 48.4332 50.5839 48.413 50.5854 48.3913C50.5883 48.3482 50.5934 48.2981 50.602 48.2426C50.6187 48.1335 50.6507 47.9916 50.7135 47.8345C50.8455 47.5045 51.1171 47.1098 51.6092 46.8638L51.9259 46.7054H52.28H56.9467C59.8914 46.7054 62 44.4975 62 41.7514V13.3539C62 10.7219 59.7077 8.3999 56.9467 8.3999H56V5.3999H56.9467Z" fill="#4C0788"/>
<path d="M25.1523 25.3765C25.1523 23.8179 25.3457 22.5757 25.7324 21.6499C26.1191 20.7241 26.8809 19.7104 28.0176 18.6089C29.166 17.4956 29.8926 16.7046 30.1973 16.2358C30.666 15.521 30.9004 14.7476 30.9004 13.9155C30.9004 12.814 30.625 11.9761 30.0742 11.4019C29.5352 10.8159 28.7383 10.5229 27.6836 10.5229C26.6758 10.5229 25.8613 10.8101 25.2402 11.3843C24.6309 11.9468 24.3262 12.7144 24.3262 13.687H20.0547C20.0781 11.6128 20.7812 9.97217 22.1641 8.76514C23.5586 7.55811 25.3984 6.95459 27.6836 6.95459C30.0391 6.95459 31.873 7.55225 33.1855 8.74756C34.5098 9.94287 35.1719 11.6128 35.1719 13.7573C35.1719 15.6675 34.2812 17.5483 32.5 19.3999L30.3379 21.5269C29.5645 22.4058 29.166 23.689 29.1426 25.3765H25.1523ZM24.8535 30.8433C24.8535 30.1519 25.0703 29.5952 25.5039 29.1733C25.9375 28.7397 26.5234 28.5229 27.2617 28.5229C28.0117 28.5229 28.6035 28.7456 29.0371 29.1909C29.4707 29.6245 29.6875 30.1753 29.6875 30.8433C29.6875 31.4878 29.4766 32.0269 29.0547 32.4604C28.6328 32.894 28.0352 33.1108 27.2617 33.1108C26.4883 33.1108 25.8906 32.894 25.4688 32.4604C25.0586 32.0269 24.8535 31.4878 24.8535 30.8433Z" fill="white"/>
</svg>
