<svg width="135" height="41" viewBox="0 0 135 41" fill="none" xmlns="http://www.w3.org/2000/svg">
<path d="M1.64519 7.15825C1.86063 6.9167 2.08913 6.69799 2.33068 6.50214C2.57224 6.30628 2.82685 6.1398 3.09452 6.0027C3.36872 5.85908 3.65597 5.75136 3.95628 5.67954C4.26312 5.6012 4.59282 5.56203 4.94536 5.56203C5.48722 5.56203 5.96381 5.65343 6.3751 5.83623C6.79293 6.0125 7.13894 6.26711 7.41314 6.60006C7.69386 6.92649 7.90604 7.32146 8.04967 7.78499C8.1933 8.24851 8.26511 8.761 8.26511 9.32246V15.6388H6.5122V9.32246C6.5122 8.57168 6.3392 7.99064 5.99318 7.57934C5.6537 7.16152 5.13468 6.9526 4.43613 6.9526C3.92038 6.9526 3.43727 7.07664 2.9868 7.32473C2.54286 7.57281 2.13156 7.90903 1.75291 8.33339V15.6388H0V5.71871H1.04783C1.29591 5.71871 1.44933 5.83949 1.50809 6.08104L1.64519 7.15825Z" fill="black"/>
<path d="M16.2975 11.1733C15.4945 11.1994 14.809 11.2647 14.241 11.3691C13.6796 11.4671 13.2193 11.5976 12.8602 11.7609C12.5077 11.9241 12.2498 12.1167 12.0866 12.3386C11.9299 12.5606 11.8516 12.8087 11.8516 13.0829C11.8516 13.344 11.894 13.5693 11.9789 13.7586C12.0637 13.9479 12.178 14.1046 12.3216 14.2286C12.4718 14.3462 12.6448 14.4343 12.8406 14.493C13.043 14.5453 13.2585 14.5714 13.487 14.5714C13.7938 14.5714 14.0745 14.542 14.3291 14.4833C14.5838 14.418 14.822 14.3266 15.044 14.2091C15.2725 14.0915 15.488 13.9512 15.6903 13.788C15.8992 13.6248 16.1016 13.4387 16.2975 13.2298V11.1733ZM10.6666 7.11908C11.215 6.59027 11.8059 6.19529 12.4391 5.93415C13.0724 5.67301 13.7742 5.54244 14.5446 5.54244C15.0995 5.54244 15.5924 5.63384 16.0233 5.81664C16.4542 5.99944 16.8165 6.25405 17.1103 6.58048C17.4041 6.9069 17.626 7.30188 17.7762 7.7654C17.9264 8.22893 18.0014 8.73815 18.0014 9.29308V15.6388H17.2278C17.0581 15.6388 16.9275 15.6127 16.8361 15.5605C16.7447 15.5017 16.6729 15.3907 16.6206 15.2275L16.4248 14.2874C16.1637 14.529 15.909 14.7444 15.661 14.9337C15.4129 15.1165 15.1517 15.2732 14.8775 15.4038C14.6033 15.5278 14.3096 15.6225 13.9962 15.6878C13.6893 15.7596 13.3466 15.7955 12.9679 15.7955C12.5828 15.7955 12.2204 15.7433 11.8809 15.6388C11.5415 15.5278 11.2444 15.3646 10.9898 15.1492C10.7417 14.9337 10.5426 14.6628 10.3924 14.3364C10.2488 14.0034 10.177 13.6117 10.177 13.1612C10.177 12.7695 10.2847 12.3941 10.5002 12.0351C10.7156 11.6695 11.0649 11.3463 11.548 11.0656C12.0311 10.7848 12.6611 10.5563 13.438 10.3801C14.2149 10.1973 15.1681 10.0928 16.2975 10.0667V9.29308C16.2975 8.52271 16.131 7.94167 15.7981 7.54996C15.4651 7.15172 14.9787 6.9526 14.3389 6.9526C13.908 6.9526 13.5457 7.0081 13.2519 7.11908C12.9647 7.22354 12.7133 7.34431 12.4979 7.48141C12.289 7.61198 12.1062 7.73276 11.9495 7.84375C11.7993 7.9482 11.6492 8.00043 11.499 8.00043C11.3815 8.00043 11.2803 7.97105 11.1954 7.9123C11.1106 7.84701 11.0388 7.76867 10.98 7.67727L10.6666 7.11908Z" fill="black"/>
<path d="M21.1267 15.6388V7.48141L20.3433 7.34431C20.1409 7.30514 19.9744 7.23333 19.8439 7.12887C19.7198 7.02442 19.6578 6.87426 19.6578 6.6784V5.6012H21.1267V5.35638C21.1267 4.7427 21.2279 4.17145 21.4303 3.64264C21.6392 3.1073 21.9558 2.64378 22.3802 2.25207C22.8111 1.85383 23.3529 1.54372 24.0058 1.32175C24.6652 1.09325 25.4453 0.979004 26.3463 0.979004C26.627 0.979004 26.9175 0.995325 27.2178 1.02797C27.5181 1.05408 27.776 1.09652 27.9914 1.15527L27.9033 2.53606C27.8968 2.6144 27.8707 2.67642 27.825 2.72212C27.7858 2.76782 27.7303 2.80373 27.6585 2.82984C27.5867 2.85595 27.5051 2.87228 27.4137 2.8788C27.3288 2.88533 27.2374 2.8886 27.1395 2.8886C26.4866 2.8886 25.9415 2.94409 25.5041 3.05507C25.0667 3.15953 24.7174 3.31948 24.4563 3.53492C24.1951 3.75036 24.0091 4.01803 23.8981 4.33793C23.7936 4.65783 23.7414 5.02669 23.7414 5.44451V5.6012H30.0675V15.6388H27.3647V7.48141H23.8295V15.6388H21.1267Z" fill="black"/>
<path d="M35.107 1.03776V15.6388H32.4042V1.03776H35.107Z" fill="black"/>
<path d="M42.6358 11.4181C41.9764 11.4508 41.428 11.5095 40.9906 11.5944C40.5532 11.6727 40.2039 11.7772 39.9428 11.9078C39.6882 12.0383 39.5054 12.1885 39.3944 12.3582C39.2899 12.5214 39.2377 12.701 39.2377 12.8968C39.2377 13.2885 39.3454 13.566 39.5609 13.7292C39.7828 13.8924 40.0897 13.974 40.4814 13.974C40.9318 13.974 41.3203 13.8957 41.6467 13.739C41.9797 13.5758 42.3094 13.3244 42.6358 12.985V11.4181ZM37.1322 6.94281C37.7263 6.40747 38.3825 6.00923 39.1006 5.74809C39.8187 5.48042 40.5956 5.34659 41.4313 5.34659C42.0319 5.34659 42.5672 5.44451 43.0373 5.64037C43.5139 5.83623 43.9154 6.11042 44.2418 6.46296C44.5748 6.80898 44.8294 7.22354 45.0056 7.70665C45.1819 8.18976 45.2701 8.71857 45.2701 9.29308V15.6388H44.0362C43.7815 15.6388 43.5857 15.6029 43.4486 15.5311C43.318 15.4593 43.2103 15.3091 43.1254 15.0806L42.91 14.4343C42.6554 14.6563 42.4073 14.8521 42.1657 15.0219C41.9307 15.1916 41.6859 15.3352 41.4313 15.4527C41.1767 15.5637 40.9025 15.6486 40.6087 15.7074C40.3214 15.7661 39.9983 15.7955 39.6392 15.7955C39.1953 15.7955 38.7905 15.7367 38.4249 15.6192C38.0593 15.5017 37.7427 15.3287 37.475 15.1002C37.2139 14.8652 37.0115 14.5747 36.8678 14.2286C36.7242 13.8826 36.6524 13.4844 36.6524 13.0339C36.6524 12.6618 36.7471 12.2897 36.9364 11.9175C37.1257 11.5454 37.4489 11.2092 37.9059 10.9089C38.3694 10.602 38.9831 10.3507 39.7469 10.1548C40.5173 9.95246 41.4802 9.83821 42.6358 9.8121V9.29308C42.6358 8.65981 42.502 8.19629 42.2343 7.9025C41.9666 7.60219 41.5814 7.45203 41.0787 7.45203C40.7066 7.45203 40.3965 7.49773 40.1484 7.58913C39.9003 7.674 39.6816 7.76867 39.4923 7.87312C39.3095 7.97105 39.1365 8.06572 38.9733 8.15711C38.8101 8.24199 38.6208 8.28442 38.4053 8.28442C38.216 8.28442 38.056 8.23872 37.9255 8.14732C37.8014 8.04939 37.697 7.93515 37.6121 7.80457L37.1322 6.94281Z" fill="black"/>
<path d="M47.1056 14.307C47.1056 14.1046 47.1415 13.912 47.2133 13.7292C47.2916 13.5464 47.3961 13.3897 47.5267 13.2592C47.6572 13.1286 47.8139 13.0241 47.9967 12.9458C48.1795 12.8674 48.3754 12.8283 48.5843 12.8283C48.7932 12.8283 48.9858 12.8674 49.1621 12.9458C49.3449 13.0241 49.5015 13.1286 49.6321 13.2592C49.7692 13.3897 49.8769 13.5464 49.9553 13.7292C50.0336 13.912 50.0728 14.1046 50.0728 14.307C50.0728 14.5159 50.0336 14.7118 49.9553 14.8946C49.8769 15.0708 49.7692 15.2242 49.6321 15.3548C49.5015 15.4854 49.3449 15.5866 49.1621 15.6584C48.9858 15.7367 48.7932 15.7759 48.5843 15.7759C48.3754 15.7759 48.1795 15.7367 47.9967 15.6584C47.8139 15.5866 47.6572 15.4854 47.5267 15.3548C47.3961 15.2242 47.2916 15.0708 47.2133 14.8946C47.1415 14.7118 47.1056 14.5159 47.1056 14.307Z" fill="black"/>
<path d="M64.6966 3.46637C64.6379 3.57736 64.553 3.63285 64.442 3.63285C64.3572 3.63285 64.2462 3.57409 64.1091 3.45658C63.9785 3.33254 63.799 3.1987 63.5705 3.05507C63.342 2.90492 63.0547 2.76782 62.7087 2.64378C62.3692 2.51974 61.9481 2.45771 61.4454 2.45771C60.9427 2.45771 60.4988 2.52953 60.1136 2.67316C59.735 2.81678 59.4151 3.01264 59.1539 3.26072C58.8993 3.50881 58.7035 3.79606 58.5664 4.12249C58.4358 4.44892 58.3705 4.79166 58.3705 5.15073C58.3705 5.62078 58.4684 6.00923 58.6643 6.31607C58.8667 6.62291 59.1311 6.88405 59.4575 7.09949C59.7839 7.31494 60.1528 7.49774 60.5641 7.64789C60.9819 7.79152 61.4095 7.93515 61.8469 8.07877C62.2844 8.2224 62.7087 8.38235 63.12 8.55862C63.5378 8.72836 63.91 8.9438 64.2364 9.20494C64.5628 9.46608 64.8239 9.78925 65.0198 10.1744C65.2222 10.5531 65.3234 11.0264 65.3234 11.5944C65.3234 12.1754 65.2222 12.7238 65.0198 13.2396C64.8239 13.7488 64.5367 14.1927 64.158 14.5714C63.7794 14.95 63.3159 15.2504 62.7675 15.4723C62.2191 15.6878 61.5923 15.7955 60.8872 15.7955C59.9733 15.7955 59.1866 15.6355 58.5272 15.3156C57.8678 14.9892 57.29 14.5453 56.7939 13.9838L57.0681 13.5529C57.1464 13.455 57.2378 13.406 57.3423 13.406C57.401 13.406 57.4761 13.4452 57.5675 13.5236C57.6589 13.6019 57.7699 13.6998 57.9004 13.8173C58.031 13.9283 58.1877 14.0524 58.3705 14.1895C58.5533 14.32 58.7655 14.4441 59.007 14.5616C59.2486 14.6726 59.5261 14.7672 59.8394 14.8456C60.1528 14.9239 60.5086 14.9631 60.9068 14.9631C61.4552 14.9631 61.9449 14.8815 62.3757 14.7183C62.8066 14.5485 63.169 14.32 63.4627 14.0328C63.7631 13.7455 63.9916 13.406 64.1482 13.0143C64.3049 12.6161 64.3833 12.1917 64.3833 11.7413C64.3833 11.2516 64.2821 10.8501 64.0797 10.5368C63.8838 10.2169 63.6227 9.95246 63.2963 9.74355C62.9698 9.5281 62.5977 9.34857 62.1799 9.20494C61.7686 9.06132 61.3442 8.92095 60.9068 8.78385C60.4694 8.64676 60.0418 8.49333 59.624 8.32359C59.2127 8.15385 58.8438 7.93841 58.5174 7.67727C58.191 7.4096 57.9266 7.07991 57.7242 6.6882C57.5283 6.28996 57.4304 5.79379 57.4304 5.19969C57.4304 4.73617 57.5185 4.28897 57.6948 3.85808C57.8711 3.4272 58.1289 3.04855 58.4684 2.72212C58.8079 2.38917 59.2257 2.12476 59.7219 1.9289C60.2246 1.72652 60.7958 1.62533 61.4356 1.62533C62.1538 1.62533 62.7968 1.73958 63.3648 1.96808C63.9393 2.19657 64.4616 2.54585 64.9317 3.0159L64.6966 3.46637Z" fill="black"/>
<path d="M74.7494 9.78272C74.7494 9.26044 74.6743 8.79365 74.5242 8.38235C74.3805 7.96452 74.1749 7.61198 73.9072 7.32473C73.6395 7.03747 73.3196 6.81877 72.9475 6.66861C72.5819 6.51193 72.1772 6.43359 71.7332 6.43359C71.2305 6.43359 70.78 6.51193 70.3818 6.66861C69.9836 6.8253 69.6376 7.05053 69.3438 7.34431C69.0565 7.6381 68.8248 7.99064 68.6485 8.40194C68.4722 8.81323 68.3547 9.27349 68.2959 9.78272H74.7494ZM68.247 10.3801V10.5661C68.247 11.2973 68.3319 11.9404 68.5016 12.4953C68.6713 13.0502 68.9129 13.517 69.2263 13.8957C69.5396 14.2678 69.9183 14.5485 70.3622 14.7379C70.8062 14.9272 71.3023 15.0219 71.8507 15.0219C72.3404 15.0219 72.7647 14.9696 73.1238 14.8652C73.4828 14.7542 73.7832 14.6334 74.0247 14.5028C74.2728 14.3657 74.4687 14.245 74.6123 14.1405C74.7559 14.0295 74.8604 13.974 74.9257 13.974C75.0105 13.974 75.0758 14.0067 75.1215 14.072L75.3761 14.3853C75.2194 14.5812 75.0105 14.764 74.7494 14.9337C74.4948 15.1035 74.2075 15.2504 73.8876 15.3744C73.5743 15.4919 73.2348 15.5866 72.8692 15.6584C72.5101 15.7302 72.1478 15.7661 71.7822 15.7661C71.1163 15.7661 70.5091 15.6519 69.9607 15.4234C69.4123 15.1883 68.9423 14.8489 68.5506 14.4049C68.1588 13.961 67.8553 13.4191 67.6398 12.7793C67.4309 12.133 67.3265 11.3953 67.3265 10.5661C67.3265 9.86759 67.4244 9.22453 67.6202 8.63696C67.8226 8.04287 68.1099 7.53364 68.482 7.10929C68.8607 6.6784 69.3209 6.34219 69.8628 6.10063C70.4112 5.85908 71.0314 5.7383 71.7234 5.7383C72.2718 5.7383 72.781 5.83296 73.2511 6.02229C73.7211 6.21162 74.1292 6.48908 74.4752 6.85468C74.8212 7.21374 75.0921 7.65768 75.288 8.18649C75.4904 8.7153 75.5916 9.32246 75.5916 10.008C75.5916 10.1516 75.572 10.2495 75.5328 10.3017C75.4936 10.354 75.4284 10.3801 75.337 10.3801H68.247Z" fill="black"/>
<path d="M78.1276 15.6388V5.89498H78.6466C78.8098 5.89498 78.9045 5.97659 78.9306 6.1398L79.0187 7.54996C79.3974 7.00809 79.8315 6.57068 80.3212 6.23773C80.8108 5.90478 81.3625 5.7383 81.9762 5.7383C82.6878 5.7383 83.2558 5.94395 83.6801 6.35524C84.111 6.76654 84.4015 7.33779 84.5517 8.06898C84.6692 7.67074 84.8324 7.32473 85.0413 7.03095C85.2567 6.73716 85.5016 6.49561 85.7758 6.30628C86.05 6.11042 86.347 5.9668 86.6669 5.8754C86.9933 5.784 87.3263 5.7383 87.6658 5.7383C88.1489 5.7383 88.583 5.8199 88.9682 5.98312C89.3534 6.1398 89.6798 6.37483 89.9475 6.6882C90.2152 7.00157 90.4208 7.38675 90.5644 7.84375C90.7081 8.30074 90.7799 8.82303 90.7799 9.41059V15.6388H89.8496V9.41059C89.8496 8.45743 89.6439 7.73276 89.2326 7.23659C88.8213 6.7339 88.2337 6.48255 87.4699 6.48255C87.1304 6.48255 86.804 6.54457 86.4906 6.66861C86.1838 6.79265 85.9096 6.97872 85.668 7.2268C85.433 7.46836 85.2437 7.77193 85.1001 8.13753C84.963 8.50313 84.8944 8.92748 84.8944 9.41059V15.6388H83.9543V9.41059C83.9543 8.46396 83.765 7.73929 83.3863 7.23659C83.0142 6.7339 82.4658 6.48255 81.7411 6.48255C81.2123 6.48255 80.7227 6.63923 80.2722 6.9526C79.8217 7.26597 79.4202 7.70012 79.0677 8.25504V15.6388H78.1276Z" fill="black"/>
<path d="M99.8024 15.6388V6.91343L98.4314 6.8253C98.2486 6.80571 98.1572 6.7241 98.1572 6.58048V6.19856H99.8024V5.36617C99.8024 4.76555 99.8905 4.22694 100.067 3.75036C100.243 3.26725 100.501 2.85922 100.84 2.52626C101.18 2.18678 101.591 1.9289 102.074 1.75263C102.557 1.56984 103.109 1.47844 103.729 1.47844C103.938 1.47844 104.157 1.49802 104.385 1.53719C104.62 1.56984 104.82 1.6188 104.983 1.68408L104.944 2.15414C104.931 2.20637 104.904 2.23574 104.865 2.24227C104.826 2.2488 104.767 2.2488 104.689 2.24227C104.611 2.23574 104.509 2.22595 104.385 2.2129C104.268 2.19331 104.124 2.18352 103.955 2.18352C102.923 2.18352 102.123 2.44792 101.555 2.97673C100.994 3.50554 100.713 4.31182 100.713 5.39555V6.19856H106.422V15.6388H105.492V6.89385H100.742V15.6388H99.8024Z" fill="black"/>
<path d="M110.772 1.3903V15.6388H109.832V1.3903H110.772Z" fill="black"/>
<path d="M119.521 10.9285C118.594 10.9611 117.794 11.0362 117.122 11.1537C116.456 11.2647 115.904 11.4181 115.467 11.614C115.036 11.8098 114.716 12.0449 114.507 12.319C114.298 12.5867 114.194 12.8936 114.194 13.2396C114.194 13.566 114.246 13.85 114.35 14.0915C114.461 14.3266 114.605 14.5224 114.781 14.6791C114.964 14.8293 115.173 14.9403 115.408 15.0121C115.643 15.0839 115.888 15.1198 116.142 15.1198C116.521 15.1198 116.867 15.0806 117.18 15.0023C117.5 14.9174 117.794 14.8032 118.062 14.6595C118.336 14.5094 118.591 14.3331 118.826 14.1307C119.061 13.9283 119.292 13.7096 119.521 13.4746V10.9285ZM113.792 7.27576C114.301 6.76654 114.837 6.38136 115.398 6.12022C115.96 5.85908 116.596 5.7285 117.308 5.7285C117.83 5.7285 118.287 5.81338 118.679 5.98312C119.07 6.14633 119.394 6.38462 119.648 6.69799C119.909 7.00483 120.105 7.38022 120.236 7.82416C120.366 8.26157 120.432 8.75121 120.432 9.29308V15.6388H120.06C119.864 15.6388 119.743 15.5474 119.697 15.3646L119.56 14.1111C119.292 14.3723 119.025 14.6073 118.757 14.8162C118.496 15.0251 118.222 15.2014 117.935 15.345C117.647 15.4886 117.337 15.5996 117.004 15.678C116.671 15.7563 116.306 15.7955 115.907 15.7955C115.574 15.7955 115.251 15.7465 114.938 15.6486C114.625 15.5507 114.344 15.4005 114.096 15.1981C113.854 14.9957 113.658 14.7379 113.508 14.4245C113.365 14.1046 113.293 13.7227 113.293 13.2787C113.293 12.8674 113.41 12.4855 113.645 12.133C113.88 11.7804 114.249 11.4736 114.752 11.2125C115.255 10.9513 115.898 10.7424 116.681 10.5857C117.471 10.429 118.418 10.3376 119.521 10.3115V9.29308C119.521 8.39214 119.325 7.70012 118.933 7.21701C118.548 6.72737 117.974 6.48255 117.21 6.48255C116.74 6.48255 116.338 6.54783 116.005 6.6784C115.679 6.80898 115.401 6.9526 115.173 7.10929C114.944 7.26597 114.758 7.4096 114.615 7.54017C114.471 7.67074 114.35 7.73603 114.252 7.73603C114.181 7.73603 114.122 7.7197 114.076 7.68706C114.03 7.65442 113.991 7.61198 113.959 7.55976L113.792 7.27576Z" fill="black"/>
<path d="M128.91 7.09949C128.858 7.19089 128.782 7.23659 128.685 7.23659C128.613 7.23659 128.521 7.19742 128.41 7.11908C128.299 7.03421 128.149 6.94281 127.96 6.84488C127.777 6.74043 127.549 6.64903 127.274 6.57068C127 6.48581 126.667 6.44338 126.275 6.44338C125.923 6.44338 125.6 6.49561 125.306 6.60006C125.019 6.69799 124.771 6.83183 124.562 7.00157C124.359 7.17131 124.203 7.37043 124.092 7.59893C123.981 7.8209 123.925 8.05592 123.925 8.30401C123.925 8.61085 124.004 8.86546 124.16 9.06784C124.317 9.27023 124.519 9.44323 124.767 9.58686C125.022 9.73049 125.313 9.85453 125.639 9.95899C125.965 10.0634 126.295 10.1679 126.628 10.2724C126.968 10.3768 127.3 10.4943 127.627 10.6249C127.953 10.7489 128.241 10.9056 128.489 11.0949C128.743 11.2843 128.949 11.516 129.106 11.7902C129.262 12.0644 129.341 12.3974 129.341 12.7891C129.341 13.2135 129.266 13.6084 129.115 13.974C128.965 14.3396 128.743 14.6563 128.449 14.9239C128.162 15.1916 127.806 15.4038 127.382 15.5605C126.958 15.7171 126.471 15.7955 125.923 15.7955C125.237 15.7955 124.647 15.6878 124.15 15.4723C123.654 15.2504 123.21 14.9631 122.819 14.6106L123.034 14.2776C123.067 14.2254 123.103 14.1862 123.142 14.1601C123.188 14.134 123.246 14.1209 123.318 14.1209C123.403 14.1209 123.504 14.1732 123.622 14.2776C123.746 14.3821 123.909 14.4963 124.111 14.6204C124.314 14.7379 124.562 14.8489 124.856 14.9533C125.156 15.0578 125.525 15.11 125.962 15.11C126.373 15.11 126.736 15.0545 127.049 14.9435C127.362 14.826 127.624 14.6693 127.833 14.4735C128.041 14.2776 128.198 14.0491 128.303 13.788C128.414 13.5203 128.469 13.2396 128.469 12.9458C128.469 12.6194 128.391 12.3484 128.234 12.133C128.077 11.9175 127.872 11.7347 127.617 11.5846C127.362 11.4344 127.072 11.3071 126.746 11.2027C126.426 11.0982 126.096 10.9938 125.756 10.8893C125.417 10.7848 125.084 10.6706 124.758 10.5466C124.438 10.4225 124.15 10.2658 123.896 10.0765C123.641 9.88717 123.436 9.65868 123.279 9.39101C123.122 9.11681 123.044 8.77733 123.044 8.37256C123.044 8.02655 123.119 7.69359 123.269 7.37369C123.419 7.0538 123.631 6.77307 123.906 6.53151C124.186 6.28996 124.526 6.09737 124.924 5.95374C125.322 5.81011 125.77 5.7383 126.266 5.7383C126.86 5.7383 127.385 5.82317 127.842 5.99291C128.306 6.16265 128.727 6.42379 129.106 6.77633L128.91 7.09949Z" fill="black"/>
<path d="M131.648 14.8848C131.648 14.7607 131.671 14.6432 131.716 14.5322C131.762 14.4212 131.824 14.3266 131.903 14.2482C131.987 14.1634 132.082 14.0981 132.187 14.0524C132.298 14.0001 132.418 13.974 132.549 13.974C132.673 13.974 132.79 14.0001 132.901 14.0524C133.012 14.0981 133.107 14.1634 133.185 14.2482C133.27 14.3266 133.336 14.4212 133.381 14.5322C133.433 14.6432 133.46 14.7607 133.46 14.8848C133.46 15.0153 133.433 15.1361 133.381 15.2471C133.336 15.3515 133.27 15.4462 133.185 15.5311C133.107 15.6094 133.012 15.6714 132.901 15.7171C132.79 15.7628 132.673 15.7857 132.549 15.7857C132.294 15.7857 132.079 15.7008 131.903 15.5311C131.733 15.3548 131.648 15.1394 131.648 14.8848Z" fill="black"/>
<path d="M53.8501 35.8437L55.342 29.912H56.6689L54.4096 37.6726H53.3337L51.4474 31.7912L49.6112 37.6726H48.5354L46.2832 29.912H47.6029L49.1307 35.7217L50.9381 29.912H52.0068L53.8501 35.8437Z" fill="black"/>
<path d="M64.8957 35.8437L66.3876 29.912H67.7145L65.4552 37.6726H64.3793L62.4929 31.7912L60.6568 37.6726H59.5809L57.3288 29.912H58.6485L60.1762 35.7217L61.9837 29.912H63.0524L64.8957 35.8437Z" fill="black"/>
<path d="M75.9413 35.8437L77.4332 29.912H78.7601L76.5007 37.6726H75.4249L73.5385 31.7912L71.7024 37.6726H70.6265L68.3743 29.912H69.6941L71.2218 35.7217L73.0293 29.912H74.098L75.9413 35.8437Z" fill="black"/>
<path d="M79.255 36.9769C79.255 36.7474 79.3219 36.5561 79.4558 36.4031C79.5944 36.2501 79.8001 36.1736 80.0726 36.1736C80.3452 36.1736 80.5508 36.2501 80.6894 36.4031C80.8329 36.5561 80.9046 36.7474 80.9046 36.9769C80.9046 37.1969 80.8329 37.381 80.6894 37.5292C80.5508 37.6774 80.3452 37.7515 80.0726 37.7515C79.8001 37.7515 79.5944 37.6774 79.4558 37.5292C79.3219 37.381 79.255 37.1969 79.255 36.9769Z" fill="black"/>
<path d="M84.3546 29.912L84.3976 30.8875C84.9905 30.1416 85.7651 29.7686 86.7215 29.7686C88.3616 29.7686 89.1888 30.6938 89.2031 32.5443V37.6726H87.8762V32.5372C87.8715 31.9777 87.7424 31.5641 87.4889 31.2963C87.2403 31.0286 86.8506 30.8947 86.3198 30.8947C85.8895 30.8947 85.5117 31.0094 85.1866 31.2389C84.8614 31.4685 84.608 31.7697 84.4263 32.1427V37.6726H83.0994V29.912H84.3546Z" fill="black"/>
<path d="M95.9954 37.6726C95.9189 37.5196 95.8568 37.2471 95.809 36.855C95.1921 37.4957 94.4558 37.8161 93.5999 37.8161C92.8348 37.8161 92.206 37.6009 91.7135 37.1706C91.2258 36.7354 90.9819 36.1855 90.9819 35.5209C90.9819 34.7128 91.2879 34.0864 91.9 33.6417C92.5168 33.1922 93.3823 32.9675 94.4964 32.9675H95.7874V32.3578C95.7874 31.894 95.6488 31.5258 95.3714 31.2533C95.0941 30.976 94.6853 30.8373 94.145 30.8373C93.6716 30.8373 93.2747 30.9568 92.9543 31.1959C92.634 31.435 92.4738 31.7243 92.4738 32.0638H91.1397C91.1397 31.6765 91.276 31.3035 91.5485 30.9449C91.8259 30.5815 92.1988 30.2946 92.6674 30.0842C93.1408 29.8738 93.6596 29.7686 94.2239 29.7686C95.118 29.7686 95.8185 29.9933 96.3254 30.4428C96.8322 30.8875 97.0952 31.5019 97.1144 32.2861V35.858C97.1144 36.5705 97.2052 37.1371 97.3869 37.5579V37.6726H95.9954ZM93.7935 36.6613C94.2095 36.6613 94.604 36.5537 94.977 36.3386C95.3499 36.1234 95.6201 35.8437 95.7874 35.4994V33.9071H94.7474C93.1217 33.9071 92.3088 34.3829 92.3088 35.3344C92.3088 35.7504 92.4475 36.0756 92.7248 36.3099C93.0021 36.5442 93.3584 36.6613 93.7935 36.6613Z" fill="black"/>
<path d="M99.6391 37.6726V30.9377H98.4126V29.912H99.6391V29.2522C99.6391 28.3867 99.8853 27.7125 100.378 27.2295C100.875 26.7466 101.576 26.5051 102.479 26.5051C103.015 26.5051 103.691 26.651 104.509 26.9426L104.287 28.0615C103.689 27.8225 103.12 27.7029 102.58 27.7029C102.011 27.7029 101.6 27.832 101.346 28.0902C101.097 28.3437 100.973 28.7262 100.973 29.2378V29.912H102.558V30.9377H100.973V37.6726H99.6391ZM105.169 37.6726H103.835V29.912H105.169V37.6726Z" fill="black"/>
<path d="M108.77 37.6726H107.443V26.6557H108.77V37.6726Z" fill="black"/>
<path d="M115.691 37.6726C115.614 37.5196 115.552 37.2471 115.505 36.855C114.888 37.4957 114.151 37.8161 113.295 37.8161C112.53 37.8161 111.902 37.6009 111.409 37.1706C110.921 36.7354 110.677 36.1855 110.677 35.5209C110.677 34.7128 110.983 34.0864 111.596 33.6417C112.212 33.1922 113.078 32.9675 114.192 32.9675H115.483V32.3578C115.483 31.894 115.344 31.5258 115.067 31.2533C114.79 30.976 114.381 30.8373 113.841 30.8373C113.367 30.8373 112.97 30.9568 112.65 31.1959C112.33 31.435 112.169 31.7243 112.169 32.0638H110.835C110.835 31.6765 110.972 31.3035 111.244 30.9449C111.521 30.5815 111.894 30.2946 112.363 30.0842C112.836 29.8738 113.355 29.7686 113.919 29.7686C114.814 29.7686 115.514 29.9933 116.021 30.4428C116.528 30.8875 116.791 31.5019 116.81 32.2861V35.858C116.81 36.5705 116.901 37.1371 117.082 37.5579V37.6726H115.691ZM113.489 36.6613C113.905 36.6613 114.3 36.5537 114.673 36.3386C115.045 36.1234 115.316 35.8437 115.483 35.4994V33.9071H114.443C112.817 33.9071 112.004 34.3829 112.004 35.3344C112.004 35.7504 112.143 36.0756 112.42 36.3099C112.698 36.5442 113.054 36.6613 113.489 36.6613Z" fill="black"/>
<path d="M118.919 36.9769C118.919 36.7474 118.986 36.5561 119.119 36.4031C119.258 36.2501 119.464 36.1736 119.736 36.1736C120.009 36.1736 120.214 36.2501 120.353 36.4031C120.497 36.5561 120.568 36.7474 120.568 36.9769C120.568 37.1969 120.497 37.381 120.353 37.5292C120.214 37.6774 120.009 37.7515 119.736 37.7515C119.464 37.7515 119.258 37.6774 119.119 37.5292C118.986 37.381 118.919 37.1969 118.919 36.9769Z" fill="black"/>
<path d="M129.319 33.8784C129.319 35.0595 129.048 36.011 128.508 36.733C127.968 37.4551 127.236 37.8161 126.313 37.8161C125.371 37.8161 124.63 37.5172 124.09 36.9195V40.6564H122.763V29.912H123.975L124.04 30.7727C124.58 30.1033 125.331 29.7686 126.292 29.7686C127.224 29.7686 127.961 30.12 128.501 30.8229C129.046 31.5258 129.319 32.5037 129.319 33.7565V33.8784ZM127.992 33.7278C127.992 32.8527 127.805 32.1618 127.432 31.6549C127.059 31.1481 126.548 30.8947 125.897 30.8947C125.094 30.8947 124.492 31.2509 124.09 31.9634V35.6715C124.487 36.3792 125.094 36.733 125.912 36.733C126.548 36.733 127.052 36.482 127.425 35.9799C127.803 35.4731 127.992 34.7224 127.992 33.7278Z" fill="black"/>
<path d="M132.812 28.0329V29.912H134.26V30.9377H132.812V35.7504C132.812 36.0612 132.876 36.2955 133.005 36.4533C133.134 36.6063 133.354 36.6828 133.665 36.6828C133.818 36.6828 134.029 36.6541 134.296 36.5968V37.6726C133.947 37.7683 133.608 37.8161 133.278 37.8161C132.685 37.8161 132.238 37.6368 131.937 37.2781C131.635 36.9195 131.485 36.4103 131.485 35.7504V30.9377H130.072V29.912H131.485V28.0329H132.812Z" fill="black"/>
</svg>
