<svg width="225" height="39" viewBox="0 0 225 39" fill="none" xmlns="http://www.w3.org/2000/svg">
<path d="M16.6336 29.1431C16.3529 29.1431 16.0826 29.0277 15.8851 28.8286C15.6876 28.6294 15.5732 28.3568 15.5732 28.0737C15.5732 27.7907 15.6876 27.5181 15.8851 27.3189C16.0826 27.1197 16.3529 27.0044 16.6336 27.0044C16.9143 27.0044 17.1846 27.1197 17.3821 27.3189C17.5797 27.5181 17.694 27.7907 17.694 28.0737C17.694 28.3568 17.5797 28.6294 17.3821 28.8286C17.1846 29.0382 16.9143 29.1431 16.6336 29.1431ZM16.6336 27.7173C16.5401 27.7173 16.4465 27.7592 16.3841 27.8221C16.3217 27.885 16.2802 27.9794 16.2802 28.0737C16.2802 28.1681 16.3217 28.2624 16.3841 28.3253C16.4465 28.3882 16.5401 28.4302 16.6336 28.4302C16.7272 28.4302 16.8208 28.3882 16.8831 28.3253C16.9455 28.2624 16.9871 28.1681 16.9871 28.0737C16.9871 27.9794 16.9455 27.885 16.8831 27.8221C16.8208 27.7487 16.7272 27.7173 16.6336 27.7173Z" fill="black"/>
<path d="M18.8895 26.8674C18.6192 26.8674 18.3489 26.7626 18.141 26.5529C17.7251 26.1336 17.7251 25.4521 18.141 25.0328C18.3385 24.8336 18.6088 24.7183 18.8895 24.7183C19.1702 24.7183 19.4405 24.8336 19.638 25.0328C19.8355 25.232 19.9499 25.5045 19.9499 25.7876C19.9499 26.0707 19.8355 26.3432 19.638 26.5424C19.4301 26.7626 19.1598 26.8674 18.8895 26.8674ZM18.8895 25.4416C18.7959 25.4416 18.7024 25.4836 18.64 25.5465C18.5048 25.6828 18.5048 25.9134 18.64 26.0497C18.7751 26.186 19.0038 26.186 19.139 26.0497C19.2014 25.9868 19.243 25.8924 19.243 25.7981C19.243 25.7037 19.2014 25.6094 19.139 25.5465C19.0766 25.4836 18.9831 25.4416 18.8895 25.4416Z" fill="black"/>
<path d="M14.3768 31.4175C14.0961 31.4175 13.8258 31.3022 13.6283 31.103C13.4308 30.9038 13.3164 30.6312 13.3164 30.3481C13.3164 30.0651 13.4308 29.7925 13.6283 29.5933C13.8258 29.3941 14.0961 29.2788 14.3768 29.2788C14.6575 29.2788 14.9278 29.3941 15.1253 29.5933C15.3228 29.7925 15.4372 30.0651 15.4372 30.3481C15.4372 30.6312 15.3228 30.9038 15.1253 31.103C14.9278 31.3126 14.6575 31.4175 14.3768 31.4175ZM14.3768 29.9917C14.2832 29.9917 14.1897 30.0336 14.1273 30.0965C14.0649 30.1594 14.0233 30.2538 14.0233 30.3481C14.0233 30.4425 14.0649 30.5368 14.1273 30.5997C14.1897 30.6626 14.2832 30.7046 14.3768 30.7046C14.4704 30.7046 14.5639 30.6626 14.6263 30.5997C14.6887 30.5368 14.7303 30.4425 14.7303 30.3481C14.7303 30.2538 14.6887 30.1594 14.6263 30.0965C14.5639 30.0231 14.4704 29.9917 14.3768 29.9917Z" fill="black"/>
<path d="M18.8895 31.4177C18.6088 31.4177 18.3385 31.3024 18.141 31.1032C17.7251 30.6838 17.7251 30.0024 18.141 29.5831C18.3385 29.3839 18.6088 29.2686 18.8895 29.2686C19.1702 29.2686 19.4405 29.3839 19.638 29.5831C19.8355 29.7823 19.9499 30.0548 19.9499 30.3379C19.9499 30.6209 19.8355 30.8935 19.638 31.0927C19.4405 31.3129 19.1702 31.4177 18.8895 31.4177ZM18.64 30.6C18.7024 30.6629 18.7959 30.7048 18.8895 30.7048C18.9831 30.7048 19.0766 30.6629 19.139 30.6C19.2014 30.5371 19.243 30.4427 19.243 30.3484C19.243 30.254 19.2014 30.1597 19.139 30.0968C19.0766 30.0339 18.9831 29.9919 18.8895 29.9919C18.7959 29.9919 18.7024 30.0339 18.64 30.0968C18.5048 30.233 18.5048 30.4637 18.64 30.6Z" fill="black"/>
<path d="M14.3768 26.8669C14.1065 26.8669 13.8362 26.7621 13.6283 26.5524C13.4308 26.3532 13.3164 26.0807 13.3164 25.7976C13.3164 25.5145 13.4308 25.242 13.6283 25.0428C13.8258 24.8436 14.0961 24.7283 14.3768 24.7283C14.6575 24.7283 14.9278 24.8436 15.1253 25.0428C15.3228 25.242 15.4372 25.5145 15.4372 25.7976C15.4372 26.0807 15.3228 26.3532 15.1253 26.5524C14.9174 26.7621 14.6471 26.8669 14.3768 26.8669ZM14.1273 26.0492C14.2624 26.1855 14.4912 26.1855 14.6263 26.0492C14.6887 25.9863 14.7303 25.892 14.7303 25.7976C14.7303 25.7033 14.6887 25.6089 14.6263 25.546C14.5639 25.4831 14.4704 25.4412 14.3768 25.4412C14.2832 25.4412 14.1897 25.4831 14.1273 25.546C14.0649 25.6089 14.0233 25.7033 14.0233 25.7976C14.0233 25.892 14.0545 25.9863 14.1273 26.0492Z" fill="black"/>
<path d="M16.6327 25.2112C16.4456 25.2112 16.2688 25.1378 16.1337 25.0015C15.9986 24.8652 15.9258 24.687 15.9258 24.4983C15.9258 24.0999 16.2481 23.7854 16.6327 23.7854C17.0174 23.7854 17.3396 24.1104 17.3396 24.4983C17.3396 24.8967 17.0278 25.2112 16.6327 25.2112Z" fill="black"/>
<path d="M16.6327 32.3301C16.2377 32.3301 15.9258 32.0051 15.9258 31.6172C15.9258 31.2188 16.2481 30.9043 16.6327 30.9043C17.0174 30.9043 17.3396 31.2293 17.3396 31.6172C17.3396 32.0051 17.0278 32.3301 16.6327 32.3301Z" fill="black"/>
<path d="M20.1366 28.7864C19.7416 28.7864 19.4297 28.4614 19.4297 28.0735C19.4297 27.6856 19.752 27.3606 20.1366 27.3606C20.5317 27.3606 20.8435 27.6856 20.8435 28.0735C20.8435 28.4614 20.5317 28.7864 20.1366 28.7864Z" fill="black"/>
<path d="M13.121 28.7864C12.7259 28.7864 12.4141 28.4614 12.4141 28.0735C12.4141 27.6856 12.7363 27.3606 13.121 27.3606C13.5056 27.3606 13.8279 27.6856 13.8279 28.0735C13.8279 28.4614 13.516 28.7864 13.121 28.7864ZM13.1314 28.0735C13.121 28.0735 13.1314 28.0735 13.1314 28.0735V28.0735Z" fill="black"/>
<path d="M21.9457 27.7175H22.2887C22.2576 27.1933 22.1536 26.6796 21.9873 26.1869L21.665 26.3232L21.3947 25.6627L21.717 25.5264C21.4986 25.0861 21.218 24.6668 20.8853 24.2894L20.6462 24.5305L20.1472 24.0273L20.3863 23.7861C19.9912 23.4402 19.565 23.1466 19.1076 22.9265L18.9724 23.2515L18.3175 22.9789L18.4526 22.6539C17.9848 22.4967 17.4962 22.4023 16.9972 22.3708V22.7168H16.2902V22.3708C15.7704 22.4023 15.261 22.5071 14.7724 22.6749L14.9076 22.9999L14.2526 23.2724L14.1175 22.9475C13.6809 23.1676 13.265 23.4507 12.8908 23.7861L13.1299 24.0273L12.6309 24.5305L12.3917 24.2894C12.0487 24.6877 11.7576 25.1176 11.5393 25.5789L11.8615 25.7151L11.5913 26.3756L11.269 26.2393C11.113 26.7111 11.0195 27.2038 10.9883 27.707H11.3314V28.4199H10.9883C11.0195 28.9441 11.1234 29.4578 11.2898 29.9505L11.612 29.8142L11.8823 30.4747L11.5601 30.611C11.7784 31.0513 12.0591 31.4707 12.3917 31.8481L12.6309 31.607L13.1299 32.1102L12.8908 32.3513C13.2858 32.6972 13.712 32.9908 14.1695 33.2109L14.3046 32.886L14.9596 33.1585L14.8244 33.4835C15.2922 33.6408 15.7808 33.7351 16.2798 33.7666V33.4206H16.9868V33.7666C17.5066 33.7351 18.016 33.6303 18.5046 33.4626L18.3694 33.1376L19.0244 32.865L19.1595 33.19C19.5962 32.9698 20.012 32.6868 20.3863 32.3513L20.1472 32.1102L20.6462 31.607L20.8853 31.8481C21.2283 31.4497 21.5194 31.0199 21.7377 30.5586L21.4155 30.4223L21.6858 29.7618L22.008 29.8981C22.164 29.4264 22.2576 28.9336 22.2887 28.4304H21.9457V27.7175ZM20.1368 31.607C19.2011 32.5505 17.9536 33.0747 16.6333 33.0747C15.313 33.0747 14.0655 32.5505 13.1299 31.607C12.1942 30.6634 11.6744 29.4054 11.6744 28.074C11.6744 26.7425 12.1942 25.4845 13.1299 24.541C14.0655 23.5974 15.313 23.0733 16.6333 23.0733C17.9536 23.0733 19.2011 23.5974 20.1368 24.541C21.0724 25.4845 21.5922 26.7425 21.5922 28.074C21.5922 29.4054 21.0828 30.6634 20.1368 31.607Z" fill="black"/>
<path d="M21.3945 25.6624L21.6752 26.3228L21.9871 26.1866L22.3198 26.0503L22.4653 26.3753L23.1099 26.1027L22.5693 24.7817L21.9143 25.0648L22.0495 25.3898L21.7168 25.5366L21.3945 25.6624Z" fill="black"/>
<path d="M11.3534 31.0824L11.2183 30.7574L11.5509 30.6107L11.8732 30.4849L11.5925 29.8244L11.2806 29.9607L10.9376 30.097L10.8024 29.772L10.1475 30.0445L10.6985 31.3655L11.3534 31.0824Z" fill="black"/>
<path d="M19.2946 33.5352L19.1491 33.1998L19.0243 32.8748L18.3694 33.1578L18.5045 33.4723L18.6397 33.8078L18.3174 33.9546L18.5877 34.615L19.8976 34.0594L19.6169 33.3989L19.2946 33.5352Z" fill="black"/>
<path d="M13.9702 22.6118L14.1053 22.9473L14.2405 23.2723L14.8954 22.9892L14.7603 22.6747L14.6251 22.3392L14.9474 22.1925L14.6771 21.532L13.3672 22.0876L13.6479 22.7481L13.9702 22.6118Z" fill="black"/>
<path d="M22.3397 30.0345L22.007 29.8982L21.6847 29.7724L21.4248 30.4328L21.7367 30.5587L22.0798 30.7054L21.9446 31.0304L22.5996 31.303L23.1298 29.9821L22.4748 29.7095L22.3397 30.0345Z" fill="black"/>
<path d="M10.6666 24.8442L10.126 26.1652L10.7913 26.4378L10.9161 26.1128L11.2591 26.249L11.5814 26.3748L11.8413 25.7144L11.5294 25.5886L11.1864 25.4418L11.3215 25.1168L10.6666 24.8442Z" fill="black"/>
<path d="M14.8237 33.4938L14.9485 33.1688L14.2935 32.9067L14.1688 33.2212L14.0232 33.5672L13.701 33.4309L13.4307 34.0914L14.7406 34.6261L15.0109 33.9656L14.6886 33.8293L14.8237 33.4938Z" fill="black"/>
<path d="M18.3163 22.977L18.9712 23.2391L19.096 22.9246L19.2415 22.5786L19.5638 22.7149L19.8341 22.0544L18.5242 21.5198L18.2539 22.1802L18.5762 22.3165L18.441 22.652L18.3163 22.977Z" fill="black"/>
<path d="M20.8843 24.2897L21.8927 23.2728L22.3917 23.776L22.9011 23.2728L21.3937 21.7527L20.8947 22.2664L21.3937 22.7696L20.3852 23.7865L20.1357 24.0276L20.6451 24.5413L20.8843 24.2897Z" fill="black"/>
<path d="M12.3811 31.858L11.3727 32.875L10.8737 32.3718L10.3643 32.875L11.8717 34.3951L12.3707 33.8814L11.8717 33.3782L12.8801 32.3613L13.1192 32.1201L12.6202 31.6064L12.3811 31.858Z" fill="black"/>
<path d="M21.8927 32.875L20.8843 31.858L20.6451 31.6064L20.1357 32.1201L20.3852 32.3613L21.3937 33.3782L20.8947 33.8814L21.3937 34.3951L22.9011 32.875L22.3917 32.3718L21.8927 32.875Z" fill="black"/>
<path d="M11.8717 22.7684L12.3707 22.2652L11.8717 21.7515L10.3643 23.2716L10.8737 23.7748L11.3727 23.2716L12.3811 24.2885L12.6202 24.5401L13.1192 24.0264L12.8801 23.7853L11.8717 22.7684Z" fill="black"/>
<path d="M23.723 27.0044V27.7173H22.2884H21.9453V28.4302H22.2884H23.723V29.1431H24.43V27.0044H23.723Z" fill="black"/>
<path d="M11.3206 28.4302V27.7173H10.9775H9.54287V27.0044H8.83594V29.1431H9.54287V28.4302H10.9775H11.3206Z" fill="black"/>
<path d="M16.9861 33.7764V33.4304H16.2792V33.7764V35.2231H15.5723V35.936H17.693V35.2231H16.9861V33.7764Z" fill="black"/>
<path d="M15.5723 20.9236H16.2792V22.3703V22.7163H16.9861V22.3703V20.9236H17.693V20.2107H15.5723V20.9236Z" fill="black"/>
<path d="M0 28.9539V27.2345H2.34949C2.80692 27.2345 3.18118 27.1926 3.47227 27.1192C3.76335 27.0354 3.99207 26.9096 4.14801 26.7418C4.30395 26.5741 4.40791 26.3434 4.45989 26.0709C4.51187 25.7983 4.52225 25.4628 4.49107 25.0749L4.27275 21.521C4.24156 20.9548 4.31433 20.4621 4.49107 20.0113C4.6678 19.5605 4.9173 19.1831 5.26037 18.8791C5.60344 18.575 6.02968 18.3339 6.52869 18.1767C7.03809 18.0194 7.59947 17.9355 8.23362 17.9355H9.20046V19.6653H8.23362C7.54749 19.6653 7.0277 19.8226 6.68463 20.1266C6.33117 20.4307 6.17522 20.9024 6.2064 21.521L6.42473 25.0749C6.45592 25.4628 6.41433 25.8297 6.32077 26.1862C6.21681 26.5426 6.07126 26.8467 5.86334 27.1192C5.65542 27.3813 5.39552 27.6015 5.08364 27.7587C4.77176 27.916 4.3975 27.9999 3.97127 28.0208V28.1257C4.3975 28.1361 4.77176 28.2305 5.09404 28.3982C5.41631 28.566 5.67621 28.7861 5.87374 29.0587C6.07126 29.3313 6.22721 29.6458 6.32077 30.0127C6.42473 30.3692 6.45592 30.7466 6.42473 31.1345L6.2064 34.6465C6.17522 35.265 6.34156 35.7263 6.68463 36.0408C7.03809 36.3553 7.54749 36.5021 8.23362 36.5021H9.20046V38.2319H8.23362C7.60986 38.2319 7.03809 38.148 6.52869 37.9908C6.01929 37.8335 5.60344 37.6029 5.26037 37.2884C4.9173 36.9844 4.6574 36.6069 4.49107 36.1561C4.32473 35.7053 4.25196 35.2021 4.27275 34.6465L4.49107 31.1345C4.52225 30.7466 4.51187 30.4111 4.45989 30.1385C4.40791 29.8659 4.30395 29.6458 4.14801 29.4676C3.99207 29.2893 3.77375 29.174 3.48266 29.0902C3.20197 29.0063 2.81731 28.9748 2.34949 28.9748H0V28.9539Z" fill="black"/>
<path d="M24.0762 38.2109V36.4811H25.043C25.7291 36.4811 26.2385 36.3238 26.592 36.0198C26.9455 35.7158 27.1014 35.244 27.0702 34.6255L26.8519 31.0925C26.8415 30.7046 26.8727 30.3377 26.9663 29.9812C27.0598 29.6248 27.2054 29.3208 27.4133 29.0482C27.6212 28.7861 27.8811 28.5659 28.193 28.4087C28.5049 28.2514 28.8791 28.1676 29.3054 28.1466V28.0418C28.8791 28.0313 28.5049 27.9369 28.1826 27.7692C27.8603 27.6014 27.6004 27.3813 27.4029 27.1087C27.2054 26.8361 27.0598 26.5216 26.9663 26.1547C26.8727 25.7983 26.8311 25.4208 26.8519 25.033L27.0702 21.5C27.1014 20.8814 26.9351 20.4201 26.592 20.1056C26.2385 19.8016 25.7291 19.6444 25.043 19.6444H24.0762V17.9146H25.043C25.6668 17.9146 26.2385 17.9984 26.748 18.1557C27.2574 18.3129 27.6732 18.5436 28.0163 18.8581C28.3593 19.1621 28.6192 19.55 28.7856 19.9903C28.9519 20.4411 29.0247 20.9338 29.0039 21.5L28.7856 25.033C28.7752 25.4208 28.7856 25.7563 28.8271 26.0289C28.8687 26.3015 28.9727 26.5216 29.1286 26.6999C29.2846 26.8676 29.5029 26.9934 29.794 27.0773C30.0747 27.1611 30.4593 27.1926 30.9271 27.1926H33.2766V28.9224H30.9271C30.4697 28.9224 30.0955 28.9643 29.8044 29.0377C29.5133 29.1216 29.2846 29.2474 29.1286 29.4151C28.9727 29.5933 28.8687 29.8135 28.8271 30.0861C28.7856 30.3586 28.7648 30.6941 28.7856 31.082L29.0039 34.615C29.0351 35.1706 28.9623 35.6739 28.7856 36.1247C28.6192 36.5755 28.3593 36.9424 28.0163 37.2569C27.6732 37.5609 27.247 37.802 26.748 37.9593C26.2385 38.1165 25.6772 38.2004 25.043 38.2004H24.0762V38.2109Z" fill="black"/>
<path d="M37.5723 28.7645H38.2792L38.5079 27.4436H37.8218V26.7097H38.6327L38.851 25.4622H39.6099L39.3916 26.7097H40.3064L40.5247 25.4622H41.2836L41.0653 26.7097H41.6475V27.4436H40.9406L40.7119 28.7645H41.3876V29.4984H40.5871L40.3688 30.7459H39.6099L39.8282 29.4984H38.9134L38.695 30.7459H37.9361L38.1544 29.4984H37.5723V28.7645ZM39.0485 28.7645H39.9633L40.1921 27.4436H39.2772L39.0485 28.7645Z" fill="black"/>
<path d="M42.0524 26.7097H43.1128V25.4622H44.2044V26.7097H45.691V27.7057H44.2044V29.3621C44.2044 29.4879 44.2355 29.5927 44.3083 29.6556C44.3811 29.729 44.4747 29.7605 44.5994 29.7605H45.6182V30.7564H44.4851C44.0484 30.7564 43.7157 30.6306 43.4662 30.3895C43.2167 30.1379 43.1024 29.8024 43.1024 29.3621V27.7057H42.042V26.7097H42.0524Z" fill="black"/>
<path d="M46.5146 28.2512C46.5146 28.0101 46.5562 27.7899 46.6498 27.5907C46.733 27.3916 46.8577 27.2238 47.0241 27.0875C47.18 26.9408 47.3775 26.8359 47.6062 26.7625C47.8349 26.6891 48.0844 26.6472 48.3547 26.6472C48.625 26.6472 48.8745 26.6891 49.0928 26.7625C49.3112 26.8359 49.5087 26.9512 49.6646 27.0875C49.8206 27.2343 49.9453 27.402 50.0389 27.6012C50.1325 27.8004 50.174 28.0206 50.174 28.2617V28.9956H47.5958V29.2157C47.5958 29.4568 47.6582 29.6455 47.7933 29.7818C47.9285 29.9181 48.1156 29.981 48.3547 29.981C48.5315 29.981 48.6874 29.9496 48.8122 29.8971C48.9369 29.8342 49.0201 29.7609 49.0721 29.656H50.1429C50.1013 29.8342 50.0181 29.9915 49.9141 30.1383C49.8102 30.285 49.675 30.4108 49.5191 30.5052C49.3632 30.61 49.1864 30.6834 48.9889 30.7463C48.7914 30.8092 48.5834 30.8302 48.3547 30.8302C48.074 30.8302 47.8245 30.7883 47.6062 30.7149C47.3879 30.6415 47.1904 30.5262 47.0241 30.3899C46.8577 30.2536 46.7434 30.0754 46.6498 29.8762C46.5666 29.677 46.5146 29.4568 46.5146 29.2157V28.2512ZM47.5854 28.3246H49.1033V28.2512C49.1033 28.0101 49.0409 27.8214 48.9057 27.6851C48.7706 27.5488 48.5835 27.4859 48.3443 27.4859C48.1052 27.4859 47.9181 27.5488 47.783 27.6851C47.6478 27.8214 47.5854 28.0101 47.5854 28.2512V28.3246Z" fill="black"/>
<path d="M52.7522 30.8202C52.4715 30.8202 52.222 30.7782 52.0037 30.7049C51.775 30.6315 51.5879 30.5266 51.4215 30.3904C51.2656 30.2541 51.1408 30.0863 51.0473 29.8976C50.9641 29.7089 50.9121 29.4888 50.9121 29.2476V28.2098C50.9121 27.9686 50.9537 27.7485 51.0473 27.5598C51.1304 27.3711 51.2552 27.2033 51.4215 27.067C51.5775 26.9308 51.775 26.8259 52.0037 26.7525C52.2324 26.6791 52.4819 26.6372 52.7522 26.6372C52.9913 26.6372 53.22 26.6687 53.4279 26.742C53.6359 26.8154 53.823 26.9098 53.9789 27.0356C54.1349 27.1614 54.27 27.3186 54.374 27.4969C54.4779 27.6751 54.5507 27.8848 54.5923 28.1049H53.5007C53.4695 27.9477 53.3864 27.8219 53.2408 27.7275C53.1057 27.6332 52.9393 27.5912 52.7418 27.5912C52.5131 27.5912 52.326 27.6436 52.2012 27.759C52.0661 27.8638 52.0037 28.0211 52.0037 28.2202V29.2581C52.0037 29.4573 52.0661 29.6041 52.2012 29.7089C52.3364 29.8138 52.5131 29.8662 52.7418 29.8662C52.9393 29.8662 53.1057 29.8138 53.2408 29.7194C53.376 29.625 53.4591 29.4992 53.5007 29.342H54.5923C54.5507 29.5621 54.4779 29.7718 54.374 29.95C54.27 30.1283 54.1349 30.2855 53.9789 30.4113C53.823 30.5371 53.6359 30.642 53.4279 30.7049C53.22 30.7678 52.9913 30.8202 52.7522 30.8202Z" fill="black"/>
<path d="M55.3379 25.4622H56.4295V26.7097C56.4295 26.7831 56.4295 26.8565 56.4191 26.9404C56.4087 27.0242 56.3983 27.0976 56.3983 27.171C56.3879 27.2444 56.3775 27.3178 56.3671 27.4016H56.4503C56.4814 27.1605 56.5958 26.9718 56.7725 26.8355C56.9493 26.6992 57.1884 26.6363 57.4795 26.6363C57.8849 26.6363 58.2072 26.7726 58.4463 27.0452C58.6854 27.3178 58.7998 27.6847 58.7998 28.146V30.7564H57.6978V28.2613C57.6978 28.0516 57.6458 27.8944 57.5314 27.779C57.4171 27.6637 57.2611 27.6008 57.074 27.6008C56.8765 27.6008 56.7309 27.6637 56.6166 27.779C56.5022 27.8944 56.4503 28.0621 56.4503 28.2613V30.7564H55.3587V25.4622H55.3379Z" fill="black"/>
<path d="M61.6909 25.4622H62.928L60.6409 28.5339V28.8064H62.0235V27.7371H63.1151V30.7459H62.0235V29.7605H59.6221V28.2298L61.6909 25.4622Z" fill="black"/>
<path d="M65.8375 30.8194C65.5568 30.8194 65.3073 30.7775 65.089 30.7041C64.8707 30.6307 64.6732 30.5154 64.5172 30.3686C64.3613 30.2219 64.2365 30.0541 64.143 29.8445C64.0598 29.6453 64.0078 29.4146 64.0078 29.163V27.0348C64.0078 26.7832 64.0494 26.5631 64.143 26.3534C64.2261 26.1542 64.3509 25.976 64.5172 25.8292C64.6732 25.6824 64.8707 25.5776 65.0994 25.4937C65.3281 25.4204 65.5776 25.3784 65.8479 25.3784C66.1182 25.3784 66.3677 25.4204 66.586 25.4937C66.8043 25.5671 67.0019 25.6824 67.1578 25.8292C67.3137 25.976 67.4385 26.1437 67.5321 26.3534C67.6152 26.5526 67.6672 26.7832 67.6672 27.0348H66.5756C66.5756 26.8252 66.5133 26.6679 66.3781 26.5526C66.243 26.4373 66.0662 26.3744 65.8479 26.3744C65.6192 26.3744 65.4425 26.4373 65.3073 26.5526C65.1722 26.6679 65.1098 26.8356 65.1098 27.0348V29.163C65.1098 29.3727 65.1722 29.5299 65.3073 29.6453C65.4321 29.7606 65.6192 29.8235 65.8479 29.8235C66.0766 29.8235 66.2534 29.7606 66.3885 29.6348C66.5237 29.509 66.586 29.3517 66.586 29.163H67.6776C67.6776 29.4146 67.636 29.6348 67.5425 29.8445C67.4593 30.0436 67.3345 30.2219 67.1682 30.3686C67.0123 30.5154 66.8147 30.6202 66.5964 30.7041C66.3677 30.788 66.1078 30.8194 65.8375 30.8194Z" fill="black"/>
<path d="M70.1731 30.819C69.8924 30.819 69.6429 30.777 69.4246 30.7036C69.2063 30.6302 69.0087 30.5149 68.8424 30.3682C68.6865 30.2214 68.5617 30.0537 68.4681 29.844C68.385 29.6448 68.333 29.4142 68.333 29.1625V27.0239C68.333 26.7723 68.3746 26.5521 68.4681 26.3529C68.5513 26.1537 68.6761 25.9755 68.8424 25.8392C68.9983 25.6925 69.1959 25.5876 69.4246 25.5037C69.6533 25.4304 69.9028 25.3884 70.1731 25.3884C70.4434 25.3884 70.7033 25.4304 70.9216 25.5037C71.1503 25.5771 71.3374 25.6925 71.5038 25.8392C71.6597 25.986 71.7845 26.1537 71.878 26.3529C71.9612 26.5521 72.0132 26.7828 72.0132 27.0239V29.1625C72.0132 29.4037 71.9716 29.6343 71.878 29.8335C71.7845 30.0327 71.6597 30.2109 71.5038 30.3577C71.3478 30.5044 71.1503 30.6093 70.9216 30.6932C70.6929 30.777 70.4434 30.819 70.1731 30.819ZM69.435 29.173C69.435 29.3827 69.4974 29.5504 69.6325 29.6762C69.7677 29.802 69.9444 29.8649 70.1731 29.8649C70.4018 29.8649 70.5785 29.802 70.7137 29.6762C70.8488 29.5504 70.9112 29.3827 70.9112 29.173V27.0344C70.9112 26.8247 70.8488 26.6569 70.7137 26.5311C70.5785 26.4053 70.4018 26.3424 70.1731 26.3424C69.9444 26.3424 69.7677 26.4053 69.6325 26.5311C69.4974 26.6569 69.435 26.8247 69.435 27.0344V29.173Z" fill="black"/>
<path d="M72.4307 25.4626H73.5326L74.4163 29.2682C74.4371 29.3416 74.4475 29.4255 74.4683 29.5093C74.4787 29.5932 74.4891 29.6771 74.4995 29.7505C74.5099 29.8343 74.5203 29.9287 74.5307 30.0126H74.5722C74.5826 29.9287 74.593 29.8343 74.6034 29.7505C74.6138 29.6771 74.6242 29.5932 74.6346 29.5093C74.645 29.4255 74.6658 29.3416 74.6762 29.2682L75.5391 25.4626H76.641L75.248 30.7464H73.7925L72.4307 25.4626Z" fill="black"/>
<path d="M77.2725 26.4162V25.4622H80.5472V26.4162H79.4556V29.7919H80.5472V30.7459H77.2725V29.7919H78.364V26.4162H77.2725Z" fill="black"/>
<path d="M81.5459 25.4622H83.2716C83.5523 25.4622 83.8018 25.5041 84.0201 25.588C84.2385 25.6718 84.436 25.7872 84.6023 25.9339C84.7583 26.0807 84.883 26.2694 84.9766 26.4791C85.0598 26.6887 85.1117 26.9194 85.1117 27.1815V29.0266C85.1117 29.2887 85.0701 29.5193 84.9766 29.7395C84.8934 29.9492 84.7687 30.1379 84.6023 30.2846C84.4464 30.4314 84.2489 30.5467 84.0201 30.6306C83.7914 30.7145 83.5419 30.7564 83.2716 30.7564H81.5459V25.4622ZM82.6375 29.7185H83.2716C83.49 29.7185 83.6771 29.6556 83.8122 29.5298C83.9474 29.404 84.0201 29.2363 84.0201 29.0266V27.1815C84.0201 26.9718 83.9474 26.8146 83.8122 26.6783C83.6771 26.5525 83.5003 26.4896 83.2716 26.4896H82.6375V29.7185Z" fill="black"/>
<path d="M85.9642 29.7924H87.3676V27.0247C87.3676 26.8151 87.378 26.6578 87.3884 26.5739C87.3884 26.511 87.3988 26.4691 87.3988 26.4272H87.378C87.3572 26.4481 87.3364 26.4796 87.2948 26.511C87.274 26.532 87.2429 26.5635 87.2013 26.5949C87.1597 26.6264 87.1077 26.6683 87.0557 26.7102L86.0265 27.3812V26.3223L87.2533 25.4836H88.4488V29.8134H89.5508V30.7674H85.9434V29.7924H85.9642Z" fill="black"/>
<path d="M90.1133 27.1187C90.1133 26.8566 90.1549 26.626 90.2484 26.4058C90.342 26.1961 90.4667 26.0074 90.6331 25.8607C90.7994 25.7139 90.9969 25.5881 91.2256 25.5042C91.4544 25.4204 91.7143 25.3784 92.0053 25.3784C92.2964 25.3784 92.5563 25.4204 92.7954 25.5042C93.0242 25.5881 93.2217 25.7139 93.388 25.8712C93.5543 26.0284 93.6791 26.2171 93.7623 26.4373C93.8454 26.6574 93.8974 26.909 93.8974 27.1816C93.8974 27.5171 93.8246 27.863 93.6895 28.1985C93.5439 28.534 93.3464 28.9114 93.0761 29.3203L92.1301 30.7356H90.9138L92.1197 28.9638C92.2549 28.7646 92.3588 28.6179 92.4316 28.5025C92.5044 28.3872 92.5563 28.3034 92.5979 28.2509C92.6395 28.188 92.6707 28.1461 92.6811 28.1251H92.6395C92.5667 28.2405 92.4836 28.3348 92.3796 28.4187C92.2964 28.4921 92.1821 28.5654 92.0573 28.6284C91.9326 28.6913 91.7766 28.7227 91.5999 28.7227C91.3816 28.7227 91.1841 28.6808 90.9969 28.6074C90.8098 28.534 90.6539 28.4187 90.5291 28.2824C90.394 28.1461 90.3004 27.9679 90.2276 27.7687C90.1445 27.58 90.1133 27.3598 90.1133 27.1187ZM92.0053 27.9259C92.2445 27.9259 92.442 27.8526 92.5875 27.7058C92.7331 27.559 92.8058 27.3598 92.8058 27.1187C92.8058 26.8671 92.7331 26.6679 92.5875 26.5316C92.442 26.3848 92.2445 26.3115 92.0053 26.3115C91.7662 26.3115 91.5583 26.3848 91.4232 26.5316C91.2776 26.6784 91.2049 26.8776 91.2049 27.1187C91.2049 27.3598 91.2776 27.5695 91.4232 27.7058C91.5583 27.8526 91.7558 27.9259 92.0053 27.9259Z" fill="black"/>
<path d="M1.64826 6.24298V8.46864H0.607422V2.47868H2.89891C3.56812 2.47868 4.09882 2.65284 4.49102 3.00116C4.88596 3.34948 5.08344 3.81024 5.08344 4.38346C5.08344 4.97039 4.89008 5.42704 4.50336 5.75342C4.11939 6.07979 3.58046 6.24298 2.88657 6.24298H1.64826ZM1.64826 5.40784H2.89891C3.26917 5.40784 3.55166 5.32145 3.74639 5.14866C3.94112 4.97313 4.03848 4.72081 4.03848 4.39169C4.03848 4.06805 3.93975 3.81024 3.74228 3.61826C3.54481 3.42353 3.27328 3.32342 2.92771 3.31794H1.64826V5.40784Z" fill="black"/>
<path d="M8.19772 6.1607H7.03758V8.46864H5.99674V2.47868H8.1031C8.79425 2.47868 9.32769 2.63364 9.70344 2.94356C10.0792 3.25348 10.2671 3.70191 10.2671 4.28884C10.2671 4.68926 10.1697 5.02524 9.97496 5.29676C9.78298 5.56554 9.5142 5.77261 9.16862 5.91797L10.5139 8.41516V8.46864H9.399L8.19772 6.1607ZM7.03758 5.32556H8.10721C8.45827 5.32556 8.73254 5.2378 8.93001 5.06227C9.12748 4.88399 9.22622 4.64127 9.22622 4.33409C9.22622 4.0132 9.13434 3.76499 8.95058 3.58946C8.76956 3.41393 8.49804 3.32342 8.13601 3.31794H7.03758V5.32556Z" fill="black"/>
<path d="M16.0349 5.63C16.0349 6.21692 15.9334 6.73254 15.7304 7.17685C15.5275 7.61842 15.2367 7.95851 14.8583 8.19712C14.4825 8.43299 14.0492 8.55092 13.5582 8.55092C13.0728 8.55092 12.6395 8.43299 12.2582 8.19712C11.8797 7.95851 11.5863 7.61979 11.3778 7.18097C11.1721 6.74214 11.0679 6.23612 11.0652 5.66291V5.32556C11.0652 4.74138 11.168 4.22576 11.3737 3.7787C11.5822 3.33165 11.8743 2.99019 12.25 2.75432C12.6285 2.51571 13.0618 2.3964 13.55 2.3964C14.0382 2.3964 14.4702 2.51434 14.8459 2.75021C15.2244 2.98333 15.5165 3.32068 15.7222 3.76225C15.9279 4.20107 16.0321 4.71258 16.0349 5.29676V5.63ZM14.994 5.31733C14.994 4.65361 14.8679 4.14485 14.6155 3.79105C14.366 3.43724 14.0108 3.26034 13.55 3.26034C13.1002 3.26034 12.7478 3.43724 12.4927 3.79105C12.2404 4.14211 12.1115 4.6399 12.106 5.28442V5.63C12.106 6.28823 12.2335 6.797 12.4886 7.15628C12.7464 7.51557 13.103 7.69522 13.5582 7.69522C14.019 7.69522 14.3728 7.51969 14.6196 7.16863C14.8692 6.81757 14.994 6.30469 14.994 5.63V5.31733Z" fill="black"/>
<path d="M19.5235 2.47868H20.5602V6.67906C20.5602 7.25228 20.3806 7.70756 20.0213 8.0449C19.6648 8.38225 19.193 8.55092 18.6061 8.55092C17.9808 8.55092 17.4981 8.39322 17.158 8.07782C16.8179 7.76241 16.6478 7.32359 16.6478 6.76134H17.6846C17.6846 7.07949 17.7627 7.31947 17.9191 7.48129C18.0781 7.64036 18.3071 7.7199 18.6061 7.7199C18.8858 7.7199 19.108 7.62802 19.2726 7.44426C19.4399 7.25776 19.5235 7.00132 19.5235 6.67495V2.47868Z" fill="black"/>
<path d="M25.2543 5.79456H22.7941V7.63762H25.6698V8.46864H21.7533V2.47868H25.641V3.31794H22.7941V4.97176H25.2543V5.79456Z" fill="black"/>
<path d="M31.0879 6.51862C31.0276 7.15765 30.7917 7.65682 30.3803 8.01611C29.9689 8.37265 29.4218 8.55092 28.7388 8.55092C28.2616 8.55092 27.8406 8.43847 27.4758 8.21358C27.1138 7.98594 26.8341 7.66367 26.6366 7.24679C26.4391 6.82991 26.3363 6.34583 26.328 5.79456V5.23505C26.328 4.67007 26.4282 4.17227 26.6284 3.74168C26.8286 3.31108 27.1152 2.97922 27.4882 2.74609C27.8639 2.51297 28.2973 2.3964 28.7882 2.3964C29.4492 2.3964 29.9813 2.57605 30.3844 2.93534C30.7876 3.29462 31.0221 3.80202 31.0879 4.45751H30.0512C30.0018 4.02691 29.8757 3.71699 29.6727 3.52775C29.4725 3.33576 29.1777 3.23977 28.7882 3.23977C28.3357 3.23977 27.9874 3.4057 27.7433 3.73756C27.5019 4.06668 27.3785 4.55076 27.373 5.1898V5.7205C27.373 6.36777 27.4882 6.86145 27.7186 7.20154C27.9517 7.54163 28.2918 7.71167 28.7388 7.71167C29.1475 7.71167 29.4547 7.61979 29.6604 7.43603C29.8661 7.25228 29.9963 6.94647 30.0512 6.51862H31.0879Z" fill="black"/>
<path d="M36.2263 3.31794H34.3585V8.46864H33.3259V3.31794H31.4746V2.47868H36.2263V3.31794Z" fill="black"/>
<path d="M41.6814 5.63C41.6814 6.21692 41.58 6.73254 41.377 7.17685C41.174 7.61842 40.8833 7.95851 40.5048 8.19712C40.1291 8.43299 39.6957 8.55092 39.2048 8.55092C38.7194 8.55092 38.286 8.43299 37.9048 8.19712C37.5263 7.95851 37.2328 7.61979 37.0244 7.18097C36.8187 6.74214 36.7145 6.23612 36.7117 5.66291V5.32556C36.7117 4.74138 36.8146 4.22576 37.0203 3.7787C37.2287 3.33165 37.5208 2.99019 37.8966 2.75432C38.2751 2.51571 38.7084 2.3964 39.1966 2.3964C39.6848 2.3964 40.1167 2.51434 40.4925 2.75021C40.871 2.98333 41.1631 3.32068 41.3688 3.76225C41.5745 4.20107 41.6787 4.71258 41.6814 5.29676V5.63ZM40.6406 5.31733C40.6406 4.65361 40.5144 4.14485 40.2621 3.79105C40.0125 3.43724 39.6573 3.26034 39.1966 3.26034C38.7468 3.26034 38.3944 3.43724 38.1393 3.79105C37.887 4.14211 37.7581 4.6399 37.7526 5.28442V5.63C37.7526 6.28823 37.8801 6.797 38.1352 7.15628C38.393 7.51557 38.7495 7.69522 39.2048 7.69522C39.6656 7.69522 40.0194 7.51969 40.2662 7.16863C40.5158 6.81757 40.6406 6.30469 40.6406 5.63V5.31733Z" fill="black"/>
<path d="M49.5679 8.46864H48.5271L45.8571 4.2189V8.46864H44.8163V2.47868H45.8571L48.5353 6.74488V2.47868H49.5679V8.46864Z" fill="black"/>
<path d="M55.5785 5.63C55.5785 6.21692 55.477 6.73254 55.274 7.17685C55.0711 7.61842 54.7803 7.95851 54.4019 8.19712C54.0261 8.43299 53.5928 8.55092 53.1018 8.55092C52.6164 8.55092 52.1831 8.43299 51.8018 8.19712C51.4233 7.95851 51.1299 7.61979 50.9214 7.18097C50.7157 6.74214 50.6115 6.23612 50.6088 5.66291V5.32556C50.6088 4.74138 50.7116 4.22576 50.9173 3.7787C51.1258 3.33165 51.4179 2.99019 51.7936 2.75432C52.1721 2.51571 52.6054 2.3964 53.0936 2.3964C53.5818 2.3964 54.0138 2.51434 54.3895 2.75021C54.768 2.98333 55.0601 3.32068 55.2658 3.76225C55.4715 4.20107 55.5757 4.71258 55.5785 5.29676V5.63ZM54.5376 5.31733C54.5376 4.65361 54.4115 4.14485 54.1591 3.79105C53.9096 3.43724 53.5544 3.26034 53.0936 3.26034C52.6438 3.26034 52.2914 3.43724 52.0363 3.79105C51.784 4.14211 51.6551 4.6399 51.6496 5.28442V5.63C51.6496 6.28823 51.7771 6.797 52.0322 7.15628C52.29 7.51557 52.6466 7.69522 53.1018 7.69522C53.5626 7.69522 53.9164 7.51969 54.1633 7.16863C54.4128 6.81757 54.5376 6.30469 54.5376 5.63V5.31733Z" fill="black"/>
<path d="M62.0662 7.074H59.7459L59.2605 8.46864H58.1785L60.4412 2.47868H61.3751L63.6419 8.46864H62.5558L62.0662 7.074ZM60.038 6.23475H61.7741L60.9061 3.74991L60.038 6.23475ZM62.3419 2.0138V2.05906H61.5396L60.9225 1.41728L60.3095 2.05906H59.5155V2.00558L60.6304 0.870117H61.2187L62.3419 2.0138Z" fill="black"/>
<path d="M65.6742 2.47868L67.4021 7.06989L69.1258 2.47868H70.4711V8.46864H69.4344V6.49393L69.5372 3.85275L67.7682 8.46864H67.0236L65.2587 3.85687L65.3615 6.49393V8.46864H64.3248V2.47868H65.6742Z" fill="black"/>
<path d="M71.7053 8.46864V2.47868H73.7582C74.4356 2.47868 74.9512 2.61445 75.305 2.88597C75.6588 3.15749 75.8357 3.56203 75.8357 4.09959C75.8357 4.37386 75.7617 4.6207 75.6136 4.84011C75.4655 5.05952 75.2488 5.22957 74.9636 5.35024C75.2872 5.43801 75.5368 5.60394 75.7123 5.84804C75.8906 6.08939 75.9797 6.38011 75.9797 6.7202C75.9797 7.28245 75.7987 7.71441 75.4367 8.01611C75.0774 8.3178 74.5618 8.46864 73.8898 8.46864H71.7053ZM72.7461 5.76576V7.63762H73.9021C74.2285 7.63762 74.4836 7.55671 74.6673 7.39489C74.8511 7.23308 74.943 7.00818 74.943 6.7202C74.943 6.09762 74.6248 5.77947 73.9885 5.76576H72.7461ZM72.7461 5.00056H73.7664C74.09 5.00056 74.3423 4.92788 74.5234 4.78252C74.7071 4.63441 74.799 4.42597 74.799 4.15719C74.799 3.86098 74.714 3.64706 74.5439 3.51541C74.3766 3.38376 74.1147 3.31794 73.7582 3.31794H72.7461V5.00056Z" fill="black"/>
<path d="M78.119 8.46864H77.0823V2.47868H78.119V8.46864Z" fill="black"/>
<path d="M83.6029 3.31794H81.7352V8.46864H80.7026V3.31794H78.8513V2.47868H83.6029V3.31794Z" fill="black"/>
<path d="M89.0581 5.63C89.0581 6.21692 88.9566 6.73254 88.7536 7.17685C88.5507 7.61842 88.2599 7.95851 87.8815 8.19712C87.5057 8.43299 87.0724 8.55092 86.5814 8.55092C86.096 8.55092 85.6627 8.43299 85.2814 8.19712C84.9029 7.95851 84.6095 7.61979 84.401 7.18097C84.1953 6.74214 84.0911 6.23612 84.0884 5.66291V5.32556C84.0884 4.74138 84.1912 4.22576 84.3969 3.7787C84.6054 3.33165 84.8975 2.99019 85.2732 2.75432C85.6517 2.51571 86.085 2.3964 86.5732 2.3964C87.0614 2.3964 87.4934 2.51434 87.8691 2.75021C88.2476 2.98333 88.5397 3.32068 88.7454 3.76225C88.9511 4.20107 89.0553 4.71258 89.0581 5.29676V5.63ZM88.0172 5.31733C88.0172 4.65361 87.8911 4.14485 87.6387 3.79105C87.3892 3.43724 87.034 3.26034 86.5732 3.26034C86.1234 3.26034 85.771 3.43724 85.5159 3.79105C85.2636 4.14211 85.1347 4.6399 85.1292 5.28442V5.63C85.1292 6.28823 85.2567 6.797 85.5118 7.15628C85.7696 7.51557 86.1262 7.69522 86.5814 7.69522C87.0422 7.69522 87.396 7.51969 87.6428 7.16863C87.8924 6.81757 88.0172 6.30469 88.0172 5.63V5.31733Z" fill="black"/>
<path d="M92.1929 8.46864V2.47868H93.9619C94.4913 2.47868 94.9603 2.59662 95.3689 2.83249C95.7803 3.06836 96.0985 3.40296 96.3233 3.8363C96.5482 4.26964 96.6607 4.76606 96.6607 5.32556V5.62588C96.6607 6.19361 96.5469 6.69277 96.3192 7.12337C96.0943 7.55397 95.7721 7.88583 95.3525 8.11896C94.9356 8.35208 94.457 8.46864 93.9167 8.46864H92.1929ZM93.2337 3.31794V7.63762H93.9126C94.4583 7.63762 94.8766 7.46757 95.1673 7.12749C95.4608 6.78465 95.6103 6.29372 95.6157 5.65468V5.32145C95.6157 4.67144 95.4745 4.17502 95.192 3.83219C94.9095 3.48935 94.4995 3.31794 93.9619 3.31794H93.2337Z" fill="black"/>
<path d="M102.478 5.63C102.478 6.21692 102.376 6.73254 102.173 7.17685C101.97 7.61842 101.68 7.95851 101.301 8.19712C100.926 8.43299 100.492 8.55092 100.001 8.55092C99.5158 8.55092 99.0825 8.43299 98.7012 8.19712C98.3227 7.95851 98.0293 7.61979 97.8208 7.18097C97.6151 6.74214 97.5109 6.23612 97.5082 5.66291V5.32556C97.5082 4.74138 97.611 4.22576 97.8167 3.7787C98.0252 3.33165 98.3173 2.99019 98.693 2.75432C99.0715 2.51571 99.5048 2.3964 99.993 2.3964C100.481 2.3964 100.913 2.51434 101.289 2.75021C101.667 2.98333 101.96 3.32068 102.165 3.76225C102.371 4.20107 102.475 4.71258 102.478 5.29676V5.63ZM101.437 5.31733C101.437 4.65361 101.311 4.14485 101.059 3.79105C100.809 3.43724 100.454 3.26034 99.993 3.26034C99.5432 3.26034 99.1908 3.43724 98.9357 3.79105C98.6834 4.14211 98.5545 4.6399 98.549 5.28442V5.63C98.549 6.28823 98.6766 6.797 98.9316 7.15628C99.1894 7.51557 99.546 7.69522 100.001 7.69522C100.462 7.69522 100.816 7.51969 101.063 7.16863C101.312 6.81757 101.437 6.30469 101.437 5.63V5.31733Z" fill="black"/>
<path d="M104.021 7.41546C104.207 7.41546 104.351 7.46895 104.453 7.57591C104.554 7.68013 104.605 7.81178 104.605 7.97085C104.605 8.12718 104.554 8.25746 104.453 8.36168C104.351 8.46316 104.207 8.5139 104.021 8.5139C103.842 8.5139 103.701 8.46316 103.597 8.36168C103.493 8.2602 103.441 8.12993 103.441 7.97085C103.441 7.81178 103.491 7.68013 103.593 7.57591C103.694 7.46895 103.837 7.41546 104.021 7.41546ZM104.021 3.92269C104.207 3.92269 104.351 3.97617 104.453 4.08314C104.554 4.18736 104.605 4.31901 104.605 4.47808C104.605 4.63441 104.554 4.76469 104.453 4.86891C104.351 4.97039 104.207 5.02113 104.021 5.02113C103.842 5.02113 103.701 4.97039 103.597 4.86891C103.493 4.76743 103.441 4.63715 103.441 4.47808C103.441 4.31901 103.491 4.18736 103.593 4.08314C103.694 3.97617 103.837 3.92269 104.021 3.92269Z" fill="black"/>
<path d="M144.872 25.6832H139.418V27.315H143.299C143.1 29.6117 141.21 30.5989 139.438 30.5989C137.15 30.5989 135.159 28.7857 135.159 26.2272C135.159 23.7492 137.05 21.8353 139.438 21.8353C141.269 21.8353 142.364 23.0239 142.364 23.0239L143.498 21.8353C143.498 21.8353 142.045 20.1833 139.379 20.1833C135.995 20.1833 133.368 23.0844 133.368 26.207C133.368 29.2692 135.836 32.2508 139.458 32.2508C142.643 32.2508 144.991 30.0348 144.991 26.7711C144.971 26.0861 144.872 25.6832 144.872 25.6832Z" fill="black"/>
<path d="M153.192 28.3821C153.192 30.6183 151.481 32.2501 149.371 32.2501C147.062 32.2501 145.49 30.437 145.49 28.3418C145.49 26.2668 147.102 24.4939 149.331 24.4939C151.202 24.4939 153.192 25.8235 153.192 28.3821ZM149.371 26.025C148.137 26.025 147.182 27.0323 147.182 28.3619C147.182 29.7319 148.137 30.719 149.371 30.719C150.486 30.719 151.521 29.7923 151.521 28.3619C151.521 26.9114 150.486 26.025 149.371 26.025Z" fill="black"/>
<path d="M161.566 28.3821C161.566 30.6183 159.855 32.2501 157.745 32.2501C155.437 32.2501 153.864 30.437 153.864 28.3418C153.864 26.2668 155.476 24.4939 157.705 24.4939C159.556 24.4939 161.566 25.8235 161.566 28.3821ZM157.745 26.025C156.511 26.025 155.556 27.0323 155.556 28.3619C155.556 29.7319 156.511 30.719 157.745 30.719C158.86 30.719 159.895 29.7923 159.895 28.3619C159.895 26.9114 158.84 26.025 157.745 26.025Z" fill="black"/>
<path d="M165.928 24.4939C166.824 24.4939 167.5 24.8364 167.998 25.3803V24.7155H169.61V31.686C169.61 34.4259 168.057 35.7354 166.008 35.7354C164.137 35.7354 163.082 34.5669 162.565 33.4589L164.037 32.8344C164.236 33.338 164.833 34.2043 165.988 34.2043C167.202 34.2043 167.998 33.3985 167.998 32.0688V31.3033C167.56 31.8069 166.983 32.2501 165.888 32.2501C164.117 32.2501 162.246 30.6989 162.246 28.3619C162.266 26.3272 163.878 24.4939 165.928 24.4939ZM166.087 26.025C165.012 26.025 163.938 26.9114 163.938 28.4022C163.938 29.8326 164.953 30.7392 166.047 30.7392C167.082 30.7392 168.117 29.9132 168.117 28.3821C168.137 26.8913 167.102 26.025 166.087 26.025Z" fill="black"/>
<path d="M176.73 24.4939C178.262 24.4939 179.417 25.5214 179.914 26.7704L180.173 27.3949L175.038 29.5506C175.337 30.1348 175.834 30.719 176.909 30.719C177.864 30.719 178.441 30.1952 178.78 29.6513L180.113 30.5377C179.516 31.3436 178.521 32.23 176.909 32.23C174.959 32.23 173.147 30.7795 173.147 28.3418C173.167 26.0452 174.799 24.4939 176.73 24.4939ZM174.799 28.2612L178.222 26.8107C178.004 26.3675 177.506 25.9847 176.809 25.9847C175.695 25.9847 174.64 27.133 174.799 28.2612Z" fill="black"/>
<path d="M170.724 32.0285H172.415V20.6057H170.724V32.0285Z" fill="black"/>
<path d="M193.67 24.2139C194.177 24.2139 194.667 24.2139 195.165 24.2139C195.2 24.2139 195.253 24.2488 195.279 24.2838C195.909 25.1146 196.53 25.9541 197.15 26.7936C197.728 27.5719 198.296 28.3502 198.882 29.1285C198.882 27.4932 198.882 25.8579 198.882 24.2139C199.407 24.2139 199.931 24.2139 200.465 24.2139C200.465 26.6974 200.465 29.181 200.465 31.6733C200.43 31.6733 200.386 31.6821 200.351 31.6821C199.905 31.6821 199.459 31.6821 199.013 31.6821C198.934 31.6821 198.891 31.6646 198.847 31.5946C197.684 30.0205 196.512 28.4377 195.34 26.8636C195.314 26.8286 195.288 26.8024 195.253 26.7499C195.253 28.4027 195.253 30.0293 195.253 31.6733C194.728 31.6733 194.212 31.6733 193.679 31.6733C193.67 29.1985 193.67 26.7149 193.67 24.2139Z" fill="black"/>
<path d="M224.502 26.2521C224.31 26.1559 224.135 26.0597 223.951 25.9722C223.365 25.7099 222.753 25.5175 222.097 25.5437C221.922 25.5525 221.747 25.5874 221.59 25.6574C221.153 25.8498 221.092 26.4794 221.494 26.7418C221.712 26.8817 221.975 26.9691 222.228 27.0478C222.718 27.2053 223.217 27.3364 223.671 27.5813C224.012 27.7562 224.318 27.9748 224.537 28.2984C224.747 28.6044 224.852 28.9455 224.869 29.304C224.896 29.8025 224.808 30.2747 224.537 30.7032C224.179 31.2629 223.645 31.569 223.015 31.7002C221.931 31.9363 220.89 31.7439 219.876 31.3066C219.824 31.2804 219.797 31.2542 219.797 31.1842C219.797 30.677 219.797 30.1785 219.797 29.6713C219.797 29.6538 219.797 29.6451 219.806 29.6101C219.85 29.6364 219.885 29.6538 219.92 29.6713C220.628 30.0823 221.38 30.3359 222.193 30.3447C222.43 30.3534 222.657 30.3097 222.867 30.1785C223.313 29.9074 223.339 29.2341 222.884 28.9717C222.631 28.8231 222.333 28.7356 222.045 28.6482C221.573 28.4995 221.1 28.3683 220.663 28.1322C220.138 27.8436 219.736 27.4501 219.614 26.8467C219.369 25.6224 219.946 24.5555 221.24 24.197C221.817 24.0396 222.395 24.0483 222.98 24.1358C223.47 24.2057 223.942 24.3369 224.388 24.5555C224.467 24.5905 224.502 24.6342 224.502 24.7217C224.493 25.1852 224.502 25.6486 224.502 26.1121C224.502 26.1733 224.502 26.2083 224.502 26.2521Z" fill="black"/>
<path d="M212.748 19.9829C212.976 20.0616 213.186 20.1403 213.413 20.219C212.984 21.3034 212.547 22.3878 212.119 23.4722C211.961 23.4109 211.813 23.3585 211.646 23.2973C212.014 22.2041 212.381 21.1023 212.748 19.9829Z" fill="black"/>
<path d="M203.587 22.8506C203.736 22.6669 203.884 22.492 204.042 22.3171C204.916 23.0954 205.791 23.865 206.665 24.6433C206.551 24.7745 206.455 24.8969 206.342 25.0281C205.423 24.2935 204.514 23.5764 203.587 22.8506Z" fill="black"/>
<path d="M205.748 26.0428C205.687 26.2002 205.634 26.3489 205.573 26.5151C204.462 26.1478 203.361 25.7805 202.241 25.4132C202.32 25.1946 202.399 24.9759 202.486 24.7573C203.579 25.1858 204.664 25.6143 205.748 26.0428Z" fill="black"/>
<path d="M205.571 29.3499C205.632 29.5073 205.685 29.6559 205.746 29.8221C204.662 30.2506 203.577 30.6791 202.475 31.1076C202.397 30.8802 202.318 30.6703 202.23 30.4517C203.359 30.0844 204.46 29.7171 205.571 29.3499Z" fill="black"/>
<path d="M207.295 24.0675C207.164 24.1811 207.041 24.2773 206.91 24.391C206.132 23.5165 205.353 22.6508 204.575 21.7763C204.759 21.6276 204.934 21.4789 205.117 21.3215C205.843 22.2398 206.569 23.158 207.295 24.0675Z" fill="black"/>
<path d="M215.333 21.3293C215.516 21.4868 215.691 21.6267 215.875 21.7841C215.097 22.6586 214.318 23.5243 213.54 24.3988C213.409 24.2939 213.286 24.189 213.155 24.0753C213.872 23.157 214.598 22.2476 215.333 21.3293Z" fill="black"/>
<path d="M204.575 34.0898C205.353 33.2153 206.132 32.3496 206.91 31.4751C207.041 31.58 207.164 31.685 207.295 31.7987C206.569 32.7169 205.843 33.6264 205.117 34.5446C204.934 34.3872 204.759 34.2385 204.575 34.0898Z" fill="black"/>
<path d="M216.85 33.0139C216.692 33.1976 216.552 33.3725 216.395 33.5474C215.52 32.7691 214.646 31.9995 213.771 31.2212C213.876 31.09 213.981 30.9676 214.095 30.8364C215.013 31.571 215.931 32.2881 216.85 33.0139Z" fill="black"/>
<path d="M211.643 32.5592C211.8 32.498 211.949 32.4455 212.115 32.3843C212.543 33.4687 212.981 34.5443 213.409 35.6374C213.19 35.7161 212.972 35.7948 212.744 35.8735C212.386 34.7717 212.019 33.6698 211.643 32.5592Z" fill="black"/>
<path d="M213.771 24.6367C214.646 23.8672 215.52 23.0888 216.395 22.3105C216.544 22.4854 216.692 22.6603 216.85 22.844C215.931 23.5698 215.013 24.2869 214.095 25.0127C213.99 24.8903 213.885 24.7679 213.771 24.6367Z" fill="black"/>
<path d="M217.961 24.7573C218.04 24.9759 218.118 25.1946 218.206 25.4132C217.095 25.7805 215.985 26.1478 214.874 26.5151C214.813 26.3577 214.76 26.209 214.699 26.0428C215.775 25.6143 216.859 25.1858 217.961 24.7573Z" fill="black"/>
<path d="M215.866 34.0898C215.683 34.2385 215.508 34.3872 215.324 34.5446C214.598 33.6264 213.872 32.7169 213.146 31.7987C213.278 31.6937 213.4 31.5888 213.531 31.4751C214.318 32.3408 215.088 33.2153 215.866 34.0898Z" fill="black"/>
<path d="M204.042 33.5552C203.893 33.3716 203.744 33.1967 203.587 33.0218C204.505 32.2959 205.423 31.5789 206.342 30.853C206.447 30.9755 206.551 31.1066 206.665 31.2378C205.791 31.9986 204.916 32.7769 204.042 33.5552Z" fill="black"/>
<path d="M214.866 29.3499C215.986 29.7171 217.088 30.0844 218.198 30.4517C218.119 30.6791 218.041 30.889 217.953 31.1076C216.86 30.6791 215.776 30.2506 214.691 29.8221C214.753 29.6647 214.805 29.5073 214.866 29.3499Z" fill="black"/>
<path d="M214.706 34.9735C214.496 35.0959 214.304 35.2096 214.094 35.3233C213.534 34.3001 212.984 33.277 212.424 32.2451C212.564 32.1576 212.704 32.0789 212.861 31.9915C213.473 32.9796 214.085 33.9678 214.706 34.9735Z" fill="black"/>
<path d="M214.094 20.5449C214.304 20.6674 214.496 20.7723 214.706 20.8947C214.094 21.8916 213.482 22.8798 212.861 23.8768C212.721 23.798 212.581 23.7193 212.424 23.6231C212.984 22.6 213.534 21.5768 214.094 20.5449Z" fill="black"/>
<path d="M206.345 20.5449C206.904 21.5768 207.455 22.5912 208.015 23.6231C207.866 23.7106 207.735 23.7893 207.578 23.8768C206.965 22.8886 206.353 21.9004 205.732 20.8947C205.942 20.781 206.135 20.6674 206.345 20.5449Z" fill="black"/>
<path d="M202.801 24.067C202.923 23.8571 203.037 23.6648 203.151 23.4636C204.148 24.0758 205.144 24.6879 206.141 25.3001C206.054 25.4487 205.975 25.5886 205.888 25.7373C204.865 25.1776 203.841 24.6267 202.801 24.067Z" fill="black"/>
<path d="M217.29 23.4636C217.412 23.6735 217.526 23.8659 217.639 24.067C216.607 24.6267 215.576 25.1776 214.544 25.7286C214.456 25.5799 214.377 25.44 214.29 25.2913C215.296 24.6879 216.284 24.0845 217.29 23.4636Z" fill="black"/>
<path d="M205.739 34.9726C206.36 33.9756 206.964 32.9874 207.584 31.9993C207.724 32.078 207.864 32.1654 208.022 32.2529C207.462 33.276 206.911 34.2992 206.351 35.3311C206.142 35.1999 205.94 35.0862 205.739 34.9726Z" fill="black"/>
<path d="M217.645 31.788C217.523 31.9891 217.418 32.1902 217.295 32.3914C216.299 31.7792 215.302 31.1671 214.305 30.5549C214.392 30.4063 214.471 30.2663 214.558 30.1177C215.59 30.6861 216.613 31.237 217.645 31.788Z" fill="black"/>
<path d="M205.895 30.1289C205.982 30.2688 206.061 30.4087 206.148 30.5662C205.151 31.1783 204.163 31.7817 203.157 32.4026C203.035 32.2015 202.921 32.0003 202.808 31.7992C203.831 31.2395 204.863 30.6886 205.895 30.1289Z" fill="black"/>
<path d="M208.798 23.306C208.632 23.3672 208.483 23.4197 208.326 23.4809C207.897 22.3965 207.468 21.3209 207.031 20.2278C207.25 20.1491 207.46 20.0704 207.687 19.9829C208.054 21.0935 208.43 22.1954 208.798 23.306Z" fill="black"/>
<path d="M208.425 19.7906C208.661 19.7469 208.88 19.7119 209.116 19.6682C209.291 20.8225 209.457 21.9681 209.623 23.1312C209.457 23.1575 209.299 23.1837 209.124 23.2187C208.897 22.0731 208.661 20.945 208.425 19.7906Z" fill="black"/>
<path d="M210.819 32.7322C210.985 32.706 211.143 32.671 211.318 32.6448C211.554 33.7816 211.79 34.9185 212.026 36.0728C211.79 36.1165 211.571 36.1515 211.335 36.1952C211.16 35.0322 210.985 33.8866 210.819 32.7322Z" fill="black"/>
<path d="M215.044 27.3387C215.017 27.1638 214.982 27.0151 214.956 26.849C216.102 26.6129 217.247 26.3767 218.393 26.1406C218.437 26.368 218.471 26.5954 218.515 26.8315C217.361 26.9976 216.207 27.1725 215.044 27.3387Z" fill="black"/>
<path d="M218.401 29.7244C217.246 29.4883 216.109 29.2522 214.964 29.0161C214.99 28.8499 215.016 28.6925 215.051 28.5264C216.206 28.6925 217.36 28.8674 218.532 29.0336C218.479 29.2697 218.436 29.4883 218.401 29.7244Z" fill="black"/>
<path d="M211.326 19.6682C211.562 19.7119 211.78 19.7469 212.016 19.7906C211.78 20.9362 211.544 22.0643 211.308 23.2187C211.142 23.1924 210.984 23.1662 210.81 23.1312C210.984 21.9769 211.159 20.8313 211.326 19.6682Z" fill="black"/>
<path d="M202.049 29.7244C202.005 29.4883 201.97 29.2697 201.927 29.0336C203.081 28.8674 204.235 28.6925 205.399 28.5264C205.425 28.6925 205.46 28.8499 205.486 29.0161C204.34 29.2522 203.195 29.4883 202.049 29.7244Z" fill="black"/>
<path d="M205.486 26.849C205.46 27.0151 205.425 27.1725 205.399 27.3387C204.244 27.1725 203.09 26.9976 201.927 26.8315C201.97 26.5954 202.005 26.3767 202.049 26.1406C203.195 26.3767 204.332 26.6129 205.486 26.849Z" fill="black"/>
<path d="M209.116 36.1975C208.88 36.1537 208.661 36.1188 208.425 36.075C208.661 34.9295 208.897 33.8014 209.133 32.6558C209.299 32.682 209.457 32.7082 209.632 32.7432C209.457 33.8888 209.291 35.0344 209.116 36.1975Z" fill="black"/>
<path d="M208.326 32.3843C208.484 32.4455 208.641 32.498 208.799 32.5592C208.431 33.661 208.064 34.7629 207.688 35.8823C207.461 35.8036 207.251 35.7249 207.023 35.6461C207.461 34.553 207.889 33.4774 208.326 32.3843Z" fill="black"/>
<path d="M205.369 27.6784C205.369 27.8446 205.369 28.002 205.369 28.1769C204.197 28.2119 203.034 28.2468 201.862 28.2731C201.862 28.037 201.862 27.8183 201.862 27.5735C203.034 27.6172 204.197 27.6522 205.369 27.6784Z" fill="black"/>
<path d="M215.078 28.1782C215.078 28.0033 215.078 27.8458 215.078 27.6797C216.25 27.6447 217.404 27.6097 218.576 27.5835C218.576 27.8196 218.576 28.0382 218.576 28.2831C217.413 28.2481 216.241 28.2131 215.078 28.1782Z" fill="black"/>
<path d="M209.875 19.6162C210.12 19.6162 210.338 19.6162 210.575 19.6162C210.54 20.7793 210.505 21.9336 210.478 23.0967C210.312 23.0967 210.155 23.0967 209.98 23.0967C209.936 21.9336 209.901 20.7793 209.875 19.6162Z" fill="black"/>
<path d="M209.971 32.7678C210.146 32.7678 210.304 32.7678 210.47 32.7678C210.505 33.9309 210.54 35.0852 210.575 36.2483C210.338 36.2483 210.12 36.2483 209.875 36.2483C209.901 35.094 209.936 33.9396 209.971 32.7678Z" fill="black"/>
<path d="M135.017 6.24306V8.46872H133.977V2.47876H136.268C136.937 2.47876 137.468 2.65292 137.86 3.00124C138.255 3.34956 138.453 3.81032 138.453 4.38354C138.453 4.97047 138.259 5.42712 137.873 5.75349C137.489 6.07987 136.95 6.24306 136.256 6.24306H135.017ZM135.017 5.40792H136.268C136.638 5.40792 136.921 5.32153 137.116 5.14874C137.31 4.97321 137.408 4.72088 137.408 4.39177C137.408 4.06813 137.309 3.81032 137.111 3.61834C136.914 3.42361 136.642 3.3235 136.297 3.31802H135.017V5.40792Z" fill="black"/>
<path d="M141.986 7.07408H139.666L139.181 8.46872H138.099L140.361 2.47876H141.295L143.562 8.46872H142.476L141.986 7.07408ZM139.958 6.23483H141.694L140.826 3.74998L139.958 6.23483Z" fill="black"/>
<path d="M146.446 6.16078H145.286V8.46872H144.245V2.47876H146.351C147.043 2.47876 147.576 2.63372 147.952 2.94364C148.328 3.25356 148.515 3.70199 148.515 4.28892C148.515 4.68934 148.418 5.02532 148.223 5.29684C148.031 5.56562 147.763 5.77269 147.417 5.91805L148.762 8.41524V8.46872H147.647L146.446 6.16078ZM145.286 5.32564H146.356C146.707 5.32564 146.981 5.23788 147.178 5.06235C147.376 4.88407 147.475 4.64135 147.475 4.33417C147.475 4.01328 147.383 3.76507 147.199 3.58954C147.018 3.41401 146.746 3.3235 146.384 3.31802H145.286V5.32564Z" fill="black"/>
<path d="M154.073 6.5187C154.013 7.15773 153.777 7.6569 153.366 8.01619C152.954 8.37273 152.407 8.551 151.724 8.551C151.247 8.551 150.826 8.43855 150.461 8.21366C150.099 7.98602 149.82 7.66375 149.622 7.24687C149.425 6.82999 149.322 6.34591 149.313 5.79463V5.23513C149.313 4.67015 149.414 4.17235 149.614 3.74176C149.814 3.31116 150.101 2.9793 150.474 2.74617C150.849 2.51305 151.283 2.39648 151.774 2.39648C152.435 2.39648 152.967 2.57613 153.37 2.93542C153.773 3.2947 154.008 3.8021 154.073 4.45759H153.037C152.987 4.02699 152.861 3.71707 152.658 3.52783C152.458 3.33584 152.163 3.23985 151.774 3.23985C151.321 3.23985 150.973 3.40578 150.729 3.73764C150.487 4.06676 150.364 4.55084 150.358 5.18988V5.72058C150.358 6.36785 150.474 6.86153 150.704 7.20162C150.937 7.54171 151.277 7.71175 151.724 7.71175C152.133 7.71175 152.44 7.61987 152.646 7.43611C152.852 7.25236 152.982 6.94655 153.037 6.5187H154.073Z" fill="black"/>
<path d="M158.508 5.79463H156.048V7.6377H158.924V8.46872H155.007V2.47876H158.895V3.31802H156.048V4.97184H158.508V5.79463Z" fill="black"/>
<path d="M160.87 8.46872H159.833V2.47876H160.87V8.46872Z" fill="black"/>
<path d="M164.35 6.16078H163.19V8.46872H162.149V2.47876H164.255C164.947 2.47876 165.48 2.63372 165.856 2.94364C166.232 3.25356 166.419 3.70199 166.419 4.28892C166.419 4.68934 166.322 5.02532 166.127 5.29684C165.935 5.56562 165.667 5.77269 165.321 5.91805L166.666 8.41524V8.46872H165.551L164.35 6.16078ZM163.19 5.32564H164.26C164.611 5.32564 164.885 5.23788 165.082 5.06235C165.28 4.88407 165.379 4.64135 165.379 4.33417C165.379 4.01328 165.287 3.76507 165.103 3.58954C164.922 3.41401 164.65 3.3235 164.288 3.31802H163.19V5.32564Z" fill="black"/>
<path d="M172.187 5.63007C172.187 6.217 172.086 6.73262 171.883 7.17693C171.68 7.6185 171.389 7.95859 171.011 8.1972C170.635 8.43307 170.202 8.551 169.711 8.551C169.225 8.551 168.792 8.43307 168.411 8.1972C168.032 7.95859 167.739 7.61987 167.53 7.18105C167.325 6.74222 167.22 6.2362 167.218 5.66299V5.32564C167.218 4.74145 167.32 4.22584 167.526 3.77878C167.735 3.33173 168.027 2.99027 168.402 2.7544C168.781 2.51579 169.214 2.39648 169.702 2.39648C170.191 2.39648 170.623 2.51442 170.998 2.75029C171.377 2.98341 171.669 3.32076 171.875 3.76233C172.08 4.20115 172.184 4.71266 172.187 5.29684V5.63007ZM171.146 5.31741C171.146 4.65369 171.02 4.14493 170.768 3.79112C170.518 3.43732 170.163 3.26042 169.702 3.26042C169.253 3.26042 168.9 3.43732 168.645 3.79112C168.393 4.14218 168.264 4.63998 168.258 5.2845V5.63007C168.258 6.28831 168.386 6.79707 168.641 7.15636C168.899 7.51565 169.255 7.69529 169.711 7.69529C170.171 7.69529 170.525 7.51976 170.772 7.1687C171.022 6.81765 171.146 6.30477 171.146 5.63007V5.31741Z" fill="black"/>
<path d="M176.355 6.92598C176.355 6.66268 176.261 6.45973 176.075 6.31711C175.891 6.17449 175.558 6.0305 175.075 5.88514C174.593 5.73978 174.209 5.57796 173.923 5.39969C173.378 5.05686 173.105 4.60981 173.105 4.05853C173.105 3.57583 173.301 3.17814 173.693 2.86548C174.088 2.55282 174.599 2.39648 175.227 2.39648C175.644 2.39648 176.016 2.47328 176.342 2.62687C176.669 2.78046 176.925 2.99987 177.112 3.2851C177.298 3.5676 177.391 3.88163 177.391 4.22721H176.355C176.355 3.91454 176.256 3.67045 176.058 3.49492C175.864 3.31665 175.584 3.22751 175.219 3.22751C174.879 3.22751 174.614 3.30019 174.425 3.44555C174.239 3.59091 174.145 3.79387 174.145 4.05442C174.145 4.27383 174.247 4.45759 174.45 4.60569C174.653 4.75105 174.987 4.89367 175.454 5.03355C175.92 5.17068 176.294 5.32838 176.577 5.50666C176.859 5.68219 177.066 5.88514 177.198 6.11553C177.33 6.34317 177.396 6.61057 177.396 6.91775C177.396 7.41691 177.204 7.8146 176.82 8.11081C176.438 8.40427 175.92 8.551 175.264 8.551C174.831 8.551 174.432 8.47147 174.067 8.31239C173.705 8.15058 173.423 7.92842 173.22 7.64593C173.02 7.36343 172.92 7.03431 172.92 6.65857H173.96C173.96 6.99866 174.073 7.26196 174.298 7.44846C174.523 7.63496 174.845 7.72821 175.264 7.72821C175.627 7.72821 175.898 7.65553 176.079 7.51017C176.263 7.36206 176.355 7.16733 176.355 6.92598Z" fill="black"/>
<path d="M178.815 7.41554C179.001 7.41554 179.145 7.46903 179.247 7.57599C179.348 7.68021 179.399 7.81186 179.399 7.97093C179.399 8.12726 179.348 8.25754 179.247 8.36176C179.145 8.46324 179.001 8.51398 178.815 8.51398C178.637 8.51398 178.495 8.46324 178.391 8.36176C178.287 8.26028 178.235 8.13001 178.235 7.97093C178.235 7.81186 178.286 7.68021 178.387 7.57599C178.488 7.46903 178.631 7.41554 178.815 7.41554ZM178.815 3.92277C179.001 3.92277 179.145 3.97625 179.247 4.08322C179.348 4.18744 179.399 4.31909 179.399 4.47816C179.399 4.63449 179.348 4.76477 179.247 4.86899C179.145 4.97047 179.001 5.02121 178.815 5.02121C178.637 5.02121 178.495 4.97047 178.391 4.86899C178.287 4.76751 178.235 4.63723 178.235 4.47816C178.235 4.31909 178.286 4.18744 178.387 4.08322C178.488 3.97625 178.631 3.92277 178.815 3.92277Z" fill="black"/>
</svg>
