<svg width="800" height="111" viewBox="0 0 800 111" fill="none" xmlns="http://www.w3.org/2000/svg">
<path fill-rule="evenodd" clip-rule="evenodd" d="M727.14 111C728.887 102.419 735.564 95.9819 743.47 95.9819H754.586C760.962 95.9819 766.162 89.9298 766.162 82.5455C766.162 75.1464 760.948 69.1099 754.586 69.1099H679.823C669.814 69.1099 661.628 59.609 661.628 47.9905C661.628 36.3738 669.814 26.8729 679.823 26.8729H702.177C708.553 26.8729 713.754 20.8207 713.754 13.4373C713.754 6.03647 708.54 0 702.177 0H0V111H727.14ZM776.442 82.5092C776.442 90.0618 781.706 96.1939 788.222 96.1939C794.736 96.1939 800.013 90.0618 800 82.5092C800 74.9565 794.736 68.8253 788.222 68.8253C781.72 68.8253 776.442 74.9414 776.442 82.5092Z" fill="#8464AC"/>
</svg>
