<svg width="326" height="471" viewBox="0 0 326 471" fill="none" xmlns="http://www.w3.org/2000/svg">
<path fill-rule="evenodd" clip-rule="evenodd" d="M169.45 89.8454C176.487 94.0868 183.401 96.1361 186.646 95.2996C194.785 93.2018 195.533 63.4294 189.236 51.6921C182.939 39.9549 150.567 34.8391 148.935 58.0943C148.369 66.1654 151.758 73.3684 156.765 79.2459L147.787 121.093H173.867L169.45 89.8454Z" fill="#B28B67"/>
<path fill-rule="evenodd" clip-rule="evenodd" d="M174.371 38.1646C170.934 37.6009 161.679 37.2134 159.972 37.2136C158.881 37.2136 157.699 37.4628 157.053 36.4613C156.524 35.6412 156.718 34.2541 156.56 33.3024C156.377 32.1968 156.116 31.1055 155.853 30.0169C155.103 26.9194 153.97 23.9724 152.384 21.2056C149.409 16.0146 145.049 11.9486 139.546 9.58255C133.469 6.97008 126.592 6.37188 120.056 6.90178C113.06 7.46871 106.728 9.77795 100.123 11.9511C93.8294 14.0219 87.2372 14.837 80.6545 13.8257C74.0222 12.807 69.0108 9.21227 63.4165 5.80045C57.6896 2.30757 51.1448 0.0230994 44.3745 0.548245C38.0547 1.03861 32.2299 3.64808 27.0041 7.13396C22.1147 10.3954 18.0803 14.3194 15.8026 19.842C13.3523 25.7828 13.3545 32.3037 17.3839 37.5539C23.2244 45.1641 34.0669 47.1321 43.0875 46.9364C48.3051 46.8236 53.4295 45.8711 58.3555 44.1386C64.925 41.8278 70.6021 37.9114 76.7481 34.7337C79.6324 33.2426 82.6137 32.018 85.7387 31.1358C88.7712 30.2794 91.758 29.8866 94.5036 31.7185C97.4081 33.6564 100.011 35.5601 103.334 36.7733C106.521 37.9372 109.898 38.5881 113.294 38.5619C119.901 38.5108 126.415 36.452 132.833 35.073C138.066 33.9487 143.665 32.8281 149.001 33.9089C151.227 34.36 154.479 35.2912 155.283 37.6049C141.749 40.0578 136.434 56.7954 140.249 69.0824C142.309 75.7141 154.687 83.4666 159.5 79.9801C162.549 77.7714 160.698 74.8717 159.5 72.9575C157.206 69.2918 156.421 64.583 160.666 62.0308C164.327 59.8296 168.178 65.0568 168.25 65.0511C169.257 64.9718 177.953 60.0536 183.945 52.8768C189.855 53.2272 190.752 49.3298 189.341 46.1425C187.929 42.9552 179.12 38.9439 174.371 38.1646Z" fill="#191847"/>
<path fill-rule="evenodd" clip-rule="evenodd" d="M126.753 211.287C128.713 238.029 254.939 316.762 255.676 318.971C256.167 320.444 216.386 412.079 216.386 412.079L227.42 416.367C227.42 416.367 288.437 319.319 285.303 308.978C280.816 294.173 187.365 211.571 187.365 211.571L126.753 211.287Z" fill="#B28B67"/>
<path fill-rule="evenodd" clip-rule="evenodd" d="M219.29 398.282L237.305 404.84C275.292 361.979 290.182 326.615 287.467 308.597C284.752 290.578 189.867 211.352 189.867 211.352L125.461 211.352C127.659 273.284 244.655 319.207 246.22 321.846C247.785 324.485 232.385 350.333 219.29 398.282Z" fill="#2F3676"/>
<path fill-rule="evenodd" clip-rule="evenodd" d="M215.437 409.731C214.594 408.918 213.234 408.93 212.48 409.825C210.986 411.6 208.769 414.413 208.121 416.194C207.116 418.956 206.107 424.59 206.107 424.59C209.312 425.756 263.701 445.553 263.701 445.553C263.701 445.553 268.647 438.948 264.026 436.596C259.404 434.243 256.379 432.602 256.379 432.602L233.889 410.863C233.484 410.472 232.836 410.492 232.456 410.908L229.156 414.521C229.156 414.521 223.918 414.981 221.118 413.962C219.363 413.323 216.975 411.215 215.437 409.731Z" fill="#E4E4E4"/>
<path fill-rule="evenodd" clip-rule="evenodd" d="M141.267 211.287L85.036 346.28L29.77 460.405H42.809L185.465 211.287H141.267Z" fill="#997659"/>
<path fill-rule="evenodd" clip-rule="evenodd" d="M31.8308 453.846C30.7609 453.37 29.4869 453.846 29.0847 454.946C28.288 457.124 27.1667 460.526 27.1667 462.421C27.1667 465.361 28.1461 471 28.1461 471C31.556 471 89.4361 471 89.4361 471C89.4361 471 91.8251 463.102 86.6779 462.472C81.5306 461.842 78.126 461.335 78.126 461.335L49.5576 448.599C49.043 448.369 48.4406 448.61 48.2259 449.131L46.3608 453.655C46.3608 453.655 41.5957 455.879 38.6166 455.879C36.7492 455.879 33.7839 454.715 31.8308 453.846Z" fill="#E4E4E4"/>
<path fill-rule="evenodd" clip-rule="evenodd" d="M34.761 436.697L63.7338 442.13C86.1356 409.196 179.888 274.152 190.167 211.287H125.667C91.3397 256.732 56.1145 403.218 34.761 436.697Z" fill="#5C63AB"/>
<path fill-rule="evenodd" clip-rule="evenodd" d="M278.442 164.239L239.067 181.531L251.639 197.637L281.129 175.028C295.858 172.322 302.689 169.998 301.622 168.055C300.722 166.417 299.048 166.324 297.505 166.239C296.304 166.173 295.182 166.111 294.57 165.326C293.171 163.534 296.623 157.998 300.125 152.884C303.626 147.77 300.344 147.955 298.423 148.566C292 152.141 285.339 157.365 278.442 164.239ZM102.147 190.712L79.8791 186.293C64.7772 226.097 55.7739 247.91 52.869 251.73C50.7388 254.532 37.6016 261.748 28.7096 265.602C25.1405 267.149 25.9068 270.165 26.9536 271.13C33.5566 277.217 39.6951 275.083 46.3772 272.761C48.3117 272.089 50.2917 271.401 52.3417 270.892C57.6479 269.574 59.2626 272.303 60.7886 274.881C62.1397 277.164 63.4212 279.33 67.1336 278.466C66.9648 277.737 66.7573 276.921 66.5334 276.04C65.0862 270.345 62.952 261.947 66.1183 257.068C67.7433 254.564 79.7528 232.445 102.147 190.712Z" fill="#B28B67"/>
<path fill-rule="evenodd" clip-rule="evenodd" d="M162.669 102.981L172.065 101.369C192.532 121.223 200.884 168.92 214.523 175.234C227.419 181.203 245.699 175.427 267.428 167.627L274.083 182.495C254.34 203.854 212.279 221.9 195.231 211.598C167.973 195.128 161.681 136.3 162.669 102.981Z" fill="#DB2721"/>
<path fill-rule="evenodd" clip-rule="evenodd" d="M121.707 221.067C121.707 221.067 178.222 221.067 204.849 221.067C208.648 221.067 207.933 215.581 207.383 212.813C201.045 180.864 176.302 146.425 176.302 100.947L152.32 97.1866C132.484 129.089 125.624 168.368 121.707 221.067Z" fill="#DDE3E9"/>
<path fill-rule="evenodd" clip-rule="evenodd" d="M151.047 97.1866H150.773C96.9815 130.335 64.4727 181.719 53.2468 251.34L70.6742 254.753C82.2184 241.304 96.4651 219.293 113.414 188.72C108.214 207.137 104.418 226.026 103.233 243.887H178.075C192.563 207.272 160.269 97.1866 160.269 97.1866H155.102H151.047Z" fill="#FF4133"/>
</svg>
