<svg xmlns="http://www.w3.org/2000/svg" viewBox="0 0 195 484" width="195" height="484">
	<style>
		tspan { white-space:pre }
		.shp0 { fill: #191847 } 
		.shp1 { fill: #b28b67 } 
		.shp2 { fill: #997659 } 
		.shp3 { fill: #e4e4e4 } 
		.shp4 { fill: #69a1ac } 
		.shp5 { fill: #89c5cc } 
		.shp6 { fill: #c1dee2 } 
		.shp7 { opacity: 0.2;fill: #000000 } 
	</style>
	<path id="Layer" fill-rule="evenodd" class="shp0" d="M76.31 80.93C89.53 80.93 94.34 65.09 101.86 56.4C107.24 50.19 116.41 52.04 119.13 43.34C125.96 21.45 107.68 6.04 83.83 6.04C59.98 6.04 43.9 19.55 40.43 39.86C36.96 60.17 52.46 80.93 76.31 80.93Z" />
	<path id="Layer" fill-rule="evenodd" class="shp1" d="M91.28 78.08C98.77 82.6 106.13 84.78 109.59 83.89C118.26 81.65 119.06 49.95 112.35 37.45C105.64 24.95 71.17 19.5 69.43 44.26C68.83 52.86 72.44 60.53 77.77 66.79L68.21 111.36L95.98 111.36L91.28 78.08Z" />
	<path id="Layer" fill-rule="evenodd" class="shp0" d="M71.24 26.88C49.96 47.71 71.32 69.85 77.17 69.85C77.54 66.84 78.7 63.92 80.39 61.14C79.49 59.97 78.96 58.53 78.96 56.96C78.96 53.13 82.15 50.02 86.08 50.02C87.31 50.02 88.47 50.32 89.48 50.86C98.01 43.58 108.7 38.51 114.01 37.52C123.25 35.78 92.51 6.04 71.24 26.88Z" />
	<path id="Layer" fill-rule="evenodd" class="shp2" d="M58.95 207.41L102.5 349.78L123.59 470.86L140.13 470.86L117.84 207.41L58.95 207.41Z" />
	<path id="Layer" fill-rule="evenodd" class="shp1" d="M43.37 207.41C46.33 285.58 42.85 325.9 42.18 333C41.52 340.11 32.46 386.16 11 473.25L28.62 467.19C62.54 387.32 74.1 345.81 77.99 335.32C81.88 324.83 92.21 282.19 108.98 207.41L43.37 207.41Z" />
	<path id="Layer" fill-rule="evenodd" class="shp3" d="M14.02 465.67C12.95 465.19 11.68 465.67 11.28 466.77C10.42 469.08 9.19 472.81 9.19 474.86C9.19 477.99 10.23 484 10.23 484C13.86 484 75.5 484 75.5 484C75.5 484 78.04 475.59 72.56 474.92C67.08 474.25 63.46 473.71 63.46 473.71L32.97 460.12C32.45 459.89 31.85 460.13 31.64 460.65L29.63 465.53C29.63 465.53 24.55 467.9 21.38 467.9C19.35 467.9 16.1 466.6 14.02 465.67Z" />
	<path id="Layer" fill-rule="evenodd" class="shp3" d="M122.81 465.67C121.74 465.19 120.46 465.67 120.06 466.77C119.21 469.08 117.97 472.81 117.97 474.86C117.97 477.99 119.01 484 119.01 484C122.64 484 184.29 484 184.29 484C184.29 484 186.83 475.59 181.35 474.92C175.87 474.25 172.24 473.71 172.24 473.71L141.75 460.12C141.24 459.89 140.64 460.13 140.42 460.65L138.41 465.53C138.41 465.53 133.34 467.9 130.16 467.9C128.13 467.9 124.88 466.6 122.81 465.67Z" />
	<path id="Layer" fill-rule="evenodd" class="shp4" d="M53.16 207.41L71.68 279.95L128.24 279.95L119.8 207.41L53.16 207.41Z" />
	<path id="Layer" fill-rule="evenodd" class="shp5" d="M42.75 207.41C33.61 234.8 39.28 279.95 39.28 279.95L96.99 279.95L112.86 207.41L42.75 207.41Z" />
	<path id="Layer" fill-rule="evenodd" class="shp6" d="M146.59 222.76C124.61 268.53 32.09 237.63 32.09 237.63C32.09 229.7 35.23 221.74 38.54 213.39C42.08 204.44 45.81 195.02 46.03 184.68C46.44 165.66 50 108.02 64.84 88.54C65.11 87.66 65.39 86.78 65.66 85.9L66.69 86.38C66.85 86.21 67.01 86.05 67.18 85.9L99.57 90.91C99.57 105.56 108.95 119.45 117.39 131.96C119.44 135 121.44 137.96 123.23 140.83C125.58 144.59 128.24 148.42 130.95 152.34C144.72 172.19 160.17 194.48 146.59 222.76Z" />
	<path id="Layer" fill-rule="evenodd" class="shp1" d="M109.3 191.72C126.55 211.22 136.52 221.08 139.21 221.31C144.25 221.73 147.98 217.26 149.04 218.52C150.79 223.73 145.84 236.76 136.37 238.66C131.85 239.56 124.85 230.24 121.97 226.93C120.83 225.63 115.2 221.36 105.08 214.11C107.25 202.93 108.65 195.47 109.3 191.72ZM134.89 154.5C139.36 154.5 141.77 156.35 144.41 160.08C147.06 163.81 149.56 181.41 145.31 181.41C141.07 181.41 123.27 174.61 123.27 170.04C123.27 165.46 135.41 163.53 135.41 160.08C135.41 156.64 130.42 154.5 134.89 154.5Z" />
	<path id="Layer" fill-rule="evenodd" class="shp7" d="M59.6 107.56C48.24 154.93 52.87 194.88 96.05 231.12C95.54 232.94 95.24 234.03 95.24 234.03C44.55 198.6 44.53 155.68 59.6 107.56Z" />
</svg>