<svg width="20" height="19" viewBox="0 0 20 19" fill="none" xmlns="http://www.w3.org/2000/svg">
<g clip-path="url(#clip0)">
<path fill-rule="evenodd" clip-rule="evenodd" d="M9.62254 5.03666e-06C7.36498 -0.00234798 5.1804 0.819829 3.46027 2.3192C1.74014 3.81857 0.596906 5.89712 0.235444 8.18236C-0.126018 10.4676 0.317918 12.8102 1.4877 14.7902C2.65747 16.7703 4.47663 18.2585 6.61916 18.988C7.09737 19.0778 7.26649 18.7727 7.26649 18.5156C7.26649 18.2584 7.26649 17.6723 7.26649 16.859C4.61302 17.4511 4.05317 15.5493 4.05317 15.5493C3.87714 14.9598 3.50316 14.4534 2.99761 14.1199C2.14034 13.5219 3.0676 13.5219 3.0676 13.5219C3.36811 13.5654 3.65502 13.6785 3.90661 13.8526C4.15819 14.0266 4.36785 14.2571 4.51971 14.5266C4.64875 14.7665 4.82272 14.978 5.03163 15.1488C5.24054 15.3196 5.4803 15.4465 5.73713 15.522C5.99396 15.5976 6.26281 15.6204 6.52826 15.5892C6.79371 15.5579 7.05053 15.4732 7.28399 15.3399C7.32059 14.848 7.52741 14.3856 7.86717 14.0362C5.75606 13.791 3.53997 12.9537 3.53997 9.25182C3.52548 8.28476 3.87418 7.34902 4.51388 6.63834C4.22897 5.7975 4.26227 4.87762 4.60719 4.06075C4.60719 4.06075 5.40615 3.79761 7.21984 5.0595C8.77727 4.62098 10.4212 4.62098 11.9786 5.0595C13.7923 3.79761 14.5854 4.06075 14.5854 4.06075C14.9351 4.86897 14.9767 5.78226 14.702 6.6204C15.3417 7.33108 15.6904 8.26682 15.6759 9.23387C15.6759 12.9777 13.454 13.797 11.3371 14.0183C11.5641 14.2523 11.7394 14.5336 11.851 14.8431C11.9627 15.1527 12.0082 15.4832 11.9844 15.8124C11.9844 17.1162 11.9844 18.1687 11.9844 18.4857C11.9844 18.8027 12.1535 19.0478 12.6376 18.9522C14.7557 18.2034 16.5476 16.711 17.6967 14.7386C18.8459 12.7662 19.2782 10.4408 18.9175 8.17323C18.5568 5.90562 17.4261 3.84173 15.7253 2.34617C14.0245 0.850603 11.8629 0.0196145 9.62254 5.03666e-06Z" fill="#191717"/>
</g>
<defs>
<clipPath id="clip0">
<rect width="19" height="19" fill="white" transform="translate(0.123047)"/>
</clipPath>
</defs>
</svg>
