<svg width="106" height="36" viewBox="0 0 106 36" fill="none" xmlns="http://www.w3.org/2000/svg">
<path d="M26.011 12.3987H13.7175V16.0774H22.4665C22.0179 21.2549 17.7555 23.4804 13.7624 23.4804C8.60277 23.4804 4.11611 19.3929 4.11611 13.625C4.11611 8.03873 8.37843 3.72416 13.7624 3.72416C17.8901 3.72416 20.3578 6.40372 20.3578 6.40372L22.9152 3.72416C22.9152 3.72416 19.6399 0 13.6278 0C6.00051 0 0.078125 6.53997 0.078125 13.5795C0.078125 20.4829 5.64157 27.2045 13.8073 27.2045C20.9859 27.2045 26.2802 22.2087 26.2802 14.8512C26.2353 13.3071 26.011 12.3987 26.011 12.3987Z" fill="white"/>
<path d="M44.765 18.4851C44.765 23.5264 40.9065 27.2051 36.1506 27.2051C30.9461 27.2051 27.4017 23.1176 27.4017 18.3943C27.4017 13.7164 31.0359 9.71973 36.0609 9.71973C40.2784 9.71973 44.765 12.7172 44.765 18.4851ZM36.1506 13.1714C33.3689 13.1714 31.2153 15.4422 31.2153 18.4397C31.2153 21.528 33.3689 23.7535 36.1506 23.7535C38.6632 23.7535 40.9962 21.6643 40.9962 18.4397C40.9962 15.1697 38.6632 13.1714 36.1506 13.1714Z" fill="white"/>
<path d="M63.6538 18.4851C63.6538 23.5264 59.7953 27.2051 55.0395 27.2051C49.835 27.2051 46.2905 23.1176 46.2905 18.3943C46.2905 13.7164 49.9247 9.71973 54.9497 9.71973C59.1223 9.71973 63.6538 12.7172 63.6538 18.4851ZM55.0395 13.1714C52.2577 13.1714 50.1042 15.4422 50.1042 18.4397C50.1042 21.528 52.2577 23.7535 55.0395 23.7535C57.552 23.7535 59.8851 21.6643 59.8851 18.4397C59.8851 15.1697 57.5071 13.1714 55.0395 13.1714Z" fill="white"/>
<path d="M73.4802 9.71973C75.4992 9.71973 77.0247 10.4918 78.1463 11.7181V10.2193H81.7805V25.9334C81.7805 32.1101 78.2809 35.0622 73.6597 35.0622C69.4422 35.0622 67.0643 32.428 65.8978 29.9301L69.2179 28.5222C69.6666 29.6576 71.0125 31.6105 73.6148 31.6105C76.3517 31.6105 78.1463 29.7939 78.1463 26.7964V25.0705C77.1593 26.206 75.8581 27.2051 73.3905 27.2051C69.3973 27.2051 65.1799 23.708 65.1799 18.4397C65.2248 13.8526 68.859 9.71973 73.4802 9.71973ZM73.8391 13.1714C71.4163 13.1714 68.9936 15.1697 68.9936 18.5305C68.9936 21.7551 71.2817 23.7989 73.7494 23.7989C76.0825 23.7989 78.4155 21.9368 78.4155 18.4851C78.4604 15.1243 76.1273 13.1714 73.8391 13.1714Z" fill="white"/>
<path d="M97.8422 9.71973C101.297 9.71973 103.899 12.036 105.021 14.8518L105.604 16.2597L94.0285 21.1193C94.7015 22.4364 95.8232 23.7535 98.2459 23.7535C100.4 23.7535 101.701 22.5726 102.463 21.3464L105.469 23.3447C104.123 25.1614 101.88 27.1597 98.2459 27.1597C93.849 27.1597 89.7662 23.8897 89.7662 18.3943C89.811 13.2168 93.4901 9.71973 97.8422 9.71973ZM93.4901 18.2126L101.207 14.9426C100.714 13.9435 99.5919 13.0806 98.0216 13.0806C95.5091 13.0806 93.1312 15.6693 93.4901 18.2126Z" fill="white"/>
<path d="M84.2928 26.7048H88.1064V0.953613H84.2928V26.7048Z" fill="white"/>
</svg>
