<svg width="375" height="578" viewBox="0 0 375 578" fill="none" xmlns="http://www.w3.org/2000/svg">
<path d="M170.465 98.707L285.307 185.662L317.97 422.735L200.969 430.734L193.238 387.118L166.774 362.353L136.27 310.737L188.781 206.252L170.465 98.707Z" fill="#D7C2A4"/>
<path d="M206.404 107.82L288.445 208.549L306.761 337.937C297.568 334.876 288.932 336.963 278.903 337.38C260.078 337.691 241.307 339.505 222.771 342.806C201.878 346.841 181.681 349.763 161.136 352.406L136.482 310.668L225.139 210.148L206.404 107.82Z" fill="#D7C2A4"/>
<path d="M169.708 50.0137L284.829 172.794L293.743 261.696L188.79 206.254L169.987 95.9257L169.708 95.4387V50.0137Z" fill="#D7C2A4"/>
<path d="M22.762 0.552734H166.019C178.211 0.552734 188.096 10.4256 188.096 22.6044V319.711C188.096 331.89 178.211 341.763 166.019 341.763H22.762C10.5693 341.763 0.685043 331.89 0.685043 319.711V22.6044C0.685043 10.4256 10.5693 0.552734 22.762 0.552734Z" fill="#494949"/>
<path d="M22.2723 30.5332H166.504C171.389 30.5332 175.349 34.4886 175.349 39.3678V286.319C175.349 291.198 171.389 295.153 166.504 295.153H22.2723C17.3875 295.153 13.4276 291.198 13.4276 286.319V39.3678C13.4276 34.4886 17.3875 30.5332 22.2723 30.5332Z" fill="white"/>
<path d="M93.0214 335.152C84.8288 335.152 78.1874 328.518 78.1874 320.335C78.1874 312.151 84.8288 305.518 93.0214 305.518C101.214 305.518 107.855 312.151 107.855 320.335C107.855 328.518 101.214 335.152 93.0214 335.152Z" fill="black"/>
<path d="M169.704 418.768L348.131 396.09L374.038 548.017L184.12 577.999L169.704 418.768Z" fill="#E0891F"/>
<path d="M229.976 378.936L185.192 381.885L149.532 333.608L131.969 267.377L92.6032 188.013C92.6032 188.013 83.6145 168.8 96.6677 159.619C108.629 151.389 122.391 163.954 122.391 163.954L162.626 214.486L229.71 310.708C229.71 310.708 244.18 376.14 229.976 378.936Z" fill="#D7C2A4"/>
<path fill-rule="evenodd" clip-rule="evenodd" d="M20.742 30.5352C16.6777 30.5352 13.3829 33.83 13.3829 37.8943V45.6392H13.3828V70.3232H175.393V53.4077C175.393 53.3991 175.393 53.3904 175.393 53.3817V37.8943C175.393 33.83 172.099 30.5352 168.034 30.5352H20.742Z" fill="#451484"/>
<path fill-rule="evenodd" clip-rule="evenodd" d="M31.6765 83.5156C27.6122 83.5156 24.3174 86.8104 24.3174 90.8748V114.272C24.3174 118.337 27.6122 121.631 31.6765 121.631H149.522L156.001 128.08V121.631H157.443C161.507 121.631 164.802 118.337 164.802 114.272V90.8748C164.802 86.8104 161.507 83.5156 157.443 83.5156H31.6765Z" fill="#FFC836"/>
<path d="M35.8066 107.206V100.663H36.7697C36.9738 100.663 37.1077 100.758 37.1715 100.95L37.2799 101.466C37.4117 101.33 37.5499 101.207 37.6945 101.096C37.8433 100.986 37.9985 100.89 38.1601 100.809C38.3259 100.729 38.5024 100.667 38.6895 100.624C38.8765 100.582 39.0806 100.561 39.3017 100.561C39.6589 100.561 39.9757 100.622 40.252 100.746C40.5284 100.865 40.758 101.035 40.9409 101.256C41.1279 101.473 41.2683 101.734 41.3618 102.04C41.4596 102.342 41.5085 102.676 41.5085 103.042V107.206H39.9332V103.042C39.9332 102.642 39.8396 102.334 39.6525 102.117C39.4697 101.896 39.1933 101.785 38.8234 101.785C38.5513 101.785 38.2962 101.847 38.058 101.97C37.8199 102.094 37.5946 102.261 37.382 102.474V107.206H35.8066Z" fill="#451583"/>
<path d="M48.1844 107.206H47.4764C47.3276 107.206 47.2107 107.185 47.1256 107.143C47.0406 107.096 46.9768 107.005 46.9343 106.868L46.794 106.403C46.6282 106.552 46.4645 106.683 46.3029 106.798C46.1456 106.909 45.9819 107.002 45.8118 107.079C45.6417 107.155 45.461 107.213 45.2697 107.251C45.0783 107.289 44.8657 107.309 44.6319 107.309C44.3555 107.309 44.1004 107.272 43.8665 107.2C43.6327 107.124 43.4307 107.011 43.2606 106.862C43.0948 106.713 42.9651 106.528 42.8716 106.307C42.778 106.086 42.7313 105.829 42.7313 105.535C42.7313 105.289 42.795 105.046 42.9226 104.808C43.0544 104.566 43.2713 104.349 43.5732 104.158C43.875 103.962 44.2768 103.801 44.7786 103.673C45.2803 103.546 45.9032 103.473 46.6473 103.456V103.074C46.6473 102.636 46.5538 102.312 46.3667 102.104C46.1838 101.892 45.916 101.785 45.5631 101.785C45.3079 101.785 45.0953 101.815 44.9253 101.875C44.7552 101.934 44.6064 102.002 44.4788 102.079C44.3555 102.151 44.2407 102.217 44.1344 102.276C44.0281 102.336 43.9112 102.366 43.7836 102.366C43.6773 102.366 43.5859 102.338 43.5094 102.283C43.4328 102.227 43.3712 102.159 43.3244 102.079L43.0374 101.575C43.79 100.886 44.6978 100.542 45.7608 100.542C46.1435 100.542 46.4836 100.605 46.7812 100.733C47.0831 100.856 47.3382 101.031 47.5466 101.256C47.7549 101.477 47.9123 101.743 48.0186 102.053C48.1291 102.364 48.1844 102.704 48.1844 103.074V107.206ZM45.123 106.224C45.2846 106.224 45.4334 106.209 45.5694 106.18C45.7055 106.15 45.8331 106.105 45.9521 106.046C46.0754 105.986 46.1923 105.914 46.3029 105.829C46.4177 105.74 46.5325 105.635 46.6473 105.516V104.413C46.1881 104.434 45.8033 104.475 45.4929 104.534C45.1868 104.589 44.9402 104.662 44.7531 104.751C44.566 104.84 44.432 104.944 44.3513 105.064C44.2747 105.183 44.2365 105.312 44.2365 105.453C44.2365 105.729 44.3172 105.927 44.4788 106.046C44.6446 106.165 44.8594 106.224 45.123 106.224Z" fill="#451583"/>
<path d="M50.014 107.206V101.849L49.4464 101.76C49.3231 101.738 49.2232 101.696 49.1467 101.632C49.0744 101.568 49.0382 101.479 49.0382 101.364V100.72H50.014V100.51C50.014 100.11 50.08 99.7401 50.2118 99.3999C50.3436 99.0555 50.5434 98.7579 50.8113 98.507C51.0792 98.2561 51.4172 98.0605 51.8254 97.9202C52.2336 97.7757 52.7162 97.7034 53.2732 97.7034C53.4517 97.7034 53.6346 97.714 53.8217 97.7353C54.0088 97.7523 54.1703 97.782 54.3064 97.8246L54.2554 98.6409C54.2469 98.7387 54.1937 98.7983 54.0959 98.8195C53.9981 98.8365 53.8769 98.845 53.7324 98.845C53.3199 98.845 52.9734 98.8812 52.6928 98.9535C52.4164 99.0257 52.191 99.1342 52.0167 99.2787C51.8466 99.419 51.7233 99.5976 51.6468 99.8145C51.5745 100.027 51.5384 100.276 51.5384 100.561V100.72H55.5947V107.206H54.0194V101.843H51.5894V107.206H50.014Z" fill="#451583"/>
<path d="M59.0718 97.7289V107.206H57.4964V97.7289H59.0718Z" fill="#451583"/>
<path d="M65.9852 107.206H65.2773C65.1285 107.206 65.0116 107.185 64.9265 107.143C64.8415 107.096 64.7777 107.005 64.7352 106.868L64.5949 106.403C64.429 106.552 64.2653 106.683 64.1038 106.798C63.9464 106.909 63.7827 107.002 63.6127 107.079C63.4426 107.155 63.2619 107.213 63.0705 107.251C62.8792 107.289 62.6666 107.309 62.4328 107.309C62.1564 107.309 61.9013 107.272 61.6674 107.2C61.4335 107.124 61.2316 107.011 61.0615 106.862C60.8957 106.713 60.766 106.528 60.6724 106.307C60.5789 106.086 60.5321 105.829 60.5321 105.535C60.5321 105.289 60.5959 105.046 60.7235 104.808C60.8553 104.566 61.0721 104.349 61.374 104.158C61.6759 103.962 62.0777 103.801 62.5794 103.673C63.0812 103.546 63.7041 103.473 64.4482 103.456V103.074C64.4482 102.636 64.3546 102.312 64.1675 102.104C63.9847 101.892 63.7168 101.785 63.3639 101.785C63.1088 101.785 62.8962 101.815 62.7261 101.875C62.5561 101.934 62.4072 102.002 62.2797 102.079C62.1564 102.151 62.0416 102.217 61.9353 102.276C61.829 102.336 61.712 102.366 61.5845 102.366C61.4782 102.366 61.3868 102.338 61.3102 102.283C61.2337 102.227 61.172 102.159 61.1253 102.079L60.8383 101.575C61.5909 100.886 62.4987 100.542 63.5616 100.542C63.9443 100.542 64.2845 100.605 64.5821 100.733C64.884 100.856 65.1391 101.031 65.3475 101.256C65.5558 101.477 65.7131 101.743 65.8194 102.053C65.93 102.364 65.9852 102.704 65.9852 103.074V107.206ZM62.9238 106.224C63.0854 106.224 63.2342 106.209 63.3703 106.18C63.5064 106.15 63.6339 106.105 63.753 106.046C63.8763 105.986 63.9932 105.914 64.1038 105.829C64.2186 105.74 64.3334 105.635 64.4482 105.516V104.413C63.989 104.434 63.6042 104.475 63.2938 104.534C62.9876 104.589 62.741 104.662 62.5539 104.751C62.3668 104.84 62.2329 104.944 62.1521 105.064C62.0756 105.183 62.0373 105.312 62.0373 105.453C62.0373 105.729 62.1181 105.927 62.2797 106.046C62.4455 106.165 62.6602 106.224 62.9238 106.224Z" fill="#451583"/>
<path d="M70.1092 104.592C70.1092 104.332 70.0475 104.122 69.9242 103.96C69.8052 103.794 69.6117 103.711 69.3438 103.711V102.799C69.6117 102.799 69.8052 102.719 69.9242 102.557C70.0475 102.391 70.1092 102.179 70.1092 101.919C70.1092 101.719 70.0943 101.522 70.0645 101.326C70.039 101.126 70.0071 100.926 69.9689 100.727C69.9348 100.527 69.903 100.327 69.8732 100.127C69.8477 99.9229 69.8349 99.7167 69.8349 99.5083C69.8349 99.1852 69.8817 98.8918 69.9752 98.6282C70.0688 98.3603 70.2112 98.1307 70.4026 97.9394C70.5981 97.748 70.8426 97.6013 71.136 97.4993C71.4336 97.393 71.7823 97.3398 72.182 97.3398H72.52V98.0414C72.52 98.0967 72.5073 98.1456 72.4818 98.1881C72.4605 98.2264 72.4307 98.2583 72.3925 98.2838C72.3584 98.3093 72.3223 98.3284 72.284 98.3412C72.2458 98.3539 72.2118 98.3603 72.182 98.3603H72.1246C71.827 98.3603 71.5995 98.4539 71.4422 98.6409C71.2848 98.828 71.2062 99.0853 71.2062 99.4127C71.2062 99.6465 71.2189 99.8719 71.2444 100.089C71.27 100.301 71.2955 100.51 71.321 100.714C71.3507 100.914 71.3784 101.111 71.4039 101.307C71.4294 101.502 71.4422 101.7 71.4422 101.9C71.4422 102.062 71.4188 102.215 71.372 102.359C71.3295 102.504 71.2636 102.636 71.1743 102.755C71.0892 102.869 70.9851 102.972 70.8618 103.061C70.7427 103.15 70.6066 103.216 70.4536 103.259C70.6066 103.305 70.7427 103.373 70.8618 103.463C70.9851 103.548 71.0892 103.65 71.1743 103.769C71.2636 103.888 71.3295 104.02 71.372 104.164C71.4188 104.309 71.4422 104.46 71.4422 104.617C71.4422 104.817 71.4294 105.015 71.4039 105.21C71.3784 105.406 71.3507 105.606 71.321 105.81C71.2955 106.01 71.27 106.218 71.2444 106.435C71.2189 106.647 71.2062 106.871 71.2062 107.104C71.2062 107.428 71.2848 107.683 71.4422 107.87C71.5995 108.057 71.827 108.15 72.1246 108.15H72.182C72.2118 108.15 72.2458 108.157 72.284 108.17C72.3223 108.182 72.3584 108.201 72.3925 108.227C72.4307 108.252 72.4605 108.286 72.4818 108.329C72.5073 108.372 72.52 108.42 72.52 108.476V109.171H72.182C71.7823 109.171 71.4336 109.118 71.136 109.011C70.8426 108.909 70.5981 108.763 70.4026 108.571C70.2112 108.384 70.0688 108.157 69.9752 107.889C69.8817 107.625 69.8349 107.332 69.8349 107.009C69.8349 106.8 69.8477 106.596 69.8732 106.396C69.903 106.192 69.9348 105.99 69.9689 105.791C70.0071 105.591 70.039 105.391 70.0645 105.191C70.0943 104.991 70.1092 104.791 70.1092 104.592Z" fill="#451583"/>
<path d="M78.1993 102.047C78.1525 102.106 78.1057 102.153 78.0589 102.187C78.0164 102.221 77.9526 102.238 77.8676 102.238C77.7868 102.238 77.7082 102.215 77.6316 102.168C77.5551 102.117 77.4637 102.062 77.3574 102.002C77.2511 101.938 77.1235 101.883 76.9747 101.836C76.8301 101.785 76.6494 101.76 76.4326 101.76C76.1562 101.76 75.9138 101.811 75.7055 101.913C75.4971 102.011 75.3228 102.153 75.1825 102.34C75.0464 102.527 74.9444 102.755 74.8764 103.023C74.8083 103.286 74.7743 103.586 74.7743 103.922C74.7743 104.271 74.8105 104.581 74.8827 104.853C74.9593 105.125 75.0677 105.355 75.208 105.542C75.3483 105.725 75.5184 105.865 75.7182 105.963C75.9181 106.056 76.1434 106.103 76.3943 106.103C76.6452 106.103 76.8471 106.073 77.0002 106.014C77.1575 105.95 77.2893 105.882 77.3956 105.81C77.5019 105.733 77.5934 105.665 77.6699 105.606C77.7507 105.542 77.84 105.51 77.9378 105.51C78.0653 105.51 78.161 105.559 78.2248 105.657L78.6776 106.231C78.5033 106.435 78.3141 106.607 78.11 106.747C77.9059 106.883 77.6933 106.994 77.4722 107.079C77.2553 107.16 77.03 107.217 76.7961 107.251C76.5623 107.285 76.3305 107.302 76.1009 107.302C75.697 107.302 75.3164 107.228 74.9593 107.079C74.6021 106.926 74.2896 106.705 74.0217 106.416C73.7581 106.126 73.5476 105.774 73.3903 105.357C73.2372 104.936 73.1607 104.458 73.1607 103.922C73.1607 103.441 73.2287 102.997 73.3648 102.589C73.5051 102.176 73.7092 101.821 73.9771 101.524C74.2449 101.222 74.5766 100.986 74.972 100.816C75.3675 100.646 75.8224 100.561 76.3369 100.561C76.8259 100.561 77.2532 100.639 77.6189 100.797C77.9888 100.954 78.3204 101.179 78.6138 101.473L78.1993 102.047Z" fill="#451583"/>
<path d="M82.4733 100.561C82.9622 100.561 83.4044 100.639 83.7999 100.797C84.1995 100.954 84.5397 101.177 84.8203 101.466C85.101 101.755 85.3178 102.108 85.4709 102.525C85.624 102.942 85.7005 103.407 85.7005 103.922C85.7005 104.441 85.624 104.908 85.4709 105.325C85.3178 105.742 85.101 106.097 84.8203 106.39C84.5397 106.683 84.1995 106.909 83.7999 107.066C83.4044 107.223 82.9622 107.302 82.4733 107.302C81.9843 107.302 81.54 107.223 81.1403 107.066C80.7406 106.909 80.3983 106.683 80.1134 106.39C79.8328 106.097 79.6138 105.742 79.4565 105.325C79.3034 104.908 79.2269 104.441 79.2269 103.922C79.2269 103.407 79.3034 102.942 79.4565 102.525C79.6138 102.108 79.8328 101.755 80.1134 101.466C80.3983 101.177 80.7406 100.954 81.1403 100.797C81.54 100.639 81.9843 100.561 82.4733 100.561ZM82.4733 106.09C83.0175 106.09 83.4193 105.908 83.6787 105.542C83.9423 105.176 84.0741 104.64 84.0741 103.935C84.0741 103.229 83.9423 102.691 83.6787 102.321C83.4193 101.951 83.0175 101.766 82.4733 101.766C81.9205 101.766 81.5123 101.953 81.2487 102.327C80.9851 102.697 80.8533 103.233 80.8533 103.935C80.8533 104.636 80.9851 105.172 81.2487 105.542C81.5123 105.908 81.9205 106.09 82.4733 106.09ZM84.6864 97.882L83.111 99.5466C83.0303 99.6316 82.9516 99.6912 82.8751 99.7252C82.8028 99.7549 82.7071 99.7698 82.5881 99.7698H81.6441L82.5498 98.22C82.6136 98.1094 82.688 98.0265 82.773 97.9713C82.8581 97.9117 82.9856 97.882 83.1557 97.882H84.6864Z" fill="#451583"/>
<path d="M91.5345 107.206C91.3304 107.206 91.1965 107.111 91.1327 106.919L91.0051 106.288C90.8691 106.441 90.7266 106.579 90.5778 106.703C90.429 106.826 90.2674 106.932 90.0931 107.022C89.923 107.111 89.738 107.179 89.5382 107.226C89.3426 107.277 89.13 107.302 88.9004 107.302C88.5432 107.302 88.2158 107.228 87.9182 107.079C87.6206 106.93 87.3633 106.715 87.1465 106.435C86.9339 106.15 86.7681 105.799 86.649 105.382C86.5342 104.966 86.4768 104.489 86.4768 103.954C86.4768 103.469 86.5427 103.018 86.6745 102.602C86.8063 102.185 86.9955 101.824 87.2421 101.517C87.4888 101.211 87.7843 100.973 88.1287 100.803C88.4731 100.629 88.86 100.542 89.2895 100.542C89.6551 100.542 89.9676 100.601 90.227 100.72C90.4864 100.835 90.7181 100.99 90.9222 101.186V97.7289H92.4976V107.206H91.5345ZM89.4361 106.052C89.7635 106.052 90.0421 105.984 90.2717 105.848C90.5013 105.712 90.7181 105.518 90.9222 105.268V102.334C90.7436 102.117 90.548 101.964 90.3354 101.875C90.1271 101.785 89.9017 101.741 89.6594 101.741C89.4213 101.741 89.2044 101.785 89.0088 101.875C88.8175 101.964 88.6538 102.1 88.5177 102.283C88.3859 102.461 88.2839 102.691 88.2116 102.972C88.1393 103.248 88.1032 103.575 88.1032 103.954C88.1032 104.336 88.1329 104.662 88.1925 104.93C88.2562 105.193 88.3455 105.41 88.4603 105.58C88.5751 105.746 88.7154 105.867 88.8813 105.944C89.0471 106.016 89.2321 106.052 89.4361 106.052Z" fill="#451583"/>
<path d="M95.8818 100.663V107.206H94.3065V100.663H95.8818ZM96.1178 98.7557C96.1178 98.8918 96.0902 99.0194 96.0349 99.1384C95.9796 99.2575 95.9052 99.3616 95.8117 99.4509C95.7224 99.5402 95.6161 99.6125 95.4928 99.6678C95.3695 99.7188 95.2377 99.7443 95.0973 99.7443C94.9613 99.7443 94.8316 99.7188 94.7083 99.6678C94.5892 99.6125 94.4851 99.5402 94.3958 99.4509C94.3065 99.3616 94.2342 99.2575 94.1789 99.1384C94.1279 99.0194 94.1024 98.8918 94.1024 98.7557C94.1024 98.6154 94.1279 98.4836 94.1789 98.3603C94.2342 98.237 94.3065 98.1307 94.3958 98.0414C94.4851 97.9521 94.5892 97.882 94.7083 97.8309C94.8316 97.7757 94.9613 97.748 95.0973 97.748C95.2377 97.748 95.3695 97.7757 95.4928 97.8309C95.6161 97.882 95.7224 97.9521 95.8117 98.0414C95.9052 98.1307 95.9796 98.237 96.0349 98.3603C96.0902 98.4836 96.1178 98.6154 96.1178 98.7557Z" fill="#451583"/>
<path d="M99.9316 100.548C100.212 100.548 100.476 100.578 100.722 100.637C100.969 100.693 101.194 100.775 101.399 100.886H103.28V101.473C103.28 101.571 103.255 101.647 103.203 101.702C103.152 101.758 103.065 101.796 102.942 101.817L102.355 101.926C102.398 102.036 102.43 102.153 102.451 102.276C102.476 102.4 102.489 102.529 102.489 102.665C102.489 102.989 102.423 103.282 102.291 103.546C102.164 103.805 101.985 104.026 101.756 104.209C101.53 104.392 101.26 104.534 100.946 104.636C100.635 104.734 100.297 104.783 99.9316 104.783C99.685 104.783 99.4448 104.759 99.2109 104.713C99.0068 104.836 98.9048 104.974 98.9048 105.127C98.9048 105.259 98.9643 105.357 99.0834 105.421C99.2067 105.48 99.3661 105.523 99.5617 105.548C99.7615 105.574 99.9869 105.591 100.238 105.599C100.489 105.603 100.746 105.616 101.009 105.638C101.273 105.659 101.53 105.697 101.781 105.752C102.032 105.803 102.255 105.886 102.451 106.001C102.651 106.116 102.81 106.273 102.929 106.473C103.053 106.669 103.114 106.922 103.114 107.232C103.114 107.521 103.042 107.802 102.897 108.074C102.757 108.346 102.551 108.588 102.279 108.801C102.011 109.014 101.681 109.184 101.29 109.311C100.899 109.443 100.452 109.509 99.9507 109.509C99.4533 109.509 99.0217 109.46 98.656 109.362C98.2904 109.269 97.9863 109.141 97.744 108.98C97.5059 108.822 97.3273 108.639 97.2082 108.431C97.0892 108.223 97.0297 108.006 97.0297 107.78C97.0297 107.474 97.1232 107.217 97.3103 107.009C97.4974 106.8 97.7567 106.635 98.0884 106.511C97.9268 106.422 97.7971 106.303 97.6993 106.154C97.6015 106.005 97.5526 105.812 97.5526 105.574C97.5526 105.476 97.5697 105.376 97.6037 105.274C97.6377 105.168 97.6887 105.064 97.7567 104.961C97.829 104.859 97.9183 104.764 98.0246 104.674C98.1309 104.581 98.2563 104.498 98.4009 104.426C98.0693 104.247 97.8078 104.009 97.6164 103.711C97.4293 103.414 97.3358 103.065 97.3358 102.665C97.3358 102.342 97.3996 102.051 97.5271 101.792C97.6589 101.528 97.8397 101.305 98.0693 101.122C98.3031 100.935 98.5774 100.792 98.892 100.695C99.2109 100.597 99.5574 100.548 99.9316 100.548ZM101.66 107.5C101.66 107.372 101.622 107.268 101.545 107.187C101.469 107.107 101.365 107.045 101.233 107.002C101.101 106.956 100.946 106.922 100.767 106.9C100.593 106.879 100.406 106.864 100.206 106.856C100.01 106.843 99.8062 106.832 99.5936 106.824C99.3852 106.811 99.1833 106.792 98.9877 106.766C98.8091 106.864 98.6645 106.981 98.554 107.117C98.4477 107.249 98.3945 107.402 98.3945 107.576C98.3945 107.691 98.4222 107.798 98.4774 107.895C98.537 107.997 98.6284 108.085 98.7517 108.157C98.8793 108.229 99.043 108.284 99.2428 108.323C99.4426 108.365 99.6871 108.386 99.9763 108.386C100.27 108.386 100.523 108.363 100.735 108.316C100.948 108.274 101.122 108.212 101.258 108.131C101.399 108.055 101.501 107.961 101.564 107.851C101.628 107.744 101.66 107.627 101.66 107.5ZM99.9316 103.775C100.127 103.775 100.297 103.75 100.442 103.699C100.586 103.643 100.705 103.569 100.799 103.475C100.897 103.382 100.969 103.269 101.016 103.137C101.067 103.006 101.092 102.861 101.092 102.704C101.092 102.381 100.995 102.125 100.799 101.938C100.608 101.747 100.319 101.651 99.9316 101.651C99.5447 101.651 99.2534 101.747 99.0578 101.938C98.8665 102.125 98.7708 102.381 98.7708 102.704C98.7708 102.857 98.7942 102.999 98.841 103.131C98.892 103.263 98.9643 103.378 99.0578 103.475C99.1556 103.569 99.2768 103.643 99.4214 103.699C99.5702 103.75 99.7403 103.775 99.9316 103.775Z" fill="#451583"/>
<path d="M107.063 100.561C107.552 100.561 107.994 100.639 108.39 100.797C108.789 100.954 109.13 101.177 109.41 101.466C109.691 101.755 109.908 102.108 110.061 102.525C110.214 102.942 110.29 103.407 110.29 103.922C110.29 104.441 110.214 104.908 110.061 105.325C109.908 105.742 109.691 106.097 109.41 106.39C109.13 106.683 108.789 106.909 108.39 107.066C107.994 107.223 107.552 107.302 107.063 107.302C106.574 107.302 106.13 107.223 105.73 107.066C105.33 106.909 104.988 106.683 104.703 106.39C104.423 106.097 104.204 105.742 104.046 105.325C103.893 104.908 103.817 104.441 103.817 103.922C103.817 103.407 103.893 102.942 104.046 102.525C104.204 102.108 104.423 101.755 104.703 101.466C104.988 101.177 105.33 100.954 105.73 100.797C106.13 100.639 106.574 100.561 107.063 100.561ZM107.063 106.09C107.607 106.09 108.009 105.908 108.269 105.542C108.532 105.176 108.664 104.64 108.664 103.935C108.664 103.229 108.532 102.691 108.269 102.321C108.009 101.951 107.607 101.766 107.063 101.766C106.51 101.766 106.102 101.953 105.839 102.327C105.575 102.697 105.443 103.233 105.443 103.935C105.443 104.636 105.575 105.172 105.839 105.542C106.102 105.908 106.51 106.09 107.063 106.09Z" fill="#451583"/>
<path d="M118.591 107.206C118.387 107.206 118.253 107.111 118.189 106.919L118.061 106.288C117.925 106.441 117.783 106.579 117.634 106.703C117.485 106.826 117.324 106.932 117.149 107.022C116.979 107.111 116.794 107.179 116.595 107.226C116.399 107.277 116.186 107.302 115.957 107.302C115.6 107.302 115.272 107.228 114.975 107.079C114.677 106.93 114.42 106.715 114.203 106.435C113.99 106.15 113.824 105.799 113.705 105.382C113.591 104.966 113.533 104.489 113.533 103.954C113.533 103.469 113.599 103.018 113.731 102.602C113.863 102.185 114.052 101.824 114.298 101.517C114.545 101.211 114.841 100.973 115.185 100.803C115.529 100.629 115.916 100.542 116.346 100.542C116.711 100.542 117.024 100.601 117.283 100.72C117.543 100.835 117.774 100.99 117.979 101.186V97.7289H119.554V107.206H118.591ZM116.492 106.052C116.82 106.052 117.098 105.984 117.328 105.848C117.558 105.712 117.774 105.518 117.979 105.268V102.334C117.8 102.117 117.604 101.964 117.392 101.875C117.183 101.785 116.958 101.741 116.716 101.741C116.478 101.741 116.261 101.785 116.065 101.875C115.874 101.964 115.71 102.1 115.574 102.283C115.442 102.461 115.34 102.691 115.268 102.972C115.196 103.248 115.159 103.575 115.159 103.954C115.159 104.336 115.189 104.662 115.249 104.93C115.313 105.193 115.402 105.41 115.517 105.58C115.631 105.746 115.772 105.867 115.938 105.944C116.103 106.016 116.288 106.052 116.492 106.052Z" fill="#451583"/>
<path d="M126.389 107.206H125.681C125.532 107.206 125.415 107.185 125.33 107.143C125.245 107.096 125.181 107.005 125.139 106.868L124.998 106.403C124.832 106.552 124.669 106.683 124.507 106.798C124.35 106.909 124.186 107.002 124.016 107.079C123.846 107.155 123.665 107.213 123.474 107.251C123.283 107.289 123.07 107.309 122.836 107.309C122.56 107.309 122.305 107.272 122.071 107.2C121.837 107.124 121.635 107.011 121.465 106.862C121.299 106.713 121.169 106.528 121.076 106.307C120.982 106.086 120.935 105.829 120.935 105.535C120.935 105.289 120.999 105.046 121.127 104.808C121.259 104.566 121.475 104.349 121.777 104.158C122.079 103.962 122.481 103.801 122.983 103.673C123.485 103.546 124.107 103.473 124.852 103.456V103.074C124.852 102.636 124.758 102.312 124.571 102.104C124.388 101.892 124.12 101.785 123.767 101.785C123.512 101.785 123.3 101.815 123.129 101.875C122.959 101.934 122.811 102.002 122.683 102.079C122.56 102.151 122.445 102.217 122.339 102.276C122.232 102.336 122.115 102.366 121.988 102.366C121.882 102.366 121.79 102.338 121.714 102.283C121.637 102.227 121.575 102.159 121.529 102.079L121.242 101.575C121.994 100.886 122.902 100.542 123.965 100.542C124.348 100.542 124.688 100.605 124.985 100.733C125.287 100.856 125.542 101.031 125.751 101.256C125.959 101.477 126.116 101.743 126.223 102.053C126.333 102.364 126.389 102.704 126.389 103.074V107.206ZM123.327 106.224C123.489 106.224 123.638 106.209 123.774 106.18C123.91 106.15 124.037 106.105 124.156 106.046C124.28 105.986 124.397 105.914 124.507 105.829C124.622 105.74 124.737 105.635 124.852 105.516V104.413C124.392 104.434 124.008 104.475 123.697 104.534C123.391 104.589 123.144 104.662 122.957 104.751C122.77 104.84 122.636 104.944 122.555 105.064C122.479 105.183 122.441 105.312 122.441 105.453C122.441 105.729 122.521 105.927 122.683 106.046C122.849 106.165 123.064 106.224 123.327 106.224Z" fill="#451583"/>
<path d="M136.31 97.984V99.3489H132.222V102.079H135.672V103.45H132.222V107.206H130.493V97.984H136.31Z" fill="#451583"/>
<path d="M139.244 100.663V107.206H137.669V100.663H139.244ZM139.48 98.7557C139.48 98.8918 139.453 99.0194 139.397 99.1384C139.342 99.2575 139.268 99.3616 139.174 99.4509C139.085 99.5402 138.978 99.6125 138.855 99.6678C138.732 99.7188 138.6 99.7443 138.46 99.7443C138.324 99.7443 138.194 99.7188 138.071 99.6678C137.952 99.6125 137.847 99.5402 137.758 99.4509C137.669 99.3616 137.597 99.2575 137.541 99.1384C137.49 99.0194 137.465 98.8918 137.465 98.7557C137.465 98.6154 137.49 98.4836 137.541 98.3603C137.597 98.237 137.669 98.1307 137.758 98.0414C137.847 97.9521 137.952 97.882 138.071 97.8309C138.194 97.7757 138.324 97.748 138.46 97.748C138.6 97.748 138.732 97.7757 138.855 97.8309C138.978 97.882 139.085 97.9521 139.174 98.0414C139.268 98.1307 139.342 98.237 139.397 98.3603C139.453 98.4836 139.48 98.6154 139.48 98.7557Z" fill="#451583"/>
<path d="M142.707 97.7289V107.206H141.132V97.7289H142.707Z" fill="#451583"/>
<path d="M149.621 107.206H148.913C148.764 107.206 148.647 107.185 148.562 107.143C148.477 107.096 148.413 107.005 148.371 106.868L148.23 106.403C148.064 106.552 147.901 106.683 147.739 106.798C147.582 106.909 147.418 107.002 147.248 107.079C147.078 107.155 146.897 107.213 146.706 107.251C146.515 107.289 146.302 107.309 146.068 107.309C145.792 107.309 145.537 107.272 145.303 107.2C145.069 107.124 144.867 107.011 144.697 106.862C144.531 106.713 144.401 106.528 144.308 106.307C144.214 106.086 144.168 105.829 144.168 105.535C144.168 105.289 144.231 105.046 144.359 104.808C144.491 104.566 144.708 104.349 145.009 104.158C145.311 103.962 145.713 103.801 146.215 103.673C146.717 103.546 147.34 103.473 148.084 103.456V103.074C148.084 102.636 147.99 102.312 147.803 102.104C147.62 101.892 147.352 101.785 146.999 101.785C146.744 101.785 146.532 101.815 146.362 101.875C146.191 101.934 146.043 102.002 145.915 102.079C145.792 102.151 145.677 102.217 145.571 102.276C145.464 102.336 145.347 102.366 145.22 102.366C145.114 102.366 145.022 102.338 144.946 102.283C144.869 102.227 144.807 102.159 144.761 102.079L144.474 101.575C145.226 100.886 146.134 100.542 147.197 100.542C147.58 100.542 147.92 100.605 148.218 100.733C148.519 100.856 148.775 101.031 148.983 101.256C149.191 101.477 149.349 101.743 149.455 102.053C149.565 102.364 149.621 102.704 149.621 103.074V107.206ZM146.559 106.224C146.721 106.224 146.87 106.209 147.006 106.18C147.142 106.15 147.269 106.105 147.388 106.046C147.512 105.986 147.629 105.914 147.739 105.829C147.854 105.74 147.969 105.635 148.084 105.516V104.413C147.624 104.434 147.24 104.475 146.929 104.534C146.623 104.589 146.376 104.662 146.189 104.751C146.002 104.84 145.868 104.944 145.788 105.064C145.711 105.183 145.673 105.312 145.673 105.453C145.673 105.729 145.754 105.927 145.915 106.046C146.081 106.165 146.296 106.224 146.559 106.224Z" fill="#451583"/>
<path d="M153.204 104.592C153.204 104.791 153.217 104.991 153.243 105.191C153.272 105.391 153.304 105.591 153.338 105.791C153.376 105.99 153.408 106.192 153.434 106.396C153.464 106.596 153.479 106.8 153.479 107.009C153.479 107.332 153.432 107.625 153.338 107.889C153.245 108.157 153.1 108.384 152.904 108.571C152.713 108.763 152.469 108.909 152.171 109.011C151.878 109.118 151.531 109.171 151.131 109.171H150.793V108.476C150.793 108.42 150.804 108.372 150.825 108.329C150.851 108.286 150.881 108.252 150.915 108.227C150.953 108.201 150.991 108.182 151.029 108.17C151.068 108.157 151.102 108.15 151.131 108.15H151.189C151.486 108.15 151.714 108.057 151.871 107.87C152.029 107.683 152.107 107.428 152.107 107.104C152.107 106.871 152.094 106.647 152.069 106.435C152.043 106.218 152.016 106.01 151.986 105.81C151.961 105.606 151.935 105.406 151.91 105.21C151.884 105.015 151.871 104.817 151.871 104.617C151.871 104.46 151.893 104.309 151.935 104.164C151.982 104.02 152.048 103.888 152.133 103.769C152.218 103.65 152.322 103.548 152.445 103.463C152.569 103.373 152.707 103.305 152.86 103.259C152.707 103.216 152.569 103.15 152.445 103.061C152.322 102.972 152.218 102.869 152.133 102.755C152.048 102.636 151.982 102.504 151.935 102.359C151.893 102.215 151.871 102.062 151.871 101.9C151.871 101.7 151.884 101.502 151.91 101.307C151.935 101.111 151.961 100.914 151.986 100.714C152.016 100.51 152.043 100.301 152.069 100.089C152.094 99.8719 152.107 99.6465 152.107 99.4127C152.107 99.0853 152.029 98.828 151.871 98.6409C151.714 98.4539 151.486 98.3603 151.189 98.3603H151.131C151.102 98.3603 151.068 98.3539 151.029 98.3412C150.991 98.3284 150.953 98.3093 150.915 98.2838C150.881 98.2583 150.851 98.2264 150.825 98.1881C150.804 98.1456 150.793 98.0967 150.793 98.0414V97.3398H151.131C151.531 97.3398 151.878 97.393 152.171 97.4993C152.469 97.6013 152.713 97.748 152.904 97.9394C153.1 98.1307 153.245 98.3603 153.338 98.6282C153.432 98.8918 153.479 99.1852 153.479 99.5083C153.479 99.7167 153.464 99.9229 153.434 100.127C153.408 100.327 153.376 100.527 153.338 100.727C153.304 100.926 153.272 101.126 153.243 101.326C153.217 101.522 153.204 101.719 153.204 101.919C153.204 102.179 153.264 102.391 153.383 102.557C153.506 102.719 153.702 102.799 153.97 102.799V103.711C153.702 103.711 153.506 103.794 153.383 103.96C153.264 104.122 153.204 104.332 153.204 104.592Z" fill="#451583"/>
</svg>
