<svg width="79" height="290" viewBox="0 0 79 290" fill="none" xmlns="http://www.w3.org/2000/svg">
<path fill-rule="evenodd" clip-rule="evenodd" d="M89.861 58.3752C94.6451 59.7506 99.0141 59.8638 100.783 58.8657C105.219 56.3627 100.994 38.8422 95.4692 32.9692C89.9441 27.0962 70.1901 29.1841 72.8771 43.0337C73.8097 47.8404 76.9221 51.5192 80.7743 54.1693L82.0721 80.0392L97.3412 75.9479L89.861 58.3752Z" fill="#B28B67"/>
<path fill-rule="evenodd" clip-rule="evenodd" d="M86.0536 41.1122C86.8482 38.7949 87.7149 36.9575 89.1312 35.6458C95.8723 33.9531 96.3363 32.541 95.2512 28.4915C93.9595 28.0074 89.7844 27.7282 85.4019 28.5092C83.0491 28.4704 80.4916 29.2815 78.2767 30.9914C75.4315 32.6885 73.3279 35.2653 73.1186 39.0904C70.8759 47.3849 76.0402 54.0099 80.9855 55.4206C81.7603 53.7749 82.4018 52.2094 82.9515 50.728C82.0565 50.2261 81.3573 49.3783 81.071 48.3097C80.507 46.2049 81.7588 44.0406 83.867 43.4757C84.022 43.4342 84.1773 43.4024 84.3323 43.3801C85.1323 45.9864 87.9084 54.7853 89.7625 57.6032C91.9485 60.9253 99.2433 59.9302 101.704 59.2709C103.829 58.7015 103.218 56.7116 102.781 55.2855C102.717 55.0802 102.658 54.8865 102.611 54.7104C102.512 54.3425 102.033 54.4719 101.492 54.6181C100.789 54.8078 99.9818 55.026 99.766 54.2205C99.5308 53.3426 100.566 52.3436 101.491 51.4496C102.069 50.8919 102.604 50.375 102.763 49.954C103.261 48.6257 103.127 47.0504 101.924 47.3728C101.266 47.549 100.465 48.1693 99.5019 48.9157C98.0472 50.0424 96.2218 51.4562 93.959 52.0625C90.2208 53.0641 86.1052 41.2606 86.0536 41.1122Z" fill="#191847"/>
<path fill-rule="evenodd" clip-rule="evenodd" d="M81.917 132.905C81.5721 161.582 76.5414 200.19 75.7377 201.978C74.934 203.765 20.2461 247.442 20.2461 247.442L26.1552 253.735C26.1552 253.735 90.6819 216.288 93.6678 211.294C96.6538 206.3 106.375 160.34 114.18 132.905H81.917Z" fill="#B28B67"/>
<path fill-rule="evenodd" clip-rule="evenodd" d="M21.4155 246.975C21.0558 245.862 19.8697 245.189 18.775 245.61C17.5392 246.086 16.0708 246.728 15.3544 247.327C13.9868 248.469 11.7454 251.113 11.7454 251.113C13.0767 252.693 35.6733 279.496 35.6733 279.496C35.6733 279.496 40.2808 277.533 38.5643 274.905C36.8478 272.277 35.7547 270.503 35.7547 270.503L30.6391 252.714C30.4836 252.173 29.9103 251.867 29.3719 252.037L26.9264 252.809C26.9264 252.809 24.0317 251.466 22.8686 250.086C22.2884 249.398 21.7797 248.102 21.4155 246.975Z" fill="#E4E4E4"/>
<path fill-rule="evenodd" clip-rule="evenodd" d="M28.6836 237.288L55.44 268.809C55.44 268.809 97.713 222.856 104.73 208.841C111.748 194.825 117.347 132.905 117.347 132.905H76.2156C76.2156 132.905 73.157 187.38 72.0922 189.915C71.0273 192.449 28.6836 237.288 28.6836 237.288Z" fill="#89C5CC"/>
<path fill-rule="evenodd" clip-rule="evenodd" d="M163.195 129.343L139.829 117.822L137.246 129.917L159.231 134.787C166.224 140.561 169.964 142.823 170.45 141.572C170.861 140.518 170.251 139.705 169.69 138.957C169.253 138.375 168.845 137.831 168.971 137.242C169.258 135.896 173.174 135.342 176.912 134.974C180.651 134.607 179.287 133.158 178.255 132.506C174.093 130.92 169.073 129.865 163.195 129.343ZM59.4012 175.205C60.6232 171.019 60.4797 132.353 60.4797 132.353L74.0441 130.016C74.0441 130.016 68.6245 172.693 68.0604 175.346C67.3277 178.791 70.3596 183.075 72.4155 185.979C72.7335 186.428 73.0282 186.845 73.282 187.22C71.3683 188.514 70.1725 187.569 68.9119 186.571C67.4881 185.445 65.9815 184.253 63.264 186.15C62.2142 186.883 61.2428 187.702 60.2937 188.502C57.0156 191.265 54.0041 193.803 48.9446 191.797C48.1425 191.478 47.0537 189.94 48.7381 188.291C52.9346 184.182 58.8039 177.251 59.4012 175.205Z" fill="#B28B67"/>
<path fill-rule="evenodd" clip-rule="evenodd" d="M76.9459 143.459C76.9459 143.459 110.68 137.511 126.575 134.708C128.843 134.308 127.839 131.114 127.22 129.522C120.079 111.149 101.691 93.229 96.912 66.1258L82.2015 66.4087C73.7134 87.5095 73.7463 111.64 76.9459 143.459Z" fill="#DDE3E9"/>
<path fill-rule="evenodd" clip-rule="evenodd" d="M69.0854 87.761C66.4479 88.0344 63.9049 87.3607 61.9466 84.9454C55.0523 76.4418 56.0268 70.9189 61.3176 68.227C64.227 66.7468 67.2317 66.8772 70.8285 67.0332C73.7726 67.161 77.1135 67.3059 81.1236 66.5989C81.512 66.5304 81.8701 66.494 82.1998 66.4871L86.9975 65.9202C86.9975 65.9202 117.791 127.78 112.991 151.126L73.7635 158.043C72.4761 163.785 71.1118 168.837 69.6829 172.785L59.0393 174.662C51.3759 137.897 60.3781 106.981 69.0854 87.761Z" fill="#FF9B21"/>
<path fill-rule="evenodd" clip-rule="evenodd" d="M73.7635 158.043C75.4527 150.509 77.0094 141.789 78.4057 132.821C81.1233 141.947 84.5634 150.988 88.425 155.458L73.7635 158.043Z" fill="black" fill-opacity="0.1"/>
</svg>
