<svg width="79" height="290" viewBox="0 0 79 290" fill="none" xmlns="http://www.w3.org/2000/svg">
<path fill-rule="evenodd" clip-rule="evenodd" d="M-30.5601 132.905L1.83382 214.51L23.5605 283.501H32.1399L-1.07542 132.905L-30.5601 132.905Z" fill="#997659"/>
<path fill-rule="evenodd" clip-rule="evenodd" d="M22.5531 279.867C21.4709 279.428 20.1983 279.899 19.8192 281.004C19.3906 282.253 18.9399 283.788 18.9399 284.72C18.9399 286.496 19.5348 289.905 19.5348 289.905C21.6058 289.905 56.76 289.905 56.76 289.905C56.76 289.905 58.211 285.131 55.0847 284.75C51.9585 284.369 49.8906 284.063 49.8906 284.063L32.9057 276.526C32.392 276.298 31.7913 276.538 31.5763 277.058L30.5977 279.42C30.5977 279.42 27.7036 280.764 25.8941 280.764C24.9882 280.764 23.6568 280.315 22.5531 279.867Z" fill="#E4E4E4"/>
<path fill-rule="evenodd" clip-rule="evenodd" d="M-8.77997 276.395L32.011 271.988L1.78003 132.905H-34.7549L-8.77997 276.395Z" fill="#69A1AC"/>
<path fill-rule="evenodd" clip-rule="evenodd" d="M44.1946 129.343L20.8292 117.822L18.2458 129.917L40.2307 134.787C47.2238 140.561 50.9636 142.823 51.4502 141.572C51.8605 140.518 51.2513 139.705 50.69 138.957C50.2528 138.375 49.8448 137.831 49.9707 137.242C50.2582 135.896 54.174 135.342 57.9124 134.974C61.6508 134.607 60.287 133.158 59.2549 132.506C55.0931 130.92 50.073 129.865 44.1946 129.343ZM-59.5988 175.205C-58.3768 171.019 -58.5203 132.353 -58.5203 132.353L-44.9559 130.016C-44.9559 130.016 -50.3755 172.693 -50.9396 175.346C-51.6723 178.791 -48.6404 183.075 -46.5845 185.979C-46.2665 186.428 -45.9718 186.845 -45.718 187.22C-47.6317 188.514 -48.8275 187.569 -50.0881 186.571C-51.5119 185.445 -53.0185 184.253 -55.736 186.15C-56.7858 186.883 -57.7572 187.702 -58.7063 188.502C-61.9844 191.265 -64.9959 193.803 -70.0554 191.797C-70.8575 191.478 -71.9463 189.94 -70.2619 188.291C-66.0654 184.182 -60.1961 177.251 -59.5988 175.205Z" fill="#B28B67"/>
<path fill-rule="evenodd" clip-rule="evenodd" d="M-30.0125 68.7727L-24.5729 66.8232C-0.597279 81.1026 14.0306 114.078 42.7603 127.846L37.9603 136.527C-7.25744 138.86 -25.6423 98.7339 -30.0125 68.7727Z" fill="#E87613"/>
<path fill-rule="evenodd" clip-rule="evenodd" d="M-42.0541 143.459C-42.0541 143.459 -8.31956 137.511 7.57474 134.708C9.84253 134.308 8.83872 131.114 8.22001 129.522C1.07924 111.149 -17.309 93.229 -22.088 66.1258L-36.7985 66.4087C-45.2866 87.5095 -45.2537 111.64 -42.0541 143.459Z" fill="#DDE3E9"/>
<path fill-rule="evenodd" clip-rule="evenodd" d="M-49.9146 87.761C-52.5521 88.0344 -55.0951 87.3607 -57.0534 84.9454C-63.9477 76.4418 -62.9732 70.9189 -57.6824 68.227C-54.773 66.7468 -51.7683 66.8772 -48.1715 67.0332C-45.2274 67.161 -41.8865 67.3059 -37.8764 66.5989C-37.488 66.5304 -37.1299 66.494 -36.8002 66.4871L-32.0025 65.9202C-32.0025 65.9202 -1.20869 127.78 -6.00936 151.126L-45.2365 158.043C-46.5239 163.785 -47.8882 168.837 -49.3171 172.785L-59.9607 174.662C-67.6241 137.897 -58.6219 106.981 -49.9146 87.761Z" fill="#FF9B21"/>
</svg>
