<svg width="161" height="161" viewBox="0 0 161 161" fill="none" xmlns="http://www.w3.org/2000/svg">
<path d="M30.537 44.9922H130.521C132.94 44.9922 134.821 46.8736 134.821 49.2926V109.498C134.821 111.917 132.94 113.798 130.521 113.798H30.537C28.118 113.798 26.2366 111.917 26.2366 109.498V49.2926C26.2366 46.8736 28.118 44.9922 30.537 44.9922Z" fill="#4C0788"/>
<path fill-rule="evenodd" clip-rule="evenodd" d="M33.4934 49.2925C30.9848 49.2925 29.8201 52.5178 31.7911 54.1304L76.9451 89.6982C78.9162 91.2212 81.6039 91.2212 83.5749 89.6982L129.177 54.1304C131.148 52.5178 130.073 49.2925 127.564 49.2925H33.4934Z" fill="white"/>
<path fill-rule="evenodd" clip-rule="evenodd" d="M131.058 61.656C137.598 61.656 142.884 56.3701 142.884 49.83C142.884 43.2898 137.598 38.0039 131.058 38.0039C124.518 38.0039 119.232 43.2898 119.232 49.83C119.232 56.3701 124.518 61.656 131.058 61.656Z" fill="#E81B13"/>
<path fill-rule="evenodd" clip-rule="evenodd" d="M131.059 53.5926C133.119 53.5926 134.822 51.8903 134.822 49.8297C134.822 47.7691 133.119 46.0669 131.059 46.0669C128.998 46.0669 127.296 47.7691 127.296 49.8297C127.296 51.8903 128.998 53.5926 131.059 53.5926Z" fill="white"/>
</svg>
