<svg width="150" height="200" viewBox="0 0 110 200" fill="none" xmlns="http://www.w3.org/2000/svg">
<g clip-path="url(#clip0)">
<path d="M111.727 43.8048C111.727 43.5544 111.727 43.5544 111.727 43.3041V18.2728C111.727 8.26033 103.46 0 93.4399 0H18.2872C8.2668 0 0 8.26033 0 18.2728V181.727C0 191.74 8.2668 200 18.2872 200H93.4399C103.46 200 111.727 191.74 111.727 181.727V135.419V135.169V43.8048ZM105.464 135.67V156.195H6.26273V28.035H105.464V43.3041V135.67Z" fill="#4C0788"/>
<path d="M111.727 46.5582H39.3299C33.0672 46.5582 27.8065 51.8148 27.8065 58.0726V108.385C27.8065 114.643 32.8167 119.9 39.3299 119.9H47.5967C47.8473 119.9 47.8473 120.15 47.8473 120.15V143.68C47.8473 144.681 48.3483 145.432 49.3503 145.682C49.6008 145.682 49.8513 145.932 50.1018 145.932C50.8534 145.932 51.3544 145.682 51.8554 145.181L70.8941 123.154L73.6497 119.9H111.727C117.99 119.9 123.251 114.894 123.251 108.385V58.0726C123 51.5645 117.99 46.5582 111.727 46.5582ZM78.9104 96.8711H47.5967C46.3442 96.8711 45.3422 95.8698 45.3422 94.6183C45.3422 93.3667 46.3442 92.3655 47.5967 92.3655H78.9104C80.1629 92.3655 81.165 93.3667 81.165 94.6183C81.165 95.8698 80.1629 96.8711 78.9104 96.8711ZM103.46 83.6045H47.5967C46.3442 83.6045 45.3422 82.6032 45.3422 81.3517C45.3422 80.1001 46.3442 79.0989 47.5967 79.0989H103.46C104.713 79.0989 105.715 80.1001 105.715 81.3517C105.715 82.6032 104.713 83.6045 103.46 83.6045ZM103.46 70.3379H47.5967C46.3442 70.3379 45.3422 69.3367 45.3422 68.0851C45.3422 66.8335 46.3442 65.8323 47.5967 65.8323H103.46C104.713 65.8323 105.715 66.8335 105.715 68.0851C105.715 69.3367 104.713 70.3379 103.46 70.3379Z" fill="#4C0788"/>
<path d="M55.6131 190.738C62.6274 190.738 68.1386 185.232 68.1386 178.223C68.1386 171.214 62.6274 165.707 55.6131 165.707C48.5988 165.707 43.0876 171.214 43.0876 178.223C43.0876 185.232 48.8494 190.738 55.6131 190.738ZM55.6131 171.965C59.1202 171.965 61.8758 174.718 61.8758 178.223C61.8758 181.727 59.1202 184.481 55.6131 184.481C52.106 184.481 49.3504 181.727 49.3504 178.223C49.3504 174.718 52.3565 171.965 55.6131 171.965Z" fill="white"/>
<path d="M56.2546 10.5056C57.4998 10.5056 58.5092 9.49701 58.5092 8.25282C58.5092 7.00862 57.4998 6 56.2546 6C55.0094 6 54 7.00862 54 8.25282C54 9.49701 55.0094 10.5056 56.2546 10.5056Z" fill="white"/>
<path d="M64 15H47C45.25 15 44 16.25 44 17.5C44 18.9583 45.5 20 47 20H64C65.75 20 67 18.75 67 17.5C67 16.25 65.75 15 64 15Z" fill="white"/>
</g>
<g filter="url(#filter0_d)">
<path fill-rule="evenodd" clip-rule="evenodd" d="M119.5 61C125.851 61 131 55.8513 131 49.5C131 43.1487 125.851 38 119.5 38C113.149 38 108 43.1487 108 49.5C108 55.8513 113.149 61 119.5 61Z" fill="#E81B13"/>
</g>
<path fill-rule="evenodd" clip-rule="evenodd" d="M119.5 53C121.433 53 123 51.433 123 49.5C123 47.567 121.433 46 119.5 46C117.567 46 116 47.567 116 49.5C116 51.433 117.567 53 119.5 53Z" fill="white"/>
<defs>
<filter id="filter0_d" x="89" y="30" width="61" height="61" filterUnits="userSpaceOnUse" color-interpolation-filters="sRGB">
<feFlood flood-opacity="0" result="BackgroundImageFix"/>
<feColorMatrix in="SourceAlpha" type="matrix" values="0 0 0 0 0 0 0 0 0 0 0 0 0 0 0 0 0 0 127 0"/>
<feOffset dy="11"/>
<feGaussianBlur stdDeviation="9.5"/>
<feColorMatrix type="matrix" values="0 0 0 0 0 0 0 0 0 0 0 0 0 0 0 0 0 0 0.130081 0"/>
<feBlend mode="normal" in2="BackgroundImageFix" result="effect1_dropShadow"/>
<feBlend mode="normal" in="SourceGraphic" in2="effect1_dropShadow" result="shape"/>
</filter>
<clipPath id="clip0">
<rect width="123" height="200" fill="white"/>
</clipPath>
</defs>
</svg>
