<svg width="46" height="70" viewBox="0 0 46 70" fill="none" xmlns="http://www.w3.org/2000/svg">
<path d="M38.7354 15.187C38.7354 15.1002 38.7354 15.1002 38.7354 15.0134V6.33513C38.7354 2.86383 35.8693 0 32.3953 0H6.3401C2.86607 0 0 2.86383 0 6.33513V63.0042C0 66.4755 2.86607 69.3393 6.3401 69.3393H32.3953C35.8693 69.3393 38.7354 66.4755 38.7354 63.0042V46.9494V46.8626V15.187ZM36.5641 47.0362V54.1523H2.17127V9.71965H36.5641V15.0134V47.0362Z" fill="#4C0788"/>
<rect x="1.89941" y="9.49854" width="34.1947" height="44.6431" fill="white"/>
<path d="M38.7351 16.1416H13.6353C11.464 16.1416 9.64014 17.964 9.64014 20.1336V37.5769C9.64014 39.7465 11.3771 41.5689 13.6353 41.5689H16.5013C16.5882 41.5689 16.5882 41.6557 16.5882 41.6557V49.8132C16.5882 50.1604 16.7619 50.4207 17.1093 50.5075C17.1961 50.5075 17.283 50.5943 17.3698 50.5943C17.6304 50.5943 17.8041 50.5075 17.9778 50.3339L24.5784 42.6971L25.5338 41.5689H38.7351C40.9064 41.5689 42.7302 39.8332 42.7302 37.5769V20.1336C42.6434 17.8773 40.9064 16.1416 38.7351 16.1416ZM27.3577 33.5849H16.5013C16.0671 33.5849 15.7197 33.2378 15.7197 32.8039C15.7197 32.3699 16.0671 32.0228 16.5013 32.0228H27.3577C27.7919 32.0228 28.1393 32.3699 28.1393 32.8039C28.1393 33.2378 27.7919 33.5849 27.3577 33.5849ZM35.869 28.9854H16.5013C16.0671 28.9854 15.7197 28.6383 15.7197 28.2044C15.7197 27.7705 16.0671 27.4233 16.5013 27.4233H35.869C36.3033 27.4233 36.6507 27.7705 36.6507 28.2044C36.6507 28.6383 36.3033 28.9854 35.869 28.9854ZM35.869 24.3859H16.5013C16.0671 24.3859 15.7197 24.0388 15.7197 23.6049C15.7197 23.171 16.0671 22.8239 16.5013 22.8239H35.869C36.3033 22.8239 36.6507 23.171 36.6507 23.6049C36.6507 24.0388 36.3033 24.3859 35.869 24.3859Z" fill="#4C0788"/>
<path d="M19.2808 66.1285C21.7126 66.1285 23.6233 64.2192 23.6233 61.7893C23.6233 59.3594 21.7126 57.4502 19.2808 57.4502C16.8489 57.4502 14.9382 59.3594 14.9382 61.7893C14.9382 64.2192 16.9358 66.1285 19.2808 66.1285ZM19.2808 59.6198C20.4967 59.6198 21.452 60.5744 21.452 61.7893C21.452 63.0043 20.4967 63.9589 19.2808 63.9589C18.0649 63.9589 17.1095 63.0043 17.1095 61.7893C17.1095 60.5744 18.1517 59.6198 19.2808 59.6198Z" fill="white"/>
<path d="M19.5028 3.64217C19.9345 3.64217 20.2845 3.29248 20.2845 2.86112C20.2845 2.42976 19.9345 2.08008 19.5028 2.08008C19.0712 2.08008 18.7212 2.42976 18.7212 2.86112C18.7212 3.29248 19.0712 3.64217 19.5028 3.64217Z" fill="white"/>
<path d="M22.1886 5.20068H16.2947C15.688 5.20068 15.2546 5.63405 15.2546 6.06742C15.2546 6.57302 15.7747 6.93417 16.2947 6.93417H22.1886C22.7953 6.93417 23.2287 6.5008 23.2287 6.06742C23.2287 5.63405 22.7953 5.20068 22.1886 5.20068Z" fill="white"/>
<path fill-rule="evenodd" clip-rule="evenodd" d="M41.4301 21.1483C43.6321 21.1483 45.4171 19.3633 45.4171 17.1613C45.4171 14.9594 43.6321 13.1743 41.4301 13.1743C39.2282 13.1743 37.4431 14.9594 37.4431 17.1613C37.4431 19.3633 39.2282 21.1483 41.4301 21.1483Z" fill="#E81B13"/>
<path fill-rule="evenodd" clip-rule="evenodd" d="M41.4302 18.3751C42.1004 18.3751 42.6437 17.8318 42.6437 17.1617C42.6437 16.4915 42.1004 15.9482 41.4302 15.9482C40.7601 15.9482 40.2168 16.4915 40.2168 17.1617C40.2168 17.8318 40.7601 18.3751 41.4302 18.3751Z" fill="white"/>
</svg>
