<svg width="161" height="161" viewBox="0 0 161 161" fill="none" xmlns="http://www.w3.org/2000/svg">
<path d="M48.5274 125.608L48.5214 125.595L48.5151 125.582L41.3253 110.441C42.7028 110.114 44.1946 109.566 45.5598 109.008C47.2371 108.323 48.9122 107.538 50.2053 106.933C50.6216 106.738 50.9983 106.562 51.3227 106.413C51.3233 106.413 51.3238 106.413 51.3243 106.412L60.1778 102.384L67.0912 116.985C69.2801 122.324 67.0618 128.251 62.0694 130.67C56.5953 133.083 50.706 130.437 48.5274 125.608Z" fill="#4C0788" stroke="#4C0788" stroke-width="3"/>
<path d="M116.986 27.852C115.733 27.3471 114.229 28.1045 113.728 29.3669L109.468 41.4862C108.966 42.7486 109.718 44.2635 110.971 44.7685C112.224 45.2735 113.728 44.516 114.229 43.2536L118.741 30.8818C118.991 29.6194 118.24 28.357 116.986 27.852Z" fill="#E81B13"/>
<path d="M124.756 56.1303L136.535 50.5756C137.789 50.0707 138.29 48.5558 137.789 47.2933C137.287 46.0309 135.784 45.5259 134.53 46.0309L122.751 51.5856C121.498 52.0905 120.996 53.6054 121.498 54.8679C121.999 56.3828 123.503 56.8878 124.756 56.1303Z" fill="#E81B13"/>
<path d="M137.788 72.7947L125.507 68.25C124.254 67.745 122.75 68.5025 122.249 69.7649C121.748 71.0273 122.5 72.5422 123.753 73.0472L136.034 77.5919C137.287 78.0969 138.791 77.3394 139.292 76.077C139.793 74.5621 139.292 73.0472 137.788 72.7947Z" fill="#E81B13"/>
<path d="M34.3606 78.3429L34.3776 78.335L34.3945 78.3267L48.3852 71.4484L63.337 99.1363L47.844 106.753C39.2938 110.443 30.0982 106.712 26.6337 99.1687L26.6292 99.159L26.6246 99.1493C22.901 91.3386 26.3609 82.0299 34.3606 78.3429Z" fill="white" stroke="#4C0788" stroke-width="3"/>
<path d="M84.6549 39.466C84.4043 38.7086 83.6524 38.2036 82.9005 37.9511C82.1486 37.6986 81.3967 37.9511 80.6449 38.4561L46.8101 70.7741L62.5996 100.82L107.963 96.78C108.715 96.78 109.467 96.275 109.718 95.5176C110.219 94.7601 110.219 94.0027 109.718 93.2452L84.6549 39.466Z" fill="#4C0788"/>
<path d="M95.4336 50.3228L108.216 78.0961C109.469 76.5812 110.221 75.0663 110.973 73.2989C112.476 69.0066 112.226 64.4619 110.471 60.1697C107.714 54.3625 101.699 50.3228 95.4336 50.3228Z" fill="#4C0788"/>
</svg>
