<svg width="80" height="73" viewBox="0 0 80 73" fill="none" xmlns="http://www.w3.org/2000/svg">
<path d="M17.5136 66.9821L17.5076 66.9688L17.5013 66.9556L12.8124 57.0812C13.6331 56.8476 14.4702 56.5321 15.2265 56.223C16.3895 55.7477 17.5559 55.2015 18.4439 54.7857C18.7264 54.6535 18.9807 54.5344 19.1977 54.435C19.1983 54.4348 19.1988 54.4345 19.1993 54.4343L24.8502 51.8633L29.3894 61.4498C30.7918 64.8868 29.3605 68.674 26.1774 70.2214C22.6703 71.762 18.9055 70.0669 17.5136 66.9821Z" fill="#4C0788" stroke="#4C0788" stroke-width="3"/>
<path d="M64.0518 0.108517C63.1921 -0.237927 62.1604 0.281738 61.8165 1.14785L58.8934 9.46249C58.5495 10.3286 59.0653 11.3679 59.925 11.7144C60.7848 12.0608 61.8165 11.5411 62.1604 10.675L65.2554 2.18718C65.4274 1.32107 64.9115 0.45496 64.0518 0.108517Z" fill="#E81B13"/>
<path d="M69.3818 19.5094L77.4633 15.6985C78.3231 15.3521 78.667 14.3127 78.3231 13.4466C77.9792 12.5805 76.9475 12.2341 76.0877 12.5805L68.0062 16.3914C67.1464 16.7378 66.8025 17.7772 67.1464 18.6433C67.4903 19.6826 68.522 20.029 69.3818 19.5094Z" fill="#E81B13"/>
<path d="M78.3227 30.9423L69.8972 27.8243C69.0375 27.4779 68.0058 27.9976 67.6619 28.8637C67.318 29.7298 67.8339 30.7691 68.6936 31.1155L77.1191 34.2335C77.9788 34.58 79.0105 34.0603 79.3544 33.1942C79.6983 32.1549 79.3544 31.1155 78.3227 30.9423Z" fill="#E81B13"/>
<path d="M7.56176 35.1765L7.57882 35.1686L7.59568 35.1603L16.7875 30.6413L26.5976 48.8078L16.418 53.8124C10.7814 56.2384 4.7563 53.7714 2.4914 48.8402L2.48693 48.8305L2.48231 48.8208C0.0441297 43.7064 2.30432 37.5996 7.56176 35.1765Z" fill="white" stroke="#4C0788" stroke-width="3"/>
<path d="M41.8699 8.07652C41.698 7.55686 41.1821 7.21042 40.6663 7.03719C40.1504 6.86397 39.6346 7.03719 39.1187 7.38364L15.9058 29.556L26.7385 50.1694L57.8611 47.3978C58.3769 47.3978 58.8927 47.0514 59.0647 46.5317C59.4086 46.0121 59.4086 45.4924 59.0647 44.9727L41.8699 8.07652Z" fill="#4C0788"/>
<path d="M49.2646 15.5249L58.034 34.5793C58.8937 33.54 59.4096 32.5006 59.9254 31.2881C60.9571 28.3433 60.7852 25.2253 59.5815 22.2805C57.6901 18.2964 53.5633 15.5249 49.2646 15.5249Z" fill="#4C0788"/>
</svg>
