<svg width="162" height="161" viewBox="0 0 162 161" fill="none" xmlns="http://www.w3.org/2000/svg">
<path d="M104.059 51.2881C104.059 51.1616 104.059 51.1616 104.059 51.0351V38.3858C104.059 33.3261 99.8818 29.1519 94.8181 29.1519H56.8406C51.7769 29.1519 47.5994 33.3261 47.5994 38.3858V120.986C47.5994 126.045 51.7769 130.219 56.8406 130.219H94.8181C99.8818 130.219 104.059 126.045 104.059 120.986V97.5844V97.4579V51.2881ZM100.895 97.7109V108.083H50.7642V43.319H100.895V51.0351V97.7109Z" fill="#4C0788"/>
<rect x="50.3674" y="42.9966" width="49.8416" height="65.071" fill="white"/>
<path d="M104.059 52.6792H67.4741C64.3093 52.6792 61.6509 55.3355 61.6509 58.4979V83.9229C61.6509 87.0852 64.1827 89.7415 67.4741 89.7415H71.6516C71.7782 89.7415 71.7782 89.868 71.7782 89.868V101.758C71.7782 102.264 72.0314 102.644 72.5378 102.77C72.6644 102.77 72.791 102.897 72.9176 102.897C73.2973 102.897 73.5505 102.77 73.8037 102.517L83.4247 91.3859L84.8172 89.7415H104.059C107.224 89.7415 109.882 87.2117 109.882 83.9229V58.4979C109.756 55.2091 107.224 52.6792 104.059 52.6792ZM87.4756 78.1042H71.6516C71.0187 78.1042 70.5123 77.5982 70.5123 76.9658C70.5123 76.3333 71.0187 75.8274 71.6516 75.8274H87.4756C88.1086 75.8274 88.615 76.3333 88.615 76.9658C88.615 77.5982 88.1086 78.1042 87.4756 78.1042ZM99.8816 71.4001H71.6516C71.0187 71.4001 70.5123 70.8941 70.5123 70.2617C70.5123 69.6292 71.0187 69.1232 71.6516 69.1232H99.8816C100.515 69.1232 101.021 69.6292 101.021 70.2617C101.021 70.8941 100.515 71.4001 99.8816 71.4001ZM99.8816 64.696H71.6516C71.0187 64.696 70.5123 64.19 70.5123 63.5576C70.5123 62.9251 71.0187 62.4191 71.6516 62.4191H99.8816C100.515 62.4191 101.021 62.9251 101.021 63.5576C101.021 64.19 100.515 64.696 99.8816 64.696Z" fill="#4C0788"/>
<path d="M75.7022 125.539C79.2467 125.539 82.0317 122.757 82.0317 119.215C82.0317 115.673 79.2467 112.89 75.7022 112.89C72.1576 112.89 69.3726 115.673 69.3726 119.215C69.3726 122.757 72.2842 125.539 75.7022 125.539ZM75.7022 116.052C77.4744 116.052 78.8669 117.444 78.8669 119.215C78.8669 120.986 77.4744 122.377 75.7022 122.377C73.9299 122.377 72.5374 120.986 72.5374 119.215C72.5374 117.444 74.0565 116.052 75.7022 116.052Z" fill="white"/>
<path d="M76.026 34.4609C76.6553 34.4609 77.1654 33.9513 77.1654 33.3225C77.1654 32.6938 76.6553 32.1841 76.026 32.1841C75.3968 32.1841 74.8867 32.6938 74.8867 33.3225C74.8867 33.9513 75.3968 34.4609 76.026 34.4609Z" fill="white"/>
<path d="M79.9408 36.7324H71.35C70.4657 36.7324 69.834 37.3641 69.834 37.9958C69.834 38.7327 70.592 39.2591 71.35 39.2591H79.9408C80.8251 39.2591 81.4568 38.6274 81.4568 37.9958C81.4568 37.3641 80.8251 36.7324 79.9408 36.7324Z" fill="white"/>
<g filter="url(#filter0_d)">
<path fill-rule="evenodd" clip-rule="evenodd" d="M107.987 59.9773C111.197 59.9773 113.799 57.3754 113.799 54.1659C113.799 50.9563 111.197 48.3545 107.987 48.3545C104.778 48.3545 102.176 50.9563 102.176 54.1659C102.176 57.3754 104.778 59.9773 107.987 59.9773Z" fill="#E81B13"/>
</g>
<path fill-rule="evenodd" clip-rule="evenodd" d="M107.987 55.9348C108.964 55.9348 109.756 55.143 109.756 54.1661C109.756 53.1893 108.964 52.3975 107.987 52.3975C107.01 52.3975 106.219 53.1893 106.219 54.1661C106.219 55.143 107.01 55.9348 107.987 55.9348Z" fill="white"/>
<defs>
<filter id="filter0_d" x="83.1758" y="40.3545" width="49.6228" height="49.6228" filterUnits="userSpaceOnUse" color-interpolation-filters="sRGB">
<feFlood flood-opacity="0" result="BackgroundImageFix"/>
<feColorMatrix in="SourceAlpha" type="matrix" values="0 0 0 0 0 0 0 0 0 0 0 0 0 0 0 0 0 0 127 0"/>
<feOffset dy="11"/>
<feGaussianBlur stdDeviation="9.5"/>
<feColorMatrix type="matrix" values="0 0 0 0 0 0 0 0 0 0 0 0 0 0 0 0 0 0 0.130081 0"/>
<feBlend mode="normal" in2="BackgroundImageFix" result="effect1_dropShadow"/>
<feBlend mode="normal" in="SourceGraphic" in2="effect1_dropShadow" result="shape"/>
</filter>
</defs>
</svg>
