<svg xmlns="http://www.w3.org/2000/svg" viewBox="0 0 363 364" width="363" height="364"><style>tspan { white-space:pre }.shp0 { fill: #e7e1ef } .shp1 { fill: #4c0788;stroke: #4c0788;stroke-width: 2 } .shp2 { fill: #e81b13 } .shp3 { fill: #ffffff;stroke: #4c0788;stroke-width: 2 } .shp4 { fill: #4c0788 } .shp5 { fill: #8464ac } .shp6 { fill: #ffffff } .shp7 { fill: #b28b67 } .shp8 { fill: #c5cfd6 } .shp9 { fill: #cecece } .shp10 { fill: #494949 } .shp11 { fill: #ededed } .shp12 { fill: #2d2d2d } .shp13 { fill: #191847 } .shp14 { fill: #cfc2df } .shp15 { fill: #323337 } .shp16 { fill: #dde3e9 } .shp17 { fill: none;stroke: #4c0788 } </style><path class="shp0" d="M363 262L256 262L256 318L363 318L363 262Z" /><path class="shp1" d="M274.99 304.89L274.98 304.88L274.98 304.87L272.76 300.2C273.09 300.09 273.42 299.96 273.71 299.84C274.3 299.6 274.89 299.33 275.33 299.12C275.47 299.05 275.6 298.99 275.7 298.95L275.7 298.94L278.31 297.76L280.47 302.33C281.12 303.93 280.45 305.67 278.99 306.38C277.36 307.09 275.63 306.31 274.99 304.89Z" /><path class="shp2" d="M298.03 270.56C297.6 270.38 297.08 270.64 296.91 271.07L295.45 275.23C295.28 275.67 295.54 276.19 295.96 276.36C296.39 276.53 296.91 276.27 297.08 275.84L298.63 271.59C298.72 271.16 298.46 270.73 298.03 270.56Z" /><path class="shp2" d="M300.69 281.25L304.73 279.35C305.16 279.18 305.33 278.66 305.16 278.22C304.99 277.79 304.48 277.62 304.05 277.79L300 279.7C299.57 279.87 299.4 280.39 299.57 280.82C299.75 281.34 300.26 281.51 300.69 281.25Z" /><path class="shp2" d="M305.16 286.97L300.95 285.41C300.52 285.24 300 285.5 299.83 285.93C299.66 286.37 299.92 286.88 300.35 287.06L304.56 288.62C304.99 288.79 305.51 288.53 305.68 288.1C305.85 287.58 305.68 287.06 305.16 286.97Z" /><path class="shp3" d="M269.89 289.32L269.9 289.31L269.91 289.31L274.29 287.15L278.96 295.8L274.11 298.18C271.41 299.34 268.55 298.15 267.48 295.82L267.47 295.81L267.47 295.8C266.31 293.38 267.38 290.47 269.89 289.32Z" /><path class="shp4" d="M286.94 275.54C286.85 275.28 286.59 275.11 286.33 275.02C286.08 274.93 285.82 275.02 285.56 275.19L273.95 286.28L279.37 296.58L294.93 295.2C295.19 295.2 295.45 295.03 295.53 294.77C295.71 294.51 295.71 294.25 295.53 293.99L286.94 275.54Z" /><path class="shp4" d="M290.63 279.26L295.02 288.79C295.45 288.27 295.71 287.75 295.96 287.14C296.48 285.67 296.39 284.11 295.79 282.64C294.85 280.65 292.78 279.26 290.63 279.26Z" /><path class="shp5" d="M264.27 289.7C264.27 293.84 260.91 297.2 256.77 297.2C253.42 297.2 250.58 295 249.62 291.96L209.27 291.88C208.17 291.88 207.27 290.99 207.27 289.88L207.15 92.36C207.15 91.26 208.04 90.36 209.15 90.36C209.7 90.36 210.2 90.58 210.56 90.94C210.93 91.3 211.15 91.8 211.15 92.36L211.27 287.88L249.48 287.96C250.26 284.66 253.23 282.2 256.77 282.2C260.91 282.2 264.27 285.56 264.27 289.7Z" /><path fill-rule="evenodd" class="shp4" d="M308.01 287.88C308.09 287.88 308.16 287.88 308.22 287.89C308.27 287.9 308.32 287.91 308.37 287.93C308.41 287.95 308.46 287.98 308.5 288.02C308.54 288.06 308.59 288.11 308.64 288.18L313.95 294.95C313.93 294.79 313.92 294.63 313.91 294.47C313.9 294.31 313.9 294.17 313.9 294.03L313.9 287.88L315.56 287.88L315.56 298L314.59 298C314.44 298 314.32 297.98 314.22 297.93C314.12 297.88 314.02 297.8 313.93 297.68L308.64 290.94C308.65 291.09 308.66 291.24 308.67 291.38C308.68 291.53 308.68 291.66 308.68 291.78L308.68 298L307.02 298L307.02 287.88L308.01 287.88ZM327.31 292.94C327.31 293.68 327.19 294.37 326.94 295C326.69 295.63 326.35 296.18 325.9 296.64C325.45 297.1 324.91 297.47 324.28 297.73C323.65 297.98 322.95 298.11 322.19 298.11C321.42 298.11 320.72 297.98 320.09 297.73C319.46 297.47 318.92 297.1 318.46 296.64C318.02 296.18 317.67 295.63 317.42 295C317.18 294.37 317.05 293.68 317.05 292.94C317.05 292.2 317.18 291.51 317.42 290.88C317.67 290.25 318.02 289.7 318.46 289.24C318.92 288.77 319.46 288.42 320.09 288.16C320.72 287.9 321.42 287.77 322.19 287.77C322.95 287.77 323.65 287.9 324.28 288.16C324.91 288.42 325.45 288.78 325.9 289.24C326.35 289.7 326.69 290.25 326.94 290.88C327.19 291.51 327.31 292.2 327.31 292.94ZM325.38 292.94C325.38 292.38 325.31 291.89 325.16 291.45C325.01 291 324.8 290.63 324.53 290.32C324.25 290.01 323.92 289.78 323.52 289.61C323.13 289.45 322.68 289.37 322.19 289.37C321.69 289.37 321.25 289.45 320.85 289.61C320.45 289.78 320.12 290.01 319.84 290.32C319.56 290.63 319.35 291 319.2 291.45C319.05 291.89 318.98 292.38 318.98 292.94C318.98 293.49 319.05 293.99 319.2 294.44C319.35 294.88 319.56 295.25 319.84 295.56C320.12 295.86 320.45 296.09 320.85 296.26C321.25 296.42 321.69 296.5 322.19 296.5C322.68 296.5 323.13 296.42 323.52 296.26C323.92 296.09 324.25 295.86 324.53 295.56C324.8 295.25 325.01 294.88 325.16 294.44C325.31 293.99 325.38 293.49 325.38 292.94ZM333.88 293.8C333.96 293.95 334.04 294.11 334.1 294.27C334.17 294.43 334.24 294.59 334.3 294.75C334.37 294.58 334.44 294.42 334.51 294.25C334.58 294.09 334.65 293.94 334.73 293.79L337.73 288.18C337.76 288.11 337.8 288.05 337.84 288.01C337.88 287.97 337.93 287.94 337.97 287.92C338.02 287.9 338.08 287.89 338.14 287.88C338.2 287.88 338.27 287.88 338.36 287.88L339.78 287.88L339.78 298L338.12 298L338.12 291.46C338.12 291.34 338.12 291.21 338.13 291.06C338.13 290.92 338.15 290.77 338.16 290.62L335.1 296.36C335.03 296.49 334.94 296.6 334.83 296.67C334.72 296.74 334.59 296.77 334.44 296.77L334.18 296.77C334.03 296.77 333.9 296.74 333.79 296.67C333.67 296.6 333.58 296.49 333.51 296.36L330.41 290.6C330.43 290.75 330.44 290.91 330.45 291.06C330.46 291.2 330.46 291.34 330.46 291.46L330.46 298L328.8 298L328.8 287.88L330.22 287.88C330.31 287.88 330.38 287.88 330.44 287.88C330.5 287.89 330.55 287.9 330.6 287.92C330.65 287.94 330.7 287.97 330.74 288.01C330.78 288.05 330.82 288.11 330.86 288.18L333.88 293.8ZM348.2 287.88L348.2 289.38L343.71 289.38L343.71 292.18L347.25 292.18L347.25 293.63L343.71 293.63L343.71 296.5L348.2 296.5L348.2 298L341.82 298L341.82 287.88L348.2 287.88Z" /><path class="shp0" d="M363 195L256 195L256 251L363 251L363 195Z" /><path class="shp5" d="M264.27 222.7C264.27 226.84 260.91 230.2 256.77 230.2C253.42 230.2 250.58 228 249.62 224.96L223.27 224.88C222.17 224.88 221.27 223.99 221.27 222.88L221.15 95.36C221.15 94.26 222.04 93.36 223.15 93.36C223.7 93.36 224.2 93.58 224.56 93.94C224.93 94.3 225.15 94.8 225.15 95.36L225.27 220.89L249.48 220.96C250.26 217.66 253.23 215.2 256.77 215.2C260.91 215.2 264.27 218.56 264.27 222.7Z" /><path class="shp6" d="M294.61 208.35L275.08 208.35L275.08 233.49L294.61 233.49L294.61 208.35Z" /><path fill-rule="evenodd" class="shp4" d="M295.86 238.54C295.86 240.49 294.24 242.11 292.28 242.11L277.58 242.11C275.62 242.11 274 240.5 274 238.54L274 206.57C274 204.62 275.62 203 277.58 203L292.28 203C294.24 203 295.86 204.61 295.86 206.57C295.86 206.62 295.86 238.49 295.86 238.54ZM294.64 208.48L275.24 208.48L275.24 233.55L294.64 233.55L294.64 208.48Z" /><path fill-rule="evenodd" class="shp4" d="M298.11 214.35L298.11 224.19C298.11 225.46 297.09 226.44 295.86 226.44L288.41 226.44L287.87 227.08L284.15 231.39C284.05 231.49 283.96 231.54 283.81 231.54C283.76 231.54 283.71 231.49 283.66 231.49C283.47 231.44 283.37 231.3 283.37 231.1L283.37 226.5C283.37 226.5 283.37 226.45 283.32 226.45L281.7 226.45C280.43 226.45 279.45 225.42 279.45 224.2L279.45 214.36C279.45 213.14 280.48 212.11 281.7 212.11L295.86 212.11C297.09 212.11 298.07 213.09 298.11 214.35ZM289.88 221.51C289.88 221.27 289.68 221.07 289.44 221.07L283.32 221.07C283.08 221.07 282.88 221.27 282.88 221.51C282.88 221.75 283.08 221.95 283.32 221.95L289.44 221.95C289.69 221.95 289.88 221.75 289.88 221.51ZM294.69 218.91C294.69 218.67 294.49 218.47 294.25 218.47L283.32 218.47C283.08 218.47 282.88 218.67 282.88 218.91C282.88 219.15 283.08 219.35 283.32 219.35L294.25 219.35C294.49 219.35 294.69 219.16 294.69 218.91ZM294.69 216.32C294.69 216.08 294.49 215.88 294.25 215.88L283.32 215.88C283.08 215.88 282.88 216.08 282.88 216.32C282.88 216.56 283.08 216.76 283.32 216.76L294.25 216.76C294.49 216.76 294.69 216.56 294.69 216.32Z" /><path fill-rule="evenodd" class="shp6" d="M282.44 237.86C282.44 236.49 283.52 235.41 284.89 235.41C286.26 235.41 287.34 236.49 287.34 237.86C287.34 239.23 286.26 240.31 284.89 240.31C283.56 240.31 282.44 239.23 282.44 237.86ZM283.67 237.86C283.67 238.54 284.2 239.08 284.89 239.08C285.58 239.08 286.12 238.55 286.12 237.86C286.12 237.18 285.58 236.64 284.89 236.64C284.25 236.64 283.66 237.17 283.67 237.86Z" /><path class="shp6" d="M285.01 205.05C285.25 205.05 285.45 204.85 285.45 204.61C285.45 204.37 285.25 204.17 285.01 204.17C284.77 204.17 284.57 204.37 284.57 204.61C284.57 204.86 284.77 205.05 285.01 205.05Z" /><path class="shp6" d="M286.53 205.93L283.2 205.93C282.86 205.93 282.61 206.17 282.61 206.42C282.61 206.71 282.9 206.91 283.2 206.91L286.53 206.91C286.87 206.91 287.12 206.67 287.12 206.42C287.12 206.17 286.87 205.93 286.53 205.93Z" /><path fill-rule="evenodd" class="shp2" d="M297.38 214.93C298.62 214.93 299.63 213.92 299.63 212.68C299.63 211.44 298.62 210.43 297.38 210.43C296.14 210.43 295.13 211.44 295.13 212.68C295.13 213.92 296.14 214.93 297.38 214.93Z" /><path fill-rule="evenodd" class="shp6" d="M297.38 213.37C297.76 213.37 298.06 213.06 298.06 212.69C298.06 212.31 297.75 212.01 297.38 212.01C297 212.01 296.7 212.32 296.7 212.69C296.7 213.06 297.01 213.37 297.38 213.37Z" /><path class="shp4" d="M312.45 219.72C312.4 219.82 312.33 219.89 312.26 219.94C312.2 219.98 312.12 220 312.03 220C311.93 220 311.83 219.96 311.71 219.89C311.6 219.82 311.46 219.74 311.3 219.65C311.14 219.56 310.95 219.48 310.74 219.41C310.53 219.34 310.28 219.3 309.99 219.3C309.73 219.3 309.5 219.33 309.3 219.4C309.11 219.46 308.95 219.54 308.81 219.66C308.68 219.77 308.58 219.9 308.52 220.06C308.45 220.22 308.42 220.39 308.42 220.57C308.42 220.81 308.49 221.01 308.62 221.17C308.75 221.33 308.93 221.46 309.15 221.57C309.37 221.69 309.62 221.79 309.9 221.88C310.18 221.96 310.46 222.06 310.75 222.16C311.05 222.26 311.33 222.38 311.61 222.51C311.89 222.64 312.14 222.81 312.36 223.02C312.58 223.22 312.76 223.46 312.89 223.76C313.02 224.05 313.09 224.41 313.09 224.83C313.09 225.29 313.01 225.72 312.85 226.12C312.7 226.51 312.47 226.86 312.17 227.16C311.87 227.45 311.5 227.69 311.07 227.86C310.63 228.03 310.14 228.11 309.58 228.11C309.25 228.11 308.94 228.08 308.63 228.01C308.31 227.95 308.01 227.87 307.72 227.75C307.44 227.63 307.17 227.49 306.92 227.33C306.67 227.16 306.45 226.98 306.25 226.78L306.8 225.88C306.85 225.81 306.91 225.76 306.98 225.72C307.06 225.67 307.14 225.65 307.23 225.65C307.34 225.65 307.47 225.7 307.6 225.79C307.74 225.89 307.9 225.99 308.08 226.11C308.27 226.23 308.48 226.33 308.73 226.43C308.98 226.53 309.28 226.57 309.63 226.57C310.17 226.57 310.58 226.45 310.88 226.19C311.17 225.94 311.32 225.57 311.32 225.09C311.32 224.83 311.25 224.61 311.12 224.44C310.99 224.28 310.81 224.14 310.59 224.02C310.37 223.91 310.12 223.81 309.84 223.73C309.56 223.65 309.28 223.56 308.99 223.47C308.7 223.38 308.42 223.27 308.13 223.13C307.86 223 307.61 222.83 307.39 222.62C307.17 222.41 306.99 222.15 306.85 221.84C306.72 221.52 306.66 221.13 306.66 220.67C306.66 220.3 306.73 219.94 306.88 219.59C307.02 219.24 307.24 218.93 307.52 218.66C307.8 218.39 308.15 218.17 308.56 218.01C308.97 217.85 309.44 217.77 309.97 217.77C310.57 217.77 311.12 217.86 311.62 218.05C312.13 218.23 312.55 218.49 312.91 218.83L312.45 219.72ZM319.61 223.8C319.69 223.95 319.76 224.11 319.83 224.27C319.9 224.43 319.96 224.59 320.03 224.75C320.1 224.58 320.16 224.42 320.23 224.25C320.3 224.09 320.38 223.94 320.46 223.79L323.45 218.18C323.49 218.11 323.53 218.05 323.56 218.01C323.61 217.97 323.65 217.94 323.7 217.92C323.75 217.9 323.81 217.89 323.87 217.88C323.93 217.88 324 217.88 324.08 217.88L325.5 217.88L325.5 228L323.85 228L323.85 221.46C323.85 221.34 323.85 221.21 323.85 221.06C323.86 220.92 323.87 220.77 323.89 220.62L320.83 226.36C320.76 226.49 320.67 226.59 320.56 226.67C320.44 226.74 320.31 226.78 320.16 226.78L319.9 226.78C319.75 226.78 319.62 226.74 319.51 226.67C319.4 226.59 319.31 226.49 319.24 226.36L316.14 220.6C316.16 220.75 316.17 220.91 316.17 221.06C316.18 221.2 316.19 221.34 316.19 221.46L316.19 228L314.53 228L314.53 217.88L315.95 217.88C316.03 217.88 316.11 217.88 316.17 217.88C316.23 217.89 316.28 217.9 316.33 217.92C316.38 217.94 316.43 217.97 316.47 218.01C316.51 218.05 316.55 218.11 316.59 218.18L319.61 223.8ZM332.97 219.72C332.92 219.82 332.86 219.89 332.79 219.94C332.72 219.98 332.64 220 332.55 220C332.45 220 332.35 219.96 332.23 219.89C332.12 219.82 331.98 219.74 331.82 219.65C331.66 219.56 331.48 219.48 331.26 219.41C331.05 219.34 330.8 219.3 330.51 219.3C330.25 219.3 330.02 219.33 329.82 219.4C329.63 219.46 329.47 219.54 329.33 219.66C329.2 219.77 329.11 219.9 329.04 220.06C328.98 220.22 328.94 220.39 328.94 220.57C328.94 220.81 329.01 221.01 329.14 221.17C329.27 221.33 329.45 221.46 329.67 221.57C329.89 221.69 330.14 221.79 330.42 221.88C330.7 221.96 330.99 222.06 331.27 222.16C331.57 222.26 331.86 222.38 332.13 222.51C332.42 222.64 332.67 222.81 332.88 223.02C333.1 223.22 333.28 223.46 333.41 223.76C333.55 224.05 333.61 224.41 333.61 224.83C333.61 225.29 333.53 225.72 333.37 226.12C333.22 226.51 332.99 226.86 332.69 227.16C332.39 227.45 332.02 227.69 331.59 227.86C331.15 228.03 330.66 228.11 330.1 228.11C329.78 228.11 329.46 228.08 329.15 228.01C328.83 227.95 328.53 227.87 328.24 227.75C327.96 227.63 327.69 227.49 327.44 227.33C327.19 227.16 326.97 226.98 326.77 226.78L327.32 225.88C327.37 225.81 327.43 225.76 327.5 225.72C327.58 225.67 327.66 225.65 327.75 225.65C327.86 225.65 327.99 225.7 328.12 225.79C328.26 225.89 328.42 225.99 328.6 226.11C328.79 226.23 329 226.33 329.25 226.43C329.5 226.53 329.8 226.57 330.15 226.57C330.69 226.57 331.11 226.45 331.4 226.19C331.69 225.94 331.84 225.57 331.84 225.09C331.84 224.83 331.77 224.61 331.64 224.44C331.51 224.28 331.33 224.14 331.11 224.02C330.89 223.91 330.64 223.81 330.36 223.73C330.08 223.65 329.8 223.56 329.51 223.47C329.22 223.38 328.94 223.27 328.66 223.13C328.38 223 328.13 222.83 327.91 222.62C327.69 222.41 327.51 222.15 327.38 221.84C327.25 221.52 327.18 221.13 327.18 220.67C327.18 220.3 327.25 219.94 327.4 219.59C327.55 219.24 327.76 218.93 328.04 218.66C328.32 218.39 328.67 218.17 329.08 218.01C329.49 217.85 329.96 217.77 330.49 217.77C331.09 217.77 331.64 217.86 332.14 218.05C332.65 218.23 333.08 218.49 333.43 218.83L332.97 219.72Z" /><path class="shp4" d="M248.92 2.17C246.54 1.93 244.23 2.94 242.78 4.84C238.89 9.99 236.4 19.18 226.13 19.25C215.13 19.32 215.53 9.82 212.78 3.98C211.77 1.82 209.69 0.36 207.33 0.11L206.25 0L202.8 31.03L201 48.48L202.08 48.59C204.46 48.84 206.52 50.3 207.53 52.46C210.29 58.29 209.95 68.84 220.88 69.97C231.81 71.11 233.64 58.46 237.54 53.32C238.97 51.42 241.3 50.41 243.67 50.65L244.75 50.76L246.56 35.55L250 2.27L248.92 2.17Z" /><path fill-rule="evenodd" class="shp7" d="M193.53 267.04C193.53 267.04 195.51 252.64 194.68 243.16C190.62 225.3 195.27 202.18 199.5 202.46C203.48 202.72 202.35 210.78 202.43 214.33C206.05 211.71 215.32 205.39 222.41 195.9C227.25 189.42 231.2 190.94 231.49 194.78C230.8 201.19 231.54 201.71 229.22 211.96C227.69 218.74 218.48 231.01 215.74 240.23L215.49 259.12L193.53 267.04Z" /><path fill-rule="evenodd" class="shp8" d="M104.99 189.88C109.96 179.04 123.54 173.5 123.54 173.5C127.47 216.76 142.35 281.14 156.27 289.9C163.82 294.65 174.63 270.46 191.55 234.1L219.81 239.68C212.43 283.06 203.25 341.2 164.19 351.1C139.51 357.35 102.75 326.68 92.67 283.48C88.87 267.2 88.95 256.84 89.67 232.72C89.98 222.47 100.02 200.72 104.99 189.88Z" /><path class="shp9" d="M227.87 186.22C227.87 186.22 228.08 186.91 228.23 188.36C227.91 189.73 214.84 234.17 214.84 234.17C214.84 234.17 214.68 234.91 213.98 235.24C213.22 235.59 212.34 235.38 212.34 235.38C212.34 235.38 191.06 231.66 189.28 231.25C188.17 230.08 188.09 228.48 188.09 228.48L202.76 183.11L227.87 186.22Z" /><path class="shp10" d="M203.99 181.76C204.25 181.79 227.19 185.34 227.53 185.42C227.87 185.49 228.04 186.2 227.75 187.17C227.25 188.84 214.54 232.59 214.45 232.89C214.24 233.54 213.45 234.2 212.44 234.03C212.14 233.98 189.93 230.09 189.44 230.04C188.6 229.95 187.91 228.85 188.08 228.24C188.34 227.34 202.62 183.56 202.85 182.81C203.08 182.04 203.73 181.73 203.99 181.76Z" /><path class="shp11" d="M203.44 185.52L225.43 188.86L214.23 227.21L191.28 223.32L203.44 185.52Z" /><path class="shp12" d="M213.56 185.31C213.53 185.51 213.66 185.69 213.85 185.73C214.05 185.76 214.23 185.63 214.27 185.44C214.3 185.24 214.17 185.06 213.98 185.02C213.78 184.98 213.59 185.11 213.56 185.31Z" /><path class="shp12" d="M198.87 227.81C198.76 228.43 199.49 229.08 200.51 229.25C201.52 229.43 202.43 229.07 202.54 228.45C202.65 227.83 201.92 227.18 200.9 227.01C199.89 226.83 198.98 227.19 198.87 227.81Z" /><path fill-rule="evenodd" class="shp7" d="M89.45 135.66C90.21 131.68 96.02 128.36 102.45 130.78C110.82 133.93 112.08 142.39 113.7 155.93L117.21 184.42C117.21 184.42 115.43 205.02 99.5 205.67C78.58 206.53 79.68 181.18 79.68 181.18L89.45 135.66Z" /><path fill-rule="evenodd" class="shp7" d="M89.45 135.66C80.49 126.28 73.4 110.65 74.48 95.22C77.6 50.76 139.49 60.54 151.53 82.98C163.57 105.42 162.14 162.34 146.58 166.36C140.37 167.96 127.16 164.04 113.7 155.93C113.7 155.93 98.41 145.05 89.45 135.66Z" /><path fill-rule="evenodd" class="shp13" d="M159.89 140.78C157.74 143.79 147.28 146.69 147.28 151.35C147.28 156.01 155.54 152.4 155.54 155.17C155.54 159.74 157 168.35 149.06 168.35C141.02 168.35 117.98 165.42 114.03 153.49C113.03 150.45 112.16 146.12 111.44 140.49L128.45 156.95C128.53 157.02 128.62 157.06 128.71 157.07C128.87 157.1 129.04 157.05 129.16 156.92C129.35 156.71 129.33 156.4 129.13 156.21L111.24 138.9C110.23 130.48 109.52 119.39 109.09 105.64C108.6 105.59 108.11 105.56 107.61 105.56C100.72 105.56 95.14 111.14 95.14 118.02C95.14 121.52 96.58 124.68 98.89 126.94L98.89 126.95C98.69 127.22 98.5 127.49 98.3 127.77C95.57 131.58 92.53 135.57 89.07 139.65C75.16 131.31 63.64 106.83 77.25 83.35C81.01 71.85 90.71 65.74 100.76 62.89C108.91 59.48 117.36 59.1 124.5 61.14C138.49 62.34 150.98 66.6 154.53 69.14C154.53 82.38 151.96 86.31 130.04 85.97C124.65 88.81 120.51 93.71 116.2 100.13C118.11 126.72 123.15 140.01 131.34 140.01C143.63 140.01 154.05 132.22 159.44 132.22C163.37 132.22 162.49 137.13 159.89 140.78Z" /><path class="shp14" d="M136.3 140.01C136.19 140.1 136.06 140.14 135.93 140.12C135.8 140.11 135.68 140.05 135.6 139.95L109.22 105.52L110.48 105.52L136.35 139.3C136.53 139.51 136.51 139.83 136.3 140.01Z" /><path class="shp14" d="M129.16 156.92C129.04 157.05 128.87 157.1 128.71 157.07C128.62 157.06 128.53 157.02 128.45 156.95L111.44 140.49L98.3 127.77C98.5 127.49 98.69 127.22 98.89 126.95L111.24 138.9L129.13 156.21C129.33 156.4 129.35 156.71 129.16 156.92Z" /><path class="shp14" d="M135.8 138.92L159.82 130.82C159.82 130.82 162.63 131.76 162.52 135.43C162.28 142.97 158.78 157 157.04 162.73C155.21 168.75 151.48 169.08 148.97 169.58C145.21 170.33 138.26 169.09 135.88 168.53C133.5 167.97 124.88 164.22 124.88 164.22L129.59 153.3L135.8 138.92Z" /><path fill-rule="evenodd" class="shp15" d="M171.61 363.96L25.95 363.96C35.6 284.81 54.7 226.51 90.98 174.9C106.38 177.07 117.16 176.61 123.31 173.5C123.31 225.79 142.6 290.33 171.61 363.96Z" /><path fill-rule="evenodd" class="shp16" d="M112.71 363.96L0 363.96C7.09 342.23 13.52 323.8 18.35 310.6C26.14 289.3 36.3 264.45 45.97 241.69C62.15 203.59 76.95 171.33 76.95 171.33C77.15 170.88 77.35 170.42 77.54 169.96L97.94 169.96C99.95 181.79 104.13 267.84 112.71 363.96Z" /><path fill-rule="evenodd" class="shp8" d="M94.31 363.96L0 363.96C7.09 342.23 13.52 323.8 18.35 310.6C26.14 289.3 36.3 264.45 45.97 241.69C45.97 241.69 94.71 232.64 94.71 245.98C94.71 251.92 94.53 297.1 94.31 363.96Z" /><path fill-rule="evenodd" class="shp7" d="M149.13 286.8L125.45 277.08C147 233.15 137.42 253.73 139.39 248.92C143.83 238.09 147.06 230.02 151.21 216.48C152.83 213.6 155.17 207.12 157.87 203.7C166.42 198.72 169.64 197.23 174.09 195.66C175.92 195.02 189.09 192.17 193.06 192.81C197.56 193.53 193.33 198.48 188.92 199.29C185.02 200.01 184.23 199.84 178.39 202.71C174.31 204.71 172.46 206.21 172.99 206.58C180.91 212.07 185.41 219.54 183.5 225.11C182.26 229.08 180.5 233.79 178.21 236.73C175.69 239.97 172.99 238.53 172.18 239.88C169.01 245.16 165.23 250.92 163.79 253.79C160.05 261.27 159.78 264.7 149.13 286.8Z" /><path fill-rule="evenodd" class="shp16" d="M90.35 177.16C95.77 181.46 97.72 195.89 97.23 206.2C95.83 235.66 92.19 255.16 90.75 292.06C108.93 272.62 117.03 261.28 138.99 238.78L173.01 254.8C141.15 314.2 131.72 370.32 70.59 362.98C39.09 359.2 31.8 303.6 32.61 286.84C34.59 245.98 42.69 185.68 74.99 173.56C75.19 173.1 83.39 171.64 90.35 177.16Z" /><g ><path class="shp4" d="M193 84L292 84C298.08 84 303 88.92 303 95L303 95C303 101.08 298.08 106 292 106L193 106C186.92 106 182 101.08 182 95L182 95C182 88.92 186.92 84 193 84Z" /><path class="shp17" d="M193 84L292 84C298.08 84 303 88.92 303 95L303 95C303 101.08 298.08 106 292 106L193 106C186.92 106 182 101.08 182 95L182 95C182 88.92 186.92 84 193 84Z" /></g><path fill-rule="evenodd" class="shp6" d="M294.09 96.87C293.91 97.04 293.63 97.04 293.45 96.87C293.27 96.7 293.27 96.42 293.45 96.25L295.29 94.47L288.19 94.47C287.94 94.47 287.75 94.27 287.75 94.03C287.75 93.78 287.94 93.59 288.19 93.59L295.32 93.59L293.46 91.79C293.29 91.62 293.29 91.34 293.46 91.17C293.64 91 293.93 91 294.11 91.17L296.55 93.53C296.59 93.57 296.62 93.62 296.64 93.67C296.75 93.75 296.82 93.88 296.82 94.03C296.82 94.18 296.74 94.32 296.62 94.4C296.6 94.43 296.57 94.46 296.55 94.49L294.09 96.87Z" /><path fill-rule="evenodd" class="shp6" d="M191.61 90.51C192.16 90.51 192.64 90.57 193.05 90.7C193.46 90.83 193.8 91.01 194.06 91.25C194.33 91.48 194.53 91.76 194.66 92.09C194.79 92.42 194.86 92.79 194.86 93.2C194.86 93.6 194.79 93.97 194.65 94.31C194.51 94.65 194.3 94.94 194.03 95.18C193.76 95.43 193.42 95.62 193.01 95.75C192.6 95.88 192.14 95.95 191.61 95.95L190.28 95.95L190.28 99.12L189 99.12L189 90.51L191.61 90.51ZM191.61 94.94C191.93 94.94 192.22 94.9 192.46 94.82C192.71 94.73 192.92 94.61 193.08 94.46C193.25 94.31 193.37 94.12 193.46 93.91C193.54 93.69 193.58 93.46 193.58 93.2C193.58 92.67 193.42 92.26 193.09 91.96C192.77 91.66 192.27 91.51 191.61 91.51L190.28 91.51L190.28 94.94L191.61 94.94Z" /><path fill-rule="evenodd" class="shp6" d="M203.03 99.12L201.89 99.12C201.66 99.12 201.49 99.03 201.39 98.85L199.26 95.87C199.19 95.77 199.12 95.7 199.04 95.66C198.96 95.61 198.84 95.59 198.68 95.59L197.84 95.59L197.84 99.12L196.57 99.12L196.57 90.51L199.05 90.51C199.61 90.51 200.08 90.57 200.48 90.68C200.89 90.79 201.22 90.96 201.48 91.17C201.74 91.38 201.94 91.63 202.06 91.92C202.19 92.22 202.25 92.55 202.25 92.92C202.25 93.22 202.21 93.5 202.12 93.77C202.02 94.03 201.89 94.27 201.71 94.48C201.53 94.69 201.32 94.87 201.06 95.02C200.8 95.17 200.51 95.29 200.19 95.37C200.35 95.46 200.49 95.6 200.6 95.77L203.03 99.12ZM199.01 94.66C199.34 94.66 199.62 94.62 199.87 94.54C200.12 94.46 200.33 94.35 200.5 94.2C200.67 94.06 200.8 93.88 200.88 93.68C200.96 93.48 201.01 93.25 201.01 93.01C201.01 92.51 200.84 92.14 200.51 91.89C200.19 91.64 199.7 91.51 199.05 91.51L197.84 91.51L197.84 94.66L199.01 94.66Z" /><path fill-rule="evenodd" class="shp6" d="M212.37 94.82C212.37 95.46 212.27 96.05 212.06 96.59C211.85 97.13 211.56 97.59 211.19 97.98C210.81 98.37 210.36 98.67 209.84 98.89C209.31 99.11 208.73 99.21 208.09 99.21C207.46 99.21 206.87 99.11 206.35 98.89C205.82 98.67 205.37 98.37 205 97.98C204.62 97.59 204.33 97.13 204.13 96.59C203.92 96.05 203.81 95.46 203.81 94.82C203.81 94.18 203.92 93.59 204.13 93.05C204.33 92.51 204.62 92.04 205 91.65C205.37 91.26 205.82 90.96 206.35 90.74C206.87 90.52 207.46 90.41 208.09 90.41C208.73 90.41 209.31 90.52 209.84 90.74C210.36 90.96 210.81 91.26 211.19 91.65C211.56 92.04 211.85 92.51 212.06 93.05C212.27 93.59 212.37 94.18 212.37 94.82ZM211.06 94.82C211.06 94.3 210.99 93.84 210.85 93.44C210.71 93.03 210.51 92.68 210.25 92.4C210 92.11 209.68 91.9 209.32 91.74C208.95 91.59 208.54 91.52 208.09 91.52C207.64 91.52 207.23 91.59 206.86 91.74C206.5 91.9 206.19 92.11 205.93 92.4C205.67 92.68 205.47 93.03 205.33 93.44C205.19 93.84 205.12 94.3 205.12 94.82C205.12 95.33 205.19 95.79 205.33 96.2C205.47 96.61 205.67 96.95 205.93 97.23C206.19 97.52 206.5 97.74 206.86 97.89C207.23 98.04 207.64 98.11 208.09 98.11C208.54 98.11 208.95 98.04 209.32 97.89C209.68 97.74 210 97.52 210.25 97.23C210.51 96.95 210.71 96.61 210.85 96.2C210.99 95.79 211.06 95.33 211.06 94.82ZM210.44 88L208.48 89.72C208.41 89.77 208.35 89.81 208.3 89.82C208.24 89.84 208.17 89.85 208.07 89.85L207.23 89.85L208.58 88.2C208.62 88.16 208.65 88.12 208.69 88.1C208.72 88.07 208.76 88.05 208.8 88.04C208.84 88.02 208.89 88.01 208.94 88.01C208.99 88 209.05 88 209.12 88L210.44 88Z" /><path class="shp6" d="M220.63 99.12L219.37 99.12C219.27 99.12 219.2 99.1 219.14 99.05C219.09 99 219.04 98.95 219.01 98.89L216.78 95.34C216.75 95.44 216.72 95.53 216.67 95.6L214.5 98.89C214.47 98.95 214.42 99 214.37 99.05C214.31 99.1 214.25 99.12 214.17 99.12L212.97 99.12L215.92 94.69L213.1 90.51L214.37 90.51C214.46 90.51 214.53 90.52 214.57 90.55C214.62 90.58 214.65 90.62 214.69 90.68L216.86 94.05C216.9 93.95 216.94 93.85 217 93.77L219.03 90.7C219.07 90.64 219.11 90.59 219.16 90.56C219.2 90.52 219.25 90.51 219.32 90.51L220.54 90.51L217.7 94.64L220.63 99.12Z" /><path class="shp6" d="M223.38 99.12L222.1 99.12L222.1 90.51L223.38 90.51L223.38 99.12Z" /><path class="shp6" d="M234.87 90.51L234.87 99.12L233.75 99.12L233.75 92.99C233.75 92.9 233.75 92.8 233.76 92.7C233.77 92.59 233.78 92.49 233.78 92.38L230.91 97.64C230.81 97.84 230.66 97.94 230.45 97.94L230.27 97.94C230.06 97.94 229.91 97.84 229.82 97.64L226.9 92.36C226.92 92.59 226.93 92.8 226.93 92.99L226.93 99.12L225.81 99.12L225.81 90.51L226.76 90.51C226.87 90.51 226.96 90.52 227.01 90.54C227.08 90.56 227.14 90.62 227.19 90.72L230.07 95.88C230.13 95.99 230.18 96.1 230.23 96.21C230.28 96.33 230.32 96.45 230.37 96.56C230.45 96.33 230.55 96.1 230.66 95.88L233.49 90.72C233.54 90.62 233.6 90.56 233.66 90.54C233.72 90.52 233.81 90.51 233.92 90.51L234.87 90.51Z" /><path fill-rule="evenodd" class="shp6" d="M245.33 94.82C245.33 95.46 245.22 96.05 245.02 96.59C244.81 97.13 244.52 97.59 244.15 97.98C243.77 98.37 243.32 98.67 242.8 98.89C242.27 99.11 241.69 99.21 241.05 99.21C240.41 99.21 239.83 99.11 239.3 98.89C238.78 98.67 238.33 98.37 237.95 97.98C237.58 97.59 237.29 97.13 237.08 96.59C236.88 96.05 236.77 95.46 236.77 94.82C236.77 94.18 236.88 93.59 237.08 93.05C237.29 92.51 237.58 92.04 237.95 91.65C238.33 91.26 238.78 90.96 239.3 90.74C239.83 90.52 240.41 90.41 241.05 90.41C241.69 90.41 242.27 90.52 242.8 90.74C243.32 90.96 243.77 91.26 244.15 91.65C244.52 92.04 244.81 92.51 245.02 93.05C245.22 93.59 245.33 94.18 245.33 94.82ZM244.02 94.82C244.02 94.3 243.95 93.84 243.81 93.44C243.67 93.03 243.47 92.68 243.21 92.4C242.95 92.11 242.64 91.9 242.27 91.74C241.91 91.59 241.5 91.52 241.05 91.52C240.6 91.52 240.19 91.59 239.82 91.74C239.46 91.9 239.14 92.11 238.88 92.4C238.62 92.68 238.42 93.03 238.28 93.44C238.14 93.84 238.07 94.3 238.07 94.82C238.07 95.33 238.14 95.79 238.28 96.2C238.42 96.61 238.62 96.95 238.88 97.23C239.14 97.52 239.46 97.74 239.82 97.89C240.19 98.04 240.6 98.11 241.05 98.11C241.5 98.11 241.91 98.04 242.27 97.89C242.64 97.74 242.95 97.52 243.21 97.23C243.47 96.95 243.67 96.61 243.81 96.2C243.95 95.79 244.02 95.33 244.02 94.82Z" /><path class="shp6" d="M251.43 93.87C251.56 93.73 251.7 93.61 251.84 93.49C251.98 93.37 252.14 93.28 252.3 93.2C252.46 93.11 252.63 93.05 252.82 93C253.01 92.96 253.21 92.93 253.42 92.93C253.75 92.93 254.05 92.99 254.3 93.1C254.56 93.21 254.77 93.37 254.94 93.57C255.11 93.77 255.24 94.02 255.33 94.3C255.42 94.58 255.46 94.9 255.46 95.24L255.46 99.12L254.29 99.12L254.29 95.24C254.29 94.81 254.19 94.47 253.99 94.23C253.79 93.98 253.48 93.86 253.07 93.86C252.77 93.86 252.49 93.93 252.22 94.08C251.96 94.22 251.72 94.41 251.5 94.65L251.5 99.12L250.33 99.12L250.33 93.03L251.03 93.03C251.19 93.03 251.3 93.11 251.34 93.26L251.43 93.87Z" /><path fill-rule="evenodd" class="shp6" d="M257.19 93.88C257.53 93.56 257.89 93.31 258.29 93.15C258.69 92.99 259.13 92.91 259.61 92.91C259.95 92.91 260.26 92.97 260.53 93.09C260.8 93.2 261.02 93.36 261.21 93.56C261.39 93.77 261.53 94.01 261.62 94.29C261.72 94.58 261.76 94.89 261.76 95.24L261.76 99.12L261.24 99.12C261.13 99.12 261.04 99.11 260.98 99.07C260.92 99.03 260.87 98.96 260.83 98.85L260.71 98.32C260.55 98.46 260.4 98.59 260.25 98.7C260.1 98.81 259.94 98.91 259.77 98.99C259.6 99.06 259.43 99.12 259.24 99.16C259.05 99.2 258.84 99.22 258.62 99.22C258.38 99.22 258.15 99.19 257.94 99.12C257.73 99.06 257.55 98.95 257.39 98.82C257.24 98.68 257.11 98.51 257.02 98.31C256.93 98.1 256.89 97.87 256.89 97.59C256.89 97.35 256.95 97.12 257.08 96.9C257.21 96.68 257.42 96.48 257.71 96.3C258.01 96.13 258.39 95.98 258.87 95.87C259.34 95.76 259.93 95.7 260.62 95.68L260.62 95.24C260.62 94.78 260.52 94.43 260.32 94.2C260.13 93.98 259.84 93.86 259.46 93.86C259.2 93.86 258.99 93.89 258.81 93.96C258.64 94.02 258.49 94.09 258.36 94.17C258.24 94.25 258.13 94.32 258.03 94.38C257.94 94.45 257.85 94.48 257.75 94.48C257.67 94.48 257.6 94.46 257.54 94.41C257.48 94.37 257.43 94.32 257.4 94.26L257.19 93.88ZM260.62 96.42C260.14 96.43 259.74 96.47 259.41 96.53C259.07 96.59 258.81 96.66 258.6 96.76C258.39 96.86 258.24 96.97 258.15 97.1C258.06 97.23 258.01 97.37 258.01 97.53C258.01 97.69 258.03 97.82 258.08 97.93C258.13 98.04 258.2 98.13 258.29 98.2C258.37 98.27 258.48 98.32 258.59 98.35C258.71 98.38 258.83 98.4 258.97 98.4C259.15 98.4 259.31 98.38 259.46 98.34C259.61 98.31 259.75 98.26 259.89 98.19C260.02 98.13 260.14 98.04 260.26 97.95C260.38 97.85 260.5 97.74 260.62 97.62L260.62 96.42Z" /><path class="shp6" d="M263.81 99.12L263.81 94.18L263.4 94.1C263.26 94.06 263.14 94.01 263.06 93.95C262.97 93.88 262.93 93.78 262.93 93.65L262.93 92.91L263.81 92.91L263.81 92.82C263.81 92.45 263.87 92.09 264 91.76C264.13 91.43 264.33 91.14 264.6 90.89C264.88 90.64 265.22 90.45 265.64 90.3C266.06 90.16 266.57 90.09 267.15 90.09C267.33 90.09 267.52 90.1 267.71 90.12C267.9 90.13 268.07 90.16 268.21 90.2L268.15 91.14C268.14 91.24 268.09 91.3 268 91.34C267.91 91.37 267.81 91.38 267.7 91.38C267.29 91.38 266.94 91.42 266.67 91.48C266.4 91.54 266.19 91.64 266.02 91.77C265.87 91.89 265.76 92.05 265.69 92.24C265.63 92.42 265.61 92.64 265.61 92.88L265.61 92.91L269.55 92.91L269.55 99.12L267.69 99.12L267.69 94.19L265.67 94.19L265.67 99.12L263.81 99.12Z" /><path class="shp6" d="M273.3 90.14L273.3 99.12L271.44 99.12L271.44 90.14L273.3 90.14Z" /><path fill-rule="evenodd" class="shp6" d="M279.39 99.12C279.22 99.12 279.08 99.1 278.99 99.05C278.9 99 278.83 98.9 278.77 98.75L278.64 98.41C278.48 98.54 278.33 98.66 278.19 98.76C278.04 98.86 277.89 98.94 277.74 99.02C277.59 99.08 277.42 99.13 277.25 99.17C277.07 99.2 276.88 99.22 276.67 99.22C276.39 99.22 276.13 99.18 275.9 99.11C275.66 99.04 275.47 98.93 275.3 98.78C275.14 98.64 275.02 98.46 274.93 98.25C274.84 98.03 274.8 97.78 274.8 97.5C274.8 97.28 274.85 97.06 274.97 96.83C275.08 96.59 275.27 96.38 275.55 96.2C275.82 96 276.2 95.84 276.66 95.72C277.13 95.59 277.72 95.52 278.43 95.5L278.43 95.24C278.43 94.87 278.36 94.61 278.21 94.45C278.06 94.29 277.85 94.2 277.57 94.2C277.35 94.2 277.17 94.23 277.03 94.28C276.89 94.32 276.76 94.38 276.65 94.44C276.54 94.5 276.44 94.55 276.33 94.6C276.23 94.65 276.11 94.67 275.96 94.67C275.83 94.67 275.72 94.64 275.63 94.58C275.54 94.52 275.47 94.44 275.42 94.35L275.09 93.77C275.46 93.43 275.88 93.19 276.33 93.03C276.79 92.86 277.29 92.78 277.81 92.78C278.19 92.78 278.52 92.84 278.82 92.97C279.13 93.09 279.38 93.26 279.59 93.48C279.8 93.69 279.97 93.95 280.08 94.25C280.19 94.55 280.25 94.88 280.25 95.24L280.25 99.12L279.39 99.12ZM277.26 97.99C277.5 97.99 277.71 97.95 277.89 97.86C278.07 97.78 278.25 97.64 278.43 97.46L278.43 96.59C278.06 96.61 277.76 96.64 277.52 96.69C277.28 96.74 277.09 96.8 276.95 96.87C276.81 96.94 276.71 97.02 276.65 97.11C276.6 97.21 276.57 97.31 276.57 97.41C276.57 97.63 276.63 97.78 276.75 97.86C276.86 97.95 277.03 97.99 277.26 97.99Z" /></svg>