<svg width="363" height="364" viewBox="0 0 363 364" fill="none" xmlns="http://www.w3.org/2000/svg">
<path d="M363 262H256V318H363V262Z" fill="#E7E1EF"/>
<path d="M274.986 304.889L274.982 304.88L274.978 304.871L272.758 300.196C273.09 300.089 273.416 299.964 273.709 299.844C274.297 299.603 274.89 299.326 275.334 299.118C275.474 299.053 275.598 298.994 275.704 298.946C275.704 298.946 275.705 298.945 275.705 298.945L278.306 297.762L280.467 302.326C281.116 303.925 280.448 305.67 278.985 306.384C277.364 307.094 275.627 306.31 274.986 304.889Z" fill="#4C0788" stroke="#4C0788" stroke-width="2"/>
<path d="M298.028 271.555C297.598 271.382 297.082 271.642 296.91 272.075L295.449 276.232C295.277 276.665 295.535 277.185 295.965 277.358C296.395 277.531 296.91 277.271 297.082 276.838L298.63 272.594C298.716 272.161 298.458 271.728 298.028 271.555Z" fill="#E81B13"/>
<path d="M300.693 281.255L304.734 279.35C305.163 279.177 305.335 278.657 305.163 278.224C304.992 277.791 304.476 277.618 304.046 277.791L300.005 279.696C299.575 279.87 299.403 280.389 299.575 280.822C299.747 281.342 300.263 281.515 300.693 281.255Z" fill="#E81B13"/>
<path d="M305.163 286.972L300.951 285.413C300.521 285.24 300.005 285.5 299.833 285.933C299.661 286.366 299.919 286.885 300.349 287.059L304.561 288.618C304.991 288.791 305.507 288.531 305.679 288.098C305.851 287.578 305.679 287.059 305.163 286.972Z" fill="#E81B13"/>
<path d="M269.887 289.316L269.899 289.311L269.91 289.305L274.29 287.152L278.957 295.795L274.106 298.18C271.41 299.337 268.548 298.153 267.475 295.817L267.472 295.81L267.469 295.804C266.312 293.376 267.381 290.471 269.887 289.316Z" fill="white" stroke="#4C0788" stroke-width="2"/>
<path d="M286.937 275.539C286.851 275.279 286.593 275.106 286.335 275.019C286.077 274.933 285.819 275.019 285.561 275.193L273.955 286.279L279.371 296.585L294.932 295.2C295.19 295.2 295.448 295.026 295.534 294.767C295.706 294.507 295.706 294.247 295.534 293.987L286.937 275.539Z" fill="#4C0788"/>
<path d="M290.634 279.263L295.018 288.79C295.448 288.271 295.706 287.751 295.964 287.145C296.48 285.672 296.394 284.113 295.792 282.641C294.847 280.649 292.783 279.263 290.634 279.263Z" fill="#4C0788"/>
<path d="M264.27 289.7C264.27 293.84 260.91 297.2 256.77 297.2C253.42 297.2 250.58 295 249.62 291.96L209.27 291.88C208.17 291.88 207.27 290.99 207.27 289.88L207.15 92.3601C207.15 91.2601 208.04 90.3601 209.15 90.3601C209.7 90.3601 210.2 90.5801 210.56 90.9401C210.93 91.3001 211.15 91.8001 211.15 92.3601L211.27 287.88L249.48 287.96C250.26 284.66 253.23 282.2 256.77 282.2C260.91 282.2 264.27 285.56 264.27 289.7Z" fill="#8464AC"/>
<path d="M308.009 287.878C308.093 287.878 308.163 287.883 308.219 287.892C308.275 287.897 308.324 287.911 308.366 287.934C308.413 287.953 308.457 287.983 308.499 288.025C308.541 288.062 308.588 288.114 308.639 288.179L313.952 294.948C313.933 294.785 313.919 294.626 313.91 294.472C313.905 294.313 313.903 294.166 313.903 294.031V287.878H315.562V298H314.589C314.44 298 314.316 297.977 314.218 297.93C314.12 297.883 314.024 297.799 313.931 297.678L308.639 290.937C308.653 291.086 308.662 291.236 308.667 291.385C308.676 291.53 308.681 291.663 308.681 291.784V298H307.022V287.878H308.009ZM327.313 292.939C327.313 293.681 327.189 294.369 326.942 295.004C326.695 295.634 326.347 296.18 325.899 296.642C325.451 297.104 324.912 297.466 324.282 297.727C323.652 297.984 322.954 298.112 322.189 298.112C321.424 298.112 320.724 297.984 320.089 297.727C319.459 297.466 318.918 297.104 318.465 296.642C318.017 296.18 317.669 295.634 317.422 295.004C317.175 294.369 317.051 293.681 317.051 292.939C317.051 292.197 317.175 291.511 317.422 290.881C317.669 290.246 318.017 289.698 318.465 289.236C318.918 288.774 319.459 288.415 320.089 288.158C320.724 287.897 321.424 287.766 322.189 287.766C322.954 287.766 323.652 287.897 324.282 288.158C324.912 288.419 325.451 288.781 325.899 289.243C326.347 289.7 326.695 290.246 326.942 290.881C327.189 291.511 327.313 292.197 327.313 292.939ZM325.381 292.939C325.381 292.384 325.306 291.887 325.157 291.448C325.012 291.005 324.802 290.629 324.527 290.321C324.252 290.013 323.916 289.777 323.519 289.614C323.127 289.451 322.684 289.369 322.189 289.369C321.694 289.369 321.249 289.451 320.852 289.614C320.455 289.777 320.117 290.013 319.837 290.321C319.562 290.629 319.349 291.005 319.2 291.448C319.051 291.887 318.976 292.384 318.976 292.939C318.976 293.494 319.051 293.994 319.2 294.437C319.349 294.876 319.562 295.249 319.837 295.557C320.117 295.86 320.455 296.094 320.852 296.257C321.249 296.42 321.694 296.502 322.189 296.502C322.684 296.502 323.127 296.42 323.519 296.257C323.916 296.094 324.252 295.86 324.527 295.557C324.802 295.249 325.012 294.876 325.157 294.437C325.306 293.994 325.381 293.494 325.381 292.939ZM333.883 293.8C333.963 293.949 334.035 294.106 334.1 294.269C334.17 294.428 334.238 294.589 334.303 294.752C334.369 294.584 334.436 294.418 334.506 294.255C334.576 294.092 334.651 293.935 334.73 293.786L337.726 288.179C337.764 288.109 337.801 288.053 337.838 288.011C337.88 287.969 337.925 287.939 337.971 287.92C338.023 287.901 338.079 287.89 338.139 287.885C338.2 287.88 338.272 287.878 338.356 287.878H339.777V298H338.118V291.462C338.118 291.341 338.121 291.208 338.125 291.063C338.135 290.918 338.146 290.771 338.16 290.622L335.101 296.362C335.031 296.493 334.94 296.595 334.828 296.67C334.716 296.74 334.586 296.775 334.436 296.775H334.177C334.028 296.775 333.897 296.74 333.785 296.67C333.673 296.595 333.582 296.493 333.512 296.362L330.411 290.601C330.43 290.755 330.442 290.907 330.446 291.056C330.456 291.201 330.46 291.336 330.46 291.462V298H328.801V287.878H330.222C330.306 287.878 330.379 287.88 330.439 287.885C330.5 287.89 330.554 287.901 330.6 287.92C330.652 287.939 330.698 287.969 330.74 288.011C330.782 288.053 330.822 288.109 330.859 288.179L333.883 293.8ZM348.201 287.878V289.376H343.714V292.183H347.249V293.632H343.714V296.495H348.201V298H341.817V287.878H348.201Z" fill="#4C0788"/>
<path d="M363 195H256V251H363V195Z" fill="#E7E1EF"/>
<path d="M264.27 222.7C264.27 226.84 260.91 230.2 256.77 230.2C253.42 230.2 250.58 228 249.62 224.96L223.27 224.88C222.17 224.88 221.27 223.99 221.27 222.88L221.15 95.3601C221.15 94.2601 222.04 93.3601 223.15 93.3601C223.7 93.3601 224.2 93.5801 224.56 93.9401C224.93 94.3001 225.15 94.8001 225.15 95.3601L225.27 220.89L249.48 220.96C250.26 217.66 253.23 215.2 256.77 215.2C260.91 215.2 264.27 218.56 264.27 222.7Z" fill="#8464AC"/>
<path d="M294.61 208.35H275.08V233.49H294.61V208.35Z" fill="white"/>
<path d="M295.86 211.57C295.86 211.52 295.86 211.52 295.86 211.47V206.57C295.86 204.61 294.24 203 292.28 203H277.58C275.62 203 274 204.62 274 206.57V238.54C274 240.5 275.62 242.11 277.58 242.11H292.28C294.24 242.11 295.86 240.49 295.86 238.54V229.48V229.43V211.57ZM294.64 229.54V233.55H275.24V208.48H294.64V211.47V229.54Z" fill="#4C0788"/>
<path d="M295.86 212.11H281.7C280.48 212.11 279.45 213.14 279.45 214.36V224.2C279.45 225.42 280.43 226.45 281.7 226.45H283.32C283.37 226.45 283.37 226.5 283.37 226.5V231.1C283.37 231.3 283.47 231.44 283.66 231.49C283.71 231.49 283.76 231.54 283.81 231.54C283.96 231.54 284.05 231.49 284.15 231.39L287.87 227.08L288.41 226.44H295.86C297.09 226.44 298.11 225.46 298.11 224.19V214.35C298.07 213.09 297.09 212.11 295.86 212.11ZM289.44 221.95H283.32C283.08 221.95 282.88 221.75 282.88 221.51C282.88 221.27 283.08 221.07 283.32 221.07H289.44C289.68 221.07 289.88 221.27 289.88 221.51C289.88 221.75 289.69 221.95 289.44 221.95ZM294.25 219.35H283.32C283.08 219.35 282.88 219.15 282.88 218.91C282.88 218.67 283.08 218.47 283.32 218.47H294.25C294.49 218.47 294.69 218.67 294.69 218.91C294.69 219.16 294.49 219.35 294.25 219.35ZM294.25 216.76H283.32C283.08 216.76 282.88 216.56 282.88 216.32C282.88 216.08 283.08 215.88 283.32 215.88H294.25C294.49 215.88 294.69 216.08 294.69 216.32C294.69 216.56 294.49 216.76 294.25 216.76Z" fill="#4C0788"/>
<path d="M284.89 240.31C286.26 240.31 287.34 239.23 287.34 237.86C287.34 236.49 286.26 235.41 284.89 235.41C283.52 235.41 282.44 236.49 282.44 237.86C282.44 239.23 283.56 240.31 284.89 240.31ZM284.89 236.64C285.58 236.64 286.12 237.18 286.12 237.86C286.12 238.55 285.58 239.08 284.89 239.08C284.2 239.08 283.67 238.54 283.67 237.86C283.66 237.17 284.25 236.64 284.89 236.64Z" fill="white"/>
<path d="M285.01 205.05C285.25 205.05 285.45 204.85 285.45 204.61C285.45 204.37 285.25 204.17 285.01 204.17C284.77 204.17 284.57 204.37 284.57 204.61C284.57 204.86 284.77 205.05 285.01 205.05Z" fill="white"/>
<path d="M286.53 205.93H283.2C282.86 205.93 282.61 206.17 282.61 206.42C282.61 206.71 282.9 206.91 283.2 206.91H286.53C286.87 206.91 287.12 206.67 287.12 206.42C287.12 206.17 286.87 205.93 286.53 205.93Z" fill="white"/>
<path fill-rule="evenodd" clip-rule="evenodd" d="M297.38 214.93C298.62 214.93 299.63 213.92 299.63 212.68C299.63 211.44 298.62 210.43 297.38 210.43C296.14 210.43 295.13 211.44 295.13 212.68C295.13 213.92 296.14 214.93 297.38 214.93Z" fill="#E81B13"/>
<path fill-rule="evenodd" clip-rule="evenodd" d="M297.38 213.37C297.76 213.37 298.06 213.06 298.06 212.69C298.06 212.31 297.75 212.01 297.38 212.01C297 212.01 296.7 212.32 296.7 212.69C296.7 213.06 297.01 213.37 297.38 213.37Z" fill="white"/>
<path d="M312.447 219.719C312.396 219.822 312.335 219.894 312.265 219.936C312.2 219.978 312.12 219.999 312.027 219.999C311.934 219.999 311.829 219.964 311.712 219.894C311.595 219.819 311.458 219.738 311.299 219.649C311.14 219.56 310.954 219.481 310.739 219.411C310.529 219.336 310.279 219.299 309.99 219.299C309.729 219.299 309.5 219.332 309.304 219.397C309.113 219.458 308.949 219.544 308.814 219.656C308.683 219.768 308.585 219.903 308.52 220.062C308.455 220.216 308.422 220.386 308.422 220.573C308.422 220.811 308.487 221.009 308.618 221.168C308.753 221.327 308.931 221.462 309.15 221.574C309.369 221.686 309.619 221.786 309.899 221.875C310.179 221.964 310.464 222.059 310.753 222.162C311.047 222.26 311.334 222.377 311.614 222.512C311.894 222.643 312.144 222.811 312.363 223.016C312.582 223.217 312.757 223.464 312.888 223.758C313.023 224.052 313.091 224.409 313.091 224.829C313.091 225.286 313.012 225.716 312.853 226.117C312.699 226.514 312.47 226.861 312.167 227.16C311.868 227.454 311.502 227.687 311.068 227.86C310.634 228.028 310.137 228.112 309.577 228.112C309.255 228.112 308.938 228.079 308.625 228.014C308.312 227.953 308.011 227.865 307.722 227.748C307.437 227.631 307.169 227.491 306.917 227.328C306.67 227.165 306.448 226.983 306.252 226.782L306.798 225.879C306.849 225.814 306.91 225.76 306.98 225.718C307.055 225.671 307.136 225.648 307.225 225.648C307.342 225.648 307.468 225.697 307.603 225.795C307.738 225.888 307.897 225.993 308.079 226.11C308.266 226.227 308.483 226.334 308.73 226.432C308.982 226.525 309.283 226.572 309.633 226.572C310.17 226.572 310.585 226.446 310.879 226.194C311.173 225.937 311.32 225.571 311.32 225.095C311.32 224.829 311.252 224.612 311.117 224.444C310.986 224.276 310.811 224.136 310.592 224.024C310.373 223.907 310.123 223.809 309.843 223.73C309.563 223.651 309.278 223.564 308.989 223.471C308.7 223.378 308.415 223.266 308.135 223.135C307.855 223.004 307.605 222.834 307.386 222.624C307.167 222.414 306.989 222.153 306.854 221.84C306.723 221.523 306.658 221.133 306.658 220.671C306.658 220.302 306.73 219.943 306.875 219.593C307.024 219.243 307.239 218.933 307.519 218.662C307.804 218.391 308.151 218.174 308.562 218.011C308.973 217.848 309.442 217.766 309.969 217.766C310.566 217.766 311.117 217.859 311.621 218.046C312.125 218.233 312.554 218.494 312.909 218.83L312.447 219.719ZM319.61 223.8C319.689 223.949 319.762 224.106 319.827 224.269C319.897 224.428 319.965 224.589 320.03 224.752C320.095 224.584 320.163 224.418 320.233 224.255C320.303 224.092 320.378 223.935 320.457 223.786L323.453 218.179C323.49 218.109 323.528 218.053 323.565 218.011C323.607 217.969 323.651 217.939 323.698 217.92C323.749 217.901 323.805 217.89 323.866 217.885C323.927 217.88 323.999 217.878 324.083 217.878H325.504V228H323.845V221.462C323.845 221.341 323.847 221.208 323.852 221.063C323.861 220.918 323.873 220.771 323.887 220.622L320.828 226.362C320.758 226.493 320.667 226.595 320.555 226.67C320.443 226.74 320.312 226.775 320.163 226.775H319.904C319.755 226.775 319.624 226.74 319.512 226.67C319.4 226.595 319.309 226.493 319.239 226.362L316.138 220.601C316.157 220.755 316.168 220.907 316.173 221.056C316.182 221.201 316.187 221.336 316.187 221.462V228H314.528V217.878H315.949C316.033 217.878 316.105 217.88 316.166 217.885C316.227 217.89 316.28 217.901 316.327 217.92C316.378 217.939 316.425 217.969 316.467 218.011C316.509 218.053 316.549 218.109 316.586 218.179L319.61 223.8ZM332.968 219.719C332.917 219.822 332.856 219.894 332.786 219.936C332.721 219.978 332.642 219.999 332.548 219.999C332.455 219.999 332.35 219.964 332.233 219.894C332.117 219.819 331.979 219.738 331.82 219.649C331.662 219.56 331.475 219.481 331.26 219.411C331.05 219.336 330.801 219.299 330.511 219.299C330.25 219.299 330.021 219.332 329.825 219.397C329.634 219.458 329.471 219.544 329.335 219.656C329.205 219.768 329.107 219.903 329.041 220.062C328.976 220.216 328.943 220.386 328.943 220.573C328.943 220.811 329.009 221.009 329.139 221.168C329.275 221.327 329.452 221.462 329.671 221.574C329.891 221.686 330.14 221.786 330.42 221.875C330.7 221.964 330.985 222.059 331.274 222.162C331.568 222.26 331.855 222.377 332.135 222.512C332.415 222.643 332.665 222.811 332.884 223.016C333.104 223.217 333.279 223.464 333.409 223.758C333.545 224.052 333.612 224.409 333.612 224.829C333.612 225.286 333.533 225.716 333.374 226.117C333.22 226.514 332.992 226.861 332.688 227.16C332.39 227.454 332.023 227.687 331.589 227.86C331.155 228.028 330.658 228.112 330.098 228.112C329.776 228.112 329.459 228.079 329.146 228.014C328.834 227.953 328.533 227.865 328.243 227.748C327.959 227.631 327.69 227.491 327.438 227.328C327.191 227.165 326.969 226.983 326.773 226.782L327.319 225.879C327.371 225.814 327.431 225.76 327.501 225.718C327.576 225.671 327.658 225.648 327.746 225.648C327.863 225.648 327.989 225.697 328.124 225.795C328.26 225.888 328.418 225.993 328.6 226.11C328.787 226.227 329.004 226.334 329.251 226.432C329.503 226.525 329.804 226.572 330.154 226.572C330.691 226.572 331.106 226.446 331.4 226.194C331.694 225.937 331.841 225.571 331.841 225.095C331.841 224.829 331.774 224.612 331.638 224.444C331.508 224.276 331.333 224.136 331.113 224.024C330.894 223.907 330.644 223.809 330.364 223.73C330.084 223.651 329.8 223.564 329.51 223.471C329.221 223.378 328.936 223.266 328.656 223.135C328.376 223.004 328.127 222.834 327.907 222.624C327.688 222.414 327.511 222.153 327.375 221.84C327.245 221.523 327.179 221.133 327.179 220.671C327.179 220.302 327.252 219.943 327.396 219.593C327.546 219.243 327.76 218.933 328.04 218.662C328.325 218.391 328.673 218.174 329.083 218.011C329.494 217.848 329.963 217.766 330.49 217.766C331.088 217.766 331.638 217.859 332.142 218.046C332.646 218.233 333.076 218.494 333.43 218.83L332.968 219.719Z" fill="#4C0788"/>
<path d="M363 130H256V186H363V130Z" fill="#E7E1EF"/>
<path d="M264.27 157.7C264.27 161.84 260.91 165.2 256.77 165.2C253.41 165.2 250.57 162.99 249.62 159.95L237.27 159.88C236.17 159.88 235.27 158.99 235.27 157.88V157.87L235.15 92.3601C235.15 91.2601 236.04 90.3601 237.15 90.3601C237.7 90.3601 238.2 90.5801 238.56 90.9401C238.93 91.3001 239.15 91.8001 239.15 92.3601L239.27 155.89L249.48 155.95C250.27 152.65 253.23 150.2 256.77 150.2C260.91 150.2 264.27 153.56 264.27 157.7Z" fill="#8464AC"/>
<path d="M273.93 148.79H297.76C298.83 148.79 299.69 149.65 299.69 150.72V164.41C299.69 165.48 298.83 166.34 297.76 166.34H273.93C272.86 166.34 272 165.48 272 164.41V150.72C272.01 149.66 272.87 148.79 273.93 148.79Z" fill="#4C0788"/>
<path fill-rule="evenodd" clip-rule="evenodd" d="M275.35 149.89C274.21 149.89 273.71 151.33 274.6 152.04L284.3 159.68C285.17 160.37 286.4 160.37 287.28 159.69L297.08 152.04C297.98 151.33 297.48 149.88 296.34 149.88H275.35V149.89Z" fill="white"/>
<path fill-rule="evenodd" clip-rule="evenodd" d="M298.73 153.04C300.4 153.04 301.75 151.69 301.75 150.02C301.75 148.35 300.4 147 298.73 147C297.06 147 295.71 148.35 295.71 150.02C295.72 151.69 297.07 153.04 298.73 153.04Z" fill="#E81B13"/>
<path fill-rule="evenodd" clip-rule="evenodd" d="M298.73 150.99C299.26 150.99 299.69 150.56 299.69 150.03C299.69 149.5 299.26 149.07 298.73 149.07C298.2 149.07 297.77 149.5 297.77 150.03C297.77 150.56 298.2 150.99 298.73 150.99Z" fill="white"/>
<path d="M313.406 152.228V153.726H308.919V156.533H312.454V157.982H308.919V160.845H313.406V162.35H307.022V152.228H313.406ZM314.712 157.401H318.338V158.843H314.712V157.401ZM325.147 158.15C325.226 158.299 325.299 158.455 325.364 158.619C325.434 158.777 325.502 158.938 325.567 159.102C325.632 158.934 325.7 158.768 325.77 158.605C325.84 158.441 325.915 158.285 325.994 158.136L328.99 152.529C329.027 152.459 329.065 152.403 329.102 152.361C329.144 152.319 329.188 152.288 329.235 152.27C329.286 152.251 329.342 152.239 329.403 152.235C329.464 152.23 329.536 152.228 329.62 152.228H331.041V162.35H329.382V155.812C329.382 155.69 329.384 155.557 329.389 155.413C329.398 155.268 329.41 155.121 329.424 154.972L326.365 160.712C326.295 160.842 326.204 160.945 326.092 161.02C325.98 161.09 325.849 161.125 325.7 161.125H325.441C325.292 161.125 325.161 161.09 325.049 161.02C324.937 160.945 324.846 160.842 324.776 160.712L321.675 154.951C321.694 155.105 321.705 155.256 321.71 155.406C321.719 155.55 321.724 155.686 321.724 155.812V162.35H320.065V152.228H321.486C321.57 152.228 321.642 152.23 321.703 152.235C321.764 152.239 321.817 152.251 321.864 152.27C321.915 152.288 321.962 152.319 322.004 152.361C322.046 152.403 322.086 152.459 322.123 152.529L325.147 158.15ZM341.978 162.35H340.522C340.358 162.35 340.223 162.31 340.116 162.231C340.013 162.147 339.938 162.044 339.892 161.923L339.136 159.858H334.943L334.187 161.923C334.149 162.03 334.075 162.128 333.963 162.217C333.855 162.305 333.722 162.35 333.564 162.35H332.101L336.077 152.228H338.002L341.978 162.35ZM335.426 158.528H338.653L337.421 155.161C337.365 155.011 337.302 154.836 337.232 154.636C337.166 154.43 337.101 154.209 337.036 153.971C336.97 154.209 336.905 154.43 336.84 154.636C336.779 154.841 336.718 155.021 336.658 155.175L335.426 158.528ZM345.141 162.35H343.251V152.228H345.141V162.35ZM349.305 160.796H353.358V162.35H347.422V152.228H349.305V160.796Z" fill="#4C0788"/>
<path d="M248.921 2.17261C246.543 1.92665 244.234 2.93783 242.785 4.83716C238.891 9.98858 236.404 19.1846 226.129 19.2529C215.129 19.3213 215.525 9.8246 212.779 3.9763C211.767 1.81735 209.69 0.355252 207.327 0.109296L206.247 0L202.804 31.0315L201 48.4808L202.079 48.5901C204.457 48.836 206.52 50.2981 207.532 52.4571C210.292 58.2917 209.95 68.8405 220.881 69.9746C231.813 71.1088 233.644 58.4557 237.538 53.3179C238.973 51.4186 241.296 50.4074 243.673 50.6534L244.753 50.7627L246.557 35.5544L250 2.26827L248.921 2.17261Z" fill="#4C0788"/>
<path fill-rule="evenodd" clip-rule="evenodd" d="M193.53 267.04C193.53 267.04 195.51 252.64 194.68 243.16C190.62 225.3 195.27 202.18 199.5 202.46C203.48 202.72 202.35 210.78 202.43 214.33C206.05 211.71 215.32 205.39 222.41 195.9C227.25 189.42 231.2 190.94 231.49 194.78C230.8 201.19 231.54 201.71 229.22 211.96C227.69 218.74 218.48 231.01 215.74 240.23L215.49 259.12L193.53 267.04Z" fill="#B28B67"/>
<path fill-rule="evenodd" clip-rule="evenodd" d="M104.99 189.88C109.96 179.04 123.54 173.5 123.54 173.5C127.47 216.76 142.35 281.14 156.27 289.9C163.82 294.65 174.63 270.46 191.55 234.1L219.81 239.68C212.43 283.06 203.25 341.2 164.19 351.1C139.51 357.35 102.75 326.68 92.6699 283.48C88.8699 267.2 88.9499 256.84 89.6699 232.72C89.9799 222.47 100.02 200.72 104.99 189.88Z" fill="#C5CFD6"/>
<path d="M227.87 186.22C227.87 186.22 228.08 186.91 228.23 188.36C227.91 189.73 214.84 234.17 214.84 234.17C214.84 234.17 214.68 234.91 213.98 235.24C213.22 235.59 212.34 235.38 212.34 235.38C212.34 235.38 191.06 231.66 189.28 231.25C188.17 230.08 188.09 228.48 188.09 228.48L202.76 183.11L227.87 186.22Z" fill="#CECECE"/>
<path d="M203.99 181.76C204.25 181.79 227.19 185.34 227.53 185.42C227.87 185.49 228.04 186.2 227.75 187.17C227.25 188.84 214.54 232.59 214.45 232.89C214.24 233.54 213.45 234.2 212.44 234.03C212.14 233.98 189.93 230.09 189.44 230.04C188.6 229.95 187.91 228.85 188.08 228.24C188.34 227.34 202.62 183.56 202.85 182.81C203.08 182.04 203.73 181.73 203.99 181.76Z" fill="#494949"/>
<path d="M203.44 185.52L225.43 188.86L214.23 227.21L191.28 223.32L203.44 185.52Z" fill="#EDEDED"/>
<path d="M213.56 185.31C213.53 185.51 213.66 185.69 213.85 185.73C214.05 185.76 214.23 185.63 214.27 185.44C214.3 185.24 214.17 185.06 213.98 185.02C213.78 184.98 213.59 185.11 213.56 185.31Z" fill="#2D2D2D"/>
<path d="M198.87 227.81C198.76 228.43 199.49 229.08 200.51 229.25C201.52 229.43 202.43 229.07 202.54 228.45C202.65 227.83 201.92 227.18 200.9 227.01C199.89 226.83 198.98 227.19 198.87 227.81Z" fill="#2D2D2D"/>
<path fill-rule="evenodd" clip-rule="evenodd" d="M89.4499 135.66C90.2099 131.68 96.0199 128.36 102.45 130.78C110.82 133.93 112.08 142.39 113.7 155.93L117.21 184.42C117.21 184.42 115.43 205.02 99.4999 205.67C78.5799 206.53 79.6799 181.18 79.6799 181.18L89.4499 135.66Z" fill="#B28B67"/>
<path fill-rule="evenodd" clip-rule="evenodd" d="M89.4498 135.66C80.4898 126.28 73.3998 110.65 74.4798 95.2199C77.5998 50.7599 139.49 60.5399 151.53 82.9799C163.57 105.42 162.14 162.34 146.58 166.36C140.37 167.96 127.16 164.04 113.7 155.93C113.7 155.93 98.4098 145.05 89.4498 135.66Z" fill="#B28B67"/>
<path fill-rule="evenodd" clip-rule="evenodd" d="M159.89 140.78C157.74 143.79 147.28 146.69 147.28 151.35C147.28 156.01 155.54 152.4 155.54 155.17C155.54 159.74 157 168.35 149.06 168.35C141.02 168.35 117.98 165.42 114.03 153.49C113.03 150.45 112.16 146.12 111.44 140.49L128.45 156.95C128.53 157.02 128.62 157.06 128.71 157.07C128.87 157.1 129.04 157.05 129.16 156.92C129.35 156.71 129.33 156.4 129.13 156.21L111.24 138.9C110.23 130.48 109.52 119.39 109.09 105.64C108.6 105.59 108.11 105.56 107.61 105.56C100.72 105.56 95.1399 111.14 95.1399 118.02C95.1399 121.52 96.5799 124.68 98.8899 126.94V126.95C98.6899 127.22 98.4999 127.49 98.2999 127.77C95.5699 131.58 92.5299 135.57 89.0699 139.65C75.1599 131.31 63.6399 106.83 77.2499 83.3499C81.0099 71.8499 90.7099 65.7399 100.76 62.8899C108.91 59.4799 117.36 59.0999 124.5 61.1399C138.49 62.3399 150.98 66.5999 154.53 69.1399C154.53 82.3799 151.96 86.31 130.04 85.97C124.65 88.81 120.51 93.7099 116.2 100.13C118.11 126.72 123.15 140.01 131.34 140.01C143.63 140.01 154.05 132.22 159.44 132.22C163.37 132.22 162.49 137.13 159.89 140.78Z" fill="#191847"/>
<path d="M136.3 140.01C136.19 140.1 136.06 140.14 135.93 140.12C135.8 140.11 135.68 140.05 135.6 139.95L109.22 105.52H110.48L136.35 139.3C136.53 139.51 136.51 139.83 136.3 140.01Z" fill="#CFC2DF"/>
<path d="M129.16 156.92C129.04 157.05 128.87 157.1 128.71 157.07C128.62 157.06 128.53 157.02 128.45 156.95L111.44 140.49L98.2998 127.77C98.4998 127.49 98.6898 127.22 98.8898 126.95L111.24 138.9L129.13 156.21C129.33 156.4 129.35 156.71 129.16 156.92Z" fill="#CFC2DF"/>
<path d="M135.8 138.92L159.82 130.82C159.82 130.82 162.63 131.76 162.52 135.43C162.28 142.97 158.78 157 157.04 162.73C155.21 168.75 151.48 169.08 148.97 169.58C145.21 170.33 138.26 169.09 135.88 168.53C133.5 167.97 124.88 164.22 124.88 164.22L129.59 153.3L135.8 138.92Z" fill="#CFC2DF"/>
<path fill-rule="evenodd" clip-rule="evenodd" d="M171.61 363.96H25.95C35.6 284.81 54.7 226.51 90.9799 174.9C106.38 177.07 117.16 176.61 123.31 173.5C123.31 225.79 142.6 290.33 171.61 363.96Z" fill="#323337"/>
<path fill-rule="evenodd" clip-rule="evenodd" d="M112.71 363.96H0C7.09 342.23 13.52 323.8 18.35 310.6C26.14 289.3 36.3 264.45 45.97 241.69C62.15 203.59 76.95 171.33 76.95 171.33C77.15 170.88 77.35 170.42 77.54 169.96H97.94C99.95 181.79 104.13 267.84 112.71 363.96Z" fill="#DDE3E9"/>
<path fill-rule="evenodd" clip-rule="evenodd" d="M94.31 363.96H0C7.09 342.23 13.52 323.8 18.35 310.6C26.14 289.3 36.3 264.45 45.97 241.69C45.97 241.69 94.71 232.64 94.71 245.98C94.71 251.92 94.53 297.1 94.31 363.96Z" fill="#C5CFD6"/>
<path fill-rule="evenodd" clip-rule="evenodd" d="M149.13 286.8L125.45 277.08C147 233.15 137.42 253.73 139.39 248.92C143.83 238.09 147.06 230.02 151.21 216.48C152.83 213.6 155.17 207.12 157.87 203.7C166.42 198.72 169.64 197.23 174.09 195.66C175.92 195.02 189.09 192.17 193.06 192.81C197.56 193.53 193.33 198.48 188.92 199.29C185.02 200.01 184.23 199.84 178.39 202.71C174.31 204.71 172.46 206.21 172.99 206.58C180.91 212.07 185.41 219.54 183.5 225.11C182.26 229.08 180.5 233.79 178.21 236.73C175.69 239.97 172.99 238.53 172.18 239.88C169.01 245.16 165.23 250.92 163.79 253.79C160.05 261.27 159.78 264.7 149.13 286.8Z" fill="#B28B67"/>
<path fill-rule="evenodd" clip-rule="evenodd" d="M90.3499 177.16C95.7699 181.46 97.7199 195.89 97.2299 206.2C95.8299 235.66 92.1899 255.16 90.7499 292.06C108.93 272.62 117.03 261.28 138.99 238.78L173.01 254.8C141.15 314.2 131.72 370.32 70.5899 362.98C39.0899 359.2 31.7999 303.6 32.6099 286.84C34.5899 245.98 42.6899 185.68 74.9899 173.56C75.1899 173.1 83.3899 171.64 90.3499 177.16Z" fill="#DDE3E9"/>
<g filter="url(#filter0_d)">
<rect x="182" y="84" width="121" height="22" rx="11" fill="#4C0788"/>
<rect x="182" y="84" width="121" height="22" rx="11" stroke="#4C0788"/>
</g>
<path fill-rule="evenodd" clip-rule="evenodd" d="M294.089 96.8711C293.912 97.043 293.625 97.043 293.448 96.8711C293.271 96.6993 293.271 96.4207 293.448 96.2489L295.285 94.4667H288.188C287.945 94.4667 287.748 94.2697 287.748 94.0267C287.748 93.7837 287.945 93.5867 288.188 93.5867H295.317L293.464 91.7891C293.287 91.6173 293.287 91.3387 293.464 91.1668C293.641 90.995 293.928 90.995 294.105 91.1668L296.545 93.5334C296.588 93.5748 296.62 93.6223 296.642 93.673C296.75 93.7532 296.82 93.8817 296.82 94.0267C296.82 94.1822 296.74 94.3189 296.618 94.3971C296.598 94.4299 296.574 94.4608 296.545 94.4889L294.089 96.8711Z" fill="white"/>
<path d="M191.61 94.942C191.934 94.942 192.218 94.9 192.462 94.816C192.71 94.732 192.916 94.614 193.08 94.462C193.248 94.306 193.374 94.122 193.458 93.91C193.542 93.694 193.584 93.456 193.584 93.196C193.584 92.672 193.42 92.26 193.092 91.96C192.768 91.66 192.274 91.51 191.61 91.51H190.278V94.942H191.61ZM191.61 90.508C192.162 90.508 192.642 90.572 193.05 90.7C193.458 90.828 193.796 91.01 194.064 91.246C194.332 91.478 194.53 91.76 194.658 92.092C194.79 92.424 194.856 92.792 194.856 93.196C194.856 93.6 194.786 93.972 194.646 94.312C194.506 94.648 194.3 94.938 194.028 95.182C193.756 95.426 193.416 95.616 193.008 95.752C192.604 95.884 192.138 95.95 191.61 95.95H190.278V99.124H189V90.508H191.61Z" fill="white"/>
<path d="M199.008 94.66C199.336 94.66 199.624 94.62 199.872 94.54C200.124 94.46 200.334 94.348 200.502 94.204C200.67 94.056 200.796 93.882 200.88 93.682C200.964 93.478 201.006 93.254 201.006 93.01C201.006 92.514 200.842 92.14 200.514 91.888C200.19 91.636 199.702 91.51 199.05 91.51H197.844V94.66H199.008ZM203.028 99.124H201.888C201.66 99.124 201.494 99.034 201.39 98.854L199.26 95.866C199.192 95.766 199.118 95.696 199.038 95.656C198.958 95.612 198.838 95.59 198.678 95.59H197.844V99.124H196.566V90.508H199.05C199.606 90.508 200.084 90.566 200.484 90.682C200.888 90.794 201.22 90.956 201.48 91.168C201.744 91.376 201.938 91.628 202.062 91.924C202.19 92.22 202.254 92.552 202.254 92.92C202.254 93.22 202.208 93.502 202.116 93.766C202.024 94.03 201.888 94.268 201.708 94.48C201.532 94.688 201.316 94.868 201.06 95.02C200.804 95.172 200.514 95.288 200.19 95.368C200.35 95.464 200.488 95.598 200.604 95.77L203.028 99.124Z" fill="white"/>
<path d="M212.37 94.816C212.37 95.46 212.266 96.052 212.058 96.592C211.854 97.128 211.564 97.592 211.188 97.984C210.812 98.372 210.362 98.674 209.838 98.89C209.314 99.106 208.732 99.214 208.092 99.214C207.456 99.214 206.874 99.106 206.346 98.89C205.822 98.674 205.372 98.372 204.996 97.984C204.624 97.592 204.334 97.128 204.126 96.592C203.918 96.052 203.814 95.46 203.814 94.816C203.814 94.176 203.918 93.586 204.126 93.046C204.334 92.506 204.624 92.042 204.996 91.654C205.372 91.262 205.822 90.958 206.346 90.742C206.874 90.522 207.456 90.412 208.092 90.412C208.732 90.412 209.314 90.522 209.838 90.742C210.362 90.958 210.812 91.262 211.188 91.654C211.564 92.042 211.854 92.506 212.058 93.046C212.266 93.586 212.37 94.176 212.37 94.816ZM211.062 94.816C211.062 94.304 210.992 93.844 210.852 93.436C210.712 93.028 210.512 92.682 210.252 92.398C209.996 92.114 209.684 91.896 209.316 91.744C208.952 91.592 208.544 91.516 208.092 91.516C207.64 91.516 207.23 91.592 206.862 91.744C206.498 91.896 206.186 92.114 205.926 92.398C205.666 92.682 205.466 93.028 205.326 93.436C205.186 93.844 205.116 94.304 205.116 94.816C205.116 95.332 205.186 95.794 205.326 96.202C205.466 96.606 205.666 96.95 205.926 97.234C206.186 97.518 206.498 97.736 206.862 97.888C207.23 98.036 207.64 98.11 208.092 98.11C208.544 98.11 208.952 98.036 209.316 97.888C209.684 97.736 209.996 97.518 210.252 97.234C210.512 96.95 210.712 96.606 210.852 96.202C210.992 95.794 211.062 95.332 211.062 94.816ZM210.438 88L208.482 89.716C208.414 89.772 208.352 89.808 208.296 89.824C208.24 89.84 208.166 89.848 208.074 89.848H207.228L208.584 88.204C208.62 88.156 208.654 88.12 208.686 88.096C208.722 88.068 208.76 88.048 208.8 88.036C208.84 88.02 208.886 88.01 208.938 88.006C208.99 88.002 209.05 88 209.118 88H210.438Z" fill="white"/>
<path d="M220.631 99.124H219.365C219.273 99.124 219.199 99.1 219.143 99.052C219.087 99 219.043 98.946 219.011 98.89L216.785 95.344C216.753 95.444 216.715 95.53 216.671 95.602L214.505 98.89C214.465 98.946 214.419 99 214.367 99.052C214.315 99.1 214.249 99.124 214.169 99.124H212.975L215.921 94.69L213.101 90.508H214.367C214.459 90.508 214.527 90.522 214.571 90.55C214.615 90.578 214.653 90.62 214.685 90.676L216.863 94.054C216.895 93.95 216.939 93.854 216.995 93.766L219.035 90.7C219.071 90.636 219.111 90.588 219.155 90.556C219.199 90.524 219.255 90.508 219.323 90.508H220.541L217.703 94.636L220.631 99.124Z" fill="white"/>
<path d="M223.382 99.124H222.098V90.508H223.382V99.124Z" fill="white"/>
<path d="M234.869 90.508V99.124H233.753V92.992C233.753 92.9 233.755 92.802 233.759 92.698C233.767 92.594 233.775 92.488 233.783 92.38L230.915 97.642C230.815 97.838 230.661 97.936 230.453 97.936H230.273C230.065 97.936 229.913 97.838 229.817 97.642L226.895 92.362C226.919 92.586 226.931 92.796 226.931 92.992V99.124H225.809V90.508H226.757C226.869 90.508 226.955 90.52 227.015 90.544C227.079 90.564 227.139 90.624 227.195 90.724L230.075 95.884C230.131 95.988 230.183 96.098 230.231 96.214C230.279 96.33 230.325 96.446 230.369 96.562C230.453 96.326 230.551 96.098 230.663 95.878L233.489 90.724C233.541 90.624 233.597 90.564 233.657 90.544C233.721 90.52 233.809 90.508 233.921 90.508H234.869Z" fill="white"/>
<path d="M245.328 94.816C245.328 95.46 245.224 96.052 245.016 96.592C244.812 97.128 244.522 97.592 244.146 97.984C243.77 98.372 243.32 98.674 242.796 98.89C242.272 99.106 241.69 99.214 241.05 99.214C240.414 99.214 239.832 99.106 239.304 98.89C238.78 98.674 238.33 98.372 237.954 97.984C237.582 97.592 237.292 97.128 237.084 96.592C236.876 96.052 236.772 95.46 236.772 94.816C236.772 94.176 236.876 93.586 237.084 93.046C237.292 92.506 237.582 92.042 237.954 91.654C238.33 91.262 238.78 90.958 239.304 90.742C239.832 90.522 240.414 90.412 241.05 90.412C241.69 90.412 242.272 90.522 242.796 90.742C243.32 90.958 243.77 91.262 244.146 91.654C244.522 92.042 244.812 92.506 245.016 93.046C245.224 93.586 245.328 94.176 245.328 94.816ZM244.02 94.816C244.02 94.304 243.95 93.844 243.81 93.436C243.67 93.028 243.47 92.682 243.21 92.398C242.954 92.114 242.642 91.896 242.274 91.744C241.91 91.592 241.502 91.516 241.05 91.516C240.598 91.516 240.188 91.592 239.82 91.744C239.456 91.896 239.144 92.114 238.884 92.398C238.624 92.682 238.424 93.028 238.284 93.436C238.144 93.844 238.074 94.304 238.074 94.816C238.074 95.332 238.144 95.794 238.284 96.202C238.424 96.606 238.624 96.95 238.884 97.234C239.144 97.518 239.456 97.736 239.82 97.888C240.188 98.036 240.598 98.11 241.05 98.11C241.502 98.11 241.91 98.036 242.274 97.888C242.642 97.736 242.954 97.518 243.21 97.234C243.47 96.95 243.67 96.606 243.81 96.202C243.95 95.794 244.02 95.332 244.02 94.816Z" fill="white"/>
<path d="M251.426 93.874C251.558 93.734 251.696 93.606 251.84 93.49C251.984 93.374 252.136 93.276 252.296 93.196C252.46 93.112 252.634 93.048 252.818 93.004C253.006 92.956 253.206 92.932 253.418 92.932C253.754 92.932 254.048 92.988 254.3 93.1C254.556 93.212 254.77 93.37 254.942 93.574C255.114 93.774 255.244 94.016 255.332 94.3C255.42 94.584 255.464 94.898 255.464 95.242V99.124H254.288V95.242C254.288 94.806 254.188 94.468 253.988 94.228C253.788 93.984 253.482 93.862 253.07 93.862C252.77 93.862 252.488 93.934 252.224 94.078C251.964 94.218 251.722 94.41 251.498 94.654V99.124H250.328V93.028H251.03C251.194 93.028 251.296 93.106 251.336 93.262L251.426 93.874Z" fill="white"/>
<path d="M260.619 96.418C260.143 96.434 259.739 96.472 259.407 96.532C259.075 96.588 258.805 96.664 258.597 96.76C258.389 96.856 258.239 96.97 258.147 97.102C258.055 97.23 258.009 97.374 258.009 97.534C258.009 97.686 258.033 97.818 258.081 97.93C258.133 98.038 258.201 98.128 258.285 98.2C258.373 98.268 258.475 98.318 258.591 98.35C258.707 98.382 258.833 98.398 258.969 98.398C259.149 98.398 259.313 98.38 259.461 98.344C259.613 98.308 259.755 98.258 259.887 98.194C260.019 98.126 260.145 98.044 260.265 97.948C260.385 97.852 260.503 97.742 260.619 97.618V96.418ZM257.187 93.88C257.527 93.556 257.895 93.314 258.291 93.154C258.691 92.994 259.129 92.914 259.605 92.914C259.953 92.914 260.261 92.972 260.529 93.088C260.797 93.2 261.023 93.358 261.207 93.562C261.391 93.766 261.529 94.01 261.621 94.294C261.717 94.578 261.765 94.892 261.765 95.236V99.124H261.243C261.127 99.124 261.039 99.106 260.979 99.07C260.919 99.03 260.871 98.958 260.835 98.854L260.709 98.32C260.553 98.464 260.399 98.592 260.247 98.704C260.095 98.812 259.935 98.906 259.767 98.986C259.603 99.062 259.427 99.12 259.239 99.16C259.051 99.2 258.843 99.22 258.615 99.22C258.375 99.22 258.149 99.188 257.937 99.124C257.729 99.056 257.547 98.954 257.391 98.818C257.235 98.682 257.111 98.512 257.019 98.308C256.931 98.104 256.887 97.866 256.887 97.594C256.887 97.354 256.951 97.124 257.079 96.904C257.211 96.68 257.423 96.48 257.715 96.304C258.011 96.128 258.395 95.984 258.867 95.872C259.343 95.76 259.927 95.696 260.619 95.68V95.236C260.619 94.776 260.521 94.432 260.325 94.204C260.129 93.976 259.841 93.862 259.461 93.862C259.205 93.862 258.989 93.894 258.813 93.958C258.641 94.022 258.491 94.094 258.363 94.174C258.239 94.25 258.129 94.32 258.033 94.384C257.941 94.448 257.845 94.48 257.745 94.48C257.665 94.48 257.595 94.458 257.535 94.414C257.479 94.37 257.433 94.318 257.397 94.258L257.187 93.88Z" fill="white"/>
<path d="M263.805 99.124V94.18L263.397 94.096C263.257 94.064 263.143 94.014 263.055 93.946C262.971 93.878 262.929 93.778 262.929 93.646V92.914H263.805V92.824C263.805 92.448 263.869 92.094 263.997 91.762C264.129 91.426 264.331 91.136 264.603 90.892C264.875 90.644 265.221 90.448 265.641 90.304C266.065 90.16 266.569 90.088 267.153 90.088C267.333 90.088 267.519 90.098 267.711 90.118C267.903 90.134 268.069 90.16 268.209 90.196L268.149 91.138C268.141 91.238 268.091 91.304 267.999 91.336C267.907 91.368 267.809 91.384 267.705 91.384C267.289 91.384 266.945 91.416 266.673 91.48C266.401 91.544 266.185 91.64 266.025 91.768C265.869 91.892 265.759 92.048 265.695 92.236C265.635 92.424 265.605 92.64 265.605 92.884V92.914H269.553V99.124H267.693V94.186H265.665V99.124H263.805Z" fill="white"/>
<path d="M273.296 90.142V99.124H271.436V90.142H273.296Z" fill="white"/>
<path d="M279.394 99.124C279.218 99.124 279.084 99.1 278.992 99.052C278.904 99.004 278.83 98.904 278.77 98.752L278.638 98.41C278.482 98.542 278.332 98.658 278.188 98.758C278.044 98.858 277.894 98.944 277.738 99.016C277.586 99.084 277.422 99.134 277.246 99.166C277.074 99.202 276.882 99.22 276.67 99.22C276.386 99.22 276.128 99.184 275.896 99.112C275.664 99.036 275.466 98.926 275.302 98.782C275.142 98.638 275.018 98.46 274.93 98.248C274.842 98.032 274.798 97.784 274.798 97.504C274.798 97.284 274.854 97.058 274.966 96.826C275.078 96.594 275.272 96.384 275.548 96.196C275.824 96.004 276.196 95.844 276.664 95.716C277.132 95.588 277.722 95.516 278.434 95.5V95.236C278.434 94.872 278.358 94.61 278.206 94.45C278.058 94.286 277.846 94.204 277.57 94.204C277.35 94.204 277.17 94.228 277.03 94.276C276.89 94.324 276.764 94.378 276.652 94.438C276.544 94.498 276.438 94.552 276.334 94.6C276.23 94.648 276.106 94.672 275.962 94.672C275.834 94.672 275.724 94.642 275.632 94.582C275.544 94.518 275.474 94.44 275.422 94.348L275.086 93.766C275.462 93.434 275.878 93.188 276.334 93.028C276.794 92.864 277.286 92.782 277.81 92.782C278.186 92.782 278.524 92.844 278.824 92.968C279.128 93.088 279.384 93.258 279.592 93.478C279.804 93.694 279.966 93.952 280.078 94.252C280.19 94.552 280.246 94.88 280.246 95.236V99.124H279.394ZM277.258 97.99C277.498 97.99 277.708 97.948 277.888 97.864C278.068 97.78 278.25 97.644 278.434 97.456V96.592C278.062 96.608 277.756 96.64 277.516 96.688C277.276 96.736 277.086 96.796 276.946 96.868C276.806 96.94 276.708 97.022 276.652 97.114C276.6 97.206 276.574 97.306 276.574 97.414C276.574 97.626 276.632 97.776 276.748 97.864C276.864 97.948 277.034 97.99 277.258 97.99Z" fill="white"/>
<defs>
<filter id="filter0_d" x="163" y="76" width="159" height="60" filterUnits="userSpaceOnUse" color-interpolation-filters="sRGB">
<feFlood flood-opacity="0" result="BackgroundImageFix"/>
<feColorMatrix in="SourceAlpha" type="matrix" values="0 0 0 0 0 0 0 0 0 0 0 0 0 0 0 0 0 0 127 0"/>
<feOffset dy="11"/>
<feGaussianBlur stdDeviation="9.5"/>
<feColorMatrix type="matrix" values="0 0 0 0 0 0 0 0 0 0 0 0 0 0 0 0 0 0 0.248689 0"/>
<feBlend mode="normal" in2="BackgroundImageFix" result="effect1_dropShadow"/>
<feBlend mode="normal" in="SourceGraphic" in2="effect1_dropShadow" result="shape"/>
</filter>
</defs>
</svg>
