<svg width="444" height="542" viewBox="0 0 444 542" fill="none" xmlns="http://www.w3.org/2000/svg">
<path fill-rule="evenodd" clip-rule="evenodd" d="M316.753 397.399C316.753 397.399 333.531 379.136 341.578 365.033C353.227 336.032 382.234 308.142 387.909 312.657C393.252 316.9 383.83 327.101 380.493 332.157C388.129 332.011 407.305 332.181 426.496 325.782C439.599 321.411 443.675 327.392 440.351 333.059C433.151 341.376 433.686 342.826 420.463 354.939C411.722 362.955 386.848 371.187 374.035 381.446L355.326 407.692L316.753 397.399Z" fill="#B28B67"/>
<path fill-rule="evenodd" clip-rule="evenodd" d="M242.148 393.15C248.147 407.168 286.855 383.78 345.982 349.28L380.292 384.642C327.757 438.282 258.346 510.866 193.806 486.687C158.551 473.472 87.4847 31.6223 242.148 393.15Z" fill="#C5CFD6"/>
<path fill-rule="evenodd" clip-rule="evenodd" d="M153.018 142.27C154.318 135.479 164.257 129.815 175.257 133.944C189.575 139.318 191.73 153.752 194.502 176.853L200.506 225.461C200.506 225.461 197.461 260.608 170.21 261.717C134.423 263.184 136.305 219.933 136.305 219.933L153.018 142.27Z" fill="#B28B67"/>
<path fill-rule="evenodd" clip-rule="evenodd" d="M147.669 156.969C128.838 145.288 110.449 122.484 105.68 96.5276C91.9513 21.7344 198.643 11.5191 228.128 43.4669C257.612 75.4147 279.436 170.076 255.366 183.35C245.758 188.64 222.207 187.792 196.46 180.128C196.46 180.128 166.505 168.666 147.669 156.969Z" fill="#B28B67"/>
<path fill-rule="evenodd" clip-rule="evenodd" d="M266.546 135.413C264.263 141.302 248.166 150.552 250.147 158.252C252.128 165.952 264.278 156.467 265.455 161.044C267.398 168.595 273.476 182.2 260.322 185.583C247.002 189.01 207.585 193.987 195.971 175.958C193.022 171.361 189.74 164.577 186.154 155.581L221.331 175.53C221.493 175.611 221.66 175.639 221.813 175.617C222.091 175.598 222.351 175.443 222.495 175.178C222.72 174.75 222.555 174.246 222.143 174.017L185.147 153.039C179.895 139.557 174.005 121.535 167.448 98.998C166.615 99.1242 165.791 99.2834 164.962 99.4965C153.548 102.433 146.675 114.031 149.599 125.399C151.087 131.182 154.815 135.79 159.603 138.54L159.607 138.556C159.391 139.088 159.191 139.615 158.978 140.163C156.075 147.622 152.734 155.51 148.736 163.726C122.146 155.874 92.6561 120.333 105.224 75.736C106.565 55.1316 120.039 40.902 135.477 31.9098C147.53 22.8021 161.368 18.5731 174.064 18.9011C197.752 14.9219 220.255 16.6382 227.216 19.3223C232.843 41.1994 230.256 48.7884 193.796 57.5681C186.074 64.5578 181.297 74.4186 176.886 86.8635C191.352 129.986 205.35 149.797 218.919 146.307C239.28 141.07 253.232 123.757 262.162 121.46C268.673 119.785 269.302 128.273 266.546 135.413Z" fill="#191847"/>
<path d="M227.136 144.193C226.992 144.389 226.794 144.51 226.57 144.533C226.351 144.572 226.126 144.524 225.951 144.392L167.613 98.7441L169.7 98.2072L226.917 142.999C227.305 143.269 227.408 143.806 227.136 144.193Z" fill="#CFC2DF"/>
<path d="M222.493 175.176C222.35 175.442 222.089 175.597 221.812 175.616C221.658 175.638 221.492 175.61 221.33 175.528L186.153 155.58L158.977 140.162C159.189 139.614 159.389 139.087 159.606 138.555L185.146 153.038L222.142 174.016C222.554 174.245 222.719 174.748 222.493 175.176Z" fill="#CFC2DF"/>
<path d="M225.844 142.603L262.196 118.983C262.196 118.983 267.251 119.339 268.629 125.45C271.436 138.011 271.6 162.685 271.153 172.894C270.68 183.621 264.641 185.756 260.695 187.652C254.785 190.494 242.743 191.407 238.562 191.496C234.381 191.584 218.506 189.062 218.506 189.062L221.668 169.011L225.844 142.603Z" fill="#CFC2DF"/>
<path fill-rule="evenodd" clip-rule="evenodd" d="M293.565 531.784H44.3906C60.8985 396.743 93.572 297.275 155.635 209.221C181.979 212.923 200.42 212.138 210.94 206.832C210.94 296.046 243.939 406.161 293.565 531.784Z" fill="#323337"/>
<path fill-rule="evenodd" clip-rule="evenodd" d="M192.808 531.783H0C12.1286 494.708 23.1281 463.264 31.3905 440.743C44.7165 404.402 62.0968 362.005 78.6389 323.173C106.317 258.169 131.635 203.128 131.635 203.128C131.977 202.361 132.319 201.576 132.644 200.791H167.542C170.98 220.975 178.131 367.788 192.808 531.783Z" fill="#DDE3E9"/>
<path fill-rule="evenodd" clip-rule="evenodd" d="M161.332 531.782H0C12.1286 494.708 23.1281 463.264 31.3905 440.743C44.7165 404.402 62.0968 362.004 78.6389 323.172C78.6389 323.172 162.016 307.732 162.016 330.492C162.016 340.626 161.708 417.71 161.332 531.782Z" fill="#C5CFD6"/>
<path fill-rule="evenodd" clip-rule="evenodd" d="M255.109 400.136L214.601 383.553C251.466 308.602 235.078 343.714 238.448 335.508C246.043 317.03 251.568 303.262 258.668 280.16C261.439 275.247 265.442 264.191 270.061 258.356C284.687 249.859 290.195 247.317 297.807 244.638C300.938 243.546 323.467 238.684 330.259 239.776C337.956 241.004 330.72 249.45 323.176 250.832C316.505 252.06 315.153 251.77 305.163 256.667C298.184 260.079 295.019 262.638 295.926 263.269C309.474 272.636 317.172 285.381 313.905 294.884C311.783 301.658 308.773 309.694 304.855 314.71C300.544 320.238 295.926 317.781 294.54 320.084C289.117 329.092 282.651 338.92 280.188 343.817C273.79 356.579 273.328 362.431 255.109 400.136Z" fill="#B28B67"/>
<path fill-rule="evenodd" clip-rule="evenodd" d="M154.557 213.075C163.829 220.411 167.165 245.031 166.326 262.621C163.931 312.884 157.705 346.154 155.241 409.111C186.341 375.943 200.197 356.595 237.763 318.207L295.96 345.54C241.458 446.885 225.327 542.633 120.755 530.11C66.8689 523.661 54.3982 428.799 55.7838 400.205C59.1709 330.491 73.0272 227.611 128.281 206.932C128.624 206.148 142.651 203.657 154.557 213.075Z" fill="#DDE3E9"/>
</svg>
