<svg width="150" height="249" viewBox="0 0 150 249" fill="none" xmlns="http://www.w3.org/2000/svg">
<path d="M146.329 0C138.214 0 130.826 4.42008 126.587 11.6185C115.324 31.0668 112.78 68.3217 75.4775 68.3217C38.2958 68.3217 35.7524 31.1931 24.3678 11.6185C20.2499 4.42008 12.7409 0 4.62631 0H0.99292V118.079V179.96H4.62631C12.7409 179.96 20.1288 184.38 24.3678 191.579C35.6313 211.027 38.1747 248.282 75.4775 248.282C112.659 248.282 115.203 211.153 126.587 191.579C130.705 184.38 138.214 179.96 146.329 179.96H149.962V118.079V0H146.329Z" fill="#FFC836"/>
<path d="M61.8299 119.793C61.8299 122.326 61.5566 124.526 61.0099 126.393C60.4632 128.26 59.7099 129.806 58.7499 131.033C57.7899 132.246 56.6499 133.153 55.3299 133.753C54.0232 134.34 52.6099 134.633 51.0899 134.633C49.5699 134.633 48.1566 134.34 46.8499 133.753C45.5432 133.153 44.4166 132.246 43.4699 131.033C42.5232 129.806 41.7766 128.26 41.2299 126.393C40.6966 124.526 40.4299 122.326 40.4299 119.793C40.4299 117.26 40.6966 115.066 41.2299 113.213C41.7766 111.346 42.5232 109.806 43.4699 108.593C44.4166 107.366 45.5432 106.46 46.8499 105.873C48.1566 105.273 49.5699 104.973 51.0899 104.973C52.6099 104.973 54.0232 105.273 55.3299 105.873C56.6499 106.46 57.7899 107.366 58.7499 108.593C59.7099 109.806 60.4632 111.346 61.0099 113.213C61.5566 115.066 61.8299 117.26 61.8299 119.793ZM56.1299 119.793C56.1299 117.74 55.9832 116.046 55.6899 114.713C55.4099 113.38 55.0366 112.326 54.5699 111.553C54.1032 110.78 53.5632 110.24 52.9499 109.933C52.3499 109.626 51.7299 109.473 51.0899 109.473C50.4499 109.473 49.8299 109.626 49.2299 109.933C48.6432 110.24 48.1166 110.78 47.6499 111.553C47.1966 112.326 46.8299 113.38 46.5499 114.713C46.2699 116.046 46.1299 117.74 46.1299 119.793C46.1299 121.86 46.2699 123.56 46.5499 124.893C46.8299 126.226 47.1966 127.28 47.6499 128.053C48.1166 128.826 48.6432 129.366 49.2299 129.673C49.8299 129.98 50.4499 130.133 51.0899 130.133C51.7299 130.133 52.3499 129.98 52.9499 129.673C53.5632 129.366 54.1032 128.826 54.5699 128.053C55.0366 127.28 55.4099 126.226 55.6899 124.893C55.9832 123.56 56.1299 121.86 56.1299 119.793ZM83.723 130.253V134.313H67.443V130.253H73.203V114.373C73.203 114.026 73.2097 113.673 73.223 113.313C73.2364 112.953 73.2564 112.586 73.283 112.213L69.483 115.373C69.2164 115.573 68.9564 115.7 68.703 115.753C68.4497 115.806 68.2097 115.813 67.983 115.773C67.7564 115.72 67.5564 115.64 67.383 115.533C67.2097 115.413 67.0764 115.293 66.983 115.173L65.243 112.833L74.163 105.273H78.703V130.253H83.723ZM93.2361 114.073C93.2361 115.606 93.6095 116.773 94.3561 117.573C95.1161 118.373 96.2228 118.773 97.6761 118.773C98.4095 118.773 99.0628 118.66 99.6361 118.433C100.223 118.193 100.709 117.866 101.096 117.453C101.483 117.04 101.776 116.546 101.976 115.973C102.189 115.4 102.296 114.773 102.296 114.093C102.296 113.333 102.183 112.666 101.956 112.093C101.729 111.506 101.409 111.013 100.996 110.613C100.596 110.213 100.116 109.913 99.5561 109.713C98.9961 109.5 98.3761 109.393 97.6961 109.393C97.0028 109.393 96.3828 109.513 95.8361 109.753C95.2895 109.98 94.8228 110.306 94.4361 110.733C94.0495 111.146 93.7495 111.64 93.5361 112.213C93.3361 112.786 93.2361 113.406 93.2361 114.073ZM99.0561 123.173C99.2561 122.92 99.4495 122.673 99.6361 122.433C99.8228 122.193 100.009 121.953 100.196 121.713C99.5561 122.086 98.8561 122.373 98.0961 122.573C97.3495 122.76 96.5561 122.853 95.7161 122.853C94.7428 122.853 93.7761 122.68 92.8161 122.333C91.8695 121.986 91.0161 121.466 90.2561 120.773C89.4961 120.08 88.8828 119.213 88.4161 118.173C87.9495 117.12 87.7161 115.886 87.7161 114.473C87.7161 113.18 87.9561 111.96 88.4361 110.813C88.9161 109.653 89.5961 108.646 90.4761 107.793C91.3561 106.926 92.4095 106.24 93.6361 105.733C94.8761 105.226 96.2495 104.973 97.7561 104.973C99.2761 104.973 100.643 105.213 101.856 105.693C103.069 106.16 104.096 106.82 104.936 107.673C105.776 108.526 106.423 109.546 106.876 110.733C107.329 111.906 107.556 113.2 107.556 114.613C107.556 115.533 107.483 116.406 107.336 117.233C107.189 118.06 106.976 118.846 106.696 119.593C106.416 120.34 106.076 121.066 105.676 121.773C105.289 122.48 104.849 123.173 104.356 123.853L97.8961 133.073C97.6295 133.42 97.2428 133.713 96.7361 133.953C96.2428 134.193 95.6761 134.313 95.0361 134.313H89.9561L99.0561 123.173Z" fill="white"/>
<path d="M48.83 169.211C48.9913 169.211 49.1343 169.274 49.259 169.398L50.425 170.663C49.7796 171.463 48.984 172.075 48.038 172.5C47.0993 172.926 45.97 173.138 44.65 173.138C43.4693 173.138 42.406 172.937 41.46 172.533C40.5213 172.13 39.7183 171.569 39.051 170.85C38.3836 170.132 37.8703 169.274 37.511 168.276C37.159 167.279 36.983 166.19 36.983 165.009C36.983 163.814 37.1736 162.721 37.555 161.731C37.9363 160.734 38.4716 159.876 39.161 159.157C39.8576 158.439 40.6863 157.881 41.647 157.485C42.6076 157.082 43.671 156.88 44.837 156.88C45.9956 156.88 47.0223 157.071 47.917 157.452C48.819 157.834 49.5853 158.332 50.216 158.948L49.226 160.323C49.1673 160.411 49.0903 160.488 48.995 160.554C48.907 160.62 48.7823 160.653 48.621 160.653C48.511 160.653 48.3973 160.624 48.28 160.565C48.1626 160.499 48.0343 160.422 47.895 160.334C47.7556 160.239 47.5943 160.136 47.411 160.026C47.2276 159.916 47.015 159.817 46.773 159.729C46.531 159.634 46.2486 159.557 45.926 159.498C45.6106 159.432 45.244 159.399 44.826 159.399C44.1146 159.399 43.462 159.528 42.868 159.784C42.2813 160.034 41.7753 160.4 41.35 160.884C40.9246 161.361 40.5946 161.948 40.36 162.644C40.1253 163.334 40.008 164.122 40.008 165.009C40.008 165.904 40.1326 166.7 40.382 167.396C40.6386 168.093 40.9833 168.68 41.416 169.156C41.8486 169.633 42.3583 170 42.945 170.256C43.5316 170.506 44.1623 170.63 44.837 170.63C45.2403 170.63 45.6033 170.608 45.926 170.564C46.256 170.52 46.5566 170.451 46.828 170.355C47.1066 170.26 47.367 170.139 47.609 169.992C47.8583 169.838 48.104 169.651 48.346 169.431C48.4193 169.365 48.4963 169.314 48.577 169.277C48.6576 169.233 48.742 169.211 48.83 169.211ZM54.8899 162.886C55.3299 162.476 55.8139 162.142 56.3419 161.885C56.8699 161.629 57.4895 161.5 58.2009 161.5C58.8169 161.5 59.3632 161.607 59.8399 161.819C60.3165 162.025 60.7125 162.318 61.0279 162.699C61.3505 163.073 61.5925 163.524 61.7539 164.052C61.9225 164.573 62.0069 165.149 62.0069 165.779V172.962H59.2899V165.779C59.2899 165.09 59.1322 164.558 58.8169 164.184C58.5015 163.803 58.0212 163.612 57.3759 163.612C56.9065 163.612 56.4665 163.719 56.0559 163.931C55.6452 164.144 55.2565 164.434 54.8899 164.8V172.962H52.1729V156.616H54.8899V162.886ZM70.7028 168.144C69.9182 168.181 69.2582 168.251 68.7228 168.353C68.1875 168.449 67.7585 168.573 67.4358 168.727C67.1132 168.881 66.8822 169.061 66.7428 169.266C66.6035 169.472 66.5338 169.695 66.5338 169.937C66.5338 170.414 66.6732 170.755 66.9518 170.96C67.2378 171.166 67.6082 171.268 68.0628 171.268C68.6202 171.268 69.1005 171.169 69.5038 170.971C69.9145 170.766 70.3142 170.458 70.7028 170.047V168.144ZM64.4768 163.249C65.7748 162.061 67.3368 161.467 69.1628 161.467C69.8228 161.467 70.4132 161.577 70.9338 161.797C71.4545 162.01 71.8945 162.311 72.2538 162.699C72.6132 163.081 72.8845 163.539 73.0678 164.074C73.2585 164.61 73.3538 165.196 73.3538 165.834V172.962H72.1218C71.8652 172.962 71.6672 172.926 71.5278 172.852C71.3885 172.772 71.2785 172.614 71.1978 172.379L70.9558 171.565C70.6698 171.822 70.3912 172.049 70.1198 172.247C69.8485 172.438 69.5662 172.599 69.2728 172.731C68.9795 172.863 68.6642 172.962 68.3268 173.028C67.9968 173.102 67.6302 173.138 67.2268 173.138C66.7502 173.138 66.3102 173.076 65.9068 172.951C65.5035 172.819 65.1552 172.625 64.8618 172.368C64.5685 172.112 64.3412 171.793 64.1798 171.411C64.0185 171.03 63.9378 170.586 63.9378 170.08C63.9378 169.794 63.9855 169.512 64.0808 169.233C64.1762 168.947 64.3302 168.676 64.5428 168.419C64.7628 168.163 65.0452 167.921 65.3898 167.693C65.7345 167.466 66.1562 167.268 66.6548 167.099C67.1608 166.931 67.7475 166.795 68.4148 166.692C69.0822 166.582 69.8448 166.516 70.7028 166.494V165.834C70.7028 165.079 70.5415 164.522 70.2188 164.162C69.8962 163.796 69.4305 163.612 68.8218 163.612C68.3818 163.612 68.0152 163.664 67.7218 163.766C67.4358 163.869 67.1828 163.986 66.9628 164.118C66.7428 164.243 66.5412 164.357 66.3578 164.459C66.1818 164.562 65.9838 164.613 65.7638 164.613C65.5732 164.613 65.4118 164.566 65.2798 164.47C65.1478 164.368 65.0415 164.25 64.9608 164.118L64.4768 163.249ZM76.0627 172.962V161.676H77.7237C78.0757 161.676 78.3067 161.841 78.4167 162.171L78.5927 163.007C78.7907 162.787 78.9961 162.586 79.2087 162.402C79.4287 162.219 79.6597 162.061 79.9017 161.929C80.1511 161.797 80.4151 161.695 80.6937 161.621C80.9797 161.541 81.2914 161.5 81.6287 161.5C82.3401 161.5 82.9231 161.695 83.3777 162.083C83.8397 162.465 84.1844 162.974 84.4117 163.612C84.5877 163.238 84.8077 162.919 85.0717 162.655C85.3357 162.384 85.6254 162.164 85.9407 161.995C86.2561 161.827 86.5897 161.702 86.9417 161.621C87.3011 161.541 87.6604 161.5 88.0197 161.5C88.6431 161.5 89.1967 161.596 89.6807 161.786C90.1647 161.977 90.5717 162.256 90.9017 162.622C91.2317 162.989 91.4811 163.436 91.6497 163.964C91.8257 164.492 91.9137 165.097 91.9137 165.779V172.962H89.1967V165.779C89.1967 165.061 89.0391 164.522 88.7237 164.162C88.4084 163.796 87.9464 163.612 87.3377 163.612C87.0591 163.612 86.7987 163.66 86.5567 163.755C86.3221 163.851 86.1131 163.99 85.9297 164.173C85.7537 164.349 85.6144 164.573 85.5117 164.844C85.4091 165.116 85.3577 165.427 85.3577 165.779V172.962H82.6297V165.779C82.6297 165.024 82.4757 164.474 82.1677 164.129C81.8671 163.785 81.4234 163.612 80.8367 163.612C80.4407 163.612 80.0704 163.711 79.7257 163.909C79.3884 164.1 79.0731 164.364 78.7797 164.701V172.962H76.0627ZM100.608 168.144C99.8236 168.181 99.1636 168.251 98.6283 168.353C98.093 168.449 97.664 168.573 97.3413 168.727C97.0186 168.881 96.7876 169.061 96.6483 169.266C96.509 169.472 96.4393 169.695 96.4393 169.937C96.4393 170.414 96.5786 170.755 96.8573 170.96C97.1433 171.166 97.5136 171.268 97.9683 171.268C98.5256 171.268 99.006 171.169 99.4093 170.971C99.82 170.766 100.22 170.458 100.608 170.047V168.144ZM94.3823 163.249C95.6803 162.061 97.2423 161.467 99.0683 161.467C99.7283 161.467 100.319 161.577 100.839 161.797C101.36 162.01 101.8 162.311 102.159 162.699C102.519 163.081 102.79 163.539 102.973 164.074C103.164 164.61 103.259 165.196 103.259 165.834V172.962H102.027C101.771 172.962 101.573 172.926 101.433 172.852C101.294 172.772 101.184 172.614 101.103 172.379L100.861 171.565C100.575 171.822 100.297 172.049 100.025 172.247C99.754 172.438 99.4716 172.599 99.1783 172.731C98.885 172.863 98.5696 172.962 98.2323 173.028C97.9023 173.102 97.5356 173.138 97.1323 173.138C96.6556 173.138 96.2156 173.076 95.8123 172.951C95.409 172.819 95.0606 172.625 94.7673 172.368C94.474 172.112 94.2466 171.793 94.0853 171.411C93.924 171.03 93.8433 170.586 93.8433 170.08C93.8433 169.794 93.891 169.512 93.9863 169.233C94.0816 168.947 94.2356 168.676 94.4483 168.419C94.6683 168.163 94.9506 167.921 95.2953 167.693C95.64 167.466 96.0616 167.268 96.5603 167.099C97.0663 166.931 97.653 166.795 98.3203 166.692C98.9876 166.582 99.7503 166.516 100.608 166.494V165.834C100.608 165.079 100.447 164.522 100.124 164.162C99.8016 163.796 99.336 163.612 98.7273 163.612C98.2873 163.612 97.9206 163.664 97.6273 163.766C97.3413 163.869 97.0883 163.986 96.8683 164.118C96.6483 164.243 96.4466 164.357 96.2633 164.459C96.0873 164.562 95.8893 164.613 95.6693 164.613C95.4786 164.613 95.3173 164.566 95.1853 164.47C95.0533 164.368 94.947 164.25 94.8663 164.118L94.3823 163.249ZM108.531 163.634C108.883 162.96 109.301 162.432 109.785 162.05C110.269 161.662 110.841 161.467 111.501 161.467C112.022 161.467 112.44 161.581 112.755 161.808L112.579 163.843C112.543 163.975 112.488 164.071 112.414 164.129C112.348 164.181 112.257 164.206 112.139 164.206C112.029 164.206 111.864 164.188 111.644 164.151C111.432 164.115 111.223 164.096 111.017 164.096C110.717 164.096 110.449 164.14 110.214 164.228C109.98 164.316 109.767 164.445 109.576 164.613C109.393 164.775 109.228 164.973 109.081 165.207C108.942 165.442 108.81 165.71 108.685 166.01V172.962H105.968V161.676H107.563C107.842 161.676 108.036 161.728 108.146 161.83C108.256 161.926 108.33 162.102 108.366 162.358L108.531 163.634Z" fill="white"/>
</svg>
