<svg width="100" height="33" viewBox="0 0 100 33" fill="none" xmlns="http://www.w3.org/2000/svg">
<path d="M0 31.8775V10.2051H2.2678C2.80979 10.2051 3.15209 10.469 3.29472 10.9967L3.59424 13.35C4.53559 12.3089 5.58391 11.4674 6.73921 10.8255C7.90876 10.1837 9.2566 9.86278 10.7827 9.86278C11.9665 9.86278 13.0077 10.0625 13.9063 10.4618C14.8191 10.8469 15.5751 11.4032 16.1741 12.1306C16.7874 12.8437 17.2509 13.7066 17.5647 14.7193C17.8785 15.732 18.0354 16.8516 18.0354 18.0782V31.8775H14.2272V18.0782C14.2272 16.438 13.8492 15.1686 13.0933 14.27C12.3516 13.3572 11.2106 12.9008 9.67023 12.9008C8.54346 12.9008 7.48801 13.1718 6.50387 13.7138C5.53399 14.2557 4.63543 14.9903 3.80819 15.9174V31.8775H0Z" fill="#4C0788"/>
<path d="M39.7737 31.8775H38.0835C37.7127 31.8775 37.4132 31.8205 37.185 31.7064C36.9568 31.5923 36.807 31.3498 36.7357 30.979L36.3078 28.9679C35.7373 29.4814 35.181 29.9449 34.639 30.3585C34.0971 30.7579 33.5265 31.1002 32.9275 31.3855C32.3285 31.6564 31.6866 31.8633 31.002 32.0059C30.3317 32.1485 29.5829 32.2198 28.7556 32.2198C27.9141 32.2198 27.1225 32.1057 26.3808 31.8775C25.6534 31.6351 25.0187 31.2785 24.4768 30.8078C23.9348 30.3371 23.4997 29.7452 23.1717 29.0321C22.8579 28.3047 22.701 27.4489 22.701 26.4648C22.701 25.609 22.9364 24.7889 23.407 24.0044C23.8777 23.2057 24.6336 22.4997 25.6748 21.8864C26.7303 21.2731 28.1067 20.7739 29.8039 20.3888C31.5012 19.9894 33.5765 19.7612 36.0297 19.7042V18.014C36.0297 16.331 35.666 15.0616 34.9386 14.2058C34.2254 13.3358 33.1628 12.9008 31.7508 12.9008C30.8237 12.9008 30.0393 13.022 29.3974 13.2645C28.7699 13.4927 28.2208 13.7565 27.7501 14.0561C27.2937 14.3413 26.8943 14.6052 26.552 14.8477C26.224 15.0759 25.8959 15.19 25.5679 15.19C25.3111 15.19 25.0829 15.1258 24.8833 14.9974C24.6978 14.8548 24.5481 14.6836 24.434 14.4839L23.7494 13.2645C24.9474 12.1092 26.2382 11.2463 27.6217 10.6758C29.0052 10.1052 30.5385 9.81999 32.2215 9.81999C33.4338 9.81999 34.5107 10.0197 35.452 10.419C36.3934 10.8184 37.185 11.3746 37.8268 12.0878C38.4686 12.8009 38.9536 13.6638 39.2816 14.6765C39.6097 15.6892 39.7737 16.8017 39.7737 18.014V31.8775ZM29.8895 29.5455C30.5599 29.5455 31.1732 29.4814 31.7294 29.353C32.2857 29.2104 32.8063 29.0178 33.2912 28.7753C33.7904 28.5186 34.2611 28.212 34.7032 27.8554C35.1597 27.4988 35.6018 27.0923 36.0297 26.6359V22.1217C34.2753 22.1788 32.7849 22.3214 31.5583 22.5496C30.3317 22.7635 29.3333 23.0488 28.5631 23.4054C27.7929 23.7619 27.2295 24.1827 26.8729 24.6676C26.5306 25.1526 26.3595 25.6946 26.3595 26.2936C26.3595 26.8641 26.4522 27.3562 26.6376 27.7698C26.823 28.1834 27.0726 28.5257 27.3864 28.7967C27.7002 29.0535 28.071 29.246 28.4989 29.3744C28.9268 29.4885 29.3903 29.5455 29.8895 29.5455Z" fill="#4C0788"/>
<path d="M46.2652 31.8775V13.9063L44.3611 13.6068C43.9475 13.5355 43.6123 13.3928 43.3556 13.1789C43.1131 12.965 42.9919 12.6654 42.9919 12.2803V10.1195H46.2652V9.4135C46.2652 8.07279 46.4863 6.83192 46.9284 5.69089C47.3706 4.5356 48.0409 3.53719 48.9395 2.69568C49.838 1.85417 50.9719 1.19808 52.3412 0.727408C53.7104 0.24247 55.3292 0 57.1977 0C57.7967 0 58.41 0.035658 59.0376 0.106974C59.6652 0.164025 60.2071 0.263864 60.6636 0.406493L60.4924 3.14497C60.4639 3.47301 60.2856 3.67269 59.9575 3.74401C59.6295 3.80106 59.223 3.82958 58.7381 3.82958C57.3546 3.82958 56.1921 3.95082 55.2508 4.19329C54.3237 4.43575 53.5678 4.79946 52.983 5.2844C52.4125 5.75507 51.9989 6.35411 51.7421 7.08152C51.4997 7.79466 51.3784 8.62904 51.3784 9.58465V10.1195H64.9852V31.8775H59.7008V13.8849H51.5496V31.8775H46.2652Z" fill="#4C0788"/>
<path d="M76.729 0.0855792V31.8775H71.4446V0.0855792H76.729Z" fill="#4C0788"/>
<path d="M100 31.8775H97.6252C97.126 31.8775 96.7338 31.8062 96.4485 31.6636C96.1633 31.5067 95.9493 31.2 95.8067 30.7436L95.336 29.1818C94.7798 29.681 94.2307 30.1232 93.6887 30.5083C93.1609 30.8791 92.6118 31.1929 92.0413 31.4496C91.4708 31.7064 90.8646 31.8989 90.2228 32.0273C89.581 32.1556 88.8678 32.2198 88.0834 32.2198C87.1563 32.2198 86.3005 32.0986 85.5161 31.8561C84.7316 31.5994 84.0541 31.2214 83.4836 30.7222C82.9273 30.223 82.4923 29.6026 82.1785 28.8609C81.8648 28.1193 81.7079 27.2563 81.7079 26.2722C81.7079 25.445 81.9218 24.632 82.3497 23.8333C82.7918 23.0203 83.5192 22.2929 84.5319 21.651C85.5446 20.995 86.8924 20.453 88.5754 20.0251C90.2585 19.5972 92.348 19.3547 94.844 19.2977V18.014C94.844 16.5449 94.5302 15.461 93.9026 14.7621C93.2893 14.0489 92.3908 13.6924 91.2069 13.6924C90.3512 13.6924 89.638 13.7922 89.0675 13.9919C88.497 14.1916 87.9978 14.4198 87.5699 14.6765C87.1563 14.919 86.7712 15.14 86.4146 15.3397C86.058 15.5394 85.6658 15.6392 85.2379 15.6392C84.8814 15.6392 84.5747 15.5465 84.318 15.3611C84.0612 15.1757 83.8544 14.9475 83.6975 14.6765L82.7348 12.9863C85.2593 10.6758 88.3044 9.52047 91.8702 9.52047C93.1538 9.52047 94.2949 9.73441 95.2933 10.1623C96.3059 10.5759 97.1617 11.1607 97.8606 11.9166C98.5594 12.6583 99.0872 13.5497 99.4437 14.5909C99.8146 15.6321 100 16.7731 100 18.014V31.8775ZM89.7307 28.5828C90.2727 28.5828 90.7719 28.5329 91.2283 28.433C91.6847 28.3332 92.1126 28.1834 92.512 27.9838C92.9256 27.7841 93.3178 27.5416 93.6887 27.2564C94.0738 26.9568 94.4589 26.6074 94.844 26.208V22.5068C93.3036 22.5781 92.0128 22.7136 90.9716 22.9133C89.9447 23.0987 89.1174 23.3412 88.4899 23.6407C87.8623 23.9402 87.413 24.2897 87.142 24.689C86.8853 25.0884 86.7569 25.5234 86.7569 25.9941C86.7569 26.9212 87.0279 27.5844 87.5699 27.9838C88.1262 28.3831 88.8464 28.5828 89.7307 28.5828Z" fill="#4C0788"/>
</svg>
