<svg width="192" height="75" viewBox="0 0 192 75" fill="none" xmlns="http://www.w3.org/2000/svg"><path d="M37.938 36.28c0 4.455.017 8.91-.007 13.364-.014 2.48-.241 4.94-1.106 7.298-.916 2.503-2.395 4.58-5.003 5.467-3.785 1.286-7.468.986-10.788-1.393-1.68-1.206-2.48-3.038-3.068-4.959-.19-.623-.357-1.257-.577-1.87-.733-2.033-2.86-3.307-4.877-2.924-1.411.269-2.23 1.236-2.8 2.457-.621 1.329-.883 2.753-1.026 4.197-.189 1.92-.307 3.847-.111 5.778.167 1.66.569 3.253 1.54 4.643 1.529 2.187 4.235 3.11 6.931 2.4 1.916-.503 3.54-1.532 5.026-2.799.26-.22.367-.232.533.08.27.51.578.997.888 1.483.12.189.117.307-.045.48-5.52 5.979-14.065 5.54-19.014 1.48-2.79-2.29-4.252-5.274-4.415-8.875-.122-2.693.342-5.28 1.649-7.655 2.247-4.085 5.75-6.271 10.413-6.607 1.367-.097 2.716.05 4.025.468 2.395.763 3.987 2.359 4.854 4.696.345.933.667 1.876 1.14 2.755.569 1.058 1.29 1.974 2.538 2.256a5.003 5.003 0 0 0 2.818-.156c.815-.29 1.315-.924 1.657-1.688.55-1.225.724-2.537.852-3.854.137-1.441.146-2.89.144-4.338-.002-5.888.009-11.774-.007-17.662-.003-1.509-.03-3.02-.402-4.498-.447-1.784-1.436-2.625-3.284-2.788a21.108 21.108 0 0 0-1.92-.084c-2.721.007-5.443.009-8.165-.005-.337-.001-.45.065-.449.428.02 3.94.004 7.881.035 11.82.008 1.18.098 2.364.423 3.513.476 1.682 1.41 2.46 3.158 2.645.482.051.963.116 1.45.087.268-.017.399.04.382.35-.028.465-.024.934-.002 1.4.015.298-.1.364-.377.364-5.975-.006-11.95-.006-17.925.002-.315 0-.402-.097-.387-.399.024-.45.023-.904 0-1.354-.014-.282.064-.38.361-.366.674.03 1.341-.048 2.003-.177 1.281-.248 2.124-.988 2.525-2.227.318-.986.436-2.007.48-3.032.17-4.22.044-8.44.089-12.658.003-.305-.08-.397-.392-.396-1.596.016-3.192-.012-4.786.02-.436.008-.52-.133-.503-.525.03-.715.04-1.434-.002-2.149-.026-.453.144-.532.554-.525 1.564.022 3.127-.002 4.692.017.354.005.444-.09.442-.442-.014-1.9-.041-3.8.017-5.7.074-2.43.56-4.783 1.644-6.987 1.503-3.058 3.865-5.186 7.11-6.245 4.006-1.31 8.005-1.196 11.895.479 2.252.969 3.963 2.532 4.71 4.953.271.882.412 1.788.254 2.716-.316 1.854-2.206 3.037-4.005 2.518-.995-.287-1.477-1.043-1.797-1.938-.342-.954-.488-1.959-.765-2.931a8.099 8.099 0 0 0-.534-1.44c-.802-1.584-2.175-2.178-3.87-2.246-3.42-.14-5.634 1.874-6.478 5.228a13.229 13.229 0 0 0-.389 3.236c0 2.772.009 5.546-.01 8.318-.002.389.093.484.485.484 7.007-.013 14.015-.005 21.022-.02.466-.002.555.13.555.568-.014 5.152-.008 10.31-.008 15.464z" fill="#007495"/><path d="M191.997 37.164c-.688-.075-.807.015-.797.683.007.433-.106.887.21 1.286.109.137-.015.253-.184.296-1.27.327-2.546.628-3.856.247-1.677-.487-2.686-2.023-2.509-3.764.18-1.779 1.47-3.071 3.215-3.253.977-.1 1.923.087 2.873.25.19.033.32.094.324.337.003.39.055.781.079 1.172.005.095.039.222-.112.256-.122.028-.205-.03-.261-.135-.018-.03-.038-.062-.05-.094-.43-1.108-1.285-1.478-2.401-1.324-1.148.16-1.882.83-2.166 1.942-.299 1.171-.22 2.303.543 3.306.623.817 1.746 1.182 2.734.93.306-.079.456-.231.428-.557-.019-.229-.001-.464-.003-.695-.007-.698-.083-.792-.753-.926-.136-.027-.301.002-.299-.214.001-.23.172-.187.306-.185.894.002 1.788.009 2.682.014-.003.142-.003.286-.003.428z" fill="#007496"/><path d="M90.912 37.556c0-1.226.009-2.452-.005-3.678-.003-.41-.211-.664-.66-.68-.158-.005-.411.06-.383-.229.027-.28.273-.168.428-.171a58.902 58.902 0 0 1 1.822-.002c.148.002.351-.058.348.204-.002.22-.183.193-.313.195-.496.007-.637.291-.635.733.007 1.765.009 3.53-.005 5.294-.002.202.167.495-.129.604-.282.105-.392-.185-.535-.353-1.275-1.517-2.544-3.037-3.819-4.554-.12-.144-.254-.279-.433-.472 0 1.441-.015 2.802.009 4.163.008.485.38.644.813.677.155.012.35-.031.316.23-.027.213-.206.174-.335.165a15.67 15.67 0 0 0-2.25.002c-.145.01-.291.014-.293-.205-.002-.19.119-.18.248-.194.612-.06.858-.42.858-1.012-.002-1.46.013-2.922.019-4.383.001-.484-.327-.625-.735-.683-.144-.02-.36.045-.36-.205 0-.3.245-.197.398-.202 1.501-.041 1.498-.036 2.445 1.107 1.022 1.233 2.046 2.462 3.071 3.693.036-.017.076-.03.115-.044zM182.125 37.742c0-1.376.004-2.588-.001-3.8-.002-.464-.208-.738-.71-.745-.14-.002-.358.05-.355-.207.004-.26.212-.192.356-.194.643-.007 1.286-.003 1.931-.002.14 0 .305-.03.315.185.01.213-.15.22-.292.216-.549-.012-.637.324-.635.774.009 1.801.007 3.602-.002 5.402 0 .154.124.376-.127.457-.235.075-.356-.11-.481-.259-1.307-1.561-2.61-3.123-3.919-4.682-.108-.13-.186-.3-.444-.4.026 1.434-.07 2.83.068 4.223.044.443.417.529.79.573.133.016.313-.044.319.18.005.248-.184.228-.343.216a14.49 14.49 0 0 0-2.197 0c-.134.01-.299.041-.322-.178-.022-.221.129-.207.274-.224.584-.074.822-.427.82-.992-.002-1.462.002-2.924.014-4.386.003-.498-.324-.625-.721-.695-.16-.028-.4.048-.366-.249.029-.258.243-.155.38-.16 1.501-.043 1.499-.04 2.445 1.102 1.033 1.248 2.072 2.488 3.203 3.846zM136.763 34.452c0 1.414-.009 2.746.004 4.076.005.504.328.713.797.759.14.014.363-.075.351.195-.014.29-.256.207-.407.195a14.952 14.952 0 0 0-2.09 0c-.137.01-.342.09-.376-.168-.034-.265.17-.212.315-.236.493-.08.765-.358.768-.866.012-1.515.029-3.029.031-4.544 0-.485-.356-.61-.758-.661-.151-.019-.356.02-.334-.231.021-.255.232-.154.373-.176.052-.01.109.006.16-.002 1.063-.202 1.73.293 2.346 1.125.944 1.273 2.011 2.456 3.022 3.674.052-.024.109-.04.109-.053.008-1.23.019-2.457.01-3.687-.003-.462-.289-.659-.738-.655-.137.002-.306.012-.306-.204 0-.214.159-.199.303-.199h2.038c.128 0 .256 0 .264.182.007.17-.094.217-.235.212-.624-.024-.721.351-.716.868.016 1.766.011 3.53 0 5.294 0 .158.121.382-.099.471-.255.103-.38-.115-.518-.277a5115.803 5115.803 0 0 0-4.128-4.923c-.031-.04-.076-.072-.186-.17zM102.034 32.5h.123c.217.029.434.053.649.087 2.708.43 3.555 3.275 2.505 5.215-1.071 1.976-3.568 2.375-5.327 1.46-1.477-.77-1.976-2.4-1.663-3.903.313-1.5 1.317-2.364 2.782-2.72.305-.074.621-.093.931-.14zm-.21 6.792c1.258 0 2.046-.594 2.367-1.538.236-.693.269-1.407.193-2.126-.07-.678-.289-1.301-.736-1.837-1.014-1.217-3.067-1.18-3.762.514-.583 1.419-.433 2.79.457 4.047.428.604 1.044.935 1.481.94zM77.562 35.727c0-.606-.019-1.214.007-1.818.017-.416-.144-.639-.552-.698-.163-.024-.41.035-.371-.249.038-.274.282-.159.437-.162.732-.012 1.465-.01 2.197-.002.141.002.35-.09.39.157.038.247-.158.235-.316.247-.421.032-.578.255-.57.673.016 1.23-.008 2.46.01 3.691.013 1.08.558 1.613 1.666 1.676 1.107.064 1.783-.44 1.936-1.472.187-1.259.087-2.527.074-3.79-.006-.461-.205-.792-.743-.783-.145.002-.3-.01-.287-.223.013-.22.184-.18.318-.18.626-.003 1.252-.005 1.876.002.129.002.306-.06.337.158.029.2-.109.226-.262.253-.519.093-.548.503-.553.902-.012.927-.014 1.855-.002 2.782.03 2.6-1.542 3.171-3.56 2.9-1.449-.196-2.03-.94-2.032-2.406v-1.658zM150.532 35.712c0-.59-.022-1.178.007-1.765.024-.46-.136-.716-.612-.745-.162-.01-.349-.005-.316-.248.027-.21.204-.16.338-.16a272.79 272.79 0 0 1 2.359 0c.131 0 .31-.054.332.165.024.246-.165.227-.323.245-.411.044-.574.265-.567.683.017 1.176-.007 2.354.01 3.53.022 1.546 1.463 2.353 2.835 1.603.442-.242.685-.623.759-1.106.206-1.348.13-2.702.08-4.055-.015-.416-.256-.643-.689-.66-.148-.006-.356.027-.335-.228.022-.255.232-.173.374-.175a64.409 64.409 0 0 1 1.823 0c.139.002.344-.082.356.188.009.216-.148.197-.287.225-.521.1-.537.529-.545.914-.023.962-.007 1.926-.009 2.888-.002 1.046-.187 2.048-1.252 2.52-1.169.52-2.379.489-3.497-.184-.662-.4-.815-1.098-.836-1.817-.018-.604-.005-1.21-.005-1.818zM56.603 39.684c-.822 0-1.644.002-2.468-.002-.15 0-.342.052-.34-.21.002-.235.177-.178.306-.185.549-.023.722-.322.715-.84-.019-1.461-.019-2.922 0-4.382.007-.531-.14-.872-.737-.867-.147.002-.294-.006-.282-.22.012-.228.18-.18.313-.18 1.537-.004 3.074 0 4.611-.004.213 0 .337.052.34.293.006.32.035.639.05.959.006.108.007.224-.14.241-.131.014-.2-.07-.217-.186-.108-.69-.597-.805-1.183-.807-.495-.001-1.125-.23-1.444.07-.298.281-.085.913-.09 1.39-.012 1.138-.003 1.124 1.128 1.136.537.005.93-.108.925-.741-.002-.15.034-.233.206-.23.178.004.193.093.191.24-.007.604-.008 1.21.004 1.816.003.156-.035.235-.196.245-.18.012-.205-.097-.203-.236.005-.48-.317-.575-.709-.61-1.35-.12-1.35-.123-1.35 1.189v.587c.002.793.197 1 1.001 1.044.25.014.5-.001.752.007.662.022 1.188-.193 1.503-.813.079-.156.18-.353.398-.262.269.111.047.308.014.443-.3 1.204-.306 1.19-1.544 1.105-.516-.036-1.037-.005-1.554-.005v.015z" fill="#017496"/><path d="M62.922 32.784c.71.048 1.39-.05 2.068.058.691.11 1.224.437 1.412 1.136.197.732.182 1.46-.39 2.05-.556.574-1.27.771-2.05.752-.141-.003-.354.02-.334-.236.02-.243.203-.139.325-.144.834-.043 1.22-.435 1.248-1.282.05-1.38-.582-2.032-1.85-1.93-.24.02-.34.082-.338.343.01 1.693.012 3.385.003 5.078-.002.462.258.623.659.676.139.019.354-.067.34.206-.014.258-.218.2-.361.19a19.596 19.596 0 0 0-2.517 0c-.13.008-.308.048-.336-.166-.032-.262.164-.221.319-.23.509-.024.72-.296.718-.794a486.788 486.788 0 0 1-.001-4.49c.001-.484-.181-.784-.707-.8-.151-.006-.356.016-.327-.235.03-.252.24-.16.38-.168.593-.041 1.183.077 1.739-.014z" fill="#007496"/><path d="M49.341 34.59c0 1.298 0 1.291 1.302 1.293.483 0 .918-.026.92-.671 0-.168.13-.192.267-.185.163.009.134.132.134.233.001.606 0 1.21.003 1.817 0 .135.002.255-.184.246-.156-.008-.227-.1-.22-.243.03-.644-.406-.7-.887-.714-1.331-.04-1.331-.041-1.331 1.277 0 .195-.002.392 0 .587.007.855.1.956.966 1.057.119.014.258-.024.265.173.007.207-.117.234-.275.224a24.358 24.358 0 0 0-2.894-.002c-.125.009-.253.01-.27-.172-.019-.213.108-.223.267-.225.58-.005.737-.318.727-.866-.031-1.46-.026-2.923-.002-4.383.009-.519-.132-.829-.698-.836-.14-.002-.296.004-.292-.214.003-.227.167-.191.302-.191 1.646-.002 3.29-.002 4.935 0 .138 0 .315-.033.325.177.02.41.024.819.033 1.228.002.074-.022.14-.112.152-.132.018-.198-.05-.216-.174-.12-.748-.654-.899-1.3-.896-.465.002-.93 0-1.395-.022-.28-.014-.385.09-.37.368.014.32 0 .64 0 .962zM168.337 36.164c0 .765.029 1.534-.01 2.297-.028.555.218.785.734.824.155.012.401-.08.361.231-.032.254-.244.17-.382.163-.875-.052-1.75-.05-2.625 0-.153.008-.396.089-.402-.202-.007-.269.216-.18.355-.188.515-.03.762-.25.752-.805-.026-1.586-.021-3.171 0-4.757.005-.385-.124-.506-.49-.467-.231.026-.464.014-.697.012-.514-.003-.847.214-.961.736-.036.168-.082.38-.335.315-.244-.061-.117-.262-.105-.4.034-.408.086-.814.132-1.221.035-.294.172-.343.358-.116.146.178.33.196.528.198 1.449.004 2.899.005 4.347.005.218 0 .431-.037.603-.183.114-.096.229-.209.375-.123.122.073.06.23.053.344-.025.426-.067.85-.099 1.277-.009.11-.014.221-.164.223-.13.002-.216-.024-.273-.182-.31-.885-.318-.882-1.24-.882-.142 0-.287.014-.43-.003-.307-.036-.397.094-.392.392.018.837.007 1.675.007 2.512z" fill="#017496"/><path d="M122.492 39.84c-2.798 0-4.424-2.019-3.791-4.604.4-1.637 2.044-2.75 3.827-2.618.719.053 1.393.319 2.108.372.132.01.189.054.194.188.018.41.038.818.062 1.228.007.113.012.22-.136.236-.13.014-.175-.08-.227-.182-.797-1.583-2.704-1.852-3.93-.556-1.321 1.397-.772 4.412.954 5.26 1.083.53 2.273.126 2.806-.958a4.43 4.43 0 0 0 .15-.342c.048-.123.137-.147.256-.127.136.023.175.101.155.226-.071.422-.146.843-.207 1.266-.027.191-.185.205-.311.244-.646.208-1.291.43-1.91.367zM73.015 36.948c0-.943.002-1.887 0-2.83-.002-.726-.124-.844-.865-.92-.162-.017-.463.107-.444-.217.018-.313.303-.176.468-.18.911-.013 1.821-.01 2.732-.002.153.002.397-.097.394.206-.003.255-.225.19-.363.194-.543.015-.734.273-.729.813.02 1.761.012 3.525-.013 5.287-.013.811-.207 1.585-.724 2.244-.516.656-1.187.877-1.943.66-.348-.102-.554-.319-.607-.668-.033-.221.005-.437.256-.522.256-.088.455-.02.564.246.026.065.05.134.084.195.108.199.255.343.504.33.275-.015.414-.19.493-.422.174-.514.183-1.051.193-1.582.012-.945 0-1.889 0-2.832zM146.435 32.65c.072.004.143.01.215.013 1.104.077 1.166.142 1.161 1.229 0 .094.069.22-.086.264-.157.042-.222-.052-.272-.182-.175-.452-.445-.805-.954-.924-.564-.134-1.137.09-1.379.561-.253.492-.122 1.152.357 1.474.503.338 1.053.605 1.57.918.478.29.922.62 1.096 1.193.395 1.303-.379 2.435-1.821 2.62-.37.048-.755.043-1.125-.009-1.045-.145-1.389-.606-1.289-1.647.006-.075.008-.142.086-.173.092-.039.197-.017.242.059.072.12.105.263.162.392.368.835 1.014 1.166 1.905.976a1.112 1.112 0 0 0 .605-1.841c-.241-.272-.547-.454-.858-.633-.325-.189-.653-.37-.961-.583-.905-.626-1.254-1.599-.917-2.501.324-.872 1.13-1.3 2.263-1.205zM161.021 39.684c-.769 0-1.537.004-2.306-.003-.16-.002-.397.082-.404-.206-.005-.264.218-.176.359-.19.478-.051.671-.298.664-.784a197.743 197.743 0 0 1-.002-4.491c.006-.495-.158-.788-.687-.808-.153-.005-.356.014-.329-.235.028-.25.238-.167.38-.17.822-.006 1.644-.004 2.468 0 .148 0 .354-.064.357.193.004.253-.208.2-.354.21-.464.033-.65.272-.646.733.013 1.48.001 2.959.006 4.438.002.592.164.776.748.813.41.028.821.033 1.232-.029.562-.084.859-.464 1.103-.918.088-.164.136-.423.401-.323.263.099.05.311.026.45-.076.418-.086.928-.337 1.212-.279.315-.808.024-1.23.058-.479.038-.966.009-1.449.009v.041z" fill="#007496"/><path d="M173.439 32.793c.428 0 .856-.002 1.285.001.137.002.3-.032.306.19.003.216-.155.211-.294.211-.563-.002-.719.294-.711.82.024 1.478.028 2.955-.001 4.431-.011.533.168.81.708.837.133.007.306-.042.301.19-.005.259-.201.215-.349.204a19.889 19.889 0 0 0-2.516-.002c-.137.009-.343.086-.371-.172-.027-.267.17-.213.32-.221.505-.028.708-.278.7-.793a171.684 171.684 0 0 1-.002-4.539c.005-.488-.187-.733-.678-.755-.144-.007-.349.043-.34-.217.01-.267.218-.182.358-.185.428-.005.856 0 1.284 0z" fill="#027496"/><path d="M94.508 36.191c0-.73-.022-1.462.007-2.193.02-.51-.172-.776-.691-.8-.135-.006-.312.014-.313-.198-.002-.255.196-.206.347-.206.84-.003 1.682-.003 2.52 0 .135 0 .312-.05.34.16.032.246-.16.241-.319.245-.528.013-.703.297-.698.797.016 1.498.02 2.997-.001 4.493-.007.519.213.76.711.794.133.009.313-.044.315.182.002.25-.19.222-.346.212-.84-.056-1.68-.056-2.52 0-.151.01-.348.048-.354-.203-.007-.228.17-.185.304-.192.548-.026.724-.326.703-.848-.027-.743-.005-1.493-.005-2.243z" fill="#007496"/><path d="M110.203 32.825l-2.97-.003-.029-.016.028-.017h2.971c.031.012.029.024 0 .036z" fill="#FEFEFE"/><path d="M110.203 32.825a.073.073 0 0 0 .002-.036h.495c.002.01.003.023.002.035l-.499.001z" fill="#C1DCE5"/><path d="M107.233 32.79c0 .01.002.022 0 .032-.086-.009-.143.05-.206.09-.031-.207.129-.095.206-.123z" fill="#ECF5F7"/><path d="M112.68 39.775l-.001-.034h.335c-.002.012-.002.022-.002.034h-.332z" fill="#BEDBE4"/><path d="M107.068 33.239v-.329c.106-.012.215-.032.321-.034 1.128-.005 2.254-.014 3.382-.007.308.002.623.014.92.082.691.16 1.161.805 1.18 1.57.015.632-.229 1.13-.788 1.456-.111.065-.23.121-.342.188-.208.125-.237.218-.112.418.368.594.738 1.186 1.115 1.773.254.398.603.685 1.052.853.1.038.204.125.251.218.091.18-.016.342-.201.344-.344.002-.688-.007-1.03.008-.507.023-.862-.19-1.116-.623-.44-.75-.899-1.488-1.352-2.23-.192-.316-.529-.422-.852-.254-.059.03-.121.127-.121.192.004.655.012 1.313.036 1.969.009.22.152.363.372.41.113.024.23.035.345.048.162.02.253.122.253.274 0 .15-.11.208-.254.206-.055 0-.11.003-.166.003-.866-.002-1.731-.005-2.598-.01-.101 0-.201-.022-.301-.034v-.33c.085-.037.167-.095.255-.11.557-.093.702-.254.702-.814v-3.075c0-.443.003-.888-.002-1.332-.004-.464-.165-.64-.617-.715-.111-.016-.221-.074-.332-.115zm2.216 1.437s-.002 0 0 0c-.002.37-.003.74 0 1.109.002.25.071.334.323.356.526.045 1.003-.103 1.438-.395.467-.316.665-.757.602-1.305-.068-.572-.413-.945-.962-1.075-.374-.09-.772-.088-1.159-.108-.182-.01-.242.128-.242.29-.002.374 0 .75 0 1.127zM130.048 39.88c-1.099-.032-2.08-.335-2.816-1.19-.714-.83-.912-1.816-.814-2.879.141-1.542 1.422-2.883 3.218-3.1.758-.093 1.499-.036 2.2.27 1.319.577 1.954 1.633 2.04 3.029.122 2.003-1.257 3.445-2.97 3.772-.282.054-.572.066-.858.097zm2.509-3.39c-.019-.266-.029-.533-.059-.799-.074-.69-.309-1.311-.785-1.833-1.08-1.187-2.922-.944-3.635.49-.339.679-.43 1.405-.349 2.155.084.777.319 1.498.83 2.104 1.128 1.342 3.054 1.044 3.721-.572.206-.495.289-1.01.277-1.546z" fill="#017496"/></svg>