<svg width="351" height="76" viewBox="0 0 351 76" fill="none" xmlns="http://www.w3.org/2000/svg">
<path d="M62.0791 41.5029C61.0328 41.5029 60.0253 41.0766 59.289 40.3403C58.5527 39.6041 58.1265 38.5965 58.1265 37.5503C58.1265 36.504 58.5527 35.4965 59.289 34.7602C60.0253 34.0239 61.0328 33.5977 62.0791 33.5977C63.1253 33.5977 64.1328 34.0239 64.8691 34.7602C65.6054 35.4965 66.0316 36.504 66.0316 37.5503C66.0316 38.5965 65.6054 39.6041 64.8691 40.3403C64.1328 41.1154 63.1253 41.5029 62.0791 41.5029ZM62.0791 36.2327C61.7303 36.2327 61.3815 36.3877 61.149 36.6202C60.9165 36.8527 60.7615 37.2015 60.7615 37.5503C60.7615 37.899 60.9165 38.2478 61.149 38.4803C61.3815 38.7128 61.7303 38.8678 62.0791 38.8678C62.4278 38.8678 62.7766 38.7128 63.0091 38.4803C63.2416 38.2478 63.3966 37.899 63.3966 37.5503C63.3966 37.2015 63.2416 36.8527 63.0091 36.6202C62.7766 36.349 62.4278 36.2327 62.0791 36.2327Z" fill="#fff"/>
<path d="M70.4903 33.0939C69.4828 33.0939 68.4753 32.7064 67.7003 31.9313C66.1502 30.3813 66.1502 27.8625 67.7003 26.3124C68.4365 25.5762 69.444 25.1499 70.4903 25.1499C71.5366 25.1499 72.5441 25.5762 73.2804 26.3124C74.0167 27.0487 74.4429 28.0562 74.4429 29.1025C74.4429 30.1488 74.0167 31.1563 73.2804 31.8926C72.5054 32.7064 71.4978 33.0939 70.4903 33.0939ZM70.4903 27.8237C70.1415 27.8237 69.7928 27.9787 69.5603 28.2112C69.0566 28.715 69.0566 29.5675 69.5603 30.0713C70.0641 30.5751 70.9166 30.5751 71.4203 30.0713C71.6528 29.8388 71.8079 29.49 71.8079 29.1413C71.8079 28.7925 71.6528 28.4438 71.4203 28.2112C71.1878 27.9787 70.8391 27.8237 70.4903 27.8237Z" fill="#fff"/>
<path d="M53.6707 49.9111C52.6244 49.9111 51.6168 49.4848 50.8805 48.7486C50.1443 48.0123 49.718 47.0048 49.718 45.9585C49.718 44.9122 50.1443 43.9047 50.8805 43.1684C51.6168 42.4321 52.6244 42.0059 53.6707 42.0059C54.7169 42.0059 55.7244 42.4321 56.4607 43.1684C57.197 43.9047 57.6232 44.9122 57.6232 45.9585C57.6232 47.0048 57.197 48.0123 56.4607 48.7486C55.7244 49.5236 54.7169 49.9111 53.6707 49.9111ZM53.6707 44.6409C53.3219 44.6409 52.9731 44.7959 52.7406 45.0284C52.5081 45.2609 52.3531 45.6097 52.3531 45.9585C52.3531 46.3072 52.5081 46.656 52.7406 46.8885C52.9731 47.121 53.3219 47.276 53.6707 47.276C54.0194 47.276 54.3681 47.121 54.6006 46.8885C54.8331 46.656 54.9882 46.3072 54.9882 45.9585C54.9882 45.6097 54.8331 45.2609 54.6006 45.0284C54.3681 44.7572 54.0194 44.6409 53.6707 44.6409Z" fill="#fff"/>
<path d="M70.4903 49.9113C69.444 49.9113 68.4365 49.485 67.7003 48.7487C66.1502 47.1987 66.1502 44.6799 67.7003 43.1298C68.4365 42.3935 69.444 41.9673 70.4903 41.9673C71.5366 41.9673 72.5441 42.3935 73.2804 43.1298C74.0167 43.8661 74.4429 44.8736 74.4429 45.9199C74.4429 46.9662 74.0167 47.9737 73.2804 48.71C72.5441 49.5237 71.5366 49.9113 70.4903 49.9113ZM69.5603 46.8887C69.7928 47.1212 70.1415 47.2762 70.4903 47.2762C70.8391 47.2762 71.1878 47.1212 71.4203 46.8887C71.6528 46.6561 71.8079 46.3074 71.8079 45.9586C71.8079 45.6099 71.6528 45.2611 71.4203 45.0286C71.1878 44.7961 70.8391 44.6411 70.4903 44.6411C70.1415 44.6411 69.7928 44.7961 69.5603 45.0286C69.0566 45.5324 69.0566 46.3849 69.5603 46.8887Z" fill="#fff"/>
<path d="M53.6707 33.0932C52.6631 33.0932 51.6556 32.7057 50.8805 31.9307C50.1443 31.1944 49.718 30.1869 49.718 29.1406C49.718 28.0943 50.1443 27.0868 50.8805 26.3505C51.6168 25.6142 52.6244 25.188 53.6707 25.188C54.7169 25.188 55.7244 25.6142 56.4607 26.3505C57.197 27.0868 57.6232 28.0943 57.6232 29.1406C57.6232 30.1869 57.197 31.1944 56.4607 31.9307C55.6857 32.7057 54.6782 33.0932 53.6707 33.0932ZM52.7406 30.0706C53.2444 30.5744 54.0969 30.5744 54.6006 30.0706C54.8331 29.8381 54.9882 29.4894 54.9882 29.1406C54.9882 28.7918 54.8331 28.4431 54.6006 28.2106C54.3681 27.9781 54.0194 27.8231 53.6707 27.8231C53.3219 27.8231 52.9731 27.9781 52.7406 28.2106C52.5081 28.4431 52.3531 28.7918 52.3531 29.1406C52.3531 29.4894 52.4694 29.8381 52.7406 30.0706Z" fill="#fff"/>
<path d="M62.0813 26.9708C61.3837 26.9708 60.725 26.6996 60.2212 26.1958C59.7174 25.6921 59.4462 25.0333 59.4462 24.3358C59.4462 22.8632 60.6475 21.7007 62.0813 21.7007C63.515 21.7007 64.7163 22.902 64.7163 24.3358C64.7163 25.8083 63.5538 26.9708 62.0813 26.9708Z" fill="#fff"/>
<path d="M62.0813 53.2828C60.6087 53.2828 59.4462 52.0816 59.4462 50.6478C59.4462 49.1752 60.6475 48.0127 62.0813 48.0127C63.515 48.0127 64.7163 49.214 64.7163 50.6478C64.7163 52.0816 63.5538 53.2828 62.0813 53.2828Z" fill="#fff"/>
<path d="M75.1382 40.1852C73.6657 40.1852 72.5032 38.9839 72.5032 37.5501C72.5032 36.1163 73.7044 34.915 75.1382 34.915C76.6108 34.915 77.7733 36.1163 77.7733 37.5501C77.7733 38.9839 76.6108 40.1852 75.1382 40.1852Z" fill="#fff"/>
<path d="M48.9816 40.1852C47.5091 40.1852 46.3466 38.9839 46.3466 37.5501C46.3466 36.1163 47.5478 34.915 48.9816 34.915C50.4154 34.915 51.6167 36.1163 51.6167 37.5501C51.6167 38.9839 50.4541 40.1852 48.9816 40.1852ZM49.0204 37.5501C48.9816 37.5501 49.0204 37.5501 49.0204 37.5501V37.5501Z" fill="#fff"/>
<path d="M81.8802 36.2328H83.159C83.0428 34.2952 82.6553 32.3964 82.0353 30.5751L80.834 31.0789L79.8265 28.6376L81.0277 28.1338C80.214 26.5063 79.1677 24.9562 77.9277 23.5612L77.0364 24.4525L75.1763 22.5924L76.0676 21.7011C74.595 20.4223 73.0063 19.3373 71.3012 18.5236L70.7974 19.7248L68.3561 18.7173L68.8599 17.516C67.1161 16.9347 65.2948 16.586 63.4347 16.4697V17.7485H60.7997V16.4697C58.8621 16.586 56.9633 16.9735 55.142 17.5935L55.6458 18.7948L53.2045 19.8023L52.7007 18.601C51.0732 19.4148 49.5231 20.4611 48.1281 21.7011L49.0194 22.5924L47.1593 24.4525L46.268 23.5612C44.9892 25.0337 43.9042 26.6225 43.0904 28.3276L44.2917 28.8313L43.2842 31.2726L42.0829 30.7689C41.5017 32.5127 41.1529 34.334 41.0366 36.194H42.3154V38.8291H41.0366C41.1529 40.7666 41.5404 42.6655 42.1604 44.4868L43.3617 43.983L44.3692 46.4243L43.1679 46.9281C43.9817 48.5556 45.028 50.1056 46.268 51.5007L47.1593 50.6094L49.0194 52.4695L48.1281 53.3607C49.6006 54.6395 51.1894 55.7246 52.8945 56.5383L53.3982 55.337L55.8396 56.3446L55.3358 57.5458C57.0796 58.1271 58.9009 58.4759 60.7609 58.5921V57.3133H63.396V58.5921C65.3336 58.4759 67.2324 58.0884 69.0537 57.4684L68.5499 56.2671L70.9912 55.2595L71.495 56.4608C73.1225 55.647 74.6725 54.6008 76.0676 53.3607L75.1763 52.4695L77.0364 50.6094L77.9277 51.5007C79.2064 50.0281 80.2914 48.4394 81.1052 46.7343L79.9039 46.2306L80.9115 43.7892L82.1127 44.293C82.694 42.5492 83.0428 40.7279 83.159 38.8679H81.8802V36.2328ZM75.1376 50.6094C71.65 54.097 66.9998 56.0346 62.0785 56.0346C57.1571 56.0346 52.507 54.097 49.0194 50.6094C45.5318 47.1218 43.5942 42.4717 43.5942 37.5503C43.5942 32.6289 45.5318 27.9788 49.0194 24.4912C52.507 21.0036 57.1571 19.0661 62.0785 19.0661C66.9998 19.0661 71.65 21.0036 75.1376 24.4912C78.6251 27.9788 80.5627 32.6289 80.5627 37.5503C80.5627 42.4717 78.6639 47.1218 75.1376 50.6094Z" fill="#fff"/>
<path d="M79.829 28.6364L80.8752 31.0778L82.0378 30.574L83.2778 30.0702L83.8203 31.2715L86.2229 30.264L84.2078 25.3813L81.7665 26.4276L82.2703 27.6289L81.0303 28.1714L79.829 28.6364Z" fill="#fff"/>
<path d="M42.3944 48.6715L41.8907 47.4702L43.1307 46.9277L44.332 46.4627L43.2857 44.0214L42.1232 44.5252L40.8444 45.0289L40.3406 43.8276L37.8993 44.8352L39.9531 49.7178L42.3944 48.6715Z" fill="#fff"/>
<path d="M71.9997 57.7382L71.4571 56.4982L70.9921 55.2969L68.5508 56.3432L69.0546 57.5057L69.5584 58.7457L68.3571 59.2882L69.3646 61.7296L74.2472 59.6757L73.2009 57.2344L71.9997 57.7382Z" fill="#fff"/>
<path d="M52.1592 17.361L52.6629 18.601L53.1667 19.8023L55.6081 18.756L55.1043 17.5935L54.6005 16.3535L55.8018 15.811L54.7942 13.3696L49.9116 15.4235L50.9579 17.8648L52.1592 17.361Z" fill="#fff"/>
<path d="M83.3553 44.796L82.1152 44.2923L80.914 43.8272L79.9452 46.2686L81.1077 46.7336L82.3865 47.2761L81.8827 48.4774L84.3241 49.4849L86.3004 44.6023L83.859 43.5947L83.3553 44.796Z" fill="#fff"/>
<path d="M39.8379 25.6143L37.8229 30.4969L40.303 31.5044L40.7679 30.3031L42.0468 30.8069L43.248 31.2719L44.2168 28.8306L43.0543 28.3656L41.7755 27.8231L42.2792 26.6218L39.8379 25.6143Z" fill="#fff"/>
<path d="M55.3385 57.5836L55.8036 56.3824L53.3622 55.4136L52.8972 56.5761L52.3547 57.8549L51.1534 57.3511L50.1459 59.7925L55.0285 61.7688L56.0361 59.3274L54.8348 58.8237L55.3385 57.5836Z" fill="#fff"/>
<path d="M68.3581 18.7165L70.7994 19.6853L71.2644 18.5227L71.807 17.2439L73.0082 17.7477L74.0158 15.3064L69.1331 13.3301L68.1256 15.7714L69.3269 16.2751L68.8231 17.5152L68.3581 18.7165Z" fill="#fff"/>
<path d="M77.9298 23.5594L81.6886 19.8005L83.5487 21.6606L85.4475 19.8005L79.8286 14.1816L77.9685 16.0804L79.8286 17.9405L76.0697 21.6993L75.1396 22.5906L77.0385 24.4894L77.9298 23.5594Z" fill="#fff"/>
<path d="M46.2323 51.5394L42.4735 55.2982L40.6134 53.4382L38.7146 55.2982L44.3335 60.9171L46.1936 59.0184L44.3335 57.1583L48.0924 53.3995L48.9836 52.5082L47.1236 50.6094L46.2323 51.5394Z" fill="#fff"/>
<path d="M81.6886 55.2982L77.9298 51.5394L77.0385 50.6094L75.1396 52.5082L76.0697 53.3995L79.8286 57.1583L77.9685 59.0184L79.8286 60.9171L85.4475 55.2982L83.5487 53.4382L81.6886 55.2982Z" fill="#fff"/>
<path d="M44.3335 17.9405L46.1936 16.0804L44.3335 14.1816L38.7146 19.8005L40.6134 21.6606L42.4735 19.8005L46.2323 23.5594L47.1236 24.4894L48.9836 22.5906L48.0924 21.6993L44.3335 17.9405Z" fill="#fff"/>
<path d="M88.5091 33.5967V36.2317H83.1615H81.8827V38.8668H83.1615H88.5091V41.5019H91.1442V33.5967H88.5091Z" fill="#fff"/>
<path d="M42.2788 38.8668V36.2317H41H35.6524V33.5967H33.0173V41.5019H35.6524V38.8668H41H42.2788Z" fill="#fff"/>
<path d="M63.3984 58.6304V57.3516H60.7633V58.6304V63.978H58.1283V66.6131H66.0335V63.978H63.3984V58.6304Z" fill="#fff"/>
<path d="M58.1283 11.1214H60.7633V16.469V17.7478H63.3984V16.469V11.1214H66.0335V8.48633H58.1283V11.1214Z" fill="#fff"/>
<path d="M0.078125 40.804V34.4489H8.83585C10.5409 34.4489 11.936 34.2939 13.021 34.0226C14.106 33.7126 14.9585 33.2476 15.5398 32.6276C16.1211 32.0075 16.5086 31.155 16.7023 30.1475C16.8961 29.14 16.9348 27.8999 16.8186 26.4661L16.0048 13.3295C15.8885 11.237 16.1598 9.41566 16.8186 7.74937C17.4773 6.08307 18.4074 4.68804 19.6861 3.56426C20.9649 2.44047 22.5538 1.54921 24.4138 0.967942C26.3126 0.386676 28.4051 0.0766602 30.7689 0.0766602H34.3728V6.47058H30.7689C28.2114 6.47058 26.2739 7.05186 24.9951 8.17564C23.6775 9.29942 23.0962 11.0432 23.2125 13.3295L24.0263 26.4661C24.1425 27.8999 23.9875 29.2562 23.6388 30.5737C23.2513 31.8913 22.7088 33.0151 21.9337 34.0226C21.1587 34.9914 20.1899 35.8051 19.0274 36.3864C17.8649 36.9677 16.4698 37.2777 14.881 37.3552V37.7427C16.4698 37.7814 17.8649 38.1302 19.0661 38.7502C20.2674 39.3702 21.2362 40.184 21.9725 41.1915C22.7087 42.1991 23.29 43.3616 23.6388 44.7179C24.0263 46.0354 24.1425 47.4305 24.0263 48.8643L23.2125 61.8459C23.0962 64.1322 23.7163 65.8372 24.9951 66.9997C26.3126 68.1623 28.2114 68.7048 30.7689 68.7048H34.3728V75.0987H30.7689C28.4439 75.0987 26.3126 74.7887 24.4138 74.2074C22.515 73.6262 20.9649 72.7737 19.6861 71.6111C18.4074 70.4874 17.4386 69.0923 16.8186 67.426C16.1985 65.7597 15.9273 63.8997 16.0048 61.8459L16.8186 48.8643C16.9348 47.4305 16.8961 46.1904 16.7023 45.1829C16.5086 44.1754 16.1211 43.3616 15.5398 42.7028C14.9585 42.0441 14.1448 41.6178 13.0597 41.3078C12.0135 40.9978 10.5797 40.8815 8.83585 40.8815H0.078125V40.804Z" fill="#fff"/>
<path d="M89.8254 75.022V68.6281H93.4293C95.9869 68.6281 97.8857 68.0468 99.2032 66.9231C100.521 65.7993 101.102 64.0555 100.986 61.7692L100.172 48.7101C100.133 47.2763 100.249 45.92 100.598 44.6025C100.947 43.2849 101.489 42.1611 102.265 41.1536C103.04 40.1848 104.008 39.3711 105.171 38.7898C106.333 38.2085 107.728 37.8985 109.317 37.821V37.4335C107.728 37.3948 106.333 37.046 105.132 36.426C103.931 35.806 102.962 34.9922 102.226 33.9847C101.49 32.9771 100.947 31.8146 100.598 30.4583C100.249 29.1408 100.094 27.7458 100.172 26.312L100.986 13.2529C101.102 10.9665 100.482 9.2615 99.2032 8.09897C97.8857 6.97519 95.9869 6.39391 93.4293 6.39391H89.8254V0H93.4293C95.7544 0 97.8857 0.310004 99.7845 0.89127C101.683 1.47254 103.233 2.32505 104.512 3.48758C105.791 4.61136 106.76 6.04517 107.38 7.67272C108 9.33901 108.271 11.1603 108.193 13.2529L107.38 26.312C107.341 27.7458 107.38 28.9858 107.535 29.9933C107.69 31.0008 108.077 31.8146 108.658 32.4734C109.24 33.0934 110.053 33.5584 111.139 33.8684C112.185 34.1784 113.619 34.2947 115.362 34.2947H124.12V40.6886H115.362C113.657 40.6886 112.262 40.8436 111.177 41.1149C110.092 41.4249 109.24 41.8899 108.658 42.5099C108.077 43.1687 107.69 43.9824 107.535 44.99C107.38 45.9975 107.302 47.2375 107.38 48.6713L108.193 61.7304C108.31 63.7842 108.038 65.6443 107.38 67.3106C106.76 68.9769 105.791 70.3332 104.512 71.4957C103.233 72.6195 101.645 73.5107 99.7845 74.092C97.8857 74.6733 95.7931 74.9833 93.4293 74.9833H89.8254V75.022Z" fill="#fff"/>
<path d="M140.125 40.108H142.76L143.612 35.2253H141.055V32.5128H144.077L144.891 27.9014H147.72L146.906 32.5128H150.316L151.13 27.9014H153.959L153.145 32.5128H155.315V35.2253H152.68L151.828 40.108H154.346V42.8205H151.363L150.549 47.4319H147.72L148.534 42.8205H145.124L144.31 47.4319H141.481L142.295 42.8205H140.125V40.108ZM145.627 40.108H149.037L149.89 35.2253H146.48L145.627 40.108Z" fill="#fff"/>
<path d="M156.827 32.5128H160.78V27.9014H164.849V32.5128H170.39V36.1941H164.849V42.3168C164.849 42.7818 164.965 43.1693 165.236 43.4018C165.508 43.673 165.856 43.7893 166.321 43.7893H170.119V47.4706H165.895C164.268 47.4706 163.027 47.0056 162.097 46.1144C161.167 45.1843 160.741 43.9443 160.741 42.3168V36.1941H156.789V32.5128H156.827Z" fill="#fff"/>
<path d="M173.451 38.2102C173.451 37.3189 173.606 36.5051 173.955 35.7688C174.265 35.0326 174.73 34.4125 175.35 33.9088C175.931 33.3663 176.668 32.9788 177.52 32.7075C178.373 32.4362 179.303 32.2812 180.31 32.2812C181.318 32.2812 182.248 32.4362 183.062 32.7075C183.875 32.9788 184.612 33.405 185.193 33.9088C185.774 34.4513 186.239 35.0713 186.588 35.8076C186.937 36.5439 187.092 37.3576 187.092 38.2489V40.9615H177.482V41.7753C177.482 42.6665 177.714 43.364 178.218 43.8678C178.722 44.3716 179.419 44.6041 180.31 44.6041C180.969 44.6041 181.55 44.4878 182.015 44.2941C182.48 44.0616 182.79 43.7903 182.984 43.4028H186.976C186.821 44.0616 186.511 44.6428 186.123 45.1853C185.735 45.7279 185.232 46.1929 184.65 46.5416C184.069 46.9291 183.41 47.2004 182.674 47.4329C181.938 47.6654 181.163 47.7429 180.31 47.7429C179.264 47.7429 178.334 47.5879 177.52 47.3167C176.707 47.0454 175.97 46.6191 175.35 46.1154C174.73 45.6116 174.304 44.9528 173.955 44.2166C173.645 43.4803 173.451 42.6665 173.451 41.7753V38.2102ZM177.443 38.4814H183.1V38.2102C183.1 37.3189 182.868 36.6214 182.364 36.1176C181.86 35.6138 181.163 35.3813 180.272 35.3813C179.38 35.3813 178.683 35.6138 178.179 36.1176C177.675 36.6214 177.443 37.3189 177.443 38.2102V38.4814Z" fill="#fff"/>
<path d="M196.702 47.7029C195.656 47.7029 194.726 47.5479 193.912 47.2766C193.059 47.0054 192.362 46.6178 191.742 46.1141C191.161 45.6103 190.696 44.9903 190.347 44.2928C190.037 43.5953 189.843 42.7815 189.843 41.8902V38.0539C189.843 37.1626 189.998 36.3488 190.347 35.6513C190.657 34.9538 191.122 34.3338 191.742 33.83C192.323 33.3263 193.059 32.9387 193.912 32.6675C194.765 32.3962 195.695 32.2412 196.702 32.2412C197.593 32.2412 198.446 32.3575 199.221 32.6287C199.996 32.9 200.693 33.2487 201.275 33.7137C201.856 34.1788 202.36 34.76 202.747 35.4188C203.135 36.0776 203.406 36.8526 203.561 37.6664H199.492C199.376 37.0851 199.066 36.6201 198.523 36.2713C198.02 35.9226 197.4 35.7676 196.663 35.7676C195.811 35.7676 195.113 35.9613 194.648 36.3876C194.145 36.7751 193.912 37.3564 193.912 38.0926V41.929C193.912 42.6652 194.145 43.2078 194.648 43.5953C195.152 43.9828 195.811 44.1765 196.663 44.1765C197.4 44.1765 198.02 43.9828 198.523 43.634C199.027 43.2853 199.337 42.8202 199.492 42.239H203.561C203.406 43.0527 203.135 43.8278 202.747 44.4866C202.36 45.1453 201.856 45.7266 201.275 46.1916C200.693 46.6566 199.996 47.0441 199.221 47.2766C198.446 47.5091 197.593 47.7029 196.702 47.7029Z" fill="#fff"/>
<path d="M206.35 27.9014H210.419V32.5128C210.419 32.784 210.419 33.0553 210.38 33.3653C210.341 33.6753 210.303 33.9466 210.303 34.2178C210.264 34.4891 210.225 34.7603 210.186 35.0703H210.496C210.613 34.179 211.039 33.4815 211.698 32.9778C212.356 32.474 213.248 32.2415 214.333 32.2415C215.844 32.2415 217.045 32.7453 217.937 33.7528C218.828 34.7603 219.254 36.1166 219.254 37.8217V47.4706H215.147V38.2479C215.147 37.4729 214.953 36.8916 214.527 36.4654C214.1 36.0391 213.519 35.8066 212.822 35.8066C212.085 35.8066 211.543 36.0391 211.116 36.4654C210.69 36.8916 210.496 37.5116 210.496 38.2479V47.4706H206.428V27.9014H206.35Z" fill="#fff"/>
<path d="M230.028 27.9014H234.64L226.114 39.2554V40.263H231.268V36.3104H235.337V47.4319H231.268V43.7893H222.317V38.1317L230.028 27.9014Z" fill="#fff"/>
<path d="M245.488 47.7031C244.442 47.7031 243.512 47.5481 242.698 47.2768C241.884 47.0056 241.148 46.5793 240.567 46.0368C239.985 45.4943 239.52 44.8743 239.172 44.0993C238.861 43.363 238.668 42.5105 238.668 41.5805V33.714C238.668 32.7839 238.823 31.9702 239.172 31.1952C239.482 30.4589 239.947 29.8001 240.567 29.2576C241.148 28.7151 241.884 28.3276 242.737 28.0176C243.589 27.7463 244.519 27.5913 245.527 27.5913C246.534 27.5913 247.464 27.7463 248.278 28.0176C249.092 28.2888 249.828 28.7151 250.409 29.2576C250.991 29.8001 251.456 30.4201 251.804 31.1952C252.114 31.9314 252.308 32.7839 252.308 33.714H248.239C248.239 32.9389 248.007 32.3577 247.503 31.9314C246.999 31.5052 246.34 31.2727 245.527 31.2727C244.674 31.2727 244.015 31.5052 243.512 31.9314C243.008 32.3577 242.775 32.9777 242.775 33.714V41.5805C242.775 42.3555 243.008 42.9367 243.512 43.363C243.977 43.7893 244.674 44.0218 245.527 44.0218C246.379 44.0218 247.038 43.7893 247.542 43.3243C248.045 42.8592 248.278 42.278 248.278 41.5805H252.347C252.347 42.5105 252.192 43.3243 251.843 44.0993C251.533 44.8355 251.068 45.4943 250.448 46.0368C249.867 46.5793 249.131 46.9668 248.317 47.2768C247.464 47.5868 246.495 47.7031 245.488 47.7031Z" fill="#fff"/>
<path d="M261.648 47.7034C260.602 47.7034 259.672 47.5484 258.858 47.2771C258.044 47.0059 257.308 46.5796 256.688 46.0371C256.107 45.4946 255.642 44.8746 255.293 44.0996C254.983 43.3633 254.789 42.5108 254.789 41.5807V33.6755C254.789 32.7455 254.944 31.9317 255.293 31.1954C255.603 30.4592 256.068 29.8004 256.688 29.2967C257.269 28.7541 258.006 28.3666 258.858 28.0566C259.711 27.7854 260.641 27.6304 261.648 27.6304C262.656 27.6304 263.625 27.7854 264.438 28.0566C265.291 28.3279 265.988 28.7541 266.608 29.2967C267.19 29.8392 267.655 30.4592 268.003 31.1954C268.313 31.9317 268.507 32.7843 268.507 33.6755V41.5807C268.507 42.472 268.352 43.3245 268.003 44.0608C267.655 44.7971 267.19 45.4558 266.608 45.9984C266.027 46.5409 265.291 46.9284 264.438 47.2384C263.586 47.5484 262.656 47.7034 261.648 47.7034ZM258.897 41.6195C258.897 42.3945 259.129 43.0145 259.633 43.4795C260.137 43.9445 260.796 44.1771 261.648 44.1771C262.501 44.1771 263.159 43.9445 263.663 43.4795C264.167 43.0145 264.4 42.3945 264.4 41.6195V33.7143C264.4 32.9392 264.167 32.3192 263.663 31.8542C263.159 31.3892 262.501 31.1567 261.648 31.1567C260.796 31.1567 260.137 31.3892 259.633 31.8542C259.129 32.3192 258.897 32.9392 258.897 33.7143V41.6195Z" fill="#fff"/>
<path d="M270.056 27.9014H274.164L277.457 41.968C277.535 42.2393 277.574 42.5493 277.651 42.8593C277.69 43.1693 277.729 43.4793 277.767 43.7506C277.806 44.0606 277.845 44.4093 277.884 44.7193H278.039C278.077 44.4093 278.116 44.0606 278.155 43.7506C278.194 43.4793 278.232 43.1693 278.271 42.8593C278.31 42.5493 278.387 42.2393 278.426 41.968L281.642 27.9014H285.75L280.557 47.4319H275.132L270.056 27.9014Z" fill="#fff"/>
<path d="M288.114 31.4277V27.9014H300.321V31.4277H296.252V43.9056H300.321V47.4319H288.114V43.9056H292.183V31.4277H288.114Z" fill="#fff"/>
<path d="M304.042 27.9014H310.475C311.521 27.9014 312.451 28.0564 313.265 28.3664C314.078 28.6764 314.815 29.1026 315.435 29.6452C316.016 30.1877 316.481 30.8852 316.83 31.6602C317.14 32.4352 317.334 33.2878 317.334 34.2565V41.0767C317.334 42.0455 317.179 42.898 316.83 43.7118C316.52 44.4868 316.055 45.1843 315.435 45.7269C314.854 46.2694 314.117 46.6956 313.265 47.0057C312.412 47.3157 311.482 47.4706 310.475 47.4706H304.042V27.9014ZM308.111 43.6343H310.475C311.288 43.6343 311.986 43.4018 312.49 42.9368C312.993 42.4718 313.265 41.8517 313.265 41.0767V34.2565C313.265 33.4815 312.993 32.9003 312.49 32.3965C311.986 31.9315 311.327 31.699 310.475 31.699H308.111V43.6343Z" fill="#fff"/>
<path d="M320.511 43.9062H325.743V33.6759C325.743 32.9009 325.781 32.3196 325.82 32.0096C325.82 31.7771 325.859 31.6221 325.859 31.4671H325.781C325.704 31.5446 325.626 31.6608 325.471 31.7771C325.394 31.8546 325.278 31.9709 325.123 32.0871C324.968 32.2034 324.774 32.3584 324.58 32.5134L320.744 34.9934V31.0796L325.316 27.9795H329.773V43.9837H333.88V47.51H320.434V43.9062H320.511Z" fill="#fff"/>
<path d="M335.972 34.024C335.972 33.0552 336.127 32.2027 336.476 31.3889C336.825 30.6139 337.29 29.9164 337.91 29.3739C338.53 28.8314 339.266 28.3663 340.119 28.0563C340.971 27.7463 341.94 27.5913 343.025 27.5913C344.11 27.5913 345.079 27.7463 345.97 28.0563C346.823 28.3663 347.559 28.8313 348.179 29.4126C348.799 29.9939 349.264 30.6914 349.574 31.5052C349.884 32.319 350.078 33.249 350.078 34.2565C350.078 35.4965 349.806 36.7753 349.303 38.0154C348.76 39.2554 348.024 40.6504 347.016 42.1617L343.49 47.3931H338.956L343.451 40.8442C343.955 40.1079 344.343 39.5654 344.614 39.1391C344.885 38.7129 345.079 38.4029 345.234 38.2091C345.389 37.9766 345.505 37.8216 345.544 37.7441H345.389C345.118 38.1704 344.808 38.5191 344.42 38.8291C344.11 39.1004 343.684 39.3716 343.219 39.6041C342.754 39.8366 342.173 39.9529 341.514 39.9529C340.7 39.9529 339.964 39.7979 339.266 39.5266C338.569 39.2554 337.987 38.8291 337.522 38.3254C337.019 37.8216 336.67 37.1628 336.399 36.4265C336.089 35.729 335.972 34.9153 335.972 34.024ZM343.025 37.0078C343.916 37.0078 344.653 36.7366 345.195 36.194C345.738 35.6515 346.009 34.9153 346.009 34.024C346.009 33.094 345.738 32.3577 345.195 31.8539C344.653 31.3114 343.916 31.0402 343.025 31.0402C342.134 31.0402 341.359 31.3114 340.855 31.8539C340.312 32.3964 340.041 33.1327 340.041 34.024C340.041 34.9153 340.312 35.6903 340.855 36.194C341.359 36.7366 342.095 37.0078 343.025 37.0078Z" fill="#fff"/>
</svg>
