<svg width="185" height="274" viewBox="0 0 185 274" fill="none" xmlns="http://www.w3.org/2000/svg">
<g filter="url(#filter0_d)">
<path fill-rule="evenodd" clip-rule="evenodd" d="M19 8.0281C19 8.0281 38.7957 6.63141 45.7254 23.5316C53.4199 42.2972 55.3345 46.3481 55.3345 46.3481C55.3345 46.3481 65.4079 72.9675 92.3514 72.9675C119.295 72.9675 129.368 46.3481 129.368 46.3481C129.368 46.3481 131.282 42.2972 138.977 23.5316C145.907 6.63141 165.703 8.0281 165.703 8.0281V179.061C165.703 179.061 145.907 177.664 138.977 194.565C131.282 213.33 129.368 217.381 129.368 217.381C129.368 217.381 119.295 244 92.3514 244C65.4079 244 55.3345 217.381 55.3345 217.381C55.3345 217.381 53.4199 213.33 45.7254 194.565C38.7957 177.664 19 179.061 19 179.061V8.0281Z" fill="#4C0788"/>
<path fill-rule="evenodd" clip-rule="evenodd" d="M19 8.0281C19 8.0281 38.7957 6.63141 45.7254 23.5316C53.4199 42.2972 55.3345 46.3481 55.3345 46.3481C55.3345 46.3481 65.4079 72.9675 92.3514 72.9675C119.295 72.9675 129.368 46.3481 129.368 46.3481C129.368 46.3481 131.282 42.2972 138.977 23.5316C145.907 6.63141 165.703 8.0281 165.703 8.0281V179.061C165.703 179.061 145.907 177.664 138.977 194.565C131.282 213.33 129.368 217.381 129.368 217.381C129.368 217.381 119.295 244 92.3514 244C65.4079 244 55.3345 217.381 55.3345 217.381C55.3345 217.381 53.4199 213.33 45.7254 194.565C38.7957 177.664 19 179.061 19 179.061V8.0281Z" stroke="#4C0788"/>
</g>
<path fill-rule="evenodd" clip-rule="evenodd" d="M91.1505 119.699V137.8H96.6046V119.699H103.965V137.8H109.464V115.483H96.5603V114.566C96.5603 111.634 97.8017 109.251 101.616 109.251C103.655 109.251 105.34 109.846 106.36 110.442L107.557 106.18C106.316 105.355 103.744 104.76 101.616 104.76C95.1857 104.76 91.1505 108.426 91.1505 114.429V115.483H88.2239V119.699H91.1505ZM43.5644 120.97C43.5644 118.587 43.519 116.632 43.3828 114.724H46.9226L47.1496 118.538H47.2405C48.3299 116.345 50.8711 114.2 54.5021 114.2C57.5424 114.2 62.2628 116.107 62.2628 124.021V137.8H58.2689V124.498C58.2689 120.779 56.9529 117.681 53.1857 117.681C50.5536 117.681 48.5115 119.636 47.8304 121.972C47.6491 122.496 47.5583 123.211 47.5583 123.926V137.8H43.5644V120.97ZM80.4167 126.346C76.0147 126.248 71.0163 127.081 71.0163 131.684C71.0163 134.475 72.7593 135.797 74.8222 135.797C77.7114 135.797 79.5454 133.839 80.1877 131.831C80.3249 131.39 80.4167 130.9 80.4167 130.459V126.346ZM81.0129 138.441L80.6917 135.454H80.5545C79.3162 137.315 76.9321 138.98 73.768 138.98C69.2743 138.98 66.9816 135.601 66.9816 132.173C66.9816 126.444 71.7506 123.31 80.3251 123.358V122.869C80.3251 120.91 79.8208 117.384 75.2812 117.384C73.2179 117.384 71.0624 118.069 69.5037 119.147L68.5861 116.306C70.4205 115.033 73.0798 114.2 75.8773 114.2C82.6637 114.2 84.3146 119.147 84.3146 123.897V132.761C84.3146 134.818 84.4063 136.825 84.6816 138.441H81.0129ZM116.542 137.8H122.442V104.76H116.542V137.8ZM131.824 131.288C131.824 127.686 135.798 126.761 139.963 126.858V130.119C139.963 130.509 139.915 130.996 139.771 131.434C139.245 133.138 137.521 134.696 135.175 134.696C133.308 134.696 131.824 133.625 131.824 131.288ZM140.344 135.816L140.728 138.445H146.042C145.802 136.984 145.707 134.891 145.707 132.749V124.181C145.707 119.02 143.552 114.2 136.084 114.2C132.397 114.2 129.382 115.223 127.658 116.294L128.807 120.189C130.387 119.166 132.78 118.436 135.078 118.436C139.196 118.436 139.818 121.016 139.818 122.574V122.963C131.201 122.915 125.982 125.933 125.982 131.921C125.982 135.524 128.615 138.98 133.307 138.98C136.323 138.98 138.765 137.666 140.201 135.816H140.344Z" fill="white"/>
<defs>
<filter id="filter0_d" x="0" y="0" width="184.703" height="274" filterUnits="userSpaceOnUse" color-interpolation-filters="sRGB">
<feFlood flood-opacity="0" result="BackgroundImageFix"/>
<feColorMatrix in="SourceAlpha" type="matrix" values="0 0 0 0 0 0 0 0 0 0 0 0 0 0 0 0 0 0 127 0"/>
<feOffset dy="11"/>
<feGaussianBlur stdDeviation="9.5"/>
<feColorMatrix type="matrix" values="0 0 0 0 0 0 0 0 0 0 0 0 0 0 0 0 0 0 0.205911 0"/>
<feBlend mode="normal" in2="BackgroundImageFix" result="effect1_dropShadow"/>
<feBlend mode="normal" in="SourceGraphic" in2="effect1_dropShadow" result="shape"/>
</filter>
</defs>
</svg>
