<svg width="229" height="364" viewBox="0 0 229 364" fill="none" xmlns="http://www.w3.org/2000/svg">
<path d="M220.877 3C208.761 3 197.535 9.33915 191.258 19.7066C174.27 47.78 170.46 101.335 114.532 101.335C58.604 101.335 54.7786 47.78 37.8065 19.7066C31.5298 9.33915 20.3036 3 8.18739 3H2.64453V173.173V262.406H8.18739C20.3036 262.406 31.5298 268.745 37.8065 279.112C54.7942 307.186 58.604 360.741 114.532 360.741C170.46 360.741 174.286 307.186 191.258 279.112C197.535 268.745 208.745 262.406 220.877 262.406H226.42V173.173V3H220.877Z" stroke="black" stroke-width="5" stroke-miterlimit="10"/>
</svg>
