<svg width="108" height="32" viewBox="0 0 108 32" fill="none" xmlns="http://www.w3.org/2000/svg">
<path d="M0.262709 31.5191H4.32334V18.7978C4.32334 18.1421 4.41563 17.4863 4.6002 17.0055C5.29236 14.8634 7.36883 13.071 10.0452 13.071C13.8751 13.071 15.2132 15.9126 15.2132 19.3224V31.5191H19.2739V18.8852C19.2739 11.6284 14.475 9.87978 11.3833 9.87978C7.69184 9.87978 5.1078 11.847 4.00035 13.8579H3.90806L3.67734 10.3607H0.078125C0.216556 12.1093 0.262709 13.9016 0.262709 16.0874V31.5191Z" fill="white"/>
<path d="M42.0981 31.5191C41.8213 30.0765 41.729 28.2842 41.729 26.4481V18.5355C41.729 14.2951 40.0678 9.87978 33.2386 9.87978C30.4238 9.87978 27.7475 10.623 25.9017 11.7596L26.8246 14.2951C28.3935 13.3333 30.5622 12.7213 32.6387 12.7213C37.2069 12.7213 37.7145 15.8689 37.7145 17.6175V18.0546C29.0856 18.0109 24.2867 20.8087 24.2867 25.9235C24.2867 28.9836 26.5939 32 31.1159 32C34.2999 32 36.6993 30.5137 37.9452 28.8525H38.0836L38.4067 31.5191H42.0981ZM37.8068 24.3934C37.8068 24.7869 37.7145 25.224 37.5761 25.6175C36.93 27.4098 35.0843 29.1585 32.1773 29.1585C30.1008 29.1585 28.3473 27.9781 28.3473 25.4863C28.3473 21.3771 33.377 20.6339 37.8068 20.7213V24.3934Z" fill="white"/>
<path d="M55.7737 31.5191V15.0383H62.4184V31.5191H69.4322V10.1421H55.7276V9.39891C55.7276 7.03825 57.0196 5.2459 60.7111 5.2459C62.926 5.2459 64.7256 5.77049 65.833 6.3388L67.1712 1.31147C65.7869 0.524589 62.926 0 60.5265 0C53.5588 0 48.7137 3.3224 48.7137 9.22404V10.1421H45.7605V15.0383H48.7137V31.5191H55.7737Z" fill="white"/>
<path d="M75.2388 31.5191H82.2527V0.480874H75.2388V31.5191Z" fill="white"/>
<path d="M107.278 31.5191C107.047 30.3388 106.955 28.3716 106.955 26.3169V18.8852C106.955 13.8579 104.556 9.6612 97.0342 9.6612C92.9274 9.6612 89.8358 10.7104 88.2669 11.541L89.559 15.8251C91.0356 14.9508 93.4812 14.2077 95.7884 14.2077C99.2491 14.2077 99.8951 15.8251 99.8951 16.9618V17.2678C91.9123 17.224 86.6519 19.8907 86.6519 25.4426C86.6519 28.8525 89.3744 32 93.9426 32C96.6189 32 98.9261 31.082 100.403 29.3771H100.541L100.956 31.5191H107.278ZM100.126 23.7377C100.126 24.1311 100.08 24.5246 99.9874 24.8743C99.526 26.2295 98.0955 27.3224 96.3421 27.3224C94.7732 27.3224 93.5735 26.4918 93.5735 24.7869C93.5735 22.2077 96.4344 21.3771 100.126 21.4208V23.7377Z" fill="white"/>
</svg>
