<svg width="396" height="578" viewBox="0 0 396 578" fill="none" xmlns="http://www.w3.org/2000/svg">
<path fill-rule="evenodd" clip-rule="evenodd" d="M179.926 116.266C189.454 119.005 198.156 119.231 201.68 117.243C210.515 112.258 202.1 77.3622 191.096 65.665C180.092 53.9678 140.748 58.1264 146.099 85.7104C147.957 95.2837 154.156 102.611 161.828 107.889L164.413 159.414L194.824 151.265L179.926 116.266Z" fill="#B28B67"/>
<path fill-rule="evenodd" clip-rule="evenodd" d="M172.342 81.8841C173.925 77.2683 175.651 73.6085 178.472 70.9959C191.899 67.6244 192.823 64.812 190.662 56.7466C188.089 55.7825 179.773 55.2263 171.045 56.782C166.359 56.7046 161.265 58.3202 156.854 61.7257C151.187 65.1059 146.997 70.2381 146.58 77.8564C142.113 94.3765 152.399 107.571 162.249 110.381C163.792 107.104 165.069 103.985 166.164 101.035C164.382 100.035 162.989 98.3467 162.419 96.2185C161.296 92.0262 163.789 87.7157 167.988 86.5906C168.296 86.5079 168.605 86.4448 168.914 86.4003C170.507 91.5912 176.036 109.116 179.729 114.728C184.083 121.345 198.612 119.363 203.513 118.05C207.745 116.916 206.529 112.953 205.657 110.112C205.531 109.703 205.413 109.317 205.319 108.967C205.123 108.234 204.169 108.492 203.091 108.783C201.691 109.161 200.083 109.595 199.653 107.991C199.185 106.243 201.245 104.253 203.09 102.472C204.24 101.361 205.306 100.332 205.621 99.4934C206.615 96.8478 206.348 93.7103 203.951 94.3524C202.641 94.7034 201.046 95.9389 199.127 97.4254C196.23 99.6694 192.594 102.485 188.087 103.693C180.649 105.686 172.459 82.2201 172.342 81.8841Z" fill="#191847"/>
<path fill-rule="evenodd" clip-rule="evenodd" d="M177.094 264.707L241.613 427.239L284.886 564.647H301.973L235.818 264.707L177.094 264.707Z" fill="#997659"/>
<path fill-rule="evenodd" clip-rule="evenodd" d="M164.102 264.707C163.415 321.822 153.396 398.718 151.795 402.278C150.194 405.839 41.2729 492.828 41.2729 492.828L53.0421 505.363C53.0421 505.363 181.559 430.781 187.506 420.833C193.454 410.886 212.815 319.348 228.36 264.707H164.102Z" fill="#B28B67"/>
<path fill-rule="evenodd" clip-rule="evenodd" d="M42.9803 489.833C42.6647 488.707 41.4781 488.039 40.3724 488.431C37.762 489.357 33.3832 491.052 31.5302 492.599C28.8064 494.874 24.3423 500.142 24.3423 500.142C26.9936 503.287 71.9992 556.671 71.9992 556.671C71.9992 556.671 81.1759 552.762 77.7571 547.527C74.3383 542.292 72.1613 538.759 72.1613 538.759L61.691 502.35C61.5355 501.809 60.9622 501.503 60.4238 501.673L54.5781 503.518C54.5781 503.518 48.8127 500.844 46.4962 498.096C44.9571 496.271 43.6705 492.295 42.9803 489.833Z" fill="#E4E4E4"/>
<path fill-rule="evenodd" clip-rule="evenodd" d="M280.903 556.561C279.838 556.08 278.57 556.555 278.161 557.649C277.196 560.234 275.684 564.666 275.684 567.075C275.684 570.614 276.869 577.403 276.869 577.403C280.993 577.403 351.01 577.403 351.01 577.403C351.01 577.403 353.9 567.894 347.673 567.135C341.447 566.377 337.328 565.766 337.328 565.766L302.57 550.344C302.056 550.116 301.456 550.356 301.241 550.875L298.902 556.52C298.902 556.52 293.138 559.197 289.534 559.197C287.136 559.197 283.24 557.617 280.903 556.561Z" fill="#E4E4E4"/>
<path fill-rule="evenodd" clip-rule="evenodd" d="M220.474 550.494L301.717 541.718L241.506 264.707H168.74L220.474 550.494Z" fill="#69A1AC"/>
<path fill-rule="evenodd" clip-rule="evenodd" d="M58.0781 472.605L111.369 535.386C111.369 535.386 195.563 443.862 209.54 415.947C223.517 388.032 234.669 264.707 234.669 264.707H152.747C152.747 264.707 146.655 373.203 144.535 378.252C142.414 383.301 58.0781 472.605 58.0781 472.605Z" fill="#89C5CC"/>
<path fill-rule="evenodd" clip-rule="evenodd" d="M325.982 257.612L279.445 234.665L274.3 258.755L318.087 268.454C332.015 279.955 339.464 284.46 340.433 281.968C341.25 279.868 340.037 278.25 338.919 276.761C338.048 275.6 337.235 274.517 337.486 273.343C338.059 270.663 345.858 269.559 353.304 268.828C360.749 268.096 358.033 265.21 355.978 263.911C347.688 260.752 337.69 258.652 325.982 257.612ZM119.257 348.954C121.691 340.618 121.405 263.607 121.405 263.607L148.421 258.952C148.421 258.952 137.627 343.952 136.504 349.234C135.044 356.097 141.083 364.628 145.178 370.413C145.811 371.308 146.398 372.137 146.904 372.885C143.092 375.463 140.71 373.579 138.2 371.593C135.364 369.349 132.363 366.976 126.951 370.754C124.86 372.213 122.925 373.844 121.035 375.437C114.506 380.941 108.508 385.997 98.4309 382C96.8333 381.366 94.6648 378.302 98.0196 375.017C106.378 366.834 118.067 353.029 119.257 348.954Z" fill="#B28B67"/>
<path fill-rule="evenodd" clip-rule="evenodd" d="M178.184 136.974L189.018 133.091C236.77 161.531 265.904 227.207 323.125 254.63L313.565 271.92C223.505 276.565 186.888 196.647 178.184 136.974Z" fill="#E87613"/>
<path fill-rule="evenodd" clip-rule="evenodd" d="M154.201 285.727C154.201 285.727 221.39 273.879 253.047 268.297C257.563 267.501 255.564 261.139 254.332 257.969C240.11 221.375 203.486 185.684 193.967 131.702L164.669 132.266C147.763 174.292 147.829 222.353 154.201 285.727Z" fill="#DDE3E9"/>
<path fill-rule="evenodd" clip-rule="evenodd" d="M138.545 174.792C133.292 175.337 128.227 173.995 124.326 169.185C110.595 152.248 112.536 141.248 123.074 135.887C128.868 132.939 134.853 133.198 142.016 133.509C147.88 133.763 154.534 134.052 162.521 132.644C163.296 132.507 164.01 132.435 164.667 132.421L174.22 131.292C174.22 131.292 235.552 254.498 225.991 300.997L147.862 314.773C145.298 326.209 142.581 336.272 139.735 344.135L118.536 347.873C103.273 274.648 121.203 213.072 138.545 174.792Z" fill="#FF9B21"/>
<path fill-rule="evenodd" clip-rule="evenodd" d="M147.863 314.773C151.227 299.769 154.327 282.402 157.108 264.54C162.521 282.716 169.372 300.722 177.063 309.624L147.863 314.773Z" fill="black" fill-opacity="0.1"/>
</svg>
