<svg xmlns="http://www.w3.org/2000/svg" viewBox="0 0 335 523" width="335" height="523"><style>tspan { white-space:pre }.shp0 { fill: #b28b67 } .shp1 { fill: #191847 } .shp2 { fill: #997659 } .shp3 { fill: #e4e4e4 } .shp4 { fill: #69a1ac } .shp5 { fill: #89c5cc } .shp6 { fill: #e87613 } .shp7 { fill: #dde3e9 } .shp8 { fill: #ff9b21 } .shp9 { opacity: 0.102;fill: #000000 } </style>
<path id="Layer" fill-rule="evenodd" class="shp0" d="M155.93 61.27C165.45 64 174.16 64.23 177.68 62.24C186.51 57.26 178.1 22.36 167.1 10.67C156.09 -1.03 116.75 3.13 122.1 30.71C123.96 40.28 130.16 47.61 137.83 52.89L140.41 104.41L170.82 96.26L155.93 61.27Z" />
<path id="Layer" fill-rule="evenodd" class="shp1" d="M148.34 26.88C149.93 22.27 151.65 18.61 154.47 16C167.9 12.62 168.82 9.81 166.66 1.75C164.09 0.78 155.77 0.23 147.04 1.78C142.36 1.7 137.26 3.32 132.85 6.73C127.19 10.11 123 15.24 122.58 22.86C118.11 39.38 128.4 52.57 138.25 55.38C139.79 52.1 141.07 48.98 142.16 46.03C140.38 45.03 138.99 43.35 138.42 41.22C137.3 37.03 139.79 32.72 143.99 31.59C144.3 31.51 144.6 31.44 144.91 31.4C146.51 36.59 152.04 54.12 155.73 59.73C160.08 66.34 174.61 64.36 179.51 63.05C183.75 61.92 182.53 57.95 181.66 55.11C181.53 54.7 181.41 54.32 181.32 53.97C181.12 53.23 180.17 53.49 179.09 53.78C177.69 54.16 176.08 54.59 175.65 52.99C175.19 51.24 177.25 49.25 179.09 47.47C180.24 46.36 181.31 45.33 181.62 44.49C182.62 41.85 182.35 38.71 179.95 39.35C178.64 39.7 177.05 40.94 175.13 42.43C172.23 44.67 168.59 47.48 164.09 48.69C156.65 50.69 148.46 27.22 148.34 26.88Z" />
<path id="Layer" fill-rule="evenodd" class="shp2" d="M153.09 209.71L217.61 372.24L260.89 509.65L277.97 509.65L211.82 209.71L153.09 209.71Z" />
<path id="Layer" fill-rule="evenodd" class="shp0" d="M140.1 209.71C139.41 266.82 129.4 343.72 127.79 347.28C126.19 350.84 17.27 437.83 17.27 437.83L29.04 450.36C29.04 450.36 157.56 375.78 163.51 365.83C169.45 355.89 188.81 264.35 204.36 209.71L140.1 209.71Z" />
<path id="Layer" fill-rule="evenodd" class="shp3" d="M18.98 434.83C18.66 433.71 17.48 433.04 16.37 433.43C13.76 434.36 9.38 436.05 7.53 437.6C4.81 439.87 0.34 445.14 0.34 445.14C2.99 448.29 48 501.67 48 501.67C48 501.67 57.18 497.76 53.76 492.53C50.34 487.29 48.16 483.76 48.16 483.76L37.69 447.35C37.54 446.81 36.96 446.5 36.42 446.67L30.58 448.52C30.58 448.52 24.81 445.84 22.5 443.1C20.96 441.27 19.67 437.3 18.98 434.83Z" />
<path id="Layer" fill-rule="evenodd" class="shp3" d="M256.9 501.56C255.84 501.08 254.57 501.55 254.16 502.65C253.2 505.23 251.68 509.67 251.68 512.08C251.68 515.61 252.87 522.4 252.87 522.4C256.99 522.4 327.01 522.4 327.01 522.4C327.01 522.4 329.9 512.89 323.67 512.13C317.45 511.38 313.33 510.77 313.33 510.77L278.57 495.34C278.06 495.12 277.46 495.36 277.24 495.88L274.9 501.52C274.9 501.52 269.14 504.2 265.53 504.2C263.14 504.2 259.24 502.62 256.9 501.56Z" />
<path id="Layer" fill-rule="evenodd" class="shp4" d="M196.47 495.49L277.72 486.72L217.51 209.71L144.74 209.71L196.47 495.49Z" />
<path id="Layer" fill-rule="evenodd" class="shp5" d="M34.08 417.61L87.37 480.39C87.37 480.39 171.56 388.86 185.54 360.95C199.52 333.03 210.67 209.71 210.67 209.71L128.75 209.71C128.75 209.71 122.66 318.2 120.53 323.25C118.41 328.3 34.08 417.61 34.08 417.61Z" />
<path id="Layer" fill-rule="evenodd" class="shp0" d="M301.98 202.61L255.44 179.66L250.3 203.75L294.09 213.45C308.01 224.95 315.46 229.46 316.43 226.97C317.25 224.87 316.04 223.25 314.92 221.76C314.05 220.6 313.24 219.52 313.49 218.34C314.06 215.66 321.86 214.56 329.3 213.83C336.75 213.1 334.03 210.21 331.98 208.91C323.69 205.75 313.69 203.65 301.98 202.61ZM74.02 320.02C70.66 323.3 72.83 326.37 74.43 327C84.51 331 90.51 325.94 97.03 320.44C98.92 318.84 100.86 317.21 102.95 315.75C108.36 311.98 111.36 314.35 114.2 316.59C116.71 318.58 119.09 320.46 122.9 317.88C122.4 317.14 121.81 316.31 121.18 315.41C117.08 309.63 111.04 301.1 112.5 294.23C113.63 288.95 124.42 203.95 124.42 203.95L97.41 208.61C97.41 208.61 97.69 285.62 95.26 293.95C94.07 298.03 82.38 311.83 74.02 320.02Z" />
<path id="Layer" fill-rule="evenodd" class="shp6" d="M154.18 81.97L165.02 78.09C212.77 106.53 241.9 172.21 299.13 199.63L289.56 216.92C199.5 221.56 162.89 141.65 154.18 81.97Z" />
<path id="Layer" fill-rule="evenodd" class="shp7" d="M130.2 230.73C130.2 230.73 197.39 218.88 229.05 213.3C233.56 212.5 231.56 206.14 230.33 202.97C216.11 166.38 179.49 130.68 169.97 76.7L140.67 77.27C123.76 119.29 123.83 167.35 130.2 230.73Z" />
<path id="Layer" fill-rule="evenodd" class="shp8" d="M114.54 119.79C109.29 120.34 104.23 119 100.33 114.19C86.59 97.25 88.54 86.25 99.07 80.89C104.87 77.94 110.85 78.2 118.02 78.51C123.88 78.76 130.53 79.05 138.52 77.64C139.3 77.51 140.01 77.44 140.67 77.42L150.22 76.29C150.22 76.29 211.55 199.5 201.99 246L123.86 259.77C121.3 271.21 118.58 281.27 115.74 289.13L94.54 292.87C79.27 219.65 97.2 158.07 114.54 119.79Z" />
<path id="Layer" fill-rule="evenodd" class="shp9" d="M123.86 259.77C127.23 244.77 130.33 227.4 133.11 209.54C138.52 227.72 145.37 245.72 153.06 254.62L123.86 259.77Z" /></svg>