<svg width="253" height="395" viewBox="0 0 253 395" fill="none" xmlns="http://www.w3.org/2000/svg">
<path fill-rule="evenodd" clip-rule="evenodd" d="M95.3206 177.12C96.9617 199.509 202.684 265.422 203.301 267.272C203.712 268.505 170.394 345.22 170.394 345.22L179.635 348.809C179.635 348.809 230.741 267.563 228.116 258.906C224.357 246.511 146.087 177.358 146.087 177.358L95.3206 177.12Z" fill="#B28B67"/>
<path fill-rule="evenodd" clip-rule="evenodd" d="M172.826 333.67L187.915 339.16C219.731 303.278 232.203 273.672 229.929 258.587C227.655 243.502 148.183 177.176 148.183 177.176L94.2391 177.176C96.0797 229.023 194.071 267.47 195.382 269.679C196.693 271.888 183.794 293.528 172.826 333.67Z" fill="#8464AC"/>
<path fill-rule="evenodd" clip-rule="evenodd" d="M169.853 343.494C169.003 342.689 167.644 342.7 166.895 343.6C165.657 345.089 163.983 347.258 163.472 348.661C162.63 350.973 161.786 355.69 161.786 355.69C164.47 356.667 210.025 373.247 210.025 373.247C210.025 373.247 214.167 367.718 210.296 365.748C206.425 363.778 203.891 362.404 203.891 362.404L185.173 344.317C184.767 343.925 184.119 343.945 183.739 344.361L181.089 347.263C181.089 347.263 176.702 347.647 174.357 346.793C172.981 346.293 171.139 344.713 169.853 343.494Z" fill="#E4E4E4"/>
<path fill-rule="evenodd" clip-rule="evenodd" d="M107.475 177.121L60.3787 290.135L14.0901 385.678H25.0111L144.494 177.121H107.475Z" fill="#997659"/>
<path fill-rule="evenodd" clip-rule="evenodd" d="M18.2715 365.83L42.538 370.379C61.3008 342.806 139.824 229.751 148.433 177.121H94.4105C65.6596 215.167 36.1563 337.802 18.2715 365.83Z" fill="#6615BA"/>
<path fill-rule="evenodd" clip-rule="evenodd" d="M189.39 152.21L222.369 137.733C228.146 131.979 233.725 127.605 239.105 124.613C240.714 124.101 243.462 123.946 240.53 128.227C237.598 132.508 234.706 137.143 235.877 138.644C237.049 140.144 240.443 138.488 241.784 140.928C242.678 142.555 236.957 144.501 224.62 146.766L199.921 165.694L189.39 152.21Z" fill="#B28B67"/>
<path fill-rule="evenodd" clip-rule="evenodd" d="M56.0599 156.197L74.7104 159.896C55.9542 194.834 45.8955 213.352 44.5345 215.448C41.4722 220.165 44.3294 228.809 45.3848 233.362C38.7636 234.902 41.3748 224.941 32.9957 227.021C25.3477 228.919 18.8631 233.791 11.7316 227.221C10.8549 226.413 10.213 223.888 13.2024 222.593C20.65 219.366 31.6531 213.325 33.4373 210.979C35.8703 207.781 43.4112 189.52 56.0599 156.197Z" fill="#B28B67"/>
<path fill-rule="evenodd" clip-rule="evenodd" d="M125.401 86.4489L133.271 85.0996C150.413 101.721 157.409 141.652 168.833 146.938C179.633 151.935 194.944 147.099 213.144 140.569L218.717 153.017C202.181 170.898 166.953 186.006 152.674 177.381C129.844 163.592 124.574 114.343 125.401 86.4489Z" fill="#DFAC22"/>
<path fill-rule="evenodd" clip-rule="evenodd" d="M131.08 75.4526C136.974 79.0034 142.765 80.719 145.483 80.0186C152.3 78.2624 152.926 53.3375 147.652 43.5114C142.378 33.6852 115.265 29.4023 113.898 48.8711C113.424 55.6282 116.262 61.6584 120.456 66.579L112.936 101.613H134.78L131.08 75.4526Z" fill="#B28B67"/>
<path fill-rule="evenodd" clip-rule="evenodd" d="M135.202 32.1862C132.323 31.7144 124.571 31.3899 123.142 31.3901C122.228 31.3901 121.238 31.5987 120.697 30.7603C120.254 30.0737 120.417 28.9125 120.284 28.1157C120.131 27.1902 119.913 26.2765 119.692 25.3652C119.064 22.772 118.115 20.3048 116.787 17.9885C114.295 13.6428 110.644 10.2387 106.034 8.25795C100.944 6.07084 95.1846 5.57004 89.7096 6.01366C83.8506 6.48828 78.547 8.42153 73.0152 10.2408C67.7436 11.9745 62.2223 12.6569 56.7089 11.8103C51.1539 10.9574 46.9565 7.94796 42.271 5.09165C37.4743 2.16748 31.9927 0.254965 26.3221 0.694606C21.0289 1.10513 16.1503 3.28973 11.7734 6.20803C7.6782 8.93846 4.29916 12.2235 2.39144 16.847C0.339156 21.8204 0.341036 27.2796 3.7159 31.675C8.60762 38.0461 17.6889 39.6937 25.2442 39.5299C29.6143 39.4354 33.9062 38.638 38.0321 37.1876C43.5345 35.2531 48.2894 31.9743 53.437 29.314C55.8528 28.0657 58.3498 27.0404 60.9672 26.3019C63.507 25.5849 66.0087 25.2561 68.3083 26.7897C70.741 28.4121 72.9209 30.0058 75.704 31.0215C78.3738 31.9959 81.2017 32.5409 84.0462 32.5189C89.5805 32.4761 95.036 30.7525 100.411 29.598C104.794 28.6568 109.484 27.7186 113.953 28.6235C115.818 29.0011 118.541 29.7807 119.215 31.7177C107.88 33.7712 103.428 47.7836 106.623 58.07C108.348 63.622 118.715 70.1122 122.746 67.1934C125.3 65.3443 123.75 62.9167 122.746 61.3142C120.825 58.2453 120.168 54.3032 123.723 52.1666C126.79 50.3238 130.015 54.6999 130.076 54.6951C130.919 54.6287 138.202 50.5113 143.221 44.503C148.171 44.7964 148.922 41.5336 147.74 38.8652C146.558 36.1969 139.18 32.8387 135.202 32.1862Z" fill="#191847"/>
<path fill-rule="evenodd" clip-rule="evenodd" d="M91.0933 185.308C91.0933 185.308 138.428 185.308 160.73 185.308C163.912 185.308 163.313 180.716 162.853 178.398C157.544 151.651 136.82 122.82 136.82 84.7467L116.734 81.5984C100.12 108.307 94.3742 141.19 91.0933 185.308Z" fill="#DDE3E9"/>
<path fill-rule="evenodd" clip-rule="evenodd" d="M75.6213 204.413H138.305C150.44 173.76 123.392 81.5984 123.392 81.5984H115.668C100.65 108.385 78.556 160.166 75.6213 204.413Z" fill="#FFC836"/>
<path fill-rule="evenodd" clip-rule="evenodd" d="M115.439 81.5984L119.064 81.5984L120.219 87.9031C89.2842 151.871 65.3283 193.74 48.3509 213.51L33.7544 210.652C43.1568 152.367 70.3848 109.349 115.439 81.5984Z" fill="#FFC836"/>
<path fill-rule="evenodd" clip-rule="evenodd" d="M16.1389 380.328C15.065 379.862 13.7913 380.338 13.3958 381.439C12.7417 383.262 11.9099 385.872 11.9099 387.365C11.9099 389.826 12.7302 394.547 12.7302 394.547C15.5861 394.547 64.0642 394.547 64.0642 394.547C64.0642 394.547 66.0652 387.935 61.7541 387.408C57.4429 386.88 54.5914 386.456 54.5914 386.456L30.816 375.861C30.3015 375.632 29.6993 375.873 29.4845 376.393L27.9861 380.027C27.9861 380.027 23.9951 381.888 21.4999 381.888C20.0354 381.888 17.7649 381.034 16.1389 380.328Z" fill="#E4E4E4"/>
</svg>
