<svg width="51" height="64" viewBox="0 0 51 64" fill="none" xmlns="http://www.w3.org/2000/svg">
<path d="M35.6614 14.3431C35.6614 14.2645 35.6614 14.2645 35.6614 14.186V6.33315C35.6614 3.19202 33.0679 0.600586 29.9244 0.600586H6.34741C3.20381 0.600586 0.610352 3.19202 0.610352 6.33315V57.6121C0.610352 60.7533 3.20381 63.3447 6.34741 63.3447H29.9244C33.0679 63.3447 35.6614 60.7533 35.6614 57.6121V43.0844V43.0058V14.3431ZM33.6966 43.1629V49.6022H2.5751V9.39575H33.6966V14.186V43.1629Z" fill="#4C0788"/>
<path d="M18.3279 60.4393C20.5285 60.4393 22.2575 58.7116 22.2575 56.5128C22.2575 54.314 20.5285 52.5864 18.3279 52.5864C16.1274 52.5864 14.3984 54.314 14.3984 56.5128C14.3984 58.7116 16.206 60.4393 18.3279 60.4393ZM18.3279 54.5497C19.4282 54.5497 20.2927 55.4135 20.2927 56.5128C20.2927 57.6122 19.4282 58.476 18.3279 58.476C17.2276 58.476 16.3632 57.6122 16.3632 56.5128C16.3632 55.4135 17.3063 54.5497 18.3279 54.5497Z" fill="white"/>
<path d="M18.2395 3.89544C18.6301 3.89544 18.9468 3.57902 18.9468 3.18868C18.9468 2.79835 18.6301 2.48193 18.2395 2.48193C17.8489 2.48193 17.5322 2.79835 17.5322 3.18868C17.5322 3.57902 17.8489 3.89544 18.2395 3.89544Z" fill="white"/>
<path d="M20.6729 5.30664H15.3396C14.7906 5.30664 14.3984 5.69879 14.3984 6.09094C14.3984 6.54845 14.8691 6.87525 15.3396 6.87525H20.6729C21.2219 6.87525 21.6141 6.4831 21.6141 6.09094C21.6141 5.69879 21.2219 5.30664 20.6729 5.30664Z" fill="white"/>
<path fill-rule="evenodd" clip-rule="evenodd" d="M38.7013 44.55C40.6652 43.9519 42.4494 42.9412 43.9526 41.6188C43.0764 40.9856 42.1015 40.4621 41.0606 40.0476C40.4375 41.8704 39.6329 43.4087 38.7013 44.55ZM35.5992 45.0174C36.6095 44.6474 37.7622 43.5566 38.7937 41.4223C39.0723 40.846 39.3295 40.2157 39.5613 39.5381C38.2922 39.1761 36.9548 38.9602 35.5992 38.8897V45.0174ZM41.5204 38.5267C42.8061 39.0262 44.0147 39.6796 45.0955 40.4941C47.2843 38.0847 48.6591 34.9226 48.7858 31.4419H42.4571C42.4165 34.0041 42.0817 36.4124 41.5204 38.5267ZM40.8601 29.8584C40.7832 27.556 40.4572 25.4199 39.9505 23.5616C38.543 23.959 37.0728 24.189 35.5992 24.2599V29.8584H40.8601ZM40.9798 21.5485C41.985 21.1551 42.9298 20.6604 43.7852 20.0643C42.3174 18.813 40.5927 17.8542 38.7013 17.2782C39.5931 18.3707 40.3685 19.8271 40.9798 21.5485ZM41.4556 23.0626C42.7084 22.5818 43.8891 21.9556 44.9511 21.1774C47.1107 23.485 48.5118 26.5111 48.7569 29.8584H42.4445C42.3661 27.3971 42.0161 25.0894 41.4556 23.0626ZM35.5992 16.8107C36.6095 17.1808 37.7622 18.2716 38.7937 20.4058C39.039 20.9135 39.2679 21.463 39.4773 22.0498C38.2333 22.3976 36.925 22.6055 35.5992 22.6745V16.8107ZM34.8074 15.0786H35.5992V15.1133C43.8527 15.6565 50.379 22.5231 50.379 30.9141C50.379 39.3051 43.8527 46.1717 35.5992 46.7149V46.7496H34.8074H34.5435H34.0157V46.7409C25.5143 46.4625 18.708 39.4832 18.708 30.9141C18.708 22.345 25.5143 15.3656 34.0157 15.0872V15.0786H34.5435H34.8074ZM31.0735 17.0875C30.0881 18.2292 29.2372 19.8088 28.5823 21.6989C27.3915 21.2787 26.2842 20.7297 25.3079 20.0592C26.9504 18.6603 28.9144 17.6277 31.0735 17.0875ZM30.1006 22.1543C30.3199 21.5282 30.5613 20.9434 30.8211 20.4058C31.8526 18.2716 33.0054 17.1808 34.0157 16.8107V22.6909C32.6784 22.6493 31.3573 22.4682 30.1006 22.1543ZM28.1177 23.2142C26.6731 22.7106 25.3233 22.0299 24.1398 21.1733C21.978 23.4813 20.5753 26.5091 20.3301 29.8584H27.1703C27.2467 27.4583 27.5815 25.2042 28.1177 23.2142ZM28.7548 29.8584C28.8301 27.6005 29.1451 25.5026 29.635 23.6698C31.0527 24.0304 32.533 24.2324 34.0157 24.2751V29.8584H28.7548ZM27.1577 31.4419H20.3011C20.4279 34.9243 21.8041 38.0877 23.9947 40.4976C25.1951 39.6035 26.574 38.8946 28.0539 38.3724C27.5171 36.2955 27.1974 33.942 27.1577 31.4419ZM29.5704 37.911C29.0807 35.9938 28.7807 33.7989 28.7415 31.4419H34.0157V37.2891C32.5105 37.3324 31.0077 37.5401 29.5704 37.911ZM30.0173 39.431C31.2989 39.1043 32.6488 38.9158 34.0157 38.8734V45.0174C33.0054 44.6474 31.8526 43.5566 30.8211 41.4223C30.5279 40.8158 30.2583 40.1494 30.0173 39.431ZM28.5023 39.8937C29.1672 41.8884 30.0474 43.5519 31.0735 44.7406C28.84 44.1819 26.8152 43.0961 25.1392 41.6231C26.1343 40.9141 27.273 40.335 28.5023 39.8937ZM40.016 38.0212C40.5225 36.0782 40.8334 33.8441 40.8733 31.4419H35.5992V37.3043C37.0956 37.3763 38.5886 37.6125 40.016 38.0212Z" fill="#541388" stroke="#4C0788"/>
<path d="M30.1767 11.4595H11.1134C10.3103 11.4595 9.65918 12.1105 9.65918 12.9137C9.65918 13.7168 10.3103 14.3679 11.1134 14.3679H30.1767C30.9798 14.3679 31.6309 13.7168 31.6309 12.9137C31.6309 12.1105 30.9798 11.4595 30.1767 11.4595Z" fill="#E4E4E4"/>
<path d="M30.1767 11.4595H11.1134C10.3103 11.4595 9.65918 12.1105 9.65918 12.9137C9.65918 13.7168 10.3103 14.3679 11.1134 14.3679H30.1767C30.9798 14.3679 31.6309 13.7168 31.6309 12.9137C31.6309 12.1105 30.9798 11.4595 30.1767 11.4595Z" stroke="#E81B13"/>
<path d="M5.58682 14.1741C6.33645 14.1741 6.94415 13.5664 6.94415 12.8168C6.94415 12.0672 6.33645 11.4595 5.58682 11.4595C4.83719 11.4595 4.22949 12.0672 4.22949 12.8168C4.22949 13.5664 4.83719 14.1741 5.58682 14.1741Z" fill="#E81B13"/>
</svg>
