<svg width="324" height="252" viewBox="0 0 324 252" fill="none" xmlns="http://www.w3.org/2000/svg">
<path opacity="0.3" fill-rule="evenodd" clip-rule="evenodd" d="M286.879 252C266.378 252 249.758 235.407 249.758 214.939C249.758 194.47 266.378 177.877 286.879 177.877C307.38 177.877 324 194.47 324 214.939C324 235.407 307.38 252 286.879 252Z" fill="#8464AC"/>
<path opacity="0.3" fill-rule="evenodd" clip-rule="evenodd" d="M70.3336 248.425C31.489 248.425 -0.000722008 216.985 -0.000722008 178.203C-0.000722008 139.42 31.489 107.98 70.3336 107.98C109.178 107.98 140.668 139.42 140.668 178.203C140.668 216.985 109.178 248.425 70.3336 248.425Z" fill="#8464AC"/>
<path fill-rule="evenodd" clip-rule="evenodd" d="M89.8848 71.3613L72.5293 111.018L286.879 111.005L269.523 71.3613H89.8848Z" fill="#FFC836"/>
<rect x="90.3359" y="136.062" width="179.423" height="112.132" fill="white"/>
<path d="M284.739 110.996H244.078H235.518V135.694C235.518 140.551 237.097 145.075 239.8 148.851C244.4 155.282 252.262 159.541 261.198 159.541C264.203 159.541 267.075 159.036 269.759 158.15C279.713 154.87 286.879 146.069 286.879 135.694V110.996H284.739Z" fill="#4C0788"/>
<path fill-rule="evenodd" clip-rule="evenodd" d="M249.811 110.996H209.15H200.59V135.694C200.59 140.551 202.17 145.075 204.872 148.851C209.472 155.282 217.334 159.541 226.271 159.541C229.276 159.541 232.147 159.036 234.831 158.15C244.785 154.87 251.952 146.069 251.952 135.694V110.996H249.811Z" fill="#FFC836"/>
<path d="M207.352 110.996H166.691H158.131V135.694C158.131 140.551 159.711 145.075 162.413 148.851C167.013 155.282 174.875 159.541 183.812 159.541C186.817 159.541 189.688 159.036 192.372 158.15C202.326 154.87 209.493 146.069 209.493 135.694V110.996H207.352Z" fill="#4C0788"/>
<path fill-rule="evenodd" clip-rule="evenodd" d="M164.21 110.996H123.549H114.988V135.694C114.988 140.551 116.568 145.075 119.271 148.851C123.87 155.282 131.733 159.541 140.669 159.541C143.674 159.541 146.546 159.036 149.229 158.15C159.184 154.87 166.35 146.069 166.35 135.694V110.996H164.21Z" fill="#FFC836"/>
<path d="M121.751 110.996H81.0896H72.5293V135.694C72.5293 140.551 74.1091 145.075 76.8116 148.851C81.4114 155.282 89.2736 159.541 98.2101 159.541C101.215 159.541 104.087 159.036 106.77 158.15C116.725 154.87 123.891 146.069 123.891 135.694V110.996H121.751Z" fill="#4C0788"/>
<rect x="135.533" y="178.75" width="43.8286" height="69.7404" fill="#9C82BC"/>
<rect x="182.1" y="178.75" width="43.8286" height="69.7404" fill="#9C82BC"/>
<path d="M280.552 248.193L282.77 227.681L255.377 227.688L257.595 248.193H280.552Z" fill="#FFC836"/>
<path d="M269.758 226.999C273.918 226.999 277.291 223.632 277.291 219.478C277.291 215.324 273.918 211.957 269.758 211.957C265.597 211.957 262.225 215.324 262.225 219.478C262.225 223.632 265.597 226.999 269.758 226.999Z" fill="#4C0788"/>
<path d="M264.28 226.998C266.928 226.998 269.074 224.855 269.074 222.212C269.074 219.569 266.928 217.426 264.28 217.426C261.633 217.426 259.486 219.569 259.486 222.212C259.486 224.855 261.633 226.998 264.28 226.998Z" fill="#4C0788"/>
<path d="M277.292 228.366C278.048 228.366 278.661 227.754 278.661 226.998C278.661 226.243 278.048 225.631 277.292 225.631C276.535 225.631 275.922 226.243 275.922 226.998C275.922 227.754 276.535 228.366 277.292 228.366Z" fill="#FFC836"/>
<path d="M276.606 217.424C277.362 217.424 277.976 216.812 277.976 216.057C277.976 215.302 277.362 214.689 276.606 214.689C275.85 214.689 275.236 215.302 275.236 216.057C275.236 216.812 275.85 217.424 276.606 217.424Z" fill="#4C0788"/>
</svg>
