<svg width="318" height="33" viewBox="0 0 318 33" fill="none" xmlns="http://www.w3.org/2000/svg">
<path d="M193.749 17.8678C193.293 17.8678 192.863 17.6906 192.541 17.3663C192.218 17.0436 192.039 16.6139 192.039 16.1575C192.039 15.7011 192.216 15.2715 192.541 14.9488C192.863 14.6261 193.293 14.4473 193.749 14.4473C194.206 14.4473 194.635 14.6245 194.958 14.9488C195.281 15.2731 195.46 15.7011 195.46 16.1575C195.46 16.6139 195.282 17.0436 194.958 17.3663C194.635 17.6889 194.206 17.8678 193.749 17.8678ZM193.749 15.5874C193.597 15.5874 193.453 15.646 193.346 15.7546C193.239 15.8616 193.179 16.0054 193.179 16.1575C193.179 16.3097 193.238 16.4534 193.346 16.5604C193.453 16.6674 193.597 16.7276 193.749 16.7276C193.901 16.7276 194.045 16.6691 194.152 16.5604C194.259 16.4534 194.319 16.3097 194.319 16.1575C194.319 16.0054 194.261 15.8616 194.152 15.7546C194.044 15.646 193.901 15.5874 193.749 15.5874Z" fill="white"/>
<path d="M197.377 14.2411C196.939 14.2411 196.501 14.0739 196.168 13.7413C195.501 13.0742 195.501 11.9892 196.168 11.3238C196.491 11.0011 196.921 10.8223 197.377 10.8223C197.833 10.8223 198.263 10.9995 198.586 11.3238C198.908 11.6465 199.087 12.0761 199.087 12.5325C199.087 12.9889 198.91 13.4186 198.586 13.7413C198.253 14.0739 197.815 14.2411 197.377 14.2411ZM197.377 11.9608C197.225 11.9608 197.081 12.0193 196.974 12.128C196.752 12.3503 196.752 12.7114 196.974 12.9338C197.196 13.1561 197.558 13.1561 197.78 12.9338C197.887 12.8268 197.947 12.683 197.947 12.5309C197.947 12.3787 197.889 12.2349 197.78 12.128C197.673 12.021 197.529 11.9608 197.377 11.9608Z" fill="white"/>
<path d="M190.12 21.4948C189.664 21.4948 189.234 21.3175 188.912 20.9932C188.589 20.6705 188.41 20.2409 188.41 19.7845C188.41 19.3281 188.587 18.8984 188.912 18.5758C189.234 18.2531 189.664 18.0742 190.12 18.0742C190.577 18.0742 191.006 18.2514 191.329 18.5758C191.652 18.8984 191.831 19.3281 191.831 19.7845C191.831 20.2409 191.653 20.6705 191.329 20.9932C191.006 21.3175 190.577 21.4948 190.12 21.4948ZM190.12 19.2144C189.968 19.2144 189.825 19.2729 189.718 19.3816C189.611 19.4886 189.55 19.6323 189.55 19.7845C189.55 19.9366 189.609 20.0804 189.718 20.1874C189.825 20.2944 189.968 20.3546 190.12 20.3546C190.273 20.3546 190.416 20.2961 190.523 20.1874C190.63 20.0804 190.691 19.9366 190.691 19.7845C190.691 19.6323 190.632 19.4886 190.523 19.3816C190.416 19.2746 190.273 19.2144 190.12 19.2144Z" fill="white"/>
<path d="M197.377 21.4948C196.921 21.4948 196.491 21.3175 196.168 20.9932C195.501 20.3262 195.501 19.2411 196.168 18.5758C196.491 18.2531 196.921 18.0742 197.377 18.0742C197.833 18.0742 198.263 18.2514 198.586 18.5758C198.908 18.8984 199.087 19.3281 199.087 19.7845C199.087 20.2409 198.91 20.6705 198.586 20.9932C198.263 21.3175 197.835 21.4948 197.377 21.4948ZM196.974 20.1874C197.081 20.2944 197.225 20.3546 197.377 20.3546C197.529 20.3546 197.673 20.2961 197.78 20.1874C197.887 20.0804 197.947 19.9366 197.947 19.7845C197.947 19.6323 197.889 19.4886 197.78 19.3816C197.673 19.2746 197.529 19.2144 197.377 19.2144C197.225 19.2144 197.081 19.2729 196.974 19.3816C196.752 19.6039 196.752 19.9667 196.974 20.1874Z" fill="white"/>
<path d="M190.12 14.2411C189.682 14.2411 189.244 14.0739 188.912 13.7413C188.589 13.4186 188.41 12.9889 188.41 12.5325C188.41 12.0761 188.587 11.6465 188.912 11.3238C189.234 11.0011 189.664 10.8223 190.12 10.8223C190.577 10.8223 191.006 10.9995 191.329 11.3238C191.652 11.6465 191.831 12.0761 191.831 12.5325C191.831 12.9889 191.653 13.4186 191.329 13.7413C190.996 14.0739 190.558 14.2411 190.12 14.2411ZM189.718 12.9338C189.94 13.1561 190.301 13.1561 190.523 12.9338C190.63 12.8268 190.691 12.683 190.691 12.5309C190.691 12.3787 190.632 12.2349 190.523 12.128C190.416 12.021 190.273 11.9608 190.12 11.9608C189.968 11.9608 189.825 12.0193 189.718 12.128C189.611 12.2349 189.55 12.3787 189.55 12.5309C189.55 12.683 189.611 12.8268 189.718 12.9338Z" fill="white"/>
<path d="M193.75 11.5987C193.445 11.5987 193.159 11.48 192.944 11.2644C192.728 11.0487 192.609 10.7628 192.609 10.4585C192.609 9.82994 193.121 9.31836 193.75 9.31836C194.378 9.31836 194.89 9.82994 194.89 10.4585C194.89 11.0871 194.378 11.5987 193.75 11.5987Z" fill="white"/>
<path d="M193.75 22.9405C193.121 22.9405 192.609 22.4289 192.609 21.8003C192.609 21.1717 193.121 20.6602 193.75 20.6602C194.378 20.6602 194.89 21.1717 194.89 21.8003C194.89 22.4289 194.378 22.9405 193.75 22.9405Z" fill="white"/>
<path d="M199.39 17.2979C198.762 17.2979 198.25 16.7864 198.25 16.1578C198.25 15.5291 198.762 15.0176 199.39 15.0176C200.019 15.0176 200.53 15.5291 200.53 16.1578C200.529 16.7864 200.019 17.2979 199.39 17.2979Z" fill="white"/>
<path d="M188.105 17.2979C187.476 17.2979 186.965 16.7864 186.965 16.1578C186.965 15.5291 187.476 15.0176 188.105 15.0176C188.734 15.0176 189.245 15.5291 189.245 16.1578C189.245 16.7864 188.734 17.2979 188.105 17.2979Z" fill="white"/>
<path d="M202.296 15.5882H202.848C202.796 14.7489 202.632 13.9331 202.361 13.1557L201.848 13.3714L201.407 12.3198L201.92 12.1041C201.567 11.3953 201.121 10.7299 200.586 10.1247L200.196 10.5142L199.391 9.70842L199.78 9.31889C199.151 8.76217 198.458 8.30075 197.715 7.94299L197.505 8.4579L196.45 8.02825L196.66 7.51333C195.91 7.26088 195.124 7.10708 194.318 7.05859V7.6103H193.178V7.05859C192.339 7.11042 191.523 7.27426 190.746 7.54509L190.961 8.05834L189.91 8.4997L189.694 7.98645C188.985 8.33921 188.32 8.78558 187.716 9.32056L188.106 9.71009L187.3 10.5159L186.91 10.1264C186.354 10.755 185.892 11.4488 185.534 12.1911L186.049 12.4017L185.618 13.4566L185.103 13.246C184.851 13.9966 184.697 14.7824 184.648 15.5882H185.2V16.7284H184.648C184.7 17.5676 184.864 18.3835 185.135 19.1609L185.648 18.9452L186.09 19.9968L185.576 20.2124C185.929 20.9213 186.375 21.5867 186.91 22.1919L187.3 21.8023L188.106 22.6081L187.716 22.9977C188.345 23.5544 189.039 24.0158 189.781 24.3736L189.992 23.8587L191.046 24.29L190.836 24.8049C191.586 25.0574 192.372 25.2112 193.178 25.2596V24.7079H194.318V25.2596C195.157 25.2078 195.973 25.044 196.751 24.7731L196.535 24.2599L197.587 23.8185L197.802 24.3318C198.511 23.979 199.177 23.5327 199.782 22.9977L199.392 22.6081L200.198 21.8023L200.588 22.1919C201.144 21.5633 201.606 20.8695 201.963 20.1272L201.449 19.9165L201.88 18.8616L202.395 19.0723C202.647 18.3216 202.801 17.5359 202.849 16.73H202.298V15.5882H202.296ZM199.391 21.8007C197.883 23.307 195.88 24.1379 193.748 24.1379C191.617 24.1379 189.614 23.3086 188.106 21.8007C186.599 20.2944 185.769 18.2898 185.769 16.1583C185.769 14.0267 186.598 12.0239 188.106 10.5159C189.612 9.0096 191.617 8.17871 193.748 8.17871C195.88 8.17871 197.883 9.00793 199.391 10.5159C200.897 12.0222 201.728 14.0267 201.728 16.1583C201.728 18.2898 200.897 20.2927 199.391 21.8007Z" fill="white"/>
<path d="M201.41 12.3195L201.852 13.3711L202.365 13.1554L202.903 12.928L203.124 13.4547L204.174 13.0116L203.291 10.9102L202.239 11.3532L202.46 11.8781L201.923 12.1038L201.41 12.3195Z" fill="white"/>
<path d="M185.259 20.9628L185.038 20.4378L185.576 20.2122L186.089 19.9965L185.648 18.9449L185.135 19.1606L184.596 19.3863L184.376 18.8613L183.324 19.3027L184.209 21.4042L185.259 20.9628Z" fill="white"/>
<path d="M198.03 24.8683L197.804 24.3316L197.588 23.8184L196.537 24.2597L196.752 24.773L196.978 25.3113L196.453 25.532L196.894 26.5819L198.996 25.6992L198.555 24.6476L198.03 24.8683Z" fill="white"/>
<path d="M189.468 7.44603L189.694 7.98436L189.909 8.4976L190.961 8.05624L190.745 7.54299L190.518 7.00467L191.045 6.78399L190.601 5.73242L188.5 6.61681L188.943 7.66671L189.468 7.44603Z" fill="white"/>
<path d="M202.934 19.29L202.394 19.0693L201.879 18.8587L201.449 19.9153L201.964 20.1242L202.504 20.3449L202.288 20.8732L203.343 21.3045L204.206 19.193L203.149 18.7617L202.934 19.29Z" fill="white"/>
<path d="M184.154 11.0098L183.293 13.1213L184.348 13.5509L184.564 13.0243L185.104 13.245L185.618 13.454L186.05 12.399L185.535 12.1884L184.995 11.9677L185.211 11.4411L184.154 11.0098Z" fill="white"/>
<path d="M190.835 24.802L191.046 24.2871L189.991 23.8574L189.78 24.3723L189.56 24.9123L189.033 24.6967L188.602 25.7516L190.713 26.6142L191.143 25.5577L190.616 25.342L190.835 24.802Z" fill="white"/>
<path d="M196.452 8.02834L197.509 8.45799L197.718 7.94308L197.939 7.40308L198.467 7.61874L198.898 6.56216L196.787 5.70117L196.355 6.75609L196.884 6.97175L196.663 7.51174L196.452 8.02834Z" fill="white"/>
<path d="M200.586 10.1262L202.211 8.50115L203.017 9.30696L203.823 8.50115L201.405 6.08203L200.599 6.88952L201.405 7.69533L199.78 9.32034L199.391 9.70987L200.196 10.5157L200.586 10.1262Z" fill="white"/>
<path d="M186.909 22.1903L185.285 23.8153L184.478 23.0095L183.672 23.8153L186.091 26.2328L186.897 25.4269L186.091 24.6211L187.716 22.9961L188.106 22.6066L187.3 21.8008L186.909 22.1903Z" fill="white"/>
<path d="M202.211 23.8153L200.586 22.1903L200.196 21.8008L199.391 22.6066L199.78 22.9961L201.405 24.6211L200.599 25.4269L201.405 26.2328L203.823 23.8153L203.017 23.0095L202.211 23.8153Z" fill="white"/>
<path d="M186.091 7.69533L186.897 6.88952L186.091 6.08203L183.672 8.50115L184.478 9.30696L185.285 8.50115L186.909 10.1262L187.3 10.5157L188.106 9.70987L187.716 9.32034L186.091 7.69533Z" fill="white"/>
<path d="M205.147 14.4473V15.5874H202.85H202.297V16.7276H202.85H205.147V17.8678H206.287V14.4473H205.147Z" fill="white"/>
<path d="M185.2 16.7276V15.5874H184.648H182.351V14.4473H181.211V17.8678H182.351V16.7276H184.648H185.2Z" fill="white"/>
<path d="M194.319 25.2587V24.707H193.179V25.2587V27.5558H192.039V28.696H195.46V27.5558H194.319V25.2587Z" fill="white"/>
<path d="M192.039 4.75932H193.179V7.05639V7.60809H194.319V7.05639V4.75932H195.46V3.61914H192.039V4.75932Z" fill="white"/>
<path d="M167 17.5658V14.8156H170.782C171.514 14.8156 172.117 14.7538 172.587 14.6284C173.055 14.503 173.416 14.3007 173.671 14.0249C173.923 13.7507 174.087 13.3946 174.169 12.9616C174.249 12.5252 174.267 11.9969 174.221 11.3784L173.876 5.70758C173.829 4.81149 173.945 4.01236 174.221 3.30183C174.496 2.59131 174.908 1.98612 175.459 1.49628C176.009 1.00309 176.69 0.631948 177.504 0.377832C178.317 0.125388 179.229 0 180.237 0H181.784V2.75014H180.237C179.136 2.75014 178.305 2.99589 177.745 3.48908C177.183 3.98226 176.926 4.72288 176.971 5.70758L177.315 11.3784C177.36 11.9969 177.302 12.5871 177.143 13.1488C176.982 13.7106 176.735 14.2037 176.402 14.6284C176.071 15.0513 175.652 15.3891 175.147 15.6415C174.644 15.8939 174.047 16.031 173.36 16.0528V16.2266C174.047 16.2484 174.649 16.3921 175.163 16.6546C175.678 16.9204 176.096 17.2698 176.419 17.7045C176.74 18.1409 176.981 18.6441 177.141 19.2175C177.3 19.7909 177.359 20.3878 177.313 21.0047L176.969 26.6086C176.922 27.5933 177.18 28.3322 177.743 28.8238C178.305 29.3186 179.136 29.5644 180.236 29.5644H181.782V32.3145H180.236C179.228 32.3145 178.315 32.1891 177.502 31.9367C176.688 31.6826 176.006 31.3097 175.458 30.8182C174.906 30.325 174.495 29.7249 174.219 29.0143C173.943 28.3038 173.829 27.5014 173.875 26.6086L174.219 21.0047C174.266 20.3861 174.247 19.8578 174.167 19.4231C174.085 18.9868 173.921 18.6307 173.669 18.3565C173.416 18.079 173.06 17.8801 172.602 17.7547C172.144 17.6293 171.536 17.5641 170.78 17.5641H167V17.5658Z" fill="white"/>
<path d="M205.715 32.3165V29.5663H207.261C208.361 29.5663 209.192 29.3206 209.754 28.8257C210.316 28.3325 210.573 27.5953 210.528 26.6106L210.184 20.9732C210.16 20.3513 210.222 19.7645 210.373 19.2027C210.521 18.641 210.762 18.1478 211.095 17.7232C211.426 17.3002 211.845 16.9625 212.35 16.7101C212.855 16.4576 213.452 16.3205 214.137 16.2955V16.1249C213.45 16.1032 212.847 15.9594 212.334 15.6936C211.817 15.4311 211.399 15.0801 211.078 14.647C210.757 14.2107 210.521 13.7075 210.373 13.1341C210.222 12.5606 210.16 11.9638 210.184 11.3469L210.528 5.70953C210.573 4.72483 210.316 3.98254 209.754 3.49103C209.192 2.99784 208.361 2.75209 207.261 2.75209H205.715V0.00195312H207.261C208.269 0.00195312 209.181 0.127341 209.995 0.379785C210.807 0.632229 211.491 1.00504 212.039 1.49822C212.589 1.98974 213.002 2.59327 213.278 3.30379C213.552 4.01431 213.668 4.8151 213.621 5.70953L213.278 11.3469C213.255 11.9655 213.278 12.4938 213.347 12.9284C213.415 13.3648 213.574 13.7209 213.828 13.995C214.081 14.2692 214.435 14.4715 214.895 14.5969C215.353 14.7223 215.961 14.7875 216.715 14.7875H220.499V17.5376H216.715C215.983 17.5376 215.381 17.5995 214.911 17.7249C214.442 17.8536 214.081 18.0525 213.828 18.3267C213.576 18.6042 213.415 18.9587 213.347 19.3933C213.278 19.8297 213.255 20.3563 213.278 20.9765L213.621 26.6139C213.668 27.5066 213.552 28.3091 213.278 29.0196C213.002 29.7302 212.589 30.332 212.039 30.8235C211.489 31.315 210.807 31.6879 209.995 31.942C209.181 32.1944 208.269 32.3198 207.261 32.3198H205.715V32.3165Z" fill="white"/>
<path d="M227.422 17.2662H228.557L228.92 15.1597H227.82V13.9895H229.119L229.47 12H230.699L230.348 13.9895H231.81L232.161 12H233.39L233.039 13.9895H233.975V15.1597H232.84L232.477 17.2662H233.566V18.4365H232.278L231.927 20.4259H230.699L231.05 18.4365H229.587L229.236 20.4259H228.007L228.358 18.4365H227.422V17.2662ZM229.786 17.2662H231.249L231.611 15.1597H230.149L229.786 17.2662Z" fill="white"/>
<path d="M234.621 13.9895H236.318V12H238.073V13.9895H240.472V15.5693H238.073V18.2024C238.073 18.4047 238.13 18.5635 238.244 18.6756C238.358 18.7892 238.515 18.8444 238.717 18.8444H240.355V20.4243H238.541C237.848 20.4243 237.303 20.227 236.908 19.8324C236.514 19.4379 236.318 18.8946 236.318 18.2008V15.5677H234.621V13.9895Z" fill="white"/>
<path d="M241.795 16.4359C241.795 16.0464 241.865 15.6953 242.005 15.3827C242.146 15.0701 242.345 14.8009 242.602 14.5752C242.86 14.3495 243.171 14.1756 243.532 14.0536C243.894 13.9332 244.297 13.873 244.744 13.873C245.18 13.873 245.578 13.9349 245.937 14.0603C246.297 14.1857 246.604 14.3612 246.862 14.5869C247.119 14.8126 247.318 15.0851 247.459 15.4011C247.599 15.7171 247.669 16.0665 247.669 16.4493V17.6196H243.527V17.9707C243.527 18.3602 243.632 18.6628 243.843 18.8768C244.053 19.0908 244.354 19.1978 244.744 19.1978C245.033 19.1978 245.279 19.151 245.481 19.0573C245.683 18.9637 245.82 18.835 245.891 18.6712H247.611C247.541 18.952 247.417 19.2078 247.241 19.4368C247.066 19.6676 246.854 19.8632 246.603 20.0287C246.354 20.1925 246.069 20.3196 245.755 20.4082C245.439 20.4984 245.101 20.5436 244.742 20.5436C244.297 20.5436 243.893 20.4817 243.53 20.3563C243.167 20.231 242.858 20.0571 242.6 19.8347C242.343 19.6124 242.144 19.3416 242.004 19.0206C241.863 18.7012 241.793 18.3502 241.793 17.9673V16.4359H241.795ZM243.527 16.5647H245.973V16.4476C245.973 16.0581 245.866 15.7555 245.65 15.5398C245.436 15.3259 245.133 15.2189 244.744 15.2189C244.361 15.2189 244.063 15.3259 243.849 15.5398C243.635 15.7538 243.528 16.0531 243.528 16.4359V16.5647H243.527Z" fill="white"/>
<path d="M251.824 20.5436C251.379 20.5436 250.975 20.4851 250.612 20.368C250.249 20.251 249.94 20.0838 249.682 19.8648C249.425 19.6458 249.226 19.3833 249.086 19.0757C248.945 18.7681 248.875 18.4221 248.875 18.0392V16.3891C248.875 16.0063 248.945 15.6619 249.086 15.3526C249.226 15.045 249.425 14.7808 249.682 14.5635C249.94 14.3445 250.249 14.1756 250.612 14.0536C250.975 13.9332 251.378 13.873 251.824 13.873C252.214 13.873 252.576 13.9282 252.912 14.0369C253.248 14.1456 253.544 14.3027 253.802 14.505C254.059 14.7073 254.273 14.953 254.445 15.2423C254.618 15.5315 254.735 15.8541 254.797 16.2136H253.041C252.986 15.9645 252.851 15.7655 252.632 15.6167C252.413 15.468 252.143 15.3944 251.824 15.3944C251.45 15.3944 251.157 15.4813 250.946 15.6585C250.736 15.8341 250.63 16.0782 250.63 16.3908V18.0409C250.63 18.3535 250.736 18.5942 250.946 18.7664C251.157 18.9386 251.45 19.0239 251.824 19.0239C252.137 19.0239 252.401 18.947 252.62 18.7949C252.839 18.6427 252.979 18.4421 253.041 18.193H254.797C254.735 18.5525 254.618 18.8751 254.445 19.1643C254.273 19.4536 254.059 19.701 253.802 19.9083C253.544 20.1156 253.248 20.2728 252.912 20.3814C252.576 20.4901 252.214 20.5436 251.824 20.5436Z" fill="white"/>
<path d="M255.986 12H257.741V13.9895C257.741 14.1065 257.735 14.2319 257.723 14.3639C257.711 14.496 257.698 14.6181 257.681 14.7267C257.666 14.8354 257.65 14.9608 257.634 15.1012H257.763C257.818 14.7117 257.989 14.4091 258.278 14.1951C258.567 13.9811 258.945 13.8724 259.413 13.8724C260.069 13.8724 260.585 14.0864 260.965 14.5161C261.343 14.9457 261.531 15.5309 261.531 16.2715V20.4259H259.776V16.447C259.776 16.1193 259.684 15.8619 259.502 15.6746C259.318 15.4874 259.071 15.3938 258.758 15.3938C258.445 15.3938 258.198 15.4874 258.014 15.6746C257.83 15.8619 257.74 16.1193 257.74 16.447V20.4259H255.984V12H255.986Z" fill="white"/>
<path d="M266.202 12H268.192L264.517 16.9034V17.3364H266.741V15.6278H268.496V20.4259H266.741V18.8578H262.879V16.4119L266.202 12Z" fill="white"/>
<path d="M272.875 20.5425C272.43 20.5425 272.029 20.4807 271.67 20.3553C271.31 20.2299 271.002 20.0527 270.745 19.822C270.488 19.5913 270.289 19.3154 270.148 18.9911C270.008 18.6668 269.938 18.3073 269.938 17.9094V14.5156C269.938 14.1177 270.008 13.7566 270.148 13.4323C270.289 13.108 270.488 12.8321 270.745 12.6014C271.002 12.3707 271.312 12.1935 271.675 12.0681C272.037 11.9427 272.44 11.8809 272.887 11.8809C273.323 11.8809 273.721 11.9427 274.08 12.0681C274.44 12.1935 274.747 12.3707 275.005 12.6014C275.262 12.8321 275.461 13.108 275.602 13.4323C275.742 13.7566 275.812 14.1177 275.812 14.5156H274.057C274.057 14.188 273.952 13.9305 273.741 13.7433C273.53 13.556 273.246 13.4624 272.887 13.4624C272.52 13.4624 272.23 13.556 272.016 13.7433C271.802 13.9305 271.695 14.188 271.695 14.5156V17.9094C271.695 18.2371 271.798 18.4946 272.004 18.6818C272.211 18.869 272.502 18.9627 272.875 18.9627C273.241 18.9627 273.53 18.8657 273.741 18.6701C273.952 18.4745 274.057 18.2221 274.057 17.9094H275.812C275.812 18.3073 275.742 18.6684 275.602 18.9911C275.461 19.3154 275.262 19.5913 275.005 19.822C274.747 20.0527 274.44 20.2299 274.08 20.3553C273.722 20.4807 273.32 20.5425 272.875 20.5425Z" fill="white"/>
<path d="M279.848 20.5425C279.403 20.5425 278.998 20.4807 278.635 20.3553C278.273 20.2299 277.963 20.0527 277.706 19.822C277.448 19.5913 277.25 19.3154 277.109 18.9911C276.969 18.6668 276.898 18.3073 276.898 17.9094V14.5039C276.898 14.106 276.969 13.7466 277.109 13.4273C277.25 13.108 277.448 12.8321 277.706 12.6014C277.963 12.3707 278.273 12.1935 278.635 12.0681C278.998 11.9427 279.401 11.8809 279.848 11.8809C280.294 11.8809 280.697 11.9427 281.06 12.0681C281.422 12.1935 281.733 12.3707 281.991 12.6014C282.248 12.8321 282.447 13.1063 282.588 13.4273C282.728 13.7466 282.798 14.106 282.798 14.5039V17.9094C282.798 18.299 282.726 18.6567 282.583 18.9794C282.439 19.3037 282.237 19.5796 281.979 19.8103C281.722 20.041 281.412 20.2199 281.048 20.3486C280.685 20.479 280.286 20.5425 279.848 20.5425ZM278.654 17.9094C278.654 18.2455 278.761 18.5113 278.975 18.7102C279.189 18.9092 279.48 19.0078 279.846 19.0078C280.212 19.0078 280.503 18.9092 280.717 18.7102C280.931 18.5113 281.04 18.2438 281.04 17.9094V14.5039C281.04 14.1679 280.933 13.9021 280.717 13.7031C280.501 13.5042 280.212 13.4039 279.846 13.4039C279.48 13.4039 279.189 13.5042 278.975 13.7031C278.761 13.9021 278.654 14.1696 278.654 14.5039V17.9094Z" fill="white"/>
<path d="M283.477 12H285.255L286.671 18.0737C286.703 18.1907 286.728 18.3178 286.748 18.4549C286.768 18.592 286.785 18.7173 286.802 18.8344C286.817 18.9748 286.834 19.1152 286.849 19.2557H286.919C286.934 19.1152 286.954 18.9748 286.977 18.8344C286.992 18.7173 287.012 18.5903 287.036 18.4549C287.059 18.3178 287.083 18.1907 287.106 18.0737L288.499 12H290.266L288.019 20.4259H285.678L283.477 12Z" fill="white"/>
<path d="M291.258 13.5213V12H296.524V13.5213H294.769V18.9046H296.524V20.4259H291.258V18.9046H293.013V13.5213H291.258Z" fill="white"/>
<path d="M298.141 12H300.914C301.359 12 301.763 12.0635 302.126 12.1923C302.489 12.321 302.8 12.5066 303.057 12.749C303.315 12.9914 303.514 13.2789 303.654 13.615C303.795 13.951 303.865 14.3255 303.865 14.7384V17.6758C303.865 18.0887 303.795 18.4649 303.654 18.8043C303.514 19.1437 303.315 19.4329 303.057 19.6703C302.8 19.9077 302.489 20.0933 302.126 20.227C301.763 20.3591 301.361 20.4259 300.914 20.4259H298.141V12ZM299.896 18.7876H300.914C301.274 18.7876 301.561 18.6856 301.78 18.4833C301.999 18.281 302.108 18.0118 302.108 17.6758V14.7384C302.108 14.4108 301.999 14.1449 301.78 13.9426C301.561 13.7404 301.274 13.6384 300.914 13.6384H299.896V18.7876Z" fill="white"/>
<path d="M305.242 18.9046H307.501V14.4927C307.501 14.1566 307.513 13.9159 307.536 13.7671C307.544 13.6735 307.551 13.5949 307.559 13.5331H307.524C307.492 13.5715 307.451 13.615 307.395 13.6618C307.357 13.7002 307.304 13.747 307.238 13.8022C307.171 13.8574 307.091 13.9159 306.998 13.9778L305.348 15.0427V13.3458L307.325 12H309.256V18.9046H311.035V20.4259H305.242V18.9046Z" fill="white"/>
<path d="M311.914 14.6449C311.914 14.232 311.986 13.8542 312.13 13.5165C312.273 13.1771 312.479 12.8862 312.743 12.6454C313.009 12.403 313.328 12.2158 313.703 12.0837C314.077 11.9516 314.495 11.8848 314.955 11.8848C315.423 11.8848 315.844 11.9533 316.219 12.0904C316.593 12.2275 316.911 12.4197 317.174 12.6688C317.434 12.9179 317.638 13.2189 317.782 13.57C317.926 13.921 317.999 14.3156 317.999 14.7519C317.999 15.2903 317.886 15.8302 317.66 16.3736C317.434 16.9153 317.102 17.5138 316.665 18.1708L315.144 20.4294H313.19L315.121 17.6091C315.34 17.2964 315.507 17.0507 315.624 16.8718C315.741 16.6929 315.831 16.5592 315.893 16.4739C315.963 16.3719 316.007 16.3067 316.022 16.2749H315.951C315.834 16.4538 315.697 16.611 315.542 16.7431C315.401 16.8684 315.228 16.9788 315.02 17.0757C314.813 17.1727 314.569 17.2229 314.288 17.2229C313.937 17.2229 313.614 17.161 313.322 17.0356C313.029 16.9102 312.778 16.7364 312.568 16.514C312.357 16.2917 312.195 16.0208 312.081 15.6998C311.971 15.3789 311.914 15.0278 311.914 14.6449ZM314.957 15.9205C315.346 15.9205 315.659 15.8035 315.893 15.5694C316.127 15.3354 316.244 15.0228 316.244 14.6332C316.244 14.2353 316.129 13.921 315.898 13.6903C315.667 13.4596 315.355 13.3459 314.957 13.3459C314.559 13.3459 314.245 13.4613 314.016 13.6903C313.785 13.921 313.669 14.2353 313.669 14.6332C313.669 15.0311 313.785 15.3454 314.016 15.5745C314.245 15.8068 314.559 15.9205 314.957 15.9205Z" fill="white"/>
<path d="M8.16211 11.0469V17.8145C8.15755 18.7533 7.86133 19.5212 7.27344 20.1182C6.6901 20.7152 5.89714 21.0501 4.89453 21.123L4.5459 21.1367C3.45671 21.1367 2.58854 20.8428 1.94141 20.2549C1.29427 19.667 0.966146 18.8581 0.957031 17.8281V11.0469H2.25586V17.7871C2.25586 18.5072 2.4541 19.0677 2.85059 19.4688C3.24707 19.8652 3.81217 20.0635 4.5459 20.0635C5.28874 20.0635 5.85612 19.8652 6.24805 19.4688C6.64453 19.0723 6.84277 18.514 6.84277 17.7939V11.0469H8.16211ZM11.2246 13.6035L11.2588 14.4238C11.8011 13.7858 12.5326 13.4668 13.4531 13.4668C14.4876 13.4668 15.1917 13.8633 15.5654 14.6562C15.8115 14.3008 16.1305 14.0137 16.5225 13.7949C16.9189 13.5762 17.3861 13.4668 17.9238 13.4668C19.5462 13.4668 20.3711 14.3258 20.3984 16.0439V21H19.1338V16.1191C19.1338 15.5905 19.013 15.1963 18.7715 14.9365C18.5299 14.6722 18.1243 14.54 17.5547 14.54C17.0853 14.54 16.6956 14.6813 16.3857 14.9639C16.0758 15.2419 15.8958 15.6178 15.8457 16.0918V21H14.5742V16.1533C14.5742 15.0778 14.0479 14.54 12.9951 14.54C12.1657 14.54 11.5983 14.8932 11.293 15.5996V21H10.0283V13.6035H11.2246ZM32.0332 17.3838C32.0332 18.5094 31.7757 19.4163 31.2607 20.1045C30.7458 20.7926 30.0485 21.1367 29.1689 21.1367C28.2712 21.1367 27.5648 20.8519 27.0498 20.2822V23.8438H25.7852V13.6035H26.9404L27.002 14.4238C27.5169 13.7858 28.2324 13.4668 29.1484 13.4668C30.0371 13.4668 30.7389 13.8018 31.2539 14.4717C31.7734 15.1416 32.0332 16.0736 32.0332 17.2676V17.3838ZM30.7686 17.2402C30.7686 16.4062 30.5908 15.7477 30.2354 15.2646C29.8799 14.7816 29.3923 14.54 28.7725 14.54C28.0068 14.54 27.4326 14.8796 27.0498 15.5586V19.0928C27.4281 19.7673 28.0068 20.1045 28.7861 20.1045C29.3923 20.1045 29.873 19.8652 30.2285 19.3867C30.5885 18.9036 30.7686 18.1882 30.7686 17.2402ZM37.2217 14.7383C37.0303 14.7064 36.8229 14.6904 36.5996 14.6904C35.7702 14.6904 35.2074 15.0436 34.9111 15.75V21H33.6465V13.6035H34.877L34.8975 14.458C35.3122 13.7972 35.9001 13.4668 36.6611 13.4668C36.9072 13.4668 37.0941 13.4987 37.2217 13.5625V14.7383ZM37.9189 17.2334C37.9189 16.5088 38.0602 15.8571 38.3428 15.2783C38.6299 14.6995 39.0264 14.2529 39.5322 13.9385C40.0426 13.624 40.6237 13.4668 41.2754 13.4668C42.2826 13.4668 43.096 13.8154 43.7158 14.5127C44.3402 15.21 44.6523 16.1374 44.6523 17.2949V17.3838C44.6523 18.1038 44.5133 18.751 44.2354 19.3252C43.9619 19.8949 43.5677 20.3392 43.0527 20.6582C42.5423 20.9772 41.9544 21.1367 41.2891 21.1367C40.2865 21.1367 39.473 20.7881 38.8486 20.0908C38.2288 19.3936 37.9189 18.4707 37.9189 17.3223V17.2334ZM39.1904 17.3838C39.1904 18.2041 39.3796 18.8626 39.7578 19.3594C40.1406 19.8561 40.651 20.1045 41.2891 20.1045C41.9316 20.1045 42.4421 19.8538 42.8203 19.3525C43.1986 18.8467 43.3877 18.1403 43.3877 17.2334C43.3877 16.4222 43.194 15.766 42.8066 15.2646C42.4238 14.7588 41.9134 14.5059 41.2754 14.5059C40.651 14.5059 40.1475 14.7542 39.7646 15.251C39.3818 15.7477 39.1904 16.4587 39.1904 17.3838ZM47.5439 13.6035V21.8545C47.5439 23.2764 46.8991 23.9873 45.6094 23.9873C45.3314 23.9873 45.0739 23.9463 44.8369 23.8643V22.8525C44.9827 22.889 45.1742 22.9072 45.4111 22.9072C45.6937 22.9072 45.9079 22.8298 46.0537 22.6748C46.2041 22.5244 46.2793 22.2601 46.2793 21.8818V13.6035H47.5439ZM46.1494 11.6416C46.1494 11.4411 46.2109 11.2702 46.334 11.1289C46.4616 10.9831 46.6462 10.9102 46.8877 10.9102C47.1338 10.9102 47.3206 10.9808 47.4482 11.1221C47.5758 11.2633 47.6396 11.4365 47.6396 11.6416C47.6396 11.8467 47.5758 12.0176 47.4482 12.1543C47.3206 12.291 47.1338 12.3594 46.8877 12.3594C46.6416 12.3594 46.457 12.291 46.334 12.1543C46.2109 12.0176 46.1494 11.8467 46.1494 11.6416ZM52.6572 21.1367C51.6546 21.1367 50.8389 20.8086 50.21 20.1523C49.5811 19.4915 49.2666 18.6097 49.2666 17.5068V17.2744C49.2666 16.5407 49.4056 15.8867 49.6836 15.3125C49.9661 14.7337 50.3581 14.2826 50.8594 13.959C51.3652 13.6309 51.9121 13.4668 52.5 13.4668C53.4616 13.4668 54.209 13.7835 54.7422 14.417C55.2754 15.0505 55.542 15.9574 55.542 17.1377V17.6641H50.5312C50.5495 18.3932 50.7614 18.9834 51.167 19.4346C51.5771 19.8812 52.0967 20.1045 52.7256 20.1045C53.1722 20.1045 53.5505 20.0133 53.8604 19.8311C54.1702 19.6488 54.4414 19.4072 54.6738 19.1064L55.4463 19.708C54.8265 20.6605 53.8968 21.1367 52.6572 21.1367ZM52.5 14.5059C51.9896 14.5059 51.5612 14.6927 51.2148 15.0664C50.8685 15.4355 50.6543 15.9551 50.5723 16.625H54.2773V16.5293C54.2409 15.8867 54.0677 15.39 53.7578 15.0391C53.4479 14.6836 53.0286 14.5059 52.5 14.5059ZM59.9785 20.1045C60.4297 20.1045 60.8239 19.9678 61.1611 19.6943C61.4984 19.4209 61.6852 19.0791 61.7217 18.6689H62.918C62.8952 19.0928 62.7493 19.4961 62.4805 19.8789C62.2116 20.2617 61.8516 20.5671 61.4004 20.7949C60.9538 21.0228 60.4798 21.1367 59.9785 21.1367C58.9714 21.1367 58.1693 20.8018 57.5723 20.1318C56.9798 19.4574 56.6836 18.5368 56.6836 17.3701V17.1582C56.6836 16.4382 56.8158 15.7979 57.0801 15.2373C57.3444 14.6768 57.7227 14.2415 58.2148 13.9316C58.7116 13.6217 59.2972 13.4668 59.9717 13.4668C60.8011 13.4668 61.4893 13.7152 62.0361 14.2119C62.5876 14.7087 62.8815 15.3535 62.918 16.1465H61.7217C61.6852 15.668 61.5029 15.276 61.1748 14.9707C60.8512 14.6608 60.4502 14.5059 59.9717 14.5059C59.3291 14.5059 58.8301 14.7383 58.4746 15.2031C58.1237 15.6634 57.9482 16.3311 57.9482 17.2061V17.4453C57.9482 18.2975 58.1237 18.9538 58.4746 19.4141C58.8255 19.8743 59.3268 20.1045 59.9785 20.1045ZM66.0557 11.8125V13.6035H67.4365V14.5811H66.0557V19.168C66.0557 19.4642 66.1172 19.6875 66.2402 19.8379C66.3633 19.9837 66.5729 20.0566 66.8691 20.0566C67.015 20.0566 67.2155 20.0293 67.4707 19.9746V21C67.138 21.0911 66.8145 21.1367 66.5 21.1367C65.9349 21.1367 65.5088 20.9658 65.2217 20.624C64.9346 20.2822 64.791 19.7969 64.791 19.168V14.5811H63.4443V13.6035H64.791V11.8125H66.0557ZM68.4482 17.2334C68.4482 16.5088 68.5895 15.8571 68.8721 15.2783C69.1592 14.6995 69.5557 14.2529 70.0615 13.9385C70.5719 13.624 71.153 13.4668 71.8047 13.4668C72.8118 13.4668 73.6253 13.8154 74.2451 14.5127C74.8695 15.21 75.1816 16.1374 75.1816 17.2949V17.3838C75.1816 18.1038 75.0426 18.751 74.7646 19.3252C74.4912 19.8949 74.097 20.3392 73.582 20.6582C73.0716 20.9772 72.4837 21.1367 71.8184 21.1367C70.8158 21.1367 70.0023 20.7881 69.3779 20.0908C68.7581 19.3936 68.4482 18.4707 68.4482 17.3223V17.2334ZM69.7197 17.3838C69.7197 18.2041 69.9089 18.8626 70.2871 19.3594C70.6699 19.8561 71.1803 20.1045 71.8184 20.1045C72.4609 20.1045 72.9714 19.8538 73.3496 19.3525C73.7279 18.8467 73.917 18.1403 73.917 17.2334C73.917 16.4222 73.7233 15.766 73.3359 15.2646C72.9531 14.7588 72.4427 14.5059 71.8047 14.5059C71.1803 14.5059 70.6768 14.7542 70.2939 15.251C69.9111 15.7477 69.7197 16.4587 69.7197 17.3838ZM81.4365 13.6035L81.4775 14.5332C82.0426 13.8223 82.7809 13.4668 83.6924 13.4668C85.2555 13.4668 86.0439 14.3486 86.0576 16.1123V21H84.793V16.1055C84.7884 15.5723 84.6654 15.1781 84.4238 14.9229C84.1868 14.6676 83.8154 14.54 83.3096 14.54C82.8994 14.54 82.5394 14.6494 82.2295 14.8682C81.9196 15.0869 81.6781 15.374 81.5049 15.7295V21H80.2402V13.6035H81.4365ZM87.6299 17.2334C87.6299 16.5088 87.7712 15.8571 88.0537 15.2783C88.3408 14.6995 88.7373 14.2529 89.2432 13.9385C89.7536 13.624 90.3346 13.4668 90.9863 13.4668C91.9935 13.4668 92.807 13.8154 93.4268 14.5127C94.0511 15.21 94.3633 16.1374 94.3633 17.2949V17.3838C94.3633 18.1038 94.2243 18.751 93.9463 19.3252C93.6729 19.8949 93.2786 20.3392 92.7637 20.6582C92.2533 20.9772 91.6654 21.1367 91 21.1367C89.9974 21.1367 89.1839 20.7881 88.5596 20.0908C87.9398 19.3936 87.6299 18.4707 87.6299 17.3223V17.2334ZM88.9014 17.3838C88.9014 18.2041 89.0905 18.8626 89.4688 19.3594C89.8516 19.8561 90.362 20.1045 91 20.1045C91.6426 20.1045 92.153 19.8538 92.5312 19.3525C92.9095 18.8467 93.0986 18.1403 93.0986 17.2334C93.0986 16.4222 92.9049 15.766 92.5176 15.2646C92.1348 14.7588 91.6243 14.5059 90.9863 14.5059C90.362 14.5059 89.8584 14.7542 89.4756 15.251C89.0928 15.7477 88.9014 16.4587 88.9014 17.3838ZM103.988 21C103.915 20.8542 103.856 20.5944 103.811 20.2207C103.223 20.8314 102.521 21.1367 101.705 21.1367C100.976 21.1367 100.377 20.9316 99.9072 20.5215C99.4424 20.1068 99.21 19.5827 99.21 18.9492C99.21 18.179 99.5016 17.582 100.085 17.1582C100.673 16.7298 101.498 16.5156 102.56 16.5156H103.79V15.9346C103.79 15.4925 103.658 15.1416 103.394 14.8818C103.129 14.6175 102.74 14.4854 102.225 14.4854C101.773 14.4854 101.395 14.5993 101.09 14.8271C100.785 15.055 100.632 15.3307 100.632 15.6543H99.3604C99.3604 15.2852 99.4902 14.9297 99.75 14.5879C100.014 14.2415 100.37 13.9681 100.816 13.7676C101.268 13.5671 101.762 13.4668 102.3 13.4668C103.152 13.4668 103.82 13.681 104.303 14.1094C104.786 14.5332 105.036 15.1188 105.055 15.8662V19.2705C105.055 19.9495 105.141 20.4896 105.314 20.8906V21H103.988ZM101.89 20.0361C102.286 20.0361 102.662 19.9336 103.018 19.7285C103.373 19.5234 103.631 19.2568 103.79 18.9287V17.4111H102.799C101.249 17.4111 100.475 17.8646 100.475 18.7715C100.475 19.168 100.607 19.4779 100.871 19.7012C101.135 19.9245 101.475 20.0361 101.89 20.0361ZM104.508 12.373V12.4414H103.462L102.437 11.2793L101.418 12.4414H100.372V12.3594L102.054 10.5H102.819L104.508 12.373ZM108.227 13.6035L108.261 14.4238C108.803 13.7858 109.535 13.4668 110.455 13.4668C111.49 13.4668 112.194 13.8633 112.567 14.6562C112.813 14.3008 113.132 14.0137 113.524 13.7949C113.921 13.5762 114.388 13.4668 114.926 13.4668C116.548 13.4668 117.373 14.3258 117.4 16.0439V21H116.136V16.1191C116.136 15.5905 116.015 15.1963 115.773 14.9365C115.532 14.6722 115.126 14.54 114.557 14.54C114.087 14.54 113.698 14.6813 113.388 14.9639C113.078 15.2419 112.898 15.6178 112.848 16.0918V21H111.576V16.1533C111.576 15.0778 111.05 14.54 109.997 14.54C109.168 14.54 108.6 14.8932 108.295 15.5996V21H107.03V13.6035H108.227ZM125.576 17.3838C125.576 18.514 125.316 19.4232 124.797 20.1113C124.277 20.7949 123.58 21.1367 122.705 21.1367C121.771 21.1367 121.049 20.8063 120.538 20.1455L120.477 21H119.314V10.5H120.579V14.417C121.09 13.7835 121.794 13.4668 122.691 13.4668C123.589 13.4668 124.293 13.8063 124.804 14.4854C125.319 15.1644 125.576 16.0941 125.576 17.2744V17.3838ZM124.312 17.2402C124.312 16.3789 124.145 15.7135 123.812 15.2441C123.48 14.7747 123.001 14.54 122.377 14.54C121.543 14.54 120.944 14.9274 120.579 15.7021V18.9014C120.966 19.6761 121.57 20.0635 122.391 20.0635C122.997 20.0635 123.468 19.8288 123.806 19.3594C124.143 18.89 124.312 18.1836 124.312 17.2402ZM128.55 21H127.285V13.6035H128.55V21ZM127.183 11.6416C127.183 11.4365 127.244 11.2633 127.367 11.1221C127.495 10.9808 127.682 10.9102 127.928 10.9102C128.174 10.9102 128.361 10.9808 128.488 11.1221C128.616 11.2633 128.68 11.4365 128.68 11.6416C128.68 11.8467 128.616 12.0176 128.488 12.1543C128.361 12.291 128.174 12.3594 127.928 12.3594C127.682 12.3594 127.495 12.291 127.367 12.1543C127.244 12.0176 127.183 11.8467 127.183 11.6416ZM132.296 11.8125V13.6035H133.677V14.5811H132.296V19.168C132.296 19.4642 132.357 19.6875 132.48 19.8379C132.604 19.9837 132.813 20.0566 133.109 20.0566C133.255 20.0566 133.456 20.0293 133.711 19.9746V21C133.378 21.0911 133.055 21.1367 132.74 21.1367C132.175 21.1367 131.749 20.9658 131.462 20.624C131.175 20.2822 131.031 19.7969 131.031 19.168V14.5811H129.685V13.6035H131.031V11.8125H132.296ZM134.688 17.2334C134.688 16.5088 134.83 15.8571 135.112 15.2783C135.399 14.6995 135.796 14.2529 136.302 13.9385C136.812 13.624 137.393 13.4668 138.045 13.4668C139.052 13.4668 139.866 13.8154 140.485 14.5127C141.11 15.21 141.422 16.1374 141.422 17.2949V17.3838C141.422 18.1038 141.283 18.751 141.005 19.3252C140.731 19.8949 140.337 20.3392 139.822 20.6582C139.312 20.9772 138.724 21.1367 138.059 21.1367C137.056 21.1367 136.243 20.7881 135.618 20.0908C134.998 19.3936 134.688 18.4707 134.688 17.3223V17.2334ZM135.96 17.3838C135.96 18.2041 136.149 18.8626 136.527 19.3594C136.91 19.8561 137.421 20.1045 138.059 20.1045C138.701 20.1045 139.212 19.8538 139.59 19.3525C139.968 18.8467 140.157 18.1403 140.157 17.2334C140.157 16.4222 139.964 15.766 139.576 15.2646C139.193 14.7588 138.683 14.5059 138.045 14.5059C137.421 14.5059 136.917 14.7542 136.534 15.251C136.151 15.7477 135.96 16.4587 135.96 17.3838ZM146.173 17.2402C146.173 16.1055 146.442 15.194 146.979 14.5059C147.517 13.8132 148.221 13.4668 149.092 13.4668C149.958 13.4668 150.644 13.763 151.149 14.3555V10.5H152.414V21H151.252L151.19 20.207C150.685 20.8268 149.98 21.1367 149.078 21.1367C148.221 21.1367 147.522 20.7858 146.979 20.084C146.442 19.3822 146.173 18.4661 146.173 17.3359V17.2402ZM147.438 17.3838C147.438 18.2223 147.611 18.8786 147.957 19.3525C148.303 19.8265 148.782 20.0635 149.393 20.0635C150.195 20.0635 150.78 19.7035 151.149 18.9834V15.5859C150.771 14.8887 150.19 14.54 149.406 14.54C148.786 14.54 148.303 14.7793 147.957 15.2578C147.611 15.7363 147.438 16.445 147.438 17.3838ZM154.048 17.2334C154.048 16.5088 154.189 15.8571 154.472 15.2783C154.759 14.6995 155.155 14.2529 155.661 13.9385C156.172 13.624 156.753 13.4668 157.404 13.4668C158.411 13.4668 159.225 13.8154 159.845 14.5127C160.469 15.21 160.781 16.1374 160.781 17.2949V17.3838C160.781 18.1038 160.642 18.751 160.364 19.3252C160.091 19.8949 159.697 20.3392 159.182 20.6582C158.671 20.9772 158.083 21.1367 157.418 21.1367C156.415 21.1367 155.602 20.7881 154.978 20.0908C154.358 19.3936 154.048 18.4707 154.048 17.3223V17.2334ZM155.319 17.3838C155.319 18.2041 155.508 18.8626 155.887 19.3594C156.27 19.8561 156.78 20.1045 157.418 20.1045C158.061 20.1045 158.571 19.8538 158.949 19.3525C159.327 18.8467 159.517 18.1403 159.517 17.2334C159.517 16.4222 159.323 15.766 158.936 15.2646C158.553 14.7588 158.042 14.5059 157.404 14.5059C156.78 14.5059 156.276 14.7542 155.894 15.251C155.511 15.7477 155.319 16.4587 155.319 17.3838Z" fill="white"/>
</svg>
