<svg width="61" height="36" viewBox="0 0 61 36" fill="none" xmlns="http://www.w3.org/2000/svg">
<path d="M30.5502 20.0706C30.0453 20.0706 29.57 19.8754 29.213 19.518C28.8561 19.1625 28.6582 18.6891 28.6582 18.1862C28.6582 17.6833 28.8542 17.2099 29.213 16.8544C29.57 16.4989 30.0453 16.3018 30.5502 16.3018C31.0551 16.3018 31.5304 16.497 31.8874 16.8544C32.2443 17.2117 32.4422 17.6833 32.4422 18.1862C32.4422 18.6891 32.2462 19.1625 31.8874 19.518C31.5304 19.8735 31.0551 20.0706 30.5502 20.0706ZM30.5502 17.558C30.3819 17.558 30.2228 17.6225 30.1045 17.7422C29.9861 17.8601 29.9195 18.0186 29.9195 18.1862C29.9195 18.3538 29.9843 18.5122 30.1045 18.6301C30.2228 18.748 30.3819 18.8143 30.5502 18.8143C30.7185 18.8143 30.8776 18.7499 30.9959 18.6301C31.1143 18.5122 31.1809 18.3538 31.1809 18.1862C31.1809 18.0186 31.1161 17.8601 30.9959 17.7422C30.8757 17.6225 30.7185 17.558 30.5502 17.558Z" fill="white"/>
<path d="M34.5586 16.0737C34.074 16.0737 33.5895 15.8895 33.2214 15.5229C32.4835 14.7879 32.4835 13.5924 33.2214 12.8593C33.5784 12.5037 34.0537 12.3066 34.5586 12.3066C35.0635 12.3066 35.5388 12.5019 35.8957 12.8593C36.2527 13.2148 36.4506 13.6882 36.4506 14.1911C36.4506 14.694 36.2545 15.1674 35.8957 15.5229C35.5277 15.8895 35.0431 16.0737 34.5586 16.0737ZM34.5586 13.5611C34.3903 13.5611 34.2312 13.6256 34.1129 13.7453C33.8669 13.9903 33.8669 14.3882 34.1129 14.6332C34.3588 14.8782 34.7583 14.8782 35.0043 14.6332C35.1227 14.5153 35.1892 14.3569 35.1892 14.1892C35.1892 14.0216 35.1245 13.8632 35.0043 13.7453C34.8859 13.6274 34.7269 13.5611 34.5586 13.5611Z" fill="white"/>
<path d="M26.5365 24.0677C26.0316 24.0677 25.5563 23.8724 25.1994 23.5151C24.8424 23.1596 24.6445 22.6861 24.6445 22.1833C24.6445 21.6804 24.8406 21.207 25.1994 20.8514C25.5563 20.4959 26.0316 20.2988 26.5365 20.2988C27.0414 20.2988 27.5167 20.4941 27.8737 20.8514C28.2306 21.207 28.4285 21.6804 28.4285 22.1833C28.4285 22.6861 28.2325 23.1596 27.8737 23.5151C27.5167 23.8724 27.0414 24.0677 26.5365 24.0677ZM26.5365 21.5551C26.3682 21.5551 26.2092 21.6196 26.0908 21.7393C25.9724 21.8572 25.9059 22.0156 25.9059 22.1833C25.9059 22.3509 25.9706 22.5093 26.0908 22.6272C26.2092 22.7451 26.3682 22.8114 26.5365 22.8114C26.7048 22.8114 26.8639 22.7469 26.9823 22.6272C27.1006 22.5093 27.1672 22.3509 27.1672 22.1833C27.1672 22.0156 27.1025 21.8572 26.9823 21.7393C26.8639 21.6214 26.7048 21.5551 26.5365 21.5551Z" fill="white"/>
<path d="M34.5586 24.0677C34.0537 24.0677 33.5784 23.8724 33.2214 23.5151C32.4835 22.7801 32.4835 21.5846 33.2214 20.8514C33.5784 20.4959 34.0537 20.2988 34.5586 20.2988C35.0635 20.2988 35.5388 20.4941 35.8957 20.8514C36.2527 21.207 36.4506 21.6804 36.4506 22.1833C36.4506 22.6861 36.2545 23.1596 35.8957 23.5151C35.5388 23.8724 35.0653 24.0677 34.5586 24.0677ZM34.1129 22.6272C34.2312 22.7451 34.3903 22.8114 34.5586 22.8114C34.7269 22.8114 34.8859 22.7469 35.0043 22.6272C35.1227 22.5093 35.1892 22.3509 35.1892 22.1833C35.1892 22.0156 35.1245 21.8572 35.0043 21.7393C34.8859 21.6214 34.7269 21.5551 34.5586 21.5551C34.3903 21.5551 34.2312 21.6196 34.1129 21.7393C33.8669 21.9843 33.8669 22.384 34.1129 22.6272Z" fill="white"/>
<path d="M26.5365 16.0737C26.052 16.0737 25.5674 15.8895 25.1994 15.5229C24.8424 15.1674 24.6445 14.694 24.6445 14.1911C24.6445 13.6882 24.8406 13.2148 25.1994 12.8593C25.5563 12.5037 26.0316 12.3066 26.5365 12.3066C27.0414 12.3066 27.5167 12.5019 27.8737 12.8593C28.2306 13.2148 28.4285 13.6882 28.4285 14.1911C28.4285 14.694 28.2325 15.1674 27.8737 15.5229C27.5057 15.8895 27.0211 16.0737 26.5365 16.0737ZM26.0908 14.6332C26.3368 14.8782 26.7363 14.8782 26.9823 14.6332C27.1006 14.5153 27.1672 14.3569 27.1672 14.1892C27.1672 14.0216 27.1025 13.8632 26.9823 13.7453C26.8639 13.6274 26.7048 13.5611 26.5365 13.5611C26.3682 13.5611 26.2092 13.6256 26.0908 13.7453C25.9724 13.8632 25.9059 14.0216 25.9059 14.1892C25.9059 14.3569 25.9724 14.5153 26.0908 14.6332Z" fill="white"/>
<path d="M30.5484 13.1659C30.2118 13.1659 29.8956 13.0351 29.657 12.7975C29.4184 12.5599 29.2871 12.2449 29.2871 11.9096C29.2871 11.217 29.853 10.6533 30.5484 10.6533C31.2438 10.6533 31.8098 11.217 31.8098 11.9096C31.8098 12.6022 31.2438 13.1659 30.5484 13.1659Z" fill="white"/>
<path d="M30.5484 25.662C29.853 25.662 29.2871 25.0983 29.2871 24.4057C29.2871 23.7131 29.853 23.1494 30.5484 23.1494C31.2438 23.1494 31.8098 23.7131 31.8098 24.4057C31.8098 25.0983 31.2438 25.662 30.5484 25.662Z" fill="white"/>
<path d="M36.7926 19.4442C36.0972 19.4442 35.5312 18.8805 35.5312 18.1879C35.5312 17.4953 36.0972 16.9316 36.7926 16.9316C37.488 16.9316 38.0539 17.4953 38.0539 18.1879C38.0521 18.8805 37.488 19.4442 36.7926 19.4442Z" fill="white"/>
<path d="M24.3063 19.4442C23.6109 19.4442 23.0449 18.8805 23.0449 18.1879C23.0449 17.4953 23.6109 16.9316 24.3063 16.9316C25.0017 16.9316 25.5676 17.4953 25.5676 18.1879C25.5676 18.8805 25.0017 19.4442 24.3063 19.4442Z" fill="white"/>
<path d="M40.0053 17.5584H40.6157C40.5583 16.6337 40.3771 15.7347 40.0775 14.8782L39.5097 15.1158L39.0214 13.9571L39.5892 13.7195C39.199 12.9385 38.7052 12.2053 38.1133 11.5385L37.6824 11.9677L36.791 11.0798L37.2219 10.6506C36.5265 10.0372 35.759 9.52881 34.9378 9.13461L34.7048 9.70196L33.5378 9.22856L33.7708 8.6612C32.9404 8.38305 32.0711 8.21358 31.1797 8.16016V8.76804H29.9184V8.16016C28.9899 8.21726 28.0874 8.39778 27.2274 8.6962L27.466 9.26171L26.3027 9.74802L26.0641 9.18251C25.2799 9.57118 24.5438 10.063 23.8762 10.6525L24.3071 11.0817L23.4157 11.9695L22.9847 11.5403C22.3689 12.233 21.8584 12.9974 21.4626 13.8153L22.0323 14.0474L21.5551 15.2097L20.9855 14.9776C20.7062 15.8047 20.5361 16.6705 20.4824 17.5584H21.0927V18.8147H20.4824C20.5398 19.7394 20.721 20.6383 21.0206 21.4949L21.5884 21.2572L22.0767 22.4159L21.5089 22.6535C21.8991 23.4346 22.3929 24.1677 22.9847 24.8345L23.4157 24.4053L24.3071 25.2932L23.8762 25.7224C24.5716 26.3358 25.3391 26.8442 26.1603 27.2384L26.3933 26.6711L27.5603 27.1463L27.3273 27.7137C28.1577 27.9918 29.0269 28.1613 29.9184 28.2147V27.6068H31.1797V28.2147C32.1081 28.1576 33.0107 27.9771 33.8707 27.6787L33.6321 27.1132L34.7954 26.6269L35.034 27.1924C35.8182 26.8037 36.5542 26.3119 37.2237 25.7224L36.7928 25.2932L37.6843 24.4053L38.1152 24.8345C38.7311 24.1419 39.2415 23.3775 39.6373 22.5596L39.0677 22.3275L39.5448 21.1651L40.1145 21.3972C40.3937 20.5702 40.5639 19.7044 40.6175 18.8165H40.0072V17.5584H40.0053ZM36.791 24.4035C35.1228 26.0632 32.9071 26.9787 30.549 26.9787C28.191 26.9787 25.9753 26.065 24.3071 24.4035C22.6407 22.7438 21.7216 20.5351 21.7216 18.1865C21.7216 15.8379 22.6389 13.6311 24.3071 11.9695C25.9735 10.3098 28.191 9.39434 30.549 9.39434C32.9071 9.39434 35.1228 10.308 36.791 11.9695C38.4573 13.6292 39.3765 15.8379 39.3765 18.1865C39.3765 20.5351 38.4573 22.7419 36.791 24.4035Z" fill="white"/>
<path d="M39.0215 13.9591L39.5097 15.1178L40.0775 14.8801L40.6731 14.6296L40.9172 15.2099L42.0787 14.7217L41.1021 12.4062L39.9388 12.8944L40.1829 13.4728L39.5893 13.7215L39.0215 13.9591Z" fill="white"/>
<path d="M21.1555 23.4825L20.9113 22.9041L21.5069 22.6554L22.0746 22.4178L21.5864 21.2591L21.0186 21.4967L20.4231 21.7454L20.1789 21.167L19.0156 21.6533L19.994 23.9688L21.1555 23.4825Z" fill="white"/>
<path d="M35.2811 27.7857L35.0315 27.1944L34.7929 26.6289L33.6296 27.1152L33.8682 27.6807L34.1178 28.2739L33.5371 28.517L34.0254 29.6738L36.3501 28.7012L35.8619 27.5426L35.2811 27.7857Z" fill="white"/>
<path d="M25.8111 8.58929L26.0608 9.18243L26.2993 9.74795L27.4626 9.26164L27.2241 8.69612L26.9725 8.10298L27.5551 7.85983L27.065 6.70117L24.7402 7.67562L25.2303 8.83244L25.8111 8.58929Z" fill="white"/>
<path d="M40.7048 21.6407L40.1075 21.3975L39.5378 21.1654L39.0625 22.3296L39.6321 22.5599L40.2295 22.803L39.9909 23.3851L41.158 23.8604L42.1123 21.5338L40.9434 21.0586L40.7048 21.6407Z" fill="white"/>
<path d="M19.931 12.5156L18.9785 14.8421L20.1455 15.3155L20.3841 14.7353L20.9815 14.9785L21.5511 15.2087L22.0283 14.0464L21.4587 13.8143L20.8613 13.5711L21.0999 12.9909L19.931 12.5156Z" fill="white"/>
<path d="M27.3244 27.7136L27.5575 27.1463L26.3904 26.6729L26.1574 27.2402L25.9133 27.8352L25.3307 27.5976L24.8535 28.7599L27.1894 29.7104L27.6647 28.5462L27.0821 28.3086L27.3244 27.7136Z" fill="white"/>
<path d="M33.5331 9.23017L34.7019 9.70357L34.9331 9.13622L35.1772 8.54123L35.7617 8.77886L36.2388 7.61468L33.9029 6.66602L33.4258 7.82836L34.0102 8.06598L33.7661 8.66097L33.5331 9.23017Z" fill="white"/>
<path d="M38.1134 11.5438L39.9111 9.75336L40.8025 10.6412L41.6939 9.75336L39.0196 7.08789L38.1282 7.9776L39.0196 8.86548L37.2219 10.656L36.791 11.0852L37.6825 11.973L38.1134 11.5438Z" fill="white"/>
<path d="M22.9829 24.8325L21.1871 26.623L20.2938 25.7351L19.4023 26.623L22.0785 29.2866L22.9699 28.3988L22.0785 27.5109L23.8762 25.7204L24.3071 25.2912L23.4157 24.4033L22.9829 24.8325Z" fill="white"/>
<path d="M39.9111 26.623L38.1134 24.8325L37.6825 24.4033L36.791 25.2912L37.2219 25.7204L39.0196 27.5109L38.1282 28.3988L39.0196 29.2866L41.6939 26.623L40.8025 25.7351L39.9111 26.623Z" fill="white"/>
<path d="M22.0785 8.86548L22.9699 7.9776L22.0785 7.08789L19.4023 9.75336L20.2938 10.6412L21.1871 9.75336L22.9829 11.5438L23.4157 11.973L24.3071 11.0852L23.8762 10.656L22.0785 8.86548Z" fill="white"/>
<path d="M43.1553 16.3018V17.558H40.6141H40.002V18.8143H40.6141H43.1553V20.0706H44.4166V16.3018H43.1553Z" fill="white"/>
<path d="M21.0886 18.8143V17.558H20.4783H17.9371V16.3018H16.6758V20.0706H17.9371V18.8143H20.4783H21.0886Z" fill="white"/>
<path d="M31.177 28.2153V27.6074H29.9156V28.2153V30.7463H28.6543V32.0026H32.4383V30.7463H31.177V28.2153Z" fill="white"/>
<path d="M28.6543 5.62836H29.9156V8.15935V8.76723H31.177V8.15935V5.62836H32.4383V4.37207H28.6543V5.62836Z" fill="white"/>
<path d="M0.957031 19.7384V16.7082H5.14052C5.95059 16.7082 6.61824 16.64 7.13794 16.5019C7.65579 16.3637 8.05528 16.1408 8.3364 15.8369C8.61567 15.5348 8.79691 15.1424 8.88754 14.6653C8.97631 14.1845 8.99666 13.6024 8.94487 12.9209L8.56388 6.6726C8.5121 5.68525 8.63971 4.80474 8.94487 4.02187C9.25003 3.23899 9.705 2.57216 10.3153 2.03244C10.9238 1.48903 11.6765 1.08009 12.5772 0.800097C13.4761 0.521946 14.4859 0.383789 15.6011 0.383789H17.3118V3.41399H15.6011C14.3823 3.41399 13.4631 3.68477 12.8435 4.22818C12.2221 4.77159 11.9373 5.58762 11.9872 6.6726L12.3682 12.9209C12.4182 13.6024 12.3534 14.2527 12.1777 14.8716C12.0002 15.4906 11.7265 16.034 11.3584 16.5019C10.9922 16.9679 10.528 17.34 9.96947 17.6181C9.41279 17.8963 8.75253 18.0473 7.9924 18.0713V18.2629C8.75253 18.2868 9.41833 18.4452 9.98797 18.7344C10.5576 19.0273 11.02 19.4123 11.3769 19.8913C11.732 20.372 11.9983 20.9265 12.1759 21.5583C12.3516 22.1901 12.4163 22.8478 12.3664 23.5275L11.9854 29.7021C11.9336 30.7871 12.2184 31.6013 12.8417 32.1428C13.4631 32.6881 14.3823 32.9589 15.5992 32.9589H17.31V35.989H15.5992C14.484 35.989 13.4742 35.8509 12.5754 35.5728C11.6747 35.2928 10.9201 34.882 10.3135 34.3404C9.70315 33.797 9.24818 33.1357 8.94302 32.3528C8.63786 31.5699 8.5121 30.6857 8.56203 29.7021L8.94302 23.5275C8.99481 22.8459 8.97446 22.2638 8.88569 21.7849C8.79506 21.3041 8.61382 20.9118 8.33455 20.6097C8.05528 20.3039 7.66134 20.0847 7.15459 19.9465C6.64784 19.8084 5.97463 19.7365 5.13867 19.7365H0.957031V19.7384Z" fill="white"/>
<path d="M43.7871 35.991V32.9608H45.4979C46.7148 32.9608 47.634 32.69 48.2554 32.1448C48.8768 31.6014 49.1616 30.789 49.1117 29.704L48.7307 23.4926C48.7048 22.8074 48.7733 22.1608 48.9397 21.5419C49.1043 20.9229 49.3706 20.3795 49.7387 19.9116C50.1049 19.4456 50.5691 19.0735 51.1276 18.7953C51.6862 18.5172 52.3464 18.3661 53.1047 18.3385V18.1506C52.3446 18.1267 51.6769 17.9682 51.1091 17.6754C50.5376 17.3862 50.0753 16.9993 49.7202 16.5222C49.3651 16.0415 49.1043 15.487 48.9397 14.8552C48.7733 14.2233 48.7048 13.5657 48.7307 12.886L49.1117 6.67455C49.1616 5.58957 48.8768 4.7717 48.2554 4.23013C47.634 3.68672 46.7148 3.41594 45.4979 3.41594H43.7871V0.385742H45.4979C46.6131 0.385742 47.621 0.523899 48.5217 0.802051C49.4206 1.0802 50.177 1.49098 50.7836 2.03439C51.3921 2.57595 51.8489 3.24094 52.1541 4.02382C52.4574 4.8067 52.585 5.68904 52.5332 6.67455L52.1541 12.886C52.1282 13.5676 52.1541 14.1497 52.2299 14.6286C52.3057 15.1094 52.4814 15.5017 52.7626 15.8038C53.0418 16.1059 53.4339 16.3288 53.9425 16.467C54.4493 16.6051 55.1225 16.677 55.9566 16.677H60.1419V19.7072H55.9566C55.1465 19.7072 54.4807 19.7753 53.961 19.9135C53.4413 20.0553 53.0418 20.2745 52.7626 20.5766C52.4833 20.8824 52.3057 21.2729 52.2299 21.7519C52.1541 22.2326 52.1282 22.8129 52.1541 23.4963L52.5332 29.7077C52.585 30.6914 52.4574 31.5756 52.1541 32.3585C51.8489 33.1413 51.3921 33.8045 50.7836 34.346C50.1752 34.8876 49.4206 35.2984 48.5217 35.5784C47.621 35.8565 46.6131 35.9947 45.4979 35.9947H43.7871V35.991Z" fill="white"/>
</svg>
