<svg width="150" height="250" viewBox="0 0 150 250" fill="none" xmlns="http://www.w3.org/2000/svg">
<path d="M146.341 0C138.171 0 130.732 4.45066 126.463 11.6989C115.122 31.2818 112.561 68.7945 75 68.7945C37.561 68.7945 35 31.4089 23.5366 11.6989C19.3902 4.45066 11.8293 0 3.65854 0H0V118.896V181.205H3.65854C11.8293 181.205 19.2683 185.656 23.5366 192.904C34.878 212.487 37.439 250 75 250C112.439 250 115 212.614 126.463 192.904C130.61 185.656 138.171 181.205 146.341 181.205H150V118.896V0H146.341Z" fill="#4C0788"/>
</svg>
