<svg width="549" height="427" viewBox="0 0 549 427" fill="none" xmlns="http://www.w3.org/2000/svg">
<path fill-rule="evenodd" clip-rule="evenodd" d="M389.493 86.5174C396.517 88.5364 402.93 88.7026 405.527 87.2374C412.039 83.5631 405.837 57.8432 397.726 49.2217C389.616 40.6003 360.617 43.6654 364.562 63.9963C365.931 71.0525 370.499 76.4528 376.154 80.3431L378.06 118.32L400.474 112.314L389.493 86.5174Z" fill="#B28B67"/>
<path fill-rule="evenodd" clip-rule="evenodd" d="M383.901 61.1759C385.068 57.774 386.34 55.0766 388.419 53.1511C398.315 50.6661 398.996 48.5932 397.403 42.6486C395.507 41.938 389.378 41.5281 382.945 42.6747C379.491 42.6177 375.736 43.8084 372.485 46.3185C368.308 48.8098 365.22 52.5925 364.913 58.2076C361.621 70.3838 369.202 80.1092 376.461 82.1801C377.599 79.7643 378.54 77.4661 379.347 75.2915C378.034 74.5547 377.007 73.3101 376.587 71.7415C375.759 68.6516 377.597 65.4745 380.691 64.6452C380.919 64.5843 381.147 64.5377 381.374 64.5049C382.549 68.331 386.624 81.2474 389.346 85.384C392.555 90.2609 403.263 88.8001 406.875 87.8322C409.995 86.9963 409.098 84.0752 408.456 81.9818C408.363 81.6803 408.276 81.3959 408.207 81.1375C408.062 80.5974 407.359 80.7873 406.564 81.0019C405.533 81.2805 404.347 81.6007 404.031 80.4184C403.685 79.1296 405.204 77.663 406.563 76.3507C407.411 75.5319 408.197 74.7732 408.429 74.1551C409.162 72.2052 408.965 69.8926 407.199 70.3659C406.233 70.6246 405.057 71.5353 403.643 72.6309C401.507 74.2849 398.828 76.3603 395.506 77.2504C390.022 78.7199 383.984 61.4131 383.901 61.1759Z" fill="#191847"/>
<path fill-rule="evenodd" clip-rule="evenodd" d="M387.406 195.928L434.96 315.723L466.854 416.999H479.449L430.689 195.928L387.406 195.928Z" fill="#997659"/>
<path fill-rule="evenodd" clip-rule="evenodd" d="M377.833 195.928C377.326 238.024 369.941 294.701 368.762 297.325C367.582 299.949 287.301 364.065 287.301 364.065L295.975 373.304C295.975 373.304 390.699 318.333 395.083 311.001C399.466 303.669 413.737 236.201 425.194 195.928H377.833Z" fill="#B28B67"/>
<path fill-rule="evenodd" clip-rule="evenodd" d="M288.714 362.408C288.384 361.286 287.196 360.617 286.094 361.019C284.152 361.728 281.361 362.858 280.117 363.897C278.109 365.574 274.819 369.456 274.819 369.456C276.773 371.774 309.945 411.121 309.945 411.121C309.945 411.121 316.708 408.24 314.188 404.381C311.669 400.523 310.064 397.919 310.064 397.919L302.422 371.344C302.266 370.803 301.693 370.496 301.154 370.666L297.104 371.945C297.104 371.945 292.855 369.974 291.148 367.948C290.122 366.732 289.248 364.22 288.714 362.408Z" fill="#E4E4E4"/>
<path fill-rule="evenodd" clip-rule="evenodd" d="M464.438 411.271C463.368 410.804 462.098 411.279 461.699 412.377C460.996 414.313 460.07 417.17 460.07 418.788C460.07 421.397 460.943 426.401 460.943 426.401C463.984 426.401 515.589 426.401 515.589 426.401C515.589 426.401 517.72 419.392 513.13 418.833C508.541 418.275 505.505 417.824 505.505 417.824L480.133 406.566C479.62 406.338 479.019 406.578 478.804 407.098L477.184 411.009C477.184 411.009 472.935 412.982 470.279 412.982C468.679 412.982 466.177 412.029 464.438 411.271Z" fill="#E4E4E4"/>
<path fill-rule="evenodd" clip-rule="evenodd" d="M419.381 406.568L479.261 400.099L434.883 195.928H381.25L419.381 406.568Z" fill="#69A1AC"/>
<path fill-rule="evenodd" clip-rule="evenodd" d="M299.684 349.159L338.962 395.433C338.962 395.433 401.018 327.974 411.319 307.4C421.621 286.825 429.84 195.928 429.84 195.928H369.46C369.46 195.928 364.97 275.895 363.407 279.616C361.843 283.338 299.684 349.159 299.684 349.159Z" fill="#89C5CC"/>
<path fill-rule="evenodd" clip-rule="evenodd" d="M497.147 190.697L462.847 173.784L459.055 191.539L491.328 198.689C501.594 207.165 507.084 210.485 507.798 208.649C508.4 207.101 507.506 205.909 506.682 204.811C506.04 203.955 505.441 203.157 505.626 202.292C506.048 200.316 511.797 199.503 517.285 198.964C522.772 198.425 520.77 196.298 519.255 195.34C513.146 193.011 505.776 191.464 497.147 190.697ZM344.78 258.021C346.574 251.877 346.363 195.116 346.363 195.116L366.276 191.685C366.276 191.685 358.32 254.334 357.492 258.228C356.416 263.286 360.867 269.574 363.885 273.838C364.352 274.497 364.784 275.109 365.157 275.659C362.348 277.559 360.592 276.171 358.742 274.707C356.652 273.054 354.44 271.304 350.451 274.089C348.91 275.164 347.484 276.366 346.09 277.541C341.278 281.597 336.857 285.324 329.43 282.378C328.253 281.911 326.654 279.652 329.127 277.231C335.287 271.2 343.903 261.025 344.78 258.021Z" fill="#B28B67"/>
<path fill-rule="evenodd" clip-rule="evenodd" d="M388.211 101.782L396.196 98.9206C431.392 119.883 452.865 168.289 495.04 188.501L487.994 201.245C421.615 204.669 394.626 145.765 388.211 101.782Z" fill="#E87613"/>
<path fill-rule="evenodd" clip-rule="evenodd" d="M370.536 211.42C370.536 211.42 420.058 202.688 443.39 198.573C446.719 197.986 445.246 193.298 444.337 190.961C433.855 163.989 406.861 137.683 399.846 97.8956L378.251 98.311C365.791 129.287 365.839 164.71 370.536 211.42Z" fill="#DDE3E9"/>
<path fill-rule="evenodd" clip-rule="evenodd" d="M358.994 129.657C355.122 130.058 351.389 129.069 348.514 125.524C338.393 113.041 339.824 104.933 347.591 100.981C351.862 98.8084 356.273 98.9998 361.553 99.2289C365.875 99.4164 370.779 99.6292 376.666 98.5912C377.236 98.4906 377.762 98.4373 378.246 98.4272L385.288 97.5951C385.288 97.5951 430.493 188.404 423.446 222.676L365.861 232.83C363.971 241.259 361.969 248.676 359.871 254.471L344.246 257.226C332.997 203.256 346.212 157.871 358.994 129.657Z" fill="#FF9B21"/>
<path fill-rule="evenodd" clip-rule="evenodd" d="M365.864 232.829C368.344 221.77 370.629 208.969 372.679 195.804C376.668 209.201 381.718 222.472 387.387 229.034L365.864 232.829Z" fill="black" fill-opacity="0.1"/>
<path fill-rule="evenodd" clip-rule="evenodd" d="M95.1927 208.945C96.8338 231.333 202.556 297.247 203.173 299.097C203.584 300.33 170.266 377.044 170.266 377.044L179.507 380.634C179.507 380.634 230.613 299.388 227.988 290.73C224.23 278.336 145.959 209.183 145.959 209.183L95.1927 208.945Z" fill="#B28B67"/>
<path fill-rule="evenodd" clip-rule="evenodd" d="M172.698 365.495L187.787 370.985C219.604 335.103 232.075 305.497 229.801 290.412C227.527 275.327 148.055 209.001 148.055 209.001L94.1114 209.001C95.952 260.848 193.944 299.295 195.254 301.504C196.565 303.713 183.666 325.353 172.698 365.495Z" fill="#8464AC"/>
<path fill-rule="evenodd" clip-rule="evenodd" d="M169.725 375.32C168.875 374.515 167.516 374.526 166.767 375.426C165.529 376.915 163.855 379.084 163.344 380.487C162.502 382.799 161.659 387.516 161.659 387.516C164.342 388.493 209.897 405.073 209.897 405.073C209.897 405.073 214.039 399.544 210.168 397.574C206.297 395.604 203.763 394.23 203.763 394.23L185.045 376.143C184.64 375.751 183.991 375.772 183.611 376.187L180.961 379.089C180.961 379.089 176.574 379.473 174.229 378.62C172.853 378.119 171.012 376.54 169.725 375.32Z" fill="#E4E4E4"/>
<path fill-rule="evenodd" clip-rule="evenodd" d="M107.346 208.945L60.2495 321.959L13.9609 417.503H24.8819L144.365 208.945H107.346Z" fill="#997659"/>
<path fill-rule="evenodd" clip-rule="evenodd" d="M18.1406 397.654L42.4072 402.203C61.17 374.631 139.693 261.575 148.302 208.945H94.2796C65.5288 246.991 36.0255 369.626 18.1406 397.654Z" fill="#6615BA"/>
<path fill-rule="evenodd" clip-rule="evenodd" d="M189.262 184.033L222.241 169.557C228.018 163.802 233.596 159.429 238.977 156.436C240.585 155.924 243.334 155.77 240.401 160.051C237.469 164.332 234.577 168.967 235.749 170.467C236.92 171.968 240.315 170.312 241.656 172.752C242.55 174.378 236.828 176.324 224.491 178.589L199.792 197.517L189.262 184.033Z" fill="#B28B67"/>
<path fill-rule="evenodd" clip-rule="evenodd" d="M55.931 188.021L74.5815 191.72C55.8253 226.659 45.7666 245.176 44.4056 247.273C41.3432 251.99 44.2005 260.634 45.2559 265.186C38.6347 266.727 41.2459 256.766 32.8668 258.845C25.2188 260.744 18.7342 265.616 11.6027 259.045C10.726 258.237 10.0841 255.712 13.0735 254.417C20.5211 251.191 31.5242 245.15 33.3084 242.804C35.7414 239.605 43.2823 221.345 55.931 188.021Z" fill="#B28B67"/>
<path fill-rule="evenodd" clip-rule="evenodd" d="M125.272 118.272L133.142 116.923C150.284 133.544 157.28 173.476 168.704 178.761C179.505 183.758 194.816 178.923 213.015 172.393L218.589 184.84C202.053 202.722 166.824 217.829 152.545 209.205C129.715 195.416 124.445 146.166 125.272 118.272Z" fill="#DFAC22"/>
<path fill-rule="evenodd" clip-rule="evenodd" d="M130.953 107.276C136.847 110.827 142.637 112.542 145.356 111.842C152.172 110.086 152.799 85.161 147.525 75.3349C142.25 65.5087 115.137 61.2258 113.77 80.6946C113.296 87.4516 116.135 93.4819 120.328 98.4024L112.809 133.436H134.652L130.953 107.276Z" fill="#B28B67"/>
<path fill-rule="evenodd" clip-rule="evenodd" d="M135.074 64.0114C132.195 63.5395 124.443 63.2151 123.014 63.2153C122.1 63.2153 121.11 63.4239 120.569 62.5855C120.126 61.8989 120.288 60.7377 120.156 59.9409C120.002 59.0154 119.784 58.1017 119.564 57.1904C118.936 54.5972 117.987 52.13 116.658 49.8137C114.166 45.468 110.515 42.0639 105.906 40.0831C100.816 37.896 95.0562 37.3952 89.5812 37.8389C83.7222 38.3135 78.4185 40.2467 72.8867 42.066C67.6152 43.7997 62.0939 44.4821 56.5804 43.6355C51.0254 42.7826 46.8281 39.7732 42.1426 36.9168C37.3459 33.9927 31.8642 32.0802 26.1937 32.5198C20.9005 32.9303 16.0219 35.1149 11.6449 38.0332C7.54978 40.7637 4.17074 44.0487 2.26302 48.6722C0.210738 53.6456 0.212618 59.1048 3.58748 63.5002C8.4792 69.8713 17.5605 71.5189 25.1158 71.3551C29.4859 71.2606 33.7778 70.4632 37.9037 69.0128C43.406 67.0783 48.1609 63.7995 53.3086 61.1392C55.7243 59.8909 58.2214 58.8656 60.8388 58.1271C63.3786 57.4101 65.8803 57.0813 68.1799 58.6149C70.6126 60.2373 72.7925 61.831 75.5756 62.8467C78.2454 63.8211 81.0733 64.366 83.9178 64.3441C89.4521 64.3013 94.9076 62.5777 100.283 61.4232C104.666 60.482 109.356 59.5438 113.825 60.4487C115.689 60.8263 118.413 61.6059 119.087 63.5429C107.751 65.5964 103.299 79.6088 106.495 89.8952C108.219 95.4472 118.587 101.937 122.618 99.0186C125.172 97.1695 123.621 94.7419 122.618 93.1394C120.697 90.0705 120.039 86.1284 123.595 83.9918C126.662 82.149 129.886 86.5251 129.947 86.5203C130.79 86.4539 138.074 82.3365 143.092 76.3282C148.043 76.6216 148.794 73.3588 147.612 70.6904C146.43 68.022 139.051 64.6639 135.074 64.0114Z" fill="#191847"/>
<path fill-rule="evenodd" clip-rule="evenodd" d="M90.9648 217.132C90.9648 217.132 138.3 217.132 160.602 217.132C163.784 217.132 163.184 212.539 162.724 210.222C157.415 183.475 136.692 154.643 136.692 116.57L116.605 113.422C99.9912 140.13 94.2458 173.014 90.9648 217.132Z" fill="#DDE3E9"/>
<path fill-rule="evenodd" clip-rule="evenodd" d="M75.4922 236.236H138.176C150.311 205.583 123.263 113.422 123.263 113.422H115.539C100.521 140.208 78.4268 191.989 75.4922 236.236Z" fill="#FFC836"/>
<path fill-rule="evenodd" clip-rule="evenodd" d="M115.309 113.422L118.935 113.422L120.089 119.727C89.1548 183.695 65.1989 225.564 48.2215 245.334L33.625 242.476C43.0274 184.191 70.2554 141.173 115.309 113.422Z" fill="#FFC836"/>
<path fill-rule="evenodd" clip-rule="evenodd" d="M16.0102 412.153C14.9364 411.687 13.6627 412.163 13.2672 413.264C12.613 415.087 11.7812 417.697 11.7812 419.19C11.7812 421.651 12.6015 426.372 12.6015 426.372C15.4575 426.372 63.9356 426.372 63.9356 426.372C63.9356 426.372 65.9366 419.76 61.6254 419.233C57.3143 418.705 54.4627 418.281 54.4627 418.281L30.6873 407.686C30.1728 407.457 29.5706 407.698 29.3558 408.218L27.8574 411.851C27.8574 411.851 23.8664 413.713 21.3712 413.713C19.9068 413.713 17.6362 412.859 16.0102 412.153Z" fill="#E4E4E4"/>
</svg>
