<svg width="192" height="192" fill="none" xmlns="http://www.w3.org/2000/svg">
  <rect width="192" height="192" rx="30" fill="#fff" />
  <path fill-rule="evenodd" clip-rule="evenodd" d="M54 30.016s11.335-.816 15.303 9.066c4.405 10.973 5.502 13.342 5.502 13.342S80.572 67.99 96 67.99c15.427 0 21.195-15.566 21.195-15.566s1.096-2.369 5.502-13.342C126.665 29.2 138 30.016 138 30.016v100.011s-11.335-.816-15.303 9.066c-4.406 10.973-5.502 13.342-5.502 13.342S111.427 168 96 168s-21.195-15.565-21.195-15.565-1.097-2.369-5.502-13.342C65.335 129.211 54 130.027 54 130.027V30.017v0z" fill="#4C0788" stroke="#4C0788" />
</svg>