<svg width="375" height="756" viewBox="0 0 375 756" fill="none" xmlns="http://www.w3.org/2000/svg">
<path fill-rule="evenodd" clip-rule="evenodd" d="M215.456 448.95C165.161 448.95 124 407.8 124 357.52C124 307.227 165.161 266.09 215.456 266.09C236.724 266.09 254.123 248.696 254.123 227.435C254.123 206.175 236.724 188.78 215.456 188.78H210.858C188.746 188.78 170.655 170.692 170.655 148.588C170.655 126.483 188.746 108.396 210.858 108.396H224.968C233.574 108.396 240.617 101.355 240.617 92.7531C240.617 84.1501 233.574 77.1091 224.968 77.1091H214.6C208.653 77.1091 203.802 72.247 203.802 66.3147C203.802 60.3704 208.666 55.5209 214.6 55.5209H284.336C293.672 55.5209 301.307 47.8881 301.307 38.5542C301.307 29.2217 293.672 21.5889 284.336 21.5889H263.485C257.538 21.5889 252.687 16.7268 252.687 10.7951C252.687 4.84953 257.55 0 263.485 0H560.054C567.802 0 574.152 6.34922 574.152 14.0946C574.152 21.8407 567.802 28.1892 560.054 28.1892H538.673C526.49 28.1892 516.524 38.1513 516.524 50.3314C516.524 62.5116 526.49 72.4736 538.673 72.4736H630.244C637.992 72.4736 644.343 78.8221 644.343 86.5682C644.343 94.3143 638.005 100.662 630.244 100.662H616.713C605.473 100.662 596.289 109.857 596.289 121.08C596.289 132.315 605.487 141.497 616.713 141.497H635.131C663.985 141.497 687.596 165.101 687.596 193.944C687.596 222.787 663.985 246.391 635.131 246.391H629.123C601.366 246.391 578.662 269.088 578.662 296.835C578.662 324.583 601.366 347.28 629.123 347.28H642.125C670.107 347.28 693 370.165 693 398.14C693 426.114 670.107 449 642.125 449C497.349 448.95 360.233 448.95 215.456 448.95ZM596.001 28C603.733 28 610 21.732 610 14C610 6.268 603.733 0 596.001 0C588.269 0 582 6.268 582 14C582 21.732 588.269 28 596.001 28ZM184 77C190.085 77 195 72.0708 195 65.9996C195 59.9164 190.071 55 184 55C177.916 55 173 59.9285 173 65.9996C172.988 72.0708 177.916 77 184 77Z" fill="url(#paint0_linear)"/>
<path fill-rule="evenodd" clip-rule="evenodd" d="M-299.759 717.951C-348.285 717.951 -388 678.268 -388 629.78C-388 581.279 -348.285 541.608 -299.759 541.608C-279.238 541.608 -262.451 524.834 -262.451 504.33C-262.451 483.828 -279.238 467.053 -299.759 467.053H-304.195C-325.529 467.053 -342.985 449.61 -342.985 428.293C-342.985 406.976 -325.529 389.534 -304.195 389.534H-290.58C-282.278 389.534 -275.482 382.744 -275.482 374.448C-275.482 366.151 -282.278 359.361 -290.58 359.361H-300.585C-306.322 359.361 -311.003 354.672 -311.003 348.952C-311.003 343.219 -306.31 338.542 -300.585 338.542H-233.3C-224.292 338.542 -216.925 331.182 -216.925 322.18C-216.925 313.18 -224.292 305.82 -233.3 305.82H-253.418C-259.156 305.82 -263.837 301.131 -263.837 295.41C-263.837 289.677 -259.144 285 -253.418 285H32.7273C40.203 285 46.3295 291.123 46.3295 298.592C46.3295 306.062 40.203 312.185 32.7273 312.185H12.0977C0.342896 312.185 -9.27267 321.792 -9.27267 333.538C-9.27267 345.284 0.342896 354.891 12.0977 354.891H100.45C107.926 354.891 114.053 361.013 114.053 368.483C114.053 375.953 107.938 382.075 100.45 382.075H87.394C76.5498 382.075 67.6884 390.942 67.6884 401.765C67.6884 412.6 76.5626 421.454 87.394 421.454H105.165C133.005 421.454 155.785 444.217 155.785 472.033C155.785 499.848 133.005 522.611 105.165 522.611H99.3678C72.5868 522.611 50.6813 544.499 50.6813 571.258C50.6813 598.016 72.5868 619.905 99.3678 619.905H111.913C138.912 619.905 161 641.975 161 668.952C161 695.93 138.912 718 111.913 718C-27.7739 717.951 -160.071 717.951 -299.759 717.951ZM67.5007 312C74.9567 312 81 305.956 81 298.5C81 291.044 74.9567 285 67.5007 285C60.0447 285 54 291.044 54 298.5C54 305.956 60.0447 312 67.5007 312ZM-330.5 359C-324.692 359 -320 354.295 -320 348.5C-320 342.693 -324.705 338 -330.5 338C-336.308 338 -341 342.704 -341 348.5C-341.012 354.295 -336.308 359 -330.5 359Z" fill="url(#paint1_linear)"/>
<path fill-rule="evenodd" clip-rule="evenodd" d="M248.241 755.951C199.715 755.951 160 716.268 160 667.78C160 619.279 199.715 579.608 248.241 579.608C268.762 579.608 285.549 562.834 285.549 542.33C285.549 521.828 268.762 505.053 248.241 505.053H243.805C222.471 505.053 205.015 487.61 205.015 466.293C205.015 444.976 222.471 427.534 243.805 427.534H257.42C265.722 427.534 272.518 420.744 272.518 412.448C272.518 404.151 265.722 397.361 257.42 397.361H247.415C241.678 397.361 236.997 392.672 236.997 386.952C236.997 381.219 241.69 376.542 247.415 376.542H314.7C323.708 376.542 331.075 369.182 331.075 360.18C331.075 351.18 323.708 343.82 314.7 343.82H294.582C288.844 343.82 284.163 339.131 284.163 333.41C284.163 327.677 288.856 323 294.582 323H580.727C588.203 323 594.329 329.123 594.329 336.592C594.329 344.062 588.203 350.185 580.727 350.185H560.098C548.343 350.185 538.727 359.792 538.727 371.538C538.727 383.284 548.343 392.891 560.098 392.891H648.45C655.926 392.891 662.053 399.013 662.053 406.483C662.053 413.953 655.938 420.075 648.45 420.075H635.394C624.55 420.075 615.688 428.942 615.688 439.765C615.688 450.6 624.563 459.454 635.394 459.454H653.165C681.005 459.454 703.785 482.217 703.785 510.033C703.785 537.848 681.005 560.611 653.165 560.611H647.368C620.587 560.611 598.681 582.499 598.681 609.258C598.681 636.016 620.587 657.905 647.368 657.905H659.913C686.912 657.905 709 679.975 709 706.952C709 733.93 686.912 756 659.913 756C520.226 755.951 387.929 755.951 248.241 755.951ZM615.501 350C622.957 350 629 343.956 629 336.5C629 329.044 622.957 323 615.501 323C608.045 323 602 329.044 602 336.5C602 343.956 608.045 350 615.501 350ZM217.5 397C223.308 397 228 392.295 228 386.5C228 380.693 223.295 376 217.5 376C211.692 376 207 380.704 207 386.5C206.988 392.295 211.692 397 217.5 397Z" fill="white"/>
<path fill-rule="evenodd" clip-rule="evenodd" d="M-11.4165 432.299C-6.967 433.578 -2.90394 433.683 -1.25854 432.755C2.86784 430.427 -1.06218 414.13 -6.20141 408.667C-11.3406 403.204 -29.7152 405.146 -27.2157 418.029C-26.3482 422.5 -23.4527 425.922 -19.8691 428.387L-18.6619 452.449L-4.45921 448.643L-11.4165 432.299Z" fill="#B28B67"/>
<path fill-rule="evenodd" clip-rule="evenodd" d="M-14.9581 416.241C-14.219 414.086 -13.4128 412.376 -12.0953 411.156C-5.82501 409.582 -5.39345 408.268 -6.40274 404.502C-7.60428 404.051 -11.4878 403.792 -15.5642 404.518C-17.7527 404.482 -20.1316 405.237 -22.1918 406.827C-24.8383 408.406 -26.795 410.802 -26.9897 414.36C-29.0758 422.076 -24.2721 428.238 -19.6722 429.55C-18.9515 428.019 -18.3548 426.563 -17.8435 425.185C-18.6759 424.718 -19.3263 423.93 -19.5927 422.936C-20.1173 420.978 -18.9529 418.965 -16.9919 418.439C-16.8477 418.401 -16.7033 418.371 -16.5591 418.351C-15.815 420.775 -13.2328 428.959 -11.5081 431.58C-9.4748 434.67 -2.68948 433.745 -0.400746 433.132C1.57608 432.602 1.00791 430.751 0.600719 429.425C0.542077 429.234 0.486774 429.053 0.442891 428.89C0.351206 428.547 -0.0943091 428.668 -0.597684 428.804C-1.25132 428.98 -2.00251 429.183 -2.20325 428.434C-2.42206 427.617 -1.45959 426.688 -0.598335 425.857C-0.0610003 425.338 0.436937 424.857 0.584031 424.465C1.04809 423.23 0.923283 421.764 -0.195905 422.064C-0.807665 422.228 -1.55266 422.805 -2.44894 423.5C-3.80203 424.548 -5.49992 425.863 -7.60475 426.427C-11.0816 427.358 -14.9095 416.381 -14.9581 416.241Z" fill="#191847"/>
<path fill-rule="evenodd" clip-rule="evenodd" d="M-12.7383 501.623L17.3933 577.529L37.6028 641.701H45.583L14.6873 501.623L-12.7383 501.623Z" fill="#997659"/>
<path fill-rule="evenodd" clip-rule="evenodd" d="M-18.8039 501.623C-19.1248 528.297 -23.8041 564.209 -24.5517 565.872C-25.2993 567.535 -76.168 608.161 -76.168 608.161L-70.6715 614.015C-70.6715 614.015 -10.6512 579.183 -7.87371 574.537C-5.09627 569.892 3.94614 527.141 11.206 501.623H-18.8039Z" fill="#B28B67"/>
<path fill-rule="evenodd" clip-rule="evenodd" d="M36.8056 638.377C35.7205 637.945 34.4477 638.415 34.0736 639.521C33.6903 640.655 33.3047 642.003 33.3047 642.834C33.3047 644.487 33.858 647.658 33.858 647.658C35.7844 647.658 68.4835 647.658 68.4835 647.658C68.4835 647.658 69.8332 643.217 66.9253 642.863C64.0173 642.508 62.0939 642.223 62.0939 642.223L46.3606 635.242C45.8469 635.014 45.2462 635.254 45.0311 635.773L44.1483 637.905C44.1483 637.905 41.4563 639.155 39.7732 639.155C38.9686 639.155 37.803 638.774 36.8056 638.377Z" fill="#E4E4E4"/>
<path fill-rule="evenodd" clip-rule="evenodd" d="M7.5242 635.092L45.4665 630.993L17.3467 501.623H-16.6367L7.5242 635.092Z" fill="#69A1AC"/>
<path fill-rule="evenodd" clip-rule="evenodd" d="M-68.3203 598.716L-43.4325 628.036C-43.4325 628.036 -4.11168 585.292 2.41577 572.255C8.94323 559.219 14.1515 501.623 14.1515 501.623H-24.1078C-24.1078 501.623 -26.9528 552.293 -27.9432 554.651C-28.9337 557.009 -68.3203 598.716 -68.3203 598.716Z" fill="#89C5CC"/>
<path fill-rule="evenodd" clip-rule="evenodd" d="M56.7993 498.31L35.0656 487.594L32.6626 498.844L53.1122 503.374C59.6169 508.745 63.0955 510.849 63.5482 509.686C63.9298 508.705 63.3631 507.949 62.8411 507.253C62.4344 506.711 62.0549 506.206 62.172 505.657C62.4393 504.406 66.0817 503.89 69.5591 503.549C73.0364 503.207 71.7678 501.859 70.8078 501.252C66.9366 499.777 62.2671 498.796 56.7993 498.31ZM-39.7456 540.969C-38.609 537.076 -38.7424 501.11 -38.7424 501.11L-26.1253 498.937C-26.1253 498.937 -31.1664 538.633 -31.6911 541.1C-32.3727 544.305 -29.5525 548.289 -27.6402 550.991C-27.3444 551.409 -27.0702 551.796 -26.8342 552.145C-28.6143 553.349 -29.7265 552.47 -30.8991 551.542C-32.2235 550.494 -33.6248 549.386 -36.1525 551.15C-37.1291 551.832 -38.0327 552.594 -38.9154 553.338C-41.9646 555.908 -44.7658 558.269 -49.472 556.402C-50.2181 556.107 -51.2308 554.676 -49.664 553.141C-45.7606 549.32 -40.3012 542.873 -39.7456 540.969Z" fill="#B28B67"/>
<path fill-rule="evenodd" clip-rule="evenodd" d="M-12.225 441.971L-7.16531 440.158C15.1359 453.44 28.7422 484.112 55.4656 496.919L51.0008 504.994C8.9409 507.163 -8.15999 469.84 -12.225 441.971Z" fill="#E87613"/>
<path fill-rule="evenodd" clip-rule="evenodd" d="M-23.4264 511.442C-23.4264 511.442 7.95229 505.909 22.7366 503.302C24.846 502.93 23.9123 499.959 23.3368 498.478C16.6947 481.388 -0.409337 464.72 -4.85462 439.509L-18.5378 439.772C-26.4331 459.4 -26.4025 481.845 -23.4264 511.442Z" fill="#DDE3E9"/>
<path fill-rule="evenodd" clip-rule="evenodd" d="M-26.3857 525.007C-27.5832 530.347 -28.8522 535.047 -30.1813 538.719L-40.0816 540.465C-47.2098 506.268 -38.8363 477.51 -30.7371 459.633C-33.1904 459.887 -35.5558 459.26 -37.3774 457.014C-43.7902 449.104 -42.8838 443.967 -37.9624 441.463C-35.2562 440.086 -32.4614 440.207 -29.1158 440.352C-26.3781 440.471 -23.2717 440.606 -19.5433 439.949C-19.5421 439.949 -19.5409 439.949 -19.5396 439.948C-19.1783 439.885 -18.8453 439.851 -18.5386 439.845L-14.0759 439.317C-14.0759 439.317 14.5674 496.857 10.102 518.573L-26.3857 525.007Z" fill="#FF9B21"/>
<path fill-rule="evenodd" clip-rule="evenodd" d="M374.599 432.299C379.049 433.578 383.112 433.683 384.757 432.755C388.883 430.427 384.953 414.13 379.814 408.667C374.675 403.204 356.3 405.146 358.8 418.029C359.667 422.5 362.563 425.922 366.147 428.387L367.354 452.449L381.556 448.643L374.599 432.299Z" fill="#B28B67"/>
<path fill-rule="evenodd" clip-rule="evenodd" d="M371.058 416.241C371.797 414.086 372.603 412.376 373.92 411.156C380.191 409.582 380.622 408.268 379.613 404.502C378.411 404.051 374.528 403.792 370.451 404.518C368.263 404.482 365.884 405.237 363.824 406.827C361.177 408.406 359.221 410.802 359.026 414.36C356.94 422.076 361.744 428.238 366.343 429.55C367.064 428.019 367.661 426.563 368.172 425.185C367.34 424.718 366.689 423.93 366.423 422.936C365.898 420.978 367.063 418.965 369.024 418.439C369.168 418.401 369.312 418.371 369.456 418.351C370.201 420.775 372.783 428.959 374.508 431.58C376.541 434.67 383.326 433.745 385.615 433.132C387.592 432.602 387.024 430.751 386.616 429.425C386.558 429.234 386.502 429.053 386.459 428.89C386.367 428.547 385.921 428.668 385.418 428.804C384.764 428.98 384.013 429.183 383.812 428.434C383.594 427.617 384.556 426.688 385.417 425.857C385.955 425.338 386.453 424.857 386.6 424.465C387.064 423.23 386.939 421.764 385.82 422.064C385.208 422.228 384.463 422.805 383.567 423.5C382.214 424.548 380.516 425.863 378.411 426.427C374.934 427.358 371.106 416.381 371.058 416.241Z" fill="#191847"/>
<path fill-rule="evenodd" clip-rule="evenodd" d="M373.277 501.623L403.409 577.529L423.618 641.701H431.599L400.703 501.623L373.277 501.623Z" fill="#997659"/>
<path fill-rule="evenodd" clip-rule="evenodd" d="M367.212 501.623C366.891 528.297 362.212 564.209 361.464 565.872C360.716 567.535 309.848 608.161 309.848 608.161L315.344 614.015C315.344 614.015 375.364 579.183 378.142 574.537C380.919 569.892 389.962 527.141 397.222 501.623H367.212Z" fill="#B28B67"/>
<path fill-rule="evenodd" clip-rule="evenodd" d="M310.982 607.87C310.615 606.76 309.43 606.086 308.337 606.512C307.219 606.949 305.937 607.52 305.298 608.054C304.026 609.116 301.941 611.576 301.941 611.576C303.179 613.045 324.198 637.976 324.198 637.976C324.198 637.976 328.483 636.151 326.887 633.706C325.29 631.261 324.273 629.611 324.273 629.611L319.535 613.134C319.379 612.593 318.806 612.287 318.268 612.457L316.061 613.153C316.061 613.153 313.369 611.904 312.287 610.621C311.772 610.01 311.317 608.883 310.982 607.87Z" fill="#E4E4E4"/>
<path fill-rule="evenodd" clip-rule="evenodd" d="M393.54 635.092L431.482 630.993L403.362 501.623H369.379L393.54 635.092Z" fill="#69A1AC"/>
<path fill-rule="evenodd" clip-rule="evenodd" d="M317.695 598.716L342.583 628.036C342.583 628.036 381.904 585.292 388.431 572.255C394.959 559.219 400.167 501.623 400.167 501.623H361.908C361.908 501.623 359.063 552.293 358.072 554.651C357.082 557.009 317.695 598.716 317.695 598.716Z" fill="#89C5CC"/>
<path fill-rule="evenodd" clip-rule="evenodd" d="M442.815 498.31L421.081 487.594L418.678 498.844L439.128 503.374C445.632 508.745 449.111 510.849 449.564 509.686C449.945 508.705 449.379 507.949 448.857 507.253C448.45 506.711 448.071 506.206 448.188 505.657C448.455 504.406 452.097 503.89 455.575 503.549C459.052 503.207 457.783 501.859 456.823 501.252C452.952 499.777 448.283 498.796 442.815 498.31ZM346.27 540.969C347.407 537.076 347.273 501.11 347.273 501.11L359.89 498.937C359.89 498.937 354.849 538.633 354.325 541.1C353.643 544.305 356.463 548.289 358.375 550.991C358.671 551.409 358.945 551.796 359.181 552.145C357.401 553.349 356.289 552.47 355.117 551.542C353.792 550.494 352.391 549.386 349.863 551.15C348.887 551.832 347.983 552.594 347.1 553.338C344.051 555.908 341.25 558.269 336.544 556.402C335.798 556.107 334.785 554.676 336.352 553.141C340.255 549.32 345.714 542.873 346.27 540.969Z" fill="#B28B67"/>
<path fill-rule="evenodd" clip-rule="evenodd" d="M373.791 441.971L378.85 440.158C401.152 453.44 414.758 484.112 441.481 496.919L437.016 504.994C394.957 507.163 377.856 469.84 373.791 441.971Z" fill="#E87613"/>
<path fill-rule="evenodd" clip-rule="evenodd" d="M362.589 511.442C362.589 511.442 393.968 505.909 408.752 503.302C410.862 502.93 409.928 499.959 409.352 498.478C402.71 481.388 385.606 464.72 381.161 439.509L367.478 439.772C359.583 459.4 359.613 481.845 362.589 511.442Z" fill="#DDE3E9"/>
<path fill-rule="evenodd" clip-rule="evenodd" d="M359.63 525.007C358.432 530.347 357.163 535.047 355.834 538.719L345.934 540.465C338.806 506.268 347.179 477.51 355.279 459.633C352.825 459.887 350.46 459.26 348.638 457.014C342.225 449.104 343.132 443.967 348.053 441.463C350.759 440.086 353.554 440.207 356.9 440.352C359.638 440.471 362.744 440.606 366.472 439.949C366.474 439.949 366.475 439.949 366.476 439.948C366.837 439.885 367.17 439.851 367.477 439.845L371.94 439.317C371.94 439.317 400.583 496.857 396.118 518.573L359.63 525.007Z" fill="#FF9B21"/>
<path fill-rule="evenodd" clip-rule="evenodd" d="M359.628 525.007C361.199 517.999 362.647 509.888 363.946 501.546C366.474 510.035 369.674 518.444 373.265 522.602L359.628 525.007Z" fill="black" fill-opacity="0.1"/>
<path fill-rule="evenodd" clip-rule="evenodd" d="M150.106 519.89C151.146 534.076 218.135 575.841 218.526 577.013C218.787 577.794 197.675 626.404 197.675 626.404L203.531 628.678C203.531 628.678 235.913 577.198 234.25 571.712C231.868 563.858 182.273 520.041 182.273 520.041L150.106 519.89Z" fill="#B28B67"/>
<path fill-rule="evenodd" clip-rule="evenodd" d="M199.218 619.085L208.779 622.564C228.939 599.828 236.841 581.068 235.4 571.51C233.959 561.952 183.603 519.925 183.603 519.925L149.423 519.925C150.589 552.778 212.68 577.139 213.51 578.539C214.341 579.938 206.168 593.65 199.218 619.085Z" fill="#8464AC"/>
<path fill-rule="evenodd" clip-rule="evenodd" d="M197.922 625.848C197.044 625.074 195.684 625.078 194.958 625.996C194.276 626.857 193.549 627.875 193.291 628.583C192.758 630.049 192.223 633.037 192.223 633.037C193.924 633.656 222.789 644.162 222.789 644.162C222.789 644.162 225.413 640.659 222.96 639.411C220.508 638.162 218.902 637.291 218.902 637.291L207.312 626.093C206.907 625.701 206.259 625.721 205.879 626.137L204.454 627.698C204.454 627.698 201.674 627.941 200.188 627.4C199.51 627.153 198.653 626.493 197.922 625.848Z" fill="#E4E4E4"/>
<path fill-rule="evenodd" clip-rule="evenodd" d="M157.809 519.891L127.967 591.5L98.6367 652.04H105.557L181.265 519.891H157.809Z" fill="#997659"/>
<path fill-rule="evenodd" clip-rule="evenodd" d="M101.285 639.463L116.661 642.345C128.55 624.875 178.305 553.239 183.76 519.891H149.529C131.312 543.998 112.618 621.703 101.285 639.463Z" fill="#6615BA"/>
<path fill-rule="evenodd" clip-rule="evenodd" d="M209.715 504.106L230.611 494.933C234.272 491.287 237.807 488.516 241.216 486.62C242.235 486.295 243.977 486.197 242.119 488.91C240.261 491.623 238.428 494.559 239.171 495.51C239.913 496.461 242.064 495.412 242.913 496.958C243.48 497.988 239.855 499.221 232.038 500.656L216.387 512.65L209.715 504.106Z" fill="#B28B67"/>
<path fill-rule="evenodd" clip-rule="evenodd" d="M125.231 506.631L137.049 508.975C125.164 531.113 118.791 542.846 117.928 544.174C115.988 547.163 117.798 552.641 118.467 555.525C114.272 556.501 115.926 550.19 110.617 551.507C105.771 552.71 101.662 555.797 97.1433 551.634C96.5877 551.122 96.181 549.522 98.0752 548.702C102.794 546.657 109.766 542.829 110.897 541.343C112.438 539.316 117.217 527.746 125.231 506.631Z" fill="#B28B67"/>
<path fill-rule="evenodd" clip-rule="evenodd" d="M169.169 462.438L174.156 461.583C185.018 472.114 189.45 497.416 196.689 500.765C203.533 503.932 213.234 500.868 224.766 496.73L228.298 504.617C217.82 515.948 195.498 525.52 186.45 520.055C171.984 511.318 168.645 480.112 169.169 462.438Z" fill="#DFAC22"/>
<path fill-rule="evenodd" clip-rule="evenodd" d="M147.43 525.077C147.43 525.077 177.423 525.077 191.554 525.077C193.57 525.077 193.19 522.167 192.899 520.699C189.535 503.751 176.404 485.483 176.404 461.358L163.676 459.363C153.149 476.287 149.509 497.123 147.43 525.077Z" fill="#DDE3E9"/>
<path fill-rule="evenodd" clip-rule="evenodd" d="M137.625 537.183H177.344C185.033 517.76 167.894 459.363 167.894 459.363H163C153.484 476.336 139.484 509.146 137.625 537.183Z" fill="#FFC836"/>
<path fill-rule="evenodd" clip-rule="evenodd" d="M162.856 459.363L165.153 459.363L165.884 463.358C146.283 503.89 131.104 530.42 120.346 542.947L111.098 541.136C117.055 504.205 134.308 476.947 162.856 459.363Z" fill="#FFC836"/>
<path fill-rule="evenodd" clip-rule="evenodd" d="M172.766 455.469C176.501 457.719 180.17 458.806 181.893 458.362C186.212 457.249 186.609 441.456 183.267 435.23C179.925 429.004 162.745 426.29 161.879 438.626C161.578 442.908 163.377 446.729 166.034 449.846L161.27 472.045H175.11L172.766 455.469Z" fill="#B28B67"/>
<path fill-rule="evenodd" clip-rule="evenodd" d="M175.379 428.054C173.554 427.755 168.643 427.55 167.737 427.55C167.158 427.55 166.531 427.682 166.188 427.151C165.907 426.716 166.01 425.98 165.926 425.475C165.829 424.889 165.691 424.31 165.551 423.732C165.153 422.089 164.552 420.526 163.71 419.058C162.131 416.305 159.818 414.148 156.897 412.893C153.672 411.507 150.022 411.19 146.553 411.471C142.841 411.771 139.48 412.996 135.975 414.149C132.635 415.248 129.136 415.68 125.643 415.144C122.123 414.603 119.463 412.696 116.494 410.886C113.455 409.034 109.982 407.822 106.389 408.1C103.035 408.36 99.9434 409.745 97.17 411.594C94.5752 413.324 92.4341 415.405 91.2253 418.335C89.9249 421.486 89.9261 424.945 92.0646 427.731C95.1641 431.768 100.918 432.811 105.706 432.708C108.475 432.648 111.194 432.143 113.808 431.224C117.295 429.998 120.308 427.92 123.57 426.235C125.1 425.444 126.682 424.794 128.341 424.326C129.95 423.872 131.535 423.663 132.993 424.635C134.534 425.663 135.915 426.673 137.679 427.316C139.37 427.934 141.162 428.279 142.965 428.265C146.471 428.238 149.928 427.146 153.334 426.415C156.111 425.818 159.083 425.224 161.915 425.797C163.096 426.036 164.822 426.53 165.249 427.758C158.066 429.059 155.245 437.937 157.27 444.455C158.363 447.973 164.932 452.086 167.486 450.236C169.105 449.065 168.122 447.526 167.486 446.511C166.269 444.566 165.852 442.069 168.105 440.715C170.049 439.547 172.092 442.32 172.13 442.317C172.665 442.275 177.28 439.666 180.459 435.859C183.596 436.045 184.072 433.977 183.323 432.287C182.574 430.596 177.899 428.468 175.379 428.054Z" fill="#191847"/>
<path fill-rule="evenodd" clip-rule="evenodd" d="M100.674 648.955C99.5842 648.527 98.3074 648.997 97.9388 650.108C97.5929 651.151 97.2578 652.355 97.2578 653.109C97.2578 654.669 97.7776 657.66 97.7776 657.66C99.5872 657.66 130.305 657.66 130.305 657.66C130.305 657.66 131.572 653.47 128.841 653.136C126.109 652.802 124.302 652.533 124.302 652.533L109.581 645.973C109.067 645.744 108.465 645.985 108.25 646.505L107.444 648.459C107.444 648.459 104.915 649.639 103.334 649.639C102.612 649.639 101.581 649.311 100.674 648.955Z" fill="#E4E4E4"/>
<defs>
<linearGradient id="paint0_linear" x1="408.5" y1="475" x2="408.5" y2="-76" gradientUnits="userSpaceOnUse">
<stop stop-color="#FAD144"/>
<stop offset="1" stop-color="#FAD144" stop-opacity="0"/>
</linearGradient>
<linearGradient id="paint1_linear" x1="-113.5" y1="718" x2="-113.5" y2="250" gradientUnits="userSpaceOnUse">
<stop stop-color="#8464AC"/>
<stop offset="1" stop-color="#8464AC" stop-opacity="0"/>
</linearGradient>
</defs>
</svg>
