<svg width="1440" height="774" viewBox="0 0 1440 774" fill="none" xmlns="http://www.w3.org/2000/svg">
<g clip-path="url(#clip0)">
<path d="M0 0H1440V774H0V0Z" fill="white"/>
<path opacity="0.4" fill-rule="evenodd" clip-rule="evenodd" d="M1026.6 597.238C963.579 597.238 912 545.674 912 482.669C912 419.647 963.579 368.098 1026.6 368.098C1053.25 368.098 1075.06 346.303 1075.06 319.66C1075.06 293.019 1053.25 271.222 1026.6 271.222H1020.84C993.133 271.222 970.462 248.557 970.462 220.858C970.462 193.158 993.133 170.494 1020.84 170.494H1038.52C1049.31 170.494 1058.13 161.671 1058.13 150.892C1058.13 140.112 1049.31 131.289 1038.52 131.289H1025.53C1018.08 131.289 1012 125.196 1012 117.762C1012 110.314 1018.09 104.237 1025.53 104.237H1112.91C1124.61 104.237 1134.18 94.6722 1134.18 82.9759C1134.18 71.2814 1124.61 61.7169 1112.91 61.7169H1086.79C1079.34 61.7169 1073.26 55.6242 1073.26 48.1913C1073.26 40.741 1079.35 34.6641 1086.79 34.6641H1458.42C1468.12 34.6641 1476.08 42.6202 1476.08 52.3259C1476.08 62.0324 1468.12 69.9877 1458.42 69.9877H1431.62C1416.36 69.9877 1403.87 82.471 1403.87 97.7338C1403.87 112.997 1416.36 125.48 1431.62 125.48H1546.37C1556.08 125.48 1564.04 133.435 1564.04 143.142C1564.04 152.848 1556.09 160.803 1546.37 160.803H1529.41C1515.33 160.803 1503.82 172.325 1503.82 186.388C1503.82 200.466 1515.35 211.972 1529.41 211.972H1552.49C1588.65 211.972 1618.24 241.55 1618.24 277.693C1618.24 313.836 1588.65 343.414 1552.49 343.414H1544.96C1510.18 343.414 1481.73 371.855 1481.73 406.625C1481.73 441.395 1510.18 469.837 1544.96 469.837H1561.26C1596.32 469.837 1625.01 498.514 1625.01 533.569C1625.01 568.623 1596.32 597.301 1561.26 597.301C1379.84 597.238 1208.02 597.238 1026.6 597.238ZM1503.46 69.7506C1513.15 69.7506 1521 61.8962 1521 52.2073C1521 42.5184 1513.15 34.6641 1503.46 34.6641C1493.77 34.6641 1485.91 42.5184 1485.91 52.2073C1485.91 61.8962 1493.77 69.7506 1503.46 69.7506ZM987.186 131.152C994.811 131.152 1000.97 124.975 1000.97 117.368C1000.97 109.745 994.794 103.584 987.186 103.584C979.562 103.584 973.402 109.76 973.402 117.368C973.387 124.975 979.562 131.152 987.186 131.152Z" fill="url(#paint0_linear)"/>
<path opacity="0.4" fill-rule="evenodd" clip-rule="evenodd" d="M-316.426 759.527C-377.234 759.527 -427 709.801 -427 649.04C-427 588.264 -377.234 538.552 -316.426 538.552C-290.712 538.552 -269.676 517.534 -269.676 491.84C-269.676 466.149 -290.712 445.128 -316.426 445.128H-321.985C-348.719 445.128 -370.593 423.271 -370.593 396.559C-370.593 369.847 -348.719 347.99 -321.985 347.99H-304.925C-294.521 347.99 -286.005 339.482 -286.005 329.086C-286.005 318.69 -294.521 310.181 -304.925 310.181H-317.461C-324.651 310.181 -330.516 304.306 -330.516 297.137C-330.516 289.954 -324.636 284.094 -317.461 284.094H-233.147C-221.859 284.094 -212.628 274.87 -212.628 263.59C-212.628 252.313 -221.859 243.089 -233.147 243.089H-258.357C-265.547 243.089 -271.412 237.213 -271.412 230.045C-271.412 222.86 -265.532 217 -258.357 217H100.209C109.577 217 117.254 224.673 117.254 234.033C117.254 243.393 109.577 251.065 100.209 251.065H74.3582C59.6284 251.065 47.5792 263.103 47.5792 277.822C47.5792 292.541 59.6284 304.58 74.3582 304.58H185.071C194.44 304.58 202.117 312.252 202.117 321.612C202.117 330.973 194.455 338.644 185.071 338.644H168.711C155.122 338.644 144.018 349.755 144.018 363.318C144.018 376.894 155.138 387.99 168.711 387.99H190.98C225.865 387.99 254.412 416.514 254.412 451.369C254.412 486.224 225.865 514.747 190.98 514.747H183.715C150.156 514.747 122.707 542.175 122.707 575.707C122.707 609.237 150.156 636.666 183.715 636.666H199.436C233.268 636.666 260.946 664.321 260.946 698.126C260.946 731.932 233.268 759.588 199.436 759.588C24.3955 759.527 -141.384 759.527 -316.426 759.527ZM143.785 250.833C153.128 250.833 160.701 243.26 160.701 233.917C160.701 224.574 153.128 217 143.785 217C134.442 217 126.867 224.574 126.867 233.917C126.867 243.26 134.442 250.833 143.785 250.833ZM-354.948 309.729C-347.669 309.729 -341.79 303.833 -341.79 296.571C-341.79 289.294 -347.685 283.414 -354.948 283.414C-362.225 283.414 -368.105 289.309 -368.105 296.571C-368.119 303.833 -362.225 309.729 -354.948 309.729Z" fill="url(#paint1_linear)"/>
<path fill-rule="evenodd" clip-rule="evenodd" d="M846.925 887.523C782.581 887.523 729.922 834.906 729.922 770.612C729.922 706.303 782.581 653.7 846.925 653.7C874.135 653.7 896.394 631.459 896.394 604.272C896.394 577.087 874.135 554.844 846.925 554.844H841.043C812.755 554.844 789.609 531.716 789.609 503.451C789.609 475.185 812.755 452.058 841.043 452.058H859.095C870.104 452.058 879.115 443.055 879.115 432.055C879.115 421.054 870.104 412.051 859.095 412.051H845.83C838.222 412.051 832.016 405.834 832.016 398.248C832.016 390.647 838.238 384.446 845.83 384.446H935.046C946.991 384.446 956.758 374.686 956.758 362.751C956.758 350.817 946.991 341.057 935.046 341.057H908.37C900.763 341.057 894.556 334.84 894.556 327.255C894.556 319.653 900.778 313.452 908.37 313.452H1287.78C1297.7 313.452 1305.82 321.57 1305.82 331.474C1305.82 341.379 1297.7 349.497 1287.78 349.497H1260.43C1244.84 349.497 1232.1 362.236 1232.1 377.81C1232.1 393.385 1244.84 406.124 1260.43 406.124H1377.58C1387.49 406.124 1395.62 414.241 1395.62 424.146C1395.62 434.051 1387.51 442.168 1377.58 442.168H1360.27C1345.89 442.168 1334.14 453.926 1334.14 468.277C1334.14 482.642 1345.91 494.383 1360.27 494.383H1383.83C1420.75 494.383 1450.95 524.566 1450.95 561.448C1450.95 598.33 1420.75 628.511 1383.83 628.511H1376.15C1340.64 628.511 1311.59 657.534 1311.59 693.015C1311.59 728.495 1340.64 757.519 1376.15 757.519H1392.78C1428.58 757.519 1457.87 786.782 1457.87 822.553C1457.87 858.324 1428.58 887.588 1392.78 887.588C1207.56 887.523 1032.14 887.523 846.925 887.523ZM1333.89 349.252C1343.78 349.252 1351.79 341.238 1351.79 331.352C1351.79 321.466 1343.78 313.452 1333.89 313.452C1324 313.452 1315.99 321.466 1315.99 331.352C1315.99 341.238 1324 349.252 1333.89 349.252ZM806.162 411.572C813.864 411.572 820.085 405.333 820.085 397.649C820.085 389.949 813.847 383.727 806.162 383.727C798.462 383.727 792.24 389.965 792.24 397.649C792.225 405.333 798.462 411.572 806.162 411.572Z" fill="white"/>
</g>
<defs>
<linearGradient id="paint0_linear" x1="1268.5" y1="629.881" x2="1268.5" y2="-60.5707" gradientUnits="userSpaceOnUse">
<stop stop-color="#FAD144"/>
<stop offset="1" stop-color="#FAD144" stop-opacity="0"/>
</linearGradient>
<linearGradient id="paint1_linear" x1="-83.027" y1="759.588" x2="-83.027" y2="173.142" gradientUnits="userSpaceOnUse">
<stop stop-color="#8464AC"/>
<stop offset="1" stop-color="#8464AC" stop-opacity="0"/>
</linearGradient>
<clipPath id="clip0">
<path d="M0 0H1440V774H0V0Z" fill="white"/>
</clipPath>
</defs>
</svg>
