<svg width="1440" height="759" viewBox="0 0 1440 759" fill="none" xmlns="http://www.w3.org/2000/svg">
<g clip-path="url(#clip0)">
<path d="M0 0H1440V759H0V0Z" fill="white"/>
<path opacity="0.4" fill-rule="evenodd" clip-rule="evenodd" d="M1026.6 597.238C963.579 597.238 912 545.674 912 482.669C912 419.647 963.579 368.098 1026.6 368.098C1053.25 368.098 1075.06 346.303 1075.06 319.66C1075.06 293.019 1053.25 271.222 1026.6 271.222H1020.84C993.133 271.222 970.462 248.557 970.462 220.858C970.462 193.158 993.133 170.494 1020.84 170.494H1038.52C1049.31 170.494 1058.13 161.671 1058.13 150.892C1058.13 140.112 1049.31 131.289 1038.52 131.289H1025.53C1018.08 131.289 1012 125.196 1012 117.762C1012 110.314 1018.09 104.237 1025.53 104.237H1112.91C1124.61 104.237 1134.18 94.6722 1134.18 82.9759C1134.18 71.2814 1124.61 61.7169 1112.91 61.7169H1086.79C1079.34 61.7169 1073.26 55.6242 1073.26 48.1913C1073.26 40.741 1079.35 34.6641 1086.79 34.6641H1458.42C1468.12 34.6641 1476.08 42.6202 1476.08 52.3259C1476.08 62.0324 1468.12 69.9877 1458.42 69.9877H1431.62C1416.36 69.9877 1403.87 82.471 1403.87 97.7338C1403.87 112.997 1416.36 125.48 1431.62 125.48H1546.37C1556.08 125.48 1564.04 133.435 1564.04 143.142C1564.04 152.848 1556.09 160.803 1546.37 160.803H1529.41C1515.33 160.803 1503.82 172.325 1503.82 186.388C1503.82 200.466 1515.35 211.972 1529.41 211.972H1552.49C1588.65 211.972 1618.24 241.55 1618.24 277.693C1618.24 313.836 1588.65 343.414 1552.49 343.414H1544.96C1510.18 343.414 1481.73 371.855 1481.73 406.625C1481.73 441.395 1510.18 469.837 1544.96 469.837H1561.26C1596.32 469.837 1625.01 498.514 1625.01 533.569C1625.01 568.623 1596.32 597.301 1561.26 597.301C1379.84 597.238 1208.02 597.238 1026.6 597.238ZM1503.46 69.7506C1513.15 69.7506 1521 61.8962 1521 52.2073C1521 42.5184 1513.15 34.6641 1503.46 34.6641C1493.77 34.6641 1485.91 42.5184 1485.91 52.2073C1485.91 61.8962 1493.77 69.7506 1503.46 69.7506ZM987.186 131.152C994.811 131.152 1000.97 124.975 1000.97 117.368C1000.97 109.745 994.794 103.584 987.186 103.584C979.562 103.584 973.402 109.76 973.402 117.368C973.387 124.975 979.562 131.152 987.186 131.152Z" fill="url(#paint0_linear)"/>
<path opacity="0.4" fill-rule="evenodd" clip-rule="evenodd" d="M-316.426 759.527C-377.234 759.527 -427 709.801 -427 649.04C-427 588.264 -377.234 538.552 -316.426 538.552C-290.712 538.552 -269.676 517.534 -269.676 491.84C-269.676 466.149 -290.712 445.128 -316.426 445.128H-321.985C-348.719 445.128 -370.593 423.271 -370.593 396.559C-370.593 369.847 -348.719 347.99 -321.985 347.99H-304.925C-294.521 347.99 -286.005 339.482 -286.005 329.086C-286.005 318.69 -294.521 310.181 -304.925 310.181H-317.461C-324.651 310.181 -330.516 304.306 -330.516 297.137C-330.516 289.954 -324.636 284.094 -317.461 284.094H-233.147C-221.859 284.094 -212.628 274.87 -212.628 263.59C-212.628 252.313 -221.859 243.089 -233.147 243.089H-258.357C-265.547 243.089 -271.412 237.213 -271.412 230.045C-271.412 222.86 -265.532 217 -258.357 217H100.209C109.577 217 117.254 224.673 117.254 234.033C117.254 243.393 109.577 251.065 100.209 251.065H74.3582C59.6284 251.065 47.5792 263.103 47.5792 277.822C47.5792 292.541 59.6284 304.58 74.3582 304.58H185.071C194.44 304.58 202.117 312.252 202.117 321.612C202.117 330.973 194.455 338.644 185.071 338.644H168.711C155.122 338.644 144.018 349.755 144.018 363.318C144.018 376.894 155.138 387.99 168.711 387.99H190.98C225.865 387.99 254.412 416.514 254.412 451.369C254.412 486.224 225.865 514.747 190.98 514.747H183.715C150.156 514.747 122.707 542.175 122.707 575.707C122.707 609.237 150.156 636.666 183.715 636.666H199.436C233.268 636.666 260.946 664.321 260.946 698.126C260.946 731.932 233.268 759.588 199.436 759.588C24.3955 759.527 -141.384 759.527 -316.426 759.527ZM143.785 250.833C153.128 250.833 160.701 243.26 160.701 233.917C160.701 224.574 153.128 217 143.785 217C134.442 217 126.867 224.574 126.867 233.917C126.867 243.26 134.442 250.833 143.785 250.833ZM-354.948 309.729C-347.669 309.729 -341.79 303.833 -341.79 296.571C-341.79 289.294 -347.685 283.414 -354.948 283.414C-362.225 283.414 -368.105 289.309 -368.105 296.571C-368.119 303.833 -362.225 309.729 -354.948 309.729Z" fill="url(#paint1_linear)"/>
<path fill-rule="evenodd" clip-rule="evenodd" d="M775.574 812.527C714.766 812.527 665 762.801 665 702.04C665 641.264 714.766 591.552 775.574 591.552C801.288 591.552 822.324 570.534 822.324 544.84C822.324 519.149 801.288 498.128 775.574 498.128H770.015C743.281 498.128 721.407 476.271 721.407 449.559C721.407 422.847 743.281 400.99 770.015 400.99H787.075C797.479 400.99 805.995 392.482 805.995 382.086C805.995 371.69 797.479 363.182 787.075 363.182H774.539C767.349 363.182 761.484 357.306 761.484 350.137C761.484 342.954 767.364 337.094 774.539 337.094H858.853C870.141 337.094 879.372 327.87 879.372 316.591C879.372 305.313 870.141 296.089 858.853 296.089H833.643C826.453 296.089 820.588 290.213 820.588 283.045C820.588 275.861 826.468 270 833.643 270H1192.21C1201.58 270 1209.25 277.673 1209.25 287.033C1209.25 296.393 1201.58 304.065 1192.21 304.065H1166.36C1151.63 304.065 1139.58 316.104 1139.58 330.823C1139.58 345.541 1151.63 357.58 1166.36 357.58H1277.07C1286.44 357.58 1294.12 365.252 1294.12 374.612C1294.12 383.973 1286.45 391.644 1277.07 391.644H1260.71C1247.12 391.644 1236.02 402.755 1236.02 416.318C1236.02 429.894 1247.14 440.99 1260.71 440.99H1282.98C1317.87 440.99 1346.41 469.514 1346.41 504.369C1346.41 539.224 1317.87 567.748 1282.98 567.748H1275.72C1242.16 567.748 1214.71 595.175 1214.71 628.707C1214.71 662.238 1242.16 689.666 1275.72 689.666H1291.44C1325.27 689.666 1352.95 717.321 1352.95 751.127C1352.95 784.932 1325.27 812.588 1291.44 812.588C1116.4 812.527 950.616 812.527 775.574 812.527ZM1235.78 303.833C1245.12 303.833 1252.7 296.26 1252.7 286.917C1252.7 277.574 1245.12 270 1235.78 270C1226.44 270 1218.86 277.574 1218.86 286.917C1218.86 296.26 1226.44 303.833 1235.78 303.833ZM737.051 362.729C744.329 362.729 750.209 356.833 750.209 349.571C750.209 342.294 744.313 336.414 737.051 336.414C729.774 336.414 723.894 342.309 723.894 349.571C723.879 356.833 729.774 362.729 737.051 362.729Z" fill="white"/>
</g>
<path fill-rule="evenodd" clip-rule="evenodd" d="M664.056 445.967C666.178 474.901 802.914 560.086 803.712 562.476C804.244 564.07 761.151 663.213 761.151 663.213L773.104 667.852C773.104 667.852 839.201 562.852 835.806 551.664C830.945 535.646 729.714 446.275 729.714 446.275L664.056 445.967Z" fill="#B28B67"/>
<path fill-rule="evenodd" clip-rule="evenodd" d="M764.297 648.286L783.812 655.381C824.962 609.008 841.091 570.746 838.15 551.251C835.209 531.756 732.425 446.038 732.425 446.038L662.657 446.038C665.037 513.044 791.775 562.731 793.47 565.586C795.165 568.442 778.482 596.408 764.297 648.286Z" fill="#8464AC"/>
<path fill-rule="evenodd" clip-rule="evenodd" d="M759.992 660.541C759.152 659.727 757.794 659.74 757.037 660.633C755.421 662.543 752.919 665.688 752.201 667.661C751.112 670.649 750.021 676.745 750.021 676.745C753.492 678.008 812.409 699.436 812.409 699.436C812.409 699.436 817.766 692.29 812.76 689.744C807.754 687.198 804.476 685.422 804.476 685.422L780.05 661.837C779.645 661.446 778.997 661.466 778.617 661.882L774.985 665.854C774.985 665.854 769.311 666.351 766.279 665.248C764.327 664.538 761.651 662.152 759.992 660.541Z" fill="#E4E4E4"/>
<path fill-rule="evenodd" clip-rule="evenodd" d="M679.775 445.969L618.863 592.024L558.996 715.501H573.121L727.654 445.969H679.775Z" fill="#997659"/>
<path fill-rule="evenodd" clip-rule="evenodd" d="M564.404 689.85L595.789 695.729C620.056 660.095 721.614 513.986 732.749 445.969H662.878C625.694 495.138 587.536 653.627 564.404 689.85Z" fill="#6615BA"/>
<path fill-rule="evenodd" clip-rule="evenodd" d="M785.721 413.772L828.374 395.063C835.846 387.627 843.061 381.975 850.019 378.107C852.1 377.445 855.655 377.245 851.862 382.778C848.069 388.311 844.329 394.301 845.845 396.24C847.36 398.179 851.75 396.039 853.484 399.192C854.64 401.295 847.241 403.809 831.285 406.737L799.34 431.199L785.721 413.772Z" fill="#B28B67"/>
<path fill-rule="evenodd" clip-rule="evenodd" d="M613.278 418.926L637.4 423.706C613.141 468.86 600.132 492.791 598.372 495.5C594.411 501.596 598.106 512.768 599.471 518.651C590.908 520.642 594.285 507.768 583.448 510.456C573.557 512.91 565.17 519.206 555.946 510.714C554.812 509.67 553.982 506.407 557.848 504.734C567.481 500.564 581.712 492.756 584.019 489.725C587.166 485.591 596.919 461.992 613.278 418.926Z" fill="#B28B67"/>
<path fill-rule="evenodd" clip-rule="evenodd" d="M702.961 328.786L713.139 327.042C735.31 348.522 744.357 400.128 759.132 406.959C773.102 413.418 792.904 407.168 816.442 398.729L823.651 414.815C802.264 437.925 756.702 457.449 738.234 446.303C708.707 428.483 701.89 364.835 702.961 328.786Z" fill="#DFAC22"/>
<path fill-rule="evenodd" clip-rule="evenodd" d="M710.307 314.575C717.929 319.164 725.419 321.381 728.935 320.476C737.75 318.207 738.561 285.995 731.74 273.296C724.918 260.597 689.851 255.061 688.084 280.222C687.47 288.955 691.141 296.748 696.566 303.107L686.84 348.383H715.091L710.307 314.575Z" fill="#B28B67"/>
<path fill-rule="evenodd" clip-rule="evenodd" d="M715.636 258.659C711.913 258.049 701.887 257.63 700.038 257.63C698.857 257.63 697.576 257.899 696.877 256.816C696.304 255.929 696.514 254.428 696.343 253.398C696.144 252.202 695.862 251.021 695.577 249.843C694.765 246.492 693.537 243.304 691.819 240.31C688.596 234.694 683.874 230.295 677.912 227.735C671.329 224.908 663.88 224.261 656.799 224.834C649.221 225.448 642.362 227.946 635.207 230.297C628.389 232.538 621.248 233.42 614.117 232.326C606.933 231.223 601.504 227.334 595.444 223.643C589.241 219.864 582.151 217.392 574.817 217.96C567.971 218.491 561.661 221.314 556 225.085C550.704 228.614 546.334 232.86 543.866 238.835C541.212 245.262 541.214 252.318 545.579 257.998C551.906 266.232 563.651 268.361 573.423 268.149C579.075 268.027 584.626 266.997 589.962 265.122C597.078 262.622 603.228 258.385 609.886 254.947C613.01 253.333 616.24 252.008 619.625 251.054C622.91 250.127 626.145 249.702 629.12 251.684C632.266 253.781 635.085 255.841 638.685 257.153C642.138 258.413 645.795 259.117 649.474 259.089C656.632 259.033 663.688 256.806 670.64 255.314C676.309 254.097 682.374 252.885 688.154 254.054C690.566 254.542 694.088 255.55 694.959 258.053C680.299 260.707 674.541 278.816 678.674 292.11C680.905 299.285 694.313 307.673 699.527 303.901C702.83 301.511 700.825 298.374 699.527 296.303C697.042 292.337 696.192 287.242 700.79 284.481C704.757 282.099 708.927 287.755 709.006 287.748C710.096 287.663 719.517 282.341 726.007 274.577C732.41 274.956 733.381 270.739 731.852 267.29C730.324 263.842 720.781 259.502 715.636 258.659Z" fill="#191847"/>
<path fill-rule="evenodd" clip-rule="evenodd" d="M658.588 456.549C658.588 456.549 719.808 456.549 748.652 456.549C752.768 456.549 751.992 450.613 751.398 447.618C744.531 413.052 717.729 375.791 717.729 326.586L691.75 322.518C670.262 357.035 662.831 399.532 658.588 456.549Z" fill="#DDE3E9"/>
<path fill-rule="evenodd" clip-rule="evenodd" d="M638.578 481.239H719.65C735.345 441.624 700.362 322.518 700.362 322.518H690.372C670.949 357.136 642.374 424.055 638.578 481.239Z" fill="#FFC836"/>
<path fill-rule="evenodd" clip-rule="evenodd" d="M690.076 322.518L694.765 322.518L696.258 330.666C656.249 413.336 625.266 467.446 603.308 492.996L584.43 489.303C596.59 413.977 631.806 358.382 690.076 322.518Z" fill="#FFC836"/>
<path fill-rule="evenodd" clip-rule="evenodd" d="M561.062 708.327C559.994 707.848 558.722 708.325 558.317 709.423C557.452 711.77 556.178 715.58 556.178 717.68C556.178 720.86 557.239 726.961 557.239 726.961C560.932 726.961 623.631 726.961 623.631 726.961C623.631 726.961 626.219 718.416 620.644 717.735C615.068 717.053 611.38 716.504 611.38 716.504L580.354 702.69C579.84 702.461 579.238 702.701 579.023 703.222L576.97 708.196C576.97 708.196 571.808 710.601 568.581 710.601C566.504 710.601 563.172 709.273 561.062 708.327Z" fill="#E4E4E4"/>
<path opacity="0.3" fill-rule="evenodd" clip-rule="evenodd" d="M1283.88 369C1263.38 369 1246.76 352.407 1246.76 331.939C1246.76 311.47 1263.38 294.877 1283.88 294.877C1304.38 294.877 1321 311.47 1321 331.939C1321 352.407 1304.38 369 1283.88 369Z" fill="#8464AC"/>
<path opacity="0.3" fill-rule="evenodd" clip-rule="evenodd" d="M1067.33 365.425C1028.49 365.425 996.999 333.985 996.999 295.203C996.999 256.42 1028.49 224.98 1067.33 224.98C1106.18 224.98 1137.67 256.42 1137.67 295.203C1137.67 333.985 1106.18 365.425 1067.33 365.425Z" fill="#8464AC"/>
<path fill-rule="evenodd" clip-rule="evenodd" d="M1086.88 188.361L1069.53 228.018L1283.88 228.005L1266.52 188.361H1086.88Z" fill="#FFC836"/>
<rect x="1087.34" y="253.062" width="179.423" height="112.132" fill="white"/>
<path d="M1281.74 227.996H1241.08H1232.52V252.694C1232.52 257.551 1234.1 262.075 1236.8 265.851C1241.4 272.282 1249.26 276.541 1258.2 276.541C1261.2 276.541 1264.08 276.036 1266.76 275.15C1276.71 271.87 1283.88 263.069 1283.88 252.694V227.996H1281.74Z" fill="#4C0788"/>
<path fill-rule="evenodd" clip-rule="evenodd" d="M1246.81 227.996H1206.15H1197.59V252.694C1197.59 257.551 1199.17 262.075 1201.87 265.851C1206.47 272.282 1214.33 276.541 1223.27 276.541C1226.28 276.541 1229.15 276.036 1231.83 275.15C1241.79 271.87 1248.95 263.069 1248.95 252.694V227.996H1246.81Z" fill="#FFC836"/>
<path d="M1204.35 227.996H1163.69H1155.13V252.694C1155.13 257.551 1156.71 262.075 1159.41 265.851C1164.01 272.282 1171.88 276.541 1180.81 276.541C1183.82 276.541 1186.69 276.036 1189.37 275.15C1199.33 271.87 1206.49 263.069 1206.49 252.694V227.996H1204.35Z" fill="#4C0788"/>
<path fill-rule="evenodd" clip-rule="evenodd" d="M1161.21 227.996H1120.55H1111.99V252.694C1111.99 257.551 1113.57 262.075 1116.27 265.851C1120.87 272.282 1128.73 276.541 1137.67 276.541C1140.67 276.541 1143.55 276.036 1146.23 275.15C1156.18 271.87 1163.35 263.069 1163.35 252.694V227.996H1161.21Z" fill="#FFC836"/>
<path d="M1118.75 227.996H1078.09H1069.53V252.694C1069.53 257.551 1071.11 262.075 1073.81 265.851C1078.41 272.282 1086.27 276.541 1095.21 276.541C1098.22 276.541 1101.09 276.036 1103.77 275.15C1113.72 271.87 1120.89 263.069 1120.89 252.694V227.996H1118.75Z" fill="#4C0788"/>
<rect x="1132.53" y="295.75" width="43.8286" height="69.7404" fill="#9C82BC"/>
<rect x="1179.1" y="295.75" width="43.8286" height="69.7404" fill="#9C82BC"/>
<path d="M1277.55 365.193L1279.77 344.681L1252.38 344.688L1254.59 365.193H1277.55Z" fill="#FFC836"/>
<path d="M1266.76 343.999C1270.92 343.999 1274.29 340.632 1274.29 336.478C1274.29 332.324 1270.92 328.957 1266.76 328.957C1262.6 328.957 1259.22 332.324 1259.22 336.478C1259.22 340.632 1262.6 343.999 1266.76 343.999Z" fill="#4C0788"/>
<path d="M1261.28 343.998C1263.93 343.998 1266.07 341.855 1266.07 339.212C1266.07 336.569 1263.93 334.426 1261.28 334.426C1258.63 334.426 1256.49 336.569 1256.49 339.212C1256.49 341.855 1258.63 343.998 1261.28 343.998Z" fill="#4C0788"/>
<path d="M1274.29 345.366C1275.05 345.366 1275.66 344.754 1275.66 343.998C1275.66 343.243 1275.05 342.631 1274.29 342.631C1273.54 342.631 1272.92 343.243 1272.92 343.998C1272.92 344.754 1273.54 345.366 1274.29 345.366Z" fill="#FFC836"/>
<path d="M1273.61 334.424C1274.36 334.424 1274.98 333.812 1274.98 333.057C1274.98 332.302 1274.36 331.689 1273.61 331.689C1272.85 331.689 1272.24 332.302 1272.24 333.057C1272.24 333.812 1272.85 334.424 1273.61 334.424Z" fill="#4C0788"/>
<defs>
<linearGradient id="paint0_linear" x1="1268.5" y1="629.881" x2="1268.5" y2="-60.5707" gradientUnits="userSpaceOnUse">
<stop stop-color="#FAD144"/>
<stop offset="1" stop-color="#FAD144" stop-opacity="0"/>
</linearGradient>
<linearGradient id="paint1_linear" x1="-83.027" y1="759.588" x2="-83.027" y2="173.142" gradientUnits="userSpaceOnUse">
<stop stop-color="#8464AC"/>
<stop offset="1" stop-color="#8464AC" stop-opacity="0"/>
</linearGradient>
<clipPath id="clip0">
<path d="M0 0H1440V759H0V0Z" fill="white"/>
</clipPath>
</defs>
</svg>
