<svg width="376" height="812" viewBox="0 0 376 812" fill="none" xmlns="http://www.w3.org/2000/svg">
<mask id="mask0" mask-type="alpha" maskUnits="userSpaceOnUse" x="0" y="0" width="376" height="812">
<rect width="376" height="812" fill="white"/>
</mask>
<g mask="url(#mask0)">
<rect width="375" height="812" fill="white"/>
<path fill-rule="evenodd" clip-rule="evenodd" d="M-333.92 488.956C-377.409 488.956 -413 453.398 -413 409.948C-413 366.488 -377.409 330.939 -333.92 330.939C-315.53 330.939 -300.486 315.909 -300.486 297.536C-300.486 279.164 -315.53 264.133 -333.92 264.133H-337.896C-357.015 264.133 -372.659 248.503 -372.659 229.401C-372.659 210.299 -357.015 194.67 -337.896 194.67H-325.695C-318.254 194.67 -312.164 188.585 -312.164 181.152C-312.164 173.718 -318.254 167.633 -325.695 167.633H-334.661C-339.803 167.633 -343.997 163.432 -343.997 158.305C-343.997 153.169 -339.792 148.978 -334.661 148.978H-274.362C-266.289 148.978 -259.687 142.382 -259.687 134.316C-259.687 126.252 -266.289 119.656 -274.362 119.656H-292.391C-297.533 119.656 -301.728 115.454 -301.728 110.329C-301.728 105.191 -297.523 101 -292.391 101H-35.9547C-29.2552 101 -23.7649 106.487 -23.7649 113.18C-23.7649 119.873 -29.2552 125.36 -35.9547 125.36H-54.4425C-64.9769 125.36 -73.5941 133.968 -73.5941 144.494C-73.5941 155.019 -64.9769 163.628 -54.4425 163.628H24.7362C31.4364 163.628 36.9273 169.114 36.9273 175.807C36.9273 182.501 31.4472 187.986 24.7362 187.986H13.0362C3.31784 187.986 -4.62354 195.932 -4.62354 205.63C-4.62354 215.339 3.32932 223.273 13.0362 223.273H28.9624C53.9111 223.273 74.3269 243.671 74.3269 268.595C74.3269 293.52 53.9111 313.917 28.9624 313.917H23.7668C-0.233673 313.917 -19.8648 333.53 -19.8648 357.508C-19.8648 381.486 -0.233673 401.1 23.7668 401.1H35.0096C59.2052 401.1 79 420.876 79 445.049C79 469.223 59.2052 489 35.0096 489C-90.1744 488.956 -208.736 488.956 -333.92 488.956ZM-3.99942 125C2.62814 125 8 119.627 8 113C8 106.373 2.62814 101 -3.99942 101C-10.627 101 -16 106.373 -16 113C-16 119.627 -10.627 125 -3.99942 125ZM-361.5 167C-356.245 167 -352 162.743 -352 157.5C-352 152.246 -356.257 148 -361.5 148C-366.754 148 -371 152.256 -371 157.5C-371.01 162.743 -366.754 167 -361.5 167Z" fill="url(#paint0_linear)"/>
<path fill-rule="evenodd" clip-rule="evenodd" d="M150.241 738.951C101.715 738.951 62 699.268 62 650.78C62 602.279 101.715 562.608 150.241 562.608C170.762 562.608 187.549 545.834 187.549 525.33C187.549 504.828 170.762 488.053 150.241 488.053H145.805C124.471 488.053 107.015 470.61 107.015 449.293C107.015 427.976 124.471 410.534 145.805 410.534H159.42C167.722 410.534 174.518 403.744 174.518 395.448C174.518 387.151 167.722 380.361 159.42 380.361H149.415C143.678 380.361 138.997 375.672 138.997 369.952C138.997 364.219 143.69 359.542 149.415 359.542H216.7C225.708 359.542 233.075 352.182 233.075 343.18C233.075 334.18 225.708 326.82 216.7 326.82H196.582C190.844 326.82 186.163 322.131 186.163 316.41C186.163 310.677 190.856 306 196.582 306H482.727C490.203 306 496.329 312.123 496.329 319.592C496.329 327.062 490.203 333.185 482.727 333.185H462.098C450.343 333.185 440.727 342.792 440.727 354.538C440.727 366.284 450.343 375.891 462.098 375.891H550.45C557.926 375.891 564.053 382.013 564.053 389.483C564.053 396.953 557.938 403.075 550.45 403.075H537.394C526.55 403.075 517.688 411.942 517.688 422.765C517.688 433.6 526.563 442.454 537.394 442.454H555.165C583.005 442.454 605.785 465.217 605.785 493.033C605.785 520.848 583.005 543.611 555.165 543.611H549.368C522.587 543.611 500.681 565.499 500.681 592.258C500.681 619.016 522.587 640.905 549.368 640.905H561.913C588.912 640.905 611 662.975 611 689.952C611 716.93 588.912 739 561.913 739C422.226 738.951 289.929 738.951 150.241 738.951ZM517.501 333C524.957 333 531 326.956 531 319.5C531 312.044 524.957 306 517.501 306C510.045 306 504 312.044 504 319.5C504 326.956 510.045 333 517.501 333ZM119.5 380C125.308 380 130 375.295 130 369.5C130 363.693 125.295 359 119.5 359C113.692 359 109 363.704 109 369.5C108.988 375.295 113.692 380 119.5 380Z" fill="url(#paint1_linear)"/>
<path fill-rule="evenodd" clip-rule="evenodd" d="M43.5 756C67.5244 756 87 736.524 87 712.5C87 688.476 67.5244 669 43.5 669C19.4756 669 0 688.476 0 712.5C0 736.524 19.4756 756 43.5 756Z" fill="#8464AC"/>
<path fill-rule="evenodd" clip-rule="evenodd" d="M318.5 777C364.063 777 401 740.063 401 694.5C401 648.937 364.063 612 318.5 612C272.937 612 236 648.937 236 694.5C236 740.063 272.937 777 318.5 777Z" fill="#8464AC"/>
<path fill-rule="evenodd" clip-rule="evenodd" d="M88.0832 473.78L67.7139 520.397L319.285 520.382L298.915 473.78H88.0832Z" fill="#612DA4"/>
<rect x="88.6123" y="549.837" width="210.58" height="131.813" fill="white"/>
<path d="M316.774 520.372H269.052H259.005V549.405C259.005 555.115 260.859 560.432 264.031 564.872C269.429 572.431 278.657 577.437 289.145 577.437C292.672 577.437 296.042 576.843 299.192 575.802C310.875 571.947 319.285 561.601 319.285 549.405V520.372H316.774Z" fill="#FFC836"/>
<path fill-rule="evenodd" clip-rule="evenodd" d="M275.783 520.372H228.061H218.015V549.405C218.015 555.115 219.869 560.432 223.041 564.872C228.439 572.431 237.667 577.437 248.155 577.437C251.682 577.437 255.052 576.843 258.202 575.802C269.885 571.947 278.295 561.601 278.295 549.405V520.372H275.783Z" fill="#451583"/>
<path d="M225.951 520.372H178.229H168.183V549.405C168.183 555.115 170.037 560.432 173.209 564.872C178.607 572.431 187.835 577.437 198.323 577.437C201.85 577.437 205.22 576.843 208.37 575.802C220.052 571.947 228.463 561.601 228.463 549.405V520.372H225.951Z" fill="#FFC836"/>
<path fill-rule="evenodd" clip-rule="evenodd" d="M175.315 520.372H127.593H117.546V549.405C117.546 555.115 119.4 560.432 122.572 564.872C127.97 572.431 137.198 577.437 147.686 577.437C151.213 577.437 154.583 576.843 157.733 575.802C169.416 571.947 177.826 561.601 177.826 549.405V520.372H175.315Z" fill="#451583"/>
<path d="M125.483 520.372H77.7606H67.7139V549.405C67.7139 555.115 69.568 560.432 72.7398 564.872C78.1384 572.431 87.3658 577.437 97.8541 577.437C101.381 577.437 104.751 576.843 107.901 575.802C119.584 571.947 127.994 561.601 127.994 549.405V520.372H125.483Z" fill="#FFC836"/>
<path d="M193.031 488.694C195.657 488.694 197.787 486.565 197.787 483.938V450.717V438.058H188.275V450.717V483.938C188.275 486.565 190.405 488.694 193.031 488.694Z" fill="#802ADA"/>
<rect x="141.658" y="600.019" width="51.4394" height="81.9815" fill="url(#paint2_linear)"/>
<rect x="196.313" y="600.019" width="51.4394" height="81.9815" fill="url(#paint3_linear)"/>
<rect x="96.6494" y="389.893" width="193.701" height="54.6543" rx="4" fill="#FFC836"/>
<path d="M117.293 424.892H124.241V427.556H114.065V410.204H117.293V424.892ZM131.106 415.052C132.026 415.052 132.858 415.2 133.602 415.496C134.354 415.792 134.994 416.212 135.522 416.756C136.05 417.3 136.458 417.964 136.746 418.748C137.034 419.532 137.178 420.408 137.178 421.376C137.178 422.352 137.034 423.232 136.746 424.016C136.458 424.8 136.05 425.468 135.522 426.02C134.994 426.572 134.354 426.996 133.602 427.292C132.858 427.588 132.026 427.736 131.106 427.736C130.186 427.736 129.35 427.588 128.598 427.292C127.846 426.996 127.202 426.572 126.666 426.02C126.138 425.468 125.726 424.8 125.43 424.016C125.142 423.232 124.998 422.352 124.998 421.376C124.998 420.408 125.142 419.532 125.43 418.748C125.726 417.964 126.138 417.3 126.666 416.756C127.202 416.212 127.846 415.792 128.598 415.496C129.35 415.2 130.186 415.052 131.106 415.052ZM131.106 425.456C132.13 425.456 132.886 425.112 133.374 424.424C133.87 423.736 134.118 422.728 134.118 421.4C134.118 420.072 133.87 419.06 133.374 418.364C132.886 417.668 132.13 417.32 131.106 417.32C130.066 417.32 129.298 417.672 128.802 418.376C128.306 419.072 128.058 420.08 128.058 421.4C128.058 422.72 128.306 423.728 128.802 424.424C129.298 425.112 130.066 425.456 131.106 425.456ZM142.646 415.244V427.976C142.646 428.512 142.574 429.016 142.43 429.488C142.294 429.96 142.07 430.372 141.758 430.724C141.454 431.084 141.05 431.364 140.546 431.564C140.05 431.772 139.442 431.876 138.722 431.876C138.442 431.876 138.182 431.856 137.942 431.816C137.702 431.784 137.458 431.728 137.21 431.648L137.306 430.052C137.33 429.892 137.394 429.788 137.498 429.74C137.602 429.7 137.802 429.68 138.098 429.68C138.394 429.68 138.642 429.648 138.842 429.584C139.05 429.528 139.214 429.432 139.334 429.296C139.462 429.168 139.55 428.996 139.598 428.78C139.654 428.564 139.682 428.296 139.682 427.976V415.244H142.646ZM143.09 411.656C143.09 411.912 143.038 412.152 142.934 412.376C142.83 412.6 142.69 412.796 142.514 412.964C142.346 413.132 142.146 413.268 141.914 413.372C141.682 413.468 141.434 413.516 141.17 413.516C140.914 413.516 140.67 413.468 140.438 413.372C140.214 413.268 140.018 413.132 139.85 412.964C139.682 412.796 139.546 412.6 139.442 412.376C139.346 412.152 139.298 411.912 139.298 411.656C139.298 411.392 139.346 411.144 139.442 410.912C139.546 410.68 139.682 410.48 139.85 410.312C140.018 410.144 140.214 410.012 140.438 409.916C140.67 409.812 140.914 409.76 141.17 409.76C141.434 409.76 141.682 409.812 141.914 409.916C142.146 410.012 142.346 410.144 142.514 410.312C142.69 410.48 142.83 410.68 142.934 410.912C143.038 411.144 143.09 411.392 143.09 411.656ZM155.584 427.556H154.252C153.972 427.556 153.752 427.516 153.592 427.436C153.432 427.348 153.312 427.176 153.232 426.92L152.968 426.044C152.656 426.324 152.348 426.572 152.044 426.788C151.748 426.996 151.44 427.172 151.12 427.316C150.8 427.46 150.46 427.568 150.1 427.64C149.74 427.712 149.34 427.748 148.9 427.748C148.38 427.748 147.9 427.68 147.46 427.544C147.02 427.4 146.64 427.188 146.32 426.908C146.008 426.628 145.764 426.28 145.588 425.864C145.412 425.448 145.324 424.964 145.324 424.412C145.324 423.948 145.444 423.492 145.684 423.044C145.932 422.588 146.34 422.18 146.908 421.82C147.476 421.452 148.232 421.148 149.176 420.908C150.12 420.668 151.292 420.532 152.692 420.5V419.78C152.692 418.956 152.516 418.348 152.164 417.956C151.82 417.556 151.316 417.356 150.652 417.356C150.172 417.356 149.772 417.412 149.452 417.524C149.132 417.636 148.852 417.764 148.612 417.908C148.38 418.044 148.164 418.168 147.964 418.28C147.764 418.392 147.544 418.448 147.304 418.448C147.104 418.448 146.932 418.396 146.788 418.292C146.644 418.188 146.528 418.06 146.44 417.908L145.9 416.96C147.316 415.664 149.024 415.016 151.024 415.016C151.744 415.016 152.384 415.136 152.944 415.376C153.512 415.608 153.992 415.936 154.384 416.36C154.776 416.776 155.072 417.276 155.272 417.86C155.48 418.444 155.584 419.084 155.584 419.78V427.556ZM149.824 425.708C150.128 425.708 150.408 425.68 150.664 425.624C150.92 425.568 151.16 425.484 151.384 425.372C151.616 425.26 151.836 425.124 152.044 424.964C152.26 424.796 152.476 424.6 152.692 424.376V422.3C151.828 422.34 151.104 422.416 150.52 422.528C149.944 422.632 149.48 422.768 149.128 422.936C148.776 423.104 148.524 423.3 148.372 423.524C148.228 423.748 148.156 423.992 148.156 424.256C148.156 424.776 148.308 425.148 148.612 425.372C148.924 425.596 149.328 425.708 149.824 425.708ZM170.594 423.464C170.77 423.464 170.922 423.532 171.05 423.668L172.322 425.048C171.618 425.92 170.75 426.588 169.718 427.052C168.694 427.516 167.462 427.748 166.022 427.748C164.734 427.748 163.574 427.528 162.542 427.088C161.518 426.648 160.642 426.036 159.914 425.252C159.186 424.468 158.626 423.532 158.234 422.444C157.85 421.356 157.658 420.168 157.658 418.88C157.658 417.576 157.874 416.384 158.306 415.304C158.738 414.216 159.346 413.28 160.13 412.496C160.914 411.712 161.85 411.104 162.938 410.672C164.034 410.232 165.242 410.012 166.562 410.012C167.85 410.012 168.974 410.22 169.934 410.636C170.902 411.044 171.73 411.588 172.418 412.268L171.338 413.768C171.274 413.864 171.19 413.948 171.086 414.02C170.99 414.092 170.854 414.128 170.678 414.128C170.494 414.128 170.306 414.056 170.114 413.912C169.922 413.768 169.678 413.612 169.382 413.444C169.086 413.276 168.71 413.12 168.254 412.976C167.806 412.832 167.234 412.76 166.538 412.76C165.722 412.76 164.97 412.904 164.282 413.192C163.602 413.472 163.014 413.876 162.518 414.404C162.03 414.932 161.646 415.576 161.366 416.336C161.094 417.088 160.958 417.936 160.958 418.88C160.958 419.856 161.094 420.724 161.366 421.484C161.646 422.244 162.022 422.884 162.494 423.404C162.966 423.924 163.522 424.324 164.162 424.604C164.802 424.876 165.49 425.012 166.226 425.012C166.666 425.012 167.062 424.988 167.414 424.94C167.774 424.892 168.102 424.816 168.398 424.712C168.702 424.608 168.986 424.476 169.25 424.316C169.522 424.148 169.79 423.944 170.054 423.704C170.134 423.632 170.218 423.576 170.306 423.536C170.394 423.488 170.49 423.464 170.594 423.464ZM179.856 415.052C180.776 415.052 181.608 415.2 182.352 415.496C183.104 415.792 183.744 416.212 184.272 416.756C184.8 417.3 185.208 417.964 185.496 418.748C185.784 419.532 185.928 420.408 185.928 421.376C185.928 422.352 185.784 423.232 185.496 424.016C185.208 424.8 184.8 425.468 184.272 426.02C183.744 426.572 183.104 426.996 182.352 427.292C181.608 427.588 180.776 427.736 179.856 427.736C178.936 427.736 178.1 427.588 177.348 427.292C176.596 426.996 175.952 426.572 175.416 426.02C174.888 425.468 174.476 424.8 174.18 424.016C173.892 423.232 173.748 422.352 173.748 421.376C173.748 420.408 173.892 419.532 174.18 418.748C174.476 417.964 174.888 417.3 175.416 416.756C175.952 416.212 176.596 415.792 177.348 415.496C178.1 415.2 178.936 415.052 179.856 415.052ZM179.856 425.456C180.88 425.456 181.636 425.112 182.124 424.424C182.62 423.736 182.868 422.728 182.868 421.4C182.868 420.072 182.62 419.06 182.124 418.364C181.636 417.668 180.88 417.32 179.856 417.32C178.816 417.32 178.048 417.672 177.552 418.376C177.056 419.072 176.808 420.08 176.808 421.4C176.808 422.72 177.056 423.728 177.552 424.424C178.048 425.112 178.816 425.456 179.856 425.456ZM196.904 427.556C196.52 427.556 196.268 427.376 196.148 427.016L195.908 425.828C195.652 426.116 195.384 426.376 195.104 426.608C194.824 426.84 194.52 427.04 194.192 427.208C193.872 427.376 193.524 427.504 193.148 427.592C192.78 427.688 192.38 427.736 191.948 427.736C191.276 427.736 190.66 427.596 190.1 427.316C189.54 427.036 189.056 426.632 188.648 426.104C188.248 425.568 187.936 424.908 187.712 424.124C187.496 423.34 187.388 422.444 187.388 421.436C187.388 420.524 187.512 419.676 187.76 418.892C188.008 418.108 188.364 417.428 188.828 416.852C189.292 416.276 189.848 415.828 190.496 415.508C191.144 415.18 191.872 415.016 192.68 415.016C193.368 415.016 193.956 415.128 194.444 415.352C194.932 415.568 195.368 415.86 195.752 416.228V409.724H198.716V427.556H196.904ZM192.956 425.384C193.572 425.384 194.096 425.256 194.528 425C194.96 424.744 195.368 424.38 195.752 423.908V418.388C195.416 417.98 195.048 417.692 194.648 417.524C194.256 417.356 193.832 417.272 193.376 417.272C192.928 417.272 192.52 417.356 192.152 417.524C191.792 417.692 191.484 417.948 191.228 418.292C190.98 418.628 190.788 419.06 190.652 419.588C190.516 420.108 190.448 420.724 190.448 421.436C190.448 422.156 190.504 422.768 190.616 423.272C190.736 423.768 190.904 424.176 191.12 424.496C191.336 424.808 191.6 425.036 191.912 425.18C192.224 425.316 192.572 425.384 192.956 425.384ZM205.084 415.244V427.556H202.12V415.244H205.084ZM205.528 411.656C205.528 411.912 205.476 412.152 205.372 412.376C205.268 412.6 205.128 412.796 204.952 412.964C204.784 413.132 204.584 413.268 204.352 413.372C204.12 413.468 203.872 413.516 203.608 413.516C203.352 413.516 203.108 413.468 202.876 413.372C202.652 413.268 202.456 413.132 202.288 412.964C202.12 412.796 201.984 412.6 201.88 412.376C201.784 412.152 201.736 411.912 201.736 411.656C201.736 411.392 201.784 411.144 201.88 410.912C201.984 410.68 202.12 410.48 202.288 410.312C202.456 410.144 202.652 410.012 202.876 409.916C203.108 409.812 203.352 409.76 203.608 409.76C203.872 409.76 204.12 409.812 204.352 409.916C204.584 410.012 204.784 410.144 204.952 410.312C205.128 410.48 205.268 410.68 205.372 410.912C205.476 411.144 205.528 411.392 205.528 411.656ZM212.703 415.028C213.231 415.028 213.727 415.084 214.191 415.196C214.655 415.3 215.079 415.456 215.463 415.664H219.003V416.768C219.003 416.952 218.955 417.096 218.859 417.2C218.763 417.304 218.599 417.376 218.367 417.416L217.263 417.62C217.343 417.828 217.403 418.048 217.443 418.28C217.491 418.512 217.515 418.756 217.515 419.012C217.515 419.62 217.391 420.172 217.143 420.668C216.903 421.156 216.567 421.572 216.135 421.916C215.711 422.26 215.203 422.528 214.611 422.72C214.027 422.904 213.391 422.996 212.703 422.996C212.239 422.996 211.787 422.952 211.347 422.864C210.963 423.096 210.771 423.356 210.771 423.644C210.771 423.892 210.883 424.076 211.107 424.196C211.339 424.308 211.639 424.388 212.007 424.436C212.383 424.484 212.807 424.516 213.279 424.532C213.751 424.54 214.235 424.564 214.731 424.604C215.227 424.644 215.711 424.716 216.183 424.82C216.655 424.916 217.075 425.072 217.443 425.288C217.819 425.504 218.119 425.8 218.343 426.176C218.575 426.544 218.691 427.02 218.691 427.604C218.691 428.148 218.555 428.676 218.283 429.188C218.019 429.7 217.631 430.156 217.119 430.556C216.615 430.956 215.995 431.276 215.259 431.516C214.523 431.764 213.683 431.888 212.739 431.888C211.803 431.888 210.991 431.796 210.303 431.612C209.615 431.436 209.043 431.196 208.587 430.892C208.139 430.596 207.803 430.252 207.579 429.86C207.355 429.468 207.243 429.06 207.243 428.636C207.243 428.06 207.419 427.576 207.771 427.184C208.123 426.792 208.611 426.48 209.235 426.248C208.931 426.08 208.687 425.856 208.503 425.576C208.319 425.296 208.227 424.932 208.227 424.484C208.227 424.3 208.259 424.112 208.323 423.92C208.387 423.72 208.483 423.524 208.611 423.332C208.747 423.14 208.915 422.96 209.115 422.792C209.315 422.616 209.551 422.46 209.823 422.324C209.199 421.988 208.707 421.54 208.347 420.98C207.995 420.42 207.819 419.764 207.819 419.012C207.819 418.404 207.939 417.856 208.179 417.368C208.427 416.872 208.767 416.452 209.199 416.108C209.639 415.756 210.155 415.488 210.747 415.304C211.347 415.12 211.999 415.028 212.703 415.028ZM215.955 428.108C215.955 427.868 215.883 427.672 215.739 427.52C215.595 427.368 215.399 427.252 215.151 427.172C214.903 427.084 214.611 427.02 214.275 426.98C213.947 426.94 213.595 426.912 213.219 426.896C212.851 426.872 212.467 426.852 212.067 426.836C211.675 426.812 211.295 426.776 210.927 426.728C210.591 426.912 210.319 427.132 210.111 427.388C209.911 427.636 209.811 427.924 209.811 428.252C209.811 428.468 209.863 428.668 209.967 428.852C210.079 429.044 210.251 429.208 210.483 429.344C210.723 429.48 211.031 429.584 211.407 429.656C211.783 429.736 212.243 429.776 212.787 429.776C213.339 429.776 213.815 429.732 214.215 429.644C214.615 429.564 214.943 429.448 215.199 429.296C215.463 429.152 215.655 428.976 215.775 428.768C215.895 428.568 215.955 428.348 215.955 428.108ZM212.703 421.1C213.071 421.1 213.391 421.052 213.663 420.956C213.935 420.852 214.159 420.712 214.335 420.536C214.519 420.36 214.655 420.148 214.743 419.9C214.839 419.652 214.887 419.38 214.887 419.084C214.887 418.476 214.703 417.996 214.335 417.644C213.975 417.284 213.431 417.104 212.703 417.104C211.975 417.104 211.427 417.284 211.059 417.644C210.699 417.996 210.519 418.476 210.519 419.084C210.519 419.372 210.563 419.64 210.651 419.888C210.747 420.136 210.883 420.352 211.059 420.536C211.243 420.712 211.471 420.852 211.743 420.956C212.023 421.052 212.343 421.1 212.703 421.1ZM226.121 415.052C227.041 415.052 227.873 415.2 228.617 415.496C229.369 415.792 230.009 416.212 230.537 416.756C231.065 417.3 231.473 417.964 231.761 418.748C232.049 419.532 232.193 420.408 232.193 421.376C232.193 422.352 232.049 423.232 231.761 424.016C231.473 424.8 231.065 425.468 230.537 426.02C230.009 426.572 229.369 426.996 228.617 427.292C227.873 427.588 227.041 427.736 226.121 427.736C225.201 427.736 224.365 427.588 223.613 427.292C222.861 426.996 222.217 426.572 221.681 426.02C221.153 425.468 220.741 424.8 220.445 424.016C220.157 423.232 220.013 422.352 220.013 421.376C220.013 420.408 220.157 419.532 220.445 418.748C220.741 417.964 221.153 417.3 221.681 416.756C222.217 416.212 222.861 415.792 223.613 415.496C224.365 415.2 225.201 415.052 226.121 415.052ZM226.121 425.456C227.145 425.456 227.901 425.112 228.389 424.424C228.885 423.736 229.133 422.728 229.133 421.4C229.133 420.072 228.885 419.06 228.389 418.364C227.901 417.668 227.145 417.32 226.121 417.32C225.081 417.32 224.313 417.672 223.817 418.376C223.321 419.072 223.073 420.08 223.073 421.4C223.073 422.72 223.321 423.728 223.817 424.424C224.313 425.112 225.081 425.456 226.121 425.456ZM236.15 425.336H239.666V415.22C239.666 414.828 239.678 414.416 239.702 413.984L237.206 416.072C237.102 416.16 236.994 416.22 236.882 416.252C236.778 416.284 236.674 416.3 236.57 416.3C236.41 416.3 236.262 416.268 236.126 416.204C235.998 416.132 235.902 416.052 235.838 415.964L234.902 414.68L240.194 410.18H242.63V425.336H245.75V427.556H236.15V425.336ZM254.068 410.012C254.868 410.012 255.6 410.132 256.264 410.372C256.928 410.604 257.496 410.936 257.968 411.368C258.44 411.8 258.808 412.32 259.072 412.928C259.336 413.536 259.468 414.212 259.468 414.956C259.468 415.596 259.372 416.188 259.18 416.732C258.996 417.276 258.744 417.796 258.424 418.292C258.112 418.788 257.744 419.268 257.32 419.732C256.896 420.196 256.452 420.668 255.988 421.148L252.076 425.144C252.46 425.032 252.836 424.948 253.204 424.892C253.572 424.828 253.924 424.796 254.26 424.796H258.712C259.032 424.796 259.284 424.888 259.468 425.072C259.66 425.248 259.756 425.484 259.756 425.78V427.556H247.852V426.572C247.852 426.372 247.892 426.164 247.972 425.948C248.06 425.732 248.196 425.532 248.38 425.348L253.648 420.068C254.088 419.62 254.48 419.192 254.824 418.784C255.176 418.376 255.468 417.972 255.7 417.572C255.94 417.172 256.12 416.768 256.24 416.36C256.368 415.944 256.432 415.508 256.432 415.052C256.432 414.636 256.372 414.272 256.252 413.96C256.132 413.64 255.96 413.372 255.736 413.156C255.512 412.94 255.244 412.78 254.932 412.676C254.628 412.564 254.284 412.508 253.9 412.508C253.188 412.508 252.6 412.688 252.136 413.048C251.68 413.408 251.36 413.892 251.176 414.5C251.088 414.804 250.956 415.024 250.78 415.16C250.604 415.288 250.38 415.352 250.108 415.352C249.988 415.352 249.856 415.34 249.712 415.316L248.152 415.04C248.272 414.208 248.504 413.48 248.848 412.856C249.192 412.224 249.62 411.7 250.132 411.284C250.652 410.86 251.244 410.544 251.908 410.336C252.58 410.12 253.3 410.012 254.068 410.012ZM268.266 410.012C269.066 410.012 269.786 410.128 270.426 410.36C271.074 410.584 271.626 410.9 272.082 411.308C272.538 411.708 272.886 412.18 273.126 412.724C273.374 413.268 273.498 413.856 273.498 414.488C273.498 415.04 273.434 415.528 273.306 415.952C273.186 416.368 273.006 416.732 272.766 417.044C272.534 417.356 272.246 417.62 271.902 417.836C271.566 418.052 271.182 418.232 270.75 418.376C271.79 418.704 272.566 419.204 273.078 419.876C273.59 420.548 273.846 421.392 273.846 422.408C273.846 423.272 273.686 424.036 273.366 424.7C273.046 425.364 272.614 425.924 272.07 426.38C271.526 426.828 270.894 427.168 270.174 427.4C269.462 427.632 268.706 427.748 267.906 427.748C267.034 427.748 266.274 427.648 265.626 427.448C264.978 427.248 264.414 426.952 263.934 426.56C263.454 426.168 263.046 425.688 262.71 425.12C262.374 424.552 262.086 423.896 261.846 423.152L263.154 422.612C263.378 422.516 263.606 422.468 263.838 422.468C264.046 422.468 264.23 422.512 264.39 422.6C264.558 422.688 264.686 422.816 264.774 422.984C264.918 423.264 265.074 423.54 265.242 423.812C265.418 424.084 265.626 424.328 265.866 424.544C266.106 424.752 266.386 424.924 266.706 425.06C267.034 425.188 267.422 425.252 267.87 425.252C268.374 425.252 268.814 425.172 269.19 425.012C269.566 424.844 269.878 424.628 270.126 424.364C270.382 424.1 270.57 423.808 270.69 423.488C270.818 423.16 270.882 422.832 270.882 422.504C270.882 422.088 270.838 421.712 270.75 421.376C270.662 421.032 270.478 420.74 270.198 420.5C269.918 420.26 269.514 420.072 268.986 419.936C268.466 419.8 267.766 419.732 266.886 419.732V417.62C267.614 417.612 268.218 417.544 268.698 417.416C269.178 417.288 269.558 417.112 269.838 416.888C270.126 416.656 270.326 416.38 270.438 416.06C270.55 415.74 270.606 415.388 270.606 415.004C270.606 414.18 270.382 413.56 269.934 413.144C269.486 412.72 268.874 412.508 268.098 412.508C267.394 412.508 266.81 412.696 266.346 413.072C265.882 413.44 265.558 413.916 265.374 414.5C265.278 414.804 265.146 415.024 264.978 415.16C264.81 415.288 264.59 415.352 264.318 415.352C264.19 415.352 264.054 415.34 263.91 415.316L262.35 415.04C262.47 414.208 262.702 413.48 263.046 412.856C263.39 412.224 263.818 411.7 264.33 411.284C264.85 410.86 265.442 410.544 266.106 410.336C266.778 410.12 267.498 410.012 268.266 410.012Z" fill="#451583"/>
<path d="M311.86 681.651L314.463 657.538L282.313 657.546L284.916 681.651H311.86Z" fill="#6D17C6"/>
<path d="M299.192 656.735C304.075 656.735 308.033 652.776 308.033 647.893C308.033 643.011 304.075 639.052 299.192 639.052C294.309 639.052 290.351 643.011 290.351 647.893C290.351 652.776 294.309 656.735 299.192 656.735Z" fill="#FFC836"/>
<path d="M292.762 656.735C295.869 656.735 298.388 654.216 298.388 651.108C298.388 648.001 295.869 645.482 292.762 645.482C289.655 645.482 287.136 648.001 287.136 651.108C287.136 654.216 289.655 656.735 292.762 656.735Z" fill="#FFC836"/>
<path d="M308.033 658.342C308.921 658.342 309.641 657.622 309.641 656.735C309.641 655.847 308.921 655.127 308.033 655.127C307.145 655.127 306.426 655.847 306.426 656.735C306.426 657.622 307.145 658.342 308.033 658.342Z" fill="#FFC836"/>
<path d="M307.23 645.482C308.117 645.482 308.837 644.762 308.837 643.875C308.837 642.987 308.117 642.267 307.23 642.267C306.342 642.267 305.622 642.987 305.622 643.875C305.622 644.762 306.342 645.482 307.23 645.482Z" fill="#FFC836"/>
</g>
<defs>
<linearGradient id="paint0_linear" x1="-167" y1="511.468" x2="-167" y2="35.3252" gradientUnits="userSpaceOnUse">
<stop stop-color="#FAD144"/>
<stop offset="1" stop-color="#FAD144" stop-opacity="0"/>
</linearGradient>
<linearGradient id="paint1_linear" x1="336.5" y1="739" x2="336.5" y2="147.5" gradientUnits="userSpaceOnUse">
<stop stop-color="#8464AC"/>
<stop offset="1" stop-color="#8464AC" stop-opacity="0"/>
</linearGradient>
<linearGradient id="paint2_linear" x1="113.046" y1="562.651" x2="146.012" y2="687.636" gradientUnits="userSpaceOnUse">
<stop stop-color="#8831DD"/>
<stop offset="1" stop-color="#451583"/>
</linearGradient>
<linearGradient id="paint3_linear" x1="167.701" y1="562.651" x2="200.667" y2="687.636" gradientUnits="userSpaceOnUse">
<stop stop-color="#8831DD"/>
<stop offset="1" stop-color="#451583"/>
</linearGradient>
</defs>
</svg>
