<svg width="375" height="812" viewBox="0 0 375 812" fill="none" xmlns="http://www.w3.org/2000/svg">
<g id="ON_BG_1">
<g clip-path="url(#clip0)">
<path d="M0 0H375V812H0V0Z" fill="white"/>
<g id="Barra supeiror" opacity="0.8">
<path id="Fill 1" fill-rule="evenodd" clip-rule="evenodd" d="M215.456 659.95C165.161 659.95 124 618.8 124 568.52C124 518.227 165.161 477.09 215.456 477.09C236.724 477.09 254.123 459.696 254.123 438.435C254.123 417.175 236.724 399.78 215.456 399.78H210.858C188.746 399.78 170.655 381.692 170.655 359.588C170.655 337.483 188.746 319.396 210.858 319.396H224.968C233.574 319.396 240.617 312.355 240.617 303.753C240.617 295.15 233.574 288.109 224.968 288.109H214.6C208.653 288.109 203.802 283.247 203.802 277.315C203.802 271.37 208.666 266.521 214.6 266.521H284.336C293.672 266.521 301.307 258.888 301.307 249.554C301.307 240.222 293.672 232.589 284.336 232.589H263.485C257.538 232.589 252.687 227.727 252.687 221.795C252.687 215.85 257.55 211 263.485 211H560.054C567.802 211 574.152 217.349 574.152 225.095C574.152 232.841 567.802 239.189 560.054 239.189H538.673C526.49 239.189 516.524 249.151 516.524 261.331C516.524 273.512 526.49 283.474 538.673 283.474H630.244C637.992 283.474 644.343 289.822 644.343 297.568C644.343 305.314 638.005 311.662 630.244 311.662H616.713C605.473 311.662 596.289 320.857 596.289 332.08C596.289 343.315 605.487 352.497 616.713 352.497H635.131C663.985 352.497 687.596 376.101 687.596 404.944C687.596 433.787 663.985 457.391 635.131 457.391H629.123C601.366 457.391 578.662 480.088 578.662 507.835C578.662 535.583 601.366 558.28 629.123 558.28H642.125C670.107 558.28 693 581.165 693 609.14C693 637.114 670.107 660 642.125 660C497.349 659.95 360.233 659.95 215.456 659.95ZM596.001 239C603.733 239 610 232.732 610 225C610 217.268 603.733 211 596.001 211C588.269 211 582 217.268 582 225C582 232.732 588.269 239 596.001 239ZM184 288C190.085 288 195 283.071 195 277C195 270.916 190.071 266 184 266C177.916 266 173 270.928 173 277C172.988 283.071 177.916 288 184 288Z" fill="url(#paint0_linear)"/>
<path id="Fill 1_2" fill-rule="evenodd" clip-rule="evenodd" d="M-347.759 817.951C-396.285 817.951 -436 778.268 -436 729.78C-436 681.279 -396.285 641.608 -347.759 641.608C-327.238 641.608 -310.451 624.834 -310.451 604.33C-310.451 583.828 -327.238 567.053 -347.759 567.053H-352.195C-373.529 567.053 -390.985 549.61 -390.985 528.293C-390.985 506.976 -373.529 489.534 -352.195 489.534H-338.58C-330.278 489.534 -323.482 482.744 -323.482 474.448C-323.482 466.151 -330.278 459.361 -338.58 459.361H-348.585C-354.322 459.361 -359.003 454.672 -359.003 448.952C-359.003 443.219 -354.31 438.542 -348.585 438.542H-281.3C-272.292 438.542 -264.925 431.182 -264.925 422.18C-264.925 413.18 -272.292 405.82 -281.3 405.82H-301.418C-307.156 405.82 -311.837 401.131 -311.837 395.41C-311.837 389.677 -307.144 385 -301.418 385H-15.2727C-7.79697 385 -1.67053 391.123 -1.67053 398.592C-1.67053 406.062 -7.79697 412.185 -15.2727 412.185H-35.9023C-47.6571 412.185 -57.2727 421.792 -57.2727 433.538C-57.2727 445.284 -47.6571 454.891 -35.9023 454.891H52.4496C59.9259 454.891 66.053 461.013 66.053 468.483C66.053 475.953 59.9381 482.075 52.4496 482.075H39.394C28.5498 482.075 19.6884 490.942 19.6884 501.765C19.6884 512.6 28.5626 521.454 39.394 521.454H57.1653C85.0045 521.454 107.785 544.217 107.785 572.033C107.785 599.848 85.0045 622.611 57.1653 622.611H51.3678C24.5868 622.611 2.6813 644.499 2.6813 671.258C2.6813 698.016 24.5868 719.905 51.3678 719.905H63.9131C90.9119 719.905 113 741.975 113 768.952C113 795.93 90.9119 818 63.9131 818C-75.7739 817.951 -208.071 817.951 -347.759 817.951ZM19.5007 412C26.9567 412 33 405.956 33 398.5C33 391.044 26.9567 385 19.5007 385C12.0447 385 6 391.044 6 398.5C6 405.956 12.0447 412 19.5007 412ZM-378.5 459C-372.692 459 -368 454.295 -368 448.5C-368 442.693 -372.705 438 -378.5 438C-384.308 438 -389 442.704 -389 448.5C-389.012 454.295 -384.308 459 -378.5 459Z" fill="url(#paint1_linear)"/>
</g>
<path id="Fill 1 Copy" fill-rule="evenodd" clip-rule="evenodd" d="M248.241 966.951C199.715 966.951 160 927.268 160 878.78C160 830.279 199.715 790.608 248.241 790.608C268.762 790.608 285.549 773.834 285.549 753.33C285.549 732.828 268.762 716.053 248.241 716.053H243.805C222.471 716.053 205.015 698.61 205.015 677.293C205.015 655.976 222.471 638.534 243.805 638.534H257.42C265.722 638.534 272.518 631.744 272.518 623.448C272.518 615.151 265.722 608.361 257.42 608.361H247.415C241.678 608.361 236.997 603.672 236.997 597.952C236.997 592.219 241.69 587.542 247.415 587.542H314.7C323.708 587.542 331.075 580.182 331.075 571.18C331.075 562.18 323.708 554.82 314.7 554.82H294.582C288.844 554.82 284.163 550.131 284.163 544.41C284.163 538.677 288.856 534 294.582 534H580.727C588.203 534 594.329 540.123 594.329 547.592C594.329 555.062 588.203 561.185 580.727 561.185H560.098C548.343 561.185 538.727 570.792 538.727 582.538C538.727 594.284 548.343 603.891 560.098 603.891H648.45C655.926 603.891 662.053 610.013 662.053 617.483C662.053 624.953 655.938 631.075 648.45 631.075H635.394C624.55 631.075 615.688 639.942 615.688 650.765C615.688 661.6 624.563 670.454 635.394 670.454H653.165C681.005 670.454 703.785 693.217 703.785 721.033C703.785 748.848 681.005 771.611 653.165 771.611H647.368C620.587 771.611 598.681 793.499 598.681 820.258C598.681 847.016 620.587 868.905 647.368 868.905H659.913C686.912 868.905 709 890.975 709 917.952C709 944.93 686.912 967 659.913 967C520.226 966.951 387.929 966.951 248.241 966.951ZM615.501 561C622.957 561 629 554.956 629 547.5C629 540.044 622.957 534 615.501 534C608.045 534 602 540.044 602 547.5C602 554.956 608.045 561 615.501 561ZM217.5 608C223.308 608 228 603.295 228 597.5C228 591.693 223.295 587 217.5 587C211.692 587 207 591.704 207 597.5C206.988 603.295 211.692 608 217.5 608Z" fill="white"/>
<g id="humaaan-3" opacity="0.7">
<g id="Bottom/Skinny Jeans 1">
<path id="Leg" fill-rule="evenodd" clip-rule="evenodd" d="M-35.75 551.905L-3.35612 633.51L18.3706 702.501H26.95L-6.26537 551.905L-35.75 551.905Z" fill="#997659"/>
<g id="Right Shoe">
<path id="shoe" fill-rule="evenodd" clip-rule="evenodd" d="M17.3632 698.867C16.2809 698.428 15.0083 698.899 14.6292 700.004C14.2006 701.253 13.75 702.788 13.75 703.719C13.75 705.496 14.3448 708.905 14.3448 708.905C16.4158 708.905 51.57 708.905 51.57 708.905C51.57 708.905 53.021 704.131 49.8948 703.75C46.7685 703.369 44.7007 703.062 44.7007 703.062L27.7158 695.526C27.202 695.298 26.6014 695.538 26.3863 696.057L25.4077 698.42C25.4077 698.42 22.5136 699.764 20.7042 699.764C19.7982 699.764 18.4668 699.315 17.3632 698.867Z" fill="#E4E4E4"/>
</g>
<path id="Pant" fill-rule="evenodd" clip-rule="evenodd" d="M-13.9704 695.395L26.8205 690.988L-3.4104 551.905H-39.9453L-13.9704 695.395Z" fill="#69A1AC"/>
</g>
<g id="Body/Long Sleeve 1">
<path id="Skin" fill-rule="evenodd" clip-rule="evenodd" d="M39.0042 548.343L15.6387 536.822L13.0553 548.917L35.0403 553.787C42.0333 559.561 45.7732 561.823 46.2598 560.572C46.6701 559.518 46.0608 558.706 45.4996 557.958C45.0624 557.375 44.6544 556.831 44.7803 556.242C45.0677 554.896 48.9835 554.342 52.722 553.975C56.4604 553.607 55.0966 552.158 54.0645 551.506C49.9026 549.92 44.8825 548.865 39.0042 548.343ZM-64.7892 594.205C-63.5672 590.02 -63.7107 551.353 -63.7107 551.353L-50.1463 549.016C-50.1463 549.016 -55.5659 591.693 -56.13 594.346C-56.8627 597.791 -53.8308 602.075 -51.7749 604.979C-51.4569 605.429 -51.1622 605.845 -50.9084 606.22C-52.8222 607.515 -54.0179 606.569 -55.2785 605.571C-56.7023 604.445 -58.2089 603.253 -60.9264 605.15C-61.9763 605.883 -62.9477 606.702 -63.8967 607.502C-67.1748 610.265 -70.1863 612.804 -75.2458 610.797C-76.0479 610.479 -77.1367 608.94 -75.4523 607.291C-71.2558 603.182 -65.3866 596.251 -64.7892 594.205Z" fill="#B28B67"/>
<path id="Coat Back" fill-rule="evenodd" clip-rule="evenodd" d="M-35.2024 487.773L-29.7628 485.823C-5.78722 500.103 8.84062 533.078 37.5703 546.846L32.7704 555.527C-12.4474 557.86 -30.8322 517.734 -35.2024 487.773Z" fill="#E87613"/>
<path id="Shirt" fill-rule="evenodd" clip-rule="evenodd" d="M-47.2448 562.459C-47.2448 562.459 -13.5102 556.511 2.38407 553.708C4.65185 553.308 3.64805 550.114 3.02933 548.522C-4.11143 530.149 -22.4996 512.229 -27.2787 485.126L-41.9892 485.409C-50.4773 506.51 -50.4443 530.64 -47.2448 562.459Z" fill="#DDE3E9"/>
</g>
</g>
<g id="humaaan-3 copy" opacity="0.7">
<g id="Head/Front">
<g id="Head">
<path id="Head_2" fill-rule="evenodd" clip-rule="evenodd" d="M380.671 477.375C385.455 478.751 389.824 478.864 391.593 477.866C396.029 475.363 391.804 457.842 386.279 451.969C380.754 446.096 361 448.184 363.687 462.034C364.619 466.841 367.732 470.519 371.584 473.169L372.882 499.039L388.151 494.948L380.671 477.375Z" fill="#B28B67"/>
</g>
<path id="Hair" fill-rule="evenodd" clip-rule="evenodd" d="M376.863 460.112C377.657 457.795 378.524 455.958 379.94 454.646C386.681 452.953 387.145 451.541 386.06 447.492C384.769 447.008 380.593 446.728 376.211 447.509C373.858 447.471 371.301 448.282 369.086 449.992C366.241 451.689 364.137 454.265 363.928 458.09C361.685 466.385 366.849 473.01 371.795 474.421C372.569 472.775 373.211 471.21 373.761 469.728C372.866 469.226 372.166 468.378 371.88 467.31C371.316 465.205 372.568 463.041 374.676 462.476C374.831 462.434 374.986 462.403 375.141 462.38C375.941 464.986 378.717 473.785 380.572 476.603C382.758 479.925 390.052 478.93 392.513 478.271C394.638 477.702 394.027 475.712 393.59 474.286C393.527 474.08 393.467 473.887 393.42 473.711C393.321 473.343 392.842 473.472 392.301 473.618C391.598 473.808 390.791 474.026 390.575 473.221C390.34 472.343 391.375 471.344 392.301 470.45C392.878 469.892 393.414 469.375 393.572 468.954C394.071 467.626 393.936 466.05 392.733 466.373C392.075 466.549 391.275 467.169 390.311 467.916C388.856 469.042 387.031 470.456 384.768 471.063C381.03 472.064 376.914 460.261 376.863 460.112Z" fill="#191847"/>
</g>
<g id="Bottom/Skinny Jeans 1_2">
<path id="Leg_2" fill-rule="evenodd" clip-rule="evenodd" d="M372.727 551.905C372.382 580.582 367.351 619.19 366.547 620.978C365.744 622.765 311.056 666.441 311.056 666.441L316.965 672.735C316.965 672.735 381.491 635.288 384.477 630.294C387.463 625.299 397.185 579.34 404.99 551.905H372.727Z" fill="#B28B67"/>
<g id="Left Shoe">
<path id="shoe_2" fill-rule="evenodd" clip-rule="evenodd" d="M312.225 665.975C311.865 664.862 310.679 664.189 309.585 664.61C308.349 665.086 306.88 665.728 306.164 666.327C304.796 667.469 302.555 670.114 302.555 670.114C303.886 671.693 326.483 698.496 326.483 698.496C326.483 698.496 331.09 696.533 329.374 693.905C327.657 691.277 326.564 689.503 326.564 689.503L321.449 671.714C321.293 671.173 320.72 670.867 320.181 671.037L317.736 671.809C317.736 671.809 314.841 670.466 313.678 669.087C313.098 668.398 312.589 667.102 312.225 665.975Z" fill="#E4E4E4"/>
</g>
<path id="Pant_2" fill-rule="evenodd" clip-rule="evenodd" d="M319.493 656.287L346.25 687.809C346.25 687.809 388.523 641.856 395.54 627.841C402.558 613.825 408.157 551.905 408.157 551.905H367.025C367.025 551.905 363.967 606.379 362.902 608.914C361.837 611.449 319.493 656.287 319.493 656.287Z" fill="#89C5CC"/>
</g>
<g id="Body/Long Sleeve 1_2">
<path id="Skin_2" fill-rule="evenodd" clip-rule="evenodd" d="M454.004 548.343L430.639 536.822L428.055 548.917L450.04 553.787C457.033 559.561 460.773 561.823 461.26 560.572C461.67 559.518 461.061 558.706 460.5 557.958C460.062 557.375 459.654 556.831 459.78 556.242C460.068 554.896 463.984 554.342 467.722 553.975C471.46 553.607 470.097 552.158 469.065 551.506C464.903 549.92 459.883 548.865 454.004 548.343ZM350.211 594.205C351.433 590.02 351.289 551.353 351.289 551.353L364.854 549.016C364.854 549.016 359.434 591.693 358.87 594.346C358.137 597.791 361.169 602.075 363.225 604.979C363.543 605.429 363.838 605.845 364.092 606.22C362.178 607.515 360.982 606.569 359.722 605.571C358.298 604.445 356.791 603.253 354.074 605.15C353.024 605.883 352.052 606.702 351.103 607.502C347.825 610.265 344.814 612.804 339.754 610.797C338.952 610.479 337.863 608.94 339.548 607.291C343.744 603.182 349.613 596.251 350.211 594.205Z" fill="#B28B67"/>
<path id="Shirt_2" fill-rule="evenodd" clip-rule="evenodd" d="M367.755 562.459C367.755 562.459 401.49 556.511 417.384 553.708C419.652 553.308 418.648 550.114 418.029 548.522C410.889 530.149 392.5 512.229 387.721 485.126L373.011 485.409C364.523 506.51 364.556 530.64 367.755 562.459Z" fill="#DDE3E9"/>
<path id="Coat Front" fill-rule="evenodd" clip-rule="evenodd" d="M359.895 506.761C357.258 507.035 354.715 506.361 352.757 503.945C345.862 495.442 346.837 489.919 352.128 487.227C355.037 485.747 358.042 485.877 361.639 486.033C364.583 486.161 367.924 486.306 371.934 485.599C372.322 485.53 372.68 485.494 373.01 485.487L377.808 484.92C377.808 484.92 408.601 546.78 403.801 570.126L364.574 577.043C363.286 582.785 361.922 587.837 360.493 591.785L349.849 593.662C342.186 556.897 351.188 525.981 359.895 506.761Z" fill="#FF9B21"/>
<path id="Shade" fill-rule="evenodd" clip-rule="evenodd" d="M364.573 577.043C366.262 569.51 367.818 560.79 369.215 551.821C371.932 560.947 375.373 569.988 379.234 574.458L364.573 577.043Z" fill="black" fill-opacity="0.1"/>
</g>
</g>
<g id="Group 62">
<path id="Leg_3" fill-rule="evenodd" clip-rule="evenodd" d="M139.319 600.792C140.437 616.044 212.456 660.945 212.876 662.204C213.157 663.044 190.46 715.303 190.46 715.303L196.755 717.748C196.755 717.748 231.568 662.402 229.78 656.505C227.22 648.062 173.902 600.955 173.902 600.955L139.319 600.792Z" fill="#B28B67"/>
<path id="Pant_3" fill-rule="evenodd" clip-rule="evenodd" d="M192.116 707.435L202.395 711.175C224.068 686.732 232.564 666.564 231.015 656.288C229.466 646.012 175.329 600.83 175.329 600.83L138.582 600.83C139.836 636.149 206.589 662.339 207.481 663.844C208.374 665.349 199.588 680.09 192.116 707.435Z" fill="#802ADA"/>
<g id="Right Show">
<path id="shoe_3" fill-rule="evenodd" clip-rule="evenodd" d="M190.602 714.598C189.73 713.817 188.37 713.823 187.639 714.738C186.878 715.689 186.036 716.85 185.746 717.647C185.172 719.222 184.597 722.435 184.597 722.435C186.426 723.101 217.458 734.395 217.458 734.395C217.458 734.395 220.279 730.629 217.642 729.287C215.005 727.945 213.279 727.009 213.279 727.009L200.764 714.916C200.359 714.524 199.711 714.544 199.331 714.96L197.746 716.695C197.746 716.695 194.758 716.956 193.161 716.375C192.393 716.096 191.413 715.324 190.602 714.598Z" fill="#E4E4E4"/>
</g>
<path id="Leg_4" fill-rule="evenodd" clip-rule="evenodd" d="M147.6 600.792L115.517 677.778L83.9854 742.863H91.4248L172.818 600.792H147.6Z" fill="#997659"/>
<path id="Pant_4" fill-rule="evenodd" clip-rule="evenodd" d="M86.833 729.342L103.364 732.441C116.145 713.659 169.635 636.644 175.5 600.792H138.699C119.114 626.71 99.0163 710.249 86.833 729.342Z" fill="#6615BA"/>
<path id="Arm" fill-rule="evenodd" clip-rule="evenodd" d="M203.4 583.823L225.866 573.961C229.801 570.042 233.601 567.062 237.266 565.024C238.362 564.675 240.235 564.57 238.237 567.486C236.239 570.402 234.27 573.56 235.068 574.582C235.866 575.604 238.178 574.476 239.092 576.138C239.701 577.246 235.803 578.571 227.399 580.114L210.574 593.008L203.4 583.823Z" fill="#B28B67"/>
<path id="Arm_2" fill-rule="evenodd" clip-rule="evenodd" d="M112.575 586.539L125.28 589.059C112.503 612.859 105.651 625.473 104.724 626.901C102.638 630.114 104.584 636.003 105.303 639.104C100.793 640.154 102.571 633.368 96.8635 634.785C91.6536 636.078 87.2363 639.397 82.3783 634.921C81.781 634.371 81.3438 632.651 83.3802 631.768C88.4535 629.57 95.9489 625.455 97.1643 623.857C98.8217 621.678 103.959 609.239 112.575 586.539Z" fill="#B28B67"/>
<path id="Coat Back_2" fill-rule="evenodd" clip-rule="evenodd" d="M159.811 539.026L165.172 538.107C176.85 549.43 181.615 576.631 189.397 580.232C196.754 583.636 207.184 580.342 219.582 575.894L223.379 584.373C212.114 596.554 188.117 606.845 178.389 600.97C162.838 591.577 159.247 558.028 159.811 539.026Z" fill="#DFAC22"/>
<path id="Shirt_3" fill-rule="evenodd" clip-rule="evenodd" d="M136.44 606.37C136.44 606.37 168.685 606.37 183.878 606.37C186.045 606.37 185.637 603.241 185.323 601.663C181.707 583.443 167.59 563.802 167.59 537.867L153.907 535.722C142.589 553.916 138.675 576.316 136.44 606.37Z" fill="#DDE3E9"/>
<path id="Clothes Body" fill-rule="evenodd" clip-rule="evenodd" d="M125.9 619.384H168.601C176.868 598.503 158.442 535.722 158.442 535.722H153.18C142.95 553.969 127.899 589.243 125.9 619.384Z" fill="#FFC836"/>
<path id="Clothes Front" fill-rule="evenodd" clip-rule="evenodd" d="M153.024 535.722L155.493 535.722L156.28 540.017C135.207 583.592 118.888 612.114 107.323 625.581L97.3799 623.635C103.785 583.93 122.333 554.626 153.024 535.722Z" fill="#FFC836"/>
<g id="Head/Front_2">
<g id="Head_3">
<path id="Head_4" fill-rule="evenodd" clip-rule="evenodd" d="M163.68 531.535C167.695 533.954 171.64 535.123 173.492 534.646C178.135 533.45 178.562 516.471 174.969 509.777C171.376 503.083 152.906 500.166 151.976 513.428C151.652 518.031 153.586 522.139 156.443 525.491L151.32 549.356H166.2L163.68 531.535Z" fill="#B28B67"/>
</g>
<path id="hair" fill-rule="evenodd" clip-rule="evenodd" d="M166.487 502.062C164.526 501.741 159.246 501.52 158.272 501.52C157.649 501.52 156.975 501.662 156.607 501.091C156.305 500.623 156.415 499.832 156.325 499.289C156.221 498.659 156.072 498.036 155.922 497.416C155.494 495.649 154.847 493.969 153.943 492.391C152.245 489.43 149.758 487.111 146.618 485.762C143.151 484.272 139.227 483.931 135.497 484.233C131.506 484.557 127.893 485.874 124.125 487.113C120.534 488.294 116.773 488.759 113.017 488.182C109.233 487.601 106.374 485.551 103.182 483.605C99.9145 481.613 96.1803 480.31 92.3175 480.61C88.7117 480.89 85.3884 482.378 82.4068 484.366C79.6171 486.226 77.3153 488.463 76.0157 491.613C74.6177 495.001 74.619 498.72 76.918 501.714C80.2502 506.054 86.4365 507.176 91.5832 507.065C94.5601 507 97.4838 506.457 100.294 505.469C104.043 504.151 107.282 501.918 110.788 500.106C112.434 499.255 114.135 498.557 115.918 498.054C117.648 497.565 119.352 497.341 120.919 498.386C122.576 499.491 124.061 500.577 125.957 501.269C127.775 501.933 129.702 502.304 131.64 502.289C135.41 502.26 139.126 501.086 142.787 500.299C145.773 499.658 148.968 499.019 152.012 499.635C153.283 499.892 155.138 500.424 155.597 501.743C147.875 503.142 144.842 512.687 147.019 519.694C148.194 523.476 155.256 527.898 158.002 525.909C159.742 524.65 158.686 522.996 158.002 521.904C156.693 519.814 156.246 517.128 158.668 515.673C160.757 514.418 162.954 517.399 162.995 517.395C163.569 517.35 168.531 514.545 171.95 510.453C175.322 510.652 175.834 508.43 175.028 506.612C174.223 504.794 169.197 502.507 166.487 502.062Z" fill="#191847"/>
</g>
<g id="Left Shot">
<path id="shoe_4" fill-rule="evenodd" clip-rule="evenodd" d="M86.0207 739.486C84.9342 739.051 83.6581 739.522 83.2839 740.632C82.8944 741.786 82.5 743.164 82.5 744.013C82.5 745.689 83.0588 748.905 83.0588 748.905C85.0043 748.905 118.028 748.905 118.028 748.905C118.028 748.905 119.391 744.401 116.454 744.042C113.517 743.683 111.575 743.393 111.575 743.393L95.6784 736.31C95.1639 736.08 94.5617 736.321 94.3469 736.842L93.4512 739.014C93.4512 739.014 90.7325 740.282 89.0327 740.282C88.216 740.282 87.0313 739.892 86.0207 739.486Z" fill="#E4E4E4"/>
</g>
</g>
</g>
</g>
<defs>
<linearGradient id="paint0_linear" x1="408.5" y1="686" x2="408.5" y2="135" gradientUnits="userSpaceOnUse">
<stop stop-color="#FAD144"/>
<stop offset="1" stop-color="#FAD144" stop-opacity="0"/>
</linearGradient>
<linearGradient id="paint1_linear" x1="-161.5" y1="818" x2="-161.5" y2="350" gradientUnits="userSpaceOnUse">
<stop stop-color="#8464AC"/>
<stop offset="1" stop-color="#8464AC" stop-opacity="0"/>
</linearGradient>
<clipPath id="clip0">
<path d="M0 0H375V812H0V0Z" fill="white"/>
</clipPath>
</defs>
</svg>
