<svg width="375" height="3639" viewBox="0 0 375 3639" fill="none" xmlns="http://www.w3.org/2000/svg">
<g clip-path="url(#clip0)">
<path d="M0 0H375V3639H0V0Z" fill="white"/>
<path fill-rule="evenodd" clip-rule="evenodd" d="M-321.759 1695.95C-370.285 1695.95 -410 1656.27 -410 1607.78C-410 1559.28 -370.285 1519.61 -321.759 1519.61C-301.238 1519.61 -284.451 1502.83 -284.451 1482.33C-284.451 1461.83 -301.238 1445.05 -321.759 1445.05H-326.195C-347.529 1445.05 -364.985 1427.61 -364.985 1406.29C-364.985 1384.98 -347.529 1367.53 -326.195 1367.53H-312.58C-304.278 1367.53 -297.482 1360.74 -297.482 1352.45C-297.482 1344.15 -304.278 1337.36 -312.58 1337.36H-322.585C-328.322 1337.36 -333.003 1332.67 -333.003 1326.95C-333.003 1321.22 -328.31 1316.54 -322.585 1316.54H-255.3C-246.292 1316.54 -238.925 1309.18 -238.925 1300.18C-238.925 1291.18 -246.292 1283.82 -255.3 1283.82H-275.418C-281.156 1283.82 -285.837 1279.13 -285.837 1273.41C-285.837 1267.68 -281.144 1263 -275.418 1263H10.7273C18.203 1263 24.3295 1269.12 24.3295 1276.59C24.3295 1284.06 18.203 1290.18 10.7273 1290.18H-9.90234C-21.6571 1290.18 -31.2727 1299.79 -31.2727 1311.54C-31.2727 1323.28 -21.6571 1332.89 -9.90234 1332.89H78.4496C85.9259 1332.89 92.053 1339.01 92.053 1346.48C92.053 1353.95 85.9381 1360.08 78.4496 1360.08H65.394C54.5498 1360.08 45.6884 1368.94 45.6884 1379.77C45.6884 1390.6 54.5626 1399.45 65.394 1399.45H83.1653C111.005 1399.45 133.785 1422.22 133.785 1450.03C133.785 1477.85 111.005 1500.61 83.1653 1500.61H77.3678C50.5868 1500.61 28.6813 1522.5 28.6813 1549.26C28.6813 1576.02 50.5868 1597.9 77.3678 1597.9H89.9131C116.912 1597.9 139 1619.97 139 1646.95C139 1673.93 116.912 1696 89.9131 1696C-49.7739 1695.95 -182.071 1695.95 -321.759 1695.95ZM45.5007 1290C52.9567 1290 59 1283.96 59 1276.5C59 1269.04 52.9567 1263 45.5007 1263C38.0447 1263 32 1269.04 32 1276.5C32 1283.96 38.0447 1290 45.5007 1290ZM-352.5 1337C-346.692 1337 -342 1332.29 -342 1326.5C-342 1320.69 -346.705 1316 -352.5 1316C-358.308 1316 -363 1320.7 -363 1326.5C-363.012 1332.29 -358.308 1337 -352.5 1337Z" fill="url(#paint0_linear)"/>
<path fill-rule="evenodd" clip-rule="evenodd" d="M-321.759 2592.95C-370.285 2592.95 -410 2553.27 -410 2504.78C-410 2456.28 -370.285 2416.61 -321.759 2416.61C-301.238 2416.61 -284.451 2399.83 -284.451 2379.33C-284.451 2358.83 -301.238 2342.05 -321.759 2342.05H-326.195C-347.529 2342.05 -364.985 2324.61 -364.985 2303.29C-364.985 2281.98 -347.529 2264.53 -326.195 2264.53H-312.58C-304.278 2264.53 -297.482 2257.74 -297.482 2249.45C-297.482 2241.15 -304.278 2234.36 -312.58 2234.36H-322.585C-328.322 2234.36 -333.003 2229.67 -333.003 2223.95C-333.003 2218.22 -328.31 2213.54 -322.585 2213.54H-255.3C-246.292 2213.54 -238.925 2206.18 -238.925 2197.18C-238.925 2188.18 -246.292 2180.82 -255.3 2180.82H-275.418C-281.156 2180.82 -285.837 2176.13 -285.837 2170.41C-285.837 2164.68 -281.144 2160 -275.418 2160H10.7273C18.203 2160 24.3295 2166.12 24.3295 2173.59C24.3295 2181.06 18.203 2187.18 10.7273 2187.18H-9.90234C-21.6571 2187.18 -31.2727 2196.79 -31.2727 2208.54C-31.2727 2220.28 -21.6571 2229.89 -9.90234 2229.89H78.4496C85.9259 2229.89 92.053 2236.01 92.053 2243.48C92.053 2250.95 85.9381 2257.08 78.4496 2257.08H65.394C54.5498 2257.08 45.6884 2265.94 45.6884 2276.77C45.6884 2287.6 54.5626 2296.45 65.394 2296.45H83.1653C111.005 2296.45 133.785 2319.22 133.785 2347.03C133.785 2374.85 111.005 2397.61 83.1653 2397.61H77.3678C50.5868 2397.61 28.6813 2419.5 28.6813 2446.26C28.6813 2473.02 50.5868 2494.9 77.3678 2494.9H89.9131C116.912 2494.9 139 2516.97 139 2543.95C139 2570.93 116.912 2593 89.9131 2593C-49.7739 2592.95 -182.071 2592.95 -321.759 2592.95ZM45.5007 2187C52.9567 2187 59 2180.96 59 2173.5C59 2166.04 52.9567 2160 45.5007 2160C38.0447 2160 32 2166.04 32 2173.5C32 2180.96 38.0447 2187 45.5007 2187ZM-352.5 2234C-346.692 2234 -342 2229.29 -342 2223.5C-342 2217.69 -346.705 2213 -352.5 2213C-358.308 2213 -363 2217.7 -363 2223.5C-363.012 2229.29 -358.308 2234 -352.5 2234Z" fill="url(#paint1_linear)"/>
<path fill-rule="evenodd" clip-rule="evenodd" d="M-321.759 3777.95C-370.285 3777.95 -410 3738.27 -410 3689.78C-410 3641.28 -370.285 3601.61 -321.759 3601.61C-301.238 3601.61 -284.451 3584.83 -284.451 3564.33C-284.451 3543.83 -301.238 3527.05 -321.759 3527.05H-326.195C-347.529 3527.05 -364.985 3509.61 -364.985 3488.29C-364.985 3466.98 -347.529 3449.53 -326.195 3449.53H-312.58C-304.278 3449.53 -297.482 3442.74 -297.482 3434.45C-297.482 3426.15 -304.278 3419.36 -312.58 3419.36H-322.585C-328.322 3419.36 -333.003 3414.67 -333.003 3408.95C-333.003 3403.22 -328.31 3398.54 -322.585 3398.54H-255.3C-246.292 3398.54 -238.925 3391.18 -238.925 3382.18C-238.925 3373.18 -246.292 3365.82 -255.3 3365.82H-275.418C-281.156 3365.82 -285.837 3361.13 -285.837 3355.41C-285.837 3349.68 -281.144 3345 -275.418 3345H10.7273C18.203 3345 24.3295 3351.12 24.3295 3358.59C24.3295 3366.06 18.203 3372.18 10.7273 3372.18H-9.90234C-21.6571 3372.18 -31.2727 3381.79 -31.2727 3393.54C-31.2727 3405.28 -21.6571 3414.89 -9.90234 3414.89H78.4496C85.9259 3414.89 92.053 3421.01 92.053 3428.48C92.053 3435.95 85.9381 3442.08 78.4496 3442.08H65.394C54.5498 3442.08 45.6884 3450.94 45.6884 3461.77C45.6884 3472.6 54.5626 3481.45 65.394 3481.45H83.1653C111.005 3481.45 133.785 3504.22 133.785 3532.03C133.785 3559.85 111.005 3582.61 83.1653 3582.61H77.3678C50.5868 3582.61 28.6813 3604.5 28.6813 3631.26C28.6813 3658.02 50.5868 3679.9 77.3678 3679.9H89.9131C116.912 3679.9 139 3701.97 139 3728.95C139 3755.93 116.912 3778 89.9131 3778C-49.7739 3777.95 -182.071 3777.95 -321.759 3777.95ZM45.5007 3372C52.9567 3372 59 3365.96 59 3358.5C59 3351.04 52.9567 3345 45.5007 3345C38.0447 3345 32 3351.04 32 3358.5C32 3365.96 38.0447 3372 45.5007 3372ZM-352.5 3419C-346.692 3419 -342 3414.29 -342 3408.5C-342 3402.69 -346.705 3398 -352.5 3398C-358.308 3398 -363 3402.7 -363 3408.5C-363.012 3414.29 -358.308 3419 -352.5 3419Z" fill="url(#paint2_linear)"/>
<path fill-rule="evenodd" clip-rule="evenodd" d="M321.453 1439.11C276.659 1439.11 240 1402.07 240 1356.81C240 1311.54 276.659 1274.51 321.453 1274.51C340.395 1274.51 355.891 1258.86 355.891 1239.72C355.891 1220.58 340.395 1204.92 321.453 1204.92H317.358C297.665 1204.92 281.552 1188.64 281.552 1168.75C281.552 1148.85 297.665 1132.57 317.358 1132.57H329.925C337.589 1132.57 343.862 1126.23 343.862 1118.49C343.862 1110.75 337.589 1104.41 329.925 1104.41H320.69C315.394 1104.41 311.074 1100.03 311.074 1094.69C311.074 1089.34 315.405 1084.98 320.69 1084.98H382.799C391.114 1084.98 397.914 1078.1 397.914 1069.7C397.914 1061.3 391.114 1054.43 382.799 1054.43H364.229C358.933 1054.43 354.612 1050.06 354.612 1044.72C354.612 1039.37 358.943 1035 364.229 1035H628.362C635.262 1035 640.917 1040.72 640.917 1047.69C640.917 1054.66 635.262 1060.37 628.362 1060.37H609.319C598.469 1060.37 589.593 1069.34 589.593 1080.3C589.593 1091.27 598.469 1100.23 609.319 1100.23H690.874C697.775 1100.23 703.431 1105.95 703.431 1112.92C703.431 1119.89 697.787 1125.61 690.874 1125.61H678.823C668.813 1125.61 660.633 1133.88 660.633 1143.99C660.633 1154.1 668.825 1162.36 678.823 1162.36H695.227C720.925 1162.36 741.953 1183.61 741.953 1209.57C741.953 1235.53 720.925 1256.78 695.227 1256.78H689.876C665.155 1256.78 644.935 1277.21 644.935 1302.19C644.935 1327.16 665.155 1347.59 689.876 1347.59H701.456C726.378 1347.59 746.767 1368.19 746.767 1393.37C746.767 1418.55 726.378 1439.15 701.456 1439.15C572.515 1439.11 450.395 1439.11 321.453 1439.11ZM710.356 1060.2C717.315 1060.2 722.957 1054.56 722.957 1047.6C722.957 1040.64 717.315 1035 710.356 1035C703.396 1035 697.753 1040.64 697.753 1047.6C697.753 1054.56 703.396 1060.2 710.356 1060.2ZM343.108 1104.31C348.585 1104.31 353.01 1099.87 353.01 1094.41C353.01 1088.93 348.573 1084.51 343.108 1084.51C337.632 1084.51 333.207 1088.94 333.207 1094.41C333.196 1099.87 337.632 1104.31 343.108 1104.31Z" fill="url(#paint3_linear)"/>
<path fill-rule="evenodd" clip-rule="evenodd" d="M321.453 2336.11C276.659 2336.11 240 2299.07 240 2253.81C240 2208.54 276.659 2171.51 321.453 2171.51C340.395 2171.51 355.891 2155.86 355.891 2136.72C355.891 2117.58 340.395 2101.92 321.453 2101.92H317.358C297.665 2101.92 281.552 2085.64 281.552 2065.75C281.552 2045.85 297.665 2029.57 317.358 2029.57H329.925C337.589 2029.57 343.862 2023.23 343.862 2015.49C343.862 2007.75 337.589 2001.41 329.925 2001.41H320.69C315.394 2001.41 311.074 1997.03 311.074 1991.69C311.074 1986.34 315.405 1981.98 320.69 1981.98H382.799C391.114 1981.98 397.914 1975.1 397.914 1966.7C397.914 1958.3 391.114 1951.43 382.799 1951.43H364.229C358.933 1951.43 354.612 1947.06 354.612 1941.72C354.612 1936.37 358.943 1932 364.229 1932H628.362C635.262 1932 640.917 1937.72 640.917 1944.69C640.917 1951.66 635.262 1957.37 628.362 1957.37H609.319C598.469 1957.37 589.593 1966.34 589.593 1977.3C589.593 1988.27 598.469 1997.23 609.319 1997.23H690.874C697.775 1997.23 703.431 2002.95 703.431 2009.92C703.431 2016.89 697.787 2022.61 690.874 2022.61H678.823C668.813 2022.61 660.633 2030.88 660.633 2040.99C660.633 2051.1 668.825 2059.36 678.823 2059.36H695.227C720.925 2059.36 741.953 2080.61 741.953 2106.57C741.953 2132.53 720.925 2153.78 695.227 2153.78H689.876C665.155 2153.78 644.935 2174.21 644.935 2199.19C644.935 2224.16 665.155 2244.59 689.876 2244.59H701.456C726.378 2244.59 746.767 2265.19 746.767 2290.37C746.767 2315.55 726.378 2336.15 701.456 2336.15C572.515 2336.11 450.395 2336.11 321.453 2336.11ZM710.356 1957.2C717.315 1957.2 722.957 1951.56 722.957 1944.6C722.957 1937.64 717.315 1932 710.356 1932C703.396 1932 697.753 1937.64 697.753 1944.6C697.753 1951.56 703.396 1957.2 710.356 1957.2ZM343.108 2001.31C348.585 2001.31 353.01 1996.87 353.01 1991.41C353.01 1985.93 348.573 1981.51 343.108 1981.51C337.632 1981.51 333.207 1985.94 333.207 1991.41C333.196 1996.87 337.632 2001.31 343.108 2001.31Z" fill="url(#paint4_linear)"/>
<path fill-rule="evenodd" clip-rule="evenodd" d="M321.453 3521.11C276.659 3521.11 240 3484.07 240 3438.81C240 3393.54 276.659 3356.51 321.453 3356.51C340.395 3356.51 355.891 3340.86 355.891 3321.72C355.891 3302.58 340.395 3286.92 321.453 3286.92H317.358C297.665 3286.92 281.552 3270.64 281.552 3250.75C281.552 3230.85 297.665 3214.57 317.358 3214.57H329.925C337.589 3214.57 343.862 3208.23 343.862 3200.49C343.862 3192.75 337.589 3186.41 329.925 3186.41H320.69C315.394 3186.41 311.074 3182.03 311.074 3176.69C311.074 3171.34 315.405 3166.98 320.69 3166.98H382.799C391.114 3166.98 397.914 3160.1 397.914 3151.7C397.914 3143.3 391.114 3136.43 382.799 3136.43H364.229C358.933 3136.43 354.612 3132.06 354.612 3126.72C354.612 3121.37 358.943 3117 364.229 3117H628.362C635.262 3117 640.917 3122.72 640.917 3129.69C640.917 3136.66 635.262 3142.37 628.362 3142.37H609.319C598.469 3142.37 589.593 3151.34 589.593 3162.3C589.593 3173.27 598.469 3182.23 609.319 3182.23H690.874C697.775 3182.23 703.431 3187.95 703.431 3194.92C703.431 3201.89 697.787 3207.61 690.874 3207.61H678.823C668.813 3207.61 660.633 3215.88 660.633 3225.99C660.633 3236.1 668.825 3244.36 678.823 3244.36H695.227C720.925 3244.36 741.953 3265.61 741.953 3291.57C741.953 3317.53 720.925 3338.78 695.227 3338.78H689.876C665.155 3338.78 644.935 3359.21 644.935 3384.19C644.935 3409.16 665.155 3429.59 689.876 3429.59H701.456C726.378 3429.59 746.767 3450.19 746.767 3475.37C746.767 3500.55 726.378 3521.15 701.456 3521.15C572.515 3521.11 450.395 3521.11 321.453 3521.11ZM710.356 3142.2C717.315 3142.2 722.957 3136.56 722.957 3129.6C722.957 3122.64 717.315 3117 710.356 3117C703.396 3117 697.753 3122.64 697.753 3129.6C697.753 3136.56 703.396 3142.2 710.356 3142.2ZM343.108 3186.31C348.585 3186.31 353.01 3181.87 353.01 3176.41C353.01 3170.93 348.573 3166.51 343.108 3166.51C337.632 3166.51 333.207 3170.94 333.207 3176.41C333.196 3181.87 337.632 3186.31 343.108 3186.31Z" fill="url(#paint5_linear)"/>
<path fill-rule="evenodd" clip-rule="evenodd" d="M398.241 470.951C349.715 470.951 310 431.268 310 382.78C310 334.279 349.715 294.608 398.241 294.608C418.762 294.608 435.549 277.834 435.549 257.33C435.549 236.828 418.762 220.053 398.241 220.053H393.805C372.471 220.053 355.015 202.61 355.015 181.293C355.015 159.976 372.471 142.534 393.805 142.534H407.42C415.722 142.534 422.518 135.744 422.518 127.448C422.518 119.151 415.722 112.361 407.42 112.361H397.415C391.678 112.361 386.997 107.672 386.997 101.952C386.997 96.2192 391.69 91.5424 397.415 91.5424H464.7C473.708 91.5424 481.075 84.1816 481.075 75.1803C481.075 66.1804 473.708 58.8196 464.7 58.8196H444.582C438.844 58.8196 434.163 54.1307 434.163 48.4105C434.163 42.6767 438.856 38 444.582 38H730.727C738.203 38 744.329 44.123 744.329 51.5924C744.329 59.0624 738.203 65.1847 730.727 65.1847H710.098C698.343 65.1847 688.727 74.7918 688.727 86.5379C688.727 98.284 698.343 107.891 710.098 107.891H798.45C805.926 107.891 812.053 114.013 812.053 121.483C812.053 128.953 805.938 135.075 798.45 135.075H785.394C774.55 135.075 765.688 143.942 765.688 154.765C765.688 165.6 774.563 174.454 785.394 174.454H803.165C831.005 174.454 853.785 197.217 853.785 225.033C853.785 252.848 831.005 275.611 803.165 275.611H797.368C770.587 275.611 748.681 297.499 748.681 324.258C748.681 351.016 770.587 372.905 797.368 372.905H809.913C836.912 372.905 859 394.975 859 421.952C859 448.93 836.912 471 809.913 471C670.226 470.951 537.929 470.951 398.241 470.951ZM765.501 65C772.957 65 779 58.9559 779 51.5C779 44.0441 772.957 38 765.501 38C758.045 38 752 44.0441 752 51.5C752 58.9559 758.045 65 765.501 65ZM367.5 112C373.308 112 378 107.295 378 101.5C378 95.6929 373.295 91 367.5 91C361.692 91 357 95.7045 357 101.5C356.988 107.295 361.692 112 367.5 112Z" fill="url(#paint6_linear)"/>
<path fill-rule="evenodd" clip-rule="evenodd" d="M-321.547 628.955C-366.341 628.955 -403 591.916 -403 546.658C-403 501.388 -366.341 464.36 -321.547 464.36C-302.605 464.36 -287.109 448.704 -287.109 429.566C-287.109 410.429 -302.605 394.772 -321.547 394.772H-325.642C-345.335 394.772 -361.448 378.491 -361.448 358.594C-361.448 338.697 -345.335 322.417 -325.642 322.417H-313.075C-305.411 322.417 -299.138 316.079 -299.138 308.336C-299.138 300.593 -305.411 294.255 -313.075 294.255H-322.31C-327.606 294.255 -331.926 289.878 -331.926 284.539C-331.926 279.188 -327.595 274.823 -322.31 274.823H-260.201C-251.886 274.823 -245.086 267.953 -245.086 259.551C-245.086 251.151 -251.886 244.28 -260.201 244.28H-278.771C-284.067 244.28 -288.388 239.904 -288.388 234.565C-288.388 229.213 -284.057 224.848 -278.771 224.848H-14.6383C-7.73767 224.848 -2.08255 230.563 -2.08255 237.534C-2.08255 244.507 -7.73767 250.221 -14.6383 250.221H-33.681C-44.5315 250.221 -53.4073 259.188 -53.4073 270.152C-53.4073 281.115 -44.5315 290.082 -33.681 290.082H47.8742C54.7755 290.082 60.4312 295.797 60.4312 302.769C60.4312 309.742 54.7867 315.456 47.8742 315.456H35.823C25.813 315.456 17.6333 323.732 17.6333 333.834C17.6333 343.946 25.8248 352.211 35.823 352.211H52.2272C77.9247 352.211 98.9532 373.458 98.9532 399.42C98.9532 425.383 77.9247 446.628 52.2272 446.628H46.8757C22.1549 446.628 1.93451 467.058 1.93451 492.035C1.93451 517.01 22.1549 537.441 46.8757 537.441H58.4559C83.3777 537.441 103.767 558.04 103.767 583.221C103.767 608.401 83.3777 629.001 58.4559 629.001C-70.4854 628.955 -192.605 628.955 -321.547 628.955ZM67.3556 250.051C74.3154 250.051 79.9566 244.409 79.9566 237.449C79.9566 230.49 74.3154 224.848 67.3556 224.848C60.3957 224.848 54.7533 230.49 54.7533 237.449C54.7533 244.409 60.3957 250.051 67.3556 250.051ZM-299.892 294.156C-294.415 294.156 -289.99 289.719 -289.99 284.254C-289.99 278.779 -294.427 274.354 -299.892 274.354C-305.368 274.354 -309.793 278.79 -309.793 284.254C-309.804 289.719 -305.368 294.156 -299.892 294.156Z" fill="url(#paint7_linear)"/>
</g>
<defs>
<linearGradient id="paint0_linear" x1="-941.692" y1="2106.9" x2="-941.692" y2="1105.5" gradientUnits="userSpaceOnUse">
<stop stop-color="#8464AC"/>
<stop offset="1" stop-color="#8464AC" stop-opacity="0"/>
</linearGradient>
<linearGradient id="paint1_linear" x1="-941.692" y1="3003.9" x2="-941.692" y2="2002.5" gradientUnits="userSpaceOnUse">
<stop stop-color="#8464AC"/>
<stop offset="1" stop-color="#8464AC" stop-opacity="0"/>
</linearGradient>
<linearGradient id="paint2_linear" x1="-941.692" y1="4188.9" x2="-941.692" y2="3187.5" gradientUnits="userSpaceOnUse">
<stop stop-color="#8464AC"/>
<stop offset="1" stop-color="#8464AC" stop-opacity="0"/>
</linearGradient>
<linearGradient id="paint3_linear" x1="543.383" y1="1421.15" x2="543.383" y2="966.591" gradientUnits="userSpaceOnUse">
<stop stop-color="#FAD144"/>
<stop offset="1" stop-color="#FAD144" stop-opacity="0"/>
</linearGradient>
<linearGradient id="paint4_linear" x1="543.383" y1="2318.15" x2="543.383" y2="1863.59" gradientUnits="userSpaceOnUse">
<stop stop-color="#FAD144"/>
<stop offset="1" stop-color="#FAD144" stop-opacity="0"/>
</linearGradient>
<linearGradient id="paint5_linear" x1="543.383" y1="3503.15" x2="543.383" y2="3048.59" gradientUnits="userSpaceOnUse">
<stop stop-color="#FAD144"/>
<stop offset="1" stop-color="#FAD144" stop-opacity="0"/>
</linearGradient>
<linearGradient id="paint6_linear" x1="-221.692" y1="881.904" x2="-221.692" y2="-119.5" gradientUnits="userSpaceOnUse">
<stop stop-color="#8464AC"/>
<stop offset="1" stop-color="#8464AC" stop-opacity="0"/>
</linearGradient>
<linearGradient id="paint7_linear" x1="-99.6166" y1="610.998" x2="-99.6166" y2="156.439" gradientUnits="userSpaceOnUse">
<stop stop-color="#FAD144"/>
<stop offset="1" stop-color="#FAD144" stop-opacity="0"/>
</linearGradient>
<clipPath id="clip0">
<path d="M0 0H375V3639H0V0Z" fill="white"/>
</clipPath>
</defs>
</svg>
