<svg width="1441" height="2487" viewBox="0 0 1441 2487" fill="none" xmlns="http://www.w3.org/2000/svg">
<g clip-path="url(#clip0)">
<path d="M0.078125 0H1440.08V2487H0.078125V0Z" fill="white"/>
<path opacity="0.4" fill-rule="evenodd" clip-rule="evenodd" d="M1026.68 597.238C963.657 597.238 912.078 545.674 912.078 482.669C912.078 419.647 963.657 368.098 1026.68 368.098C1053.33 368.098 1075.13 346.303 1075.13 319.66C1075.13 293.019 1053.33 271.222 1026.68 271.222H1020.92C993.211 271.222 970.54 248.557 970.54 220.858C970.54 193.158 993.211 170.494 1020.92 170.494H1038.6C1049.38 170.494 1058.21 161.671 1058.21 150.892C1058.21 140.112 1049.38 131.289 1038.6 131.289H1025.61C1018.16 131.289 1012.08 125.196 1012.08 117.762C1012.08 110.314 1018.17 104.237 1025.61 104.237H1112.99C1124.69 104.237 1134.26 94.6722 1134.26 82.9759C1134.26 71.2814 1124.69 61.7169 1112.99 61.7169H1086.86C1079.41 61.7169 1073.33 55.6242 1073.33 48.1913C1073.33 40.741 1079.43 34.6641 1086.86 34.6641H1458.49C1468.2 34.6641 1476.16 42.6202 1476.16 52.3259C1476.16 62.0324 1468.2 69.9877 1458.49 69.9877H1431.7C1416.43 69.9877 1403.95 82.471 1403.95 97.7338C1403.95 112.997 1416.43 125.48 1431.7 125.48H1546.45C1556.16 125.48 1564.11 133.435 1564.11 143.142C1564.11 152.848 1556.17 160.803 1546.45 160.803H1529.49C1515.41 160.803 1503.9 172.325 1503.9 186.388C1503.9 200.466 1515.42 211.972 1529.49 211.972H1552.57C1588.73 211.972 1618.31 241.55 1618.31 277.693C1618.31 313.836 1588.73 343.414 1552.57 343.414H1545.04C1510.26 343.414 1481.81 371.855 1481.81 406.625C1481.81 441.395 1510.26 469.837 1545.04 469.837H1561.34C1596.4 469.837 1625.09 498.514 1625.09 533.569C1625.09 568.623 1596.4 597.301 1561.34 597.301C1379.92 597.238 1208.1 597.238 1026.68 597.238ZM1503.54 69.7506C1513.23 69.7506 1521.08 61.8962 1521.08 52.2073C1521.08 42.5184 1513.23 34.6641 1503.54 34.6641C1493.85 34.6641 1485.99 42.5184 1485.99 52.2073C1485.99 61.8962 1493.85 69.7506 1503.54 69.7506ZM987.264 131.152C994.889 131.152 1001.05 124.975 1001.05 117.368C1001.05 109.745 994.872 103.584 987.264 103.584C979.641 103.584 973.48 109.76 973.48 117.368C973.465 124.975 979.641 131.152 987.264 131.152Z" fill="url(#paint0_linear)"/>
<path opacity="0.4" fill-rule="evenodd" clip-rule="evenodd" d="M1026.68 1672.57C963.657 1672.57 912.078 1621.01 912.078 1558C912.078 1494.98 963.657 1443.43 1026.68 1443.43C1053.33 1443.43 1075.13 1421.64 1075.13 1395C1075.13 1368.36 1053.33 1346.56 1026.68 1346.56H1020.92C993.211 1346.56 970.54 1323.89 970.54 1296.19C970.54 1268.49 993.211 1245.83 1020.92 1245.83H1038.6C1049.38 1245.83 1058.21 1237.01 1058.21 1226.23C1058.21 1215.45 1049.38 1206.62 1038.6 1206.62H1025.61C1018.16 1206.62 1012.08 1200.53 1012.08 1193.1C1012.08 1185.65 1018.17 1179.57 1025.61 1179.57H1112.99C1124.69 1179.57 1134.26 1170.01 1134.26 1158.31C1134.26 1146.62 1124.69 1137.05 1112.99 1137.05H1086.86C1079.41 1137.05 1073.33 1130.96 1073.33 1123.53C1073.33 1116.08 1079.43 1110 1086.86 1110H1458.49C1468.2 1110 1476.16 1117.96 1476.16 1127.66C1476.16 1137.37 1468.2 1145.32 1458.49 1145.32H1431.7C1416.43 1145.32 1403.95 1157.81 1403.95 1173.07C1403.95 1188.33 1416.43 1200.82 1431.7 1200.82H1546.45C1556.16 1200.82 1564.11 1208.77 1564.11 1218.48C1564.11 1228.18 1556.17 1236.14 1546.45 1236.14H1529.49C1515.41 1236.14 1503.9 1247.66 1503.9 1261.72C1503.9 1275.8 1515.42 1287.31 1529.49 1287.31H1552.57C1588.73 1287.31 1618.31 1316.89 1618.31 1353.03C1618.31 1389.17 1588.73 1418.75 1552.57 1418.75H1545.04C1510.26 1418.75 1481.81 1447.19 1481.81 1481.96C1481.81 1516.73 1510.26 1545.17 1545.04 1545.17H1561.34C1596.4 1545.17 1625.09 1573.85 1625.09 1608.9C1625.09 1643.96 1596.4 1672.64 1561.34 1672.64C1379.92 1672.57 1208.1 1672.57 1026.68 1672.57ZM1503.54 1145.09C1513.23 1145.09 1521.08 1137.23 1521.08 1127.54C1521.08 1117.85 1513.23 1110 1503.54 1110C1493.85 1110 1485.99 1117.85 1485.99 1127.54C1485.99 1137.23 1493.85 1145.09 1503.54 1145.09ZM987.264 1206.49C994.889 1206.49 1001.05 1200.31 1001.05 1192.7C1001.05 1185.08 994.872 1178.92 987.264 1178.92C979.641 1178.92 973.48 1185.1 973.48 1192.7C973.465 1200.31 979.641 1206.49 987.264 1206.49Z" fill="url(#paint1_linear)"/>
<path opacity="0.4" fill-rule="evenodd" clip-rule="evenodd" d="M-316.348 759.527C-377.156 759.527 -426.922 709.801 -426.922 649.04C-426.922 588.264 -377.156 538.552 -316.348 538.552C-290.634 538.552 -269.598 517.534 -269.598 491.84C-269.598 466.149 -290.634 445.128 -316.348 445.128H-321.906C-348.641 445.128 -370.514 423.271 -370.514 396.559C-370.514 369.847 -348.641 347.99 -321.906 347.99H-304.847C-294.443 347.99 -285.927 339.482 -285.927 329.086C-285.927 318.69 -294.443 310.181 -304.847 310.181H-317.383C-324.573 310.181 -330.438 304.306 -330.438 297.137C-330.438 289.954 -324.557 284.094 -317.383 284.094H-233.069C-221.781 284.094 -212.55 274.87 -212.55 263.59C-212.55 252.313 -221.781 243.089 -233.069 243.089H-258.279C-265.469 243.089 -271.334 237.213 -271.334 230.045C-271.334 222.86 -265.454 217 -258.279 217H100.287C109.655 217 117.332 224.673 117.332 234.033C117.332 243.393 109.655 251.065 100.287 251.065H74.4363C59.7065 251.065 47.6573 263.103 47.6573 277.822C47.6573 292.541 59.7065 304.58 74.4363 304.58H185.149C194.518 304.58 202.195 312.252 202.195 321.612C202.195 330.973 194.533 338.644 185.149 338.644H168.789C155.201 338.644 144.096 349.755 144.096 363.318C144.096 376.894 155.217 387.99 168.789 387.99H191.058C225.943 387.99 254.49 416.514 254.49 451.369C254.49 486.224 225.943 514.747 191.058 514.747H183.794C150.235 514.747 122.785 542.175 122.785 575.707C122.785 609.237 150.235 636.666 183.794 636.666H199.514C233.346 636.666 261.024 664.321 261.024 698.126C261.024 731.932 233.346 759.588 199.514 759.588C24.4736 759.527 -141.306 759.527 -316.348 759.527ZM143.863 250.833C153.206 250.833 160.779 243.26 160.779 233.917C160.779 224.574 153.206 217 143.863 217C134.52 217 126.945 224.574 126.945 233.917C126.945 243.26 134.52 250.833 143.863 250.833ZM-354.87 309.729C-347.591 309.729 -341.712 303.833 -341.712 296.571C-341.712 289.294 -347.607 283.414 -354.87 283.414C-362.147 283.414 -368.027 289.309 -368.027 296.571C-368.041 303.833 -362.147 309.729 -354.87 309.729Z" fill="url(#paint2_linear)"/>
<path opacity="0.4" fill-rule="evenodd" clip-rule="evenodd" d="M-316.348 1834.86C-377.156 1834.86 -426.922 1785.14 -426.922 1724.38C-426.922 1663.6 -377.156 1613.89 -316.348 1613.89C-290.634 1613.89 -269.598 1592.87 -269.598 1567.18C-269.598 1541.48 -290.634 1520.46 -316.348 1520.46H-321.906C-348.641 1520.46 -370.514 1498.61 -370.514 1471.9C-370.514 1445.18 -348.641 1423.33 -321.906 1423.33H-304.847C-294.443 1423.33 -285.927 1414.82 -285.927 1404.42C-285.927 1394.03 -294.443 1385.52 -304.847 1385.52H-317.383C-324.573 1385.52 -330.438 1379.64 -330.438 1372.47C-330.438 1365.29 -324.557 1359.43 -317.383 1359.43H-233.069C-221.781 1359.43 -212.55 1350.21 -212.55 1338.93C-212.55 1327.65 -221.781 1318.42 -233.069 1318.42H-258.279C-265.469 1318.42 -271.334 1312.55 -271.334 1305.38C-271.334 1298.2 -265.454 1292.34 -258.279 1292.34H100.287C109.655 1292.34 117.332 1300.01 117.332 1309.37C117.332 1318.73 109.655 1326.4 100.287 1326.4H74.4363C59.7065 1326.4 47.6573 1338.44 47.6573 1353.16C47.6573 1367.88 59.7065 1379.92 74.4363 1379.92H185.149C194.518 1379.92 202.195 1387.59 202.195 1396.95C202.195 1406.31 194.533 1413.98 185.149 1413.98H168.789C155.201 1413.98 144.096 1425.09 144.096 1438.65C144.096 1452.23 155.217 1463.33 168.789 1463.33H191.058C225.943 1463.33 254.49 1491.85 254.49 1526.7C254.49 1561.56 225.943 1590.08 191.058 1590.08H183.794C150.235 1590.08 122.785 1617.51 122.785 1651.04C122.785 1684.57 150.235 1712 183.794 1712H199.514C233.346 1712 261.024 1739.66 261.024 1773.46C261.024 1807.27 233.346 1834.92 199.514 1834.92C24.4736 1834.86 -141.306 1834.86 -316.348 1834.86ZM143.863 1326.17C153.206 1326.17 160.779 1318.6 160.779 1309.25C160.779 1299.91 153.206 1292.34 143.863 1292.34C134.52 1292.34 126.945 1299.91 126.945 1309.25C126.945 1318.6 134.52 1326.17 143.863 1326.17ZM-354.87 1385.06C-347.591 1385.06 -341.712 1379.17 -341.712 1371.91C-341.712 1364.63 -347.607 1358.75 -354.87 1358.75C-362.147 1358.75 -368.027 1364.64 -368.027 1371.91C-368.041 1379.17 -362.147 1385.06 -354.87 1385.06Z" fill="url(#paint3_linear)"/>
<path fill-rule="evenodd" clip-rule="evenodd" d="M847.004 887.523C782.66 887.523 730 834.906 730 770.612C730 706.303 782.66 653.7 847.004 653.7C874.213 653.7 896.472 631.459 896.472 604.272C896.472 577.087 874.213 554.844 847.004 554.844H841.121C812.833 554.844 789.687 531.716 789.687 503.451C789.687 475.185 812.833 452.058 841.121 452.058H859.173C870.182 452.058 879.193 443.055 879.193 432.055C879.193 421.054 870.182 412.051 859.173 412.051H845.908C838.3 412.051 832.094 405.834 832.094 398.248C832.094 390.647 838.316 384.446 845.908 384.446H935.124C947.069 384.446 956.836 374.686 956.836 362.751C956.836 350.817 947.069 341.057 935.124 341.057H908.449C900.841 341.057 894.634 334.84 894.634 327.255C894.634 319.653 900.856 313.452 908.449 313.452H1287.86C1297.78 313.452 1305.9 321.57 1305.9 331.474C1305.9 341.379 1297.78 349.497 1287.86 349.497H1260.51C1244.92 349.497 1232.17 362.236 1232.17 377.81C1232.17 393.385 1244.92 406.124 1260.51 406.124H1377.66C1387.57 406.124 1395.7 414.241 1395.7 424.146C1395.7 434.051 1387.59 442.168 1377.66 442.168H1360.35C1345.97 442.168 1334.22 453.926 1334.22 468.277C1334.22 482.642 1345.99 494.383 1360.35 494.383H1383.91C1420.83 494.383 1451.03 524.566 1451.03 561.448C1451.03 598.33 1420.83 628.511 1383.91 628.511H1376.22C1340.71 628.511 1311.67 657.534 1311.67 693.015C1311.67 728.495 1340.71 757.519 1376.22 757.519H1392.86C1428.66 757.519 1457.95 786.782 1457.95 822.553C1457.95 858.324 1428.66 887.588 1392.86 887.588C1207.64 887.523 1032.22 887.523 847.004 887.523ZM1333.97 349.252C1343.86 349.252 1351.87 341.238 1351.87 331.352C1351.87 321.466 1343.86 313.452 1333.97 313.452C1324.08 313.452 1316.07 321.466 1316.07 331.352C1316.07 341.238 1324.08 349.252 1333.97 349.252ZM806.24 411.572C813.942 411.572 820.163 405.333 820.163 397.649C820.163 389.949 813.925 383.727 806.24 383.727C798.54 383.727 792.318 389.965 792.318 397.649C792.303 405.333 798.54 411.572 806.24 411.572Z" fill="white"/>
<path fill-rule="evenodd" clip-rule="evenodd" d="M847.004 1962.86C782.66 1962.86 730 1910.24 730 1845.95C730 1781.64 782.66 1729.04 847.004 1729.04C874.213 1729.04 896.472 1706.8 896.472 1679.61C896.472 1652.42 874.213 1630.18 847.004 1630.18H841.121C812.833 1630.18 789.687 1607.05 789.687 1578.79C789.687 1550.52 812.833 1527.39 841.121 1527.39H859.173C870.182 1527.39 879.193 1518.39 879.193 1507.39C879.193 1496.39 870.182 1487.39 859.173 1487.39H845.908C838.3 1487.39 832.094 1481.17 832.094 1473.58C832.094 1465.98 838.316 1459.78 845.908 1459.78H935.124C947.069 1459.78 956.836 1450.02 956.836 1438.09C956.836 1426.15 947.069 1416.39 935.124 1416.39H908.449C900.841 1416.39 894.634 1410.18 894.634 1402.59C894.634 1394.99 900.856 1388.79 908.449 1388.79H1287.86C1297.78 1388.79 1305.9 1396.91 1305.9 1406.81C1305.9 1416.72 1297.78 1424.83 1287.86 1424.83H1260.51C1244.92 1424.83 1232.17 1437.57 1232.17 1453.15C1232.17 1468.72 1244.92 1481.46 1260.51 1481.46H1377.66C1387.57 1481.46 1395.7 1489.58 1395.7 1499.48C1395.7 1509.39 1387.59 1517.5 1377.66 1517.5H1360.35C1345.97 1517.5 1334.22 1529.26 1334.22 1543.61C1334.22 1557.98 1345.99 1569.72 1360.35 1569.72H1383.91C1420.83 1569.72 1451.03 1599.9 1451.03 1636.78C1451.03 1673.67 1420.83 1703.85 1383.91 1703.85H1376.22C1340.71 1703.85 1311.67 1732.87 1311.67 1768.35C1311.67 1803.83 1340.71 1832.85 1376.22 1832.85H1392.86C1428.66 1832.85 1457.95 1862.12 1457.95 1897.89C1457.95 1933.66 1428.66 1962.92 1392.86 1962.92C1207.64 1962.86 1032.22 1962.86 847.004 1962.86ZM1333.97 1424.59C1343.86 1424.59 1351.87 1416.57 1351.87 1406.69C1351.87 1396.8 1343.86 1388.79 1333.97 1388.79C1324.08 1388.79 1316.07 1396.8 1316.07 1406.69C1316.07 1416.57 1324.08 1424.59 1333.97 1424.59ZM806.24 1486.91C813.942 1486.91 820.163 1480.67 820.163 1472.98C820.163 1465.29 813.925 1459.06 806.24 1459.06C798.54 1459.06 792.318 1465.3 792.318 1472.98C792.303 1480.67 798.54 1486.91 806.24 1486.91Z" fill="white"/>
</g>
<defs>
<linearGradient id="paint0_linear" x1="1268.58" y1="629.881" x2="1268.58" y2="-60.5707" gradientUnits="userSpaceOnUse">
<stop stop-color="#FAD144"/>
<stop offset="1" stop-color="#FAD144" stop-opacity="0"/>
</linearGradient>
<linearGradient id="paint1_linear" x1="1268.58" y1="1705.22" x2="1268.58" y2="1014.77" gradientUnits="userSpaceOnUse">
<stop stop-color="#FAD144"/>
<stop offset="1" stop-color="#FAD144" stop-opacity="0"/>
</linearGradient>
<linearGradient id="paint2_linear" x1="-82.9488" y1="759.588" x2="-82.9488" y2="173.142" gradientUnits="userSpaceOnUse">
<stop stop-color="#8464AC"/>
<stop offset="1" stop-color="#8464AC" stop-opacity="0"/>
</linearGradient>
<linearGradient id="paint3_linear" x1="-82.9488" y1="1834.92" x2="-82.9488" y2="1248.48" gradientUnits="userSpaceOnUse">
<stop stop-color="#8464AC"/>
<stop offset="1" stop-color="#8464AC" stop-opacity="0"/>
</linearGradient>
<clipPath id="clip0">
<path d="M0.078125 0H1440.08V2487H0.078125V0Z" fill="white"/>
</clipPath>
</defs>
</svg>