<svg width="376" height="812" viewBox="0 0 376 812" fill="none" xmlns="http://www.w3.org/2000/svg">
<mask id="mask0" mask-type="alpha" maskUnits="userSpaceOnUse" x="0" y="0" width="376" height="812">
<rect width="376" height="812" fill="white"/>
</mask>
<g mask="url(#mask0)">
<rect width="375" height="812" fill="white"/>
<path fill-rule="evenodd" clip-rule="evenodd" d="M62.528 762.95C112.4 762.95 153.215 722.167 153.215 672.335C153.215 622.49 112.4 581.719 62.528 581.719C41.4388 581.719 24.1863 564.481 24.1863 543.409C24.1863 522.338 41.4388 505.098 62.528 505.098H67.0871C89.0129 505.098 106.953 487.172 106.953 465.264C106.953 443.356 89.0129 425.431 67.0871 425.431H53.0955C44.5627 425.431 37.5787 418.452 37.5787 409.927C37.5787 401.4 44.5627 394.422 53.0955 394.422H63.3772C69.2738 394.422 74.0842 389.603 74.0842 383.724C74.0842 377.833 69.2613 373.026 63.3772 373.026H-5.77229C-15.0303 373.026 -22.601 365.462 -22.601 356.211C-22.601 346.961 -15.0303 339.397 -5.77229 339.397H14.9034C20.7999 339.397 25.6104 334.578 25.6104 328.699C25.6104 322.806 20.7881 318 14.9034 318H-279.172C-286.855 318 -293.151 324.293 -293.151 331.969C-293.151 339.646 -286.855 345.938 -279.172 345.938H-257.971C-245.89 345.938 -236.008 355.811 -236.008 367.883C-236.008 379.955 -245.89 389.828 -257.971 389.828H-348.771C-356.455 389.828 -362.752 396.12 -362.752 403.797C-362.752 411.474 -356.467 417.765 -348.771 417.765H-335.354C-324.209 417.765 -315.102 426.878 -315.102 438.001C-315.102 449.136 -324.222 458.236 -335.354 458.236H-353.618C-382.229 458.236 -405.641 481.63 -405.641 510.216C-405.641 538.803 -382.229 562.196 -353.618 562.196H-347.66C-320.136 562.196 -297.624 584.69 -297.624 612.191C-297.624 639.691 -320.136 662.186 -347.66 662.186H-360.553C-388.3 662.186 -411 684.868 -411 712.593C-411 740.318 -388.3 763 -360.553 763C-216.994 762.95 -81.031 762.95 62.528 762.95ZM-314.909 345.748C-322.572 345.748 -328.783 339.537 -328.783 331.874C-328.783 324.212 -322.572 318 -314.909 318C-307.247 318 -301.035 324.212 -301.035 331.874C-301.035 339.537 -307.247 345.748 -314.909 345.748ZM94.1217 394.051C88.1521 394.051 83.3303 389.215 83.3303 383.259C83.3303 377.292 88.1654 372.469 94.1217 372.469C100.09 372.469 104.912 377.304 104.912 383.259C104.924 389.215 100.09 394.051 94.1217 394.051Z" fill="url(#paint0_linear)"/>
<path fill-rule="evenodd" clip-rule="evenodd" d="M67.2413 832.951C18.7146 832.951 -21 793.268 -21 744.78C-21 696.279 18.7146 656.608 67.2413 656.608C87.7618 656.608 104.549 639.834 104.549 619.33C104.549 598.828 87.7618 582.053 67.2413 582.053H62.8052C41.4706 582.053 24.0147 564.61 24.0147 543.293C24.0147 521.976 41.4706 504.534 62.8052 504.534H76.4195C84.7222 504.534 91.5179 497.744 91.5179 489.448C91.5179 481.151 84.7222 474.361 76.4195 474.361H66.415C60.6775 474.361 55.9968 469.672 55.9968 463.952C55.9968 458.219 60.6896 453.542 66.415 453.542H133.7C142.708 453.542 150.075 446.182 150.075 437.18C150.075 428.18 142.708 420.82 133.7 420.82H113.582C107.844 420.82 103.163 416.131 103.163 410.41C103.163 404.677 107.856 400 113.582 400H399.727C407.203 400 413.329 406.123 413.329 413.592C413.329 421.062 407.203 427.185 399.727 427.185H379.098C367.343 427.185 357.727 436.792 357.727 448.538C357.727 460.284 367.343 469.891 379.098 469.891H467.45C474.926 469.891 481.053 476.013 481.053 483.483C481.053 490.953 474.938 497.075 467.45 497.075H454.394C443.55 497.075 434.688 505.942 434.688 516.765C434.688 527.6 443.563 536.454 454.394 536.454H472.165C500.005 536.454 522.785 559.217 522.785 587.033C522.785 614.848 500.005 637.611 472.165 637.611H466.368C439.587 637.611 417.681 659.499 417.681 686.258C417.681 713.016 439.587 734.905 466.368 734.905H478.913C505.912 734.905 528 756.975 528 783.952C528 810.93 505.912 833 478.913 833C339.226 832.951 206.929 832.951 67.2413 832.951ZM434.501 427C441.957 427 448 420.956 448 413.5C448 406.044 441.957 400 434.501 400C427.045 400 421 406.044 421 413.5C421 420.956 427.045 427 434.501 427ZM36.4997 474C42.3082 474 47 469.295 47 463.5C47 457.693 42.2953 453 36.4997 453C30.6925 453 26 457.704 26 463.5C25.9885 469.295 30.6925 474 36.4997 474Z" fill="white"/>
<path fill-rule="evenodd" clip-rule="evenodd" d="M725.288 544.949C776.398 544.949 818.227 503.158 818.227 452.094C818.227 401.017 776.398 359.238 725.288 359.238C703.675 359.238 685.994 341.573 685.994 319.98C685.994 298.389 703.675 280.723 725.288 280.723H729.96C752.43 280.723 770.815 262.354 770.815 239.905C770.815 217.455 752.43 199.086 729.96 199.086H715.621C706.876 199.086 699.719 191.935 699.719 183.199C699.719 174.462 706.876 167.311 715.621 167.311H726.158C732.201 167.311 737.131 162.373 737.131 156.349C737.131 150.312 732.188 145.386 726.158 145.386H655.291C645.803 145.386 638.044 137.635 638.044 128.155C638.044 118.677 645.803 110.925 655.291 110.925H676.48C682.523 110.925 687.453 105.988 687.453 99.9634C687.453 93.9251 682.511 89 676.48 89H375.101C367.228 89 360.775 95.4482 360.775 103.314C360.775 111.181 367.228 117.629 375.101 117.629H396.829C409.21 117.629 419.337 127.746 419.337 140.116C419.337 152.486 409.21 162.604 396.829 162.604H303.774C295.899 162.604 289.446 169.051 289.446 176.918C289.446 184.785 295.887 191.232 303.774 191.232H317.524C328.946 191.232 338.279 200.57 338.279 211.968C338.279 223.377 328.932 232.703 317.524 232.703H298.807C269.486 232.703 245.492 256.675 245.492 285.968C245.492 315.261 269.486 339.232 298.807 339.232H304.913C333.12 339.232 356.191 362.283 356.191 390.463C356.191 418.643 333.12 441.694 304.913 441.694H291.7C263.264 441.694 240 464.936 240 493.347C240 521.757 263.264 545 291.7 545C438.823 544.949 578.163 544.949 725.288 544.949ZM337.545 117.206C329.756 117.206 323.443 110.892 323.443 103.103C323.443 95.3142 329.756 89 337.545 89C345.335 89 351.649 95.3142 351.649 103.103C351.649 110.892 345.335 117.206 337.545 117.206ZM757.701 166.567C751.525 166.567 746.536 161.564 746.536 155.402C746.536 149.227 751.538 144.237 757.701 144.237C763.876 144.237 768.866 149.24 768.866 155.402C768.878 161.564 763.876 166.567 757.701 166.567Z" fill="url(#paint1_linear)"/>
</g>
<defs>
<linearGradient id="paint0_linear" x1="-128.893" y1="763" x2="-128.893" y2="155.107" gradientUnits="userSpaceOnUse">
<stop stop-color="#8464AC"/>
<stop offset="1" stop-color="#8464AC" stop-opacity="0"/>
</linearGradient>
<linearGradient id="paint1_linear" x1="529.113" y1="571.405" x2="529.113" y2="11.8151" gradientUnits="userSpaceOnUse">
<stop stop-color="#FAD144"/>
<stop offset="1" stop-color="#FAD144" stop-opacity="0"/>
</linearGradient>
</defs>
</svg>
