<svg width="375" height="812" viewBox="0 0 375 812" fill="none" xmlns="http://www.w3.org/2000/svg">
<g clip-path="url(#clip0)">
<path d="M0 0H375V812H0V0Z" fill="white"/>
<path fill-rule="evenodd" clip-rule="evenodd" d="M62.528 782.95C112.4 782.95 153.215 742.167 153.215 692.335C153.215 642.49 112.4 601.719 62.528 601.719C41.4388 601.719 24.1863 584.481 24.1863 563.409C24.1863 542.338 41.4388 525.098 62.528 525.098H67.0871C89.0129 525.098 106.953 507.172 106.953 485.264C106.953 463.356 89.0129 445.431 67.0871 445.431H53.0955C44.5627 445.431 37.5787 438.452 37.5787 429.927C37.5787 421.4 44.5627 414.422 53.0955 414.422H63.3772C69.2738 414.422 74.0842 409.603 74.0842 403.724C74.0842 397.833 69.2613 393.026 63.3772 393.026H-5.77229C-15.0303 393.026 -22.601 385.462 -22.601 376.211C-22.601 366.961 -15.0303 359.397 -5.77229 359.397H14.9034C20.7999 359.397 25.6104 354.578 25.6104 348.699C25.6104 342.806 20.7881 338 14.9034 338H-279.172C-286.855 338 -293.151 344.293 -293.151 351.969C-293.151 359.646 -286.855 365.938 -279.172 365.938H-257.971C-245.89 365.938 -236.008 375.811 -236.008 387.883C-236.008 399.955 -245.89 409.828 -257.971 409.828H-348.771C-356.455 409.828 -362.752 416.12 -362.752 423.797C-362.752 431.474 -356.467 437.765 -348.771 437.765H-335.354C-324.209 437.765 -315.102 446.878 -315.102 458.001C-315.102 469.136 -324.222 478.236 -335.354 478.236H-353.618C-382.229 478.236 -405.641 501.63 -405.641 530.216C-405.641 558.803 -382.229 582.196 -353.618 582.196H-347.66C-320.136 582.196 -297.624 604.69 -297.624 632.191C-297.624 659.691 -320.136 682.186 -347.66 682.186H-360.553C-388.3 682.186 -411 704.868 -411 732.593C-411 760.318 -388.3 783 -360.553 783C-216.994 782.95 -81.031 782.95 62.528 782.95ZM-314.909 365.748C-322.572 365.748 -328.783 359.537 -328.783 351.874C-328.783 344.212 -322.572 338 -314.909 338C-307.247 338 -301.035 344.212 -301.035 351.874C-301.035 359.537 -307.247 365.748 -314.909 365.748ZM94.1217 414.051C88.1521 414.051 83.3303 409.215 83.3303 403.259C83.3303 397.292 88.1654 392.469 94.1217 392.469C100.09 392.469 104.912 397.304 104.912 403.259C104.924 409.215 100.09 414.051 94.1217 414.051Z" fill="url(#paint0_linear)"/>
<path fill-rule="evenodd" clip-rule="evenodd" d="M67.2413 852.951C18.7146 852.951 -21 813.268 -21 764.78C-21 716.279 18.7146 676.608 67.2413 676.608C87.7618 676.608 104.549 659.834 104.549 639.33C104.549 618.828 87.7618 602.053 67.2413 602.053H62.8052C41.4706 602.053 24.0147 584.61 24.0147 563.293C24.0147 541.976 41.4706 524.534 62.8052 524.534H76.4195C84.7222 524.534 91.5179 517.744 91.5179 509.448C91.5179 501.151 84.7222 494.361 76.4195 494.361H66.415C60.6775 494.361 55.9968 489.672 55.9968 483.952C55.9968 478.219 60.6896 473.542 66.415 473.542H133.7C142.708 473.542 150.075 466.182 150.075 457.18C150.075 448.18 142.708 440.82 133.7 440.82H113.582C107.844 440.82 103.163 436.131 103.163 430.41C103.163 424.677 107.856 420 113.582 420H399.727C407.203 420 413.329 426.123 413.329 433.592C413.329 441.062 407.203 447.185 399.727 447.185H379.098C367.343 447.185 357.727 456.792 357.727 468.538C357.727 480.284 367.343 489.891 379.098 489.891H467.45C474.926 489.891 481.053 496.013 481.053 503.483C481.053 510.953 474.938 517.075 467.45 517.075H454.394C443.55 517.075 434.688 525.942 434.688 536.765C434.688 547.6 443.563 556.454 454.394 556.454H472.165C500.005 556.454 522.785 579.217 522.785 607.033C522.785 634.848 500.005 657.611 472.165 657.611H466.368C439.587 657.611 417.681 679.499 417.681 706.258C417.681 733.016 439.587 754.905 466.368 754.905H478.913C505.912 754.905 528 776.975 528 803.952C528 830.93 505.912 853 478.913 853C339.226 852.951 206.929 852.951 67.2413 852.951ZM434.501 447C441.957 447 448 440.956 448 433.5C448 426.044 441.957 420 434.501 420C427.045 420 421 426.044 421 433.5C421 440.956 427.045 447 434.501 447ZM36.4997 494C42.3082 494 47 489.295 47 483.5C47 477.693 42.2953 473 36.4997 473C30.6925 473 26 477.704 26 483.5C25.9885 489.295 30.6925 494 36.4997 494Z" fill="white"/>
<path fill-rule="evenodd" clip-rule="evenodd" d="M725.288 544.949C776.398 544.949 818.227 503.158 818.227 452.094C818.227 401.017 776.398 359.238 725.288 359.238C703.675 359.238 685.994 341.573 685.994 319.98C685.994 298.389 703.675 280.723 725.288 280.723H729.96C752.43 280.723 770.815 262.354 770.815 239.905C770.815 217.455 752.43 199.086 729.96 199.086H715.621C706.876 199.086 699.719 191.935 699.719 183.199C699.719 174.462 706.876 167.311 715.621 167.311H726.158C732.201 167.311 737.131 162.373 737.131 156.349C737.131 150.312 732.188 145.386 726.158 145.386H655.291C645.803 145.386 638.044 137.635 638.044 128.155C638.044 118.677 645.803 110.925 655.291 110.925H676.48C682.523 110.925 687.453 105.988 687.453 99.9634C687.453 93.9251 682.511 89 676.48 89H375.101C367.228 89 360.775 95.4482 360.775 103.314C360.775 111.181 367.228 117.629 375.101 117.629H396.829C409.21 117.629 419.337 127.746 419.337 140.116C419.337 152.486 409.21 162.604 396.829 162.604H303.774C295.899 162.604 289.446 169.051 289.446 176.918C289.446 184.785 295.887 191.232 303.774 191.232H317.524C328.946 191.232 338.279 200.57 338.279 211.968C338.279 223.377 328.932 232.703 317.524 232.703H298.807C269.486 232.703 245.492 256.675 245.492 285.968C245.492 315.261 269.486 339.232 298.807 339.232H304.913C333.12 339.232 356.191 362.283 356.191 390.463C356.191 418.643 333.12 441.694 304.913 441.694H291.7C263.264 441.694 240 464.936 240 493.347C240 521.757 263.264 545 291.7 545C438.823 544.949 578.163 544.949 725.288 544.949ZM337.545 117.206C329.756 117.206 323.443 110.892 323.443 103.103C323.443 95.3142 329.756 89 337.545 89C345.335 89 351.649 95.3142 351.649 103.103C351.649 110.892 345.335 117.206 337.545 117.206ZM757.701 166.567C751.525 166.567 746.536 161.564 746.536 155.402C746.536 149.227 751.538 144.237 757.701 144.237C763.876 144.237 768.866 149.24 768.866 155.402C768.878 161.564 763.876 166.567 757.701 166.567Z" fill="url(#paint1_linear)"/>
<g opacity="0.7">
<path fill-rule="evenodd" clip-rule="evenodd" d="M-33.752 551.905L-1.35807 633.51L20.3686 702.501H28.948L-4.26732 551.905L-33.752 551.905Z" fill="#997659"/>
<path fill-rule="evenodd" clip-rule="evenodd" d="M19.3612 698.867C18.279 698.428 17.0064 698.899 16.6273 700.004C16.1987 701.253 15.748 702.788 15.748 703.72C15.748 705.496 16.3429 708.905 16.3429 708.905C18.4139 708.905 53.5681 708.905 53.5681 708.905C53.5681 708.905 55.0191 704.131 51.8928 703.75C48.7666 703.369 46.6988 703.063 46.6988 703.063L29.7138 695.526C29.2001 695.298 28.5994 695.538 28.3844 696.058L27.4058 698.42C27.4058 698.42 24.5117 699.764 22.7023 699.764C21.7963 699.764 20.4649 699.315 19.3612 698.867Z" fill="#E4E4E4"/>
<path fill-rule="evenodd" clip-rule="evenodd" d="M-11.9724 695.395L28.8186 690.988L-1.41235 551.905H-37.9473L-11.9724 695.395Z" fill="#69A1AC"/>
<path fill-rule="evenodd" clip-rule="evenodd" d="M41.0042 548.343L17.6387 536.822L15.0553 548.917L37.0403 553.787C44.0333 559.561 47.7732 561.823 48.2598 560.572C48.6701 559.518 48.0608 558.705 47.4996 557.957C47.0624 557.375 46.6544 556.831 46.7803 556.242C47.0677 554.896 50.9836 554.342 54.722 553.974C58.4604 553.607 57.0966 552.158 56.0645 551.506C51.9026 549.92 46.8825 548.865 41.0042 548.343ZM-62.7892 594.205C-61.5672 590.019 -61.7107 551.353 -61.7107 551.353L-48.1463 549.016C-48.1463 549.016 -53.5659 591.693 -54.13 594.346C-54.8627 597.791 -51.8308 602.075 -49.7749 604.979C-49.4569 605.428 -49.1622 605.845 -48.9084 606.22C-50.8222 607.514 -52.0179 606.569 -53.2785 605.571C-54.7023 604.445 -56.2089 603.253 -58.9264 605.15C-59.9763 605.883 -60.9477 606.702 -61.8967 607.502C-65.1748 610.265 -68.1863 612.803 -73.2458 610.797C-74.0479 610.478 -75.1367 608.94 -73.4523 607.291C-69.2558 603.182 -63.3866 596.251 -62.7892 594.205Z" fill="#B28B67"/>
<path fill-rule="evenodd" clip-rule="evenodd" d="M-33.2024 487.773L-27.7628 485.823C-3.78722 500.103 10.8406 533.078 39.5703 546.846L34.7704 555.527C-10.4474 557.86 -28.8322 517.734 -33.2024 487.773Z" fill="#E87613"/>
<path fill-rule="evenodd" clip-rule="evenodd" d="M-45.2438 562.459C-45.2438 562.459 -11.5093 556.511 4.38505 553.708C6.65283 553.308 5.64903 550.114 5.03031 548.522C-2.11046 530.149 -20.4987 512.229 -25.2777 485.126L-39.9882 485.409C-48.4763 506.51 -48.4434 530.64 -45.2438 562.459Z" fill="#DDE3E9"/>
<path fill-rule="evenodd" clip-rule="evenodd" d="M-53.1045 506.761C-55.7421 507.034 -58.2851 506.361 -60.2433 503.945C-67.1377 495.442 -66.1632 489.919 -60.8723 487.227C-57.963 485.747 -54.9583 485.877 -51.3615 486.033C-48.4173 486.161 -45.0764 486.306 -41.0664 485.599C-40.6779 485.53 -40.3198 485.494 -39.9902 485.487L-35.1924 484.92C-35.1924 484.92 -4.39863 546.78 -9.1993 570.126L-48.4265 577.043C-49.7138 582.785 -51.0781 587.837 -52.507 591.785L-63.1506 593.662C-70.814 556.897 -61.8118 525.981 -53.1045 506.761Z" fill="#FF9B21"/>
</g>
<g opacity="0.7">
<path fill-rule="evenodd" clip-rule="evenodd" d="M382.671 477.375C387.455 478.751 391.824 478.864 393.593 477.866C398.029 475.363 393.804 457.842 388.279 451.969C382.754 446.096 363 448.184 365.687 462.034C366.619 466.84 369.732 470.519 373.584 473.169L374.882 499.039L390.151 494.948L382.671 477.375Z" fill="#B28B67"/>
<path fill-rule="evenodd" clip-rule="evenodd" d="M378.863 460.112C379.657 457.795 380.524 455.957 381.94 454.646C388.681 452.953 389.145 451.541 388.06 447.491C386.769 447.007 382.593 446.728 378.211 447.509C375.858 447.47 373.301 448.282 371.086 449.991C368.241 451.689 366.137 454.265 365.928 458.09C363.685 466.385 368.849 473.01 373.795 474.421C374.569 472.775 375.211 471.209 375.761 469.728C374.866 469.226 374.166 468.378 373.88 467.31C373.316 465.205 374.568 463.041 376.676 462.476C376.831 462.434 376.986 462.402 377.141 462.38C377.941 464.986 380.717 473.785 382.572 476.603C384.758 479.925 392.052 478.93 394.513 478.271C396.638 477.701 396.027 475.712 395.59 474.286C395.527 474.08 395.467 473.886 395.42 473.71C395.321 473.343 394.842 473.472 394.301 473.618C393.598 473.808 392.791 474.026 392.575 473.221C392.34 472.343 393.375 471.344 394.301 470.45C394.878 469.892 395.414 469.375 395.572 468.954C396.071 467.626 395.936 466.05 394.733 466.373C394.075 466.549 393.275 467.169 392.311 467.916C390.856 469.042 389.031 470.456 386.768 471.062C383.03 472.064 378.914 460.261 378.863 460.112Z" fill="#191847"/>
<path fill-rule="evenodd" clip-rule="evenodd" d="M374.727 551.905C374.382 580.582 369.351 619.19 368.547 620.978C367.744 622.765 313.056 666.442 313.056 666.442L318.965 672.735C318.965 672.735 383.491 635.288 386.477 630.294C389.463 625.3 399.185 579.34 406.99 551.905H374.727Z" fill="#B28B67"/>
<path fill-rule="evenodd" clip-rule="evenodd" d="M314.225 665.975C313.865 664.862 312.679 664.189 311.585 664.61C310.349 665.086 308.88 665.728 308.164 666.327C306.796 667.469 304.555 670.113 304.555 670.113C305.886 671.693 328.483 698.496 328.483 698.496C328.483 698.496 333.09 696.533 331.374 693.905C329.657 691.277 328.564 689.503 328.564 689.503L323.449 671.714C323.293 671.173 322.72 670.867 322.181 671.037L319.736 671.809C319.736 671.809 316.841 670.466 315.678 669.086C315.098 668.398 314.589 667.102 314.225 665.975Z" fill="#E4E4E4"/>
<path fill-rule="evenodd" clip-rule="evenodd" d="M321.493 656.288L348.25 687.809C348.25 687.809 390.523 641.856 397.54 627.841C404.558 613.825 410.157 551.905 410.157 551.905H369.025C369.025 551.905 365.967 606.38 364.902 608.915C363.837 611.449 321.493 656.288 321.493 656.288Z" fill="#89C5CC"/>
<path fill-rule="evenodd" clip-rule="evenodd" d="M456.004 548.343L432.639 536.822L430.055 548.917L452.04 553.787C459.033 559.561 462.773 561.823 463.26 560.572C463.67 559.518 463.061 558.705 462.5 557.957C462.062 557.375 461.654 556.831 461.78 556.242C462.068 554.896 465.984 554.342 469.722 553.974C473.46 553.607 472.097 552.158 471.065 551.506C466.903 549.92 461.883 548.865 456.004 548.343ZM352.211 594.205C353.433 590.019 353.289 551.353 353.289 551.353L366.854 549.016C366.854 549.016 361.434 591.693 360.87 594.346C360.137 597.791 363.169 602.075 365.225 604.979C365.543 605.428 365.838 605.845 366.092 606.22C364.178 607.514 362.982 606.569 361.722 605.571C360.298 604.445 358.791 603.253 356.074 605.15C355.024 605.883 354.052 606.702 353.103 607.502C349.825 610.265 346.814 612.803 341.754 610.797C340.952 610.478 339.863 608.94 341.548 607.291C345.744 603.182 351.613 596.251 352.211 594.205Z" fill="#B28B67"/>
<path fill-rule="evenodd" clip-rule="evenodd" d="M369.755 562.459C369.755 562.459 403.49 556.511 419.384 553.708C421.652 553.308 420.648 550.114 420.029 548.522C412.889 530.149 394.5 512.229 389.721 485.126L375.011 485.409C366.523 506.51 366.556 530.64 369.755 562.459Z" fill="#DDE3E9"/>
<path fill-rule="evenodd" clip-rule="evenodd" d="M361.895 506.761C359.258 507.034 356.715 506.361 354.757 503.945C347.862 495.442 348.837 489.919 354.128 487.227C357.037 485.747 360.042 485.877 363.639 486.033C366.583 486.161 369.924 486.306 373.934 485.599C374.322 485.53 374.68 485.494 375.01 485.487L379.808 484.92C379.808 484.92 410.601 546.78 405.801 570.126L366.574 577.043C365.286 582.785 363.922 587.837 362.493 591.785L351.849 593.662C344.186 556.897 353.188 525.981 361.895 506.761Z" fill="#FF9B21"/>
<path fill-rule="evenodd" clip-rule="evenodd" d="M366.573 577.043C368.262 569.509 369.818 560.789 371.215 551.821C373.932 560.947 377.373 569.988 381.234 574.458L366.573 577.043Z" fill="black" fill-opacity="0.1"/>
</g>
<path fill-rule="evenodd" clip-rule="evenodd" d="M159.363 566.398C159.363 566.049 159.014 565.77 158.595 565.77C158.176 565.77 157.827 566.049 157.827 566.398V567.934H156.081C155.663 567.934 155.313 568.213 155.313 568.562C155.313 568.911 155.663 569.191 156.081 569.191H157.827V570.727C157.827 571.076 158.176 571.355 158.595 571.355C159.014 571.355 159.363 571.076 159.363 570.727V569.191H161.108C161.527 569.191 161.876 568.911 161.876 568.562C161.876 568.213 161.527 567.934 161.108 567.934H159.363V566.398Z" fill="white"/>
<path fill-rule="evenodd" clip-rule="evenodd" d="M142.537 548.106C142.537 547.687 142.188 547.338 141.769 547.338C141.35 547.338 141.001 547.687 141.001 548.106V549.851H139.255C138.836 549.851 138.487 550.2 138.487 550.619C138.487 551.038 138.836 551.387 139.255 551.387H141.001V553.133C141.001 553.551 141.35 553.901 141.769 553.901C142.188 553.901 142.537 553.551 142.537 553.133V551.317H144.282C144.701 551.317 145.05 550.968 145.05 550.549C145.05 550.13 144.701 549.781 144.282 549.781H142.537V548.106Z" fill="#3987BE"/>
<path fill-rule="evenodd" clip-rule="evenodd" d="M166.694 529.883C170.743 532.327 174.723 533.514 176.608 533.025C181.286 531.838 181.705 514.593 178.074 507.821C174.444 501.048 155.732 498.116 154.825 511.521C154.476 516.199 156.43 520.318 159.363 523.739L154.196 547.896H169.277L166.694 529.883Z" fill="#AF7550"/>
<path fill-rule="evenodd" clip-rule="evenodd" d="M169.556 500.071C167.601 499.722 162.225 499.512 161.248 499.512C160.62 499.512 159.921 499.652 159.572 499.093C159.293 498.605 159.363 497.837 159.293 497.278C159.153 496.65 159.014 496.021 158.874 495.393C158.455 493.578 157.757 491.902 156.849 490.296C155.104 487.294 152.59 484.92 149.449 483.594C145.958 482.058 141.978 481.709 138.208 482.058C134.158 482.407 130.528 483.733 126.688 484.99C123.057 486.177 119.217 486.666 115.447 486.037C111.607 485.479 108.745 483.384 105.463 481.429C102.182 479.405 98.4116 478.078 94.5018 478.427C90.8712 478.707 87.52 480.243 84.448 482.197C81.6553 484.083 79.2814 486.317 77.9549 489.528C76.5585 492.949 76.5586 496.72 78.8626 499.722C82.2138 504.12 88.4974 505.237 93.7338 505.168C96.736 505.098 99.7381 504.539 102.531 503.562C106.301 502.235 109.582 500.001 113.143 498.116C114.819 497.278 116.494 496.58 118.31 496.021C120.055 495.533 121.801 495.323 123.337 496.371C125.012 497.488 126.548 498.605 128.433 499.303C130.249 500.001 132.204 500.35 134.158 500.35C137.998 500.35 141.699 499.163 145.469 498.325C148.471 497.697 151.753 496.999 154.825 497.627C156.081 497.907 157.966 498.395 158.455 499.792C150.636 501.188 147.564 510.893 149.798 517.944C150.985 521.784 158.106 526.253 160.899 524.228C162.644 522.971 161.597 521.296 160.899 520.178C159.572 518.084 159.153 515.361 161.597 513.895C163.692 512.638 165.926 515.64 165.995 515.64C166.554 515.57 171.581 512.778 175.072 508.589C178.493 508.798 178.982 506.564 178.214 504.679C177.376 502.794 172.279 500.49 169.556 500.071Z" fill="#001136"/>
<path fill-rule="evenodd" clip-rule="evenodd" d="M142.048 599.98C143.165 615.41 216.055 660.862 216.474 662.119C216.753 662.956 193.783 715.878 193.783 715.878L200.136 718.322C200.136 718.322 235.325 662.328 233.579 656.324C230.996 647.806 177.027 600.12 177.027 600.12L142.048 599.98Z" fill="#AF7550"/>
<path fill-rule="evenodd" clip-rule="evenodd" d="M195.458 707.919L205.861 711.689C227.784 686.974 236.372 666.517 234.836 656.114C233.3 645.711 178.492 599.98 178.492 599.98H141.279C142.536 635.727 210.12 662.258 210.958 663.794C211.935 665.33 202.998 680.271 195.458 707.919Z" fill="#8464AC"/>
<path fill-rule="evenodd" clip-rule="evenodd" d="M194.481 715.599C193.294 714.622 191.479 714.622 190.571 715.809C189.943 716.647 189.314 717.554 189.105 718.183C188.546 719.789 187.918 723 187.918 723C189.733 723.698 221.151 735.079 221.151 735.079C221.151 735.079 224.014 731.239 221.361 729.912C218.708 728.586 216.962 727.608 216.962 727.608L204.535 715.599C203.976 715.111 203.138 715.111 202.65 715.669L201.253 717.205C201.253 717.205 198.251 717.485 196.645 716.856C195.877 716.717 195.179 716.228 194.481 715.599Z" fill="#DFDEDE"/>
<path fill-rule="evenodd" clip-rule="evenodd" d="M150.427 599.98L117.962 677.897L86.0547 743.806H93.595L175.911 599.98H150.427Z" fill="#926043"/>
<path fill-rule="evenodd" clip-rule="evenodd" d="M88.777 740.594C87.3108 740.035 85.6352 740.664 85.1465 742.13C84.8672 743.107 84.5879 744.225 84.5879 744.923C84.5879 746.598 85.1465 749.88 85.1465 749.88H120.544C120.544 749.88 121.941 745.342 118.938 744.923C115.936 744.574 113.981 744.294 113.981 744.294L98.2024 737.243C97.5042 736.963 96.7362 737.243 96.457 737.941L95.689 739.826C95.689 739.826 92.9661 741.083 91.2206 741.083C90.5224 741.153 89.6148 740.943 88.777 740.594Z" fill="#DFDEDE"/>
<path fill-rule="evenodd" clip-rule="evenodd" d="M88.916 730.121L105.672 733.263C118.589 714.273 172.698 636.286 178.632 599.98H141.419C121.591 626.232 101.274 710.782 88.916 730.121Z" fill="#4C0788"/>
<path fill-rule="evenodd" clip-rule="evenodd" d="M127.804 588.112L114.958 585.528C106.23 608.498 101.064 621.066 99.3881 623.3C98.1314 624.906 90.591 629.095 85.4245 631.329C83.33 632.237 83.8187 633.982 84.3772 634.541C88.2172 638.031 91.7081 636.845 95.618 635.448C96.735 635.029 97.8521 634.68 99.039 634.401C102.111 633.633 103.019 635.239 103.926 636.705C104.694 638.031 105.462 639.288 107.557 638.799C107.487 638.381 107.347 637.892 107.208 637.403C106.37 634.122 105.113 629.234 106.998 626.442C107.976 624.975 114.888 612.199 127.804 588.112ZM229.599 572.821L206.838 582.805L214.099 592.091L231.135 579.035C239.653 577.499 243.562 576.103 242.934 574.986C242.445 574.008 241.468 574.008 240.56 573.938C239.862 573.869 239.234 573.869 238.885 573.38C238.047 572.333 240.072 569.121 242.096 566.189C244.121 563.256 242.236 563.326 241.119 563.675C237.418 565.84 233.578 568.842 229.599 572.821Z" fill="#AF7550"/>
<path fill-rule="evenodd" clip-rule="evenodd" d="M162.784 537.424L168.23 536.516C180.029 547.966 184.847 575.544 192.736 579.175C200.207 582.596 210.749 579.314 223.247 574.776L227.087 583.364C215.706 595.722 191.41 606.124 181.565 600.19C165.856 590.625 162.226 556.693 162.784 537.424Z" fill="#DFAC23"/>
<path fill-rule="evenodd" clip-rule="evenodd" d="M139.116 605.636H187.151C189.315 605.636 188.966 602.494 188.617 600.888C184.987 582.456 170.674 562.558 170.674 536.306L156.85 534.142C145.33 552.504 141.42 575.195 139.116 605.636Z" fill="#D1DCE3"/>
<path fill-rule="evenodd" clip-rule="evenodd" d="M156.081 534.142H155.941C124.872 553.272 106.091 582.945 99.668 623.16L109.722 625.115C116.354 617.365 124.593 604.658 134.368 586.994C131.365 597.607 129.201 608.498 128.503 618.831H171.72C180.098 597.677 161.457 534.142 161.457 534.142H158.455H156.081Z" fill="#FFC836"/>
</g>
<defs>
<linearGradient id="paint0_linear" x1="-128.893" y1="783" x2="-128.893" y2="175.107" gradientUnits="userSpaceOnUse">
<stop stop-color="#8464AC"/>
<stop offset="1" stop-color="#8464AC" stop-opacity="0"/>
</linearGradient>
<linearGradient id="paint1_linear" x1="529.113" y1="571.405" x2="529.113" y2="11.8151" gradientUnits="userSpaceOnUse">
<stop stop-color="#FAD144"/>
<stop offset="1" stop-color="#FAD144" stop-opacity="0"/>
</linearGradient>
<clipPath id="clip0">
<path d="M0 0H375V812H0V0Z" fill="white"/>
</clipPath>
</defs>
</svg>
