<svg width="375" height="812" viewBox="0 0 375 812" fill="none" xmlns="http://www.w3.org/2000/svg">
<g clip-path="url(#clip0)">
<path d="M0 0H375V812H0V0Z" fill="white"/>
<path fill-rule="evenodd" clip-rule="evenodd" d="M389.241 590.451C340.715 590.451 301 550.768 301 502.28C301 453.779 340.715 414.108 389.241 414.108C409.762 414.108 426.549 397.334 426.549 376.83C426.549 356.328 409.762 339.553 389.241 339.553H384.805C363.471 339.553 346.015 322.11 346.015 300.793C346.015 279.476 363.471 262.034 384.805 262.034H398.42C406.722 262.034 413.518 255.244 413.518 246.948C413.518 238.651 406.722 231.861 398.42 231.861H388.415C382.678 231.861 377.997 227.172 377.997 221.452C377.997 215.719 382.69 211.042 388.415 211.042H455.7C464.708 211.042 472.075 203.682 472.075 194.68C472.075 185.68 464.708 178.32 455.7 178.32H435.582C429.844 178.32 425.163 173.631 425.163 167.91C425.163 162.177 429.856 157.5 435.582 157.5H721.727C729.203 157.5 735.329 163.623 735.329 171.092C735.329 178.562 729.203 184.685 721.727 184.685H701.098C689.343 184.685 679.727 194.292 679.727 206.038C679.727 217.784 689.343 227.391 701.098 227.391H789.45C796.926 227.391 803.053 233.513 803.053 240.983C803.053 248.453 796.938 254.575 789.45 254.575H776.394C765.55 254.575 756.688 263.442 756.688 274.265C756.688 285.1 765.563 293.954 776.394 293.954H794.165C822.005 293.954 844.785 316.717 844.785 344.533C844.785 372.348 822.005 395.111 794.165 395.111H788.368C761.587 395.111 739.681 416.999 739.681 443.758C739.681 470.516 761.587 492.405 788.368 492.405H800.913C827.912 492.405 850 514.475 850 541.452C850 568.43 827.912 590.5 800.913 590.5C661.226 590.451 528.929 590.451 389.241 590.451ZM756.501 184.5C763.957 184.5 770 178.456 770 171C770 163.544 763.957 157.5 756.501 157.5C749.045 157.5 743 163.544 743 171C743 178.456 749.045 184.5 756.501 184.5ZM358.5 231.5C364.308 231.5 369 226.795 369 221C369 215.193 364.295 210.5 358.5 210.5C352.692 210.5 348 215.204 348 221C347.988 226.795 352.692 231.5 358.5 231.5Z" fill="url(#paint0_linear)"/>
<path fill-rule="evenodd" clip-rule="evenodd" d="M-345.508 814.45C-395.273 814.45 -436 773.3 -436 723.02C-436 672.727 -395.273 631.59 -345.508 631.59C-324.465 631.59 -307.249 614.196 -307.249 592.935C-307.249 571.675 -324.465 554.28 -345.508 554.28H-350.058C-371.936 554.28 -389.837 536.192 -389.837 514.088C-389.837 491.983 -371.936 473.896 -350.058 473.896H-336.096C-327.582 473.896 -320.613 466.855 -320.613 458.253C-320.613 449.65 -327.582 442.609 -336.096 442.609H-346.356C-352.24 442.609 -357.04 437.747 -357.04 431.815C-357.04 425.87 -352.227 421.021 -346.356 421.021H-277.355C-268.117 421.021 -260.563 413.388 -260.563 404.054C-260.563 394.722 -268.117 387.089 -277.355 387.089H-297.986C-303.87 387.089 -308.67 382.227 -308.67 376.295C-308.67 370.35 -303.858 365.5 -297.986 365.5H-4.54373C3.12262 365.5 9.40527 371.849 9.40527 379.595C9.40527 387.341 3.12262 393.689 -4.54373 393.689H-25.6995C-37.754 393.689 -47.6148 403.651 -47.6148 415.831C-47.6148 428.012 -37.754 437.974 -25.6995 437.974H64.9055C72.5725 437.974 78.8558 444.322 78.8558 452.068C78.8558 459.814 72.5849 466.162 64.9055 466.162H51.517C40.3962 466.162 31.3088 475.357 31.3088 486.58C31.3088 497.815 40.4093 506.997 51.517 506.997H69.7415C98.2906 506.997 121.652 530.601 121.652 559.444C121.652 588.287 98.2906 611.891 69.7415 611.891H63.7961C36.3322 611.891 13.8681 634.588 13.8681 662.335C13.8681 690.083 36.3322 712.78 63.7961 712.78H76.6614C104.349 712.78 127 735.665 127 763.64C127 791.614 104.349 814.5 76.6614 814.5C-66.5879 814.45 -202.259 814.45 -345.508 814.45ZM31.0007 393.5C38.7328 393.5 45 387.232 45 379.5C45 371.768 38.7328 365.5 31.0007 365.5C23.2686 365.5 17 371.768 17 379.5C17 387.232 23.2686 393.5 31.0007 393.5ZM-377 442.5C-370.915 442.5 -366 437.571 -366 431.5C-366 425.416 -370.929 420.5 -377 420.5C-383.084 420.5 -388 425.428 -388 431.5C-388.012 437.571 -383.084 442.5 -377 442.5Z" fill="url(#paint1_linear)"/>
<mask id="mask0" mask-type="alpha" maskUnits="userSpaceOnUse" x="0" y="0" width="375" height="812">
<rect width="375" height="812" fill="#C4C4C4"/>
</mask>
<g mask="url(#mask0)">
</g>
</g>
<defs>
<linearGradient id="paint0_linear" x1="-230.692" y1="1001.4" x2="-230.692" y2="-3.33938e-05" gradientUnits="userSpaceOnUse">
<stop stop-color="#8464AC"/>
<stop offset="1" stop-color="#8464AC" stop-opacity="0"/>
</linearGradient>
<linearGradient id="paint1_linear" x1="-154.5" y1="794.5" x2="-154.5" y2="289.5" gradientUnits="userSpaceOnUse">
<stop stop-color="#FAD144"/>
<stop offset="1" stop-color="#FAD144" stop-opacity="0"/>
</linearGradient>
<clipPath id="clip0">
<path d="M0 0H375V812H0V0Z" fill="white"/>
</clipPath>
</defs>
</svg>
