<svg width="376" height="812" viewBox="0 0 376 812" fill="none" xmlns="http://www.w3.org/2000/svg">
<mask id="mask0" mask-type="alpha" maskUnits="userSpaceOnUse" x="0" y="0" width="376" height="812">
<rect width="376" height="812" fill="white"/>
</mask>
<g mask="url(#mask0)">
<rect width="375" height="812" fill="white"/>
</g>
<g clip-path="url(#clip0)">
<rect width="375" height="812" fill="white"/>
<path fill-rule="evenodd" clip-rule="evenodd" d="M536.92 549.956C580.409 549.956 616 514.398 616 470.948C616 427.488 580.409 391.939 536.92 391.939C518.53 391.939 503.486 376.909 503.486 358.536C503.486 340.164 518.53 325.133 536.92 325.133H540.896C560.015 325.133 575.659 309.503 575.659 290.401C575.659 271.299 560.015 255.67 540.896 255.67H528.695C521.254 255.67 515.164 249.585 515.164 242.152C515.164 234.718 521.254 228.633 528.695 228.633H537.661C542.803 228.633 546.997 224.432 546.997 219.305C546.997 214.169 542.792 209.978 537.661 209.978H477.362C469.289 209.978 462.687 203.382 462.687 195.316C462.687 187.252 469.289 180.656 477.362 180.656H495.391C500.533 180.656 504.728 176.454 504.728 171.329C504.728 166.191 500.523 162 495.391 162H238.955C232.255 162 226.765 167.487 226.765 174.18C226.765 180.873 232.255 186.36 238.955 186.36H257.443C267.977 186.36 276.594 194.968 276.594 205.494C276.594 216.019 267.977 224.628 257.443 224.628H178.264C171.564 224.628 166.073 230.114 166.073 236.807C166.073 243.501 171.553 248.986 178.264 248.986H189.964C199.682 248.986 207.624 256.932 207.624 266.63C207.624 276.339 199.671 284.273 189.964 284.273H174.038C149.089 284.273 128.673 304.671 128.673 329.595C128.673 354.52 149.089 374.917 174.038 374.917H179.233C203.234 374.917 222.865 394.53 222.865 418.508C222.865 442.486 203.234 462.1 179.233 462.1H167.99C143.795 462.1 124 481.876 124 506.049C124 530.223 143.795 550 167.99 550C293.174 549.956 411.736 549.956 536.92 549.956ZM206.999 186C200.372 186 195 180.627 195 174C195 167.373 200.372 162 206.999 162C213.627 162 219 167.373 219 174C219 180.627 213.627 186 206.999 186ZM564.5 228C559.245 228 555 223.743 555 218.5C555 213.246 559.257 209 564.5 209C569.754 209 574 213.256 574 218.5C574.01 223.743 569.754 228 564.5 228Z" fill="url(#paint0_linear)"/>
<path fill-rule="evenodd" clip-rule="evenodd" d="M-45.7587 807.951C-94.2854 807.951 -134 768.268 -134 719.78C-134 671.279 -94.2854 631.608 -45.7587 631.608C-25.2382 631.608 -8.45085 614.834 -8.45085 594.33C-8.45085 573.828 -25.2382 557.053 -45.7587 557.053H-50.1948C-71.5294 557.053 -88.9853 539.61 -88.9853 518.293C-88.9853 496.976 -71.5294 479.534 -50.1948 479.534H-36.5805C-28.2778 479.534 -21.4821 472.744 -21.4821 464.448C-21.4821 456.151 -28.2778 449.361 -36.5805 449.361H-46.585C-52.3225 449.361 -57.0032 444.672 -57.0032 438.952C-57.0032 433.219 -52.3104 428.542 -46.585 428.542H20.6998C29.7082 428.542 37.0747 421.182 37.0747 412.18C37.0747 403.18 29.7082 395.82 20.6998 395.82H0.581741C-5.15579 395.82 -9.83655 391.131 -9.83655 385.41C-9.83655 379.677 -5.14433 375 0.581741 375H286.727C294.203 375 300.329 381.123 300.329 388.592C300.329 396.062 294.203 402.185 286.727 402.185H266.098C254.343 402.185 244.727 411.792 244.727 423.538C244.727 435.284 254.343 444.891 266.098 444.891H354.45C361.926 444.891 368.053 451.013 368.053 458.483C368.053 465.953 361.938 472.075 354.45 472.075H341.394C330.55 472.075 321.688 480.942 321.688 491.765C321.688 502.6 330.563 511.454 341.394 511.454H359.165C387.005 511.454 409.785 534.217 409.785 562.033C409.785 589.848 387.005 612.611 359.165 612.611H353.368C326.587 612.611 304.681 634.499 304.681 661.258C304.681 688.016 326.587 709.905 353.368 709.905H365.913C392.912 709.905 415 731.975 415 758.952C415 785.93 392.912 808 365.913 808C226.226 807.951 93.9291 807.951 -45.7587 807.951ZM321.501 402C328.957 402 335 395.956 335 388.5C335 381.044 328.957 375 321.501 375C314.045 375 308 381.044 308 388.5C308 395.956 314.045 402 321.501 402ZM-76.5003 449C-70.6918 449 -66 444.295 -66 438.5C-66 432.693 -70.7047 428 -76.5003 428C-82.3075 428 -87 432.704 -87 438.5C-87.0115 444.295 -82.3075 449 -76.5003 449Z" fill="white"/>
<path fill-rule="evenodd" clip-rule="evenodd" d="M444.528 963.95C494.4 963.95 535.215 923.167 535.215 873.335C535.215 823.49 494.4 782.719 444.528 782.719C423.439 782.719 406.186 765.481 406.186 744.409C406.186 723.338 423.439 706.098 444.528 706.098H449.087C471.013 706.098 488.953 688.172 488.953 666.264C488.953 644.356 471.013 626.431 449.087 626.431H435.095C426.563 626.431 419.579 619.452 419.579 610.927C419.579 602.4 426.563 595.422 435.095 595.422H445.377C451.274 595.422 456.084 590.603 456.084 584.724C456.084 578.833 451.261 574.026 445.377 574.026H376.228C366.97 574.026 359.399 566.462 359.399 557.211C359.399 547.961 366.97 540.397 376.228 540.397H396.903C402.8 540.397 407.61 535.578 407.61 529.699C407.61 523.806 402.788 519 396.903 519H102.828C95.1447 519 88.8485 525.293 88.8485 532.969C88.8485 540.646 95.1447 546.938 102.828 546.938H124.029C136.11 546.938 145.992 556.811 145.992 568.883C145.992 580.955 136.11 590.828 124.029 590.828H33.2286C25.545 590.828 19.2481 597.12 19.2481 604.797C19.2481 612.474 25.5325 618.765 33.2286 618.765H46.6459C57.7907 618.765 66.8977 627.878 66.8977 639.001C66.8977 650.136 57.7775 659.236 46.6459 659.236H28.3821C-0.228577 659.236 -23.6409 682.63 -23.6409 711.216C-23.6409 739.803 -0.228577 763.196 28.3821 763.196H34.3403C61.8635 763.196 84.3761 785.69 84.3761 813.191C84.3761 840.691 61.8635 863.186 34.3403 863.186H21.4473C-6.29968 863.186 -28.9999 885.868 -28.9999 913.593C-28.9999 941.318 -6.29968 964 21.4473 964C165.006 963.95 300.969 963.95 444.528 963.95ZM67.0906 546.748C59.428 546.748 53.2172 540.537 53.2172 532.874C53.2172 525.212 59.428 519 67.0906 519C74.7532 519 80.9654 525.212 80.9654 532.874C80.9654 540.537 74.7532 546.748 67.0906 546.748ZM476.122 595.051C470.152 595.051 465.33 590.215 465.33 584.259C465.33 578.292 470.165 573.469 476.122 573.469C482.09 573.469 486.912 578.304 486.912 584.259C486.924 590.215 482.09 595.051 476.122 595.051Z" fill="url(#paint1_linear)"/>
<path opacity="0.4" d="M359 21V25C359.805 24.6612 360.328 23.8731 360.328 23C360.328 22.1269 359.805 21.3388 359 21Z" fill="#451484"/>
<path fill-rule="evenodd" clip-rule="evenodd" d="M321.5 659C297.476 659 278 639.524 278 615.5C278 591.476 297.476 572 321.5 572C345.524 572 365 591.476 365 615.5C365 639.524 345.524 659 321.5 659Z" fill="#8464AC"/>
<path fill-rule="evenodd" clip-rule="evenodd" d="M87.5 681C41.9365 681 5 644.063 5 598.5C5 552.937 41.9365 516 87.5 516C133.063 516 170 552.937 170 598.5C170 644.063 133.063 681 87.5 681Z" fill="#8464AC"/>
<path fill-rule="evenodd" clip-rule="evenodd" d="M87.0832 473.78L66.7139 520.396L318.285 520.382L297.915 473.78H87.0832Z" fill="#FFC836"/>
<rect x="87.6123" y="549.837" width="210.58" height="131.813" fill="white"/>
<path d="M315.774 520.372H268.052H258.005V549.405C258.005 555.115 259.859 560.432 263.031 564.872C268.429 572.431 277.657 577.437 288.145 577.437C291.672 577.437 295.042 576.843 298.192 575.802C309.875 571.947 318.285 561.601 318.285 549.405V520.372H315.774Z" fill="#4C0788"/>
<path fill-rule="evenodd" clip-rule="evenodd" d="M274.783 520.372H227.061H217.015V549.405C217.015 555.115 218.869 560.432 222.041 564.872C227.439 572.431 236.667 577.437 247.155 577.437C250.682 577.437 254.052 576.843 257.202 575.802C268.885 571.947 277.295 561.601 277.295 549.405V520.372H274.783Z" fill="#FFC836"/>
<path d="M224.951 520.372H177.229H167.183V549.405C167.183 555.115 169.037 560.432 172.209 564.872C177.607 572.431 186.835 577.437 197.323 577.437C200.85 577.437 204.22 576.843 207.37 575.802C219.052 571.947 227.463 561.601 227.463 549.405V520.372H224.951Z" fill="#4C0788"/>
<path fill-rule="evenodd" clip-rule="evenodd" d="M174.315 520.372H126.593H116.546V549.405C116.546 555.115 118.4 560.432 121.572 564.872C126.97 572.431 136.198 577.437 146.686 577.437C150.213 577.437 153.583 576.843 156.733 575.802C168.416 571.947 176.826 561.601 176.826 549.405V520.372H174.315Z" fill="#FFC836"/>
<path d="M124.483 520.372H76.7606H66.7139V549.405C66.7139 555.115 68.568 560.432 71.7398 564.872C77.1384 572.431 86.3658 577.437 96.8541 577.437C100.381 577.437 103.751 576.843 106.901 575.802C118.584 571.947 126.994 561.601 126.994 549.405V520.372H124.483Z" fill="#4C0788"/>
<path d="M192.031 488.694C194.657 488.694 196.787 486.565 196.787 483.938V450.717V438.058H187.275V450.717V483.938C187.275 486.565 189.405 488.694 192.031 488.694Z" fill="#8464AC"/>
<rect x="140.658" y="600.019" width="51.4394" height="81.9815" fill="#9C82BC"/>
<rect x="195.313" y="600.019" width="51.4394" height="81.9815" fill="#9C82BC"/>
<rect x="95.6494" y="389.893" width="193.701" height="54.6543" rx="4" fill="#4C0788"/>
<path d="M124.205 424.892V427.556H114.041V410.204H117.269V424.892H124.205ZM130.857 415.052C131.769 415.052 132.597 415.2 133.341 415.496C134.093 415.792 134.733 416.212 135.261 416.756C135.797 417.3 136.209 417.964 136.497 418.748C136.785 419.532 136.929 420.408 136.929 421.376C136.929 422.352 136.785 423.232 136.497 424.016C136.209 424.8 135.797 425.468 135.261 426.02C134.733 426.572 134.093 426.996 133.341 427.292C132.597 427.588 131.769 427.736 130.857 427.736C129.937 427.736 129.101 427.588 128.349 427.292C127.597 426.996 126.953 426.572 126.417 426.02C125.889 425.468 125.477 424.8 125.181 424.016C124.893 423.232 124.749 422.352 124.749 421.376C124.749 420.408 124.893 419.532 125.181 418.748C125.477 417.964 125.889 417.3 126.417 416.756C126.953 416.212 127.597 415.792 128.349 415.496C129.101 415.2 129.937 415.052 130.857 415.052ZM130.857 425.456C131.881 425.456 132.637 425.112 133.125 424.424C133.621 423.736 133.869 422.728 133.869 421.4C133.869 420.072 133.621 419.06 133.125 418.364C132.637 417.668 131.881 417.32 130.857 417.32C129.817 417.32 129.045 417.672 128.541 418.376C128.045 419.072 127.797 420.08 127.797 421.4C127.797 422.72 128.045 423.728 128.541 424.424C129.045 425.112 129.817 425.456 130.857 425.456ZM142.263 415.244V427.976C142.263 428.512 142.191 429.016 142.047 429.488C141.911 429.96 141.687 430.372 141.375 430.724C141.071 431.084 140.667 431.364 140.163 431.564C139.667 431.772 139.059 431.876 138.339 431.876C138.059 431.876 137.799 431.856 137.559 431.816C137.319 431.784 137.071 431.728 136.815 431.648L136.923 430.052C136.947 429.892 137.011 429.788 137.115 429.74C137.219 429.7 137.419 429.68 137.715 429.68C138.011 429.68 138.259 429.648 138.459 429.584C138.667 429.528 138.831 429.432 138.951 429.296C139.071 429.168 139.155 428.996 139.203 428.78C139.259 428.564 139.287 428.296 139.287 427.976V415.244H142.263ZM142.671 411.656C142.671 411.912 142.619 412.152 142.515 412.376C142.411 412.6 142.271 412.796 142.095 412.964C141.927 413.132 141.723 413.268 141.483 413.372C141.251 413.468 141.003 413.516 140.739 413.516C140.483 413.516 140.243 413.468 140.019 413.372C139.795 413.268 139.599 413.132 139.431 412.964C139.263 412.796 139.127 412.6 139.023 412.376C138.927 412.152 138.879 411.912 138.879 411.656C138.879 411.392 138.927 411.144 139.023 410.912C139.127 410.68 139.263 410.48 139.431 410.312C139.599 410.144 139.795 410.012 140.019 409.916C140.243 409.812 140.483 409.76 140.739 409.76C141.003 409.76 141.251 409.812 141.483 409.916C141.723 410.012 141.927 410.144 142.095 410.312C142.271 410.48 142.411 410.68 142.515 410.912C142.619 411.144 142.671 411.392 142.671 411.656ZM151.788 422.3C150.932 422.34 150.212 422.416 149.628 422.528C149.044 422.632 148.576 422.768 148.224 422.936C147.872 423.104 147.62 423.3 147.468 423.524C147.316 423.748 147.24 423.992 147.24 424.256C147.24 424.776 147.392 425.148 147.696 425.372C148.008 425.596 148.412 425.708 148.908 425.708C149.516 425.708 150.04 425.6 150.48 425.384C150.928 425.16 151.364 424.824 151.788 424.376V422.3ZM144.996 416.96C146.412 415.664 148.116 415.016 150.108 415.016C150.828 415.016 151.472 415.136 152.04 415.376C152.608 415.608 153.088 415.936 153.48 416.36C153.872 416.776 154.168 417.276 154.368 417.86C154.576 418.444 154.68 419.084 154.68 419.78V427.556H153.336C153.056 427.556 152.84 427.516 152.688 427.436C152.536 427.348 152.416 427.176 152.328 426.92L152.064 426.032C151.752 426.312 151.448 426.56 151.152 426.776C150.856 426.984 150.548 427.16 150.228 427.304C149.908 427.448 149.564 427.556 149.196 427.628C148.836 427.708 148.436 427.748 147.996 427.748C147.476 427.748 146.996 427.68 146.556 427.544C146.116 427.4 145.736 427.188 145.416 426.908C145.096 426.628 144.848 426.28 144.672 425.864C144.496 425.448 144.408 424.964 144.408 424.412C144.408 424.1 144.46 423.792 144.564 423.488C144.668 423.176 144.836 422.88 145.068 422.6C145.308 422.32 145.616 422.056 145.992 421.808C146.368 421.56 146.828 421.344 147.372 421.16C147.924 420.976 148.564 420.828 149.292 420.716C150.02 420.596 150.852 420.524 151.788 420.5V419.78C151.788 418.956 151.612 418.348 151.26 417.956C150.908 417.556 150.4 417.356 149.736 417.356C149.256 417.356 148.856 417.412 148.536 417.524C148.224 417.636 147.948 417.764 147.708 417.908C147.468 418.044 147.248 418.168 147.048 418.28C146.856 418.392 146.64 418.448 146.4 418.448C146.192 418.448 146.016 418.396 145.872 418.292C145.728 418.18 145.612 418.052 145.524 417.908L144.996 416.96ZM169.622 423.464C169.798 423.464 169.954 423.532 170.09 423.668L171.362 425.048C170.658 425.92 169.79 426.588 168.758 427.052C167.734 427.516 166.502 427.748 165.062 427.748C163.774 427.748 162.614 427.528 161.582 427.088C160.558 426.648 159.682 426.036 158.954 425.252C158.226 424.468 157.666 423.532 157.274 422.444C156.89 421.356 156.698 420.168 156.698 418.88C156.698 417.576 156.906 416.384 157.322 415.304C157.738 414.216 158.322 413.28 159.074 412.496C159.834 411.712 160.738 411.104 161.786 410.672C162.834 410.232 163.994 410.012 165.266 410.012C166.53 410.012 167.65 410.22 168.626 410.636C169.61 411.052 170.446 411.596 171.134 412.268L170.054 413.768C169.99 413.864 169.906 413.948 169.802 414.02C169.706 414.092 169.57 414.128 169.394 414.128C169.274 414.128 169.15 414.096 169.022 414.032C168.894 413.96 168.754 413.876 168.602 413.78C168.45 413.676 168.274 413.564 168.074 413.444C167.874 413.324 167.642 413.216 167.378 413.12C167.114 413.016 166.806 412.932 166.454 412.868C166.11 412.796 165.71 412.76 165.254 412.76C164.478 412.76 163.766 412.9 163.118 413.18C162.478 413.452 161.926 413.852 161.462 414.38C160.998 414.9 160.638 415.54 160.382 416.3C160.126 417.052 159.998 417.912 159.998 418.88C159.998 419.856 160.134 420.724 160.406 421.484C160.686 422.244 161.062 422.884 161.534 423.404C162.006 423.924 162.562 424.324 163.202 424.604C163.842 424.876 164.53 425.012 165.266 425.012C165.706 425.012 166.102 424.988 166.454 424.94C166.814 424.892 167.142 424.816 167.438 424.712C167.742 424.608 168.026 424.476 168.29 424.316C168.562 424.148 168.83 423.944 169.094 423.704C169.174 423.632 169.258 423.576 169.346 423.536C169.434 423.488 169.526 423.464 169.622 423.464ZM178.295 415.052C179.207 415.052 180.035 415.2 180.779 415.496C181.531 415.792 182.171 416.212 182.699 416.756C183.235 417.3 183.647 417.964 183.935 418.748C184.223 419.532 184.367 420.408 184.367 421.376C184.367 422.352 184.223 423.232 183.935 424.016C183.647 424.8 183.235 425.468 182.699 426.02C182.171 426.572 181.531 426.996 180.779 427.292C180.035 427.588 179.207 427.736 178.295 427.736C177.375 427.736 176.539 427.588 175.787 427.292C175.035 426.996 174.391 426.572 173.855 426.02C173.327 425.468 172.915 424.8 172.619 424.016C172.331 423.232 172.187 422.352 172.187 421.376C172.187 420.408 172.331 419.532 172.619 418.748C172.915 417.964 173.327 417.3 173.855 416.756C174.391 416.212 175.035 415.792 175.787 415.496C176.539 415.2 177.375 415.052 178.295 415.052ZM178.295 425.456C179.319 425.456 180.075 425.112 180.563 424.424C181.059 423.736 181.307 422.728 181.307 421.4C181.307 420.072 181.059 419.06 180.563 418.364C180.075 417.668 179.319 417.32 178.295 417.32C177.255 417.32 176.483 417.672 175.979 418.376C175.483 419.072 175.235 420.08 175.235 421.4C175.235 422.72 175.483 423.728 175.979 424.424C176.483 425.112 177.255 425.456 178.295 425.456ZM194.356 418.388C194.02 417.98 193.652 417.692 193.252 417.524C192.86 417.356 192.436 417.272 191.98 417.272C191.532 417.272 191.128 417.356 190.768 417.524C190.408 417.692 190.1 417.948 189.844 418.292C189.588 418.628 189.392 419.06 189.256 419.588C189.12 420.108 189.052 420.724 189.052 421.436C189.052 422.156 189.108 422.768 189.22 423.272C189.34 423.768 189.508 424.176 189.724 424.496C189.94 424.808 190.204 425.036 190.516 425.18C190.828 425.316 191.176 425.384 191.56 425.384C192.176 425.384 192.7 425.256 193.132 425C193.564 424.744 193.972 424.38 194.356 423.908V418.388ZM197.32 409.724V427.556H195.508C195.116 427.556 194.868 427.376 194.764 427.016L194.512 425.828C194.016 426.396 193.444 426.856 192.796 427.208C192.156 427.56 191.408 427.736 190.552 427.736C189.88 427.736 189.264 427.596 188.704 427.316C188.144 427.036 187.66 426.632 187.252 426.104C186.852 425.568 186.54 424.908 186.316 424.124C186.1 423.34 185.992 422.444 185.992 421.436C185.992 420.524 186.116 419.676 186.364 418.892C186.612 418.108 186.968 417.428 187.432 416.852C187.896 416.276 188.452 415.828 189.1 415.508C189.748 415.18 190.476 415.016 191.284 415.016C191.972 415.016 192.56 415.124 193.048 415.34C193.536 415.556 193.972 415.848 194.356 416.216V409.724H197.32ZM203.317 415.244V427.556H200.341V415.244H203.317ZM203.725 411.656C203.725 411.912 203.673 412.152 203.569 412.376C203.465 412.6 203.325 412.796 203.149 412.964C202.981 413.132 202.781 413.268 202.549 413.372C202.317 413.468 202.069 413.516 201.805 413.516C201.549 413.516 201.305 413.468 201.073 413.372C200.849 413.268 200.653 413.132 200.485 412.964C200.317 412.796 200.181 412.6 200.077 412.376C199.981 412.152 199.933 411.912 199.933 411.656C199.933 411.392 199.981 411.144 200.077 410.912C200.181 410.68 200.317 410.48 200.485 410.312C200.653 410.144 200.849 410.012 201.073 409.916C201.305 409.812 201.549 409.76 201.805 409.76C202.069 409.76 202.317 409.812 202.549 409.916C202.781 410.012 202.981 410.144 203.149 410.312C203.325 410.48 203.465 410.68 203.569 410.912C203.673 411.144 203.725 411.392 203.725 411.656ZM210.839 421.1C211.207 421.1 211.527 421.052 211.799 420.956C212.071 420.852 212.295 420.712 212.471 420.536C212.655 420.36 212.791 420.148 212.879 419.9C212.975 419.652 213.023 419.38 213.023 419.084C213.023 418.476 212.839 417.996 212.471 417.644C212.111 417.284 211.567 417.104 210.839 417.104C210.111 417.104 209.563 417.284 209.195 417.644C208.835 417.996 208.655 418.476 208.655 419.084C208.655 419.372 208.699 419.64 208.787 419.888C208.883 420.136 209.019 420.352 209.195 420.536C209.379 420.712 209.607 420.852 209.879 420.956C210.159 421.052 210.479 421.1 210.839 421.1ZM214.187 428.108C214.187 427.868 214.115 427.672 213.971 427.52C213.827 427.368 213.631 427.252 213.383 427.172C213.135 427.084 212.843 427.02 212.507 426.98C212.179 426.94 211.827 426.912 211.451 426.896C211.083 426.872 210.699 426.852 210.299 426.836C209.907 426.82 209.523 426.788 209.147 426.74C208.819 426.924 208.551 427.14 208.343 427.388C208.143 427.636 208.043 427.924 208.043 428.252C208.043 428.468 208.095 428.668 208.199 428.852C208.311 429.044 208.483 429.208 208.715 429.344C208.955 429.48 209.263 429.584 209.639 429.656C210.015 429.736 210.475 429.776 211.019 429.776C211.571 429.776 212.047 429.732 212.447 429.644C212.847 429.564 213.175 429.448 213.431 429.296C213.695 429.152 213.887 428.976 214.007 428.768C214.127 428.568 214.187 428.348 214.187 428.108ZM217.139 415.664V416.768C217.139 417.12 216.927 417.336 216.503 417.416L215.399 417.62C215.567 418.044 215.651 418.508 215.651 419.012C215.651 419.62 215.527 420.172 215.279 420.668C215.039 421.156 214.703 421.572 214.271 421.916C213.839 422.26 213.327 422.528 212.735 422.72C212.151 422.904 211.519 422.996 210.839 422.996C210.599 422.996 210.367 422.984 210.143 422.96C209.919 422.936 209.699 422.904 209.483 422.864C209.099 423.096 208.907 423.356 208.907 423.644C208.907 423.892 209.019 424.076 209.243 424.196C209.475 424.308 209.779 424.388 210.155 424.436C210.531 424.484 210.959 424.516 211.439 424.532C211.919 424.54 212.411 424.564 212.915 424.604C213.419 424.644 213.911 424.716 214.391 424.82C214.871 424.916 215.299 425.072 215.675 425.288C216.051 425.504 216.351 425.8 216.575 426.176C216.807 426.544 216.923 427.02 216.923 427.604C216.923 428.148 216.787 428.676 216.515 429.188C216.251 429.7 215.863 430.156 215.351 430.556C214.847 430.956 214.223 431.276 213.479 431.516C212.743 431.764 211.903 431.888 210.959 431.888C210.031 431.888 209.223 431.796 208.535 431.612C207.847 431.436 207.275 431.196 206.819 430.892C206.363 430.596 206.023 430.252 205.799 429.86C205.575 429.468 205.463 429.06 205.463 428.636C205.463 428.06 205.635 427.58 205.979 427.196C206.331 426.804 206.811 426.492 207.419 426.26C207.091 426.092 206.831 425.868 206.639 425.588C206.447 425.308 206.351 424.94 206.351 424.484C206.351 424.3 206.383 424.112 206.447 423.92C206.519 423.72 206.619 423.524 206.747 423.332C206.883 423.14 207.051 422.96 207.251 422.792C207.451 422.616 207.687 422.46 207.959 422.324C207.335 421.988 206.843 421.54 206.483 420.98C206.131 420.42 205.955 419.764 205.955 419.012C205.955 418.404 206.075 417.856 206.315 417.368C206.563 416.872 206.903 416.452 207.335 416.108C207.775 415.756 208.291 415.488 208.883 415.304C209.483 415.12 210.135 415.028 210.839 415.028C211.367 415.028 211.863 415.084 212.327 415.196C212.791 415.3 213.215 415.456 213.599 415.664H217.139ZM224.256 415.052C225.168 415.052 225.996 415.2 226.74 415.496C227.492 415.792 228.132 416.212 228.66 416.756C229.196 417.3 229.608 417.964 229.896 418.748C230.184 419.532 230.328 420.408 230.328 421.376C230.328 422.352 230.184 423.232 229.896 424.016C229.608 424.8 229.196 425.468 228.66 426.02C228.132 426.572 227.492 426.996 226.74 427.292C225.996 427.588 225.168 427.736 224.256 427.736C223.336 427.736 222.5 427.588 221.748 427.292C220.996 426.996 220.352 426.572 219.816 426.02C219.288 425.468 218.876 424.8 218.58 424.016C218.292 423.232 218.148 422.352 218.148 421.376C218.148 420.408 218.292 419.532 218.58 418.748C218.876 417.964 219.288 417.3 219.816 416.756C220.352 416.212 220.996 415.792 221.748 415.496C222.5 415.2 223.336 415.052 224.256 415.052ZM224.256 425.456C225.28 425.456 226.036 425.112 226.524 424.424C227.02 423.736 227.268 422.728 227.268 421.4C227.268 420.072 227.02 419.06 226.524 418.364C226.036 417.668 225.28 417.32 224.256 417.32C223.216 417.32 222.444 417.672 221.94 418.376C221.444 419.072 221.196 420.08 221.196 421.4C221.196 422.72 221.444 423.728 221.94 424.424C222.444 425.112 223.216 425.456 224.256 425.456ZM243.545 425.336V427.556H233.945V425.336H237.461V415.22C237.461 414.82 237.473 414.408 237.497 413.984L235.001 416.072C234.857 416.184 234.713 416.256 234.569 416.288C234.433 416.312 234.301 416.312 234.173 416.288C234.053 416.264 233.945 416.224 233.849 416.168C233.753 416.104 233.681 416.036 233.633 415.964L232.697 414.68L237.989 410.18H240.425V425.336H243.545ZM256.819 424.796C257.139 424.796 257.391 424.888 257.575 425.072C257.767 425.248 257.863 425.484 257.863 425.78V427.556H245.959V426.572C245.959 426.372 245.999 426.164 246.079 425.948C246.167 425.724 246.303 425.524 246.487 425.348L251.755 420.068C252.195 419.62 252.587 419.192 252.931 418.784C253.283 418.376 253.575 417.972 253.807 417.572C254.039 417.172 254.215 416.768 254.335 416.36C254.463 415.944 254.527 415.508 254.527 415.052C254.527 414.636 254.467 414.272 254.347 413.96C254.227 413.64 254.055 413.372 253.831 413.156C253.615 412.94 253.351 412.78 253.039 412.676C252.735 412.564 252.391 412.508 252.007 412.508C251.655 412.508 251.327 412.56 251.023 412.664C250.727 412.76 250.463 412.9 250.231 413.084C249.999 413.26 249.803 413.468 249.643 413.708C249.483 413.948 249.363 414.212 249.283 414.5C249.147 414.868 248.971 415.112 248.755 415.232C248.539 415.352 248.227 415.38 247.819 415.316L246.259 415.04C246.379 414.208 246.611 413.48 246.955 412.856C247.299 412.224 247.727 411.7 248.239 411.284C248.759 410.86 249.351 410.544 250.015 410.336C250.687 410.12 251.407 410.012 252.175 410.012C252.975 410.012 253.707 410.132 254.371 410.372C255.035 410.604 255.603 410.936 256.075 411.368C256.547 411.8 256.915 412.32 257.179 412.928C257.443 413.536 257.575 414.212 257.575 414.956C257.575 415.596 257.479 416.188 257.287 416.732C257.103 417.276 256.851 417.796 256.531 418.292C256.219 418.788 255.851 419.268 255.427 419.732C255.003 420.196 254.559 420.668 254.095 421.148L250.183 425.144C250.559 425.032 250.931 424.948 251.299 424.892C251.675 424.828 252.031 424.796 252.367 424.796H256.819ZM260.265 415.04C260.385 414.208 260.617 413.48 260.961 412.856C261.305 412.224 261.733 411.7 262.245 411.284C262.765 410.86 263.357 410.544 264.021 410.336C264.693 410.12 265.413 410.012 266.181 410.012C266.981 410.012 267.701 410.128 268.341 410.36C268.989 410.584 269.541 410.9 269.997 411.308C270.453 411.708 270.801 412.18 271.041 412.724C271.289 413.268 271.413 413.856 271.413 414.488C271.413 415.04 271.349 415.528 271.221 415.952C271.101 416.368 270.925 416.732 270.693 417.044C270.461 417.356 270.173 417.62 269.829 417.836C269.485 418.052 269.097 418.232 268.665 418.376C269.705 418.704 270.481 419.204 270.993 419.876C271.505 420.548 271.761 421.392 271.761 422.408C271.761 423.272 271.601 424.036 271.281 424.7C270.961 425.364 270.529 425.924 269.985 426.38C269.441 426.828 268.809 427.168 268.089 427.4C267.377 427.632 266.621 427.748 265.821 427.748C264.949 427.748 264.189 427.648 263.541 427.448C262.893 427.248 262.329 426.952 261.849 426.56C261.369 426.168 260.961 425.688 260.625 425.12C260.289 424.552 260.001 423.896 259.761 423.152L261.069 422.612C261.413 422.468 261.733 422.432 262.029 422.504C262.333 422.568 262.553 422.728 262.689 422.984C262.833 423.264 262.989 423.54 263.157 423.812C263.333 424.084 263.541 424.328 263.781 424.544C264.021 424.752 264.301 424.924 264.621 425.06C264.949 425.188 265.337 425.252 265.785 425.252C266.289 425.252 266.729 425.172 267.105 425.012C267.481 424.844 267.793 424.628 268.041 424.364C268.297 424.1 268.485 423.808 268.605 423.488C268.733 423.16 268.797 422.832 268.797 422.504C268.797 422.088 268.753 421.712 268.665 421.376C268.577 421.032 268.393 420.74 268.113 420.5C267.833 420.26 267.429 420.072 266.901 419.936C266.381 419.8 265.681 419.732 264.801 419.732V417.62C265.529 417.612 266.133 417.544 266.613 417.416C267.093 417.288 267.473 417.112 267.753 416.888C268.041 416.656 268.241 416.38 268.353 416.06C268.465 415.74 268.521 415.388 268.521 415.004C268.521 414.188 268.293 413.568 267.837 413.144C267.381 412.72 266.773 412.508 266.013 412.508C265.661 412.508 265.337 412.56 265.041 412.664C264.745 412.76 264.477 412.9 264.237 413.084C264.005 413.26 263.809 413.468 263.649 413.708C263.489 413.948 263.369 414.212 263.289 414.5C263.153 414.868 262.973 415.112 262.749 415.232C262.533 415.352 262.225 415.38 261.825 415.316L260.265 415.04Z" fill="white"/>
<path d="M310.86 681.65L313.463 657.538L281.313 657.546L283.916 681.65H310.86Z" fill="#FFC836"/>
<path d="M298.192 656.735C303.075 656.735 307.033 652.776 307.033 647.893C307.033 643.011 303.075 639.052 298.192 639.052C293.309 639.052 289.351 643.011 289.351 647.893C289.351 652.776 293.309 656.735 298.192 656.735Z" fill="#4C0788"/>
<path d="M291.762 656.735C294.869 656.735 297.388 654.216 297.388 651.108C297.388 648.001 294.869 645.482 291.762 645.482C288.655 645.482 286.136 648.001 286.136 651.108C286.136 654.216 288.655 656.735 291.762 656.735Z" fill="#4C0788"/>
<path d="M307.033 658.342C307.921 658.342 308.641 657.622 308.641 656.734C308.641 655.847 307.921 655.127 307.033 655.127C306.145 655.127 305.426 655.847 305.426 656.734C305.426 657.622 306.145 658.342 307.033 658.342Z" fill="#FFC836"/>
<path d="M306.23 645.482C307.117 645.482 307.837 644.762 307.837 643.875C307.837 642.987 307.117 642.267 306.23 642.267C305.342 642.267 304.622 642.987 304.622 643.875C304.622 644.762 305.342 645.482 306.23 645.482Z" fill="#4C0788"/>
</g>
<defs>
<linearGradient id="paint0_linear" x1="370" y1="572.468" x2="370" y2="96.3252" gradientUnits="userSpaceOnUse">
<stop stop-color="#FAD144"/>
<stop offset="1" stop-color="#FAD144" stop-opacity="0"/>
</linearGradient>
<linearGradient id="paint1_linear" x1="253.107" y1="964" x2="253.107" y2="356.107" gradientUnits="userSpaceOnUse">
<stop stop-color="#8464AC"/>
<stop offset="1" stop-color="#8464AC" stop-opacity="0"/>
</linearGradient>
<clipPath id="clip0">
<rect width="375" height="812" fill="white"/>
</clipPath>
</defs>
</svg>
