<svg width="376" height="812" viewBox="0 0 376 812" fill="none" xmlns="http://www.w3.org/2000/svg">
<mask id="mask0" mask-type="alpha" maskUnits="userSpaceOnUse" x="0" y="0" width="376" height="812">
<rect width="376" height="812" fill="white"/>
</mask>
<g mask="url(#mask0)">
<rect width="375" height="812" fill="white"/>
<path fill-rule="evenodd" clip-rule="evenodd" d="M153.569 1289.92C70.2165 1289.92 2 1221.73 2 1138.42C2 1055.08 70.2165 986.915 153.569 986.915C188.817 986.915 217.652 958.094 217.652 922.863C217.652 887.634 188.817 858.811 153.569 858.811H145.95C109.304 858.811 79.3203 828.84 79.3203 792.213C79.3203 755.584 109.304 725.614 145.95 725.614H169.334C183.596 725.614 195.268 713.947 195.268 699.693C195.268 685.438 183.596 673.771 169.334 673.771H152.15C142.295 673.771 134.255 665.714 134.255 655.884C134.255 646.035 142.316 637.999 152.15 637.999H267.723C283.196 637.999 295.85 625.351 295.85 609.885C295.85 594.421 283.196 581.773 267.723 581.773H233.167C223.312 581.773 215.272 573.717 215.272 563.888C215.272 554.036 223.331 546 233.167 546H724.67C737.511 546 748.034 556.521 748.034 569.355C748.034 582.19 737.511 592.71 724.67 592.71H689.235C669.044 592.71 652.528 609.217 652.528 629.4C652.528 649.583 669.044 666.09 689.235 666.09H840.994C853.836 666.09 864.361 676.61 864.361 689.445C864.361 702.28 853.857 712.799 840.994 712.799H818.569C799.943 712.799 784.722 728.035 784.722 746.632C784.722 765.247 799.964 780.462 818.569 780.462H849.095C896.913 780.462 936.043 819.575 936.043 867.368C936.043 915.162 896.913 954.273 849.095 954.273H839.136C793.135 954.273 755.509 991.882 755.509 1037.86C755.509 1083.84 793.135 1121.45 839.136 1121.45H860.685C907.06 1121.45 945 1159.37 945 1205.72C945 1252.08 907.06 1290 860.685 1290C620.749 1289.92 393.507 1289.92 153.569 1289.92ZM785.001 592C797.704 592 808 581.703 808 569C808 556.297 797.704 546 785.001 546C772.298 546 762 556.297 762 569C762 581.703 772.298 592 785.001 592ZM100.999 673C110.957 673 119 664.934 119 654.999C119 645.045 110.935 637 100.999 637C91.0443 637 83 645.065 83 654.999C82.9802 664.934 91.0443 673 100.999 673Z" fill="url(#paint0_linear)"/>
<path fill-rule="evenodd" clip-rule="evenodd" d="M-383.759 730.951C-432.285 730.951 -472 691.268 -472 642.78C-472 594.279 -432.285 554.608 -383.759 554.608C-363.238 554.608 -346.451 537.834 -346.451 517.33C-346.451 496.828 -363.238 480.053 -383.759 480.053H-388.195C-409.529 480.053 -426.985 462.61 -426.985 441.293C-426.985 419.976 -409.529 402.534 -388.195 402.534H-374.58C-366.278 402.534 -359.482 395.744 -359.482 387.448C-359.482 379.151 -366.278 372.361 -374.58 372.361H-384.585C-390.322 372.361 -395.003 367.672 -395.003 361.952C-395.003 356.219 -390.31 351.542 -384.585 351.542H-317.3C-308.292 351.542 -300.925 344.182 -300.925 335.18C-300.925 326.18 -308.292 318.82 -317.3 318.82H-337.418C-343.156 318.82 -347.837 314.131 -347.837 308.41C-347.837 302.677 -343.144 298 -337.418 298H-51.2727C-43.797 298 -37.6705 304.123 -37.6705 311.592C-37.6705 319.062 -43.797 325.185 -51.2727 325.185H-71.9023C-83.6571 325.185 -93.2727 334.792 -93.2727 346.538C-93.2727 358.284 -83.6571 367.891 -71.9023 367.891H16.4496C23.9259 367.891 30.053 374.013 30.053 381.483C30.053 388.953 23.9381 395.075 16.4496 395.075H3.39401C-7.45023 395.075 -16.3116 403.942 -16.3116 414.765C-16.3116 425.6 -7.43741 434.454 3.39401 434.454H21.1653C49.0045 434.454 71.7855 457.217 71.7855 485.033C71.7855 512.848 49.0045 535.611 21.1653 535.611H15.3678C-11.4132 535.611 -33.3187 557.499 -33.3187 584.258C-33.3187 611.016 -11.4132 632.905 15.3678 632.905H27.9131C54.9119 632.905 77 654.975 77 681.952C77 708.93 54.9119 731 27.9131 731C-111.774 730.951 -244.071 730.951 -383.759 730.951ZM-16.4993 325C-9.04333 325 -3 318.956 -3 311.5C-3 304.044 -9.04333 298 -16.4993 298C-23.9553 298 -30 304.044 -30 311.5C-30 318.956 -23.9553 325 -16.4993 325ZM-414.5 372C-408.692 372 -404 367.295 -404 361.5C-404 355.693 -408.705 351 -414.5 351C-420.308 351 -425 355.704 -425 361.5C-425.012 367.295 -420.308 372 -414.5 372Z" fill="url(#paint1_linear)"/>
<path fill-rule="evenodd" clip-rule="evenodd" d="M394.241 514.951C345.715 514.951 306 475.268 306 426.78C306 378.279 345.715 338.608 394.241 338.608C414.762 338.608 431.549 321.834 431.549 301.33C431.549 280.828 414.762 264.053 394.241 264.053H389.805C368.471 264.053 351.015 246.61 351.015 225.293C351.015 203.976 368.471 186.534 389.805 186.534H403.42C411.722 186.534 418.518 179.744 418.518 171.448C418.518 163.151 411.722 156.361 403.42 156.361H393.415C387.678 156.361 382.997 151.672 382.997 145.952C382.997 140.219 387.69 135.542 393.415 135.542H460.7C469.708 135.542 477.075 128.182 477.075 119.18C477.075 110.18 469.708 102.82 460.7 102.82H440.582C434.844 102.82 430.163 98.1307 430.163 92.4105C430.163 86.6767 434.856 82 440.582 82H726.727C734.203 82 740.329 88.123 740.329 95.5924C740.329 103.062 734.203 109.185 726.727 109.185H706.098C694.343 109.185 684.727 118.792 684.727 130.538C684.727 142.284 694.343 151.891 706.098 151.891H794.45C801.926 151.891 808.053 158.013 808.053 165.483C808.053 172.953 801.938 179.075 794.45 179.075H781.394C770.55 179.075 761.688 187.942 761.688 198.765C761.688 209.6 770.563 218.454 781.394 218.454H799.165C827.005 218.454 849.785 241.217 849.785 269.033C849.785 296.848 827.005 319.611 799.165 319.611H793.368C766.587 319.611 744.681 341.499 744.681 368.258C744.681 395.016 766.587 416.905 793.368 416.905H805.913C832.912 416.905 855 438.975 855 465.952C855 492.93 832.912 515 805.913 515C666.226 514.951 533.929 514.951 394.241 514.951ZM761.501 109C768.957 109 775 102.956 775 95.5C775 88.0441 768.957 82 761.501 82C754.045 82 748 88.0441 748 95.5C748 102.956 754.045 109 761.501 109ZM363.5 156C369.308 156 374 151.295 374 145.5C374 139.693 369.295 135 363.5 135C357.692 135 353 139.704 353 145.5C352.988 151.295 357.692 156 363.5 156Z" fill="url(#paint2_linear)"/>
</g>
<defs>
<linearGradient id="paint0_linear" x1="473.5" y1="748" x2="473.5" y2="342.5" gradientUnits="userSpaceOnUse">
<stop stop-color="#FAD144"/>
<stop offset="1" stop-color="#FAD144" stop-opacity="0"/>
</linearGradient>
<linearGradient id="paint1_linear" x1="-197.5" y1="731" x2="-197.5" y2="139.5" gradientUnits="userSpaceOnUse">
<stop stop-color="#8464AC"/>
<stop offset="1" stop-color="#8464AC" stop-opacity="0"/>
</linearGradient>
<linearGradient id="paint2_linear" x1="580.5" y1="616" x2="580.5" y2="82" gradientUnits="userSpaceOnUse">
<stop stop-color="#8464AC"/>
<stop offset="1" stop-color="#8464AC" stop-opacity="0"/>
</linearGradient>
</defs>
</svg>
