<svg width="68" height="21" viewBox="0 0 68 21" fill="none" xmlns="http://www.w3.org/2000/svg">
<path d="M0.117087 20.6844H2.69286V12.3361C2.69286 11.9057 2.7514 11.4754 2.86848 11.1598C3.30753 9.7541 4.6247 8.57787 6.32237 8.57787C8.7518 8.57787 9.60064 10.4426 9.60064 12.6803V20.6844H12.1764V12.3934C12.1764 7.63115 9.13232 6.48361 7.17122 6.48361C4.8296 6.48361 3.19046 7.77459 2.48798 9.09426H2.42943L2.28308 6.79918H0C0.0878106 7.94672 0.117087 9.12295 0.117087 10.5574V20.6844Z" fill="#522F88"/>
<path d="M26.6545 20.6844C26.4789 19.7377 26.4203 18.5615 26.4203 17.3566V12.1639C26.4203 9.38115 25.3666 6.48361 21.0346 6.48361C19.2491 6.48361 17.5515 6.97131 16.3806 7.71721L16.966 9.38115C17.9612 8.75 19.3369 8.34836 20.6541 8.34836C23.5519 8.34836 23.8738 10.4139 23.8738 11.5615V11.8484C18.4003 11.8197 15.3562 13.6557 15.3562 17.0123C15.3562 19.0205 16.8197 21 19.6882 21C21.7078 21 23.2299 20.0246 24.0202 18.9344H24.108L24.3129 20.6844H26.6545ZM23.9324 16.0082C23.9324 16.2664 23.8738 16.5533 23.786 16.8115C23.3762 17.9877 22.2054 19.1352 20.3614 19.1352C19.0442 19.1352 17.932 18.3607 17.932 16.7254C17.932 14.0287 21.1224 13.541 23.9324 13.5984V16.0082Z" fill="#522F88"/>
<path d="M35.3293 20.6844V9.86885H39.5442V20.6844H43.9933V6.65574H35.3V6.16803C35.3 4.61885 36.1196 3.44262 38.4612 3.44262C39.8662 3.44262 41.0077 3.78688 41.7102 4.15984L42.559 0.860655C41.6809 0.344261 39.8662 0 38.3441 0C33.9243 0 30.8509 2.18033 30.8509 6.05328V6.65574H28.9776V9.86885H30.8509V20.6844H35.3293Z" fill="#522F88"/>
<path d="M47.6766 20.6844H52.1256V0.315573H47.6766V20.6844Z" fill="#522F88"/>
<path d="M68 20.6844C67.8536 19.9098 67.7951 18.6189 67.7951 17.2705V12.3934C67.7951 9.09426 66.2731 6.34016 61.502 6.34016C58.897 6.34016 56.9359 7.02869 55.9407 7.57377L56.7602 10.3852C57.6969 9.81148 59.2482 9.32377 60.7117 9.32377C62.907 9.32377 63.3168 10.3852 63.3168 11.1311V11.332C58.253 11.3033 54.9162 13.0533 54.9162 16.6967C54.9162 18.9344 56.6432 21 59.5409 21C61.2386 21 62.7021 20.3975 63.6387 19.2787H63.7265L63.99 20.6844H68ZM63.4631 15.5779C63.4631 15.8361 63.4338 16.0943 63.3753 16.3238C63.0826 17.2131 62.1752 17.9303 61.063 17.9303C60.0678 17.9303 59.3067 17.3852 59.3067 16.2664C59.3067 14.5738 61.1215 14.0287 63.4631 14.0574V15.5779Z" fill="#522F88"/>
</svg>
