<svg width="163" height="238" viewBox="0 0 163 238" fill="none" xmlns="http://www.w3.org/2000/svg">
<g filter="url(#filter0_d)">
<path fill-rule="evenodd" clip-rule="evenodd" d="M19 8.02381C19 8.02381 35.776 6.84018 41.6487 21.1624C48.1694 37.0654 49.7919 40.4984 49.7919 40.4984C49.7919 40.4984 58.3287 63.0572 81.1622 63.0572C103.996 63.0572 112.532 40.4984 112.532 40.4984C112.532 40.4984 114.155 37.0654 120.676 21.1624C126.549 6.84018 143.324 8.02381 143.324 8.02381V152.967C143.324 152.967 126.549 151.783 120.676 166.106C114.155 182.009 112.532 185.442 112.532 185.442C112.532 185.442 103.996 208 81.1622 208C58.3287 208 49.7919 185.442 49.7919 185.442C49.7919 185.442 48.1694 182.009 41.6487 166.106C35.776 151.783 19 152.967 19 152.967V8.02381Z" fill="#4C0788"/>
</g>
<path fill-rule="evenodd" clip-rule="evenodd" d="M80.1422 102.66V118H84.7644V102.66H91.0023V118H95.6621V99.0874H84.7268V98.3106C84.7268 95.8252 85.7789 93.8058 89.011 93.8058C90.7391 93.8058 92.1672 94.3105 93.0316 94.8157L94.0461 91.2038C92.994 90.5048 90.8143 90 89.011 90C83.562 90 80.1422 93.1067 80.1422 98.194V99.0874H77.6621V102.66H80.1422ZM39.816 103.737C39.816 101.717 39.7776 100.061 39.6621 98.4443H42.6619L42.8543 101.677H42.9313C43.8545 99.818 46.0081 98 49.0852 98C51.6618 98 55.6621 99.6159 55.6621 106.323V118H52.2775V106.727C52.2775 103.575 51.1622 100.95 47.9696 100.95C45.7391 100.95 44.0084 102.606 43.4312 104.586C43.2776 105.03 43.2007 105.636 43.2007 106.242V118H39.816V103.737ZM71.0479 108.293C67.3175 108.21 63.0815 108.915 63.0815 112.816C63.0815 115.182 64.5587 116.302 66.3069 116.302C68.7554 116.302 70.3095 114.642 70.8539 112.941C70.9702 112.567 71.0479 112.152 71.0479 111.778V108.293ZM71.553 118.543L71.2809 116.012H71.1646C70.1151 117.589 68.0947 119 65.4133 119C61.6051 119 59.6621 116.136 59.6621 113.231C59.6621 108.376 63.7036 105.72 70.9702 105.761V105.346C70.9702 103.686 70.5428 100.698 66.6957 100.698C64.9471 100.698 63.1204 101.279 61.7995 102.192L61.0219 99.7848C62.5764 98.7055 64.8301 98 67.2008 98C72.952 98 74.3511 102.192 74.3511 106.218V113.729C74.3511 115.472 74.4288 117.174 74.6621 118.543H71.553ZM101.662 118H106.662V90H101.662V118ZM114.612 112.481C114.612 109.428 117.979 108.644 121.509 108.727V111.491C121.509 111.821 121.469 112.234 121.347 112.605C120.901 114.049 119.44 115.369 117.452 115.369C115.87 115.369 114.612 114.462 114.612 112.481ZM121.834 116.318L122.159 118.546H126.662C126.459 117.308 126.378 115.534 126.378 113.719V106.458C126.378 102.084 124.552 98 118.223 98C115.099 98 112.543 98.8665 111.083 99.7739L112.056 103.075C113.395 102.208 115.423 101.589 117.371 101.589C120.86 101.589 121.388 103.776 121.388 105.096V105.426C114.085 105.385 109.662 107.943 109.662 113.018C109.662 116.071 111.894 119 115.87 119C118.426 119 120.495 117.886 121.712 116.318H121.834Z" fill="white"/>
<defs>
<filter id="filter0_d" x="0" y="0" width="162.324" height="238" filterUnits="userSpaceOnUse" color-interpolation-filters="sRGB">
<feFlood flood-opacity="0" result="BackgroundImageFix"/>
<feColorMatrix in="SourceAlpha" type="matrix" values="0 0 0 0 0 0 0 0 0 0 0 0 0 0 0 0 0 0 127 0"/>
<feOffset dy="11"/>
<feGaussianBlur stdDeviation="9.5"/>
<feColorMatrix type="matrix" values="0 0 0 0 0 0 0 0 0 0 0 0 0 0 0 0 0 0 0.205911 0"/>
<feBlend mode="normal" in2="BackgroundImageFix" result="effect1_dropShadow"/>
<feBlend mode="normal" in="SourceGraphic" in2="effect1_dropShadow" result="shape"/>
</filter>
</defs>
</svg>
